<svg width="51" height="51" viewBox="0 0 51 51" fill="none" xmlns="http://www.w3.org/2000/svg">
<g clip-path="url(#clip0_108_46328)">
<path d="M0.323364 13.6243H50.3233V9.8065C50.3233 9.33043 49.9372 8.9444 49.4612 8.9444H1.18547C0.709399 8.9444 0.323364 9.33043 0.323364 9.8065V13.6243Z" fill="#73AF00"/>
<path d="M50.3233 13.6245H0.323364V18.3045H50.3233V13.6245Z" fill="#F5F5F5"/>
<path d="M50.3233 18.3042H0.323364V22.9841H50.3233V18.3042Z" fill="#73AF00"/>
<path d="M50.3233 22.9838H0.323364V27.6638H50.3233V22.9838Z" fill="#F5F5F5"/>
<path d="M50.3233 27.6645H0.323364V32.3445H50.3233V27.6645Z" fill="#73AF00"/>
<path d="M50.3233 32.3432H0.323364V37.0232H50.3233V32.3432Z" fill="#F5F5F5"/>
<path d="M1.18547 41.703H49.4613C49.9373 41.703 50.3234 41.3169 50.3234 40.8409V37.0231H0.323364V40.8409C0.323364 41.317 0.709399 41.703 1.18547 41.703Z" fill="#73AF00"/>
<path d="M1.18547 22.9838H24.4612C24.9373 22.9838 25.3233 22.5978 25.3233 22.1217V9.8065C25.3233 9.33043 24.9373 8.9444 24.4612 8.9444H1.18547C0.709399 8.9444 0.323364 9.33043 0.323364 9.8065V22.1217C0.323364 22.5978 0.709399 22.9838 1.18547 22.9838Z" fill="#FF4B55"/>
<path d="M13.5794 21.8755H12.1895C12.0631 21.8755 11.9499 21.7968 11.9061 21.6783L11.4585 20.4701C11.2838 19.9984 11.2054 19.4964 11.2279 18.994L11.3837 15.5043C11.3877 15.4157 11.4446 15.3382 11.5279 15.308C11.6708 15.2559 11.8222 15.3619 11.8222 15.5141V17.1033C11.8222 17.1477 11.8582 17.1837 11.9027 17.1837C11.9456 17.1837 11.9809 17.1502 11.9831 17.1073L12.108 14.5733C12.113 14.4704 12.1904 14.3856 12.2923 14.3711C12.4187 14.353 12.533 14.4484 12.5377 14.5761L12.624 16.9385C12.6257 16.986 12.6677 17.0217 12.7148 17.0158C12.7546 17.0108 12.7848 16.9773 12.7856 16.9371L12.8374 14.312C12.8403 14.1686 12.9813 14.0691 13.1173 14.1144C13.2006 14.1423 13.2582 14.2182 13.2624 14.3059L13.3906 16.9592C13.3919 16.9887 13.4092 17.0152 13.4356 17.0284C13.4889 17.0551 13.552 17.0175 13.5538 16.9578L13.618 14.9019C13.6229 14.7466 13.7855 14.6475 13.9257 14.7143C13.9965 14.748 14.0434 14.8176 14.048 14.896L14.1976 17.4192L14.5979 18.5869C14.6204 18.6525 14.7125 18.6537 14.7364 18.5886C14.8497 18.2792 15.1071 17.7012 15.52 17.4467C15.5931 17.4017 15.6869 17.4075 15.7556 17.459C15.8567 17.5349 15.8685 17.6811 15.7821 17.7732C15.5808 17.9875 15.2873 18.4377 15.3085 19.2294C15.3113 19.3302 15.2821 19.4293 15.2225 19.5106L14.0946 21.0514C13.9817 21.2057 13.9092 21.3859 13.8839 21.5754L13.8789 21.6132C13.8591 21.7634 13.731 21.8755 13.5794 21.8755Z" fill="#F5F5F5"/>
<path d="M12.8883 10.1251L13.1148 10.8042L13.8306 10.8097C13.8861 10.8101 13.909 10.8809 13.8644 10.9139L13.2885 11.3391L13.5044 12.0216C13.5211 12.0746 13.461 12.1183 13.4159 12.086L12.8334 11.6697L12.251 12.086C12.2059 12.1182 12.1458 12.0745 12.1625 12.0216L12.3784 11.3391L11.8025 10.9139C11.7579 10.8809 11.7808 10.8101 11.8363 10.8097L12.5521 10.8042L12.7786 10.1251C12.7962 10.0725 12.8708 10.0725 12.8883 10.1251Z" fill="#F5F5F5"/>
<path d="M9.52078 11.1023L9.74724 11.7814L10.4631 11.7868C10.5185 11.7872 10.5415 11.858 10.4969 11.891L9.92097 12.3162L10.1369 12.9987C10.1536 13.0517 10.0934 13.0954 10.0483 13.0631L9.4659 12.6468L8.88348 13.0631C8.83836 13.0953 8.7782 13.0516 8.7949 12.9987L9.01082 12.3162L8.43494 11.891C8.39031 11.858 8.41326 11.7872 8.46873 11.7868L9.18455 11.7814L9.41101 11.1023C9.42888 11.0495 9.5032 11.0495 9.52078 11.1023Z" fill="#F5F5F5"/>
<path d="M16.3377 11.1023L16.5641 11.7814L17.28 11.7868C17.3354 11.7872 17.3584 11.858 17.3137 11.891L16.7379 12.3162L16.9538 12.9987C16.9705 13.0517 16.9103 13.0954 16.8652 13.0631L16.2828 12.6468L15.7004 13.0631C15.6553 13.0953 15.5951 13.0516 15.6118 12.9987L15.8277 12.3162L15.2518 11.891C15.2072 11.858 15.2302 11.7872 15.2856 11.7868L16.0014 11.7814L16.2279 11.1023C16.2458 11.0495 16.3201 11.0495 16.3377 11.1023Z" fill="#F5F5F5"/>
<path d="M18.596 13.6701L18.8224 14.3492L19.5383 14.3547C19.5937 14.3551 19.6167 14.4259 19.572 14.4589L18.9962 14.8841L19.2121 15.5666C19.2288 15.6195 19.1686 15.6633 19.1235 15.6309L18.5411 15.2146L17.9587 15.6309C17.9136 15.6632 17.8534 15.6194 17.8701 15.5666L18.086 14.8841L17.5101 14.4589C17.4655 14.4259 17.4885 14.3551 17.5439 14.3547L18.2597 14.3492L18.4862 13.6701C18.5041 13.6175 18.5784 13.6175 18.596 13.6701Z" fill="#F5F5F5"/>
<path d="M7.07461 13.6701L7.30108 14.3492L8.01689 14.3547C8.07236 14.3551 8.09531 14.4259 8.05068 14.4589L7.47481 14.8841L7.69072 15.5666C7.70742 15.6195 7.64727 15.6633 7.60215 15.6309L7.01973 15.2146L6.43731 15.6309C6.39219 15.6632 6.33204 15.6194 6.34873 15.5666L6.56465 14.8841L5.98877 14.4589C5.94415 14.4259 5.96709 14.3551 6.02256 14.3547L6.73838 14.3492L6.96485 13.6701C6.98252 13.6175 7.05703 13.6175 7.07461 13.6701Z" fill="#F5F5F5"/>
<path d="M19.2455 17.0383L19.472 17.7174L20.1878 17.7229C20.2433 17.7232 20.2662 17.794 20.2216 17.8271L19.6457 18.2522L19.8616 18.9348C19.8783 18.9877 19.8182 19.0314 19.7731 18.9991L19.1906 18.5828L18.6082 18.9991C18.5631 19.0313 18.5029 18.9876 18.5196 18.9348L18.7356 18.2522L18.1597 17.8271C18.115 17.794 18.138 17.7232 18.1935 17.7229L18.9093 17.7174L19.1357 17.0383C19.1534 16.9857 19.2279 16.9857 19.2455 17.0383Z" fill="#F5F5F5"/>
<path d="M6.19693 17.0383L6.42339 17.7174L7.13921 17.7229C7.19468 17.7232 7.21763 17.794 7.173 17.8271L6.59712 18.2522L6.81304 18.9348C6.82974 18.9877 6.76958 19.0314 6.72446 18.9991L6.14204 18.5828L5.55962 18.9991C5.51451 19.0313 5.45435 18.9876 5.47105 18.9348L5.68697 18.2522L5.11109 17.8271C5.06646 17.794 5.08941 17.7232 5.14488 17.7229L5.8607 17.7174L6.08716 17.0383C6.10493 16.9857 6.17935 16.9857 6.19693 17.0383Z" fill="#F5F5F5"/>
</g>
<defs>
<clipPath id="clip0_108_46328">
<rect width="50" height="50" fill="white" transform="translate(0.324219 0.32373)"/>
</clipPath>
</defs>
</svg>
