<svg width="51" height="51" viewBox="0 0 51 51" fill="none" xmlns="http://www.w3.org/2000/svg">
<g clip-path="url(#clip0_108_46294)">
<path d="M17.4189 41.7027H1.61431C1.13823 41.7027 0.752197 41.3167 0.752197 40.8406V9.80626C0.752197 9.33019 1.13823 8.94415 1.61431 8.94415H17.4189V41.7027Z" fill="#464655"/>
<path d="M34.0862 8.94455H17.4192V41.7033H34.0862V8.94455Z" fill="#FF4B55"/>
<path d="M49.8899 41.7027H34.0853V8.94415H49.8899C50.366 8.94415 50.752 9.33019 50.752 9.80626V40.8406C50.752 41.3168 50.366 41.7027 49.8899 41.7027Z" fill="#73AF00"/>
<path d="M28.0026 27.0137H23.5031L23.7531 26.5137H27.7526L28.0026 27.0137Z" fill="#F5F5F5"/>
<path d="M28.0026 23.014H23.5031L23.7531 23.514H27.7526L28.0026 23.014Z" fill="#F5F5F5"/>
<path d="M27.0028 23.264H24.5031L25.0031 22.7641H26.5029L27.0028 23.264Z" fill="#F5F5F5"/>
<path d="M24.5027 25.7639H23.7528V26.2639H24.5027V25.7639Z" fill="#F5F5F5"/>
<path d="M24.5027 25.0139H23.7528V25.5139H24.5027V25.0139Z" fill="#F5F5F5"/>
<path d="M24.5027 23.7639H23.7528V24.2639H24.5027V23.7639Z" fill="#F5F5F5"/>
<path d="M24.5027 24.5139H23.7528V24.7639H24.5027V24.5139Z" fill="#F5F5F5"/>
<path d="M27.7528 25.7639H27.0029V26.2639H27.7528V25.7639Z" fill="#F5F5F5"/>
<path d="M27.7528 25.0139H27.0029V25.5139H27.7528V25.0139Z" fill="#F5F5F5"/>
<path d="M27.7528 23.7639H27.0029V24.2639H27.7528V23.7639Z" fill="#F5F5F5"/>
<path d="M27.7528 24.5139H27.0029V24.7639H27.7528V24.5139Z" fill="#F5F5F5"/>
<path d="M24.5029 21.7639H24.0029V22.7638H24.5029V21.7639Z" fill="#F5F5F5"/>
<path d="M24.5029 21.5142H24.0029V21.2642C24.0029 21.1261 24.1148 21.0142 24.2529 21.0142C24.391 21.0142 24.5029 21.1261 24.5029 21.2642V21.5142Z" fill="#F5F5F5"/>
<path d="M27.5029 21.7639H27.0029V22.7638H27.5029V21.7639Z" fill="#F5F5F5"/>
<path d="M27.5027 21.5142H27.0027V21.2642C27.0027 21.1261 27.1146 21.0142 27.2527 21.0142C27.3908 21.0142 27.5027 21.1261 27.5027 21.2642V21.5142Z" fill="#F5F5F5"/>
<path d="M25.7527 23.764C25.2005 23.764 24.7528 24.2117 24.7528 24.7639V26.2638H26.7526V24.7639C26.7526 24.2117 26.3051 23.764 25.7527 23.764Z" fill="#F5F5F5"/>
<path d="M24.0978 25.3388L22.7367 23.751C22.7455 23.7253 22.7531 23.699 22.7531 23.6703C22.7531 23.5323 22.6411 23.4203 22.5031 23.4203C22.365 23.4203 22.2531 23.5323 22.2531 23.6703C22.2531 23.8084 22.365 23.9203 22.5031 23.9203C22.5181 23.9203 22.5312 23.9143 22.5454 23.9119L22.6863 24.0762L22.0031 25.6703L22.753 26.4202L23.4005 24.9094L23.908 25.5015L24.0978 25.3388ZM22.8817 25.861L22.2833 25.2626L22.5532 24.6327L23.1516 25.231L22.8817 25.861Z" fill="#F5F5F5"/>
<path d="M27.6038 25.5013L28.1113 24.9092L28.7589 26.4199L29.5088 25.67L28.8256 24.076L28.9664 23.9116C28.9808 23.9142 28.9937 23.9201 29.0088 23.9201C29.1469 23.9201 29.2588 23.8082 29.2588 23.6701C29.2588 23.532 29.1469 23.4201 29.0088 23.4201C28.8707 23.4201 28.7588 23.532 28.7588 23.6701C28.7588 23.6988 28.7662 23.7252 28.7751 23.7508L27.4141 25.3386L27.6038 25.5013ZM28.3602 25.231L28.9585 24.6326L29.2284 25.2626L28.6301 25.861L28.3602 25.231Z" fill="#F5F5F5"/>
<path d="M26.0359 21.3078C25.9573 21.2846 25.8872 21.2418 25.8429 21.173C25.8133 21.127 25.7831 21.0748 25.753 21.0143C25.7228 21.0748 25.6926 21.127 25.663 21.173C25.6186 21.2419 25.5486 21.2847 25.47 21.3078C25.0559 21.4297 24.7531 21.8105 24.7531 22.2641C24.7531 22.3509 24.7676 22.4337 24.7884 22.5141H26.7175C26.7383 22.4337 26.7529 22.3509 26.7529 22.2641C26.7528 21.8105 26.45 21.4297 26.0359 21.3078Z" fill="#F5F5F5"/>
<path d="M20.025 24.9845C20.0124 24.8291 20.0042 24.6726 20.0042 24.5139C20.0042 24.1928 20.0333 23.877 20.0848 23.5671C20.1569 23.617 20.2324 23.6719 20.3108 23.7335C20.2742 23.9899 20.2541 24.2502 20.2541 24.5139C20.2541 24.6987 20.2635 24.8814 20.2814 25.0616L20.8098 25.2203C20.7768 24.9888 20.754 24.7542 20.754 24.5139C20.754 24.3944 20.7611 24.2763 20.7706 24.1586C21.0465 24.4647 21.2643 24.8344 21.2643 25.243C21.2643 25.2535 22.0664 24.0556 20.6082 22.7328L20.5977 23.2953L19.7579 23.2865C19.6822 23.2857 19.6156 23.3394 19.6024 23.4139C19.5385 23.7732 19.5042 24.1406 19.5042 24.5139C19.5042 24.6201 19.507 24.7255 19.5122 24.8304L20.025 24.9845Z" fill="#F5F5F5"/>
<path d="M22.2424 19.962C22.3516 19.8778 22.3718 19.7208 22.2874 19.6115C22.2028 19.5021 22.046 19.4824 21.9367 19.5665C20.8053 20.4403 20.029 21.6407 19.6927 22.9853L20.208 22.9919C20.5323 21.8019 21.2339 20.7411 22.2424 19.962Z" fill="#F5F5F5"/>
<path d="M21.9074 20.5856C21.3637 21.118 20.9522 21.7446 20.6722 22.4253C20.8268 22.5524 20.9535 22.6807 21.0587 22.8083C21.3106 22.1143 21.7119 21.4771 22.2573 20.943C22.3559 20.8463 22.3576 20.6881 22.261 20.5896C22.164 20.4906 22.006 20.4889 21.9074 20.5856Z" fill="#F5F5F5"/>
<path d="M21.0387 27.7912C20.668 27.2593 20.3847 26.6628 20.2088 26.0221L20.4995 26.1289C20.681 26.7136 20.9565 27.2574 21.3092 27.7418L21.861 27.6409C21.5495 27.2536 21.2934 26.8202 21.1064 26.352L21.4326 26.4718C21.6187 26.8805 21.857 27.2563 22.1411 27.5897L22.7152 27.4845C22.4894 27.254 22.2919 26.9946 22.1218 26.7147L21.7892 26.0495C21.6865 25.844 21.5036 25.6901 21.2835 25.6242L20.4966 25.3876L20.3147 25.333L20.0528 25.2542L19.5318 25.0977L19.2537 25.0141L19.4257 25.5305C19.4635 25.6439 19.54 25.7385 19.6394 25.8006C19.7985 26.556 20.0935 27.2618 20.4988 27.8904L21.0387 27.7912Z" fill="#F5F5F5"/>
<path d="M30.9085 23.2953L30.8981 22.7328C29.4399 24.0556 30.2419 25.2535 30.2419 25.243C30.2419 24.8344 30.4597 24.4647 30.7357 24.1586C30.7451 24.2763 30.7523 24.3945 30.7523 24.5139C30.7523 24.7543 30.7294 24.9889 30.6964 25.2203L31.2248 25.0616C31.2427 24.8814 31.2522 24.6988 31.2522 24.5139C31.2522 24.2501 31.2321 23.9898 31.1953 23.7335C31.2738 23.672 31.3494 23.617 31.4213 23.5671C31.473 23.8769 31.502 24.1929 31.502 24.5139C31.502 24.6725 31.4938 24.8291 31.4811 24.9845L31.9939 24.8304C31.9992 24.7255 32.0019 24.6201 32.0019 24.5139C32.0019 24.1406 31.9674 23.7732 31.9036 23.4139C31.8904 23.3393 31.8238 23.2857 31.7482 23.2865L30.9085 23.2953Z" fill="#F5F5F5"/>
<path d="M31.2977 22.992L31.8129 22.9854C31.4766 21.6408 30.7003 20.4404 29.569 19.5666C29.4597 19.4824 29.303 19.5022 29.2183 19.6116C29.1339 19.7209 29.154 19.878 29.2633 19.9622C30.2718 20.7411 30.9734 21.8019 31.2977 22.992Z" fill="#F5F5F5"/>
<path d="M30.8333 22.4253C30.5532 21.7447 30.1418 21.118 29.5982 20.5856C29.4995 20.4889 29.3415 20.4906 29.2447 20.5895C29.1481 20.6881 29.1498 20.8463 29.2485 20.9429C29.7939 21.477 30.1951 22.1141 30.4471 22.8082C30.5521 22.6807 30.6786 22.5524 30.8333 22.4253Z" fill="#F5F5F5"/>
<path d="M31.9739 25.0974L31.4529 25.2539L31.191 25.3327L31.0091 25.3873L30.2222 25.6238C30.0021 25.6899 29.8191 25.8438 29.7165 26.0491L29.3839 26.7144C29.2139 26.9942 29.0163 27.2537 28.7905 27.4842L29.3646 27.5894C29.6487 27.256 29.8871 26.8803 30.0731 26.4715L30.3993 26.3517C30.2122 26.8198 29.9562 27.2534 29.6447 27.6405L30.1965 27.7415C30.5494 27.2569 30.8247 26.7133 31.0062 26.1286L31.2969 26.0218C31.121 26.6625 30.8377 27.2591 30.467 27.7909L31.0069 27.8898C31.4122 27.2609 31.7071 26.5553 31.8663 25.8C31.9657 25.7378 32.0422 25.6432 32.08 25.5299L32.252 25.0135L31.9739 25.0974Z" fill="#F5F5F5"/>
<path d="M28.3582 27.8612L28.3453 27.8726C27.618 28.4339 26.7148 28.7634 25.7531 28.7634C24.7914 28.7634 23.8881 28.4339 23.1609 27.8726L23.148 27.8612C23.0536 27.7574 22.9117 27.7109 22.7742 27.7386L20.2537 28.2635L20.8129 28.7538C20.9625 28.8849 21.1547 28.9461 21.3458 28.9348C21.7959 29.3831 22.3128 29.764 22.8813 30.06L22.7175 30.3623C23.6206 30.8533 24.6548 31.1325 25.7531 31.1325C26.8513 31.1325 27.8855 30.8533 28.7886 30.3623L28.6249 30.06C29.1933 29.764 29.7102 29.383 30.1603 28.9348C30.3514 28.9461 30.5437 28.8848 30.6933 28.7538L31.2526 28.2635L28.7321 27.7386C28.5945 27.7109 28.4525 27.7575 28.3582 27.8612ZM23.1202 29.6187C22.667 29.383 22.2522 29.0852 21.8789 28.7427L22.1215 28.627C22.4605 28.927 22.8333 29.1897 23.2385 29.4L23.1202 29.6187ZM29.6269 28.7429C29.2537 29.0853 28.8387 29.383 28.3856 29.6189L28.2671 29.4003C28.6723 29.19 29.0451 28.9273 29.3841 28.6273L29.6269 28.7429ZM25.7529 29.5133C24.5623 29.5133 23.4713 29.0909 22.6124 28.3929L22.8618 28.274C23.6728 28.8987 24.6806 29.2633 25.7527 29.2633C26.8248 29.2633 27.8327 28.8987 28.6436 28.274L28.893 28.3929C28.0346 29.0911 26.9435 29.5133 25.7529 29.5133Z" fill="#F5F5F5"/>
<path d="M23.0099 27.5069C23.1172 27.5977 23.2285 27.6837 23.3446 27.7635H28.1612C28.2772 27.6836 28.3885 27.5977 28.4958 27.5069L28.2527 27.2637H23.2532L23.0099 27.5069Z" fill="#F5F5F5"/>
</g>
<defs>
<clipPath id="clip0_108_46294">
<rect width="50" height="50" fill="white" transform="translate(0.751953 0.32373)"/>
</clipPath>
</defs>
</svg>
