<svg width="51" height="51" viewBox="0 0 51 51" fill="none" xmlns="http://www.w3.org/2000/svg">
<g clip-path="url(#clip0_108_46290)">
<path d="M49.3169 41.7029H1.04118C0.565112 41.7029 0.179077 41.3169 0.179077 40.8408V9.8065C0.179077 9.33043 0.565112 8.9444 1.04118 8.9444H49.317C49.793 8.9444 50.1791 9.33043 50.1791 9.8065V40.8408C50.179 41.317 49.7929 41.7029 49.3169 41.7029Z" fill="#4173CD"/>
<path d="M50.179 21.0133H22.5928V8.9444H13.9721V21.0133H0.179077V29.634H13.9721V41.7029H22.5928V29.634H50.179V21.0133Z" fill="#FFE15A"/>
<path d="M50.179 23.5995H20.0066V8.9444H16.5583V23.5995H0.179077V27.0478H16.5583V41.7029H20.0066V27.0478H50.179V23.5995Z" fill="#FF4B55"/>
</g>
<defs>
<clipPath id="clip0_108_46290">
<rect width="50" height="50" fill="white" transform="translate(0.179688 0.32373)"/>
</clipPath>
</defs>
</svg>
