<svg width="51" height="51" viewBox="0 0 51 51" fill="none" xmlns="http://www.w3.org/2000/svg">
<g clip-path="url(#clip0_108_46287)">
<path d="M49.7475 41.7029H1.47185C0.995776 41.7029 0.609741 41.3169 0.609741 40.8408V9.8065C0.609741 9.33043 0.995776 8.9444 1.47185 8.9444H49.7476C50.2237 8.9444 50.6097 9.33043 50.6097 9.8065V40.8408C50.6096 41.317 50.2236 41.7029 49.7475 41.7029Z" fill="#FF4B55"/>
<path d="M35.0388 29.405C34.5673 29.1088 34.2845 29.5801 34.2845 29.5801L32.9105 29.7418L33.5974 29.1626C34.0958 29.203 34.1632 29.0548 34.2978 28.8528C34.4325 28.6507 34.9982 28.7451 34.9982 28.7451C34.9174 28.1255 34.1361 28.4756 34.1361 28.4756C33.503 28.4083 33.3953 28.9202 33.3953 28.9202L32.412 29.6745L30.248 29.0333C30.4725 28.786 30.6487 28.5423 30.6744 28.3948C30.7175 28.147 29.0761 27.7302 28.5731 27.2094C28.0703 26.6885 27.8907 25.8625 28.1242 25.6469C28.3576 25.4314 28.5553 26.042 28.8066 26.5449C29.058 27.0478 29.5251 27.4428 29.8304 27.1915C30.1356 26.9401 29.5071 26.563 29.2197 26.0241C28.9324 25.4853 29.4353 25.2877 29.6687 25.3416C29.9022 25.3955 30.0459 26.5091 30.6027 27.0837C31.1594 27.6584 31.6623 27.5506 31.7162 27.1914C31.7701 26.8322 30.7974 26.3896 30.5997 26.0842C30.4021 25.779 30.3512 25.1799 30.6745 25.162C30.9977 25.144 32.1831 26.9106 33.189 27.5866C34.2845 28.3229 35.1644 27.4608 35.0209 27.1016C34.8772 26.7424 34.2127 26.8861 33.4404 26.6884C32.6682 26.4909 31.8779 25.4492 31.6444 24.8746C31.4109 24.2999 31.604 24.2999 31.7388 24.3538C31.8734 24.4077 32.3853 25.162 33.3686 25.7412C34.3519 26.3204 35.0389 25.7681 35.1197 25.6335C35.2006 25.4988 35.5112 24.8941 34.5001 25.0363C33.3508 25.1979 32.6951 24.5155 32.2237 24.1518C31.7522 23.7882 31.5637 23.2897 31.7792 23.0877C31.9947 22.8856 32.7041 23.797 33.7816 24.0844C34.7715 24.3483 35.1735 23.9228 35.1465 23.5322C35.1195 23.1416 34.8905 23.3032 33.7725 23.1955C32.6546 23.0878 31.8733 22.0371 31.8329 21.9697C31.7925 21.9023 31.8059 21.5252 32.3717 21.8888C32.9374 22.2525 33.9476 22.468 34.5403 22.4411C35.133 22.4141 35.2542 21.6194 34.9714 21.4847C34.6886 21.3501 34.6212 21.5521 33.9746 21.6868C33.328 21.8215 32.1158 21.1615 31.8194 20.8516C31.523 20.5418 31.8464 20.3398 31.9945 20.3667C32.1427 20.3935 33.1125 20.9594 33.9746 20.9324C34.8367 20.9055 35.2004 20.1107 35.1734 19.8682C35.1465 19.6258 34.904 19.4237 34.5403 19.6662C34.1766 19.9087 33.6917 20.1915 32.8836 20.0568C32.0754 19.9222 31.6982 19.3833 31.806 19.1813C31.9138 18.9793 32.695 19.3295 33.9343 19.1948C35.1735 19.0601 35.2273 17.969 35.1061 17.7535C34.9849 17.538 34.6886 17.6054 34.271 17.996C33.8534 18.3866 33.0452 18.4675 32.4122 18.4675C31.7791 18.4675 31.7656 18.1577 31.86 17.9422C31.9543 17.7266 32.6277 17.7806 33.5706 17.4842C34.5135 17.1879 35.0522 16.4335 35.2005 15.9621C35.3487 15.4907 34.9849 15.1269 34.8368 15.1269C34.6887 15.1269 34.7829 14.9114 34.1364 15.8408C33.4898 16.7702 31.7927 17.1339 31.7927 17.1339C31.6715 16.9049 31.4829 16.8241 31.4829 16.8241C30.338 17.0531 28.9569 18.0417 28.9569 18.0417C28.9569 18.0417 29.2004 18.8225 28.8962 19.4311C28.5045 20.2145 27.1619 19.7252 27.5271 18.488C27.8311 17.4577 29.0077 16.8349 30.0018 16.7232C30.9957 16.6117 31.0464 16.2364 31.0464 16.2364C31.0464 16.2364 30.0026 16.5763 29.984 16.1098C30.1995 16.1535 30.5172 16.1725 31.0565 16.1248C31.8578 16.0539 32.3041 15.4858 31.9491 15.3642C31.5941 15.2425 31.7463 15.6076 31.1377 15.8916C30.7036 16.0941 30.248 16.0029 30.02 15.9337C30.2307 15.4737 31.1174 15.709 31.1174 15.709C31.1275 14.9077 30.0644 15.1943 30.0644 15.1943C29.5975 14.1885 26.8675 15.3559 26.8675 15.3559L27.5141 15.8767C25.9336 16.7567 25.6103 18.4269 25.6103 18.4269C25.6103 18.4269 25.287 16.7567 23.7065 15.8766L24.353 15.3559C24.353 15.3559 21.6231 14.1884 21.1562 15.1942C21.1562 15.1942 20.0929 14.9077 20.1031 15.7089C20.1031 15.7089 20.9899 15.4736 21.2006 15.9336C20.9726 16.0029 20.517 16.094 20.0829 15.8915C19.4744 15.6074 19.6266 15.2425 19.2715 15.3641C18.9165 15.4857 19.3628 16.0537 20.1641 16.1247C20.7034 16.1725 21.0211 16.1535 21.2366 16.1097C21.218 16.5762 20.1742 16.2363 20.1742 16.2363C20.1742 16.2363 20.225 16.6115 21.2189 16.7231C22.2128 16.8348 23.3896 17.4576 23.6936 18.4879C24.0586 19.7252 22.7161 20.2143 22.3244 19.431C22.0201 18.8225 22.2637 18.0416 22.2637 18.0416C22.2637 18.0416 20.8826 17.053 19.7377 16.824C19.7377 16.824 19.5491 16.9049 19.4279 17.1338C19.4279 17.1338 17.7308 16.7701 17.0842 15.8407C16.4376 14.9113 16.532 15.1268 16.3838 15.1268C16.2357 15.1268 15.872 15.4905 16.0201 15.962C16.1683 16.4335 16.7071 17.1878 17.65 17.4841C18.593 17.7804 19.2664 17.7265 19.3607 17.9421C19.455 18.1576 19.4415 18.4674 18.8084 18.4674C18.1753 18.4674 17.3671 18.3865 16.9496 17.9959C16.5321 17.6053 16.2358 17.5379 16.1145 17.7534C15.9933 17.9689 16.0471 19.0599 17.2863 19.1947C18.5256 19.3294 19.3069 18.9792 19.4146 19.1812C19.5223 19.3833 19.1451 19.9221 18.337 20.0567C17.5288 20.1914 17.044 19.9086 16.6803 19.6661C16.3166 19.4236 16.0741 19.6257 16.0472 19.8681C16.0202 20.1106 16.3839 20.9054 17.246 20.9323C18.1081 20.9593 19.0779 20.3935 19.2261 20.3666C19.3742 20.3396 19.6976 20.5417 19.4012 20.8514C19.1049 21.1612 17.8926 21.8213 17.246 21.6866C16.5994 21.5519 16.5322 21.3499 16.2492 21.4845C15.9663 21.6192 16.0876 22.4139 16.6803 22.4409C17.273 22.4678 18.2832 22.2523 18.8489 21.8887C19.4147 21.525 19.4281 21.9021 19.3877 21.9695C19.3473 22.0369 18.566 23.0875 17.4481 23.1953C16.3301 23.303 16.1011 23.1414 16.0741 23.532C16.0472 23.9226 16.4492 24.3482 17.4391 24.0843C18.5166 23.7969 19.2262 22.8854 19.4416 23.0875C19.6571 23.2895 19.4686 23.7879 18.9971 24.1516C18.5256 24.5153 17.87 25.1977 16.7207 25.0361C15.7096 24.894 16.0203 25.4986 16.1011 25.6333C16.1819 25.7679 16.8689 26.3202 17.8522 25.741C18.8355 25.1618 19.3473 24.4075 19.482 24.3536C19.6167 24.2997 19.8099 24.2997 19.5764 24.8744C19.3429 25.4491 18.5527 26.4908 17.7804 26.6882C17.0081 26.8859 16.3436 26.7422 16.1999 27.1014C16.0563 27.4606 16.9363 28.3226 18.0319 27.5863C19.0377 26.9103 20.223 25.1437 20.5463 25.1617C20.8695 25.1796 20.8186 25.7787 20.6211 26.084C20.4235 26.3893 19.4507 26.8319 19.5046 27.1911C19.5585 27.5503 20.0612 27.658 20.6181 27.0834C21.1748 26.5087 21.3185 25.3951 21.5521 25.3413C21.7855 25.2874 22.2884 25.485 22.001 26.0238C21.7137 26.5626 21.0851 26.9397 21.3904 27.1912C21.6957 27.4425 22.1627 27.0475 22.4142 26.5446C22.6655 26.0417 22.8631 25.4311 23.0966 25.6467C23.3301 25.8622 23.1505 26.6883 22.6476 27.2091C22.1447 27.7299 20.5031 28.1467 20.5463 28.3945C20.572 28.5421 20.7482 28.7856 20.9727 29.033L18.8087 29.6741L17.8254 28.9198C17.8254 28.9198 17.7177 28.408 17.0846 28.4753C17.0846 28.4753 16.3033 28.1251 16.2225 28.7447C16.2225 28.7447 16.7882 28.6504 16.9229 28.8524C17.0575 29.0545 17.1249 29.2026 17.6233 29.1622L18.3101 29.7415L16.9362 29.5798C16.9362 29.5798 16.6532 29.1084 16.1819 29.4048C16.1819 29.4048 15.5892 29.2162 15.441 29.7819C15.441 29.7819 15.9529 29.6876 16.0876 29.7549C16.0876 29.7549 16.2897 30.213 16.9363 29.9435L18.2967 30.0109L17.5289 30.388C17.5289 30.388 16.5591 30.0783 16.5995 30.8864C16.5995 30.8864 16.3166 31.2096 16.5726 31.533C16.5726 31.533 16.6265 31.1828 16.8823 31.0346C16.8823 31.0346 17.3807 31.2367 17.704 30.644L18.6873 30.0513L19.6571 30.5228C19.6571 30.5228 19.6302 31.0481 20.3441 30.8326C20.3441 30.8326 20.5865 30.9942 20.6538 31.2097C20.6538 31.2097 20.9636 30.873 20.4652 30.4824C20.4652 30.4824 20.3441 30.0244 19.7514 30.1995L19.1991 29.9166L21.2426 29.3102C21.5964 29.6471 21.9781 29.9234 22.1117 29.8771C22.3754 29.7858 22.5783 29.5121 22.7608 29.1266C22.9433 28.7412 23.7649 27.4025 24.1705 27.4128C24.5762 27.4229 24.7588 27.7473 24.6573 28.3256C24.556 28.9036 23.7653 30.011 23.2534 30.24C22.7416 30.469 22.6608 30.5767 22.1893 30.5363C21.7178 30.4959 21.5562 30.6979 21.664 30.9673C21.7717 31.2368 22.3021 31.4081 22.8224 31.2098C23.3881 30.9943 23.6036 30.698 23.8191 30.8731C24.0347 31.0482 23.5901 31.6813 22.984 31.8699C22.3778 32.0585 21.9198 31.9373 22.0142 32.3144C22.1085 32.6916 22.755 32.7185 23.1726 32.476C23.5901 32.2336 24.0615 31.5601 24.1828 31.7756C24.304 31.9912 24.2232 32.5434 23.8191 32.8398C23.415 33.1361 22.9554 32.9618 22.8628 33.2304C22.7281 33.621 23.1995 33.877 23.5632 33.7288C23.9269 33.5806 24.3444 33.1226 24.533 32.7185C24.7216 32.3144 25.0718 32.6646 24.9641 33.0418C24.8564 33.4189 24.9461 33.7287 24.1737 34.3213L25.6106 36.5303L27.0474 34.3212C26.2751 33.7286 26.3649 33.4188 26.257 33.0417C26.1493 32.6645 26.4995 32.3143 26.6881 32.7184C26.8767 33.1225 27.2942 33.5805 27.6579 33.7287C28.0216 33.8768 28.4931 33.621 28.3583 33.2303C28.2657 32.9617 27.8061 33.136 27.402 32.8397C26.9979 32.5434 26.917 31.9911 27.0383 31.7755C27.1595 31.56 27.631 32.2336 28.0485 32.4759C28.4661 32.7184 29.1127 32.6915 29.2069 32.3143C29.3012 31.9372 28.8433 32.0584 28.2371 31.8698C27.631 31.6812 27.1864 31.0481 27.402 30.873C27.6175 30.6979 27.833 30.9942 28.3987 31.2097C28.9191 31.408 29.4494 31.2367 29.5571 30.9672C29.6648 30.6978 29.5032 30.4958 29.0318 30.5362C28.5604 30.5766 28.4796 30.4688 27.9677 30.2399C27.4558 30.011 26.6652 28.9036 26.5638 28.3255C26.4623 27.7473 26.6449 27.4227 27.0506 27.4127C27.4563 27.4024 28.2777 28.7411 28.4603 29.1265C28.6429 29.512 28.8457 29.7858 29.1094 29.8771C29.2431 29.9234 29.6249 29.6471 29.9785 29.3102L32.022 29.9166L31.4697 30.1995C30.877 30.0244 30.7559 30.4824 30.7559 30.4824C30.2575 30.873 30.5673 31.2097 30.5673 31.2097C30.6347 30.9942 30.877 30.8326 30.877 30.8326C31.5909 31.0481 31.564 30.5228 31.564 30.5228L32.5338 30.0513L33.5171 30.644C33.8403 31.2367 34.3388 31.0346 34.3388 31.0346C34.5947 31.1828 34.6485 31.533 34.6485 31.533C34.9045 31.2097 34.6216 30.8864 34.6216 30.8864C34.662 30.0783 33.6922 30.3881 33.6922 30.3881L32.924 30.0112L34.2845 29.9438C34.931 30.2132 35.1331 29.7552 35.1331 29.7552C35.2678 29.6879 35.7797 29.7822 35.7797 29.7822C35.6314 29.2165 35.0388 29.405 35.0388 29.405Z" fill="#464655"/>
</g>
<defs>
<clipPath id="clip0_108_46287">
<rect width="50" height="50" fill="white" transform="translate(0.609375 0.32373)"/>
</clipPath>
</defs>
</svg>
