<svg width="51" height="51" viewBox="0 0 51 51" fill="none" xmlns="http://www.w3.org/2000/svg">
<g clip-path="url(#clip0_108_46263)">
<path d="M49.6072 41.9725H1.33147C0.855395 41.9725 0.46936 41.5864 0.46936 41.1104V10.076C0.46936 9.59996 0.855395 9.21393 1.33147 9.21393H49.6073C50.0833 9.21393 50.4694 9.59996 50.4694 10.076V41.1104C50.4693 41.5865 50.0832 41.9725 49.6072 41.9725Z" fill="#41479B"/>
<path d="M50.4693 41.1104V40.1581L6.00773 25.5932L50.4693 11.0283V10.0761C50.4693 9.76434 50.2951 9.5037 50.0473 9.35223L0.46936 25.5932L50.0473 41.8342C50.2951 41.6828 50.4693 41.4222 50.4693 41.1104Z" fill="#FF4B55"/>
<path d="M6.00781 25.5932L50.4693 40.1581V11.0283L6.00781 25.5932Z" fill="#F5F5F5"/>
<path d="M45.2056 21.3507C45.2056 21.3507 48.1577 21.4758 48.4329 21.2506C48.708 21.0255 48.758 19.5244 47.7825 19.2993C46.8069 19.0742 44.155 20.5252 44.155 20.5252L45.2056 21.3507Z" fill="#FFF5DC"/>
<path d="M39.4278 23.6774C39.4278 23.6774 39.3944 23.7608 39.3778 24.1277C39.3611 24.4946 39.4278 25.4453 40.5787 25.8622L40.3119 26.9797L41.5293 27.7135C41.5293 27.7135 42.43 26.3792 42.48 25.2617C42.5299 24.1444 39.4278 23.6774 39.4278 23.6774Z" fill="#D27D69"/>
<path d="M35.7753 22.9268L36.2506 22.4515C36.2506 22.4515 35.2776 23.0452 34.9081 22.5099C34.4245 21.8096 35.0748 21.0757 35.7503 20.7504C36.4257 20.4252 37.7767 20.6754 37.7767 20.6754L38.6273 22.8518L36.0505 24.4779L35.7753 22.9268Z" fill="#D27D69"/>
<path d="M43.7559 18.7741L46.0575 18.4989C46.0575 18.4989 45.3821 19.4746 44.0562 20.2001C44.0562 20.2001 45.4321 20.2001 45.8323 20.6754C46.2326 21.1507 45.432 21.6011 45.1319 21.7512C44.8318 21.9013 42.23 23.5023 42.23 23.5023L39.9034 23.2271L43.7559 18.7741Z" fill="#D27D69"/>
<path d="M45.4655 17.0062C45.4655 17.0062 45.9658 15.8388 45.9491 15.0216L44.2647 16.1891C44.2647 16.1891 44.6483 16.0057 44.5149 15.3385L39.0112 18.3238L37.8937 20.3085L41.296 21.3593L45.4655 17.0062Z" fill="#D27D69"/>
<path d="M41.3155 26.1039L40.7401 27.0171C40.7401 27.0171 39.7143 26.792 39.3641 27.0421C39.0139 27.2923 38.9764 28.2305 39.5892 28.3055C39.5892 28.3055 40.0145 28.5682 40.2646 28.3555C40.2646 28.3555 40.7774 28.5556 40.865 28.2304C40.9526 27.9052 40.84 27.63 40.84 27.63H41.2027L41.8406 26.4917L41.3155 26.1039Z" fill="#FFE15A"/>
<path d="M36.1748 24.1276C36.1748 24.1276 37.7758 23.3271 37.7758 22.1262C37.7758 20.9253 36.2915 20.8586 35.0907 21.2589C35.0907 21.2589 34.3736 20.6919 34.974 20.1248C35.797 19.3474 39.377 17.7232 39.377 17.7232L38.9767 19.7246C38.9767 19.7246 40.4027 20.4751 40.9781 20.1249C41.4616 19.8305 46.1816 16.1221 46.1816 16.1221C46.1816 16.1221 45.7813 18.1235 42.9794 20.1249L42.6826 21.6093C42.6173 21.9355 42.4052 22.2132 42.1077 22.3619L40.9781 22.9266C40.9781 22.9266 44.1802 23.3269 44.1802 23.7271C44.1802 24.1273 43.3797 26.1287 41.7787 26.9292L40.9781 26.1288L41.3784 24.9279C41.3784 24.9279 40.1775 24.5276 39.377 24.1273C39.377 24.1273 38.1761 24.5276 37.3756 24.5276C36.5752 24.5276 36.1748 24.1276 36.1748 24.1276Z" fill="#B95546"/>
<path d="M33.7728 26.129V25.2973C33.7728 25.061 33.8667 24.8342 34.0339 24.6672L35.7743 22.9267L36.1746 23.7272H37.7756L37.3754 24.1275V24.5278L35.374 25.7287L33.7728 26.129Z" fill="#FFF5DC"/>
<path d="M34.572 25.7286H33.7714C33.7714 25.7286 32.9709 26.9294 33.7714 26.9294C33.7714 26.9294 34.9723 26.1288 35.3725 25.7286C35.3725 25.7286 35.3725 25.3284 34.572 25.7286Z" fill="#FFE15A"/>
<path d="M44.336 27.5042H38.8025C38.7569 27.4551 38.6931 27.4234 38.6209 27.4234C38.6209 27.4234 37.6516 27.0216 37.5138 27.0216H37.4002C37.2624 27.0216 37.1506 27.1333 37.1506 27.2712V27.5042H35.8856V27.2712C35.8856 27.1334 35.7739 27.0216 35.636 27.0216H35.5225C35.3847 27.0216 35.2728 27.1333 35.2728 27.2712V27.2754C34.7308 27.2534 33.5717 27.1842 32.9712 26.9841L29.769 27.7847L32.9712 28.5852C33.5715 28.3851 34.7306 28.3159 35.2728 28.2938V28.298C35.2728 28.4358 35.3846 28.5476 35.5225 28.5476H35.636C35.7738 28.5476 35.8856 28.4359 35.8856 28.298V28.065H37.1506V28.298C37.1506 28.4358 37.2623 28.5476 37.4002 28.5476H37.5138C37.6515 28.5476 38.6209 28.1458 38.6209 28.1458C38.6931 28.1458 38.757 28.1142 38.8025 28.065H44.336C44.491 28.065 44.6165 27.9393 44.6165 27.7845C44.6165 27.6297 44.4909 27.5042 44.336 27.5042Z" fill="#FFE15A"/>
<path d="M44.0956 28.5805C43.762 28.5138 39.9428 29.1809 39.9428 29.1809C39.9428 29.1809 39.7093 28.9474 40.4097 28.2969L40.0762 28.2135C40.0762 28.2135 39.3424 28.7305 39.0421 28.7972C38.7836 28.8546 38.206 29.1355 38.0819 29.5104L35.7565 29.898L35.8065 30.0981L38.0874 29.8307C38.1962 30.1811 38.5548 30.2526 38.8085 30.1481C38.8085 30.1481 39.1421 30.2815 39.4423 30.048C39.4423 30.048 40.0427 30.1481 40.076 29.5977L44.2622 28.9639C44.2623 28.9642 44.4291 28.6472 44.0956 28.5805Z" fill="#FFE15A"/>
<path d="M41.7274 31.3992C41.7274 31.3992 41.4105 31.8161 40.6266 31.4492C39.8428 31.0823 38.9255 31.4826 38.4252 31.3658C37.9249 31.249 37.1743 30.9489 36.4739 31.2157C35.7735 31.4825 35.3898 31.4659 35.5399 31.1323C35.69 30.7988 35.7734 30.5486 35.5399 30.4319L35.8067 30.0983L35.7567 29.8982C35.7567 29.8982 34.4224 29.3812 33.5219 30.0983C32.6213 30.8154 32.8883 32.45 34.3892 32.5667C34.3892 32.5667 34.8562 33.1504 36.007 32.9836C36.007 32.9836 36.7575 33.5006 38.0417 33.2671C38.0417 33.2671 38.0917 33.4172 38.9256 33.3505C39.7596 33.2838 40.6935 33.3839 40.5267 33.9508C40.5267 33.9508 41.1438 33.8341 40.7769 33.2671C40.7769 33.2671 41.5107 33.2337 42.0111 33.6674C42.0111 33.6674 42.0445 33.1671 41.5608 32.9001C41.5608 32.9001 42.3781 32.6166 42.8284 32.9001C42.8284 32.9001 42.5282 32.2664 41.7276 32.3497C41.7276 32.3497 42.3113 31.8827 42.5782 31.9995C42.5782 31.9995 42.328 31.6993 41.5941 31.9995C41.594 31.9996 42.061 31.7161 41.7274 31.3992Z" fill="#FFE15A"/>
</g>
<defs>
<clipPath id="clip0_108_46263">
<rect width="50" height="50" fill="white" transform="translate(0.46875 0.593262)"/>
</clipPath>
</defs>
</svg>
