<svg width="50" height="51" viewBox="0 0 50 51" fill="none" xmlns="http://www.w3.org/2000/svg">
<g clip-path="url(#clip0_108_50471)">
<path d="M49.9999 25.4389H0V9.92175C0 9.44568 0.386034 9.05965 0.862108 9.05965H49.1379C49.614 9.05965 50 9.44568 50 9.92175L49.9999 25.4389Z" fill="#FF4B55"/>
<path d="M0 25.4389H49.9999V40.9561C49.9999 41.4322 49.6139 41.8182 49.1378 41.8182H0.862108C0.386034 41.8182 0 41.4322 0 40.9561V25.4389Z" fill="#464655"/>
<path d="M23.037 18.241L23.6264 20.0082L25.4893 20.0226C25.6337 20.0237 25.6935 20.208 25.5774 20.2936L24.0788 21.4003L24.6407 23.1765C24.6843 23.314 24.5275 23.4278 24.4101 23.344L22.8945 22.2607L21.3789 23.344C21.2614 23.428 21.1048 23.314 21.1483 23.1765L21.7102 21.4003L20.2116 20.2936C20.0956 20.2079 20.1554 20.0237 20.2997 20.0226L22.1626 20.0082L22.752 18.241C22.7977 18.1042 22.9914 18.1042 23.037 18.241Z" fill="#FFE15A"/>
<path d="M31.0043 33.246C31.0043 33.246 20.3397 25.2007 20.0249 24.9362C19.5383 24.5275 19.1628 23.8048 19.1448 22.9247C19.1448 22.9247 17.9947 24.1028 18.2199 25.3224C18.4803 26.7321 19.2886 27.235 20.3302 27.9175C21.0623 28.3971 26.8817 32.0674 30.279 34.2084L31.0043 33.246Z" fill="#FFE15A"/>
<path d="M34.195 35.6041C34.056 35.5049 32.939 34.6793 31.3893 33.5311L30.8269 34.5538C31.9647 35.2707 32.7223 35.7478 32.7223 35.7478C32.7223 35.7478 32.83 37.1487 33.9616 36.9152C34.3694 36.831 34.6978 35.9633 34.195 35.6041Z" fill="#FFE15A"/>
<path d="M24.9862 31.8894C24.1799 32.1731 23.3165 32.3354 22.4133 32.3354C20.1241 32.3354 18.073 31.3382 16.6529 29.7612L15.3904 30.8974C15.8135 31.3674 16.2654 31.8102 16.7747 32.1882L16.5233 32.6236L18.3897 33.7011L18.6368 33.2731C19.4799 33.6398 20.3864 33.8866 21.3358 33.9941V34.4906H23.491V33.9941C24.4404 33.8866 25.3468 33.6398 26.19 33.2731L26.437 33.7011L27.1787 33.2729C26.4544 32.8162 25.7124 32.3481 24.9862 31.8894Z" fill="#FFE15A"/>
<path d="M31.8308 23.4993C31.7233 22.5499 31.4765 21.6435 31.1098 20.8004L31.5378 20.5533L30.4603 18.6868L30.0248 18.9382C29.4674 18.1871 28.8033 17.523 28.0521 16.9655L28.3035 16.5301L26.4371 15.4526L26.19 15.8806C25.4906 15.5764 24.7458 15.3604 23.9709 15.2322L23.6877 16.9318C27.3651 17.5409 30.1721 20.727 30.1721 24.5769C30.1721 26.65 29.354 28.5285 28.0293 29.9204C28.4875 30.2664 28.9423 30.6097 29.3919 30.9492C29.6097 30.7107 29.8318 30.4759 30.0249 30.2157L30.4604 30.4671L31.5379 28.6007L31.1099 28.3536C31.4766 27.5104 31.7234 26.604 31.8309 25.6547H32.3272V23.4995H31.8307L31.8308 23.4993Z" fill="#FFE15A"/>
</g>
<defs>
<clipPath id="clip0_108_50471">
<rect width="50" height="50" fill="white" transform="translate(0 0.438965)"/>
</clipPath>
</defs>
</svg>
