<svg width="50" height="50" viewBox="0 0 50 50" fill="none" xmlns="http://www.w3.org/2000/svg">
<path d="M49.1378 41.3461H0.862108C0.386034 41.3461 0 40.9609 0 40.4858V9.5142C0 9.03909 0.386034 8.65384 0.862108 8.65384H49.1379C49.614 8.65384 50 9.03909 50 9.5142V40.4858C49.9999 40.961 49.6139 41.3461 49.1378 41.3461Z" fill="#41479B"/>
<path d="M24.138 8.65384H22.6406L14.6552 13.875V8.65384H10.3449V13.875L2.35948 8.65384H0.862113C0.386037 8.65384 0 9.03909 0 9.5142V10.1966L6.8511 14.6761H0V18.9777H6.8511L0 23.4573V24.1396C0 24.6147 0.386037 25 0.862113 25H2.35948L10.3449 19.7788V25H14.6552V19.7788L22.6405 25H24.1379C24.614 25 25 24.6147 25 24.1396V23.4572L18.149 18.9777H25V14.6761H18.1489L25 10.1966V9.5142C25 9.03909 24.6142 8.65384 24.138 8.65384Z" fill="#F5F5F5"/>
<path d="M25 15.5365H13.7931V8.65384H11.2069V15.5365H0V18.1174H11.2069V25H13.7931V18.1174H25V15.5365Z" fill="#FF4B55"/>
<path d="M9.61539 14.4231L0.416588 8.65384C0.171804 8.80357 0 9.055 0 9.3557V9.39952L8.00983 14.4231H9.61539Z" fill="#FF4B55"/>
<path d="M16.0628 14.4231L25 9.06716C24.8447 8.82451 24.5706 8.65384 24.2431 8.65384H24.05L14.4231 14.4231H16.0628Z" fill="#FF4B55"/>
<path d="M8.93456 19.2308L0 24.5764C0.154067 24.8249 0.432825 25 0.765674 25H0.934327L10.5769 19.2308H8.93456Z" fill="#FF4B55"/>
<path d="M24.9999 24.3112L16.9611 19.2308H15.3845L24.5131 25C24.7866 24.8764 24.9741 24.6175 24.9999 24.3112Z" fill="#FF4B55"/>
<path d="M31.7884 18.5938C31.6709 20.0881 31.1849 29.5841 37.4998 31.7308C43.817 29.5836 43.3289 20.0879 43.2112 18.5938C42.446 18.8799 39.6764 19.7472 37.4998 18.2692C35.3234 19.747 32.5541 18.8803 31.7884 18.5938Z" fill="#F5F5F5"/>
<path d="M41.3461 20.3717C40.9901 20.1055 40.3311 20.5999 39.5927 20.5493C38.9079 20.5022 38.0641 19.8354 36.9672 20.1229C36.6642 19.8545 36.8109 19.2308 36.8109 19.2308C36.0494 19.7042 35.9948 20.3522 36.0426 20.7036C35.4997 21.3937 35.5363 22.4466 35.6375 22.768C35.7693 23.1864 36.0199 23.2371 36.0595 23.7061C36.099 24.1752 36.2836 24.0104 36.2836 24.0104C36.6649 23.8048 36.7203 23.4168 36.8807 22.7819C37.5002 22.858 37.9051 22.3243 37.9051 22.3243C37.4987 22.4469 37.2423 22.2315 37.1026 22.0418C37.1244 21.979 37.1418 21.9212 37.1669 21.8553C37.6283 20.6381 39.8362 20.9728 40.0408 21.31C40.41 21.9186 40.8978 22.1468 40.8978 22.1468C40.8978 21.5123 40.41 20.9551 40.41 20.9551C41.1483 20.8281 41.3461 20.3717 41.3461 20.3717ZM36.0333 22.9833C35.9605 22.9833 35.9015 22.9266 35.9015 22.8566C35.9015 22.7866 35.9605 22.7299 36.0333 22.7299C36.1061 22.7299 36.1651 22.7866 36.1651 22.8566C36.1651 22.9266 36.1061 22.9833 36.0333 22.9833Z" fill="#FFA028"/>
<path d="M38.7632 27.8846C39.1923 27.7625 39.1431 27.0135 39.6045 26.4947C40.0325 26.0136 41.0803 25.743 41.4558 24.78C41.8567 24.6981 42.3067 25.1368 42.3067 25.1368C42.3334 24.3233 41.8104 23.9399 41.4829 23.7891C41.2006 23.0223 40.2799 22.4918 39.9478 22.3966C39.5156 22.2724 39.3305 22.4307 38.9071 22.2116C38.4837 21.9925 38.5201 22.2162 38.5201 22.2162C38.4799 22.607 38.78 22.8533 39.232 23.3081C38.8161 23.7256 39.043 24.3076 39.043 24.3076C39.1683 23.9422 39.4976 23.8669 39.7391 23.864C39.7803 23.9133 39.8199 23.9569 39.862 24.0103C40.6411 24.9958 39.1047 26.4506 38.7005 26.4232C37.9713 26.3737 37.5 26.6136 37.5 26.6136C38.0423 26.9495 38.7948 26.8841 38.7948 26.8841C38.4851 27.4968 38.7632 27.8846 38.7632 27.8846ZM39.5396 22.5748C39.5809 22.5211 39.6628 22.5074 39.7226 22.5445C39.7824 22.5816 39.7976 22.6553 39.7563 22.709C39.715 22.7628 39.6331 22.7765 39.5733 22.7394C39.5134 22.7023 39.4984 22.6287 39.5396 22.5748Z" fill="#FFA028"/>
<path d="M32.6953 22.6198C32.6391 23.0284 33.3989 23.3082 33.721 23.9137C34.0198 24.475 33.8554 25.4611 34.6514 26.1853C34.5671 26.5533 33.9487 26.7391 33.9487 26.7391C34.7408 27.1097 35.3346 26.8397 35.6183 26.6323C36.4915 26.7264 37.3942 26.1891 37.625 25.9542C37.9256 25.6485 37.8455 25.4269 38.2362 25.1692C38.6269 24.9116 38.3911 24.846 38.3911 24.846C38.0219 24.6452 37.6551 24.789 37.0201 24.9693C36.7791 24.4452 36.1113 24.3843 36.1113 24.3843C36.4204 24.6449 36.3591 24.9506 36.2625 25.1522C36.1968 25.1652 36.1375 25.1794 36.0675 25.1917C34.7739 25.4163 33.9705 23.5175 34.164 23.1937C34.513 22.6094 34.4705 22.1154 34.4705 22.1154C33.9155 22.4217 33.6702 23.0746 33.6702 23.0746C33.1928 22.555 32.6953 22.6198 32.6953 22.6198ZM37.6171 25.539C37.6533 25.5963 37.633 25.6702 37.5717 25.7039C37.5104 25.7378 37.4315 25.7187 37.3953 25.6614C37.3592 25.6041 37.3795 25.5303 37.4408 25.4964C37.502 25.4626 37.5811 25.4816 37.6171 25.539Z" fill="#FFA028"/>
<path d="M37.5 32.6923L37.452 32.6754C30.6996 30.2679 31.7908 18.8554 31.8025 18.7401L31.8236 18.534L32.0082 18.6197C32.04 18.6345 35.1727 20.0587 37.4123 18.3365L37.4999 18.2692L37.5875 18.3365C39.8304 20.061 42.9603 18.6342 42.9915 18.6197L43.1762 18.5337L43.1973 18.7401C43.2092 18.8554 44.3003 30.2679 37.5478 32.6754L37.5 32.6923ZM32.0765 18.9728C31.9649 20.4972 31.5034 30.185 37.5 32.3749C43.4988 30.1844 43.0353 20.497 42.9235 18.9728C42.1969 19.2647 39.5669 20.1495 37.5 18.6417C35.4333 20.1493 32.8036 19.2651 32.0765 18.9728Z" fill="#CDCE0C"/>
<path d="M33.6538 28.8462C34.4913 30.5506 35.714 31.9785 37.4995 32.6923C39.2855 31.9783 40.5086 30.5505 41.3461 28.8462H33.6538Z" fill="#82AFFF"/>
</svg>
