<svg width="50" height="50" viewBox="0 0 50 50" fill="none" xmlns="http://www.w3.org/2000/svg">
<path d="M49.1378 8.65384H0.862108C0.386034 8.65384 0 9.03909 0 9.5142V40.4858C0 40.9609 0.386034 41.3461 0.862108 41.3461H49.1379C49.614 41.3461 50 40.9609 50 40.4858V9.5142C49.9999 9.03909 49.6139 8.65384 49.1378 8.65384Z" fill="#464655"/>
<path d="M24.5191 10.5769L25.5978 16.212L28.7507 11.4187L27.5908 17.0376L32.3381 13.8156L29.1162 18.563L34.7351 17.4031L29.9417 20.556L35.5768 21.6347L29.9417 22.7133L34.7351 25.8662L29.1162 24.7063L32.3381 29.4536L27.5908 26.2317L28.7507 31.8507L25.5978 27.0573L24.5191 32.6923L23.4406 27.0573L20.2875 31.8507L21.4475 26.2317L16.7002 29.4536L19.9221 24.7063L14.3032 25.8662L19.0965 22.7133L13.4614 21.6347L19.0965 20.556L14.3032 17.4031L19.9221 18.563L16.7002 13.8156L21.4475 17.0376L20.2875 11.4187L23.4406 16.212L24.5191 10.5769Z" fill="#FFE15A"/>
<path d="M0 9.2257V40.478C0 40.9574 0.386035 41.3461 0.862109 41.3461H25L0.224414 8.65384C0.0888672 8.80715 0 9.00423 0 9.2257Z" fill="#FF4B55"/>
<path d="M25 41.3461H49.1379C49.614 41.3461 50 40.9574 50 40.478V9.22579C50 9.00433 49.9111 8.80725 49.7756 8.65384L25 41.3461Z" fill="#FF4B55"/>
<path d="M14.7995 27.8846H34.2393L39.4232 21.1538H9.61548L14.7995 27.8846Z" fill="#4173CD"/>
<path d="M15.3845 28.8462L25.4806 41.3462L35.5768 28.8462H15.3845Z" fill="#F5F5F5"/>
</svg>
