<svg width="51" height="51" viewBox="0 0 51 51" fill="none" xmlns="http://www.w3.org/2000/svg">
<g clip-path="url(#clip0_108_50440)">
<path d="M50.1479 19.9793H0.147949V9.92175C0.147949 9.44568 0.533984 9.05965 1.01006 9.05965H49.2858C49.7619 9.05965 50.1479 9.44568 50.1479 9.92175L50.1479 19.9793Z" fill="#82AFFF"/>
<path d="M49.285 41.8182H1.00932C0.533251 41.8182 0.147217 41.4322 0.147217 40.9561V30.8987H50.1471V40.9561C50.1471 41.4323 49.7611 41.8182 49.285 41.8182Z" fill="#82AFFF"/>
<path d="M50.1476 19.9791H0.147705V30.898H50.1476V19.9791Z" fill="#F5F5F5"/>
<path d="M29.458 25.2235H26.3541C26.4121 25.1796 26.4578 25.1363 26.4993 25.0955C26.575 25.0214 26.6353 24.9625 26.7952 24.8967C26.9559 24.8294 27.0401 24.8286 27.1466 24.8269C27.2749 24.826 27.4203 24.8236 27.6577 24.7258C27.8947 24.6273 27.9982 24.5262 28.0896 24.4371C28.1654 24.363 28.2256 24.3041 28.3859 24.2375C28.5453 24.171 28.6292 24.1701 28.7352 24.1693C28.8632 24.1675 29.0083 24.166 29.2457 24.0674L29.0799 23.67C28.9204 23.7365 28.8366 23.7374 28.7306 23.7382C28.6026 23.7399 28.4575 23.7415 28.2204 23.8392C27.9835 23.9378 27.8799 24.0388 27.7885 24.128C27.7127 24.2021 27.6525 24.261 27.4926 24.3267C27.3319 24.3941 27.2477 24.3949 27.1411 24.3965C27.0128 24.3974 26.8675 24.3999 26.6301 24.4984C26.3932 24.5961 26.2896 24.698 26.1982 24.7872C26.1236 24.8597 26.062 24.9178 25.9085 24.9827L28.348 22.5435L28.0432 22.2387L25.8474 24.4343C25.8571 24.3626 25.8597 24.2987 25.8603 24.2408C25.8616 24.1339 25.8624 24.0505 25.9289 23.8897C25.9954 23.729 26.0543 23.6691 26.1286 23.5934C26.2186 23.5016 26.3201 23.3973 26.4185 23.1599C26.5165 22.9225 26.5183 22.7777 26.5196 22.6498C26.5208 22.5437 26.5217 22.4594 26.5877 22.2996C26.6542 22.1396 26.7127 22.0799 26.7869 22.0041C26.8765 21.9123 26.9779 21.8087 27.0761 21.5721L26.678 21.4072C26.6115 21.5672 26.553 21.6269 26.4788 21.7027C26.3892 21.7945 26.2878 21.8981 26.1896 22.1346C26.0915 22.372 26.0898 22.5169 26.0885 22.6448C26.0872 22.7508 26.0864 22.8351 26.0204 22.995C25.9538 23.1557 25.895 23.2156 25.8207 23.2913C25.7307 23.3831 25.6292 23.4874 25.5308 23.7248C25.4328 23.9622 25.431 24.1079 25.4294 24.2358C25.4286 24.3396 25.4256 24.4235 25.3634 24.5776V21.1286H24.9324V24.2324C24.8884 24.1749 24.8453 24.1292 24.8048 24.0878C24.7304 24.012 24.6718 23.9513 24.6052 23.7915C24.5387 23.6307 24.5374 23.5465 24.5362 23.4395C24.5349 23.3115 24.5332 23.1659 24.4348 22.9285C24.3368 22.692 24.2352 22.5884 24.1456 22.4966C24.0714 22.4208 24.013 22.361 23.9464 22.201C23.8804 22.0411 23.8795 21.9569 23.8783 21.8508C23.877 21.7228 23.8753 21.5781 23.7772 21.3415L23.379 21.5064C23.4451 21.6664 23.4459 21.7498 23.4472 21.8557C23.4485 21.9838 23.4501 22.1285 23.5483 22.3659C23.6463 22.6024 23.7479 22.7059 23.8375 22.7978C23.9117 22.8736 23.9701 22.9334 24.0367 23.0933C24.1032 23.2541 24.1044 23.3382 24.1057 23.4453C24.107 23.5733 24.1086 23.7189 24.2071 23.9563C24.3051 24.1937 24.4067 24.2972 24.4963 24.389C24.5694 24.4632 24.6272 24.5253 24.692 24.6783L22.2524 22.2389L21.9476 22.5437L24.3834 24.9793C24.2498 24.9186 24.1854 24.8629 24.1154 24.7949C24.0233 24.7048 23.9193 24.603 23.681 24.5045C23.4436 24.4068 23.2984 24.4043 23.17 24.4026C23.063 24.4017 22.979 24.4002 22.8168 24.3328C22.6547 24.2663 22.5942 24.2074 22.5171 24.1325C22.425 24.0432 22.3206 23.9415 22.0819 23.8421C21.8436 23.7435 21.6979 23.7419 21.5692 23.7402C21.4619 23.7384 21.3773 23.7369 21.2152 23.6695L21.0502 24.0685C21.2885 24.1671 21.4342 24.1687 21.5629 24.1704C21.6703 24.1721 21.7548 24.1737 21.9169 24.2411C22.0794 24.3076 22.14 24.3665 22.217 24.4414C22.3091 24.5314 22.4136 24.6324 22.6518 24.731C22.8901 24.8303 23.0358 24.8321 23.1641 24.8338C23.271 24.8355 23.3551 24.8362 23.5165 24.9036C23.6777 24.9701 23.7379 25.029 23.8141 25.1032C23.8533 25.1416 23.897 25.1822 23.9499 25.2236H20.8372V25.6547H24.2799C24.1439 25.7064 24.0588 25.713 23.9613 25.7144C23.833 25.7153 23.6876 25.7177 23.4498 25.8155C23.2121 25.914 23.1076 26.0158 23.0155 26.1051C22.9388 26.18 22.8787 26.2389 22.7174 26.3054C22.5553 26.3728 22.4707 26.3745 22.3634 26.3761C22.2346 26.3779 22.089 26.3795 21.8507 26.478C21.6121 26.5773 21.5077 26.6783 21.4155 26.7684C21.3384 26.8433 21.2779 26.9022 21.1158 26.9687L21.2807 27.3677C21.519 27.2684 21.6234 27.1674 21.7155 27.0773C21.7925 27.0024 21.8531 26.9435 22.0156 26.877C22.1777 26.8096 22.2623 26.808 22.3696 26.8063C22.4984 26.8046 22.644 26.803 22.8828 26.7036C23.1202 26.605 23.2242 26.504 23.3163 26.4139C23.3924 26.3398 23.4531 26.2809 23.6148 26.2143C23.7755 26.1469 23.8602 26.1462 23.9667 26.1445C24.0212 26.1442 24.0827 26.1406 24.1492 26.1324L21.9471 28.3341L22.2519 28.6389L24.6866 26.2046C24.6266 26.3377 24.5712 26.4018 24.5031 26.472C24.4134 26.5638 24.3121 26.6681 24.2134 26.9055C24.1148 27.1429 24.1127 27.2895 24.1116 27.4173C24.1098 27.5243 24.1091 27.6084 24.042 27.7701C23.9751 27.9326 23.9158 27.9931 23.8413 28.0698C23.7512 28.1616 23.6497 28.2668 23.5508 28.505C23.4519 28.7433 23.4501 28.889 23.4486 29.0177C23.4468 29.1247 23.4456 29.2096 23.3788 29.3712L23.7769 29.5362C23.8758 29.2979 23.8776 29.1522 23.8791 29.0235C23.8809 28.9166 23.8821 28.8316 23.949 28.67C24.0159 28.5075 24.0752 28.4469 24.1497 28.3703C24.2398 28.2785 24.3413 28.1733 24.4402 27.935C24.5387 27.6976 24.5409 27.551 24.542 27.4232C24.5438 27.3163 24.5445 27.2322 24.6116 27.0705C24.6781 26.9088 24.737 26.849 24.8115 26.7724C24.8497 26.7332 24.8905 26.6893 24.9319 26.6362V29.7493H25.3629V26.3067C25.4143 26.4424 25.4208 26.5273 25.4223 26.6252C25.4236 26.7532 25.4256 26.8988 25.5242 27.1362C25.6222 27.3745 25.7241 27.4789 25.8138 27.5706C25.8882 27.6472 25.9472 27.7078 26.0141 27.8694C26.081 28.031 26.0823 28.1161 26.0839 28.2229C26.0857 28.3517 26.0872 28.4973 26.1862 28.7356C26.2851 28.9739 26.3865 29.0792 26.4766 29.1709C26.551 29.2475 26.6104 29.3081 26.6774 29.4706L27.0755 29.3056C26.9766 29.0673 26.8752 28.9621 26.7851 28.8704C26.7107 28.7937 26.6513 28.7332 26.5843 28.5707C26.5174 28.409 26.5162 28.324 26.5145 28.2171C26.5127 28.0883 26.5112 27.9427 26.4122 27.7045C26.3137 27.4662 26.2123 27.3618 26.1226 27.2701C26.0482 27.1934 25.9892 27.1329 25.9223 26.9713C25.8554 26.8105 25.8545 26.7263 25.8528 26.6193C25.8522 26.5649 25.8487 26.5034 25.8405 26.4369L28.0428 28.639L28.3476 28.3342L26.1521 26.1391C26.2234 26.1486 26.2872 26.1514 26.3448 26.1522C26.4512 26.1531 26.5351 26.154 26.6958 26.2204C26.8566 26.2878 26.9168 26.3458 26.993 26.4207C27.0848 26.5099 27.1887 26.6117 27.4262 26.7103C27.6632 26.808 27.8084 26.8096 27.9364 26.8105C28.0424 26.8123 28.1262 26.813 28.2862 26.8796C28.4461 26.9452 28.5059 27.0042 28.5817 27.0783C28.6735 27.1675 28.7771 27.2693 29.014 27.3679L29.1789 26.9689C29.019 26.9033 28.9592 26.8443 28.8834 26.7702C28.7916 26.6809 28.688 26.5792 28.4511 26.4805C28.2142 26.3829 28.0689 26.3812 27.941 26.3803C27.8349 26.3786 27.7511 26.3779 27.5911 26.3113C27.4304 26.2448 27.3702 26.1867 27.294 26.1117C27.2022 26.0224 27.0983 25.9207 26.8608 25.8229C26.6234 25.7236 26.4782 25.7218 26.3497 25.7211C26.2453 25.7193 26.1606 25.7173 26.0056 25.6546H29.4577V25.2235H29.458Z" fill="#F09146"/>
<path d="M25.1477 27.5943C26.338 27.5943 27.303 26.6293 27.303 25.439C27.303 24.2487 26.338 23.2837 25.1477 23.2837C23.9574 23.2837 22.9924 24.2487 22.9924 25.439C22.9924 26.6293 23.9574 27.5943 25.1477 27.5943Z" fill="#FFE15A"/>
</g>
<defs>
<clipPath id="clip0_108_50440">
<rect width="50" height="50" fill="white" transform="translate(0.148438 0.438965)"/>
</clipPath>
</defs>
</svg>
