<svg width="51" height="51" viewBox="0 0 51 51" fill="none" xmlns="http://www.w3.org/2000/svg">
<g clip-path="url(#clip0_108_50429)">
<path d="M50.0065 41.8182H1.73076C1.25469 41.8182 0.868652 41.4321 0.868652 40.9561V9.92175C0.868652 9.44568 1.25469 9.05965 1.73076 9.05965H50.0065C50.4826 9.05965 50.8687 9.44568 50.8687 9.92175V40.9561C50.8686 41.4322 50.4825 41.8182 50.0065 41.8182Z" fill="#4173CD"/>
<path d="M50.8686 31.4731H0.868652V33.1972H50.8686V31.4731Z" fill="#FFE15A"/>
<path d="M50.8681 34.9212H0.868164V36.6454H50.8681V34.9212Z" fill="#FFE15A"/>
<path d="M7.23906 17.6208L4.03125 16.5254L7.23906 15.43L8.33446 12.2226L9.42978 15.43L12.6376 16.5254L9.42978 17.6208L8.33446 20.8283L7.23906 17.6208Z" fill="#FF4B55"/>
<path d="M8.33432 12.799L9.28295 15.5768L12.0608 16.5254L9.28295 17.4741L8.33432 20.2519L7.38569 17.4741L4.60786 16.5254L7.38569 15.5768L8.33432 12.799ZM8.33432 11.6459L7.98158 12.6785L7.09213 15.2833L4.48745 16.1727L3.45483 16.5254L4.48745 16.878L7.09213 17.7674L7.98158 20.3721L8.33432 21.4047L8.68705 20.3721L9.5765 17.7674L12.1812 16.878L13.2138 16.5254L12.1812 16.1729L9.5765 15.2834L8.68705 12.6788L8.33432 11.6459Z" fill="#F5F5F5"/>
</g>
<defs>
<clipPath id="clip0_108_50429">
<rect width="50" height="50" fill="white" transform="translate(0.869141 0.438965)"/>
</clipPath>
</defs>
</svg>
