<svg width="51" height="51" viewBox="0 0 51 51" fill="none" xmlns="http://www.w3.org/2000/svg">
<g clip-path="url(#clip0_108_50401)">
<path d="M0.883545 30.8987H50.8834V40.9561C50.8834 41.4321 50.4974 41.8182 50.0213 41.8182H1.74565C1.26958 41.8182 0.883545 41.4321 0.883545 40.9561V30.8987Z" fill="#73AF00"/>
<path d="M1.74565 9.05965H50.0214C50.4975 9.05965 50.8835 9.44568 50.8835 9.92175V19.9792H0.883545V9.92175C0.883545 9.44568 1.26958 9.05965 1.74565 9.05965Z" fill="#82AFFF"/>
<path d="M50.8834 19.979H0.883545V30.8979H50.8834V19.979Z" fill="#FF4B55"/>
<path d="M27.0594 29.0139C25.1248 29.0139 23.5554 27.4445 23.5554 25.5082C23.5554 23.5754 25.1248 22.0026 27.0594 22.0026C27.7792 22.0026 28.443 22.2239 28.9961 22.5986C29.0808 22.656 29.1774 22.5446 29.1065 22.4709C28.2798 21.6114 27.1097 21.0869 25.8124 21.1312C23.5835 21.2073 21.7384 22.9942 21.5959 25.2199C21.4327 27.7691 23.4513 29.8876 25.9646 29.8876C27.2024 29.8876 28.315 29.3701 29.1097 28.5426C29.1798 28.4696 29.0829 28.3599 28.9991 28.4167C28.4454 28.7923 27.7805 29.0139 27.0594 29.0139Z" fill="#F5F5F5"/>
<path d="M30.1272 23.35L30.4908 24.3722L31.4707 23.9065C31.5445 23.8713 31.6216 23.9484 31.5864 24.0222L31.1207 25.0021L32.1428 25.3657C32.2199 25.393 32.2199 25.502 32.1428 25.5293L31.1207 25.8929L31.5864 26.8728C31.6216 26.9466 31.5445 27.0237 31.4707 26.9885L30.4908 26.5228L30.1272 27.545C30.0999 27.622 29.9909 27.622 29.9635 27.545L29.6 26.5228L28.6201 26.9885C28.5463 27.0237 28.4692 26.9466 28.5044 26.8728L28.9701 25.8929L27.9479 25.5293C27.8709 25.502 27.8709 25.393 27.9479 25.3657L28.9701 25.0021L28.5044 24.0222C28.4692 23.9484 28.5463 23.8713 28.6201 23.9065L29.6 24.3722L29.9635 23.35C29.991 23.2731 30.0999 23.2731 30.1272 23.35Z" fill="#F5F5F5"/>
</g>
<defs>
<clipPath id="clip0_108_50401">
<rect width="50" height="50" fill="white" transform="translate(0.882812 0.438965)"/>
</clipPath>
</defs>
</svg>
