<svg width="51" height="51" viewBox="0 0 51 51" fill="none" xmlns="http://www.w3.org/2000/svg">
<g clip-path="url(#clip0_108_50371)">
<path d="M20.138 41.8183H1.17254C0.696461 41.8183 0.310425 41.4323 0.310425 40.9562V9.92179C0.310425 9.44571 0.696461 9.05968 1.17254 9.05968H20.138V41.8183Z" fill="#41479B"/>
<path d="M49.4484 41.7106H20.1379V9.05977H49.4483C49.9243 9.05977 50.3104 9.4458 50.3104 9.92188V40.8486C50.3105 41.3247 49.9244 41.7106 49.4484 41.7106Z" fill="#F5F5F5"/>
<path d="M25.9531 25.2508C25.5902 25.2508 25.2382 25.3744 24.9548 25.601L23.2358 26.9762C22.9524 27.203 22.6004 27.3264 22.2375 27.3264H21.7603V27.052C21.7603 26.6304 22.102 26.2886 22.5237 26.2886H23.3171V25.9187C23.3171 25.5499 23.018 25.2508 22.6492 25.2508H22.2793C22.2793 24.9643 22.0469 24.732 21.7604 24.732C20.3275 24.732 19.1659 25.8936 19.1659 27.3265H18.1698C17.807 27.3265 17.4548 27.203 17.1715 26.9763L15.4525 25.6011C15.1691 25.3744 14.817 25.2509 14.4543 25.2509H6.88422C6.62914 25.2509 6.5015 25.5592 6.68187 25.7396L9.3019 28.3596C9.63715 28.6949 10.0918 28.8833 10.5659 28.8833H12.42L13.942 30.0249C14.3013 30.2944 14.7382 30.4399 15.1875 30.4399H17.0902C17.4169 30.4399 17.7245 30.2861 17.9204 30.0249L18.1279 29.7481V30.9589L16.8474 33.52C16.7205 33.7738 16.905 34.0723 17.1888 34.0723H21.3786C21.5893 34.0723 21.7602 33.9014 21.7602 33.6907V29.0563L22.4867 30.025C22.6827 30.2863 22.9902 30.44 23.317 30.44H25.2197C25.6688 30.44 26.1058 30.2943 26.4651 30.025L27.9872 28.8834H29.8413C30.3154 28.8834 30.7701 28.695 31.1053 28.3597L33.7253 25.7397C33.9056 25.5594 33.7778 25.251 33.5229 25.251H25.9531V25.2508Z" fill="#FFE15A"/>
<path d="M20.3039 16.8432L20.5519 17.5871L21.3361 17.5931C21.4376 17.5939 21.4798 17.7235 21.398 17.7837L20.7672 18.2496L21.0037 18.9972C21.0342 19.094 20.9241 19.1741 20.8415 19.115L20.2036 18.659L19.5657 19.115C19.4832 19.1741 19.3729 19.094 19.4035 18.9972L19.64 18.2496L19.0091 17.7837C18.9275 17.7234 18.9696 17.5939 19.0711 17.5931L19.8552 17.5871L20.1033 16.8432C20.1355 16.7468 20.2717 16.7468 20.3039 16.8432Z" fill="#FFE15A"/>
<path d="M8.78561 21.531L9.48698 21.8816L10.0457 21.3314C10.1179 21.2602 10.2394 21.322 10.2244 21.4224L10.1077 22.1978L10.8036 22.5592C10.8936 22.606 10.8723 22.7406 10.7722 22.7572L9.9987 22.8859L9.86999 23.6594C9.85329 23.7595 9.71882 23.7809 9.67204 23.6908L9.31061 22.9949L8.53522 23.1116C8.43483 23.1266 8.37292 23.0053 8.44421 22.9329L8.9944 22.3742L8.64381 21.6728C8.5985 21.5821 8.69479 21.4857 8.78561 21.531Z" fill="#FFE15A"/>
<path d="M31.7631 21.6729L31.4126 22.3743L31.9628 22.933C32.034 23.0052 31.9722 23.1267 31.8718 23.1117L31.0964 22.995L30.735 23.6909C30.6882 23.7809 30.5536 23.7596 30.537 23.6595L30.4083 22.886L29.6348 22.7573C29.5347 22.7406 29.5133 22.6061 29.6034 22.5593L30.2993 22.1979L30.1826 21.4225C30.1676 21.3221 30.2889 21.2602 30.3612 21.3315L30.9199 21.8817L31.6213 21.5311C31.7121 21.4857 31.8085 21.5821 31.7631 21.6729Z" fill="#FFE15A"/>
<path d="M14.0781 18.0414L14.592 18.6338L15.3187 18.3393C15.4128 18.3011 15.5013 18.4047 15.4489 18.4917L15.0444 19.1635L15.549 19.7637C15.6143 19.8414 15.5432 19.9576 15.4442 19.9346L14.6804 19.7575L14.2655 20.4229C14.2118 20.509 14.0793 20.4772 14.0706 20.3761L14.003 19.5949L13.242 19.4059C13.1434 19.3815 13.1327 19.2456 13.2263 19.206L13.9483 18.9003L13.8929 18.1181C13.8858 18.017 14.0116 17.9649 14.0781 18.0414Z" fill="#FFE15A"/>
<path d="M26.5137 18.1183L26.4582 18.9005L27.1803 19.2062C27.2739 19.2457 27.263 19.3816 27.1646 19.4061L26.4036 19.5951L26.336 20.3763C26.3273 20.4775 26.1949 20.5093 26.1411 20.4231L25.7262 19.7577L24.9623 19.9348C24.8634 19.9578 24.7923 19.8416 24.8576 19.7639L25.3622 19.1637L24.9577 18.4919C24.9053 18.405 24.9938 18.3014 25.0878 18.3395L25.8146 18.634L26.3285 18.0416C26.395 17.9649 26.5208 18.017 26.5137 18.1183Z" fill="#FFE15A"/>
<path d="M17.132 17.1359L17.5205 17.817L18.2907 17.6701C18.3904 17.651 18.457 17.7699 18.3887 17.845L17.8609 18.4249L18.2387 19.112C18.2876 19.201 18.1951 19.301 18.1026 19.2592L17.3879 18.9365L16.8512 19.5081C16.7817 19.5822 16.658 19.5251 16.6692 19.4242L16.7553 18.6448L16.0457 18.311C15.9538 18.2678 15.9698 18.1326 16.0693 18.1119L16.8372 17.953L16.9354 17.1749C16.9482 17.0742 17.0818 17.0476 17.132 17.1359Z" fill="#FFE15A"/>
<path d="M29.3136 19.6372L29.1066 20.3935L29.7552 20.8342C29.8392 20.8913 29.8022 21.0224 29.7008 21.0271L28.9175 21.0639L28.6989 21.8169C28.6705 21.9145 28.5344 21.9198 28.4986 21.8249L28.2214 21.0914L27.4377 21.1161C27.3363 21.1193 27.2891 20.9915 27.3683 20.928L27.9804 20.4377L27.7147 19.7C27.6803 19.6045 27.7873 19.5202 27.8721 19.5759L28.5275 20.0065L29.147 19.5258C29.2272 19.4635 29.3405 19.5392 29.3136 19.6372Z" fill="#FFE15A"/>
<path d="M11.26 19.5257L11.8795 20.0064L12.5349 19.5758C12.6197 19.5202 12.7267 19.6044 12.6923 19.7L12.4266 20.4377L13.0387 20.9279C13.1179 20.9914 13.0708 21.1192 12.9693 21.116L12.1856 21.0913L11.9084 21.8248C11.8726 21.9197 11.7365 21.9144 11.7081 21.8169L11.4895 21.0638L10.7062 21.027C10.6048 21.0222 10.5678 20.8912 10.6518 20.8341L11.3004 20.3934L11.0934 19.6371C11.0664 19.5392 11.1797 19.4635 11.26 19.5257Z" fill="#FFE15A"/>
<path d="M23.4716 17.1749L23.5697 17.953L24.3376 18.112C24.437 18.1326 24.453 18.2678 24.3612 18.311L23.6517 18.6448L23.7378 19.4242C23.7489 19.525 23.6252 19.5822 23.5558 19.5081L23.0191 18.9365L22.3044 19.2592C22.2118 19.301 22.1193 19.2009 22.1683 19.1121L22.5461 18.4249L22.0183 17.845C21.9499 17.7699 22.0165 17.651 22.1162 17.6701L22.8864 17.817L23.2749 17.1359C23.3253 17.0476 23.4588 17.0742 23.4716 17.1749Z" fill="#FFE15A"/>
<path d="M7.35929 12.7616V14.993C7.35929 15.9157 6.6085 16.6665 5.68575 16.6665C4.76299 16.6665 4.01221 15.9157 4.01221 14.993V12.7616H7.35929ZM7.917 11.6459H3.4544C3.14629 11.6459 2.89648 11.8957 2.89648 12.2038V14.9931C2.89648 16.5335 4.14532 17.7823 5.68575 17.7823C7.22618 17.7823 8.47501 16.5335 8.47501 14.9931V12.2038C8.47491 11.8957 8.22511 11.6459 7.917 11.6459Z" fill="#FF4B55"/>
<path d="M7.35941 12.7616V14.993C7.35941 15.9157 6.60862 16.6665 5.68587 16.6665C4.76311 16.6665 4.01233 15.9157 4.01233 14.993V12.7616H7.35941Z" fill="#F5F5F5"/>
<path d="M3.44993 12.4828C3.60396 12.4828 3.72883 12.3579 3.72883 12.2039C3.72883 12.0498 3.60396 11.925 3.44993 11.925C3.29589 11.925 3.17102 12.0498 3.17102 12.2039C3.17102 12.3579 3.29589 12.4828 3.44993 12.4828Z" fill="#FFE15A"/>
<path d="M7.91233 12.4825C8.06637 12.4825 8.19124 12.3577 8.19124 12.2036C8.19124 12.0496 8.06637 11.9247 7.91233 11.9247C7.75829 11.9247 7.63342 12.0496 7.63342 12.2036C7.63342 12.3577 7.75829 12.4825 7.91233 12.4825Z" fill="#FFE15A"/>
<path d="M3.44956 14.714C3.6036 14.714 3.72847 14.5891 3.72847 14.4351C3.72847 14.2811 3.6036 14.1562 3.44956 14.1562C3.29553 14.1562 3.17065 14.2811 3.17065 14.4351C3.17065 14.5891 3.29553 14.714 3.44956 14.714Z" fill="#FFE15A"/>
<path d="M7.91233 14.714C8.06637 14.714 8.19124 14.5891 8.19124 14.4351C8.19124 14.2811 8.06637 14.1562 7.91233 14.1562C7.75829 14.1562 7.63342 14.2811 7.63342 14.4351C7.63342 14.5891 7.75829 14.714 7.91233 14.714Z" fill="#FFE15A"/>
<path d="M5.68076 12.4825C5.8348 12.4825 5.95967 12.3577 5.95967 12.2036C5.95967 12.0496 5.8348 11.9247 5.68076 11.9247C5.52673 11.9247 5.40186 12.0496 5.40186 12.2036C5.40186 12.3577 5.52673 12.4825 5.68076 12.4825Z" fill="#FFE15A"/>
<path d="M7.35483 16.7706C7.50887 16.7706 7.63374 16.6458 7.63374 16.4917C7.63374 16.3377 7.50887 16.2128 7.35483 16.2128C7.2008 16.2128 7.07593 16.3377 7.07593 16.4917C7.07593 16.6458 7.2008 16.7706 7.35483 16.7706Z" fill="#FFE15A"/>
<path d="M4.03953 16.7706C4.19356 16.7706 4.31843 16.6458 4.31843 16.4917C4.31843 16.3377 4.19356 16.2128 4.03953 16.2128C3.88549 16.2128 3.76062 16.3377 3.76062 16.4917C3.76062 16.6458 3.88549 16.7706 4.03953 16.7706Z" fill="#FFE15A"/>
<path d="M6.04534 14.2937V14.7741C6.04534 14.9728 5.88372 15.1344 5.68508 15.1344C5.48645 15.1344 5.32483 14.9728 5.32483 14.7741V14.2937H6.04534Z" fill="#41479B"/>
<path d="M6.04534 13.1549V13.6352C6.04534 13.8339 5.88372 13.9955 5.68508 13.9955C5.48645 13.9955 5.32483 13.8339 5.32483 13.6352V13.1549H6.04534Z" fill="#41479B"/>
<path d="M6.04534 15.4443V15.9247C6.04534 16.1233 5.88372 16.285 5.68508 16.285C5.48645 16.285 5.32483 16.1233 5.32483 15.9247V15.4443H6.04534Z" fill="#41479B"/>
<path d="M7.01592 14.2937V14.7741C7.01592 14.9728 6.8543 15.1344 6.65566 15.1344C6.45703 15.1344 6.29541 14.9728 6.29541 14.7741V14.2937H7.01592Z" fill="#41479B"/>
<path d="M5.07512 14.2937V14.7741C5.07512 14.9728 4.9135 15.1344 4.71487 15.1344C4.51624 15.1344 4.35461 14.9728 4.35461 14.7741V14.2937H5.07512Z" fill="#41479B"/>
</g>
<defs>
<clipPath id="clip0_108_50371">
<rect width="50" height="50" fill="white" transform="translate(0.310547 0.438965)"/>
</clipPath>
</defs>
</svg>
