<svg width="51" height="51" viewBox="0 0 51 51" fill="none" xmlns="http://www.w3.org/2000/svg">
<g clip-path="url(#clip0_108_50362)">
<path d="M21.1164 42.1116H1.28887C0.812794 42.1116 0.426758 41.7256 0.426758 41.2495V10.2151C0.426758 9.73902 0.812794 9.35298 1.28887 9.35298H21.1164V42.1116Z" fill="#F5F5F5"/>
<path d="M14.22 9.35308L21.1166 11.4004L14.22 13.4478L21.1166 15.4952L14.22 17.5425L21.1166 19.5899L14.22 21.6373L21.1166 23.6846L14.22 25.732L21.1166 27.7794L14.22 29.8268L21.1166 31.8741L14.22 33.9215L21.1166 35.9689L14.22 38.0162L21.1166 40.0636L14.22 42.111H49.5648C50.0408 42.111 50.4269 41.7249 50.4269 41.2488V10.2151C50.4269 9.73902 50.0408 9.35298 49.5648 9.35298H14.22V9.35308Z" fill="#FF4B55"/>
</g>
<defs>
<clipPath id="clip0_108_50362">
<rect width="50" height="50" fill="white" transform="translate(0.427734 0.732178)"/>
</clipPath>
</defs>
</svg>
