<svg width="51" height="51" viewBox="0 0 51 51" fill="none" xmlns="http://www.w3.org/2000/svg">
<g clip-path="url(#clip0_108_50346)">
<path d="M49.2855 42.1115H1.00981C0.53374 42.1115 0.147705 41.7255 0.147705 41.2494V10.2151C0.147705 9.73899 0.53374 9.35295 1.00981 9.35295H49.2856C49.7617 9.35295 50.1477 9.73899 50.1477 10.2151V41.2494C50.1476 41.7256 49.7616 42.1115 49.2855 42.1115Z" fill="#73AF00"/>
<path d="M21.6994 36.9392C27.8889 36.9392 32.9065 31.9217 32.9065 25.7322C32.9065 19.5427 27.8889 14.5252 21.6994 14.5252C15.51 14.5252 10.4924 19.5427 10.4924 25.7322C10.4924 31.9217 15.51 36.9392 21.6994 36.9392Z" fill="#FF4B55"/>
</g>
<defs>
<clipPath id="clip0_108_50346">
<rect width="50" height="50" fill="white" transform="translate(0.148438 0.732178)"/>
</clipPath>
</defs>
</svg>
