<svg width="50" height="50" viewBox="0 0 50 50" fill="none" xmlns="http://www.w3.org/2000/svg">
<path d="M16.3462 41.3462H0.845529C0.378611 41.3462 0 40.9609 0 40.4858V9.51421C0 9.0391 0.378611 8.65385 0.845529 8.65385H16.3462V41.3462Z" fill="#41479B"/>
<path d="M32.6923 8.65385H16.3462V41.3462H32.6923V8.65385Z" fill="#FFE15A"/>
<path d="M49.1544 41.3462H33.6538V8.65385H49.1544C49.6214 8.65385 50 9.0391 50 9.51421V40.4858C50 40.961 49.6214 41.3462 49.1544 41.3462Z" fill="#41479B"/>
<path d="M31.7308 20.3347C31.7308 20.3347 29.3897 20.3347 27.6338 22.151H28.8043C28.8043 22.151 27.6703 24.2699 27.085 27.9024L25.8779 27.6985V22.1329L27.0484 22.5293L25.0001 17.3077L22.9516 22.5293L24.1221 22.1256V27.6984L22.915 27.9023C22.3297 24.2699 21.1957 22.1509 21.1957 22.1509H22.3662C20.6104 20.3347 18.2693 20.3347 18.2693 20.3347C21.1956 23.9671 21.1956 30.0213 21.1956 30.0213L24.122 29.5169V33.6538H25.8778V29.5169L28.8042 30.0213C28.8044 30.0214 28.8044 23.9673 31.7308 20.3347Z" fill="#464655"/>
</svg>
