<svg width="50" height="50" viewBox="0 0 50 50" fill="none" xmlns="http://www.w3.org/2000/svg">
<path d="M49.1379 41.3462H0.862109C0.386035 41.3462 0 40.9586 0 40.4807V32.6923H50V40.4807C50 40.9587 49.614 41.3462 49.1379 41.3462Z" fill="#73AF00"/>
<path d="M49.1379 8.65385H0.862109C0.386035 8.65385 0 9.03829 0 9.5124V32.6923H50V9.5124C50 9.03829 49.614 8.65385 49.1379 8.65385Z" fill="#FF4B55"/>
<path d="M6.73077 41.3462H0.841382C0.376754 41.3462 0 40.9609 0 40.4858V9.51421C0 9.0391 0.376754 8.65385 0.841382 8.65385H6.73077V41.3462Z" fill="#F5F5F5"/>
<path d="M0.961426 39.8198H1.24483V38.9726H0.961426V39.8198ZM3.22343 39.8198H3.50693V38.9726H3.22343V39.8198ZM5.48689 39.8198H5.76903V38.9726H5.48689V39.8198ZM2.09388 37.5483H2.37448V36.8423H2.09388V37.5483ZM4.35725 37.5483H4.63939V36.8423H4.35725V37.5483ZM0.961426 35.7066H1.24483V34.8594H0.961426V35.7066ZM3.22343 35.7066H3.50693V34.8594H3.22343V35.7066ZM5.48689 35.7066H5.76903V34.8594H5.48689V35.7066ZM1.52979 36.8423H1.81038V36.13H2.09388V35.424H2.37448V36.13H2.65943V36.8423H2.94002V37.5483H2.65943V38.2603H2.37448V38.9724H2.09388V38.2603H1.81038V37.5483H1.52979V36.8423ZM3.79188 36.8423H4.07529V36.13H4.35734V35.424H4.63948V36.13H4.92152V36.8423H5.20493V37.5483H4.92152V38.2603H4.63948V38.9724H4.35734V38.2603H4.07529V37.5483H3.79188V36.8423ZM4.35725 34.006V34.712H4.07248V35.4241H3.79188V36.1301H3.50693V36.8424H3.22343V36.1301H2.93993V35.4241H2.65934V34.712H2.37439V34.006H2.09379V34.712H1.81029V35.4241H1.5297V36.1301H1.24474V36.8424H0.961426V37.5484H1.24483V38.2604H1.52979V38.9725H1.81038V39.6785H2.09388V40.3846H2.37738V39.6785H2.65943V38.9725H2.94002V38.2604H3.22352V37.5484H3.50702V38.2604H3.79197V38.9725H4.07538V39.6785H4.35743V40.3846H4.63957V39.6785H4.92162V38.9725H5.20502V38.2604H5.48852V37.5484H5.76912V36.8424H5.48698V36.1301H5.20502V35.4241H4.92162V34.712H4.63957V34.006H4.35725ZM5.05805 33.3002H5.19912V33.0178H5.34155V33.3002H5.48398V33.5824H5.34155V33.8709H5.19912V33.5824H5.05805V33.3002ZM5.05805 32.3116V32.7292H4.91853V33.1589H4.7761V33.7238H4.91853V34.1473H5.05805V34.5708H5.48408V34.1473H5.62514V33.7238H5.76467V33.1589H5.62514V32.7292H5.48408V32.3116H5.05805ZM1.24483 33.2939H1.38727V33.0117H1.5297V33.2939H1.66777V33.5824H1.5297V33.8647H1.38727V33.5824H1.24483V33.2939ZM1.24483 32.3054V32.7291H1.10377V33.1526H0.961426V33.7236H1.10377V34.1471H1.24483V34.5706H1.66786V34.1471H1.81029V33.7236H1.94855V33.1526H1.81029V32.7291H1.66786V32.3054H1.24483ZM2.80032 33.2939H2.93984V33.0117H3.08382V33.2939H3.22334V33.5824H3.08382V33.8647H2.93984V33.5824H2.80032V33.2939ZM3.50693 33.2939H3.64936V33.0117H3.79179V33.2939H3.93132V33.5824H3.79179V33.8647H3.64936V33.5824H3.50693V33.2939ZM3.50693 32.3054V32.7291H3.22343V32.3054H2.80041V32.7291H2.65934V33.1526H2.51691V33.7236H2.65934V34.1471H2.80041V34.5706H3.22343V34.1471H3.50693V34.5706H3.93141V34.1471H4.07529V33.7236H4.21355V33.1526H4.07529V32.7291H3.93141V32.3054H3.50693ZM0.961426 32.0169H1.24483V31.1698H0.961426V32.0169ZM3.22343 32.0169H3.50693V31.1698H3.22343V32.0169ZM5.48689 32.0169H5.76903V31.1698H5.48689V32.0169ZM0.961426 28.4746H1.24483V27.9099H0.961426V28.4746ZM5.48689 28.4746H5.76903V27.9099H5.48689V28.4746ZM3.22343 26.4917H3.50693V25.7857H3.22343V26.4917ZM0.961426 24.5765V25V25.0061V25.4296H1.24483V25.0061V25V24.5765H0.961426ZM2.51682 24.5765V25V25.0061V25.4296H2.80032V25.0061V25V24.5765H2.51682ZM3.93141 24.5765V25V25.0061V25.4296H4.21346V25.0061V25V24.5765H3.93141ZM5.48689 24.5765V25V25.0061V25.4296H5.76903V25.0061V25V24.5765H5.48689ZM3.64936 24.0793V24.3616H3.50693V24.5765H3.22343V24.3616H3.08391V24.0793H2.80041V24.5028H2.93993V24.7176H3.08391V25V25.0061V25.2824H2.93993V25.4972H2.80041V25.9207H3.08391V25.6385H3.22343V25.4296H3.50693V25.6385H3.64936V25.9207H3.93141V25.4972H3.79188V25.2824H3.64945V25.0061V25V24.7176H3.79188V24.5028H3.93141V24.0793H3.64936ZM3.22343 24.2203H3.50693V23.5142H3.22343V24.2203ZM0.961426 22.0961H1.24483V21.5314H0.961426V22.0961ZM5.48689 22.0961H5.76903V21.5314H5.48689V22.0961ZM0.961426 18.8363H1.24483V17.9831H0.961426V18.8363ZM3.22343 18.8363H3.50693V17.9831H3.22343V18.8363ZM5.48689 18.8363H5.76903V17.9831H5.48689V18.8363ZM2.09388 25.0122V24.9939V24.7175H2.37448V24.2263H2.65943V23.6554H3.08391V22.9864H3.22343V22.6609H3.36595H3.50693V22.9802H3.64936V23.6555H4.0752V23.9378V24.2263H4.35725V24.7175H4.63939V25V25.2823H4.35725V25.7857H4.0752V26.068V26.3503H3.64936V27.0196H3.50693V27.3388H3.36595H3.22343V27.0196H3.08391V26.3503H2.65943V25.7855H2.37448V25.2821H2.09388V25.0122ZM4.35725 17.1297V17.8417H4.07248V18.5478H3.79188V19.2601H3.50693V19.8247V19.966H3.22343V19.26H2.93993V18.5477H2.65934V17.8416H2.37439V17.1296H2.09379V17.8416H1.81029V18.5477H1.52679V19.26H1.24474V19.8246V19.9659H0.961426V20.6779H1.24483V21.39H1.52688V22.096H1.81038V22.8021H2.09388V22.096H2.37448V21.39H2.65943V20.6779H2.37448V19.8245H2.65943V19.9658V20.3955H2.94002V21.5313H3.084V22.2311L2.65952 22.2372V22.8021H2.37457V23.2256H2.09397V23.9376H1.81047V23.2256H1.52697V22.8021H1.24493V22.3784H0.961426V23.6553H1.24483V24.2263H1.52688V24.7174H1.81038V25V25.0061V25.2824H1.52688V25.7858H1.24483V26.3506H0.961426V27.6275H1.24483V27.1977H1.52688V26.7742H1.81038V26.0682H2.09388V26.7742H2.37448V27.1977H2.65943V27.7687L3.08391 27.7748V28.4746H2.93993V29.6104H2.65934V30.0339V30.1814H2.37439V29.3219H2.65934V28.6159H2.37439V27.9098H2.09379V27.1975H1.81029V27.9098H1.52679V28.6159H1.24474V29.3219H0.961426V30.0339H1.24483V30.1814V30.7399H1.52979V31.4522H1.81038V32.1643H2.09388V32.8703H2.37448V32.1643H2.65943V31.4522H2.94002V30.7399H3.22352V30.0339H3.50702V30.1814V30.7399H3.79197V31.4522H4.07538V32.1643H4.35743V32.8703H4.63957V32.1643H4.92162V31.4522H5.20502V30.7399H5.48698V30.0339H5.76903V29.3219H5.48689V28.6159H5.20493V27.9098H4.92152V27.1975H4.63948V27.9098H4.35734V28.6159H4.07257V29.3219H4.35734V30.0339V30.1814H4.07257V30.0339V29.6104H3.79197V28.4746H3.75158H3.64954V27.7686H3.75158H3.82792H3.9315H4.07538V27.1976H4.35743V26.7741H4.63957V26.0681H4.92162V26.7741H5.20502V27.1976H5.48852V27.6274H5.76912V26.3505H5.48843V25.7857H5.20493V25.2823H4.92152V25.0061V25V24.7176H5.20493V24.2264H5.48843V23.6555H5.76912V22.3786H5.48843V22.8023H5.20493V23.2258H4.92152V23.9378H4.63948V23.2258H4.35734V22.8023H4.07529V22.2374H3.93141H3.82783H3.75149H3.64945V21.5314H3.75149H3.79188V20.3956H4.07248V19.9659V19.8246H4.35725V19.9659V20.6779H4.07248V21.39H4.35725V22.096H4.63939V22.8021H4.92143V22.096H5.20484V21.39H5.4868V20.6779H5.76912V19.9659H5.48698V19.2599H5.20502V18.5476H4.92162V17.8415H4.63957V17.1295H4.35725V17.1297ZM1.24483 16.4237H1.38454V16.1414H1.52979V16.4237H1.66786V16.706H1.52979V16.9945H1.38454V16.706H1.24483V16.4237ZM1.24483 15.8527H1.10377V16.2824H0.961426V16.8473H1.10377V17.277H1.24483V17.7007H1.66786V17.277H1.81029V16.8473H1.94855V16.2824H1.81029V15.8527H1.66786V15.4353H1.24483V15.8527ZM2.80032 16.4237H2.93984V16.1414H3.08382V16.4237H3.22334V16.706H3.08382V16.9945H2.93984V16.706H2.80032V16.4237ZM3.50693 16.4237H3.64936V16.1414H3.79179V16.4237H3.93132V16.706H3.79179V16.9945H3.64936V16.706H3.50693V16.4237ZM2.80032 15.8527H2.65925V16.2824H2.51682V16.8473H2.65925V17.277H2.80032V17.7007H3.22334V17.277H3.50684V17.7007H3.93132V17.277H4.0752V16.8473H4.21346V16.2824H4.0752V15.8527H3.93132V15.4353H3.50684V15.8527H3.22334V15.4353H2.80032V15.8527ZM5.05805 16.4176H5.19912V16.1413H5.34155V16.4176H5.48398V16.7061H5.34155V16.9884H5.19912V16.7061H5.05805V16.4176ZM5.05805 15.4292V15.8527H4.91853V16.2824H4.7761V16.8473H4.91853V17.2708H5.05805V17.6945H5.48408V17.2708H5.62514V16.8473H5.76467V16.2824H5.62514V15.8527H5.48408V15.4292H5.05805ZM0.961426 15.1468H1.24483V14.2996H0.961426V15.1468ZM3.22343 15.1468H3.50693V14.2996H3.22343V15.1468ZM5.48689 15.1468H5.76903V14.2996H5.48689V15.1468ZM2.09388 13.1639H2.37448V12.4516H2.09388V13.1639ZM4.35725 13.1639H4.63939V12.4516H4.35725V13.1639ZM0.961426 11.0336H1.24483V10.1864H0.961426V11.0336ZM3.22343 11.0336H3.50693V10.1864H3.22343V11.0336ZM5.48689 11.0336H5.76903V10.1864H5.48689V11.0336ZM1.52979 12.4517H1.81038V11.7457H2.09388V11.0336H2.37448V11.7457H2.65943V12.4517H2.94002V13.164H2.65943V13.87H2.37448V14.582H2.09388V13.87H1.81038V13.164H1.52979V12.4517ZM3.79188 12.4517H4.07529V11.7457H4.35734V11.0336H4.63948V11.7457H4.92152V12.4517H5.20493V13.164H4.92152V13.87H4.63948V14.582H4.35734V13.87H4.07529V13.164H3.79188V12.4517ZM4.35725 9.61539V10.3277H4.0752V11.0337H3.79179V11.7458H3.50684V12.4518H3.22334V11.7458H2.93984V11.0337H2.65925V10.3277H2.37729V9.61539H2.09379V10.3277H1.81029V11.0337H1.5297V11.7458H1.24474V12.4518H0.961426V13.1641H1.24483V13.8701H1.52979V14.5821H1.81038V15.2942H2.09388V16.0002H2.37448V15.2942H2.65943V14.5821H2.94002V13.8701H3.22352V13.1641H3.50702V13.8701H3.79197V14.5821H4.07257V15.2942H4.35734V16.0002H4.63948V15.2942H4.92152V14.5821H5.20493V13.8701H5.48689V13.1641H5.76903V12.4518H5.48834V11.7458H5.20484V11.0337H4.92143V10.3277H4.63939V9.61539H4.35725Z" fill="#FF4B55"/>
</svg>
