<svg width="51" height="51" viewBox="0 0 51 51" fill="none" xmlns="http://www.w3.org/2000/svg">
<g clip-path="url(#clip0_108_50175)">
<path d="M50.3103 25.8673H0.310425V10.3501C0.310425 9.87405 0.696459 9.48801 1.17253 9.48801H49.4483C49.9244 9.48801 50.3104 9.87405 50.3104 10.3501L50.3103 25.8673Z" fill="#FFE15A"/>
<path d="M0.310425 25.8673H50.3103V41.3844C50.3103 41.8605 49.9243 42.2466 49.4482 42.2466H1.17253C0.696459 42.2466 0.310425 41.8605 0.310425 41.3844V25.8673Z" fill="#FF4B55"/>
<path d="M16.9771 42.246H1.17253C0.696459 42.246 0.310425 41.8599 0.310425 41.3839V10.3495C0.310425 9.87346 0.696459 9.48743 1.17253 9.48743H16.9771V42.246Z" fill="#73AF00"/>
</g>
<defs>
<clipPath id="clip0_108_50175">
<rect width="50" height="50" fill="white" transform="translate(0.310547 0.866943)"/>
</clipPath>
</defs>
</svg>
