<svg width="50" height="51" viewBox="0 0 50 51" fill="none" xmlns="http://www.w3.org/2000/svg">
<g clip-path="url(#clip0_108_50122)">
<path d="M49.1378 41.5393H0.862108C0.386034 41.5393 0 41.1533 0 40.6772V9.64288C0 9.16681 0.386034 8.78077 0.862108 8.78077H49.1379C49.614 8.78077 50 9.16681 50 9.64288V40.6772C49.9999 41.1534 49.6139 41.5393 49.1378 41.5393Z" fill="#FF4B55"/>
<path d="M24.1378 25.16H0.862108C0.386034 25.16 0 24.774 0 24.2979V9.64288C0 9.16681 0.386034 8.78077 0.862108 8.78077H24.1378C24.6139 8.78077 25 9.16681 25 9.64288V24.298C24.9999 24.7742 24.614 25.16 24.1378 25.16Z" fill="#41479B"/>
<path d="M24.1378 8.78077H22.6405L14.6551 14.0125V8.78077H10.3448V14.0125L2.35947 8.78077H0.862108C0.386034 8.78077 0 9.16681 0 9.64288V10.3267L6.85106 14.8152H0V19.1256H6.85106L0 23.6142V24.2979C0 24.774 0.386034 25.16 0.862108 25.16H2.35947L10.3448 19.9283V25.16H14.6551V19.9283L22.6404 25.16H24.1377C24.6138 25.16 24.9999 24.774 24.9999 24.2979V23.6141L18.1489 19.1256H24.9999V14.8152H18.1488L24.9999 10.3267V9.64288C24.9999 9.16681 24.614 8.78077 24.1378 8.78077Z" fill="#F5F5F5"/>
<path d="M24.9999 15.6775H13.793V8.78089H11.2068V15.6775H0V18.2636H11.2068V25.1602H13.793V18.2636H24.9999V15.6775Z" fill="#FF4B55"/>
<path d="M9.4827 14.8151L0.410839 8.92636C0.169433 9.0792 0 9.33584 0 9.64277V9.6875L7.8993 14.8151H9.4827Z" fill="#FF4B55"/>
<path d="M16.2387 14.8151L24.8689 9.21299C24.7189 8.95918 24.4543 8.78067 24.138 8.78067H23.9515L14.6553 14.8151H16.2387Z" fill="#FF4B55"/>
<path d="M8.73802 19.1255L0.124268 24.7169C0.272802 24.9768 0.541552 25.1599 0.86245 25.1599H1.02505L10.3214 19.1255H8.73802Z" fill="#FF4B55"/>
<path d="M24.9862 24.3657L16.9134 19.1256H15.3301L24.4973 25.0761C24.7721 24.9487 24.9603 24.6816 24.9862 24.3657Z" fill="#FF4B55"/>
<path d="M31.3423 17.1551C31.1723 17.1551 31.0344 17.2929 31.0344 17.463V28.8546C31.0344 29.7782 31.6501 32.857 37.4999 33.7806C43.3497 32.857 43.9655 29.7782 43.9655 28.8546V17.4631C43.9655 17.2931 43.8277 17.1552 43.6576 17.1552L31.3423 17.1551Z" fill="#F5F5F5"/>
<path d="M37.4998 33.7807C42.383 33.0098 43.618 30.7378 43.8932 29.4704H31.1064C31.3815 30.7377 32.6166 33.0098 37.4998 33.7807Z" fill="#73AF00"/>
<path d="M41.5025 23.6207C41.5025 23.6207 41.8104 23.3128 41.5025 22.6971L37.5 22.518L33.4976 22.6971C33.1897 23.3128 33.4976 23.6207 33.4976 23.6207C33.1897 23.9286 33.1897 24.2364 33.1897 24.2364H33.8054L34.4725 25.3396L37.4999 27.0073L40.5275 25.3396L41.1946 24.2364H41.8103C41.8104 24.2364 41.8104 23.9286 41.5025 23.6207Z" fill="#82AFFF"/>
<path d="M40.5276 25.3396C40.5276 25.3396 40.3351 24.9163 39.822 24.9677C39.822 24.9677 39.5398 24.5957 39.0651 24.6982C39.0651 24.6982 38.5134 24.3775 38.1928 24.9677C38.1928 24.9677 37.1729 24.864 37.1184 25.6406C37.1184 25.6406 38.7059 28.0336 38.7445 28.0593C38.783 28.085 40.6431 28.0721 40.6431 28.0721L41.5027 27.1237L40.6559 25.9041L40.5276 25.3396Z" fill="#F5F5F5"/>
<path d="M37.5386 26.0966C37.5386 26.0966 36.1919 23.8966 35.9991 23.7104C35.8131 23.5308 35.4475 23.3641 35.0754 23.672C35.0754 23.672 33.9594 23.5822 34.1132 24.4289L34.4339 25.7118C34.4339 25.7118 34.1517 26.5969 34.0233 26.6868C33.8951 26.7765 33.4204 27.0203 33.4204 27.0203L33.6898 28.085L37.2817 27.9054L37.5386 26.0966Z" fill="#F0C850"/>
<path d="M39.0904 25.1343L39.0862 25.1362L38.9869 24.9017C38.9789 24.8828 38.9637 24.8677 38.9445 24.8602C38.9255 24.8527 38.9042 24.853 38.8851 24.8614L38.2169 25.156L37.4222 23.8551C37.4574 23.8248 37.4728 23.7753 37.4561 23.7292C37.4347 23.669 37.3685 23.6378 37.3085 23.6592L37.1313 23.7225L37.0115 23.3684C36.9978 23.3281 36.9544 23.3071 36.914 23.3201C36.8736 23.3339 36.852 23.3775 36.8657 23.4178L36.9864 23.7747L36.7971 23.8425C36.737 23.8641 36.7058 23.9303 36.7273 23.9901C36.7441 24.0373 36.7887 24.0669 36.836 24.0669C36.8427 24.0669 36.8495 24.0646 36.8562 24.0635L37.1182 25.6409L36.9492 25.7153C36.9124 25.7316 36.8941 25.7736 36.9078 25.8115L37.0036 26.0783C37.006 26.1232 37.0058 26.199 36.9904 26.2949L35.9156 24.4512C35.9607 24.423 35.9833 24.3681 35.9646 24.3162C35.943 24.256 35.8774 24.2245 35.817 24.2462L35.6398 24.3095L35.52 23.9554C35.5064 23.9151 35.4627 23.8935 35.4225 23.9071C35.3821 23.9209 35.3605 23.9645 35.3742 24.0049L35.4949 24.3617L35.3056 24.4295C35.2455 24.4511 35.2143 24.5173 35.2358 24.5771C35.2513 24.6202 35.2904 24.6456 35.333 24.6502L35.7995 27.5617C35.7393 27.587 35.6802 27.6127 35.6139 27.6363C35.6139 27.6363 35.3958 28.6755 35.5626 28.7267C35.7294 28.778 37.4483 29.304 37.4483 29.304C37.4483 29.304 39.8216 28.1751 39.8729 28.1495C39.9242 28.1238 40.0269 27.3798 40.0269 27.3798L39.0904 25.1343ZM38.9448 25.1969L38.7461 25.2823L38.6803 25.1199L38.8755 25.0338L38.9448 25.1969ZM37.7436 25.5329L37.907 25.4609L37.9698 25.6157L37.7969 25.69L37.7436 25.5329ZM37.6549 25.7509L37.4617 25.8339L37.401 25.6841L37.6023 25.5953L37.6549 25.7509ZM38.1111 25.555L38.0477 25.3988L38.2224 25.3218L38.2863 25.4799L38.1111 25.555ZM38.3631 25.2598L38.5394 25.182L38.6048 25.343L38.4276 25.4191L38.3631 25.2598ZM37.2787 23.9153L38.0748 25.2186L37.6942 25.3864L37.2055 23.9415L37.2787 23.9153ZM37.0039 24.0137L37.0603 23.9935L37.5527 25.449L37.2634 25.5765L37.0039 24.0137ZM37.2602 25.7463L37.3204 25.8948L37.1305 25.9763L37.077 25.8271L37.2602 25.7463ZM35.7708 24.5081L36.9366 26.508C36.8779 26.6776 36.7672 26.8745 36.573 27.0677L35.714 24.5283L35.7708 24.5081ZM35.483 24.6112L35.5691 24.5803L36.4489 27.1811C36.3155 27.2918 36.1496 27.3987 35.9454 27.4966L35.483 24.6112Z" fill="#965032"/>
<path d="M41.7812 22.2305C41.6994 22.1006 41.437 22.1562 41.437 22.1562C41.437 22.1562 41.3621 22.0064 41.1642 21.992C40.9662 21.9775 40.9299 22.1538 40.9299 22.1538C40.9299 22.1538 40.8928 22.1263 40.6747 22.1327C40.4567 22.1392 40.5016 22.4983 40.5016 22.4983C40.5016 22.4983 40.4182 22.4983 40.136 22.4086C39.8537 22.3187 39.6678 22.3829 39.6678 22.3829C39.655 22.2353 39.5781 22.1264 39.5781 22.1264C39.3408 22.2226 39.1547 22.1136 39.1099 22.0302C39.065 21.9468 39.1805 21.8185 39.1805 21.7095C39.1805 21.6004 39.0297 21.6053 38.9768 21.5091C38.9239 21.4129 38.9768 21.36 39.1163 21.2975C39.2559 21.235 39.3858 21.004 39.2991 20.8164C39.2123 20.6288 38.9623 20.6624 38.9623 20.6624C39.049 20.6769 39.121 20.8404 38.9817 20.874C38.8422 20.9076 38.7171 20.3978 38.7171 20.3978C39.0394 20.6143 39.2752 20.4844 39.3425 20.2967C39.4099 20.109 39.2319 19.9792 39.2319 19.9792C39.0923 20.2053 38.8518 20.0081 38.9818 19.8638C39.1117 19.7194 39.1228 19.4773 39.1228 19.4773C38.8341 19.6186 38.6546 19.4389 38.6546 19.4389C39.033 19.176 38.9241 18.8038 38.9241 18.8038C38.783 18.7396 38.4815 18.791 38.4815 18.791C38.5456 18.6627 38.5327 18.4317 38.5327 18.4317C38.3724 18.4061 38.1928 18.5087 38.1928 18.5087C38.2441 18.3292 38.1735 18.0148 38.1735 18.0148C38.058 18.0342 37.84 18.0982 37.84 18.0982C37.7502 17.893 37.5 17.7711 37.5 17.7711C37.5 17.7711 37.2499 17.893 37.1601 18.0982C37.1601 18.0982 36.942 18.0341 36.8266 18.0148C36.8266 18.0148 36.756 18.3292 36.8073 18.5087C36.8073 18.5087 36.6277 18.4062 36.4673 18.4317C36.4673 18.4317 36.4545 18.6627 36.5186 18.791C36.5186 18.791 36.2171 18.7397 36.076 18.8038C36.076 18.8038 35.9669 19.1758 36.3454 19.4389C36.3454 19.4389 36.1659 19.6185 35.8773 19.4773C35.8773 19.4773 35.8885 19.7194 36.0183 19.8638C36.1482 20.0081 35.9077 20.2054 35.7682 19.9792C35.7682 19.9792 35.5902 20.1091 35.6576 20.2967C35.7249 20.4843 35.9607 20.6142 36.2829 20.3978C36.2829 20.3978 36.1578 20.9077 36.0184 20.874C35.8789 20.8404 35.951 20.6769 36.0377 20.6624C36.0377 20.6624 35.7876 20.6287 35.701 20.8164C35.6144 21.004 35.7444 21.235 35.8837 21.2975C36.0233 21.36 36.0762 21.4129 36.0233 21.5091C35.9704 21.6053 35.8196 21.6005 35.8196 21.7095C35.8196 21.8185 35.935 21.9468 35.8902 22.0302C35.8453 22.1136 35.6592 22.2227 35.422 22.1264C35.422 22.1264 35.3451 22.2354 35.3323 22.3829C35.3323 22.3829 35.1462 22.3187 34.8641 22.4086C34.5819 22.4983 34.4985 22.4983 34.4985 22.4983C34.4985 22.4983 34.5434 22.1392 34.3253 22.1327C34.1073 22.1263 34.0702 22.1538 34.0702 22.1538C34.0702 22.1538 34.0339 21.9775 33.8359 21.992C33.6379 22.0065 33.563 22.1562 33.563 22.1562C33.563 22.1562 33.3006 22.1007 33.2189 22.2305C33.1372 22.3603 33.1275 22.5576 33.2814 22.6394C33.4354 22.7213 33.8442 23.0628 33.8442 23.0628L34.4214 23.3129L36.4419 22.4181L37.5002 22.6971L38.5585 22.4181L40.579 23.3129L41.1563 23.0628C41.1563 23.0628 41.5653 22.7212 41.7191 22.6394C41.8726 22.5575 41.863 22.3602 41.7812 22.2305Z" fill="#FF4B55"/>
<path d="M36.8696 18.9699C36.8696 18.9699 36.8914 19.2416 37.2935 19.1691C37.2934 19.1691 37.2826 18.8866 36.8696 18.9699Z" fill="#F5F5F5"/>
<path d="M35.3821 29.7014C35.3821 29.7014 35.0935 29.6918 34.7953 29.913C34.4971 30.1343 34.3655 29.9771 34.0673 29.9771C33.769 29.9771 33.6984 30.2883 33.6984 30.2883C33.6984 30.2883 33.1212 30.4326 33.3521 30.856C33.4981 31.1237 33.7014 31.1181 33.8314 31.0778C33.8249 31.2577 33.8658 31.4554 34.0737 31.491C34.4683 31.5584 34.6414 31.3467 34.5548 31.0195C34.5548 31.0195 34.6028 31.3562 34.8627 31.3467C35.1225 31.3371 35.2957 31.1927 35.2668 30.8464C35.2379 30.5001 35.6998 30.7117 36.0557 30.2018L35.3821 29.7014Z" fill="#FF4B55"/>
<path d="M33.6961 30.9392C33.6961 30.9392 33.5161 31.1765 33.5676 31.4074C33.5676 31.4074 33.1818 31.2855 33.3875 30.7146C33.3874 30.7147 33.6512 30.6442 33.6961 30.9392Z" fill="#82AFFF"/>
<path d="M34.3 31.2503C34.3 31.2503 34.1941 31.5485 34.3384 31.8131C34.3384 31.8131 33.8574 31.7986 33.9537 31.2069C33.9537 31.2069 34.1076 31.0483 34.3 31.2503Z" fill="#82AFFF"/>
<path d="M34.781 31.2214C34.781 31.2214 34.8679 31.4715 34.781 31.7121C34.781 31.7121 35.1766 31.6881 35.109 31.1204C35.1089 31.1204 34.8967 31.0434 34.781 31.2214Z" fill="#82AFFF"/>
<path d="M34.4296 25.4681C34.3932 25.1714 32.5342 24.9966 32.6496 26.5585C32.6496 26.5585 32.4434 26.5547 32.342 26.7467C32.2406 26.9387 32.0232 26.8916 31.958 26.8227C31.958 26.8227 31.9725 27.1705 32.4035 27.1559C32.4035 27.1559 32.2671 27.2634 32.2864 27.4204C32.3058 27.5774 32.4191 27.7754 32.412 27.9106C32.4049 28.0459 32.2768 28.2343 32.2768 28.2343C32.2768 28.2343 32.6076 28.1208 32.6293 27.8842C32.6511 27.6475 32.5979 27.4495 32.6631 27.3288C32.6631 27.3288 32.6317 27.4954 32.779 27.7055C32.9263 27.9157 32.9335 28.1716 32.8731 28.3309C32.8731 28.3309 33.2401 28.1498 33.1701 27.7997C33.1001 27.4496 33.0252 27.4809 33.059 27.2853C33.059 27.2853 33.4405 27.6741 33.3754 28.005C33.3754 28.005 33.4974 27.8589 33.4865 27.5837C33.4757 27.3084 33.2846 27.1232 33.2846 27.1232C33.2846 27.1232 34.5546 26.4879 34.4296 25.4681Z" fill="#FF4B55"/>
<path d="M39.6176 29.7013C39.6176 29.7013 39.9063 29.6917 40.2044 29.9129C40.5027 30.1342 40.6342 29.9771 40.9325 29.9771C41.2307 29.9771 41.3013 30.2882 41.3013 30.2882C41.3013 30.2882 41.8785 30.4325 41.6476 30.8559C41.5016 31.1236 41.2984 31.118 41.1683 31.0777C41.1748 31.2576 41.1339 31.4553 40.926 31.4909C40.5315 31.5583 40.3583 31.3466 40.445 31.0194C40.445 31.0194 40.3969 31.3562 40.1371 31.3466C39.8773 31.337 39.704 31.1926 39.733 30.8463C39.7619 30.5 39.2999 30.7116 38.9441 30.2017L39.6176 29.7013Z" fill="#FF4B55"/>
<path d="M41.3052 30.9392C41.3052 30.9392 41.4852 31.1765 41.4337 31.4073C41.4337 31.4073 41.8195 31.2855 41.6138 30.7146C41.6138 30.7147 41.3501 30.6442 41.3052 30.9392Z" fill="#82AFFF"/>
<path d="M40.7006 31.2503C40.7006 31.2503 40.8064 31.5486 40.6621 31.8131C40.6621 31.8131 41.1432 31.7987 41.0469 31.207C41.0471 31.207 40.8931 31.0483 40.7006 31.2503Z" fill="#82AFFF"/>
<path d="M40.2205 31.2214C40.2205 31.2214 40.1337 31.4715 40.2205 31.7121C40.2205 31.7121 39.825 31.6881 39.8925 31.1204C39.8924 31.1204 40.1048 31.0435 40.2205 31.2214Z" fill="#82AFFF"/>
<path d="M40.5702 25.4681C40.6066 25.1714 42.4656 24.9966 42.3502 26.5585C42.3502 26.5585 42.5564 26.5547 42.6578 26.7467C42.7592 26.9387 42.9765 26.8916 43.0418 26.8227C43.0418 26.8227 43.0273 27.1705 42.5963 27.1559C42.5963 27.1559 42.7327 27.2634 42.7133 27.4204C42.694 27.5774 42.5804 27.7754 42.5878 27.9106C42.595 28.0459 42.723 28.2343 42.723 28.2343C42.723 28.2343 42.3922 28.1208 42.3705 27.8842C42.3487 27.6475 42.4018 27.4495 42.3367 27.3288C42.3367 27.3288 42.368 27.4954 42.2208 27.7055C42.0735 27.9157 42.0663 28.1716 42.1266 28.3309C42.1266 28.3309 41.7596 28.1498 41.8297 27.7997C41.8997 27.4496 41.9746 27.4809 41.9408 27.2853C41.9408 27.2853 41.5593 27.6741 41.6244 28.005C41.6244 28.005 41.5024 27.8589 41.5133 27.5837C41.5241 27.3084 41.7152 27.1232 41.7152 27.1232C41.7152 27.1232 40.4451 26.4879 40.5702 25.4681Z" fill="#FF4B55"/>
<path d="M41.3307 22.8059C41.26 22.7583 41.1644 22.7781 41.1173 22.8495C41.0199 22.9965 40.8916 23.0825 40.7253 23.1123C40.1744 23.2079 39.3803 22.6655 39.1496 22.4959C38.8153 22.2502 38.4025 22.2075 38.1283 22.3764C38.019 22.4126 37.6846 22.518 37.5 22.518C37.3154 22.518 36.9811 22.4125 36.8717 22.3764C36.5976 22.2075 36.1846 22.2502 35.8504 22.4959C35.6198 22.6655 34.8256 23.2078 34.2747 23.1123C34.1083 23.0825 33.9801 22.9966 33.8827 22.8495C33.8357 22.7783 33.7401 22.7585 33.6693 22.8059C33.5985 22.8527 33.579 22.9484 33.6259 23.019C33.7702 23.2374 33.9703 23.3705 34.2207 23.4152C34.284 23.4267 34.3486 23.4317 34.4145 23.4317C35.002 23.4317 35.6667 23.0126 36.0324 22.7441C36.3044 22.5444 36.6093 22.5448 36.7466 22.6605C36.7813 22.6899 36.8207 22.7363 36.8112 22.7907C36.8062 22.8205 36.7865 22.8473 36.7539 22.8698C36.7618 22.8227 36.7475 22.7724 36.711 22.7357C36.6509 22.6756 36.5535 22.6756 36.4934 22.7357C36.4151 22.8137 36.4066 22.9401 36.4725 23.0431C36.5388 23.1462 36.6817 23.2216 36.8514 23.1588C36.9376 23.1267 37.0066 23.0652 37.0543 22.99C37.2883 22.922 37.5001 22.9215 37.5001 22.9215C37.5001 22.9215 37.7119 22.9219 37.9459 22.99C37.9937 23.0652 38.0626 23.1267 38.1488 23.1588C38.3186 23.2216 38.4613 23.1462 38.5277 23.0431C38.5937 22.9402 38.5852 22.8137 38.5068 22.7357C38.4467 22.6756 38.3493 22.6756 38.2892 22.7357C38.2527 22.7724 38.2385 22.8226 38.2463 22.8698C38.2137 22.8473 38.1942 22.8205 38.189 22.7907C38.1795 22.7363 38.219 22.6899 38.2536 22.6605C38.3909 22.5448 38.6957 22.5445 38.9678 22.7441C39.3335 23.0127 39.9983 23.4317 40.5858 23.4317C40.6516 23.4317 40.7162 23.4267 40.7795 23.4152C41.0299 23.3704 41.23 23.2372 41.3743 23.019C41.421 22.9484 41.4017 22.8527 41.3307 22.8059Z" fill="#FFE15A"/>
<path d="M33.5777 22.9759C33.5777 22.9759 33.5524 22.6318 33.5414 22.5195C33.5304 22.4072 33.3199 22.3239 33.2399 22.4362C33.1601 22.5485 33.1384 22.755 33.5777 22.9759Z" fill="#82AFFF"/>
<path d="M33.6514 22.8654C33.6514 22.8654 33.9553 22.62 33.9166 22.4902C33.878 22.3603 33.7961 22.2931 33.6947 22.3315C33.5933 22.37 33.5452 22.6056 33.6514 22.8654Z" fill="#82AFFF"/>
<path d="M34.2436 22.6729C34.2873 22.6294 34.3015 22.418 34.1809 22.3939C34.0604 22.3699 33.9012 22.5575 33.9108 22.7885C33.9108 22.7884 34.1616 22.7548 34.2436 22.6729Z" fill="#82AFFF"/>
<path d="M34.1177 22.7932C33.9782 22.8379 33.8435 22.9568 33.8435 22.9568C33.8435 22.9568 34.0936 23.1395 34.2668 23.0819C34.4401 23.0243 34.3583 22.7163 34.1177 22.7932Z" fill="#82AFFF"/>
<path d="M38.1301 18.9699C38.1301 18.9699 38.1084 19.2416 37.7063 19.1691C37.7063 19.1691 37.7172 18.8866 38.1301 18.9699Z" fill="#F5F5F5"/>
<path d="M41.4229 22.9759C41.4229 22.9759 41.4482 22.6318 41.4592 22.5195C41.47 22.4072 41.6806 22.3239 41.7606 22.4362C41.8404 22.5485 41.8623 22.755 41.4229 22.9759Z" fill="#82AFFF"/>
<path d="M41.3494 22.8654C41.3494 22.8654 41.0455 22.62 41.0842 22.4902C41.1228 22.3603 41.2047 22.2931 41.3061 22.3315C41.4074 22.37 41.4555 22.6056 41.3494 22.8654Z" fill="#82AFFF"/>
<path d="M40.7572 22.6729C40.7135 22.6294 40.6993 22.418 40.8199 22.3939C40.9404 22.3699 41.0996 22.5575 41.09 22.7885C41.0899 22.7884 40.8392 22.7548 40.7572 22.6729Z" fill="#82AFFF"/>
<path d="M40.882 22.7932C41.0215 22.8379 41.1562 22.9568 41.1562 22.9568C41.1562 22.9568 40.9061 23.1395 40.7329 23.0819C40.5595 23.0243 40.6415 22.7163 40.882 22.7932Z" fill="#82AFFF"/>
<path d="M37.3409 19.61L37.4633 19.7321C37.4839 19.7526 37.5173 19.7526 37.5377 19.7321L37.6601 19.61C37.6933 19.5769 37.6698 19.5203 37.6228 19.5203H37.378C37.3312 19.5203 37.3078 19.5769 37.3409 19.61Z" fill="#464655"/>
<path d="M37.2761 20.1108C37.1856 20.1108 37.1073 20.0784 37.0541 20.0184C36.999 19.9561 36.9756 19.8704 36.9895 19.7832C36.9945 19.754 37.0238 19.7364 37.0512 19.7387C37.0806 19.7436 37.1005 19.7711 37.0959 19.8006C37.0871 19.8557 37.1011 19.9088 37.1346 19.9467C37.1692 19.9855 37.222 20.0035 37.2869 20.0027C37.4222 19.9973 37.4449 19.865 37.4459 19.8596L37.4452 19.6181C37.4452 19.5883 37.4692 19.5643 37.499 19.5643C37.5288 19.5643 37.5528 19.5883 37.5528 19.6181V19.868C37.5397 19.9543 37.4692 20.1032 37.2911 20.1104C37.2863 20.1108 37.2811 20.1108 37.2761 20.1108Z" fill="#464655"/>
<path d="M37.7224 20.1108C37.7174 20.1108 37.7123 20.1108 37.7071 20.1105C37.529 20.1032 37.4585 19.9544 37.446 19.8765L37.4453 19.6182C37.4453 19.5884 37.4693 19.5644 37.4991 19.5644C37.5289 19.5644 37.5529 19.5884 37.5529 19.6182V19.8681C37.5548 19.8735 37.58 19.9977 37.7112 20.0028C37.7779 20.0039 37.8288 19.9863 37.8635 19.9468C37.897 19.9089 37.9111 19.8558 37.9022 19.8007C37.8977 19.7713 37.9175 19.7436 37.9469 19.7388C37.975 19.7353 38.0039 19.7538 38.0086 19.7833C38.0226 19.8705 37.9991 19.9562 37.9441 20.0185C37.8911 20.0783 37.8129 20.1108 37.7224 20.1108Z" fill="#464655"/>
<path d="M39.3472 27.931C39.3472 27.931 38.9624 27.3153 38.5134 27.7258C38.0643 28.1363 37.8976 28.6366 37.3845 28.598C37.1029 28.5769 36.9591 28.4483 36.8844 28.3359C37.0207 28.2237 37.1174 28.0533 37.0125 27.8026C36.7815 27.2509 35.935 27.4178 35.704 28.0207C35.704 28.0207 35.9734 27.1355 35.0369 27.4306C35.0369 27.4306 34.9215 26.8149 34.3827 26.9816C34.0897 27.0723 33.9813 27.2526 33.9411 27.3995C33.8277 27.3731 33.6821 27.3739 33.5488 27.4819L34.2287 29.3164L35.255 29.3292L35.4859 29.6755L36.8329 30.5221L37.0767 31.0353H37.9233C37.9233 31.0353 37.9875 30.5093 38.4365 30.3554C38.8855 30.2014 39.6167 29.8807 39.6937 29.5985C39.7707 29.3163 39.7707 29.3163 39.7707 29.3163L40.5917 29.3291C40.6814 29.2649 41.2845 28.2771 41.2845 28.2771L41.5643 27.005C41.4098 26.9828 39.6416 26.7534 39.3472 27.931Z" fill="#F5F5F5"/>
<path d="M41.5667 26.9946L41.5642 27.0057C41.5717 27.0067 41.5802 27.0081 41.5802 27.0081L41.5667 26.9946Z" fill="#F5F5F5"/>
<path d="M35.9788 29.8982C35.6462 29.7641 35.5275 29.5762 35.4864 29.4761C35.4482 29.3835 35.4557 29.3179 35.4662 29.2939C35.4873 29.2448 35.513 29.2136 35.537 29.2075C35.5595 29.2022 35.588 29.2151 35.5932 29.2183C35.6039 29.2306 35.6097 29.2696 35.5994 29.2793C35.5374 29.3376 35.5346 29.435 35.5928 29.497C35.6513 29.5589 35.7484 29.5616 35.8105 29.5035C35.8738 29.4441 35.9101 29.3608 35.9125 29.2691C35.9155 29.1708 35.8794 29.0728 35.8166 29.0066C35.7536 28.9399 35.6242 28.8791 35.4863 28.9037C35.4579 28.9087 35.4258 28.9203 35.3931 28.9362C35.4147 28.7229 35.3325 28.6137 35.2721 28.5697C35.1706 28.4959 35.0262 28.4943 34.9046 28.5655C34.7803 28.6385 34.7131 28.7663 34.7295 28.8987C34.7401 28.9831 34.8247 29.0337 34.9074 29.0223C34.9917 29.012 35.0581 28.9249 35.0477 28.8407C35.0652 28.8248 35.0881 28.8195 35.0873 28.8157C35.0876 28.816 35.108 28.8497 35.0834 28.9583C35.0451 29.1284 34.9551 29.2331 34.8159 29.2698C34.6425 29.3177 34.4205 29.2447 34.2892 29.1005C34.1067 28.8996 33.7247 27.8338 33.4975 27.1239C34.4712 26.662 34.5909 25.8948 34.5724 25.4672C34.5443 24.816 34.1546 24.1496 33.7213 24.0122C33.5508 23.9584 33.2955 23.9473 33.1101 24.0429C33.0051 24.0977 32.9323 24.1815 32.8995 24.2858C32.8326 24.4986 32.9665 24.6745 33.1266 24.732C33.2924 24.7914 33.4598 24.7199 33.5242 24.5615C33.5561 24.4826 33.5212 24.3925 33.4425 24.3606C33.3633 24.3279 33.2771 24.3662 33.2454 24.4448C33.2389 24.4483 33.2175 24.4403 33.2016 24.4222C33.1901 24.4089 33.1876 24.396 33.1933 24.3784C33.1984 24.362 33.21 24.338 33.2524 24.316C33.353 24.2635 33.5211 24.2715 33.6286 24.3055C33.8765 24.3839 34.2385 24.869 34.2649 25.4802C34.2806 25.8455 34.1698 26.5152 33.2504 26.8967C33.1767 26.9274 33.1387 27.0089 33.1625 27.085C33.2226 27.2771 33.7581 28.9738 34.0614 29.3072C34.2246 29.4866 34.4711 29.5909 34.707 29.5909C34.7708 29.5909 34.834 29.5834 34.8945 29.5674C34.9973 29.5402 35.0831 29.4871 35.1579 29.4205C35.1653 29.477 35.1784 29.5348 35.2022 29.5926C35.2617 29.7375 35.4268 30.007 35.8877 30.1927C36.8201 30.5667 36.9086 30.8168 36.9036 30.9073C36.9007 30.957 36.8723 30.9827 36.8492 30.9957C36.8391 31.0015 36.8291 31.005 36.8206 31.0071C36.855 30.96 36.8613 30.8953 36.8309 30.8408C36.7894 30.7666 36.6958 30.7401 36.6215 30.7816C36.5167 30.8402 36.4437 30.9782 36.5063 31.1291C36.5551 31.2464 36.6695 31.3174 36.8015 31.3174C36.8227 31.3174 36.8444 31.3155 36.8662 31.3116C37.0579 31.2792 37.1995 31.1201 37.2109 30.925C37.2372 30.4584 36.5334 30.1208 35.9788 29.8982Z" fill="#FFE15A"/>
<path d="M39.0211 29.8978C39.3537 29.7638 39.4724 29.5759 39.5136 29.4758C39.5517 29.3832 39.5442 29.3176 39.5338 29.2936C39.5126 29.2445 39.4869 29.2133 39.463 29.2072C39.4404 29.2019 39.4119 29.2147 39.4067 29.218C39.396 29.2303 39.3902 29.2693 39.4006 29.279C39.4626 29.3373 39.4653 29.4347 39.4071 29.4967C39.3486 29.5586 39.2516 29.5613 39.1894 29.5032C39.1262 29.4438 39.0898 29.3604 39.0874 29.2688C39.0846 29.1705 39.1205 29.0725 39.1833 29.0062C39.2464 28.9396 39.3758 28.8788 39.5137 28.9034C39.5421 28.9084 39.5741 28.92 39.6068 28.9358C39.5852 28.7226 39.6675 28.6134 39.7278 28.5693C39.8293 28.4956 39.9737 28.4939 40.0953 28.5651C40.2196 28.6382 40.2868 28.766 40.2704 28.8983C40.2599 28.9828 40.1752 29.0334 40.0926 29.022C40.0082 29.0117 39.9419 28.9246 39.9522 28.8404C39.9348 28.8245 39.9118 28.8191 39.9126 28.8154C39.9123 28.8157 39.892 28.8494 39.9165 28.958C39.9549 29.1281 40.0448 29.2328 40.1841 29.2695C40.3574 29.3174 40.5795 29.2443 40.7107 29.1002C40.8932 28.8993 41.2753 27.8335 41.5024 27.1235C40.5287 26.6617 40.4091 25.8944 40.4275 25.4669C40.4556 24.8156 40.8453 24.1493 41.2786 24.0119C41.4491 23.9581 41.7045 23.947 41.8898 24.0426C41.9948 24.0974 42.0677 24.1812 42.1005 24.2855C42.1674 24.4983 42.0335 24.6742 41.8733 24.7317C41.7075 24.7911 41.5401 24.7195 41.4758 24.5611C41.4438 24.4823 41.4787 24.3922 41.5574 24.3603C41.6366 24.3275 41.7228 24.3659 41.7546 24.4444C41.761 24.448 41.7824 24.44 41.7983 24.4219C41.8098 24.4086 41.8123 24.3957 41.8066 24.378C41.8015 24.3617 41.7899 24.3377 41.7475 24.3157C41.647 24.2632 41.4788 24.2712 41.3714 24.3052C41.1234 24.3836 40.7614 24.8687 40.735 25.4799C40.7193 25.8452 40.8302 26.5149 41.7495 26.8964C41.8232 26.9271 41.8612 27.0086 41.8374 27.0847C41.7773 27.2768 41.2419 28.9734 40.9386 29.3068C40.7754 29.4863 40.5288 29.5906 40.293 29.5906C40.2291 29.5906 40.1659 29.5831 40.1055 29.5671C40.0026 29.5398 39.9168 29.4868 39.8421 29.4202C39.8347 29.4767 39.8216 29.5345 39.7977 29.5923C39.7383 29.7372 39.5731 30.0066 39.1122 30.1924C38.1799 30.5664 38.0913 30.8165 38.0964 30.907C38.0993 30.9566 38.1276 30.9824 38.1508 30.9954C38.1608 31.0012 38.1708 31.0047 38.1793 31.0068C38.1449 30.9597 38.1387 30.895 38.169 30.8405C38.2105 30.7663 38.3041 30.7397 38.3784 30.7812C38.4832 30.8398 38.5562 30.9779 38.4936 31.1288C38.4448 31.2461 38.3305 31.3171 38.1984 31.3171C38.1772 31.3171 38.1556 31.3152 38.1337 31.3113C37.942 31.2789 37.8004 31.1198 37.7891 30.9247C37.7626 30.4581 38.4665 30.1205 39.0211 29.8978Z" fill="#FFE15A"/>
</g>
<defs>
<clipPath id="clip0_108_50122">
<rect width="50" height="50" fill="white" transform="translate(0 0.160156)"/>
</clipPath>
</defs>
</svg>
