<svg width="51" height="51" viewBox="0 0 51 51" fill="none" xmlns="http://www.w3.org/2000/svg">
<g clip-path="url(#clip0_108_50090)">
<path d="M49.5646 8.78077H1.28887C0.812792 8.78077 0.426758 9.16681 0.426758 9.64288V40.6772C0.426758 41.1533 0.812792 41.5393 1.28887 41.5393H49.5647C50.0407 41.5393 50.4268 41.1533 50.4268 40.6772V9.64288C50.4267 9.16681 50.0406 8.78077 49.5646 8.78077Z" fill="#FF6E55"/>
<path d="M0.744726 41.331L50.1086 8.98917C49.9592 8.86485 49.7741 8.78077 49.5646 8.78077H1.28887C0.812792 8.78077 0.426758 9.16681 0.426758 9.64288V40.6772C0.426758 40.9437 0.554785 41.1729 0.744726 41.331Z" fill="#FFE15A"/>
<path d="M27.9182 17.5454C27.485 17.6382 26.8044 17.4062 26.8044 17.4062C26.9446 17.6477 27.3196 17.8103 27.6578 17.9126C27.3848 17.9399 27.0733 17.9553 26.7269 17.9477C25.3347 17.9166 24.6851 18.8294 24.6851 18.8294C25.1801 18.52 25.6905 18.52 26.4485 18.6284C27.2065 18.7367 28.8153 18.2572 28.8153 18.2572L28.9546 17.6384C28.9546 17.6383 28.3514 17.4527 27.9182 17.5454Z" fill="#FFF5DC"/>
<path d="M29.3491 14.6451C29.3491 14.6451 30.069 14.7976 30.7995 15.2168C30.7556 15.2399 30.7135 15.2681 30.6735 15.3012C30.4373 15.1838 30.1521 15.0888 29.7821 15.0511C29.7821 15.0511 30.1651 15.1507 30.5329 15.4388C30.4377 15.551 30.3592 15.6787 30.2988 15.7921C29.4895 14.9244 28.6143 15.5036 28.6143 15.5036C29.6999 15.421 29.9561 16.1186 30.0172 16.4555C29.807 16.315 29.6089 16.1992 29.4232 16.1049C29.4504 16.0845 29.4642 16.0662 29.4961 16.0452C29.4961 16.0452 29.4281 16.0479 29.3338 16.062C27.9483 15.396 27.2685 15.9213 27.2685 15.9213C27.8838 15.8461 28.4525 16.0061 28.9036 16.2053C28.7054 16.3195 28.5711 16.5206 28.6819 16.8624C27.9048 16.6509 26.9283 16.4426 26.4486 16.571C25.5823 16.8031 25.8608 17.6075 25.8608 17.6075C25.8608 17.6075 25.8763 17.0661 26.4641 16.9422C26.9041 16.8496 29.0938 17.5456 29.0938 17.5456L29.8053 17.2052L29.5114 16.9577C29.5114 16.9577 28.9466 16.7309 29.1888 16.3413C29.5938 16.5572 29.8517 16.7719 29.8517 16.7719L30.0258 16.5175C30.0343 16.5833 30.0373 16.6328 30.0373 16.6328L30.5323 16.4163L30.6406 16.2615C30.684 16.0267 30.7557 15.8597 30.8382 15.7347C30.9814 15.9147 31.0998 16.137 31.1589 16.4122L31.6075 16.4586C31.6075 16.4586 31.5347 15.9401 31.0327 15.5277C31.0773 15.496 31.1212 15.4698 31.1645 15.4523C31.495 15.6895 31.8033 15.9861 32.0174 16.3582L32.8449 16.3465C32.8451 16.3467 31.4838 14.8307 29.3491 14.6451Z" fill="#FFF5DC"/>
<path d="M37.2461 22.9905C37.8185 22.9905 38.2826 22.5264 38.2826 21.954C38.2826 21.3816 37.8185 20.9176 37.2461 20.9176C36.6737 20.9176 36.2097 21.3816 36.2097 21.954C36.2097 22.5264 36.6737 22.9905 37.2461 22.9905Z" fill="#FFF5DC"/>
<path d="M34.8265 32.0681C35.5944 32.0681 36.2169 31.4456 36.2169 30.6776C36.2169 29.9097 35.5944 29.2872 34.8265 29.2872C34.0586 29.2872 33.436 29.9097 33.436 30.6776C33.436 31.4456 34.0586 32.0681 34.8265 32.0681Z" fill="#FFF5DC"/>
<path d="M24.2268 31.1059C24.8354 31.1059 25.3289 30.6125 25.3289 30.0038C25.3289 29.3952 24.8354 28.9018 24.2268 28.9018C23.6182 28.9018 23.1248 29.3952 23.1248 30.0038C23.1248 30.6125 23.6182 31.1059 24.2268 31.1059Z" fill="#FFF5DC"/>
<path d="M21.6916 36.5097C22.3944 36.5097 22.9641 35.94 22.9641 35.2372C22.9641 34.5344 22.3944 33.9647 21.6916 33.9647C20.9889 33.9647 20.4192 34.5344 20.4192 35.2372C20.4192 35.94 20.9889 36.5097 21.6916 36.5097Z" fill="#FFF5DC"/>
<path d="M33.8119 19.2472C33.8119 19.2472 36.1949 20.0964 36.7703 20.3841C37.5825 20.7902 38.8587 19.6068 39.7519 20.5234C39.7519 20.5234 39.5972 19.9123 38.8548 19.8659C38.8548 19.8659 38.8703 19.2626 38.1742 19.2937C38.1742 19.2937 38.6847 19.6649 38.3908 19.928C38.3908 19.928 38.1897 19.4793 37.6173 19.5568C37.6173 19.5568 38.0504 19.7269 37.9422 19.9899C37.9422 19.9899 37.2538 20.3224 36.9444 20.1059C36.6351 19.8893 34.191 18.5705 33.4175 18.5396L33.8119 19.2472Z" fill="#FFF5DC"/>
<path d="M33.2017 19.9896C33.2017 19.9896 33.7121 20.1404 34.4547 20.9177C34.7987 21.2779 35.6844 21.3006 35.5452 20.6044C35.406 19.9083 33.689 19.4791 33.5033 19.4791C33.3178 19.4791 33.2017 19.9896 33.2017 19.9896Z" fill="#F5F5F5"/>
<path d="M36.9216 18.4582L35.947 18.7831C35.947 18.7831 36.0553 19.4445 35.4983 19.7345C35.1554 19.9132 34.9261 20.3764 34.9414 20.7167C34.9414 20.7167 35.2663 20.2681 35.7303 20.0206C35.8395 19.9623 35.9403 19.9112 36.0321 19.8594C36.0137 20.0913 36.0088 20.3348 36.0397 20.5466C36.1325 21.1808 35.9314 21.3974 35.9314 21.3974C35.9314 21.3974 36.4729 20.9797 36.4109 20.2991C36.3871 20.0376 36.43 19.8524 36.4966 19.7117C36.5445 20.1857 36.7975 20.4075 36.7975 20.4075C36.6119 20.0363 36.9986 19.634 37.1534 19.3092C37.3083 18.9841 36.9216 18.4582 36.9216 18.4582Z" fill="#FFF5DC"/>
<path d="M39.3848 17.1124C39.0011 16.9819 38.6307 17.2168 38.4102 17.4141C38.3164 17.4981 38.0691 17.5407 37.8161 17.5637C37.985 17.4441 38.1649 17.303 38.2595 17.1821C38.4683 16.9153 38.8512 16.8689 39.176 16.7645C39.501 16.6601 39.6402 16.2424 39.6402 16.2424C39.6402 16.2424 39.4662 16.4977 38.9789 16.4744C38.4916 16.4512 38.3292 16.4279 38.0043 16.7761C37.9044 16.8831 37.7645 16.9658 37.6195 17.0323C37.6226 16.8803 37.6358 16.6868 37.6794 16.5557C37.7606 16.312 38.1318 16.1149 38.1551 15.6275C38.1782 15.1402 38.2015 15.1867 38.48 14.8966C38.7584 14.6066 38.8396 14.0612 38.7584 14.2353C38.6771 14.4093 38.3059 14.6182 37.9927 14.9082C37.6794 15.1983 37.8999 15.5231 37.7374 15.7783C37.575 16.0336 37.1922 16.0916 37.1688 16.5672C37.1457 17.0429 36.8092 17.3213 36.8092 17.3213C36.8092 17.3213 35.9854 17.7737 36.9716 18.1335C37.9578 18.4932 38.7555 17.4926 39.2455 17.5187C40.336 17.5767 40.626 17.217 40.626 17.217C40.4406 17.2169 39.9649 17.3097 39.3848 17.1124Z" fill="#FFF5DC"/>
<path d="M27.4236 24.7541C27.3618 24.7076 26.2944 23.532 25.9385 23.3618L26.0159 23.6557C26.0159 23.6557 25.7838 23.6402 25.3662 23.1298C24.9485 22.6193 24.6391 22.4801 24.6391 22.4801C24.6391 22.4801 24.9331 22.9442 24.9175 23.2381C24.9175 23.2381 24.2833 23.1916 23.6027 23.5165C23.6027 23.5165 23.2933 22.9132 23.0304 22.805C23.0304 22.805 23.1232 23.4392 22.9067 23.5938C22.6901 23.7486 24.9486 24.8159 25.258 24.8469C25.5673 24.8778 27.4236 24.7541 27.4236 24.7541Z" fill="#FFF5DC"/>
<path d="M28.8313 22.4492C28.8094 22.4437 28.6952 22.524 28.5479 22.6292C28.4829 22.2535 28.3519 21.494 28.3519 21.4592C28.3519 21.4127 27.2999 19.9432 27.2689 19.8813C27.2684 19.8803 27.2649 19.8802 27.2642 19.8792C27.3663 19.6321 27.4764 19.2114 26.8513 19.541C26.0004 19.9897 25.6602 21.0261 25.6602 21.0261C25.8541 20.8237 26.1926 20.6692 26.4627 20.5688C26.4683 20.695 26.4692 20.8448 26.2943 21.1034C25.9385 21.6293 26.1395 21.8305 26.1395 21.8305C26.418 21.351 27.0367 21.3045 27.0367 21.3045C26.9439 21.8768 27.2687 22.2016 27.2687 22.2016L27.5316 21.8923C27.4992 22.3351 27.7362 22.8103 27.8836 23.06C27.8254 23.0882 27.7723 23.1097 27.7328 23.1142C27.4697 23.1453 27.0522 23.3463 27.0522 23.3463C27.0522 23.3463 27.3907 23.2741 27.5829 23.4225C27.775 23.5711 28.0809 23.6846 28.2468 23.6497C28.2468 23.6497 28.1681 24.0515 28.2555 24.2C28.2555 24.2 28.037 24.1387 27.7837 24.1475C27.5304 24.1563 27.346 23.9805 27.346 23.9805C27.346 23.9805 27.8102 24.6456 28.1504 24.7848C28.4906 24.9241 29.0785 24.4136 29.0785 24.4136C29.0785 24.4136 28.8933 22.4645 28.8313 22.4492Z" fill="#FFF5DC"/>
<path d="M20.8338 32.1483C20.8338 32.1483 20.5398 32.1793 20.2615 32.597L20.1378 32.1639C20.1378 32.1639 19.7975 32.4114 19.4263 32.2566C19.4263 32.2566 19.7666 32.1793 19.8284 31.8699C19.8902 31.5605 20.0141 31.5296 20.0141 31.5296C20.0141 31.5296 19.782 31.282 19.5346 31.2975C19.5346 31.2975 20.2151 30.9417 20.5865 31.282C20.9574 31.6224 20.8338 32.1483 20.8338 32.1483Z" fill="#FFF5DC"/>
<path d="M29.0166 28.7297C29.0166 28.7297 28.7227 28.7606 28.4444 29.1783L28.3207 28.7451C28.3207 28.7451 27.9803 28.9927 27.6091 28.8379C27.6091 28.8379 27.9495 28.7605 28.0113 28.4512C28.0731 28.1418 28.1969 28.1108 28.1969 28.1108C28.1969 28.1108 27.9649 27.8633 27.7174 27.8788C27.7174 27.8788 28.398 27.5229 28.7694 27.8633C29.1405 28.2037 29.0166 28.7297 29.0166 28.7297Z" fill="#FFF5DC"/>
<path d="M34.0344 24.3288C34.0344 24.3288 33.8909 24.5872 34.0729 25.055L33.6472 24.9074C33.6472 24.9074 33.6543 25.3282 33.3145 25.5432C33.3145 25.5432 33.4466 25.2202 33.229 24.9918C33.0113 24.7634 33.057 24.6443 33.057 24.6443C33.057 24.6443 32.7211 24.6921 32.5916 24.9036C32.5916 24.9036 32.6913 24.1421 33.1831 24.0337C33.675 23.9254 34.0344 24.3288 34.0344 24.3288Z" fill="#FFF5DC"/>
<path d="M35.5242 29.5566L35.8236 29.7351C35.7365 29.6602 35.6331 29.6041 35.5242 29.5566Z" fill="#FF6E55"/>
<path d="M18.6376 31.05C18.6376 31.05 17.2608 32.9836 15.683 33.4012L16.2399 32.6897C16.2399 32.6897 15.4974 33.3394 14.6621 33.4786L15.6676 32.3184C15.6676 32.3184 13.4246 34.4068 10.5474 34.8399C10.5474 34.8399 12.7749 33.4323 13.2235 32.9372C13.2235 32.9372 12.1406 33.3704 11.1661 33.3858C11.1661 33.3858 13.966 32.3029 14.4301 31.8699C14.4301 31.8699 13.3163 32.1175 12.6202 31.8854C12.6202 31.8854 15.0334 31.1893 15.3736 31.2821C15.3736 31.2821 13.9813 30.7252 13.1461 30.7871C13.1461 30.7871 14.5692 30.4468 16.2244 30.7871L15.8685 30.4004C15.8685 30.4004 16.8122 30.1528 17.7403 30.091C18.6684 30.0292 18.2045 29.9517 18.2045 29.9517L18.3128 29.6424C18.3128 29.6424 17.7095 29.7197 17.2145 29.6424C17.2145 29.6424 18.6996 28.807 19.1173 28.4358C19.5349 28.0646 19.2565 28.2347 19.2565 28.2347C19.2565 28.2347 18.483 28.4976 18.2046 28.5441C18.2046 28.5441 18.9007 27.7397 19.1173 27.2138C19.1173 27.2138 18.483 27.4613 17.9416 27.2138C17.9416 27.2138 18.5913 27.0281 18.9162 26.7033C19.2411 26.3784 19.7206 25.5702 19.7206 25.5702L19.1637 25.8139C19.1637 25.8139 19.651 24.9785 20.0803 24.7697C20.0803 24.7697 19.3493 24.8277 19.1174 24.6537C19.1174 24.6537 19.8947 24.4681 20.1267 24.2825C20.3588 24.0969 20.8693 23.6096 21.3913 23.7952C21.3913 23.7952 22.1222 23.1223 21.8786 22.6814C21.8786 22.6814 22.3543 22.7162 22.5979 23.0063C22.8416 23.2964 23.2244 23.54 23.2244 23.54L21.2366 25.0946L19.7207 30.0137L18.6376 31.05Z" fill="#FFF5DC"/>
<path d="M38.1135 21.7685C38.686 22.6966 37.9742 22.7895 37.9742 22.7895C37.8659 21.9077 37.1235 22.0161 37.1235 22.0161L37.3245 22.6658C36.087 22.8206 36.1798 21.5829 36.1798 21.5829C35.9942 21.7377 35.6848 22.3718 35.6848 22.3718C35.6848 22.3718 32.3435 23.4856 30.085 20.1752C30.085 20.1752 30.0232 19.5873 30.2088 19.3088L28.8165 18.257L27.0221 18.5045C27.0221 18.5045 26.3106 20.1132 27.1769 21.1033C28.0432 22.0933 29.0641 23.4856 28.8785 24.1353C28.7684 24.5204 28.441 24.6772 27.9864 24.6444C27.674 24.6219 27.3017 24.5099 26.8986 24.3209C25.9085 23.8568 23.4954 22.8669 21.7628 23.6712C20.0303 24.4756 19.8423 25.8675 19.5044 26.9507C19.2051 27.9095 18.5412 30.3573 13.8111 32.5906C13.5851 32.6973 13.7001 33.0407 13.9425 32.9805C15.9929 32.4707 18.7883 31.6213 19.6512 30.6169L20.3473 30.64L20.092 31.7074C20.092 31.7074 20.997 31.9858 21.1362 33.3085C21.1362 33.3085 19.5506 33.7416 20.4478 35.1029C20.4478 35.1029 20.5871 34.1129 21.6853 34.0665C21.6853 34.0665 21.9329 34.3914 22.4742 34.4377C22.4742 34.4377 22.7526 34.8864 22.6134 35.2576C22.6134 35.2576 23.7117 34.9173 22.7835 33.6023C22.7835 33.6023 23.82 33.3549 23.9592 34.6543C23.9592 34.6543 24.6245 32.5505 22.25 32.7052C22.25 32.7052 22.25 32.334 21.6235 31.661C21.6235 31.661 21.4689 31.2819 21.6235 30.7561C21.6701 30.5978 21.7122 30.4335 21.7473 30.2661C21.8763 30.3377 22.0747 30.4223 22.335 30.4314C22.335 30.4314 22.7217 31.0655 23.8665 30.9572C23.8665 30.9572 23.0311 30.5706 23.1084 29.828C23.1858 29.0855 24.1604 28.6833 24.5781 28.9772C24.5781 28.9772 24.4698 28.0025 22.9539 28.6368C22.9539 28.6368 22.9539 27.9098 23.7583 27.8635C23.7583 27.8635 22.4589 26.8734 22.1649 28.7607L21.6272 28.895C21.3645 28.1668 21.0317 26.476 22.5052 25.8602C24.0598 25.2105 25.6841 26.6724 28.5614 26.8115C28.5614 26.8115 28.283 28.5054 29.2111 28.9231C30.1392 29.3407 32.4131 29.7353 32.4131 29.7353C32.39 32.1793 34.1688 31.8544 34.1688 31.8544C33.3054 31.337 33.3054 30.3499 33.8383 29.7733C34.5646 28.9876 35.824 29.7351 35.824 29.7351C35.8062 28.5454 34.1378 28.7295 34.1378 28.7295C34.4007 27.9562 35.4371 27.7549 35.4371 27.7549C33.9986 27.229 32.8075 28.7837 32.8075 28.7837L30.371 28.0876C30.371 28.0876 30.2783 27.6003 30.8583 26.9507C31.4384 26.3011 31.9257 25.2104 31.7633 24.0503C31.7633 24.0503 32.4363 23.5784 33.2715 24.0426C34.1069 24.5068 35.9012 23.4857 35.9012 23.4857C36.6747 24.4756 38.5154 24.2901 38.7629 23.099C39.0108 21.9077 38.1135 21.7685 38.1135 21.7685Z" fill="#F5F5F5"/>
<path d="M35.5612 18.9223C35.101 18.6538 34.2772 18.4273 33.9988 19.046C33.7204 19.6648 33.411 20.2835 32.4519 20.2526C31.4928 20.2216 31.0596 21.0414 30.3945 20.8095C30.3945 20.8095 31.0132 20.6084 31.1371 20.3145C31.2608 20.0205 31.7558 19.4791 31.7558 19.4791L31.694 18.9222C31.694 18.9222 30.5493 18.9839 30.2089 19.3088C29.8686 19.6337 28.5847 19.0305 28.5847 19.0305L28.7395 17.6847C28.7395 17.6847 29.7294 16.1688 31.1063 16.2771C32.483 16.3854 32.7151 16.0295 33.3802 16.076C34.0454 16.1225 34.3857 16.8031 35.0972 16.9578C35.8087 17.1125 37.2319 16.8185 37.4175 17.2517C37.6032 17.6848 37.0617 17.855 36.9225 18.4582C36.7832 19.0615 36.4893 19.4638 35.5612 18.9223Z" fill="#F5F5F5"/>
<path d="M31.5394 18.5356C31.5394 18.5356 30.8742 18.9842 30.3173 18.7985C29.7604 18.6129 29.2654 18.6748 28.6931 18.8603C28.6931 18.8603 29.7451 18.7366 30.1782 19.1387C30.6113 19.5409 31.7096 19.278 31.787 19.1078L31.5394 18.5356Z" fill="#FFF5DC"/>
<path d="M31.8798 19.5719C31.8798 19.5719 31.2301 20.0361 30.5805 19.9123C29.9308 19.7885 29.343 20.0515 29.343 20.0515C29.343 20.0515 29.8225 19.5256 30.4722 19.6184C31.1219 19.7112 31.3539 19.077 31.3539 19.077L31.7871 19.108L31.8798 19.5719Z" fill="#FFF5DC"/>
<path d="M32.406 19.8664C32.8845 19.8664 33.2724 19.4785 33.2724 19C33.2724 18.5215 32.8845 18.1336 32.406 18.1336C31.9275 18.1336 31.5396 18.5215 31.5396 19C31.5396 19.4785 31.9275 19.8664 32.406 19.8664Z" fill="#FFF5DC"/>
<path d="M31.8952 18.35C31.8952 18.35 31.5548 17.9169 30.7041 18.0871C29.8533 18.2572 29.6521 17.9478 29.6521 17.9478C29.6521 17.9478 30.0542 18.5666 30.6885 18.4892C31.3228 18.4119 31.5857 18.8451 31.5857 18.8451L31.8952 18.35Z" fill="#FFF5DC"/>
<path d="M34.7573 17.2669C34.8338 17.1615 34.93 17.061 35.0614 16.9845C35.139 16.9394 35.2188 16.9109 35.2978 16.8875C35.3153 16.77 35.2981 16.6433 35.2311 16.5283C35.0849 16.2773 34.7809 16.182 34.552 16.3154C34.3231 16.4487 34.2562 16.7602 34.4024 17.0112C34.4845 17.152 34.6169 17.2369 34.7573 17.2669Z" fill="#FFF5DC"/>
<path d="M33.9975 18.2633C34.041 18.1406 34.1048 18.0171 34.2092 17.9064C34.2708 17.8412 34.3393 17.7914 34.4083 17.7464C34.3919 17.6289 34.3396 17.5122 34.2427 17.4207C34.0315 17.2214 33.7128 17.216 33.5311 17.4085C33.3493 17.6011 33.3732 17.9189 33.5845 18.1182C33.7034 18.2305 33.8543 18.2745 33.9975 18.2633Z" fill="#FFF5DC"/>
</g>
<defs>
<clipPath id="clip0_108_50090">
<rect width="50" height="50" fill="white" transform="translate(0.427734 0.160156)"/>
</clipPath>
</defs>
</svg>
