<svg width="51" height="51" viewBox="0 0 51 51" fill="none" xmlns="http://www.w3.org/2000/svg">
<g clip-path="url(#clip0_108_50026)">
<path d="M0.720947 30.6198H50.7209V40.6772C50.7209 41.1533 50.3348 41.5393 49.8587 41.5393H1.58306C1.10698 41.5393 0.720947 41.1533 0.720947 40.6772V30.6198Z" fill="#73AF00"/>
<path d="M1.58306 8.78077H49.8588C50.3349 8.78077 50.7209 9.16681 50.7209 9.64288V19.7003H0.720947V9.64288C0.720947 9.16681 1.10698 8.78077 1.58306 8.78077Z" fill="#FF4B55"/>
<path d="M50.7209 19.7001H0.720947V30.619H50.7209V19.7001Z" fill="#FFE15A"/>
<path d="M24.6071 20.273C24.6071 20.273 24.585 20.3008 24.5434 20.3528C24.5087 20.4009 24.4567 20.4747 24.3998 20.573C24.288 20.7682 24.1706 21.0708 24.1674 21.4315C24.1662 21.6074 24.2026 21.821 24.2625 21.9908C24.3276 22.1783 24.4355 22.3576 24.5719 22.5178C24.7085 22.6794 24.891 22.804 25.0862 22.896C25.183 22.9451 25.2893 22.9733 25.3946 22.9993C25.4469 23.0152 25.5025 23.016 25.5562 23.0266C25.5831 23.0316 25.611 23.0294 25.6383 23.0315L25.6795 23.0334L25.7001 23.0345L25.7104 23.0351L25.7155 23.0353L25.7181 23.0354C25.7098 23.0357 25.7402 23.0351 25.7001 23.0361C25.7669 23.0322 25.848 23.0317 25.903 23.025C25.9511 23.0138 25.9915 23.0157 26.0466 22.9994C26.1521 22.9734 26.2582 22.9452 26.355 22.8961C26.5501 22.8041 26.7327 22.6795 26.8693 22.5179C27.0058 22.3577 27.1137 22.1784 27.1787 21.9909C27.241 21.8002 27.2743 21.6177 27.2738 21.4308C27.2708 21.0716 27.1533 20.7679 27.0415 20.5729C26.9851 20.475 26.9328 20.4007 26.8956 20.3506C26.8569 20.3013 26.8363 20.2748 26.8363 20.2748L26.8312 20.2683C26.794 20.2208 26.8024 20.1523 26.8498 20.1151C26.8873 20.0858 26.9381 20.085 26.9759 20.1092C26.9759 20.1092 27.0077 20.1296 27.0674 20.1678C27.1238 20.2102 27.2113 20.27 27.3056 20.3669C27.4947 20.5542 27.7402 20.8878 27.8288 21.3726C27.8727 21.6046 27.8774 21.8853 27.817 22.1611C27.7584 22.4398 27.6396 22.728 27.4477 22.9802C27.2592 23.2335 27.006 23.4575 26.7049 23.6086C26.5564 23.6878 26.3947 23.7453 26.2289 23.7853C26.1494 23.8087 26.0485 23.8184 25.9587 23.8325C25.8745 23.8418 25.8147 23.842 25.7413 23.8472L25.7128 23.8473L25.7048 23.8469L25.6888 23.8461L25.6567 23.8444L25.5926 23.841C25.5499 23.8376 25.507 23.8382 25.4648 23.8309C25.3805 23.816 25.2947 23.8091 25.2125 23.7853C25.0467 23.7454 24.885 23.6878 24.7365 23.6086C24.4355 23.4575 24.1822 23.2334 23.9938 22.9802C23.802 22.7279 23.6831 22.4397 23.6244 22.1611C23.5617 21.8643 23.5695 21.6146 23.6127 21.3717C23.7011 20.8884 23.9468 20.5536 24.1359 20.3667C24.2297 20.2702 24.3175 20.2098 24.3764 20.1654C24.433 20.1299 24.4633 20.1108 24.4633 20.1108C24.5147 20.0786 24.5824 20.094 24.6147 20.1454C24.6401 20.1862 24.6355 20.2375 24.6071 20.273Z" fill="#73AF00"/>
<path d="M25.5041 28.8579V30.2222C25.5041 30.3584 25.3396 30.4265 25.2434 30.3303L25.1683 30.2552C25.1059 30.1928 25.0708 30.1083 25.0708 30.0201V28.8579H25.5041Z" fill="#FF4B55"/>
<path d="M24.8542 28.6413V29.6316C24.8542 29.6911 24.8779 29.7482 24.9201 29.7903L25.0714 29.9412V28.6413H24.8542Z" fill="#FFE15A"/>
<path d="M24.6377 28.6413V29.1727C24.6377 29.2486 24.6679 29.3214 24.7216 29.375L24.8549 29.5079V28.6413H24.6377Z" fill="#73AF00"/>
<path d="M25.9375 28.8579V30.2222C25.9375 30.3584 26.1021 30.4265 26.1982 30.3303L26.2733 30.2552C26.3357 30.1928 26.3708 30.1083 26.3708 30.0201V28.8579H25.9375Z" fill="#FF4B55"/>
<path d="M26.588 28.6413V29.6316C26.588 29.6911 26.5643 29.7482 26.5221 29.7903L26.3708 29.9412V28.6413H26.588Z" fill="#FFE15A"/>
<path d="M26.8046 28.6413V29.1727C26.8046 29.2486 26.7743 29.3214 26.7207 29.375L26.5874 29.5079V28.6413H26.8046Z" fill="#73AF00"/>
<path d="M26.8039 24.7416L29.187 23.0084V26.5726C29.187 27.5955 28.3578 28.4246 27.3351 28.4246C26.988 28.4246 26.6478 28.327 26.3535 28.1431L25.0708 27.3414V24.7115L26.8039 24.7416Z" fill="#FF4B55"/>
<path d="M28.3205 23.6387V26.1394C28.3205 27.1623 27.4913 27.9914 26.4686 27.9914C26.3147 27.9914 26.1632 27.9692 26.0154 27.9318L25.0708 27.3414V24.7115L26.804 24.7416L28.3205 23.6387Z" fill="#FFE15A"/>
<path d="M27.6706 24.1113V25.7257C27.6706 26.7485 26.8414 27.5776 25.8187 27.5776C25.6648 27.5776 25.5132 27.5555 25.3655 27.5181L25.0708 27.3339V24.7115L26.804 24.7416L27.6706 24.1113Z" fill="#73AF00"/>
<path d="M29.317 22.6184L30.2703 22.1419L29.577 23.0084H29.187L29.317 22.6184Z" fill="#F5F5F5"/>
<path d="M28.104 25.8248L30.4871 24.0916V27.6559C30.4871 28.6787 29.6579 29.5078 28.6351 29.5078C28.288 29.5078 27.9479 29.4102 27.6536 29.2264L26.3708 28.4246V25.7948L28.104 25.8248Z" fill="#FF4B55"/>
<path d="M28.9706 25.1946V26.809C28.9706 27.8318 28.1415 28.6609 27.1187 28.6609C26.9649 28.6609 26.8133 28.6387 26.6656 28.6013L26.3708 28.4172V25.7948L28.1041 25.8249L28.9706 25.1946Z" fill="#73AF00"/>
<path d="M30.617 23.7017L31.5704 23.225L30.877 24.0916H30.4871L30.617 23.7017Z" fill="#F5F5F5"/>
<path d="M27.454 25.3915L29.8371 23.6583V27.2225C29.8371 28.2454 29.008 29.0745 27.9852 29.0745C27.6381 29.0745 27.298 28.9769 27.0037 28.793L25.7209 27.9913V25.3614L27.454 25.3915Z" fill="#FF4B55"/>
<path d="M28.9707 24.2885V26.7892C28.9707 27.8121 28.1415 28.6412 27.1188 28.6412C26.965 28.6412 26.8134 28.619 26.6657 28.5816L25.7209 27.9913V25.3614L27.4541 25.3915L28.9707 24.2885Z" fill="#FFE15A"/>
<path d="M28.3207 24.7613V26.3757C28.3207 27.3985 27.4915 28.2276 26.4688 28.2276C26.315 28.2276 26.1634 28.2055 26.0157 28.1681L25.7209 27.984V25.3616L27.4541 25.3917L28.3207 24.7613Z" fill="#73AF00"/>
<path d="M29.9671 23.2683L30.9204 22.7917L30.227 23.6583H29.8372L29.9671 23.2683Z" fill="#F5F5F5"/>
<path d="M24.6375 24.7416L22.2544 23.0084V26.5726C22.2544 27.5955 23.0836 28.4246 24.1063 28.4246C24.4534 28.4246 24.7936 28.327 25.0879 28.1431L26.3706 27.3414V24.7115L24.6375 24.7416Z" fill="#FF4B55"/>
<path d="M23.1211 23.6387V26.1394C23.1211 27.1623 23.9503 27.9914 24.973 27.9914C25.1269 27.9914 25.2784 27.9692 25.4262 27.9318L26.3708 27.3414V24.7115L24.6376 24.7416L23.1211 23.6387Z" fill="#FFE15A"/>
<path d="M23.771 24.1113V25.7257C23.771 26.7485 24.6002 27.5776 25.6229 27.5776C25.7768 27.5776 25.9284 27.5555 26.0761 27.5181L26.3708 27.3339V24.7115L24.6376 24.7416L23.771 24.1113Z" fill="#73AF00"/>
<path d="M22.1244 22.6184L21.1711 22.1419L21.8645 23.0084H22.2543L22.1244 22.6184Z" fill="#F5F5F5"/>
<path d="M23.3377 25.8248L20.9546 24.0916V27.6559C20.9546 28.6787 21.7838 29.5078 22.8065 29.5078C23.1536 29.5078 23.4937 29.4102 23.7881 29.2264L25.0708 28.4246V25.7948L23.3377 25.8248Z" fill="#FF4B55"/>
<path d="M22.4712 25.1946V26.809C22.4712 27.8318 23.3004 28.6609 24.3231 28.6609C24.4769 28.6609 24.6285 28.6387 24.7763 28.6013L25.071 28.4172V25.7948L23.3378 25.8249L22.4712 25.1946Z" fill="#73AF00"/>
<path d="M20.8246 23.7017L19.8713 23.225L20.5647 24.0916H20.9545L20.8246 23.7017Z" fill="#F5F5F5"/>
<path d="M23.9876 25.3915L21.6045 23.6583V27.2225C21.6045 28.2454 22.4337 29.0745 23.4564 29.0745C23.8035 29.0745 24.1436 28.9769 24.438 28.793L25.7207 27.9913V25.3614L23.9876 25.3915Z" fill="#FF4B55"/>
<path d="M22.4712 24.2885V26.7892C22.4712 27.8121 23.3004 28.6412 24.3231 28.6412C24.4769 28.6412 24.6285 28.619 24.7763 28.5816L25.7209 27.9912V25.3613L23.9877 25.3914L22.4712 24.2885Z" fill="#FFE15A"/>
<path d="M23.1211 24.7613V26.3757C23.1211 27.3985 23.9503 28.2276 24.973 28.2276C25.1269 28.2276 25.2784 28.2055 25.4262 28.1681L25.7209 27.9839V25.3615L23.9877 25.3916L23.1211 24.7613Z" fill="#73AF00"/>
<path d="M22.8837 28.6126L22.5981 28.3269C22.4249 28.1538 22.4295 27.8715 22.6084 27.7041L27.3367 23.2611L27.9495 23.8739L23.5065 28.6021C23.3392 28.7811 23.057 28.7859 22.8837 28.6126Z" fill="#FFBE5A"/>
<path d="M22.7415 28.6864C22.8611 28.6864 22.9581 28.5894 22.9581 28.4698C22.9581 28.3501 22.8611 28.2532 22.7415 28.2532C22.6219 28.2532 22.5249 28.3501 22.5249 28.4698C22.5249 28.5894 22.6219 28.6864 22.7415 28.6864Z" fill="#FFBE5A"/>
<path d="M27.7964 23.4149C27.6272 23.2458 27.4215 23.1772 27.3369 23.2618C27.2523 23.3464 27.3209 23.5521 27.4901 23.7213C27.6592 23.8904 27.865 23.959 27.9495 23.8744C28.0341 23.7898 27.9656 23.5841 27.7964 23.4149Z" fill="#F5F5F5"/>
<path d="M28.5579 28.6126L28.8435 28.3269C29.0167 28.1538 29.0121 27.8715 28.8332 27.7041L24.105 23.2611L23.4922 23.8739L27.9351 28.6021C28.1025 28.7811 28.3848 28.7859 28.5579 28.6126Z" fill="#FFBE5A"/>
<path d="M28.7005 28.6864C28.8201 28.6864 28.9171 28.5894 28.9171 28.4698C28.9171 28.3501 28.8201 28.2532 28.7005 28.2532C28.5809 28.2532 28.4839 28.3501 28.4839 28.4698C28.4839 28.5894 28.5809 28.6864 28.7005 28.6864Z" fill="#FFBE5A"/>
<path d="M23.9525 23.7215C24.1217 23.5523 24.1902 23.3466 24.1056 23.262C24.0211 23.1775 23.8153 23.246 23.6462 23.4152C23.477 23.5844 23.4084 23.7901 23.493 23.8747C23.5776 23.9593 23.7833 23.8907 23.9525 23.7215Z" fill="#F5F5F5"/>
<path d="M25.7208 28.4252C26.7788 28.4252 27.6364 27.4067 27.6364 26.1504C27.6364 24.894 26.7788 23.8756 25.7208 23.8756C24.6628 23.8756 23.8052 24.894 23.8052 26.1504C23.8052 27.4067 24.6628 28.4252 25.7208 28.4252Z" fill="#FFBE5A"/>
<path d="M25.7208 24.0916L25.8226 24.533L26.0557 24.1446L26.0159 24.5958L26.3576 24.2985L26.1805 24.7153L26.5973 24.5382L26.2999 24.8799L26.7511 24.8401L26.3628 25.0732L26.8041 25.1749L26.3628 25.2766L26.7511 25.5097L26.2999 25.47L26.5973 25.8115L26.1805 25.6345L26.3576 26.0513L26.0159 25.754L26.0557 26.2051L25.8226 25.8168L25.7208 26.2581L25.6192 25.8168L25.3861 26.2051L25.4258 25.754L25.0842 26.0513L25.2612 25.6345L24.8445 25.8115L25.1418 25.47L24.6907 25.5097L25.0789 25.2766L24.6377 25.1749L25.0789 25.0732L24.6907 24.8401L25.1418 24.8799L24.8445 24.5382L25.2612 24.7153L25.0842 24.2985L25.4258 24.5958L25.3861 24.1446L25.6192 24.533L25.7208 24.0916Z" fill="#FF4B55"/>
<path d="M28.1171 26.1092C28.1171 26.1092 27.3995 26.2987 26.9324 25.906C26.4132 25.4696 26.024 25.2636 25.8572 25.1862C25.8 25.1598 25.7362 25.1598 25.679 25.1861C25.5594 25.2413 25.3395 25.3556 25.145 25.5269C24.8606 25.7775 23.9873 26.2717 23.8113 26.2717V27.3487L25.1856 28.5397L26.8105 28.4923L28.1171 26.1092Z" fill="#73AF00"/>
<path d="M25.7207 28.9662C24.3469 28.9662 23.2292 27.7027 23.2292 26.1498C23.2292 24.5969 24.3468 23.3334 25.7207 23.3334C27.0947 23.3334 28.2122 24.5969 28.2122 26.1498C28.2122 27.7027 27.0946 28.9662 25.7207 28.9662ZM25.7207 23.9833C24.7053 23.9833 23.8792 24.9553 23.8792 26.1498C23.8792 27.3443 24.7053 28.3163 25.7207 28.3163C26.7362 28.3163 27.5623 27.3443 27.5623 26.1498C27.5623 24.9553 26.7362 23.9833 25.7207 23.9833Z" fill="#3CC8FF"/>
<path d="M25.3481 28.3775L25.3959 28.5206L25.5468 28.5218C25.5663 28.5219 25.5743 28.5469 25.5587 28.5584L25.4374 28.6481L25.4829 28.7919C25.4889 28.8106 25.4676 28.826 25.4517 28.8146L25.3289 28.7269L25.2061 28.8146C25.1903 28.8259 25.169 28.8105 25.1749 28.7919L25.2204 28.6481L25.0991 28.5584C25.0834 28.5468 25.0915 28.5219 25.111 28.5218L25.2619 28.5206L25.3097 28.3775C25.3158 28.359 25.342 28.359 25.3481 28.3775Z" fill="#FFBE5A"/>
<path d="M24.6711 28.0863L24.7189 28.2294L24.8698 28.2305C24.8893 28.2306 24.8973 28.2556 24.8817 28.2672L24.7604 28.3568L24.8059 28.5007C24.8119 28.5193 24.7906 28.5347 24.7747 28.5233L24.6519 28.4356L24.5291 28.5233C24.5133 28.5346 24.492 28.5192 24.4979 28.5007L24.5434 28.3568L24.4221 28.2672C24.4064 28.2555 24.4145 28.2306 24.434 28.2305L24.5849 28.2294L24.6327 28.0863C24.6388 28.0678 24.665 28.0678 24.6711 28.0863Z" fill="#FFBE5A"/>
<path d="M24.1272 27.5921L24.1749 27.7351L24.3258 27.7363C24.3454 27.7364 24.3534 27.7614 24.3377 27.7729L24.2165 27.8626L24.262 28.0064C24.2679 28.0251 24.2466 28.0405 24.2307 28.0291L24.108 27.9414L23.9852 28.0291C23.9694 28.0404 23.9481 28.025 23.954 28.0064L23.9995 27.8626L23.8782 27.7729C23.8624 27.7613 23.8706 27.7364 23.8901 27.7363L24.041 27.7351L24.0887 27.5921C24.0949 27.5735 24.121 27.5735 24.1272 27.5921Z" fill="#FFBE5A"/>
<path d="M23.7568 26.9342L23.8046 27.0772L23.9555 27.0784C23.975 27.0785 23.983 27.1035 23.9674 27.115L23.8461 27.2047L23.8916 27.3485C23.8976 27.3672 23.8763 27.3826 23.8603 27.3712L23.7376 27.2835L23.6148 27.3712C23.599 27.3825 23.5777 27.3671 23.5836 27.3485L23.6291 27.2047L23.5078 27.115C23.4921 27.1034 23.5002 27.0785 23.5197 27.0784L23.6706 27.0772L23.7184 26.9342C23.7245 26.9156 23.7507 26.9156 23.7568 26.9342Z" fill="#FFBE5A"/>
<path d="M23.5918 26.1694L23.6395 26.3125L23.7904 26.3137C23.81 26.3138 23.818 26.3388 23.8023 26.3503L23.681 26.44L23.7266 26.5838C23.7325 26.6024 23.7112 26.6179 23.6953 26.6065L23.5726 26.5188L23.4498 26.6065C23.434 26.6178 23.4127 26.6024 23.4185 26.5838L23.4641 26.44L23.3428 26.3503C23.327 26.3387 23.3352 26.3138 23.3547 26.3137L23.5056 26.3125L23.5533 26.1694C23.5594 26.1509 23.5856 26.1509 23.5918 26.1694Z" fill="#FFBE5A"/>
<path d="M26.0941 28.3775L26.0463 28.5206L25.8955 28.5218C25.8759 28.5219 25.8678 28.5469 25.8835 28.5584L26.0048 28.6481L25.9593 28.7919C25.9534 28.8106 25.9747 28.826 25.9906 28.8146L26.1133 28.7269L26.2361 28.8146C26.2519 28.8259 26.2732 28.8105 26.2673 28.7919L26.2218 28.6481L26.3431 28.5584C26.3588 28.5468 26.3507 28.5219 26.3312 28.5218L26.1803 28.5206L26.1326 28.3775C26.1264 28.359 26.1002 28.359 26.0941 28.3775Z" fill="#FFBE5A"/>
<path d="M26.771 28.0863L26.7233 28.2294L26.5724 28.2305C26.5529 28.2306 26.5449 28.2556 26.5605 28.2672L26.6818 28.3568L26.6363 28.5007C26.6303 28.5193 26.6516 28.5347 26.6675 28.5233L26.7903 28.4356L26.913 28.5233C26.9289 28.5346 26.9501 28.5192 26.9443 28.5007L26.8988 28.3568L27.0201 28.2672C27.0358 28.2555 27.0277 28.2306 27.0082 28.2305L26.8573 28.2294L26.8095 28.0863C26.8034 28.0678 26.7772 28.0678 26.771 28.0863Z" fill="#FFBE5A"/>
<path d="M27.315 27.5921L27.2672 27.7351L27.1164 27.7363C27.0968 27.7364 27.0888 27.7614 27.1044 27.7729L27.2257 27.8626L27.1802 28.0064C27.1743 28.0251 27.1956 28.0405 27.2115 28.0291L27.3342 27.9414L27.457 28.0291C27.4728 28.0404 27.4941 28.025 27.4882 28.0064L27.4427 27.8626L27.564 27.7729C27.5797 27.7613 27.5716 27.7364 27.5521 27.7363L27.4012 27.7351L27.3535 27.5921C27.3474 27.5735 27.3211 27.5735 27.315 27.5921Z" fill="#FFBE5A"/>
<path d="M27.6858 26.9342L27.6381 27.0772L27.4872 27.0784C27.4677 27.0785 27.4597 27.1035 27.4753 27.115L27.5966 27.2047L27.5511 27.3485C27.5451 27.3672 27.5664 27.3826 27.5823 27.3712L27.7051 27.2835L27.8278 27.3712C27.8437 27.3825 27.8649 27.3671 27.8591 27.3485L27.8136 27.2047L27.9349 27.115C27.9506 27.1034 27.9425 27.0785 27.9229 27.0784L27.7721 27.0772L27.7243 26.9342C27.7182 26.9156 27.692 26.9156 27.6858 26.9342Z" fill="#FFBE5A"/>
<path d="M27.8497 26.1693L27.8019 26.3124L27.651 26.3136C27.6315 26.3137 27.6235 26.3387 27.6391 26.3502L27.7604 26.4398L27.7149 26.5837C27.7089 26.6023 27.7302 26.6178 27.7461 26.6063L27.8689 26.5186L27.9916 26.6063C28.0075 26.6177 28.0288 26.6022 28.0229 26.5837L27.9774 26.4398L28.0987 26.3502C28.1144 26.3386 28.1063 26.3137 28.0868 26.3136L27.9359 26.3124L27.8881 26.1693C27.8821 26.1508 27.8559 26.1508 27.8497 26.1693Z" fill="#FFBE5A"/>
<path d="M24.7796 27.5387L24.8516 27.883H24.8826V27.648C24.8826 27.648 24.9338 27.8119 25.0063 27.883H25.0648C25.0368 27.847 24.9864 27.7722 24.9864 27.6948C24.9864 27.5883 25.0712 27.5737 25.0712 27.4597H25.1438V27.8829H25.1863L25.265 27.5058C25.265 27.5058 25.3299 27.7417 25.452 27.8829H25.5062C25.4671 27.8254 25.3857 27.6769 25.4007 27.4525C25.4007 27.4525 25.517 27.3943 25.517 27.2369V27.0129C25.517 26.971 25.5511 26.9369 25.593 26.9369H25.6452C25.6452 26.9369 25.5675 26.7861 25.4844 26.7642V26.6697L25.4218 26.7643C25.362 26.7772 25.3268 26.8325 25.3268 26.8917V27.0281C25.3268 27.07 25.2928 27.1041 25.2508 27.1041H24.9792C24.8988 27.1041 24.77 27.1845 24.77 27.2875C24.77 27.3905 24.8473 27.4581 24.8473 27.4581L24.7796 27.5387Z" fill="#F5F5F5"/>
<path d="M25.996 27.1956H25.9711C25.7743 27.2063 25.6643 27.3358 25.6643 27.3358L25.864 27.5355V27.9113H26.103V27.5355L26.3027 27.3358C26.3028 27.3357 26.1929 27.2063 25.996 27.1956Z" fill="#FFBE5A"/>
<path d="M26.4889 26.581H26.4165V27.9124H26.4889V26.581Z" fill="#F5F5F5"/>
<path d="M26.4545 26.5707L26.0651 27.0413C26.0651 27.0413 26.0144 26.8145 26.2412 26.5911L25.7402 26.6825C25.7402 26.6825 25.8926 26.3982 26.292 26.4286L25.8824 26.0867C25.8824 26.0867 26.2345 26.0665 26.4139 26.3305C26.4139 26.3305 26.5153 26.0259 26.7997 26.0123L26.565 26.3689C26.565 26.3689 26.7997 26.2492 27.1247 26.3542L26.6406 26.4829C26.6406 26.4829 26.9114 26.51 27.0231 26.9061L26.6034 26.6184C26.6034 26.6184 26.7321 26.7707 26.6847 27.0686L26.4545 26.5707Z" fill="#F5F5F5"/>
<path d="M21.4746 23.2683L20.5212 22.7917L21.2146 23.6583H21.6045L21.4746 23.2683Z" fill="#F5F5F5"/>
<path d="M26.3986 22.7165L28.9706 21.9251L27.6053 21.4132C27.3621 21.3219 27.1044 21.2753 26.8446 21.2753H26.5875C26.4679 21.2753 26.3709 21.3723 26.3709 21.4919V21.7085H25.7208H25.0709V21.4919C25.0709 21.3723 24.9739 21.2753 24.8543 21.2753H24.5972C24.3374 21.2753 24.0797 21.3221 23.8365 21.4132L22.4712 21.9251L25.0432 22.7165C25.1711 22.7559 25.233 22.9007 25.1732 23.0205L24.8543 23.6583H26.5875L26.2685 23.0205C26.2087 22.9008 26.2706 22.756 26.3986 22.7165Z" fill="#825546"/>
<path d="M25.7208 22.3579C25.9601 22.3579 26.154 22.164 26.154 21.9247C26.154 21.6854 25.9601 21.4915 25.7208 21.4915C25.4815 21.4915 25.2876 21.6854 25.2876 21.9247C25.2876 22.164 25.4815 22.3579 25.7208 22.3579Z" fill="#F5F5F5"/>
<path d="M25.9374 21.9252C25.9374 22.0448 25.8405 22.1418 25.7208 22.1418H24.8542L25.2241 21.772C25.2647 21.7313 25.3198 21.7085 25.3773 21.7085H25.7207C25.8405 21.7086 25.9374 21.8056 25.9374 21.9252Z" fill="#FFBE5A"/>
</g>
<defs>
<clipPath id="clip0_108_50026">
<rect width="50" height="50" fill="white" transform="translate(0.720703 0.160156)"/>
</clipPath>
</defs>
</svg>
