<svg width="51" height="51" viewBox="0 0 51 51" fill="none" xmlns="http://www.w3.org/2000/svg">
<g clip-path="url(#clip0_108_50020)">
<path d="M49.2855 8.78077H1.00981C0.53374 8.78077 0.147705 9.16681 0.147705 9.64288V40.6772C0.147705 41.1533 0.53374 41.5393 1.00981 41.5393H49.2856C49.7617 41.5393 50.1477 41.1533 50.1477 40.6772V9.64288C50.1476 9.16681 49.7616 8.78077 49.2855 8.78077Z" fill="#41479B"/>
<path d="M0.465673 41.331L49.8295 8.98917C49.6801 8.86485 49.4951 8.78077 49.2855 8.78077H1.00981C0.53374 8.78077 0.147705 9.16681 0.147705 9.64288V40.6772C0.147705 40.9437 0.275732 41.1729 0.465673 41.331Z" fill="#F5F5F5"/>
<path d="M22.0987 8.78077H1.00981C0.533739 8.78077 0.147705 9.16681 0.147705 9.64288V23.1626L22.0987 8.78077Z" fill="#FFE15A"/>
<path d="M19.9012 22.5368C19.51 19.9259 17.4511 17.8669 14.8401 17.4757L13.941 15.6773L13.0418 17.4757C10.4309 17.8669 8.37202 19.9257 7.98071 22.5368L6.18237 23.4359L7.98071 24.335C8.37192 26.946 10.4308 29.005 13.0418 29.3962L13.941 31.1945L14.8401 29.3962C17.451 29.005 19.5099 26.9462 19.9012 24.335L21.6995 23.4359L19.9012 22.5368ZM13.941 28.6083C11.0843 28.6083 8.7686 26.2926 8.7686 23.4359C8.7686 20.5793 11.0843 18.2636 13.941 18.2636C16.7976 18.2636 19.1133 20.5793 19.1133 23.4359C19.1133 26.2926 16.7976 28.6083 13.941 28.6083Z" fill="#464655"/>
<path d="M13.9406 20.1211L14.8688 21.8283L16.8114 21.7785L15.797 23.4359L16.8114 25.0934L14.8688 25.0436L13.9406 26.7509L13.0125 25.0436L11.0698 25.0934L12.0843 23.4359L11.0698 21.7785L13.0125 21.8283L13.9406 20.1211Z" fill="#FF4B55"/>
</g>
<defs>
<clipPath id="clip0_108_50020">
<rect width="50" height="50" fill="white" transform="translate(0.148438 0.160156)"/>
</clipPath>
</defs>
</svg>
