<svg width="51" height="51" viewBox="0 0 51 51" fill="none" xmlns="http://www.w3.org/2000/svg">
<g clip-path="url(#clip0_108_50006)">
<path d="M49.5797 41.5393H1.304C0.827929 41.5393 0.441895 41.1533 0.441895 40.6772V9.64288C0.441895 9.16681 0.827929 8.78077 1.304 8.78077H49.5798C50.0559 8.78077 50.4419 9.16681 50.4419 9.64288V40.6772C50.4418 41.1534 50.0558 41.5393 49.5797 41.5393Z" fill="#41479B"/>
<path d="M43.5451 8.78077V41.5393L10.7866 8.78077H43.5451Z" fill="#FFE15A"/>
<path d="M20.6914 20.9779L21.1883 22.4675L22.7585 22.4797C22.8802 22.4807 22.9306 22.6359 22.8327 22.7082L21.5695 23.6411L22.0432 25.1382C22.0799 25.2542 21.9478 25.3502 21.8487 25.2794L20.5712 24.3663L19.2937 25.2794C19.1948 25.3502 19.0626 25.2543 19.0992 25.1382L19.573 23.6411L18.3097 22.7082C18.2118 22.6359 18.2622 22.4807 18.3839 22.4797L19.9541 22.4675L20.451 20.9779C20.4897 20.8626 20.6529 20.8626 20.6914 20.9779Z" fill="#F5F5F5"/>
<path d="M17.0994 17.386L17.5963 18.8757L19.1665 18.8879C19.2882 18.8888 19.3385 19.0441 19.2407 19.1163L17.9774 20.0492L18.4511 21.5464C18.4879 21.6623 18.3557 21.7583 18.2567 21.6876L16.9792 20.7744L15.7016 21.6876C15.6027 21.7584 15.4706 21.6624 15.5072 21.5464L15.9809 20.0492L14.7177 19.1163C14.6198 19.044 14.6702 18.8888 14.7919 18.8879L16.3621 18.8757L16.859 17.386C16.8976 17.2706 17.0609 17.2706 17.0994 17.386Z" fill="#F5F5F5"/>
<path d="M13.5076 13.794L14.0045 15.2837L15.5747 15.2959C15.6964 15.2969 15.7467 15.452 15.6489 15.5243L14.3856 16.4572L14.8593 17.9544C14.8961 18.0703 14.7639 18.1663 14.6649 18.0956L13.3874 17.1824L12.1098 18.0956C12.0109 18.1664 11.8788 18.0704 11.9154 17.9544L12.3891 16.4572L11.1259 15.5243C11.028 15.452 11.0784 15.2969 11.2001 15.2959L12.7703 15.2837L13.2672 13.794C13.3058 13.6786 13.4691 13.6786 13.5076 13.794Z" fill="#F5F5F5"/>
<path d="M9.91545 10.2021L10.4123 11.6918L11.9825 11.704C12.1042 11.705 12.1546 11.8601 12.0568 11.9324L10.7936 12.8652L11.2673 14.3624C11.304 14.4783 11.1719 14.5743 11.0729 14.5036L9.79534 13.5904L8.5178 14.5036C8.41888 14.5743 8.28675 14.4784 8.32337 14.3624L8.7971 12.8652L7.53382 11.9324C7.43597 11.8601 7.48636 11.705 7.60804 11.704L9.17825 11.6918L9.67512 10.2021C9.7137 10.0867 9.87688 10.0867 9.91545 10.2021Z" fill="#F5F5F5"/>
<path d="M35.059 35.3458L35.5559 36.8354L37.1261 36.8476C37.2478 36.8486 37.2982 37.0038 37.2003 37.076L35.937 38.0089L36.4108 39.5061C36.4475 39.622 36.3154 39.7181 36.2164 39.6473L34.9389 38.7341L33.6614 39.6473C33.5624 39.7181 33.4303 39.6221 33.4669 39.5061L33.9407 38.0089L32.6774 37.076C32.5795 37.0038 32.6299 36.8486 32.7516 36.8476L34.3218 36.8354L34.8187 35.3458C34.8573 35.2303 35.0205 35.2303 35.059 35.3458Z" fill="#F5F5F5"/>
<path d="M31.4672 31.7538L31.9641 33.2434L33.5343 33.2556C33.656 33.2566 33.7064 33.4118 33.6085 33.484L32.3452 34.4169L32.819 35.9141C32.8557 36.03 32.7236 36.1261 32.6246 36.0553L31.3471 35.1421L30.0696 36.0553C29.9706 36.126 29.8385 36.0301 29.8751 35.9141L30.3489 34.4169L29.0856 33.484C28.9877 33.4118 29.0381 33.2566 29.1598 33.2556L30.73 33.2434L31.2269 31.7538C31.2655 31.6383 31.4287 31.6383 31.4672 31.7538Z" fill="#F5F5F5"/>
<path d="M27.8753 28.1619L28.3721 29.6515L29.9424 29.6637C30.064 29.6647 30.1144 29.8199 30.0166 29.8922L28.7533 30.8251L29.227 32.3222C29.2637 32.4382 29.1316 32.5342 29.0326 32.4633L27.7551 31.5502L26.4775 32.4633C26.3786 32.534 26.2465 32.4382 26.2831 32.3222L26.7568 30.8251L25.4935 29.8922C25.3957 29.8199 25.4461 29.6647 25.5678 29.6637L27.138 29.6515L27.6348 28.1619C27.6736 28.0466 27.8368 28.0466 27.8753 28.1619Z" fill="#F5F5F5"/>
<path d="M24.2835 24.5699L24.7803 26.0595L26.3506 26.0717C26.4722 26.0727 26.5226 26.2279 26.4248 26.3002L25.1615 27.2331L25.6352 28.7302C25.6719 28.8461 25.5398 28.9422 25.4408 28.8714L24.1633 27.9583L22.8857 28.8714C22.7868 28.9421 22.6547 28.8462 22.6913 28.7302L23.165 27.2331L21.9017 26.3002C21.8039 26.2279 21.8543 26.0727 21.976 26.0717L23.5462 26.0595L24.043 24.5699C24.0817 24.4545 24.245 24.4545 24.2835 24.5699Z" fill="#F5F5F5"/>
<path d="M4.53784 8.78077L5.20483 9.27335L4.7311 10.7705C4.69448 10.8864 4.82651 10.9824 4.92554 10.9118L6.20298 9.99864L7.48051 10.9118C7.57944 10.9825 7.71157 10.8866 7.67485 10.7705L7.20122 9.27335L7.8685 8.78077H4.53784Z" fill="#F5F5F5"/>
<path d="M40.7181 40.4396L39.1479 40.4274L38.6511 38.9377C38.6126 38.8223 38.4493 38.8223 38.4109 38.9377L37.9141 40.4274L36.3439 40.4396C36.2222 40.4406 36.1718 40.5959 36.2697 40.668L37.4496 41.5392H39.6128L40.7927 40.668C40.8902 40.5958 40.8398 40.4405 40.7181 40.4396Z" fill="#F5F5F5"/>
</g>
<defs>
<clipPath id="clip0_108_50006">
<rect width="50" height="50" fill="white" transform="translate(0.441406 0.160156)"/>
</clipPath>
</defs>
</svg>
