<svg width="51" height="51" viewBox="0 0 51 51" fill="none" xmlns="http://www.w3.org/2000/svg">
<g clip-path="url(#clip0_108_49983)">
<path d="M49.3004 41.5394H1.02471C0.548632 41.5394 0.162598 41.1534 0.162598 40.6773V9.64288C0.162598 9.16681 0.548632 8.78077 1.02471 8.78077H49.3005C49.7766 8.78077 50.1626 9.16681 50.1626 9.64288V40.6773C50.1625 41.1535 49.7765 41.5394 49.3004 41.5394Z" fill="#73AF00"/>
<path d="M24.7145 13.3641L6.54499 24.4237C5.99314 24.7596 5.99314 25.5605 6.54499 25.8965L24.7145 36.9562C24.9898 37.1238 25.3356 37.1238 25.611 36.9562L43.7806 25.8966C44.3324 25.5607 44.3324 24.7598 43.7806 24.4238L25.611 13.3641C25.3357 13.1965 24.9898 13.1965 24.7145 13.3641Z" fill="#FFE15A"/>
<path d="M25.1626 32.0566C28.9714 32.0566 32.0591 28.969 32.0591 25.1602C32.0591 21.3513 28.9714 18.2637 25.1626 18.2637C21.3538 18.2637 18.2661 21.3513 18.2661 25.1602C18.2661 28.969 21.3538 32.0566 25.1626 32.0566Z" fill="#41479B"/>
<path d="M19.2446 21.6321C18.9192 22.1769 18.668 22.7689 18.502 23.3975C22.3251 23.1098 27.9806 24.1793 31.5802 27.6722C31.8152 27.0725 31.9703 26.4336 32.0285 25.7657C28.3116 22.6375 23.173 21.5251 19.2446 21.6321Z" fill="#F5F5F5"/>
<path d="M25.4478 27.5136L25.6314 28.0642L26.2117 28.0687C26.2868 28.0693 26.318 28.1652 26.2576 28.2098L25.7907 28.5546L25.9658 29.1079C25.9885 29.1796 25.9068 29.2389 25.8458 29.1951L25.3736 28.8576L24.9015 29.1951C24.8403 29.2389 24.7588 29.1796 24.7815 29.1079L24.9566 28.5546L24.4897 28.2098C24.4292 28.1652 24.4604 28.0693 24.5355 28.0687L25.1158 28.0642L25.2994 27.5136C25.3232 27.4423 25.4239 27.4423 25.4478 27.5136Z" fill="#F5F5F5"/>
<path d="M27.7036 28.9379L27.7827 29.1748L28.0325 29.1768C28.0648 29.177 28.0783 29.2183 28.0522 29.2375L27.8512 29.3859L27.9265 29.624C27.9363 29.6549 27.9012 29.6804 27.8748 29.6615L27.6716 29.5163L27.4684 29.6615C27.4421 29.6804 27.407 29.6549 27.4167 29.624L27.492 29.3859L27.2911 29.2375C27.2651 29.2184 27.2785 29.1771 27.3108 29.1768L27.5606 29.1748L27.6396 28.9379C27.6499 28.9071 27.6934 28.9071 27.7036 28.9379Z" fill="#F5F5F5"/>
<path d="M24.4727 26.4677L24.5517 26.7046L24.8015 26.7065C24.8338 26.7067 24.8473 26.748 24.8212 26.7673L24.6203 26.9156L24.6955 27.1538C24.7053 27.1847 24.6702 27.2102 24.6439 27.1913L24.4407 27.0461L24.2374 27.1913C24.2112 27.2102 24.176 27.1847 24.1858 27.1538L24.2611 26.9156L24.0601 26.7673C24.0341 26.7481 24.0475 26.7068 24.0798 26.7065L24.3296 26.7046L24.4086 26.4677C24.419 26.437 24.4624 26.437 24.4727 26.4677Z" fill="#F5F5F5"/>
<path d="M20.0972 26.1804L20.1762 26.4173L20.426 26.4192C20.4583 26.4194 20.4718 26.4607 20.4457 26.48L20.2448 26.6283L20.3201 26.8665C20.3298 26.8974 20.2948 26.9229 20.2684 26.904L20.0652 26.7588L19.8619 26.904C19.8357 26.9229 19.8005 26.8974 19.8103 26.8665L19.8856 26.6283L19.6846 26.48C19.6586 26.4608 19.672 26.4195 19.7043 26.4192L19.9541 26.4173L20.0331 26.1804C20.0436 26.1497 20.0869 26.1497 20.0972 26.1804Z" fill="#F5F5F5"/>
<path d="M23.7576 28.8561L23.8366 29.093L24.0864 29.0949C24.1187 29.0951 24.1322 29.1364 24.1061 29.1557L23.9052 29.304L23.9805 29.5422C23.9902 29.573 23.9552 29.5985 23.9288 29.5797L23.7256 29.4345L23.5223 29.5797C23.4961 29.5985 23.4609 29.573 23.4707 29.5422L23.546 29.304L23.345 29.1557C23.319 29.1365 23.3324 29.0952 23.3647 29.0949L23.6145 29.093L23.6935 28.8561C23.704 28.8255 23.7474 28.8255 23.7576 28.8561Z" fill="#F5F5F5"/>
<path d="M21.7435 26.015L21.8082 26.2088L22.0125 26.2105C22.0388 26.2107 22.0499 26.2444 22.0287 26.2602L21.8643 26.3815L21.9259 26.5762C21.934 26.6014 21.9052 26.6223 21.8837 26.6068L21.7174 26.4881L21.5512 26.6068C21.5297 26.6223 21.501 26.6014 21.5089 26.5762L21.5706 26.3815L21.4062 26.2602C21.385 26.2444 21.3959 26.2107 21.4224 26.2105L21.6267 26.2088L21.6914 26.015C21.6997 25.99 21.7351 25.99 21.7435 26.015Z" fill="#F5F5F5"/>
<path d="M27.8791 22.015L27.9599 22.2573L28.2154 22.2593C28.2485 22.2595 28.2622 22.3018 28.2355 22.3214L28.03 22.4732L28.1071 22.7168C28.1171 22.7484 28.0811 22.7744 28.0542 22.7552L27.8463 22.6066L27.6384 22.7552C27.6115 22.7745 27.5756 22.7483 27.5856 22.7168L27.6626 22.4732L27.4572 22.3214C27.4305 22.3018 27.4443 22.2596 27.4773 22.2593L27.7328 22.2573L27.8136 22.015C27.8242 21.9835 27.8686 21.9835 27.8791 22.015Z" fill="#F5F5F5"/>
<path d="M20.3785 24.8297L20.4432 25.0235L20.6475 25.0251C20.6738 25.0253 20.6849 25.0591 20.6637 25.0748L20.4993 25.1961L20.561 25.3908C20.569 25.416 20.5402 25.4369 20.5187 25.4215L20.3525 25.3028L20.1862 25.4215C20.1647 25.4369 20.136 25.416 20.144 25.3908L20.2056 25.1961L20.0412 25.0748C20.02 25.0591 20.0309 25.0254 20.0574 25.0251L20.2617 25.0235L20.3264 24.8297C20.3347 24.8046 20.3701 24.8046 20.3785 24.8297Z" fill="#F5F5F5"/>
<path d="M21.3649 27.5606L21.4627 27.8541L21.7721 27.8565C21.8121 27.8567 21.8287 27.9078 21.7965 27.9317L21.5476 28.1154L21.6409 28.4104C21.653 28.4485 21.6096 28.4802 21.577 28.4568L21.3252 28.277L21.0735 28.4568C21.0409 28.4801 20.9974 28.4485 21.0095 28.4104L21.1028 28.1154L20.8539 27.9317C20.8217 27.9078 20.8383 27.8567 20.8783 27.8565L21.1877 27.8541L21.2856 27.5606C21.2985 27.5227 21.3523 27.5227 21.3649 27.5606Z" fill="#F5F5F5"/>
<path d="M28.9618 28.9994L29.0233 29.1841L29.2179 29.1856C29.2431 29.1858 29.2536 29.2179 29.2334 29.2328L29.0768 29.3484L29.1355 29.534C29.1431 29.558 29.1158 29.5778 29.0952 29.5632L28.9369 29.45L28.7785 29.5632C28.758 29.5778 28.7306 29.558 28.7381 29.534L28.7968 29.3484L28.6403 29.2328C28.6201 29.2179 28.6305 29.1858 28.6557 29.1856L28.8503 29.1841L28.9119 28.9994C28.92 28.9755 28.9539 28.9755 28.9618 28.9994Z" fill="#F5F5F5"/>
<path d="M29.6426 27.5902L29.7216 27.8271L29.9714 27.8291C30.0037 27.8293 30.0172 27.8706 29.9911 27.8898L29.7902 28.0382L29.8655 28.2764C29.8752 28.3072 29.8402 28.3327 29.8138 28.3139L29.6106 28.1686L29.4074 28.3139C29.3811 28.3327 29.3459 28.3072 29.3557 28.2764L29.431 28.0382L29.23 27.8898C29.204 27.8707 29.2174 27.8294 29.2497 27.8291L29.4995 27.8271L29.5785 27.5902C29.5889 27.5595 29.6324 27.5595 29.6426 27.5902Z" fill="#F5F5F5"/>
</g>
<defs>
<clipPath id="clip0_108_49983">
<rect width="50" height="50" fill="white" transform="translate(0.162109 0.160156)"/>
</clipPath>
</defs>
</svg>
