<svg width="51" height="51" viewBox="0 0 51 51" fill="none" xmlns="http://www.w3.org/2000/svg">
<g clip-path="url(#clip0_108_49960)">
<path d="M50.5894 25.1601H0.595459V9.6447C0.595459 9.16872 0.981393 8.78269 1.45746 8.78269H49.7274C50.2034 8.78269 50.5894 9.16863 50.5894 9.6447V25.16V25.1601Z" fill="#41479B"/>
<path d="M0.595215 25.1601H50.5893V40.6754C50.5893 41.1514 50.2033 41.5375 49.7272 41.5375H1.45722C0.981247 41.5375 0.595215 41.1515 0.595215 40.6754V25.1601Z" fill="#F5F5F5"/>
<path d="M49.7281 8.78279H44.5563L28.5876 14.0139V8.78279H22.5986V14.0139L6.62979 8.78279H1.45795C0.981979 8.78279 0.595947 9.16873 0.595947 9.6448V10.3286L14.2963 14.8166H0.596045V19.1265H14.2964L0.596045 23.6144V25.1601H6.62979L22.5985 19.929V25.1601H28.5874V19.929L44.5561 25.1601H50.5899V23.6144L36.8895 19.1264H50.5899V14.8165H36.8895L50.5899 10.3285V9.6447C50.59 9.16873 50.2041 8.78279 49.7281 8.78279Z" fill="#F5F5F5"/>
<path d="M50.5895 15.6786H0.595703V18.2645H50.5895V15.6786Z" fill="#FF4B55"/>
<path d="M26.8855 8.78311H24.2996V25.1609H26.8855V8.78311Z" fill="#FF4B55"/>
<path d="M30.0116 15.4697L28.7401 16.1271L28.2378 14.9588C28.186 14.8382 27.9781 14.8167 27.8871 14.9224L26.8514 16.1271L25.7685 14.4475C25.6958 14.3349 25.4888 14.3349 25.4162 14.4475L24.3333 16.1271L23.2975 14.9224C23.2066 14.8167 22.9986 14.8382 22.9468 14.9588L22.4446 16.1271L21.173 15.4697C21.005 15.3829 20.7973 15.525 20.8876 15.6651L22.1298 17.5917H22.076C21.9318 17.5917 21.8149 17.6823 21.8149 17.7941V18.3656C21.8149 18.4774 21.9318 18.5681 22.076 18.5681H29.1084C29.2526 18.5681 29.3694 18.4774 29.3694 18.3656V17.7941C29.3694 17.6823 29.2526 17.5917 29.1084 17.5917H29.0546L30.2968 15.6651C30.3874 15.525 30.1796 15.3829 30.0116 15.4697Z" fill="#FFE15A"/>
<path d="M18.0688 19.1264L0.595459 24.7958V25.1602H2.64466L21.2351 19.1264H18.0688Z" fill="#FF4B55"/>
<path d="M50.5896 25.1601V24.3747L34.4184 19.1263H31.252L49.8384 25.1601H50.5896Z" fill="#FF4B55"/>
<path d="M50.5837 29.9009C48.0805 29.9009 48.0805 29.1467 45.5772 29.1467C43.0756 29.1467 43.0756 29.9009 40.5741 29.9009C38.0747 29.9009 38.0747 29.1467 35.5753 29.1467C33.0763 29.1467 33.0763 29.9009 30.5773 29.9009C28.0776 29.9009 28.0776 29.1467 25.5779 29.1467C23.0782 29.1467 23.0782 29.9009 20.5786 29.9009C18.0789 29.9009 18.0789 29.1467 15.5792 29.1467C13.0806 29.1467 13.0806 29.9009 10.582 29.9009C8.08461 29.9009 8.08461 29.1467 5.58717 29.1467C3.08836 29.1467 3.08836 29.9009 0.589355 29.9009V27.6382C3.08816 27.6382 3.08816 26.884 5.58717 26.884C8.08451 26.884 8.08451 27.6382 10.582 27.6382C13.0806 27.6382 13.0806 26.884 15.5792 26.884C18.0789 26.884 18.0789 27.6382 20.5786 27.6382C23.0782 27.6382 23.0782 26.884 25.5779 26.884C28.0776 26.884 28.0776 27.6382 30.5773 27.6382C33.0763 27.6382 33.0763 26.884 35.5753 26.884C38.0747 26.884 38.0747 27.6382 40.5741 27.6382C43.0756 27.6382 43.0756 26.884 45.5772 26.884C48.0804 26.884 48.0804 27.6382 50.5837 27.6382V29.9009Z" fill="#41479B"/>
<path d="M50.5834 34.4262C48.0802 34.4262 48.0802 33.672 45.5769 33.672C43.0754 33.672 43.0754 34.4262 40.5739 34.4262C38.0745 34.4262 38.0745 33.672 35.5751 33.672C33.0761 33.672 33.0761 34.4262 30.5771 34.4262C28.0774 34.4262 28.0774 33.672 25.5777 33.672C23.078 33.672 23.078 34.4262 20.5783 34.4262C18.0786 34.4262 18.0786 33.672 15.5789 33.672C13.0803 33.672 13.0803 34.4262 10.5817 34.4262C8.08436 34.4262 8.08436 33.672 5.58692 33.672C3.08812 33.672 3.08812 34.4262 0.589111 34.4262V32.1635C3.08792 32.1635 3.08792 31.4093 5.58692 31.4093C8.08427 31.4093 8.08427 32.1635 10.5817 32.1635C13.0803 32.1635 13.0803 31.4093 15.5789 31.4093C18.0786 31.4093 18.0786 32.1635 20.5783 32.1635C23.078 32.1635 23.078 31.4093 25.5777 31.4093C28.0774 31.4093 28.0774 32.1635 30.5771 32.1635C33.0761 32.1635 33.0761 31.4093 35.5751 31.4093C38.0745 31.4093 38.0745 32.1635 40.5739 32.1635C43.0754 32.1635 43.0754 31.4093 45.5769 31.4093C48.0801 31.4093 48.0801 32.1635 50.5834 32.1635V34.4262Z" fill="#41479B"/>
<path d="M50.5834 38.9515C48.0802 38.9515 48.0802 38.1973 45.5769 38.1973C43.0754 38.1973 43.0754 38.9515 40.5739 38.9515C38.0745 38.9515 38.0745 38.1973 35.5751 38.1973C33.0761 38.1973 33.0761 38.9515 30.5771 38.9515C28.0774 38.9515 28.0774 38.1973 25.5777 38.1973C23.078 38.1973 23.078 38.9515 20.5783 38.9515C18.0786 38.9515 18.0786 38.1973 15.5789 38.1973C13.0803 38.1973 13.0803 38.9515 10.5817 38.9515C8.08436 38.9515 8.08436 38.1973 5.58692 38.1973C3.08812 38.1973 3.08812 38.9515 0.589111 38.9515V36.6889C3.08792 36.6889 3.08792 35.9347 5.58692 35.9347C8.08427 35.9347 8.08427 36.6889 10.5817 36.6889C13.0803 36.6889 13.0803 35.9347 15.5789 35.9347C18.0786 35.9347 18.0786 36.6889 20.5783 36.6889C23.078 36.6889 23.078 35.9347 25.5777 35.9347C28.0774 35.9347 28.0774 36.6889 30.5771 36.6889C33.0761 36.6889 33.0761 35.9347 35.5751 35.9347C38.0745 35.9347 38.0745 36.6889 40.5739 36.6889C43.0754 36.6889 43.0754 35.9347 45.5769 35.9347C48.0801 35.9347 48.0801 36.6889 50.5834 36.6889V38.9515Z" fill="#41479B"/>
<path d="M19.5588 14.8166L1.14941 8.84493C0.826561 8.96945 0.595703 9.27794 0.595703 9.64473V9.68946L16.3925 14.8166H19.5588Z" fill="#FF4B55"/>
<path d="M33.069 14.8166L50.4366 9.18244C50.2826 8.94738 50.0298 8.78283 49.7277 8.78283H48.4929L29.9026 14.8166H33.069Z" fill="#FF4B55"/>
<path d="M39.8135 40.3766C41.6239 39.4442 42.2753 38.0457 42.5124 37.5262C42.8715 36.7392 44.5383 36.1045 44.5383 36.1045C44.5383 36.1045 42.4795 36.1142 41.3774 37.5449C40.3615 38.8638 38.5324 38.9773 36.7684 39.9864C36.6002 39.775 36.4272 39.5678 36.2476 39.3663L41.7442 32.7125L35.0904 38.2091C34.8299 37.9768 34.5606 37.7545 34.2834 37.5415C34.4586 37.0861 34.8042 36.3822 35.4829 35.5806C36.7987 34.0264 36.8653 32.4851 36.8856 31.9144C36.9164 31.0499 38.2132 29.8256 38.2132 29.8256C38.2132 29.8256 36.3147 30.6225 35.8441 32.3659C35.4105 33.9724 33.7656 34.7771 32.5221 36.383C32.2862 36.2516 32.0472 36.125 31.8033 36.0069L34.3337 27.761L30.291 35.3833C29.9621 35.2686 29.6282 35.1647 29.2888 35.074C29.2767 34.5859 29.3272 33.8047 29.6466 32.8068C30.2674 30.8673 29.7391 29.4179 29.5394 28.8828C29.237 28.0723 29.9667 26.4449 29.9667 26.4449C29.9667 26.4449 28.5176 27.9077 28.75 29.6985C28.9641 31.3491 27.7516 32.7225 27.2177 34.6828C26.9506 34.6525 26.6817 34.6284 26.4104 34.6129L25.5922 26.0223L24.7739 34.6129C24.4226 34.6329 24.0755 34.6679 23.7314 34.7128C23.5332 34.2668 23.2798 33.5246 23.1929 32.4777C23.0242 30.4483 21.9815 29.3113 21.5923 28.8935C21.0027 28.2605 21.054 26.4777 21.054 26.4777C21.054 26.4777 20.275 28.3835 21.1751 29.9491C22.0045 31.3918 21.4104 33.1244 21.6667 35.1391C21.4059 35.2135 21.1481 35.2946 20.8937 35.3833L16.8509 27.7611L19.3814 36.007C19.0659 36.1596 18.7588 36.3267 18.4567 36.5013C18.103 36.1651 17.5852 35.5764 17.1048 34.6433C16.1723 32.8329 14.7738 32.1815 14.2544 31.9444C13.4674 31.5852 12.8327 29.9185 12.8327 29.9185C12.8327 29.9185 12.8423 31.9774 14.273 33.0794C15.592 34.0953 15.7054 35.9245 16.7145 37.6885C16.5031 37.8567 16.2958 38.0297 16.0944 38.2093L9.44036 32.7123L14.937 39.3661C14.7047 39.6266 14.4824 39.8959 14.2694 40.1731C13.814 39.9979 13.11 39.6521 12.3085 38.9736C10.7543 37.6577 9.21302 37.5911 8.64222 37.5708C7.77768 37.5402 6.55347 36.2433 6.55347 36.2433C6.55347 36.2433 7.35034 38.1418 9.09378 38.6124C10.5349 39.0014 11.3356 40.3633 12.6433 41.5375H38.1518C38.5041 41.2012 39.0325 40.7788 39.8135 40.3766Z" fill="#FFE15A"/>
<path d="M44.0283 41.5375L46.6954 40.1229L42.0857 41.5375H44.0283Z" fill="#FFE15A"/>
<path d="M4.48877 40.1229L7.15603 41.5375H9.09869L4.48877 40.1229Z" fill="#FFE15A"/>
</g>
<defs>
<clipPath id="clip0_108_49960">
<rect width="50" height="50" fill="white" transform="translate(0.589844 0.160156)"/>
</clipPath>
</defs>
</svg>
