<svg width="51" height="51" viewBox="0 0 51 51" fill="none" xmlns="http://www.w3.org/2000/svg">
<g clip-path="url(#clip0_108_49940)">
<path d="M50.0213 41.5393H1.74565C1.26958 41.5393 0.883545 41.1533 0.883545 40.6772V9.64288C0.883545 9.16681 1.26958 8.78077 1.74565 8.78077H50.0214C50.4975 8.78077 50.8835 9.16681 50.8835 9.64288V40.6772C50.8834 41.1534 50.4974 41.5393 50.0213 41.5393Z" fill="#F5F5F5"/>
<path d="M50.884 34.6426C48.3812 34.6426 48.3812 33.7805 45.8785 33.7805C43.3757 33.7805 43.3757 34.6426 40.8731 34.6426C38.372 34.6426 38.372 33.7805 35.871 33.7805C33.3721 33.7805 33.3721 34.6426 30.8733 34.6426C28.3731 34.6426 28.3731 33.7805 25.8729 33.7805C23.3733 33.7805 23.3733 34.6426 20.8738 34.6426C18.3743 34.6426 18.3742 33.7805 15.8748 33.7805C13.3754 33.7805 13.3752 34.6426 10.8757 34.6426C8.37716 34.6426 8.37716 33.7805 5.87882 33.7805C3.38166 33.7805 3.38166 34.6426 0.884399 34.6426V32.0564C3.38156 32.0564 3.38156 31.1943 5.87882 31.1943C8.37725 31.1943 8.37726 32.0564 10.8757 32.0564C13.3753 32.0564 13.3753 31.1943 15.8748 31.1943C18.3743 31.1943 18.3744 32.0564 20.8738 32.0564C23.3734 32.0564 23.3734 31.1943 25.8729 31.1943C28.3731 31.1943 28.3731 32.0564 30.8733 32.0564C33.3722 32.0564 33.3722 31.1943 35.871 31.1943C38.3721 31.1943 38.3721 32.0564 40.8731 32.0564C43.3759 32.0564 43.3759 31.1943 45.8785 31.1943C48.3814 31.1943 48.3814 32.0564 50.884 32.0564V34.6426Z" fill="#41479B"/>
<path d="M50.884 24.2978C48.3812 24.2978 48.3812 23.4357 45.8785 23.4357C43.3757 23.4357 43.3757 24.2978 40.8731 24.2978C38.372 24.2978 38.372 23.4357 35.871 23.4357C33.3721 23.4357 33.3721 24.2978 30.8733 24.2978C28.3731 24.2978 28.3731 23.4357 25.8729 23.4357C23.3733 23.4357 23.3733 24.2978 20.8738 24.2978C18.3743 24.2978 18.3742 23.4357 15.8748 23.4357C13.3754 23.4357 13.3752 24.2978 10.8757 24.2978C8.37716 24.2978 8.37716 23.4357 5.87882 23.4357C3.38166 23.4357 3.38166 24.2978 0.884399 24.2978V21.7117C3.38156 21.7117 3.38156 20.8496 5.87882 20.8496C8.37725 20.8496 8.37726 21.7117 10.8757 21.7117C13.3753 21.7117 13.3753 20.8496 15.8748 20.8496C18.3743 20.8496 18.3744 21.7117 20.8738 21.7117C23.3734 21.7117 23.3734 20.8496 25.8729 20.8496C28.3731 20.8496 28.3731 21.7117 30.8733 21.7117C33.3722 21.7117 33.3722 20.8496 35.871 20.8496C38.3721 20.8496 38.3721 21.7117 40.8731 21.7117C43.3759 21.7117 43.3759 20.8496 45.8785 20.8496C48.3814 20.8496 48.3814 21.7117 50.884 21.7117V24.2978Z" fill="#41479B"/>
<path d="M50.884 19.1255C48.3812 19.1255 48.3812 18.2634 45.8785 18.2634C43.3757 18.2634 43.3757 19.1255 40.8731 19.1255C38.372 19.1255 38.372 18.2634 35.871 18.2634C33.3721 18.2634 33.3721 19.1255 30.8733 19.1255C28.3731 19.1255 28.3731 18.2634 25.8729 18.2634C23.3733 18.2634 23.3733 19.1255 20.8738 19.1255C18.3743 19.1255 18.3742 18.2634 15.8748 18.2634C13.3754 18.2634 13.3752 19.1255 10.8757 19.1255C8.37716 19.1255 8.37716 18.2634 5.87882 18.2634C3.38166 18.2634 3.38166 19.1255 0.884399 19.1255V16.5392C3.38156 16.5392 3.38156 15.6771 5.87882 15.6771C8.37725 15.6771 8.37726 16.5392 10.8757 16.5392C13.3753 16.5392 13.3753 15.6771 15.8748 15.6771C18.3743 15.6771 18.3744 16.5392 20.8738 16.5392C23.3734 16.5392 23.3734 15.6771 25.8729 15.6771C28.3731 15.6771 28.3731 16.5392 30.8733 16.5392C33.3722 16.5392 33.3722 15.6771 35.871 15.6771C38.3721 15.6771 38.3721 16.5392 40.8731 16.5392C43.3759 16.5392 43.3759 15.6771 45.8785 15.6771C48.3814 15.6771 48.3814 16.5392 50.884 16.5392V19.1255Z" fill="#41479B"/>
<path d="M50.884 13.9531C48.3812 13.9531 48.3812 13.091 45.8785 13.091C43.3757 13.091 43.3757 13.9531 40.8731 13.9531C38.372 13.9531 38.372 13.091 35.871 13.091C33.3721 13.091 33.3721 13.9531 30.8733 13.9531C28.3731 13.9531 28.3731 13.091 25.8729 13.091C23.3733 13.091 23.3733 13.9531 20.8738 13.9531C18.3743 13.9531 18.3742 13.091 15.8748 13.091C13.3754 13.091 13.3752 13.9531 10.8757 13.9531C8.37716 13.9531 8.37716 13.091 5.87882 13.091C3.38166 13.091 3.38166 13.9531 0.884399 13.9531V11.3669C3.38156 11.3669 3.38156 10.5048 5.87882 10.5048C8.37725 10.5048 8.37726 11.3669 10.8757 11.3669C13.3753 11.3669 13.3753 10.5048 15.8748 10.5048C18.3743 10.5048 18.3744 11.3669 20.8738 11.3669C23.3734 11.3669 23.3734 10.5048 25.8729 10.5048C28.3731 10.5048 28.3731 11.3669 30.8733 11.3669C33.3722 11.3669 33.3722 10.5048 35.871 10.5048C38.3721 10.5048 38.3721 11.3669 40.8731 11.3669C43.3759 11.3669 43.3759 10.5048 45.8785 10.5048C48.3814 10.5048 48.3814 11.3669 50.884 11.3669V13.9531Z" fill="#41479B"/>
<path d="M50.884 29.4703C48.3812 29.4703 48.3812 28.6082 45.8785 28.6082C43.3757 28.6082 43.3757 29.4703 40.8731 29.4703C38.372 29.4703 38.372 28.6082 35.871 28.6082C33.3721 28.6082 33.3721 29.4703 30.8733 29.4703C28.3731 29.4703 28.3731 28.6082 25.8729 28.6082C23.3733 28.6082 23.3733 29.4703 20.8738 29.4703C18.3743 29.4703 18.3742 28.6082 15.8748 28.6082C13.3754 28.6082 13.3752 29.4703 10.8757 29.4703C8.37716 29.4703 8.37716 28.6082 5.87882 28.6082C3.38166 28.6082 3.38166 29.4703 0.884399 29.4703V26.884C3.38156 26.884 3.38156 26.0219 5.87882 26.0219C8.37725 26.0219 8.37726 26.884 10.8757 26.884C13.3753 26.884 13.3753 26.0219 15.8748 26.0219C18.3743 26.0219 18.3744 26.884 20.8738 26.884C23.3734 26.884 23.3734 26.0219 25.8729 26.0219C28.3731 26.0219 28.3731 26.884 30.8733 26.884C33.3722 26.884 33.3722 26.0219 35.871 26.0219C38.3721 26.0219 38.3721 26.884 40.8731 26.884C43.3759 26.884 43.3759 26.0219 45.8785 26.0219C48.3814 26.0219 48.3814 26.884 50.884 26.884V29.4703Z" fill="#41479B"/>
<path d="M50.884 39.8151C48.3812 39.8151 48.3812 38.953 45.8785 38.953C43.3757 38.953 43.3757 39.8151 40.8731 39.8151C38.372 39.8151 38.372 38.953 35.871 38.953C33.3721 38.953 33.3721 39.8151 30.8733 39.8151C28.3731 39.8151 28.3731 38.953 25.8729 38.953C23.3733 38.953 23.3733 39.8151 20.8738 39.8151C18.3743 39.8151 18.3742 38.953 15.8748 38.953C13.3754 38.953 13.3752 39.8151 10.8757 39.8151C8.37716 39.8151 8.37716 38.953 5.87882 38.953C3.38166 38.953 3.38166 39.8151 0.884399 39.8151V37.2288C3.38156 37.2288 3.38156 36.3667 5.87882 36.3667C8.37725 36.3667 8.37726 37.2288 10.8757 37.2288C13.3753 37.2288 13.3753 36.3667 15.8748 36.3667C18.3743 36.3667 18.3744 37.2288 20.8738 37.2288C23.3734 37.2288 23.3734 36.3667 25.8729 36.3667C28.3731 36.3667 28.3731 37.2288 30.8733 37.2288C33.3722 37.2288 33.3722 36.3667 35.871 36.3667C38.3721 36.3667 38.3721 37.2288 40.8731 37.2288C43.3759 37.2288 43.3759 36.3667 45.8785 36.3667C48.3814 36.3667 48.3814 37.2288 50.884 37.2288V39.8151Z" fill="#41479B"/>
<path d="M25.0214 25.16H1.74565C1.26958 25.16 0.883545 24.774 0.883545 24.2979V9.64288C0.883545 9.16681 1.26958 8.78077 1.74565 8.78077H25.0214C25.4975 8.78077 25.8835 9.16681 25.8835 9.64288V24.298C25.8834 24.7742 25.4976 25.16 25.0214 25.16Z" fill="#41479B"/>
<path d="M25.0214 8.78077H23.524L15.5387 14.0125V8.78077H11.2283V14.0125L3.24301 8.78077H1.74565C1.26958 8.78077 0.883545 9.16681 0.883545 9.64288V10.3267L7.73461 14.8152H0.883545V19.1256H7.73461L0.883545 23.6142V24.2979C0.883545 24.774 1.26958 25.16 1.74565 25.16H3.24301L11.2283 19.9283V25.16H15.5387V19.9283L23.5239 25.16H25.0213C25.4974 25.16 25.8834 24.774 25.8834 24.2979V23.6141L19.0324 19.1256H25.8834V14.8152H19.0323L25.8834 10.3267V9.64288C25.8834 9.16681 25.4976 8.78077 25.0214 8.78077Z" fill="#F5F5F5"/>
<path d="M25.8834 15.6775H14.6766V8.78089H12.0904V15.6775H0.883545V18.2636H12.0904V25.1602H14.6766V18.2636H25.8834V15.6775Z" fill="#FF4B55"/>
<path d="M10.367 14.8151L1.29512 8.92636C1.05371 9.0792 0.884277 9.33584 0.884277 9.64277V9.6875L8.78358 14.8151H10.367Z" fill="#FF4B55"/>
<path d="M17.1228 14.8151L25.7531 9.21299C25.6031 8.95918 25.3384 8.78067 25.0221 8.78067H24.8357L15.5394 14.8151H17.1228Z" fill="#FF4B55"/>
<path d="M9.6223 19.1255L1.00854 24.7169C1.15708 24.9768 1.42583 25.1599 1.74673 25.1599H1.90932L11.2057 19.1255H9.6223Z" fill="#FF4B55"/>
<path d="M25.8705 24.3657L17.7977 19.1256H16.2144L25.3816 25.0761C25.6563 24.9487 25.8446 24.6816 25.8705 24.3657Z" fill="#FF4B55"/>
<path d="M38.8143 37.9908C38.4847 37.9908 38.2175 37.7235 38.2175 37.394V18.2972H39.4111V37.3941C39.4112 37.7237 39.1439 37.9908 38.8143 37.9908Z" fill="#965032"/>
<path d="M47.1693 20.6842L45.9757 20.0874L41.5812 19.5382L44.3002 16.0424L44.7221 14.7764L43.4562 15.1984L39.9604 17.9173L39.4112 13.523L38.8143 12.3293L38.2176 13.523L37.6683 17.9173L34.1726 15.1984L32.9066 14.7764L33.3286 16.0424L36.0475 19.5382L31.653 20.0874L30.4595 20.6842L31.653 21.281L36.0475 21.8304L33.3286 25.326L32.9066 26.5921L34.1726 26.1701L37.9704 23.2162L38.8143 21.8778L39.6583 23.2162L43.4562 26.1701L44.7221 26.5921L44.3002 25.326L41.5812 21.8304L45.9757 21.281L47.1693 20.6842Z" fill="#73AF00"/>
<path d="M41.4126 27.6346C40.8763 27.0993 39.7278 27.2961 39.1129 27.4513V26.9505C39.1129 26.7857 38.9793 26.6521 38.8146 26.6521C38.6498 26.6521 38.5162 26.7857 38.5162 26.9505V27.4512C37.9014 27.2956 36.7531 27.0988 36.2165 27.6346C35.705 28.1459 36.0756 29.3786 36.4276 30.2356V31.0292C36.4276 31.2486 36.6054 31.4262 36.8246 31.4262H40.8047C41.024 31.4262 41.2018 31.2484 41.2018 31.0292V30.2356C41.5535 29.3786 41.9241 28.1458 41.4126 27.6346ZM40.9906 28.0566C41.2185 28.2846 40.9633 29.2839 40.5522 30.2328H39.1128V28.0677C39.7828 27.878 40.7006 27.7659 40.9906 28.0566ZM36.6384 28.0566C36.9282 27.766 37.846 27.8781 38.5162 28.0677V30.2327H37.0769C36.6657 29.2839 36.4106 28.2846 36.6384 28.0566Z" fill="#FFE15A"/>
</g>
<defs>
<clipPath id="clip0_108_49940">
<rect width="50" height="50" fill="white" transform="translate(0.882812 0.160156)"/>
</clipPath>
</defs>
</svg>
