<svg width="50" height="51" viewBox="0 0 50 51" fill="none" xmlns="http://www.w3.org/2000/svg">
<g clip-path="url(#clip0_108_49883)">
<path d="M49.1378 41.8326H0.862108C0.386034 41.8326 0 41.4466 0 40.9705V9.93617C0 9.4601 0.386034 9.07407 0.862108 9.07407H49.1379C49.614 9.07407 50 9.4601 50 9.93617V40.9705C49.9999 41.4467 49.6139 41.8326 49.1378 41.8326Z" fill="#FFE15A"/>
<path d="M0 9.93619V15.1085L49.9999 35.7981V29.7637L0.388476 9.23492C0.159668 9.3898 0 9.63892 0 9.93619Z" fill="#F5F5F5"/>
<path d="M0 21.143L49.6113 41.6718C49.8401 41.5168 49.9998 41.2677 49.9998 40.9705V35.7981L0 15.1085V21.143Z" fill="#464655"/>
<path d="M29.8418 23.9226L29.8424 23.8982C29.8424 23.8982 29.831 23.7801 29.8094 23.5586C29.8029 23.4478 29.7774 23.3129 29.7438 23.1557C29.7178 22.9972 29.6676 22.8199 29.6032 22.6242C29.4737 22.2358 29.2744 21.7721 28.9302 21.3232C28.8886 21.2677 28.8394 21.213 28.7941 21.1578C28.9893 20.9339 29.1797 20.6736 29.3593 20.3594C29.3593 20.3594 28.375 20.4046 27.2694 19.9221C26.9045 19.7321 26.5081 19.5761 26.0733 19.474L25.8671 18.6491C25.8229 18.4727 25.6643 18.3489 25.4826 18.3489H25.1974V17.9526H26.5847L26.1884 17.1598L26.5847 16.3671H25.1974V15.9707H24.8009V18.3489H24.5158C24.3339 18.3489 24.1754 18.4727 24.1313 18.6491L23.9296 19.4562C23.6618 19.5132 23.3951 19.5856 23.1362 19.6957C22.9244 19.7804 22.7195 19.8867 22.5195 20.0056C21.5026 20.396 20.6389 20.3595 20.6389 20.3595C20.8184 20.6735 21.0086 20.9338 21.2037 21.1575C21.1641 21.2055 21.1203 21.2487 21.082 21.2981C20.812 21.6648 20.5964 22.0771 20.4318 22.5149C20.2753 22.94 20.1863 23.4795 20.1565 23.874L20.1557 24.2553C20.1517 24.3751 20.1654 24.4937 20.178 24.6128C20.1936 24.8527 20.2467 25.0869 20.2967 25.3228C20.4203 25.7875 20.6011 26.2395 20.8477 26.6545C21.3413 27.4859 22.094 28.1413 22.9381 28.5476C23.3741 28.7397 23.786 28.8861 24.2775 28.9559C24.5393 29.0046 24.7024 29.0039 24.8964 29.0208L24.9316 29.0233L24.9493 29.0246L25.0068 29.026L25.0893 29.0226L25.2538 29.0152C25.363 29.0079 25.4721 29.0092 25.5791 28.9933C26.4416 28.8987 27.219 28.5633 27.826 28.1279C28.433 27.6847 28.8689 27.1442 29.1675 26.629C29.4709 26.1132 29.6273 25.6142 29.7238 25.2054C29.7699 25.0013 29.8042 24.8148 29.8167 24.6394C29.8363 24.4658 29.8477 24.3236 29.8425 24.2307C29.8421 24.0297 29.8418 23.9226 29.8418 23.9226ZM22.6379 26.7161C22.3625 26.5014 22.1135 26.2456 21.8866 25.9633C21.6681 25.6744 21.4936 25.3484 21.3566 25.0018C21.2274 24.6627 21.1563 24.2549 21.1214 23.9226C21.1117 23.4614 21.1333 23.1468 21.2214 22.7536C21.3174 22.38 21.4574 22.0144 21.6522 21.6771C21.6635 21.6576 21.6789 21.641 21.6905 21.6217C22.5916 22.3256 23.5429 22.2755 24.2064 21.9339V22.7091C24.4253 22.7091 24.6027 23.1528 24.6027 23.7001C24.6027 24.2473 24.4253 24.691 24.2064 24.691V25.0873C24.9499 26.0784 24.6088 26.9147 24.1519 27.4023C23.9446 27.3573 23.7295 27.2967 23.5283 27.2175C23.2163 27.0962 22.9199 26.9214 22.6379 26.7161ZM28.8764 23.8781C28.8757 23.8839 28.8652 23.9858 28.8451 24.18C28.839 24.2883 28.8151 24.3909 28.7875 24.5044C28.7677 24.619 28.7258 24.7577 28.672 24.9149C28.5647 25.2229 28.4033 25.5907 28.1226 25.943C27.8483 26.2964 27.4783 26.6455 27.0167 26.9186C26.6657 27.1269 26.2532 27.2678 25.8173 27.3679C25.3759 26.876 25.0651 26.0566 25.7922 25.0874V24.6911C25.5733 24.6911 25.3959 24.2474 25.3959 23.7002C25.3959 23.1529 25.5733 22.7092 25.7922 22.7092V21.934C26.4564 22.276 27.4092 22.3259 28.3113 21.6195C28.3267 21.6455 28.3456 21.6718 28.3601 21.6976C28.6 22.1168 28.7185 22.5199 28.7928 22.8481C28.8283 23.0138 28.8544 23.1617 28.8605 23.293C28.8742 23.423 28.8841 23.533 28.8785 23.6235C28.8771 23.7771 28.8765 23.8549 28.8764 23.8781Z" fill="#FF4B55"/>
<path d="M24.9993 29.8439C23.5357 29.8439 22.2081 29.2738 21.2173 28.3472C21.0354 28.1772 20.7476 28.1978 20.5855 28.3869L19.0677 30.1576C18.9064 30.3459 19.0402 30.6367 19.2879 30.6367H20.2425L21.5151 31.273C21.6939 31.3624 21.9113 31.3046 22.0222 31.1383L22.4318 30.5239C23.2234 30.8505 24.0897 31.033 24.9992 31.033C25.9086 31.033 26.7749 30.8505 27.5665 30.5239L27.9761 31.1383C28.0869 31.3047 28.3043 31.3623 28.4832 31.273L29.7558 30.6367H30.7104C30.9582 30.6367 31.092 30.3459 30.9306 30.1576L29.4128 28.3869C29.2507 28.1977 28.9629 28.1772 28.781 28.3472C27.7905 29.2738 26.463 29.8439 24.9993 29.8439Z" fill="#FF4B55"/>
<path d="M19.45 28.2583H17.468L17.8643 24.6909C17.8643 24.6909 16.4769 23.9971 16.6222 21.9608C16.6399 21.7132 16.8493 21.5198 17.0975 21.5198H17.4358C17.6694 21.5198 17.8652 21.6891 17.9039 21.9195C17.9873 22.4167 18.2467 23.2328 19.0535 23.5017L19.45 28.2583Z" fill="#FF4B55"/>
<path d="M30.5486 28.2583H32.5305L32.1342 24.6909C32.1342 24.6909 33.5216 23.9971 33.3763 21.9608C33.3586 21.7132 33.1493 21.5198 32.901 21.5198H32.5627C32.3291 21.5198 32.1333 21.6891 32.0947 21.9195C32.0113 22.4167 31.7518 23.2328 30.9451 23.5017L30.5486 28.2583Z" fill="#FF4B55"/>
<path d="M19.6489 28.6548H17.2707C17.1612 28.6548 17.0725 28.5661 17.0725 28.4566C17.0725 28.3472 17.1612 28.2585 17.2707 28.2585H19.6489C19.7583 28.2585 19.847 28.3472 19.847 28.4566C19.847 28.566 19.7582 28.6548 19.6489 28.6548Z" fill="#FFE15A"/>
<path d="M32.7285 28.6549H30.3502C30.2408 28.6549 30.1521 28.5662 30.1521 28.4567C30.1521 28.3472 30.2408 28.2586 30.3502 28.2586H32.7285C32.8379 28.2586 32.9266 28.3472 32.9266 28.4567C32.9266 28.5661 32.8379 28.6549 32.7285 28.6549Z" fill="#FFE15A"/>
</g>
<defs>
<clipPath id="clip0_108_49883">
<rect width="50" height="50" fill="white" transform="translate(0 0.453369)"/>
</clipPath>
</defs>
</svg>
