<svg width="51" height="51" viewBox="0 0 51 51" fill="none" xmlns="http://www.w3.org/2000/svg">
<g clip-path="url(#clip0_108_49863)">
<path d="M49.2855 9.0691H1.00981C0.53374 9.0691 0.147705 9.45514 0.147705 9.93121V40.9655C0.147705 41.4416 0.53374 41.8276 1.00981 41.8276H49.2856C49.7617 41.8276 50.1477 41.4416 50.1477 40.9655V9.93121C50.1476 9.45514 49.7616 9.0691 49.2855 9.0691Z" fill="#73AF00"/>
<path d="M4.08008 9.0691L25.1477 22.8721L46.2154 9.0691H4.08008Z" fill="#FF4B55"/>
<path d="M46.2159 41.8375L25.1482 28.0345L4.08057 41.8375H46.2159Z" fill="#FF4B55"/>
<path d="M50.1476 9.93121C50.1476 9.45514 49.7616 9.0691 49.2855 9.0691H46.2154L30.1961 19.5645C28.8387 18.3988 27.0773 17.6899 25.1477 17.6899C23.218 17.6899 21.4566 18.3987 20.0992 19.5645L4.07992 9.0691H1.00981C0.53374 9.0691 0.147705 9.45514 0.147705 9.93121V11.6455L17.7315 23.1658C17.5096 23.8875 17.389 24.6539 17.389 25.4484C17.389 26.2429 17.5096 27.0091 17.7315 27.731L0.147705 39.2514V40.9656C0.147705 41.4417 0.53374 41.8277 1.00981 41.8277H4.07992L20.0991 31.3324C21.4566 32.4982 23.2179 33.2071 25.1476 33.2071C27.0772 33.2071 28.8386 32.4984 30.196 31.3324L46.2152 41.8277H49.2853C49.7614 41.8277 50.1474 41.4417 50.1474 40.9656V39.2514L32.5638 27.7311C32.7856 27.0093 32.9062 26.2429 32.9062 25.4485C32.9062 24.6539 32.7856 23.8877 32.5638 23.1659L50.1475 11.6456L50.1476 9.93121Z" fill="#F5F5F5"/>
<path d="M24.5891 22.9675L23.4202 22.9978L24.0305 22.0001L23.4202 21.0026L24.5891 21.0328L25.1476 20.005L25.7063 21.0328L26.8752 21.0026L26.2648 22.0001L26.8752 22.9978L25.7063 22.9675L25.1476 23.9953L24.5891 22.9675Z" fill="#FF4B55"/>
<path d="M25.1476 20.276L25.6303 21.1639L26.6406 21.138L26.1131 22.0001L26.6406 22.8622L25.6303 22.8364L25.1476 23.7242L24.6648 22.8364L23.6545 22.8622L24.182 22.0001L23.6545 21.138L24.6648 21.1639L25.1476 20.276ZM25.1476 19.7346L24.9203 20.1525L24.5132 20.9014L23.661 20.8795L23.1855 20.8673L23.4338 21.2732L23.8788 22.0002L23.4338 22.7273L23.1855 23.1331L23.661 23.1209L24.5132 23.099L24.9203 23.848L25.1476 24.2658L25.3748 23.848L25.7819 23.099L26.6341 23.1209L27.1097 23.1331L26.8614 22.7273L26.4164 22.0002L26.8614 21.2732L27.1097 20.8673L26.6341 20.8795L25.7819 20.9014L25.3748 20.1525L25.1476 19.7346Z" fill="#73AF00"/>
<path d="M21.3787 28.6813L20.2097 28.7116L20.8201 27.714L20.2097 26.7164L21.3787 26.7467L21.9373 25.7188L22.4958 26.7467L23.6647 26.7164L23.0543 27.714L23.6647 28.7116L22.4958 28.6813L21.9373 29.7091L21.3787 28.6813Z" fill="#FF4B55"/>
<path d="M21.9374 25.9899L22.4202 26.8778L23.4305 26.8519L22.903 27.714L23.4305 28.5761L22.4202 28.5502L21.9374 29.4381L21.4547 28.5502L20.4444 28.5761L20.9719 27.714L20.4444 26.8519L21.4547 26.8778L21.9374 25.9899ZM21.9374 25.4484L21.7102 25.8662L21.3031 26.6152L20.4509 26.5933L19.9753 26.5811L20.2236 26.9869L20.6686 27.714L20.2236 28.441L19.9753 28.8469L20.4509 28.8347L21.3031 28.8128L21.7102 29.5617L21.9374 29.9796L22.1647 29.5617L22.5718 28.8128L23.424 28.8347L23.8996 28.8469L23.6513 28.441L23.2063 27.714L23.6513 26.9869L23.8996 26.5811L23.424 26.5933L22.5718 26.6152L22.1647 25.8662L21.9374 25.4484Z" fill="#73AF00"/>
<path d="M27.7993 28.6813L26.6304 28.7116L27.2407 27.714L26.6304 26.7164L27.7993 26.7467L28.3578 25.7188L28.9165 26.7467L30.0854 26.7164L29.4751 27.714L30.0854 28.7116L28.9165 28.6813L28.3578 29.7091L27.7993 28.6813Z" fill="#FF4B55"/>
<path d="M28.3581 25.9899L28.8408 26.8778L29.8512 26.8519L29.3236 27.714L29.8512 28.5761L28.8408 28.5502L28.3581 29.4381L27.8754 28.5502L26.865 28.5761L27.3926 27.714L26.865 26.8519L27.8754 26.8778L28.3581 25.9899ZM28.3581 25.4484L28.1309 25.8662L27.7237 26.6152L26.8716 26.5933L26.396 26.5811L26.6442 26.9869L27.0893 27.714L26.6442 28.441L26.396 28.8469L26.8716 28.8347L27.7237 28.8128L28.1309 29.5617L28.3581 29.9796L28.5853 29.5617L28.9925 28.8128L29.8446 28.8347L30.3202 28.8469L30.072 28.441L29.6269 27.714L30.072 26.9869L30.3202 26.5811L29.8446 26.5933L28.9925 26.6152L28.5853 25.8662L28.3581 25.4484Z" fill="#73AF00"/>
</g>
<defs>
<clipPath id="clip0_108_49863">
<rect width="50" height="50" fill="white" transform="translate(0.148438 0.453369)"/>
</clipPath>
</defs>
</svg>
