<svg width="51" height="51" viewBox="0 0 51 51" fill="none" xmlns="http://www.w3.org/2000/svg">
<g clip-path="url(#clip0_108_49859)">
<path d="M49.5797 41.8326H1.304C0.827929 41.8326 0.441895 41.4466 0.441895 40.9705V9.93617C0.441895 9.4601 0.827929 9.07407 1.304 9.07407H49.5798C50.0559 9.07407 50.4419 9.4601 50.4419 9.93617V40.9705C50.4418 41.4467 50.0558 41.8326 49.5797 41.8326Z" fill="#41479B"/>
<path d="M50.4418 16.8323H0.441895V34.0734H50.4418V16.8323Z" fill="#FF4B55"/>
<path d="M36.8495 31.9899V30.7674H36.442V29.9526H36.0345V29.1378H35.6271V28.323H34.4048V25.8785H34.4047L34.8123 25.471V24.2488H34.4048V23.4339H33.9974V22.2117H33.5901V21.3968H33.1827V20.582H32.7753V20.1746H31.9603V20.582H31.5529V21.3968H31.1455V22.2117H30.7382V23.4339H30.3307V24.2488H27.8861V23.0265H27.4788V21.8042H27.0714V20.582H26.6639V19.7671H26.2565V18.9523H25.8491V18.5449H25.6454V18.1375H25.238V18.5449H25.0342V18.9523H24.6268V19.7671H24.2194V20.582H23.812V21.8042H23.4046V23.0265H22.9972V24.2488H20.5526V23.4339H20.1452V22.2117H19.7378V21.3968H19.3304V20.582H18.9229V20.1746H18.1081V20.582H17.7007V21.3968H17.2933V22.2117H16.8858V23.4339H16.4784V24.2488H16.071V25.471L16.4782 25.8785H16.4784V28.323H15.2562V29.1378H14.8488V29.9526H14.4413V30.7674H14.0339V31.9899H13.6265V33.2119H37.2568V31.9899H36.8495Z" fill="#F5F5F5"/>
</g>
<defs>
<clipPath id="clip0_108_49859">
<rect width="50" height="50" fill="white" transform="translate(0.441406 0.453369)"/>
</clipPath>
</defs>
</svg>
