<svg width="51" height="51" viewBox="0 0 51 51" fill="none" xmlns="http://www.w3.org/2000/svg">
<g clip-path="url(#clip0_108_49853)">
<path d="M17.5354 41.8324H1.73076C1.25469 41.8324 0.868652 41.4464 0.868652 40.9703V9.93592C0.868652 9.45985 1.25469 9.07381 1.73076 9.07381H17.5354V41.8324Z" fill="#73AF00"/>
<path d="M34.2026 9.07419H17.5356V41.833H34.2026V9.07419Z" fill="#FF4B55"/>
<path d="M50.007 41.8324H34.2024V9.07381H50.007C50.4831 9.07381 50.8691 9.45984 50.8691 9.93592V40.9703C50.8691 41.4465 50.4831 41.8324 50.007 41.8324Z" fill="#FFE15A"/>
<path d="M26.048 22.2933L26.7887 24.5141L29.1296 24.5322C29.3109 24.5336 29.3861 24.7651 29.2402 24.8728L27.357 26.2634L28.0632 28.4955C28.1179 28.6684 27.9211 28.8114 27.7734 28.7059L25.8689 27.3447L23.9644 28.706C23.8169 28.8115 23.62 28.6684 23.6747 28.4956L24.3808 26.2635L22.4976 24.8729C22.3517 24.7652 22.4269 24.5337 22.6083 24.5323L24.9492 24.5142L25.6898 22.2934C25.7473 22.1213 25.9906 22.1213 26.048 22.2933Z" fill="#FFE15A"/>
</g>
<defs>
<clipPath id="clip0_108_49853">
<rect width="50" height="50" fill="white" transform="translate(0.869141 0.453369)"/>
</clipPath>
</defs>
</svg>
