<svg width="51" height="51" viewBox="0 0 51 51" fill="none" xmlns="http://www.w3.org/2000/svg">
<g clip-path="url(#clip0_108_49845)">
<path d="M49.3004 41.8324H1.02471C0.548632 41.8324 0.162598 41.4464 0.162598 40.9703V9.93589C0.162598 9.45981 0.548632 9.07378 1.02471 9.07378H49.3005C49.7766 9.07378 50.1626 9.45981 50.1626 9.93589V40.9703C50.1625 41.4465 49.7765 41.8324 49.3004 41.8324Z" fill="#F5F5F5"/>
<path d="M38.9562 9.07424H11.3704V41.833H38.9562V9.07424Z" fill="#F5F5F5"/>
<path d="M1.02471 9.07399C0.548632 9.07399 0.162598 9.45993 0.162598 9.936V40.9704C0.162598 41.4465 0.548632 41.8325 1.02471 41.8325H11.3695V9.07399H1.02471Z" fill="#FF4B55"/>
<path d="M49.3011 9.07394H38.9563V41.8325H49.3011C49.7772 41.8325 50.1632 41.4464 50.1632 40.9704V9.93595C50.1632 9.45987 49.7772 9.07394 49.3011 9.07394Z" fill="#FF4B55"/>
<path d="M30.3946 29.2384L35.5101 26.3153L34.3362 25.7284C34.007 25.5638 33.8186 25.2083 33.8673 24.8434L34.2492 21.9799L32.0835 22.61C31.6051 22.7492 31.1086 22.4549 31.001 21.9685L30.7936 21.031L28.7601 23.4108C28.4781 23.7407 27.9411 23.4888 28.0147 23.061L28.8831 18.0114L27.5535 18.3751C27.1652 18.4814 26.755 18.3046 26.5657 17.9493L25.1656 15.3252V15.3213L25.1646 15.3233L25.1635 15.3213V15.3252L23.7634 17.9493C23.5739 18.3045 23.1637 18.4813 22.7753 18.3751L21.4456 18.0114L22.3141 23.061C22.3876 23.4886 21.8505 23.7406 21.5686 23.4108L19.5351 21.031L19.3277 21.9685C19.2201 22.455 18.7236 22.7491 18.2452 22.61L16.0794 21.9799L16.4614 24.8434C16.5101 25.2082 16.3216 25.5638 15.9924 25.7284L14.8186 26.3153L19.9341 29.2385C20.464 29.5413 20.6962 30.1835 20.4825 30.7551L20.0452 31.9247L24.4284 31.5505C24.671 31.5298 24.8775 31.7251 24.8703 31.9683L24.7323 36.6601H25.5944L25.4562 31.9681C25.4491 31.7248 25.6555 31.5296 25.8981 31.5503L30.2834 31.9247L29.8461 30.7551C29.6325 30.1834 29.8647 29.5411 30.3946 29.2384Z" fill="#FF4B55"/>
</g>
<defs>
<clipPath id="clip0_108_49845">
<rect width="50" height="50" fill="white" transform="translate(0.162109 0.453369)"/>
</clipPath>
</defs>
</svg>
