<svg width="51" height="51" viewBox="0 0 51 51" fill="none" xmlns="http://www.w3.org/2000/svg">
<g clip-path="url(#clip0_108_49817)">
<path d="M17.2563 41.8324H1.45171C0.975635 41.8324 0.5896 41.4464 0.5896 40.9703V9.93592C0.5896 9.45985 0.975635 9.07381 1.45171 9.07381H17.2563V41.8324Z" fill="#F5F5F5"/>
<path d="M33.9236 9.07419H17.2566V41.833H33.9236V9.07419Z" fill="#4173CD"/>
<path d="M49.7274 41.8324H33.9229V9.07381H49.7274C50.2035 9.07381 50.5895 9.45985 50.5895 9.93592V40.9703C50.5895 41.4465 50.2035 41.8324 49.7274 41.8324Z" fill="#FFE15A"/>
<path d="M22.9875 26.4094C22.9775 26.6669 22.5915 26.7758 22.5915 26.7758C22.552 26.3402 22.9975 25.5384 23.0864 25.4691C23.1756 25.3998 23.5319 25.0731 23.1756 25.1424C22.8192 25.2117 22.4727 26.0134 22.3935 26.152C22.3143 26.2906 22.1262 26.2807 22.1262 26.2807C22.1262 26.2807 22.1262 25.6373 22.1262 25.4987C22.1262 25.3601 22.7399 25.0632 22.7399 25.0632C22.7399 25.0632 22.839 24.4692 22.7499 24.4098C22.6607 24.3505 22.4728 24.5188 22.2054 24.5385C21.9381 24.5584 21.6114 24.5683 21.3343 24.8257C21.0571 25.0831 21.0472 25.2612 21.0472 25.6967C21.0472 26.1323 21.0472 25.6967 21.0472 26.7461C21.0472 27.7954 20.0671 28.528 19.7009 28.8942C19.6012 28.9939 19.563 29.1159 19.5597 29.2438C19.486 29.3128 19.3236 29.4133 19.188 29.3842C18.9795 29.3393 18.9484 28.9727 18.9484 28.7582C18.9484 28.6926 18.8953 28.6394 18.8297 28.6394C18.7641 28.6394 18.7109 28.6926 18.7109 28.7582C18.7109 29.484 19.0199 29.6132 19.2039 29.6258C19.2141 29.6264 19.2241 29.6267 19.2345 29.6267C19.3564 29.6267 19.4876 29.5786 19.5964 29.5114C19.6672 29.7676 19.8163 30.0058 19.8591 30.102C19.9383 30.2802 19.5027 30.5674 19.5027 30.5674L19.8591 31.6662H20.3442C20.3442 31.394 20.0127 31.4484 19.9631 31.3791C19.9137 31.3097 19.8543 30.6811 19.8543 30.6811L20.5426 30.1052C20.5957 30.0608 20.6264 29.9951 20.6264 29.9259V29.6194C20.6264 29.6194 21.1312 29.701 21.2575 29.8124C21.3837 29.9238 21.2724 30.2579 21.2724 30.3023C21.2724 30.3469 21.9108 30.9111 21.9108 30.9111H22.3489C22.3489 30.7107 22.141 30.7181 22.0371 30.6809C21.9331 30.6438 21.6214 30.2578 21.6214 30.2578C21.6214 30.2578 21.7897 29.7356 21.7897 29.6069C21.7897 29.4782 21.0671 28.9536 21.0671 28.9536C21.0671 28.9536 21.1661 28.7852 21.8986 28.3299C22.6311 27.8745 22.5718 27.3597 22.5718 27.3597L23.2054 26.647V26.1323C23.2053 26.1322 22.9974 26.152 22.9875 26.4094Z" fill="#C17400"/>
<path d="M28.2088 26.4096C28.2188 26.667 28.6048 26.7759 28.6048 26.7759C28.6444 26.3403 28.1989 25.5385 28.1099 25.4692C28.0207 25.3999 27.6644 25.0732 28.0207 25.1425C28.3771 25.2118 28.7237 26.0136 28.8029 26.1521C28.8821 26.2907 29.0702 26.2808 29.0702 26.2808C29.0702 26.2808 29.0702 25.6374 29.0702 25.4988C29.0702 25.3602 28.4564 25.0633 28.4564 25.0633C28.4564 25.0633 28.3574 24.4693 28.4464 24.4099C28.5356 24.3506 28.7236 24.5189 28.991 24.5387C29.2582 24.5585 29.5849 24.5684 29.862 24.8258C30.1392 25.0832 30.1492 25.2613 30.1492 25.6969C30.1492 26.1324 30.1492 25.6969 30.1492 26.7462C30.1492 27.7955 31.1292 28.5281 31.4954 28.8943C31.5952 28.994 31.6333 29.116 31.6366 29.2439C31.7102 29.3129 31.8726 29.4134 32.0082 29.3843C32.2167 29.3394 32.2478 28.9728 32.2478 28.7583C32.2478 28.6927 32.3009 28.6395 32.3665 28.6395C32.4322 28.6395 32.4853 28.6927 32.4853 28.7583C32.4853 29.4841 32.1763 29.6133 31.9923 29.6259C31.9822 29.6265 31.9721 29.6268 31.9618 29.6268C31.8398 29.6268 31.7086 29.5787 31.5998 29.5115C31.529 29.7678 31.3799 30.0059 31.3371 30.1021C31.2579 30.2804 31.6935 30.5675 31.6935 30.5675L31.3371 31.6663H30.852C30.852 31.3941 31.1836 31.4485 31.2331 31.3792C31.2827 31.3098 31.3419 30.6812 31.3419 30.6812L30.6537 30.1054C30.6005 30.0609 30.5699 29.9952 30.5699 29.926V29.6195C30.5699 29.6195 30.065 29.7012 29.9387 29.8125C29.8125 29.9239 29.9239 30.258 29.9239 30.3024C29.9239 30.3469 29.2854 30.9112 29.2854 30.9112H28.8473C28.8473 30.7108 29.0552 30.7182 29.1591 30.681C29.2631 30.6439 29.5748 30.2579 29.5748 30.2579C29.5748 30.2579 29.4065 29.7357 29.4065 29.607C29.4065 29.4783 30.1291 28.9537 30.1291 28.9537C30.1291 28.9537 30.0301 28.7853 29.2976 28.33C28.5651 27.8746 28.6245 27.3598 28.6245 27.3598L27.9909 26.6471V26.1324C27.9911 26.1323 28.1989 26.1521 28.2088 26.4096Z" fill="#C17400"/>
<path d="M24.6456 25.7314L23.9329 26.4441H25.3584L24.6456 25.7314Z" fill="#C8C8C8"/>
<path d="M26.5459 25.7314L25.8333 26.4441H27.2586L26.5459 25.7314Z" fill="#C8C8C8"/>
<path d="M24.6451 26.9194L23.9324 27.6321H25.358L24.6451 26.9194Z" fill="#C8C8C8"/>
<path d="M26.5459 26.9194L25.8333 27.6321H27.2586L26.5459 26.9194Z" fill="#C8C8C8"/>
<path d="M24.6451 28.1073L23.9324 28.82H25.358L24.6451 28.1073Z" fill="#C8C8C8"/>
<path d="M26.5459 28.1073L25.8333 28.82H27.2586L26.5459 28.1073Z" fill="#C8C8C8"/>
<path d="M25.5957 29.2952L24.8828 30.0079H26.3084L25.5957 29.2952Z" fill="#C8C8C8"/>
<path d="M25.7138 21.9306H25.4768V23.3561H25.7138V21.9306Z" fill="#FFE15A"/>
<path d="M24.2925 23.3842C24.2885 23.3688 24.201 23.0041 24.4467 22.7383C24.6631 22.5039 25.0568 22.4324 25.6152 22.5256L25.5762 22.76C25.1077 22.6815 24.7776 22.73 24.6212 22.8994C24.4642 23.0694 24.5224 23.3242 24.523 23.3268L24.2925 23.3842Z" fill="#FFE15A"/>
<path d="M23.6418 24.1744C23.3449 24.0259 23.199 23.5948 23.3232 23.2329C23.3752 23.0812 23.6092 22.5991 24.4311 22.7638L24.3844 22.9968C23.9502 22.9093 23.646 23.0243 23.548 23.3101C23.4633 23.5568 23.5587 23.8674 23.7481 23.962L23.6418 24.1744Z" fill="#FFE15A"/>
<path d="M26.8989 23.3842L26.6685 23.3267L26.7837 23.3555L26.6683 23.3272C26.669 23.3246 26.7279 23.0685 26.5689 22.898C26.4119 22.7295 26.0822 22.6817 25.6154 22.7599L25.5764 22.5255C26.1356 22.4321 26.5286 22.5039 26.7449 22.7382C26.9904 23.0041 26.9027 23.3689 26.8989 23.3842Z" fill="#FFE15A"/>
<path d="M27.5495 24.1744L27.4433 23.9619C27.6326 23.8673 27.728 23.5565 27.6434 23.31C27.5453 23.0243 27.2405 22.9096 26.8069 22.9967L26.7603 22.7637C27.5827 22.5991 27.8161 23.0814 27.8682 23.2328C27.9924 23.5948 27.8464 24.0259 27.5495 24.1744Z" fill="#FFE15A"/>
<path d="M26.5465 23.3554C26.5465 23.3554 26.0713 23.1178 25.5962 23.1178C25.1211 23.1178 24.6459 23.3554 24.6459 23.3554C24.1707 23.1178 23.458 23.3554 23.458 23.8306C23.458 24.3058 24.1707 25.0185 24.1707 25.0185H25.5963H27.0218C27.0218 25.0185 27.7345 24.3058 27.7345 23.8306C27.7345 23.3554 27.0217 23.1178 26.5465 23.3554Z" fill="#FF4B55"/>
<path d="M25.8343 22.0488H25.3591V22.2864H25.8343V22.0488Z" fill="#FFE15A"/>
<path d="M27.9729 20.7422H23.2207V21.6925H27.9729V20.7422Z" fill="#C8C8C8"/>
<path d="M23.809 22.0287L23.5837 21.3527L22.1583 21.8276L22.3835 22.5037L23.809 22.0287Z" fill="#C8C8C8"/>
<path d="M29.0371 21.8296L27.6116 21.3545L27.3862 22.0305L28.8118 22.5057L29.0371 21.8296Z" fill="#C8C8C8"/>
<path d="M25.596 30.8394C24.2206 30.8394 23.1013 30.1466 23.1013 29.2952V25.2562C23.1013 25.0596 23.2612 24.8999 23.4577 24.8999H27.7342C27.9308 24.8999 28.0906 25.0597 28.0906 25.2562V29.2952C28.0907 30.1466 26.9715 30.8394 25.596 30.8394ZM23.4577 25.1374C23.3921 25.1374 23.3389 25.1907 23.3389 25.2561V29.2951C23.3389 30.0155 24.3514 30.6017 25.596 30.6017C26.8407 30.6017 27.8532 30.0154 27.8532 29.2951V25.2561C27.8532 25.1907 27.8 25.1374 27.7344 25.1374H23.4577Z" fill="#464655"/>
</g>
<defs>
<clipPath id="clip0_108_49817">
<rect width="50" height="50" fill="white" transform="translate(0.589844 0.453369)"/>
</clipPath>
</defs>
</svg>
