<svg width="51" height="51" viewBox="0 0 51 51" fill="none" xmlns="http://www.w3.org/2000/svg">
<g clip-path="url(#clip0_108_49800)">
<path d="M50.0213 41.8326H1.74565C1.26958 41.8326 0.883545 41.4466 0.883545 40.9705V9.93617C0.883545 9.4601 1.26958 9.07407 1.74565 9.07407H50.0214C50.4975 9.07407 50.8835 9.4601 50.8835 9.93617V40.9705C50.8834 41.4467 50.4974 41.8326 50.0213 41.8326Z" fill="#41479B"/>
<path d="M50.8834 28.0393H0.883545V30.3381H50.8834V28.0393Z" fill="#F5F5F5"/>
<path d="M50.8842 32.6378H0.884277V34.9367H50.8842V32.6378Z" fill="#F5F5F5"/>
<path d="M50.8834 30.3381H0.883545V32.6369H50.8834V30.3381Z" fill="#FF4B55"/>
<path d="M17.4513 23.3697L17.7157 24.1625L18.5514 24.1689C18.6161 24.1695 18.643 24.252 18.5909 24.2905L17.9187 24.787L18.1707 25.5837C18.1902 25.6455 18.1199 25.6965 18.0673 25.6588L17.3873 25.1728L16.7073 25.6588C16.6546 25.6964 16.5844 25.6455 16.6039 25.5837L16.856 24.787L16.1837 24.2905C16.1317 24.252 16.1585 24.1694 16.2233 24.1689L17.0589 24.1625L17.3233 23.3697C17.3439 23.3083 17.4309 23.3083 17.4513 23.3697Z" fill="#FFE15A"/>
<path d="M17.4513 37.3011L17.7157 38.0939L18.5514 38.1003C18.6161 38.1009 18.643 38.1834 18.5909 38.2219L17.9187 38.7184L18.1707 39.5152C18.1902 39.5769 18.1199 39.628 18.0673 39.5903L17.3873 39.1042L16.7073 39.5903C16.6546 39.6279 16.5844 39.5769 16.6039 39.5152L16.856 38.7184L16.1837 38.2219C16.1317 38.1834 16.1585 38.1008 16.2233 38.1003L17.0589 38.0939L17.3233 37.3011C17.3439 37.2397 17.4309 37.2397 17.4513 37.3011Z" fill="#FFE15A"/>
<path d="M12.929 38.0795L13.601 37.5827L14.2886 38.0577C14.3418 38.0944 14.4113 38.0422 14.3908 37.9808L14.126 37.1881L14.7902 36.6809C14.8417 36.6415 14.8135 36.5594 14.7487 36.56L13.9131 36.5669L13.6359 35.7785C13.6144 35.7173 13.5276 35.7188 13.5081 35.7805L13.2564 36.5775L12.421 36.5974C12.3562 36.5989 12.3308 36.682 12.3835 36.7196L13.0637 37.2051L12.8244 38.0059C12.8058 38.0681 12.8768 38.1181 12.929 38.0795Z" fill="#FFE15A"/>
<path d="M14.2729 26.7543L13.5906 26.2717L12.9132 26.7612C12.8607 26.7991 12.7901 26.7484 12.8094 26.6865L13.0574 25.8884L12.3826 25.3954C12.3304 25.3572 12.3567 25.2745 12.4215 25.2736L13.2571 25.263L13.5176 24.4689C13.5377 24.4074 13.6246 24.407 13.6454 24.4682L13.9139 25.2597L14.7496 25.262C14.8143 25.2622 14.8416 25.3446 14.7896 25.3833L14.1198 25.8831L14.376 26.6787C14.3959 26.7401 14.3259 26.7916 14.2729 26.7543Z" fill="#FFE15A"/>
<path d="M20.5668 26.7645L21.2388 26.2676L21.9264 26.7426C21.9796 26.7794 22.0491 26.7272 22.0286 26.6658L21.7638 25.8731L22.428 25.3659C22.4795 25.3265 22.4513 25.2444 22.3865 25.245L21.5509 25.2519L21.2737 24.4634C21.2523 24.4023 21.1654 24.4038 21.1459 24.4655L20.8943 25.2625L20.0588 25.2824C19.9941 25.2839 19.9686 25.367 20.0213 25.4046L20.7015 25.8901L20.4622 26.6909C20.4437 26.753 20.5148 26.8031 20.5668 26.7645Z" fill="#FFE15A"/>
<path d="M21.9108 38.0693L21.2284 37.5867L20.551 38.0762C20.4985 38.1141 20.4279 38.0634 20.4472 38.0015L20.6952 37.2034L20.0204 36.7104C19.9682 36.6722 19.9945 36.5895 20.0593 36.5886L20.8949 36.578L21.1554 35.7839C21.1755 35.7224 21.2624 35.722 21.2832 35.7832L21.5517 36.5747L22.3874 36.577C22.4522 36.5772 22.4794 36.6596 22.4274 36.6983L21.7576 37.1981L22.0138 37.9937C22.0336 38.0554 21.9636 38.1068 21.9108 38.0693Z" fill="#FFE15A"/>
<path d="M11.9295 33.2001L11.0938 33.2055L10.8181 32.4167C10.7968 32.3555 10.7099 32.3568 10.6902 32.4185L10.4372 33.2151L9.60166 33.2337C9.53692 33.235 9.51123 33.3181 9.56397 33.3558L10.2434 33.8425L10.0027 34.6428C9.98408 34.7047 10.0551 34.7549 10.1072 34.7165L10.7801 34.2208L11.4669 34.6969C11.5201 34.7337 11.5896 34.6817 11.5692 34.6203L11.3057 33.8272L11.9707 33.3212C12.0223 33.2818 11.9942 33.1996 11.9295 33.2001Z" fill="#FFE15A"/>
<path d="M9.60182 28.9046L10.4374 28.8889L10.6929 28.0932C10.7128 28.0316 10.7996 28.0306 10.8208 28.0919L11.094 28.8816L11.9297 28.8788C11.9945 28.8786 12.0223 28.9609 11.9706 28.9999L11.3039 29.5038L11.5649 30.2977C11.5851 30.3592 11.5155 30.4111 11.4624 30.374L10.7771 29.8957L10.1027 30.3892C10.0505 30.4275 9.97965 30.3771 9.9984 30.3152L10.2416 29.5156L9.56373 29.0267C9.5112 28.9888 9.53717 28.9058 9.60182 28.9046Z" fill="#FFE15A"/>
<path d="M25.1711 28.8739L24.3354 28.8793L24.0596 28.0905C24.0384 28.0293 23.9514 28.0305 23.9318 28.0923L23.6788 28.8889L22.8432 28.9075C22.7785 28.9088 22.7528 28.9919 22.8055 29.0296L23.4849 29.5164L23.2443 30.3167C23.2257 30.3786 23.2967 30.4288 23.3488 30.3904L24.0217 29.8947L24.7085 30.3708C24.7617 30.4077 24.8312 30.3556 24.8108 30.2942L24.5473 29.5011L25.2124 28.9951C25.2638 28.9557 25.2358 28.8734 25.1711 28.8739Z" fill="#FFE15A"/>
<path d="M22.8434 33.2308L23.679 33.2151L23.9345 32.4194C23.9544 32.3578 24.0412 32.3568 24.0624 32.418L24.3356 33.2078L25.1713 33.2049C25.2361 33.2047 25.2639 33.2871 25.2122 33.326L24.5455 33.8299L24.8065 34.6239C24.8267 34.6854 24.7571 34.7373 24.704 34.7001L24.0187 34.2218L23.3443 34.7154C23.2921 34.7537 23.2213 34.7033 23.24 34.6414L23.4832 33.8418L22.8053 33.3529C22.7528 33.315 22.7787 33.2322 22.8434 33.2308Z" fill="#FFE15A"/>
</g>
<defs>
<clipPath id="clip0_108_49800">
<rect width="50" height="50" fill="white" transform="translate(0.882812 0.453369)"/>
</clipPath>
</defs>
</svg>
