<svg width="51" height="51" viewBox="0 0 51 51" fill="none" xmlns="http://www.w3.org/2000/svg">
<g clip-path="url(#clip0_108_49714)">
<path d="M49.4482 41.9674H1.17253C0.696459 41.9674 0.310425 41.5813 0.310425 41.1053V10.0709C0.310425 9.59487 0.696459 9.20884 1.17253 9.20884H49.4483C49.9244 9.20884 50.3104 9.59487 50.3104 10.0709V41.1053C50.3103 41.5814 49.9243 41.9674 49.4482 41.9674Z" fill="#41479B"/>
<path d="M24.4483 9.20884H22.9509L14.9656 14.4406V9.20884H10.6552V14.4406L2.66989 9.20884H1.17253C0.696459 9.20884 0.310425 9.59487 0.310425 10.0709V10.7547L7.16149 15.2433H0.310425V19.5536H7.16149L0.310425 24.0423V24.726C0.310425 25.2021 0.696459 25.5881 1.17253 25.5881H2.66989L10.6552 20.3564V25.5881H14.9656V20.3564L22.9508 25.5881H24.4482C24.9242 25.5881 25.3103 25.2021 25.3103 24.726V24.0422L18.4593 19.5536H25.3103V15.2433H18.4592L25.3103 10.7547V10.0709C25.3103 9.59487 24.9244 9.20884 24.4483 9.20884Z" fill="#F5F5F5"/>
<path d="M25.3103 16.1054H14.1035V9.20884H11.5172V16.1054H0.310425V18.6915H11.5172V25.5881H14.1035V18.6915H25.3103V16.1054Z" fill="#FF4B55"/>
<path d="M9.793 15.2433L0.721142 9.35456C0.479736 9.50739 0.310303 9.76403 0.310303 10.071V10.1157L8.2096 15.2433H9.793Z" fill="#FF4B55"/>
<path d="M16.5489 15.2433L25.1791 9.64118C25.0291 9.38737 24.7645 9.20886 24.4482 9.20886H24.2617L14.9655 15.2433H16.5489Z" fill="#FF4B55"/>
<path d="M9.04759 19.5537L0.433838 25.1451C0.582373 25.405 0.851122 25.5881 1.17202 25.5881H1.33462L10.631 19.5537H9.04759Z" fill="#FF4B55"/>
<path d="M25.2964 24.7939L17.2236 19.5538H15.6403L24.8075 25.5043C25.0822 25.3769 25.2705 25.1098 25.2964 24.7939Z" fill="#FF4B55"/>
<path d="M37.7927 17.4063C37.7927 17.4063 37.4322 15.9643 36.3507 15.2433C36.3507 15.2433 37.4322 17.0458 37.4322 18.4879L37.7927 17.4063Z" fill="#FFE15A"/>
<path d="M36.1255 15.8403C36.1255 15.8403 36.8804 16.3021 37.2858 17.057L36.9591 17.8119C36.9593 17.8119 36.6889 16.7417 36.1255 15.8403Z" fill="#FFE15A"/>
<path d="M35.2914 16.0094C35.2914 16.0094 36.5982 16.4149 37.2177 17.2598L36.846 17.8231C36.8461 17.8231 36.3504 16.8656 35.2914 16.0094Z" fill="#FFE15A"/>
<path d="M35.1003 16.6628C35.1003 16.6628 36.4747 16.8767 37.0944 17.5302L36.9367 18.1499C36.9367 18.1498 36.1819 17.2485 35.1003 16.6628Z" fill="#FFE15A"/>
<path d="M35.1455 17.1133C35.1455 17.1133 36.4748 17.2486 37.0832 17.9469C37.6915 18.6455 36.8579 18.4313 36.8579 18.4313C36.8579 18.4313 36.1594 17.6316 35.1455 17.1133Z" fill="#FFE15A"/>
<path d="M37.793 17.4063C37.793 17.4063 38.1534 15.9643 39.235 15.2433C39.235 15.2433 38.1535 17.0458 38.1535 18.4879L37.793 17.4063Z" fill="#FFE15A"/>
<path d="M39.4603 15.8403C39.4603 15.8403 38.7054 16.3021 38.2999 17.057L38.6267 17.8119C38.6266 17.8119 38.897 16.7417 39.4603 15.8403Z" fill="#FFE15A"/>
<path d="M40.2939 16.0094C40.2939 16.0094 38.9871 16.4149 38.3676 17.2598L38.7393 17.8231C38.7392 17.8231 39.2349 16.8656 40.2939 16.0094Z" fill="#FFE15A"/>
<path d="M40.4854 16.6628C40.4854 16.6628 39.111 16.8767 38.4913 17.5302L38.649 18.1499C38.649 18.1498 39.4038 17.2485 40.4854 16.6628Z" fill="#FFE15A"/>
<path d="M40.44 17.1133C40.44 17.1133 39.1107 17.2486 38.5023 17.9469C37.894 18.6455 38.7276 18.4313 38.7276 18.4313C38.7276 18.4313 39.4262 17.6316 40.44 17.1133Z" fill="#FFE15A"/>
<path d="M37.7924 15.2432C37.7924 15.2432 37.4328 16.0017 37.7924 16.381C38.152 16.0018 37.7924 15.2432 37.7924 15.2432Z" fill="#FFE15A"/>
<path d="M37.4336 15.4316C37.4336 15.4316 37.3853 16.2701 37.8619 16.4857C38.0533 15.9986 37.4336 15.4316 37.4336 15.4316Z" fill="#FFE15A"/>
<path d="M38.152 15.4316C38.152 15.4316 38.2003 16.2701 37.7237 16.4857C37.5324 15.9986 38.152 15.4316 38.152 15.4316Z" fill="#FFE15A"/>
<path d="M38.2699 15.9152C38.2699 15.9152 37.9554 16.694 37.4323 16.6851C37.4675 16.1631 38.2699 15.9152 38.2699 15.9152Z" fill="#FFE15A"/>
<path d="M37.3156 15.9152C37.3156 15.9152 37.6301 16.694 38.1532 16.6851C38.118 16.1631 37.3156 15.9152 37.3156 15.9152Z" fill="#FFE15A"/>
<path d="M37.7927 19.2088C38.3903 19.2088 38.8747 18.5632 38.8747 17.7668C38.8747 16.9704 38.3903 16.3248 37.7927 16.3248C37.1951 16.3248 36.7107 16.9704 36.7107 17.7668C36.7107 18.5632 37.1951 19.2088 37.7927 19.2088Z" fill="#FFD255"/>
<path d="M35.3227 19.2389L35.0749 18.8558C35.0749 18.8558 34.3539 19.0286 34.1811 18.4878L33.9032 18.4653C33.9032 18.4653 33.9407 18.0973 34.2636 18.0447C34.2636 18.0447 34.4589 17.8044 34.8044 17.8495C35.1499 17.8945 35.3301 18.1874 35.5292 18.2626C35.7282 18.3376 35.7507 18.5855 35.7507 18.5855L37.2678 20.1401C37.2678 20.1401 36.8323 20.6959 36.4417 20.8761C36.051 21.0562 34.6167 20.1777 35.3227 19.2389Z" fill="#73AF00"/>
<path d="M40.2499 19.5244C40.2499 19.5244 40.8809 19.9525 40.9033 21.1354H39.8556C39.8556 21.1354 39.8669 20.3355 39.6641 19.9075L40.2499 19.5244Z" fill="#73AF00"/>
<path d="M40.115 19.5695C40.115 19.5695 40.9036 19.8287 41.388 19.2091L40.5657 19.0965L40.115 19.5695Z" fill="#73AF00"/>
<path d="M39.8784 18.702L40.6792 18.9719C40.7802 19.006 40.8158 19.131 40.745 19.2107C40.4412 19.553 39.5344 20.3731 38.0722 20.3731C36.1683 20.3731 35.6764 19.1751 35.6538 19.0851C35.6313 18.9951 35.5299 18.2627 35.5299 18.2627L36.341 18.1727L39.8784 18.702Z" fill="#73AF00"/>
<path d="M32.0915 29.7316H34.1885L33.107 31.8264L32.0255 30.3843L32.0915 29.7316Z" fill="#FF4B55"/>
<path d="M43.4951 29.7316H41.3982L42.4796 31.8264L43.5611 30.3843L43.4951 29.7316Z" fill="#FF4B55"/>
<path d="M32.0827 33.2684C31.0482 33.2684 30.2566 32.7132 30.2158 32.6843L31.0494 31.5074C31.0563 31.5119 31.7548 31.9865 32.467 31.7707C33.1877 31.5532 33.6608 30.7027 33.9309 30.027L35.2698 30.5627C34.7018 31.9828 33.8917 32.8556 32.8625 33.1574C32.5934 33.2364 32.331 33.2684 32.0827 33.2684Z" fill="#FFD25A"/>
<path d="M43.5036 33.2684C44.5381 33.2684 45.3297 32.7132 45.3705 32.6843L44.5369 31.5073C44.53 31.5118 43.8316 31.9864 43.1194 31.7707C42.3987 31.5531 41.9255 30.7026 41.6554 30.027L40.3165 30.5627C40.8845 31.9828 41.6947 32.8556 42.7238 33.1573C42.993 33.2363 43.2555 33.2684 43.5036 33.2684Z" fill="#FFD25A"/>
<path d="M42.4798 25.6978H33.1068V22.2339C33.1068 21.7578 33.4928 21.3718 33.9689 21.3718H41.6178C42.0939 21.3718 42.4799 21.7578 42.4799 22.2339V25.6978H42.4798Z" fill="#FF4B55"/>
<path d="M35.6644 23.8955L35.5518 23.1745C35.0223 23.1519 34.7182 22.5324 34.7182 22.5324L34.29 22.7689C34.7405 23.8504 35.6644 23.8955 35.6644 23.8955Z" fill="#FFE15A"/>
<path d="M41.309 23.1519C41.4667 23.0318 41.8122 22.9867 41.8122 22.9867C41.5644 22.7313 41.2941 22.9116 41.2941 22.9116C41.5194 22.7013 41.3917 22.4009 41.3917 22.4009C41.3917 22.4986 41.234 22.5662 41.234 22.5662C41.2415 22.371 41.0388 22.1831 41.0388 22.1831L40.9336 22.3558C40.866 22.1906 40.6257 22.063 40.6257 22.063L40.5281 22.4685C40.3028 22.2733 39.9047 22.2882 39.9047 22.2882L39.9798 22.476C39.7395 22.4835 39.0861 22.6187 38.703 22.6637C38.3199 22.7088 38.012 22.6037 38.012 22.431C38.012 22.2863 38.3468 22.2684 38.4916 22.2663C38.5941 22.2891 38.7229 22.326 38.9039 22.3804C39.2418 22.4818 39.4398 22.3349 39.4398 22.3349C39.3214 22.2899 39.3083 22.2373 39.3083 22.2373C39.5618 22.0908 39.7995 22.1269 39.7995 22.1269C39.7151 21.9411 39.3489 21.9523 39.3489 21.9523C39.4447 21.9016 39.5178 21.7439 39.5178 21.7439C39.4952 21.7665 39.2871 21.8175 39.003 21.8556C38.7891 21.8844 38.5882 22.047 38.5052 22.1222C38.2797 22.1049 37.6906 22.0978 37.7942 22.5063C37.9219 23.0095 38.9358 22.8293 39.5591 22.7316C40.1825 22.6339 40.5054 22.7167 40.6406 22.7992C40.7758 22.8818 40.583 23.1617 39.9496 23.047C39.4023 22.948 39.1008 22.9452 38.9353 22.9626C38.7518 22.9743 38.5953 23.0237 38.4851 23.047C38.2372 23.0996 37.2833 23.4376 37.1032 22.9494C36.9229 22.4611 36.0442 23.7455 36.0442 23.7455L36.1128 23.8271L35.8789 23.7717C35.5635 24.1942 34.6172 24.3238 34.6172 24.3238C34.6172 24.3238 34.4764 24.0704 34.358 24.0365C34.2397 24.0027 34.1891 24.1885 34.1891 24.1885C34.1891 24.1885 34.0483 24.1941 34.0371 24.3238C34.0257 24.4533 34.1384 24.4646 34.1384 24.4646C34.1384 24.4646 34.0032 24.6618 34.2285 24.718C34.2285 24.718 34.2116 24.994 34.5439 24.8025C35.5312 24.9269 36.2511 24.42 36.5628 24.1434C36.7666 24.1565 37.0842 24.15 37.3284 24.0233C37.7189 23.8205 38.1695 23.5651 38.4324 23.6629C38.4324 23.6629 38.6427 24.3088 37.8165 24.3237C37.8165 24.3237 37.6944 24.1692 37.5714 24.1692C37.5184 24.1692 37.4632 24.2329 37.4802 24.2901C37.4802 24.2901 37.3361 24.2816 37.3106 24.3665C37.2898 24.4356 37.3402 24.5148 37.4462 24.5021C37.4462 24.5021 37.3742 24.6082 37.4462 24.6717C37.5183 24.7353 37.6075 24.6717 37.6075 24.6717C37.6075 24.6717 37.5693 24.8032 37.6583 24.8159C37.7345 24.8267 37.8354 24.7023 37.8643 24.6645C37.9965 24.6851 38.8986 24.7891 39.0934 23.8429C39.0934 23.8429 39.5441 24.0381 39.9871 24.0006C40.4302 23.9631 40.8659 24.0307 40.8284 24.2485C40.7792 24.4064 40.6824 24.396 40.6824 24.396C40.5763 24.3535 40.3982 24.3578 40.3728 24.5105C40.3474 24.6632 40.5551 24.6674 40.5551 24.6674C40.6145 24.8074 40.7841 24.748 40.7841 24.748C40.9325 24.8541 41.0301 24.7395 41.0301 24.7395C41.0938 24.7947 41.1594 24.8049 41.2209 24.7522C41.2803 24.7013 41.247 24.362 41.2413 24.2409C41.232 24.0394 41.2037 23.5125 40.9109 23.5048C40.618 23.4973 40.2424 23.6701 39.7243 23.2344C39.6972 23.2117 39.6708 23.1972 39.6441 23.1779C39.8893 23.2006 40.065 23.2672 40.235 23.2945C40.4679 23.3322 41.1514 23.2721 41.309 23.1519Z" fill="#FFE15A"/>
<path d="M34.2908 22.769C34.2908 22.769 34.1471 22.7729 34.0768 22.7521C33.9562 22.7166 33.9416 22.5268 34.0712 22.4929C34.0712 22.4929 33.9153 22.387 33.9868 22.2676C34.044 22.1721 34.1898 22.1724 34.2405 22.2288C34.2405 22.2288 34.1929 22.0717 34.3304 22.0198C34.4398 21.9785 34.5276 22.1043 34.5276 22.2676C34.5276 22.2676 34.6911 22.1346 34.7754 22.2226C34.8342 22.284 34.8173 22.3645 34.7191 22.5324C34.6187 22.7037 34.2908 22.769 34.2908 22.769Z" fill="#FFE15A"/>
<path d="M34.1114 22.6995C34.1114 22.6995 34.0353 22.8309 33.8153 22.7503C33.8153 22.7503 34.0056 22.6612 34.0311 22.5849L34.1114 22.6995Z" fill="#41479B"/>
<path d="M34.0309 22.3134C34.0309 22.3134 33.9125 22.2371 33.7814 22.2413C33.7814 22.2413 33.9759 22.0972 34.1409 22.2244L34.0309 22.3134Z" fill="#41479B"/>
<path d="M34.3072 22.1099C34.3072 22.1099 34.3453 21.97 34.2692 21.8936C34.2692 21.8936 34.4257 21.9615 34.4468 22.0886L34.3072 22.1099Z" fill="#41479B"/>
<path d="M34.655 22.254C34.655 22.254 34.7311 22.0844 34.6635 22.0039C34.6635 22.0039 34.8665 22.1226 34.782 22.3177L34.655 22.254Z" fill="#41479B"/>
<path d="M34.2565 24.1391C34.2565 24.1391 34.1751 23.972 34.0701 23.9726C34.0701 23.9726 34.291 23.892 34.3865 24.0819L34.2565 24.1391Z" fill="#41479B"/>
<path d="M34.0784 24.3519C34.0784 24.3519 33.9332 24.2361 33.8386 24.282C33.8386 24.282 34.0035 24.114 34.1712 24.2443L34.0784 24.3519Z" fill="#41479B"/>
<path d="M34.1805 24.6524C34.1805 24.6524 33.9949 24.6503 33.9484 24.7448C33.9484 24.7448 33.9756 24.5107 34.1878 24.5104L34.1805 24.6524Z" fill="#41479B"/>
<path d="M34.3502 24.8455C34.3502 24.8455 34.2741 24.977 34.0541 24.8964C34.0541 24.8964 34.2444 24.8072 34.2698 24.731L34.3502 24.8455Z" fill="#41479B"/>
<path d="M37.7032 24.7787C37.7032 24.7787 37.6409 24.8864 37.4607 24.8204C37.4607 24.8204 37.607 24.7681 37.6277 24.7055L37.7032 24.7787Z" fill="#41479B"/>
<path d="M35.7957 22.4534C35.7957 22.4534 35.39 23.1443 35.4876 24.1432C35.4876 24.1432 36.6835 23.9686 37.2018 22.7745C37.2018 22.7745 37.3281 22.7234 37.3774 22.6007C37.4193 22.4964 37.4159 22.3247 37.215 22.3256C37.215 22.3256 37.2751 22.2055 37.3483 22.1773C37.3483 22.1773 37.2188 22.1266 37.0667 22.1604C37.0667 22.1604 37.185 22.042 37.185 21.89C37.185 21.89 37.0047 22.0083 36.8921 22.0195C36.8921 22.0195 36.8808 21.8336 36.9259 21.8111C36.9259 21.8111 36.6894 21.8336 36.5711 21.9576C36.5711 21.9576 36.4921 21.8505 36.4978 21.7378C36.4978 21.7378 36.2781 21.8336 36.1936 21.9744C36.1936 21.9744 36.126 21.9011 36.1317 21.8279C36.1317 21.8279 35.974 22.0194 35.9402 22.1207C35.9402 22.1207 35.7916 22.0799 35.7262 22.1997C35.6789 22.2862 35.6897 22.3812 35.7957 22.4534Z" fill="#FFD255"/>
<path d="M37.5219 24.2757C37.5219 24.2757 37.4739 24.1852 37.3301 24.1654C37.3301 24.1654 37.5134 24.0807 37.629 24.2022L37.5219 24.2757Z" fill="#41479B"/>
<path d="M40.5039 24.6192C40.5039 24.6192 40.3988 24.6525 40.3495 24.8016C40.3495 24.8016 40.2957 24.59 40.447 24.4908L40.5039 24.6192Z" fill="#41479B"/>
<path d="M40.725 24.697C40.725 24.697 40.6254 24.7939 40.6302 24.951C40.6302 24.951 40.5074 24.7707 40.6157 24.6256L40.725 24.697Z" fill="#41479B"/>
<path d="M41.2022 24.6885C41.2022 24.6885 41.1721 24.7912 41.2631 24.9008C41.2631 24.9008 41.0748 24.8407 41.0712 24.6764L41.2022 24.6885Z" fill="#41479B"/>
<path d="M40.978 24.7285C40.978 24.7285 40.8981 24.8047 40.9194 24.9604C40.9194 24.9604 40.7708 24.8295 40.8634 24.6738L40.978 24.7285Z" fill="#41479B"/>
<path d="M37.3684 24.4609C37.3684 24.4609 37.2722 24.4264 37.1526 24.5088C37.1526 24.5088 37.2312 24.3224 37.3982 24.3342L37.3684 24.4609Z" fill="#41479B"/>
<path d="M37.5001 24.6661C37.5001 24.6661 37.4012 24.6401 37.2892 24.7327C37.2892 24.7327 37.3064 24.5528 37.474 24.5501L37.5001 24.6661Z" fill="#41479B"/>
<path d="M42.4798 26.2789C41.6981 26.2789 41.6981 26.984 40.9163 26.984C40.1345 26.984 40.1345 26.2789 39.3527 26.2789C38.5715 26.2789 38.5715 26.984 37.7902 26.984C37.0096 26.984 37.0096 26.2789 36.2291 26.2789C35.4485 26.2789 35.4486 26.984 34.6682 26.984C33.8876 26.984 33.8876 26.2789 33.1068 26.2789V24.9769C33.8875 24.9769 33.8875 25.6821 34.6682 25.6821C35.4487 25.6821 35.4487 24.9769 36.2291 24.9769C37.0096 24.9769 37.0096 25.6821 37.7902 25.6821C38.5715 25.6821 38.5715 24.9769 39.3527 24.9769C40.1345 24.9769 40.1345 25.6821 40.9163 25.6821C41.6981 25.6821 41.6981 24.9769 42.4798 24.9769V26.2789Z" fill="#F5F5F5"/>
<path d="M40.9164 26.984C40.1347 26.984 40.1347 26.2789 39.3528 26.2789C38.5716 26.2789 38.5716 26.984 37.7903 26.984C37.0098 26.984 37.0098 26.2789 36.2292 26.2789C35.4486 26.2789 35.4487 26.984 34.6684 26.984C33.8893 26.984 33.8871 26.2823 33.1113 26.2792C33.1221 26.591 33.1579 27.0537 33.2492 27.5973C33.8834 27.6813 33.9411 28.2859 34.6683 28.2859C35.4487 28.2859 35.4487 27.5806 36.2291 27.5806C37.0097 27.5806 37.0097 28.2859 37.7902 28.2859C38.5715 28.2859 38.5715 27.5806 39.3527 27.5806C40.1345 27.5806 40.1345 28.2859 40.9163 28.2859C41.6445 28.2859 41.7024 27.6811 42.3375 27.5973C42.4289 27.0537 42.4646 26.591 42.4754 26.2792C41.6987 26.2823 41.6966 26.984 40.9164 26.984Z" fill="#41479B"/>
<path d="M40.9163 28.286C40.1346 28.286 40.1346 27.5807 39.3528 27.5807C38.5715 27.5807 38.5715 28.286 37.7903 28.286C37.0097 28.286 37.0097 27.5807 36.2291 27.5807C35.4486 27.5807 35.4487 28.286 34.6683 28.286C33.9412 28.286 33.8833 27.6814 33.2493 27.5974C33.3217 28.0283 33.4297 28.5086 33.589 29.0054C33.9405 29.2072 34.0935 29.5879 34.6683 29.5879C35.4488 29.5879 35.4488 28.8828 36.2291 28.8828C37.0097 28.8828 37.0097 29.5879 37.7903 29.5879C38.5715 29.5879 38.5715 28.8828 39.3528 28.8828C40.1345 28.8828 40.1345 29.5879 40.9163 29.5879C41.4924 29.5879 41.6453 29.2064 41.998 29.0048C42.1572 28.5082 42.2651 28.028 42.3376 27.5974C41.7025 27.6813 41.6446 28.286 40.9163 28.286Z" fill="#F5F5F5"/>
<path d="M40.9163 29.5879C40.1346 29.5879 40.1346 28.8827 39.3527 28.8827C38.5715 28.8827 38.5715 29.5879 37.7903 29.5879C37.0097 29.5879 37.0097 28.8827 36.2291 28.8827C35.4486 28.8827 35.4487 29.5879 34.6683 29.5879C34.0936 29.5879 33.9405 29.2071 33.589 29.0054C33.7873 29.6243 34.0659 30.2662 34.4548 30.8649C34.5203 30.8783 34.5879 30.8899 34.6683 30.8899C35.4488 30.8899 35.4488 30.1846 36.2291 30.1846C37.0097 30.1846 37.0097 30.8899 37.7903 30.8899C38.5715 30.8899 38.5715 30.1846 39.3527 30.1846C40.1345 30.1846 40.1345 30.8899 40.9163 30.8899C40.9976 30.8899 41.066 30.8783 41.1321 30.8647C41.521 30.2658 41.7996 29.6239 41.998 29.0049C41.6454 29.2063 41.4924 29.5879 40.9163 29.5879Z" fill="#41479B"/>
<path d="M40.9163 30.8899C40.1346 30.8899 40.1346 30.1846 39.3528 30.1846C38.5715 30.1846 38.5715 30.8899 37.7903 30.8899C37.0097 30.8899 37.0097 30.1846 36.2291 30.1846C35.4486 30.1846 35.4487 30.8899 34.6683 30.8899C34.5879 30.8899 34.5204 30.8783 34.4548 30.8649C34.7019 31.2452 34.9945 31.607 35.339 31.9343C35.5777 31.7326 35.7673 31.4866 36.2292 31.4866C37.0098 31.4866 37.0098 32.1917 37.7904 32.1917C38.5716 32.1917 38.5716 31.4866 39.3529 31.4866C39.8166 31.4866 40.0063 31.7338 40.2463 31.9358C40.5915 31.6079 40.8847 31.2457 41.1322 30.8647C41.0661 30.8783 40.9976 30.8899 40.9163 30.8899Z" fill="#F5F5F5"/>
<path d="M40.2464 31.9358C40.0065 31.7338 39.8168 31.4865 39.353 31.4865C38.5717 31.4865 38.5717 32.1917 37.7905 32.1917C37.0099 32.1917 37.0099 31.4865 36.2293 31.4865C35.7674 31.4865 35.5779 31.7326 35.3391 31.9343C35.967 32.531 36.7676 33.0118 37.7935 33.2684C38.8186 33.0121 39.6187 32.5319 40.2464 31.9358Z" fill="#41479B"/>
<path d="M39.3521 24.9769C38.5708 24.9769 38.5708 25.682 37.7896 25.682C37.009 25.682 37.009 24.9769 36.2285 24.9769C35.4479 24.9769 35.448 25.682 34.6676 25.682C33.887 25.682 33.887 24.9769 33.1062 24.9769C33.1062 25.4217 33.1062 25.808 33.1062 26.0583C33.1062 26.1193 33.1076 26.1945 33.1105 26.2792C33.8863 26.2822 33.8885 26.984 34.6675 26.984C35.448 26.984 35.448 26.2788 36.2284 26.2788C37.0089 26.2788 37.0089 26.984 37.7895 26.984C38.5707 26.984 38.5707 26.2788 39.352 26.2788C40.1338 26.2788 40.1338 26.984 40.9156 26.984C41.6957 26.984 41.6979 26.2822 42.4748 26.2792C42.4778 26.1944 42.4791 26.1192 42.4791 26.0583C42.4791 25.808 42.4791 25.4216 42.4791 24.9769C41.6973 24.9769 41.6973 25.682 40.9156 25.682C40.1339 25.682 40.1339 24.9769 39.3521 24.9769Z" fill="#F5F5F5"/>
<path d="M42.1194 21.3718C42.3185 21.3718 42.4799 21.5332 42.4799 21.7323V24.9768V25.6978C42.4799 25.8344 42.4799 25.9593 42.4799 26.0582C42.4799 26.1193 42.4785 26.1945 42.4756 26.2791C42.4648 26.5908 42.429 27.0535 42.3377 27.5972C42.2652 28.0278 42.1572 28.508 41.998 29.0046C41.7997 29.6237 41.5211 30.2657 41.1322 30.8644C40.8847 31.2455 40.5915 31.6078 40.2464 31.9355C39.6186 32.5315 38.8185 33.0118 37.7936 33.2681C36.7677 33.0116 35.9671 32.5307 35.3392 31.934C34.9946 31.6067 34.702 31.245 34.455 30.8646C34.0661 30.2658 33.7875 29.624 33.5892 29.0051C33.4299 28.5083 33.3218 28.0279 33.2494 27.5971C33.158 27.0534 33.1223 26.5907 33.1115 26.279C33.1086 26.1943 33.1072 26.1191 33.1072 26.0581C33.1072 25.9592 33.1072 25.8342 33.1072 25.6977V24.9767V21.7322C33.1072 21.533 33.2687 21.3717 33.4677 21.3717H42.1196L42.1194 21.3718ZM42.1194 21.1015H33.4674C33.1195 21.1015 32.8364 21.3845 32.8364 21.7325V24.977V25.698V26.0584C32.8364 26.122 32.8378 26.2003 32.8409 26.2887C32.8512 26.5829 32.884 27.0566 32.9824 27.6422C33.0662 28.1408 33.1837 28.6272 33.3313 29.0879C33.5599 29.8007 33.8615 30.4482 34.2279 31.0121C34.4978 31.4275 34.8089 31.8037 35.1525 32.1303C35.8695 32.8116 36.7359 33.2827 37.7276 33.5307L37.7933 33.5471L37.8588 33.5307C38.8497 33.2829 39.7155 32.8122 40.4323 32.1318C40.7768 31.8047 41.0886 31.4278 41.3588 31.0118C41.7253 30.4477 42.0268 29.8002 42.2554 29.0871C42.403 28.6268 42.5203 28.1405 42.6042 27.6421C42.7027 27.0565 42.7355 26.5827 42.7457 26.2886C42.7487 26.2002 42.7502 26.1219 42.7502 26.0583V25.6979V24.9769V21.7324C42.7503 21.3845 42.4673 21.1015 42.1194 21.1015Z" fill="#F5F5F5"/>
<path d="M37.7936 31.0883L36.8043 31.7766L37.1534 30.623L36.1931 29.895L37.3978 29.8705L37.7936 28.7321L38.1894 29.8705L39.3941 29.895L38.4339 30.623L38.783 31.7766L37.7936 31.0883Z" fill="#73AF00"/>
<path d="M37.7933 28.9546L38.1368 29.9424L39.1825 29.9637L38.349 30.5956L38.6519 31.5967L37.7934 30.9992L36.9349 31.5967L37.2379 30.5956L36.4045 29.9638L37.4502 29.9425L37.7933 28.9546ZM37.7933 28.5098L37.6554 28.9067L37.3454 29.7986L36.4013 29.8179L35.9813 29.8264L36.3161 30.0803L37.0684 30.6508L36.7951 31.5546L36.6734 31.9568L37.0183 31.7168L37.7933 31.1775L38.5683 31.7168L38.9133 31.9568L38.7916 31.5546L38.5182 30.6508L39.2706 30.0803L39.6053 29.8264L39.1853 29.8179L38.2413 29.7986L37.9312 28.9067L37.7933 28.5098Z" fill="#FFE15A"/>
<path d="M35.6211 28.2765L34.6318 28.9647L34.9809 27.8112L34.0205 27.0831L35.2254 27.0587L35.6211 25.9202L36.0168 27.0587L37.2217 27.0831L36.2613 27.8112L36.6103 28.9647L35.6211 28.2765Z" fill="#73AF00"/>
<path d="M35.6207 26.1426L35.9642 27.1304L37.0099 27.1517L36.1765 27.7835L36.4794 28.7846L35.6209 28.1871L34.7624 28.7846L35.0654 27.7835L34.232 27.1517L35.2777 27.1304L35.6207 26.1426ZM35.6207 25.6978L35.4828 26.0947L35.1728 26.9866L34.2287 27.0059L33.8087 27.0144L34.1435 27.2683L34.8958 27.8388L34.6225 28.7426L34.5008 29.1448L34.8457 28.9048L35.6207 28.3655L36.3957 28.9048L36.7406 29.1448L36.619 28.7426L36.3456 27.8388L37.098 27.2683L37.4327 27.0144L37.0127 27.0059L36.0687 26.9866L35.7586 26.0947L35.6207 25.6978Z" fill="#FFE15A"/>
<path d="M39.9469 28.2765L38.9578 28.9647L39.3067 27.8112L38.3464 27.0831L39.5511 27.0587L39.9469 25.9202L40.3427 27.0587L41.5475 27.0831L40.5872 27.8112L40.9362 28.9647L39.9469 28.2765Z" fill="#73AF00"/>
<path d="M39.9464 26.1427L40.2899 27.1305L41.3355 27.1518L40.5021 27.7836L40.805 28.7847L39.9465 28.1872L39.088 28.7847L39.3909 27.7836L38.5575 27.1518L39.6032 27.1305L39.9464 26.1427ZM39.9464 25.6979L39.8085 26.0948L39.4985 26.9866L38.5544 27.006L38.1344 27.0145L38.4692 27.2684L39.2215 27.8389L38.9482 28.7427L38.8265 29.1448L39.1714 28.9049L39.9464 28.3656L40.7214 28.9049L41.0663 29.1448L40.9446 28.7427L40.6713 27.8389L41.4236 27.2684L41.7584 27.0145L41.3384 27.006L40.3944 26.9866L40.0843 26.0948L39.9464 25.6979Z" fill="#FFE15A"/>
<path d="M43.495 29.7317C42.6004 32.0096 40.3847 33.6289 37.7931 33.6289C35.2015 33.6289 32.9857 32.0095 32.0911 29.7317L30.7495 30.2566C31.8547 33.0704 34.5917 35.071 37.7931 35.071C40.9944 35.071 43.7314 33.0705 44.8366 30.2566L43.495 29.7317Z" fill="#FFE15A"/>
<path d="M38.5143 21.3719H37.4328L37.0723 20.2904H38.1538L38.5143 21.3719Z" fill="#F5F5F5"/>
<path d="M40.3169 21.3719H39.5959L39.3556 20.6509H39.6847C39.9188 20.6509 40.1265 20.8007 40.2005 21.0226L40.3169 21.3719Z" fill="#F5F5F5"/>
<path d="M36.3514 21.3719H35.6304L35.5482 21.1253C35.4704 20.8919 35.6441 20.6509 35.8902 20.6509H36.111L36.3514 21.3719Z" fill="#F5F5F5"/>
<path d="M39.5968 21.3719H38.5154L38.1549 20.2904H38.9766C39.1318 20.2904 39.2694 20.3896 39.3186 20.537L39.5968 21.3719Z" fill="#41479B"/>
<path d="M37.433 21.3719H36.3515L36.108 20.6415C36.0505 20.4688 36.179 20.2905 36.361 20.2905H37.0725L37.433 21.3719Z" fill="#41479B"/>
<path d="M40.4408 18.871C40.1591 19.2765 39.3706 19.7609 38.0863 19.7609C37.0281 19.7609 36.3475 19.1219 36.1203 18.87C36.0649 18.8086 36.036 18.7302 36.036 18.6475V18.4016C36.036 18.2958 36.0909 18.1995 36.1823 18.1463C36.4112 18.0131 36.9403 17.8006 37.9848 17.8006C39.2805 17.8006 40.4408 18.871 40.4408 18.871Z" fill="#509664"/>
</g>
<defs>
<clipPath id="clip0_108_49714">
<rect width="50" height="50" fill="white" transform="translate(0.310547 0.588135)"/>
</clipPath>
</defs>
</svg>
