<svg width="50" height="51" viewBox="0 0 50 51" fill="none" xmlns="http://www.w3.org/2000/svg">
<g clip-path="url(#clip0_108_49707)">
<path d="M49.1378 42.2604H0.862108C0.386034 42.2604 0 41.8743 0 41.3983V34.0707H49.9999V41.3983C49.9999 41.8745 49.6139 42.2604 49.1378 42.2604Z" fill="#FFE15A"/>
<path d="M49.9999 25.8811H0V34.0705H49.9999V25.8811Z" fill="#73AF00"/>
<path d="M49.9999 17.6917H0V25.8811H49.9999V17.6917Z" fill="#F5F5F5"/>
<path d="M49.9999 17.6915H0V10.364C0 9.8879 0.386034 9.50186 0.862108 9.50186H49.1379C49.614 9.50186 50 9.8879 50 10.364L49.9999 17.6915Z" fill="#41479B"/>
<path d="M29.0947 9.50223H20.9053V42.261H29.0947V9.50223Z" fill="#FF4B55"/>
<path d="M7.47066 10.6051L8.18999 12.7621L10.4636 12.7798C10.6398 12.7811 10.7127 13.0059 10.571 13.1106L8.74194 14.4612L9.42768 16.629C9.48081 16.7968 9.2896 16.9359 9.14634 16.8334L7.29663 15.5113L5.44693 16.8334C5.30357 16.9358 5.11246 16.7968 5.16558 16.629L5.85132 14.4612L4.02252 13.1106C3.88082 13.006 3.95387 12.7812 4.12994 12.7798L6.40357 12.7621L7.1229 10.6051C7.17857 10.4381 7.41489 10.4381 7.47066 10.6051Z" fill="#FFE15A"/>
</g>
<defs>
<clipPath id="clip0_108_49707">
<rect width="50" height="50" fill="white" transform="translate(0 0.881348)"/>
</clipPath>
</defs>
</svg>
