<svg width="51" height="51" viewBox="0 0 51 51" fill="none" xmlns="http://www.w3.org/2000/svg">
<g clip-path="url(#clip0_108_49662)">
<path d="M49.5646 42.2607H1.28887C0.812792 42.2607 0.426758 41.8746 0.426758 41.3986V10.3643C0.426758 9.88819 0.812792 9.50215 1.28887 9.50215H49.5647C50.0407 9.50215 50.4268 9.88819 50.4268 10.3643V41.3986C50.4267 41.8747 50.0406 42.2607 49.5646 42.2607Z" fill="#F5F5F5"/>
<path d="M25.4259 25.8815V9.5022H1.28818C1.07861 9.5022 0.893554 9.58618 0.744141 9.7106L25.4259 25.8815Z" fill="#464655"/>
<path d="M50.108 9.7106L25.426 25.8815H50.4259V10.3643C50.4261 10.0978 50.298 9.86861 50.108 9.7106Z" fill="#464655"/>
<path d="M0.743994 42.0524L25.4259 25.8815H0.426025V41.3986C0.426025 41.6651 0.554053 41.8943 0.743994 42.0524Z" fill="#464655"/>
<path d="M25.426 25.8815V42.2607H49.5639C49.7734 42.2607 49.9585 42.1767 50.1079 42.0523L25.426 25.8815Z" fill="#464655"/>
<path d="M27.4959 24.6745V27.433C27.4959 28.5739 26.5678 29.502 25.427 29.502C24.2862 29.502 23.3581 28.5739 23.3581 27.433V24.6745H27.4959ZM28.1856 23.2952H22.6684C22.2875 23.2952 21.9788 23.6039 21.9788 23.9848V27.433C21.9788 29.3374 23.5226 30.8813 25.427 30.8813C27.3314 30.8813 28.8752 29.3374 28.8752 27.433V23.9848C28.8752 23.6041 28.5664 23.2952 28.1856 23.2952Z" fill="#FF4B55"/>
<path d="M27.4958 24.6745V27.4331C27.4958 28.5739 26.5677 29.502 25.4269 29.502C24.286 29.502 23.3579 28.5739 23.3579 27.4331V24.6745H27.4958Z" fill="#F5F5F5"/>
<path d="M22.6642 24.3298C22.8546 24.3298 23.009 24.1754 23.009 23.9849C23.009 23.7945 22.8546 23.6401 22.6642 23.6401C22.4737 23.6401 22.3193 23.7945 22.3193 23.9849C22.3193 24.1754 22.4737 24.3298 22.6642 24.3298Z" fill="#FFE15A"/>
<path d="M28.1798 24.3299C28.3702 24.3299 28.5246 24.1755 28.5246 23.985C28.5246 23.7946 28.3702 23.6402 28.1798 23.6402C27.9893 23.6402 27.835 23.7946 27.835 23.985C27.835 24.1755 27.9893 24.3299 28.1798 24.3299Z" fill="#FFE15A"/>
<path d="M22.6632 27.0886C22.8536 27.0886 23.008 26.9343 23.008 26.7438C23.008 26.5534 22.8536 26.399 22.6632 26.399C22.4727 26.399 22.3184 26.5534 22.3184 26.7438C22.3184 26.9343 22.4727 27.0886 22.6632 27.0886Z" fill="#FFE15A"/>
<path d="M28.1798 27.0886C28.3702 27.0886 28.5246 26.9343 28.5246 26.7438C28.5246 26.5534 28.3702 26.399 28.1798 26.399C27.9893 26.399 27.835 26.5534 27.835 26.7438C27.835 26.9343 27.9893 27.0886 28.1798 27.0886Z" fill="#FFE15A"/>
<path d="M25.421 24.3299C25.6114 24.3299 25.7658 24.1755 25.7658 23.985C25.7658 23.7946 25.6114 23.6402 25.421 23.6402C25.2306 23.6402 25.0762 23.7946 25.0762 23.985C25.0762 24.1755 25.2306 24.3299 25.421 24.3299Z" fill="#FFE15A"/>
<path d="M25.421 30.5633C25.6114 30.5633 25.7658 30.4089 25.7658 30.2184C25.7658 30.028 25.6114 29.8736 25.421 29.8736C25.2306 29.8736 25.0762 30.028 25.0762 30.2184C25.0762 30.4089 25.2306 30.5633 25.421 30.5633Z" fill="#FFE15A"/>
<path d="M27.4913 29.6316C27.6817 29.6316 27.8361 29.4772 27.8361 29.2868C27.8361 29.0964 27.6817 28.942 27.4913 28.942C27.3009 28.942 27.1465 29.0964 27.1465 29.2868C27.1465 29.4772 27.3009 29.6316 27.4913 29.6316Z" fill="#FFE15A"/>
<path d="M23.3915 29.6316C23.5819 29.6316 23.7363 29.4772 23.7363 29.2868C23.7363 29.0964 23.5819 28.942 23.3915 28.942C23.201 28.942 23.0466 29.0964 23.0466 29.2868C23.0466 29.4772 23.201 29.6316 23.3915 29.6316Z" fill="#FFE15A"/>
<path d="M25.8715 26.5687V27.1626C25.8715 27.4082 25.6717 27.608 25.4261 27.608C25.1805 27.608 24.9807 27.4082 24.9807 27.1626V26.5687H25.8715Z" fill="#41479B"/>
<path d="M25.8715 25.1606V25.7545C25.8715 26.0001 25.6717 26.1999 25.4261 26.1999C25.1805 26.1999 24.9807 26.0001 24.9807 25.7545V25.1606H25.8715Z" fill="#41479B"/>
<path d="M25.8715 27.9911V28.5849C25.8715 28.8305 25.6717 29.0303 25.4261 29.0303C25.1805 29.0303 24.9807 28.8305 24.9807 28.5849V27.9911H25.8715Z" fill="#41479B"/>
<path d="M27.0711 26.5687V27.1626C27.0711 27.4082 26.8713 27.608 26.6257 27.608C26.3801 27.608 26.1802 27.4082 26.1802 27.1626V26.5687H27.0711Z" fill="#41479B"/>
<path d="M24.6716 26.5687V27.1626C24.6716 27.4082 24.4718 27.608 24.2262 27.608C23.9806 27.608 23.7808 27.4082 23.7808 27.1626V26.5687H24.6716Z" fill="#41479B"/>
<path d="M28.7654 23.2952H22.1225C21.8984 23.2952 21.7168 23.1135 21.7168 22.8895V22.636C21.7168 22.412 21.8984 22.2303 22.1225 22.2303H28.7654C28.9894 22.2303 29.1711 22.412 29.1711 22.636V22.8895C29.1712 23.1136 28.9894 23.2952 28.7654 23.2952Z" fill="#FFE15A"/>
<path d="M25.4438 22.4966L24.9114 22.7628L25.4438 23.0291L25.9763 22.7628L25.4438 22.4966Z" fill="#FF4B55"/>
<path d="M27.1742 23.0296C27.3948 23.0296 27.5735 22.9104 27.5735 22.7633C27.5735 22.6162 27.3948 22.497 27.1742 22.497C26.9537 22.497 26.7749 22.6162 26.7749 22.7633C26.7749 22.9104 26.9537 23.0296 27.1742 23.0296Z" fill="#4173CD"/>
<path d="M23.714 23.0296C23.9345 23.0296 24.1133 22.9103 24.1133 22.7632C24.1133 22.6162 23.9345 22.4969 23.714 22.4969C23.4935 22.4969 23.3147 22.6162 23.3147 22.7632C23.3147 22.9103 23.4935 23.0296 23.714 23.0296Z" fill="#4173CD"/>
<path d="M26.377 22.8963C26.4505 22.8963 26.5101 22.8367 26.5101 22.7632C26.5101 22.6897 26.4505 22.6301 26.377 22.6301C26.3035 22.6301 26.2439 22.6897 26.2439 22.7632C26.2439 22.8367 26.3035 22.8963 26.377 22.8963Z" fill="#F5F5F5"/>
<path d="M27.9737 22.8963C28.0472 22.8963 28.1068 22.8367 28.1068 22.7632C28.1068 22.6897 28.0472 22.6301 27.9737 22.6301C27.9002 22.6301 27.8406 22.6897 27.8406 22.7632C27.8406 22.8367 27.9002 22.8963 27.9737 22.8963Z" fill="#F5F5F5"/>
<path d="M24.5127 22.8963C24.5863 22.8963 24.6458 22.8367 24.6458 22.7632C24.6458 22.6897 24.5863 22.6301 24.5127 22.6301C24.4392 22.6301 24.3796 22.6897 24.3796 22.7632C24.3796 22.8367 24.4392 22.8963 24.5127 22.8963Z" fill="#F5F5F5"/>
<path d="M22.9153 22.8964C22.9888 22.8964 23.0484 22.8368 23.0484 22.7632C23.0484 22.6897 22.9888 22.6301 22.9153 22.6301C22.8418 22.6301 22.7822 22.6897 22.7822 22.7632C22.7822 22.8368 22.8418 22.8964 22.9153 22.8964Z" fill="#F5F5F5"/>
<path d="M21.7168 22.6297V22.8959L21.983 23.0291L22.5155 22.7628L21.983 22.4966L21.7168 22.6297Z" fill="#FF4B55"/>
<path d="M29.171 22.8958V22.6296L28.9047 22.4965L28.3723 22.7627L28.9047 23.029L29.171 22.8958Z" fill="#FF4B55"/>
<path d="M23.6721 20.4987C23.5871 20.457 23.4863 20.4827 23.4012 20.5485C23.4449 20.4839 23.4699 20.3978 23.4651 20.3041C23.4554 20.1137 23.3284 19.9653 23.1817 19.9729C23.0348 19.9803 22.9237 20.1407 22.9333 20.3312C22.9385 20.4323 22.978 20.5195 23.0347 20.5798C22.9201 20.5238 22.7947 20.5292 22.718 20.606C22.614 20.7099 22.639 20.9035 22.774 21.0383C22.9087 21.1733 23.1024 21.1982 23.2064 21.0943C23.2354 21.0652 23.2521 21.0285 23.2614 20.9887C23.2826 21.0444 23.3153 21.0927 23.367 21.1182C23.499 21.1831 23.6742 21.0972 23.7584 20.9262C23.8426 20.7551 23.804 20.5637 23.6721 20.4987ZM23.2807 20.6907C23.2612 20.7304 23.2497 20.771 23.243 20.811C23.2232 20.7585 23.1952 20.7068 23.1503 20.6617C23.1426 20.654 23.1332 20.6503 23.125 20.6432C23.1542 20.6553 23.1846 20.6639 23.2167 20.6622C23.2598 20.66 23.2981 20.6416 23.3329 20.6163C23.3145 20.6399 23.2949 20.6621 23.2807 20.6907Z" fill="#F5F5F5"/>
<path d="M27.0947 20.926C27.179 21.097 27.3541 21.1831 27.4861 21.118C27.5379 21.0924 27.5706 21.0441 27.5917 20.9885C27.6011 21.0283 27.6177 21.065 27.6467 21.0941C27.7507 21.1981 27.9443 21.1731 28.0791 21.0382C28.2139 20.9034 28.2389 20.7097 28.1351 20.6058C28.0583 20.5291 27.9331 20.5237 27.8184 20.5797C27.8752 20.5193 27.9146 20.4322 27.9198 20.331C27.9294 20.1406 27.8183 19.9801 27.6714 19.9727C27.5246 19.9653 27.3977 20.1135 27.388 20.304C27.3833 20.3977 27.4082 20.4838 27.4519 20.5483C27.3668 20.4826 27.2659 20.4568 27.181 20.4986C27.049 20.5636 27.0104 20.755 27.0947 20.926ZM27.5201 20.6164C27.5548 20.6418 27.5931 20.6601 27.6363 20.6623C27.6684 20.6639 27.6988 20.6552 27.728 20.6432C27.7199 20.6503 27.7104 20.654 27.7027 20.6618C27.6578 20.7067 27.6298 20.7586 27.61 20.811C27.6034 20.7711 27.5919 20.7303 27.5723 20.6908C27.5582 20.6621 27.5386 20.6398 27.5201 20.6164Z" fill="#F5F5F5"/>
<path d="M30.2857 19.7166C29.9022 19.5801 29.0954 19.507 28.7884 20.2041C28.7291 20.3388 28.7902 20.4958 28.9246 20.5551C29.0547 20.6125 29.2041 20.5557 29.2677 20.43L29.368 20.5488C29.284 20.7847 29.2503 20.9959 29.2409 21.0685C29.1039 21.6363 28.5767 21.6979 28.3552 21.6979C27.9979 21.6979 27.7958 21.3149 27.7939 21.3111C27.7575 21.2406 27.691 21.1894 27.6133 21.1725C27.5354 21.1556 27.4541 21.1736 27.3917 21.2224C27.2458 21.3371 26.792 21.6468 26.4497 21.7014C26.2847 21.7278 26.1499 21.7003 26.059 21.6223C25.9853 21.5595 25.9592 21.4805 25.9592 21.4318C25.9592 21.3125 26.106 21.1655 26.2255 21.1655C26.3161 21.1655 26.3507 21.2235 26.3507 21.2235C26.4139 21.3571 26.5727 21.4136 26.7055 21.3509C26.8385 21.2877 26.8952 21.1291 26.8323 20.9963C26.7806 20.8871 26.6383 20.7187 26.4045 20.6577C26.5465 20.4323 26.6771 20.1584 26.7581 19.8345L25.9593 19.5682C25.9593 19.5682 26.2256 18.7694 25.4269 18.7694C24.6282 18.7694 24.8945 19.5682 24.8945 19.5682L24.0958 19.8345C24.1768 20.1584 24.3072 20.4324 24.4493 20.6577C24.2156 20.7187 24.0732 20.8871 24.0215 20.9963C23.9586 21.1292 24.0153 21.2878 24.1483 21.3509C24.281 21.4135 24.4399 21.3571 24.5028 21.224C24.5028 21.224 24.5378 21.1655 24.6282 21.1655C24.7477 21.1655 24.8945 21.3124 24.8945 21.4318C24.8945 21.4805 24.8684 21.5596 24.7947 21.6223C24.7038 21.7004 24.569 21.7279 24.404 21.7014C24.0615 21.6468 23.6078 21.3371 23.462 21.2224C23.3996 21.1735 23.3183 21.1556 23.2404 21.1725C23.1628 21.1894 23.0962 21.2406 23.0598 21.3111C23.0579 21.315 22.8558 21.6979 22.4985 21.6979C22.2769 21.6979 21.7499 21.6363 21.6128 21.0685C21.6035 20.9959 21.5698 20.7848 21.4858 20.5488L21.5861 20.43C21.6497 20.5557 21.7992 20.6125 21.9292 20.5551C22.0637 20.4958 22.1247 20.3388 22.0654 20.2041C21.7584 19.5071 20.9516 19.5802 20.5681 19.7166C20.4584 19.7556 20.3866 19.8614 20.3911 19.9779C20.3955 20.0944 20.4753 20.1942 20.5878 20.2247C20.914 20.3123 21.0604 20.9358 21.0859 21.1471C21.0871 21.1561 21.0888 21.1658 21.0908 21.1749C21.2396 21.8259 21.7792 22.2305 22.4984 22.2305C22.9108 22.2305 23.1959 21.997 23.3613 21.8035C23.5945 21.9572 23.9698 22.1714 24.3201 22.227C24.3874 22.2377 24.4531 22.2432 24.5172 22.2432C24.7578 22.2432 24.9742 22.1691 25.1402 22.0274C25.3197 21.8743 25.4268 21.6514 25.4268 21.4318C25.4268 21.6515 25.5339 21.8743 25.7134 22.0274C25.8793 22.1691 26.0958 22.2432 26.3364 22.2432C26.4006 22.2432 26.4664 22.2378 26.5335 22.227C26.8838 22.1715 27.2592 21.9572 27.4923 21.8035C27.6579 21.997 27.9428 22.2305 28.3552 22.2305C29.0746 22.2305 29.614 21.826 29.7629 21.1749C29.7649 21.1658 29.7666 21.1561 29.7678 21.1471C29.7932 20.9356 29.9397 20.3123 30.2658 20.2247C30.3784 20.1943 30.4581 20.0944 30.4625 19.9779C30.4672 19.8613 30.3954 19.7556 30.2857 19.7166Z" fill="#FFE15A"/>
<path d="M20.8021 20.2635C20.6662 20.3198 20.6246 20.5306 20.709 20.7344C20.7935 20.9381 20.9722 21.0575 21.108 21.0012C21.2439 20.9448 21.2855 20.734 21.201 20.5303C21.1165 20.3266 20.9379 20.2071 20.8021 20.2635Z" fill="#4173CD"/>
<path d="M29.744 21.0027C29.8798 21.059 30.0585 20.9396 30.143 20.7359C30.2274 20.5322 30.1858 20.3213 30.0499 20.265C29.9141 20.2087 29.7355 20.3281 29.651 20.5318C29.5665 20.7355 29.6081 20.9464 29.744 21.0027Z" fill="#4173CD"/>
<path d="M25.4264 20.8992C25.6469 20.8992 25.8257 20.6608 25.8257 20.3668C25.8257 20.0727 25.6469 19.8344 25.4264 19.8344C25.2059 19.8344 25.0271 20.0727 25.0271 20.3668C25.0271 20.6608 25.2059 20.8992 25.4264 20.8992Z" fill="#4173CD"/>
</g>
<defs>
<clipPath id="clip0_108_49662">
<rect width="50" height="50" fill="white" transform="translate(0.427734 0.881348)"/>
</clipPath>
</defs>
</svg>
