<svg width="51" height="51" viewBox="0 0 51 51" fill="none" xmlns="http://www.w3.org/2000/svg">
<g clip-path="url(#clip0_108_49653)">
<path d="M50.1476 25.8814H0.147705V10.3642C0.147705 9.88808 0.53374 9.50204 1.00981 9.50204H49.2856C49.7617 9.50204 50.1477 9.88808 50.1477 10.3642L50.1476 25.8814Z" fill="#F5F5F5"/>
<path d="M1.87182 25.8814V25.0193H0.147705V25.8814V26.7435V41.3987C0.147705 41.8748 0.53374 42.2608 1.00981 42.2608H49.2856C49.7617 42.2608 50.1477 41.8748 50.1477 41.3987V25.8814H1.87182Z" fill="#FF4B55"/>
<path d="M15.665 25.8814H1.00981C0.53374 25.8814 0.147705 25.4954 0.147705 25.0193V10.3642C0.147705 9.88808 0.53374 9.50204 1.00981 9.50204H15.665C16.141 9.50204 16.5271 9.88808 16.5271 10.3642V25.0193C16.527 25.4954 16.141 25.8814 15.665 25.8814Z" fill="#41479B"/>
<path d="M8.66944 14.0149L9.49132 16.4792L12.089 16.4993C12.4253 16.5019 12.5647 16.9312 12.2941 17.1309L10.2045 18.6739L10.988 21.1507C11.0894 21.4714 10.7243 21.7365 10.4507 21.541L8.33741 20.0306L6.22404 21.5411C5.9504 21.7367 5.58537 21.4714 5.68673 21.1508L6.47023 18.674L4.38058 17.131C4.10998 16.9312 4.24943 16.502 4.58576 16.4994L7.18341 16.4793L8.00528 14.015C8.11173 13.6959 8.56309 13.6959 8.66944 14.0149Z" fill="#F5F5F5"/>
</g>
<defs>
<clipPath id="clip0_108_49653">
<rect width="50" height="50" fill="white" transform="translate(0.148438 0.881348)"/>
</clipPath>
</defs>
</svg>
