<svg width="51" height="51" viewBox="0 0 51 51" fill="none" xmlns="http://www.w3.org/2000/svg">
<g clip-path="url(#clip0_108_49633)">
<path d="M1.73076 9.50215H50.0065C50.4826 9.50215 50.8687 9.88819 50.8687 10.3643V41.3986C50.8687 41.8746 50.4826 42.2607 50.0065 42.2607H1.73076C1.25469 42.2607 0.868652 41.8746 0.868652 41.3986V10.3643C0.868652 9.88819 1.25469 9.50215 1.73076 9.50215Z" fill="#41479B"/>
<path d="M50.5504 42.0524L1.18652 9.71055C1.33594 9.58614 1.521 9.50215 1.73057 9.50215H50.0064C50.4824 9.50215 50.8685 9.88819 50.8685 10.3643V41.3986C50.8685 41.6651 50.7404 41.8943 50.5504 42.0524Z" fill="#73AF00"/>
<path d="M25.8684 31.0538C28.725 31.0538 31.0408 28.738 31.0408 25.8814C31.0408 23.0248 28.725 20.7091 25.8684 20.7091C23.0118 20.7091 20.696 23.0248 20.696 25.8814C20.696 28.738 23.0118 31.0538 25.8684 31.0538Z" fill="#FFE15A"/>
<path d="M4.63924 25.9398L4.93845 26.6977L5.71755 26.4591C5.76091 26.4459 5.79792 26.4924 5.77546 26.5318L5.36941 27.2382L6.04167 27.6986C6.07908 27.7242 6.0658 27.7822 6.02097 27.7891L5.2155 27.9122L5.27478 28.7248C5.2781 28.7699 5.22439 28.7958 5.19119 28.7651L4.59285 28.2121L3.99451 28.7651C3.96131 28.7958 3.9076 28.77 3.91092 28.7248L3.97019 27.9122L3.16473 27.7891C3.12 27.7823 3.10672 27.7242 3.14402 27.6986L3.81629 27.2382L3.41023 26.5318C3.38768 26.4925 3.42478 26.446 3.46814 26.4591L4.24724 26.6977L4.54646 25.9398C4.56297 25.8978 4.62254 25.8978 4.63924 25.9398Z" fill="#F5F5F5"/>
<path d="M15.5355 23.8968L15.8347 24.6548L16.6138 24.4162C16.6572 24.4029 16.6942 24.4495 16.6717 24.4888L16.2657 25.1953L16.9379 25.6556C16.9753 25.6812 16.962 25.7392 16.9172 25.7462L16.1117 25.8692L16.171 26.6818C16.1743 26.7269 16.1206 26.7528 16.0874 26.7221L15.4891 26.1691L14.8908 26.7221C14.8575 26.7528 14.8038 26.727 14.8072 26.6818L14.8664 25.8692L14.061 25.7462C14.0162 25.7393 14.003 25.6812 14.0403 25.6556L14.7125 25.1953L14.3065 24.4888C14.2839 24.4496 14.321 24.403 14.3644 24.4162L15.1435 24.6548L15.4427 23.8968C15.4593 23.8547 15.5189 23.8547 15.5355 23.8968Z" fill="#F5F5F5"/>
<path d="M10.0875 18.9837L10.3867 19.7416L11.1658 19.503C11.2092 19.4897 11.2462 19.5363 11.2237 19.5756L10.8177 20.2821L11.4899 20.7424C11.5273 20.768 11.514 20.826 11.4692 20.833L10.6637 20.956L10.723 21.7686C10.7263 21.8137 10.6726 21.8396 10.6394 21.8089L10.0411 21.2559L9.44275 21.8089C9.40955 21.8396 9.35584 21.8138 9.35916 21.7686L9.41844 20.956L8.61297 20.833C8.56824 20.8261 8.55496 20.768 8.59227 20.7424L9.26453 20.2821L8.85848 19.5756C8.83592 19.5364 8.87303 19.4898 8.91639 19.503L9.69549 19.7416L9.99471 18.9837C10.0113 18.9416 10.0709 18.9416 10.0875 18.9837Z" fill="#F5F5F5"/>
<path d="M10.0875 36.8361L10.3867 37.594L11.1658 37.3554C11.2092 37.3421 11.2462 37.3887 11.2237 37.428L10.8177 38.1345L11.4899 38.5948C11.5273 38.6204 11.514 38.6784 11.4692 38.6854L10.6637 38.8084L10.723 39.621C10.7263 39.6661 10.6726 39.692 10.6394 39.6613L10.0411 39.1083L9.44275 39.6613C9.40955 39.692 9.35584 39.6662 9.35916 39.621L9.41844 38.8084L8.61297 38.6854C8.56824 38.6785 8.55496 38.6204 8.59227 38.5948L9.26453 38.1345L8.85848 37.428C8.83592 37.3888 8.87303 37.3422 8.91639 37.3554L9.69549 37.594L9.99471 36.8361C10.0113 36.794 10.0709 36.794 10.0875 36.8361Z" fill="#F5F5F5"/>
<path d="M12.3172 26.6256L12.526 27.2519L13.1862 27.257C13.2374 27.2574 13.2585 27.3226 13.2175 27.353L12.6863 27.7453L12.8855 28.3747C12.9009 28.4235 12.8454 28.4638 12.8038 28.434L12.2667 28.05L11.7296 28.434C11.688 28.4638 11.6325 28.4235 11.648 28.3747L11.8471 27.7453L11.3159 27.353C11.2747 27.3226 11.296 27.2573 11.3472 27.257L12.0074 27.2519L12.2162 26.6256C12.2324 26.5772 12.301 26.5772 12.3172 26.6256Z" fill="#F5F5F5"/>
<path d="M22.7997 23.6564C22.5882 23.6071 22.3756 24.1512 22.6112 24.3397C22.8469 24.5282 23.271 24.8816 23.0118 25.0937C22.7526 25.3058 22.6584 25.3294 22.6112 25.5886C22.5641 25.8477 22.6112 25.8949 22.3991 26.0127C22.187 26.1304 21.6922 26.3661 21.9043 26.6018C22.1164 26.8376 22.3991 26.6962 22.5876 26.3191C22.5876 26.3191 23.9071 26.272 23.9543 26.3662C24.0014 26.4605 24.1192 26.8139 24.402 26.7196C24.6847 26.6253 24.6847 26.6253 24.6847 26.6253C24.6847 26.6253 24.8497 26.5546 24.9675 26.696C25.0852 26.8374 25.368 26.8844 25.6979 26.8844C26.0278 26.8844 26.3105 27.0729 26.2871 27.5207C26.2721 27.8075 26.1988 28.4038 26.1483 28.7953C26.1213 29.0049 26.265 29.1978 26.4735 29.2326L27.0768 29.3332C27.2355 29.3595 27.3831 29.2464 27.3972 29.0861C27.4256 28.7638 27.4667 28.2915 27.4653 28.2748C27.4517 28.1053 27.7952 27.2381 27.7717 26.8374C27.748 26.4368 27.748 26.4368 27.748 26.4368C27.748 26.4368 28.1014 26.3897 28.2429 26.1541C28.3843 25.9184 28.6906 25.3294 29.3032 25.1174L29.4681 24.7168C29.4681 24.7168 28.9969 24.5047 29.0911 24.3634C29.1854 24.222 29.2325 23.8449 29.1618 23.5387C29.0911 23.2324 29.0675 22.8082 29.0675 22.8082C29.0675 22.8082 28.8995 22.7372 28.864 22.8348C28.8286 22.9325 28.793 22.9856 28.7044 22.968C28.6157 22.9502 28.4826 22.9413 28.4471 22.8615C28.4117 22.7816 28.314 22.7018 28.2254 22.7462C28.1367 22.7906 27.9858 23.3848 27.773 23.447C27.773 23.447 27.7553 23.1897 27.6222 23.243C27.4892 23.2962 27.498 23.4203 27.4804 23.6421C27.4627 23.8638 25.9722 25.363 24.6682 24.9638C24.6682 24.9638 24.5264 24.6801 24.2336 24.7066C23.9408 24.7333 23.6569 24.7244 23.4885 24.5203C23.3198 24.3162 23.0514 23.7153 22.7997 23.6564Z" fill="#73AF00"/>
<path d="M32.3955 26.1214C32.7885 26.5389 37.1064 27.7148 41.4709 25.4286C45.8354 23.1424 48.4333 22.4844 48.4333 22.4844C48.4333 22.4844 48.4679 21.8955 49.0049 21.809C49.5417 21.7223 49.282 21.4973 49.1434 21.3241C49.0049 21.151 48.3295 20.6833 47.4114 21.0816C47.4114 21.0816 46.3435 21.1221 46.1818 19.6441C46.0202 18.1662 45.9509 16.6651 45.5814 16.0186C45.2119 15.3721 42.1638 12.1392 41.7942 12.3932C41.4247 12.6472 42.718 15.857 43.9188 16.9887C43.9188 16.9887 44.196 18.9747 43.8495 19.067C43.503 19.1594 41.5865 17.4043 38.1688 16.9887C38.1688 16.9887 39.6236 18.9747 41.4018 19.806C43.1799 20.6374 43.6647 21.3995 43.6186 21.7227C43.5725 22.046 42.9721 23.5932 41.9791 24.3092C40.9861 25.025 38.4922 26.9647 32.8344 25.9487C32.8343 25.9482 32.2109 25.9252 32.3955 26.1214Z" fill="#FFE15A"/>
</g>
<defs>
<clipPath id="clip0_108_49633">
<rect width="50" height="50" fill="white" transform="translate(0.869141 0.881348)"/>
</clipPath>
</defs>
</svg>
