<svg width="51" height="51" viewBox="0 0 51 51" fill="none" xmlns="http://www.w3.org/2000/svg">
<g clip-path="url(#clip0_108_49621)">
<path d="M49.3004 42.2607H1.02471C0.548632 42.2607 0.162598 41.8746 0.162598 41.3986V10.3643C0.162598 9.88819 0.548632 9.50215 1.02471 9.50215H49.3005C49.7766 9.50215 50.1626 9.88819 50.1626 10.3643V41.3986C50.1625 41.8747 49.7765 42.2607 49.3004 42.2607Z" fill="#73AF00"/>
<path d="M27.8599 30.925C25.0746 30.925 22.8165 28.667 22.8165 25.8815C22.8165 23.0961 25.0745 20.8381 27.8599 20.8381C28.2295 20.8381 28.5877 20.8824 28.9329 20.9616C29.0705 20.9931 29.1434 20.8085 29.0234 20.7342C27.9671 20.0793 26.6952 19.7396 25.3375 19.8501C22.3821 20.0905 20.0061 22.4999 19.805 25.4583C19.5645 28.9923 22.36 31.9336 25.8426 31.9336C27.0101 31.9336 28.0994 31.602 29.0237 31.0289C29.1437 30.9545 29.0711 30.7697 28.9334 30.8014C28.5879 30.8806 28.2296 30.925 27.8599 30.925Z" fill="#FFE15A"/>
<path d="M32.2558 21.6112L32.6347 22.5706L33.6209 22.2685C33.6757 22.2517 33.7227 22.3108 33.6941 22.3604L33.1803 23.2547L34.0313 23.8375C34.0786 23.8698 34.0618 23.9434 34.0052 23.952L32.9855 24.1079L33.0605 25.1365C33.0647 25.1936 32.9968 25.2263 32.9547 25.1874L32.1972 24.4874L31.4398 25.1874C31.3977 25.2263 31.3298 25.1936 31.334 25.1365L31.409 24.1079L30.3893 23.952C30.3327 23.9434 30.316 23.8698 30.3632 23.8375L31.2142 23.2547L30.7004 22.3604C30.6719 22.3107 30.7188 22.2518 30.7736 22.2685L31.7598 22.5706L32.1387 21.6112C32.1595 21.5579 32.2348 21.5579 32.2558 21.6112Z" fill="#FFE15A"/>
<path d="M46.0491 19.025L46.4279 19.9843L47.4141 19.6823C47.4689 19.6655 47.5159 19.7246 47.4873 19.7742L46.9735 20.6685L47.8245 21.2512C47.8718 21.2836 47.855 21.3572 47.7984 21.3658L46.7787 21.5216L46.8537 22.5503C46.8579 22.6075 46.79 22.6402 46.7479 22.6013L45.9905 21.9013L45.233 22.6013C45.1909 22.6402 45.123 22.6075 45.1272 22.5503L45.2022 21.5216L44.1826 21.3658C44.1259 21.3572 44.1092 21.2836 44.1564 21.2512L45.0075 20.6685L44.4936 19.7742C44.4651 19.7245 44.512 19.6656 44.5668 19.6823L45.5531 19.9843L45.9319 19.025C45.9527 18.9717 46.0281 18.9717 46.0491 19.025Z" fill="#FFE15A"/>
<path d="M39.1526 12.8056L39.5314 13.765L40.5176 13.463C40.5724 13.4462 40.6195 13.5053 40.5909 13.5549L40.077 14.4492L40.9281 15.0319C40.9753 15.0642 40.9585 15.1379 40.9019 15.1465L39.8823 15.3023L39.9573 16.3309C39.9615 16.3881 39.8935 16.4208 39.8514 16.3819L39.094 15.6819L38.3366 16.3819C38.2945 16.4208 38.2265 16.3881 38.2307 16.3309L38.3057 15.3023L37.2861 15.1465C37.2294 15.1379 37.2127 15.0642 37.2599 15.0319L38.111 14.4492L37.5971 13.5549C37.5686 13.5052 37.6157 13.4463 37.6703 13.463L38.6566 13.765L39.0354 12.8056C39.0561 12.7523 39.1316 12.7523 39.1526 12.8056Z" fill="#FFE15A"/>
<path d="M39.1526 35.4042L39.5314 36.3636L40.5176 36.0616C40.5724 36.0448 40.6195 36.1038 40.5909 36.1535L40.077 37.0478L40.9281 37.6305C40.9753 37.6628 40.9585 37.7365 40.9019 37.7451L39.8823 37.9009L39.9573 38.9295C39.9615 38.9867 39.8935 39.0194 39.8514 38.9805L39.094 38.2805L38.3366 38.9805C38.2945 39.0194 38.2265 38.9867 38.2307 38.9295L38.3057 37.9009L37.2861 37.7451C37.2294 37.7365 37.2127 37.6628 37.2599 37.6305L38.111 37.0478L37.5971 36.1535C37.5686 36.1037 37.6157 36.0449 37.6703 36.0616L38.6566 36.3636L39.0354 35.4042C39.0561 35.351 39.1316 35.351 39.1526 35.4042Z" fill="#FFE15A"/>
<path d="M41.9755 22.4793L42.2399 23.2721L43.0755 23.2786C43.1403 23.2791 43.1671 23.3617 43.1151 23.4001L42.4428 23.8966L42.6949 24.6934C42.7144 24.7551 42.6441 24.8062 42.5915 24.7685L41.9115 24.2825L41.2315 24.7685C41.1788 24.8061 41.1086 24.7551 41.1281 24.6934L41.3801 23.8966L40.7079 23.4001C40.6558 23.3617 40.6827 23.279 40.7474 23.2786L41.5831 23.2721L41.8475 22.4793C41.868 22.4179 41.9548 22.4179 41.9755 22.4793Z" fill="#FFE15A"/>
<path d="M9.21508 24.1579C12.3098 24.1579 14.8186 21.6491 14.8186 18.5544C14.8186 15.4596 12.3098 12.9509 9.21508 12.9509C6.12035 12.9509 3.61157 15.4596 3.61157 18.5544C3.61157 21.6491 6.12035 24.1579 9.21508 24.1579Z" fill="#FFE15A"/>
<path d="M8.63818 22.9195H10.1515C10.1515 22.9195 11.0112 19.0675 10.2202 17.6919L9.73877 18.0013C9.73877 18.0013 10.5298 20.6495 8.63818 22.9195Z" fill="#964B50"/>
<path d="M8.69521 17.8638C8.69521 17.8638 7.82402 18.4598 8.09912 20.2254C8.09912 20.2254 8.76396 19.6751 9.13085 18.4598C9.13085 18.4598 8.60351 19.4686 9.3372 20.2712C9.3372 20.2712 10.1167 19.1706 10.002 18.2076C10.002 18.2076 12.5937 20.914 12.0427 20.2253C11.951 20.1106 12.1803 18.9641 11.286 18.0242C11.286 18.0242 12.7535 18.391 13.3037 18.2535C13.3037 18.2535 13.3496 17.0841 11.9509 16.8777L12.2719 15.9606C12.2719 15.9606 11.1943 15.8919 10.621 16.4421C10.621 16.4421 10.4834 15.0205 11.0566 14.3327C11.0566 14.3327 9.35995 14.0805 9.29111 16.3046C9.29111 16.3046 8.67206 14.883 6.76904 15.227C6.76904 15.227 7.84658 16.0065 8.03017 16.3506C8.03017 16.3506 6.51689 15.3188 5.80615 16.7633C5.80615 16.7633 7.02138 16.4423 7.45703 17.0155C7.45703 17.0155 5.50811 16.8092 5.34766 18.483C5.34775 18.4829 7.15908 17.6345 8.69521 17.8638Z" fill="#73AF00"/>
</g>
<defs>
<clipPath id="clip0_108_49621">
<rect width="50" height="50" fill="white" transform="translate(0.162109 0.881348)"/>
</clipPath>
</defs>
</svg>
