<svg width="51" height="51" viewBox="0 0 51 51" fill="none" xmlns="http://www.w3.org/2000/svg">
<g clip-path="url(#clip0_108_49605)">
<path d="M1.74565 9.50215H50.0214C50.4975 9.50215 50.8835 9.88819 50.8835 10.3643V17.6918H0.883545V10.3643C0.883545 9.88819 1.26958 9.50215 1.74565 9.50215Z" fill="#FFE15A"/>
<path d="M50.8834 17.692H0.883545V25.8814H50.8834V17.692Z" fill="#F5F5F5"/>
<path d="M50.8834 25.8814H0.883545V34.0708H50.8834V25.8814Z" fill="#FF4B55"/>
<path d="M0.883545 34.0711H50.8834V41.3986C50.8834 41.8747 50.4974 42.2607 50.0213 42.2607H1.74565C1.26958 42.2607 0.883545 41.8747 0.883545 41.3986V34.0711Z" fill="#4173CD"/>
<path d="M1.20151 42.0524L25.36 26.2244C25.607 26.0625 25.607 25.7004 25.36 25.5383L1.20151 9.71054C1.01157 9.86855 0.883545 10.0977 0.883545 10.3642V41.3986C0.883545 41.6651 1.01157 41.8943 1.20151 42.0524Z" fill="#73AF00"/>
<path d="M5.65234 25.8814C5.65234 22.7643 7.68993 20.1268 10.5048 19.2184C10.6527 19.1707 10.6321 18.9547 10.4779 18.9345C10.1882 18.8966 9.89296 18.8761 9.59276 18.8761C5.72382 18.8761 2.5874 22.0125 2.5874 25.8814C2.5874 29.7504 5.72382 32.8868 9.59276 32.8868C9.89296 32.8868 10.1882 32.8663 10.4779 32.8284C10.6321 32.8082 10.6527 32.5922 10.5048 32.5444C7.68993 31.6361 5.65234 28.9987 5.65234 25.8814Z" fill="#F5F5F5"/>
<path d="M10.5409 20.5306L10.7337 21.1088L11.3432 21.1136C11.4221 21.1143 11.4548 21.2149 11.3913 21.2618L10.901 21.6239L11.0848 22.205C11.1086 22.2802 11.023 22.3425 10.9587 22.2966L10.4628 21.9422L9.96694 22.2966C9.90268 22.3425 9.81704 22.2802 9.84087 22.205L10.0247 21.6239L9.53432 21.2618C9.47085 21.2149 9.50366 21.1141 9.58247 21.1136L10.1919 21.1088L10.3848 20.5306C10.4099 20.4557 10.5159 20.4557 10.5409 20.5306Z" fill="#F5F5F5"/>
<path d="M10.5409 23.4609L10.7337 24.0391L11.3432 24.0439C11.4221 24.0446 11.4548 24.1452 11.3913 24.192L10.901 24.5541L11.0848 25.1353C11.1086 25.2105 11.023 25.2728 10.9587 25.2269L10.4628 24.8725L9.96694 25.2269C9.90268 25.2728 9.81704 25.2105 9.84087 25.1353L10.0247 24.5541L9.53432 24.192C9.47085 24.1452 9.50366 24.0444 9.58247 24.0439L10.1919 24.0391L10.3848 23.4609C10.4099 23.3861 10.5159 23.3861 10.5409 23.4609Z" fill="#F5F5F5"/>
<path d="M10.5409 26.3912L10.7337 26.9694L11.3432 26.9742C11.4221 26.9748 11.4548 27.0754 11.3913 27.1223L10.901 27.4844L11.0848 28.0656C11.1086 28.1408 11.023 28.2031 10.9587 28.1572L10.4628 27.8028L9.96694 28.1572C9.90268 28.2031 9.81704 28.1408 9.84087 28.0656L10.0247 27.4844L9.53432 27.1223C9.47085 27.0754 9.50366 26.9746 9.58247 26.9742L10.1919 26.9694L10.3848 26.3912C10.4099 26.3163 10.5159 26.3163 10.5409 26.3912Z" fill="#F5F5F5"/>
<path d="M10.5409 29.3215L10.7337 29.8998L11.3432 29.9045C11.4221 29.9052 11.4548 30.0058 11.3913 30.0527L10.901 30.4148L11.0848 30.996C11.1086 31.0712 11.023 31.1335 10.9587 31.0876L10.4628 30.7332L9.96694 31.0876C9.90268 31.1335 9.81704 31.0712 9.84087 30.996L10.0247 30.4148L9.53432 30.0527C9.47085 30.0058 9.50366 29.905 9.58247 29.9045L10.1919 29.8998L10.3848 29.3215C10.4099 29.2466 10.5159 29.2466 10.5409 29.3215Z" fill="#F5F5F5"/>
</g>
<defs>
<clipPath id="clip0_108_49605">
<rect width="50" height="50" fill="white" transform="translate(0.882812 0.881348)"/>
</clipPath>
</defs>
</svg>
