<svg width="51" height="51" viewBox="0 0 51 51" fill="none" xmlns="http://www.w3.org/2000/svg">
<g clip-path="url(#clip0_108_49579)">
<path d="M49.4482 41.3954H1.17253C0.696459 41.3954 0.310425 41.0094 0.310425 40.5333V9.49901C0.310425 9.02294 0.696459 8.6369 1.17253 8.6369H49.4483C49.9244 8.6369 50.3104 9.02294 50.3104 9.49901V40.5333C50.3103 41.0095 49.9243 41.3954 49.4482 41.3954Z" fill="#41479B"/>
<path d="M24.4483 8.6369H22.9509L14.9656 13.8686V8.6369H10.6552V13.8686L2.66989 8.6369H1.17253C0.696459 8.6369 0.310425 9.02294 0.310425 9.49901V10.1828L7.16149 14.6714H0.310425V18.9817H7.16149L0.310425 23.4704V24.1541C0.310425 24.6301 0.696459 25.0162 1.17253 25.0162H2.66989L10.6552 19.7844V25.0162H14.9656V19.7844L22.9508 25.0162H24.4482C24.9242 25.0162 25.3103 24.6301 25.3103 24.1541V23.4703L18.4593 18.9817H25.3103V14.6714H18.4592L25.3103 10.1828V9.49901C25.3103 9.02294 24.9244 8.6369 24.4483 8.6369Z" fill="#F5F5F5"/>
<path d="M25.3103 15.5336H14.1035V8.63705H11.5172V15.5336H0.310425V18.1198H11.5172V25.0163H14.1035V18.1198H25.3103V15.5336Z" fill="#FF4B55"/>
<path d="M9.793 14.6715L0.721142 8.7827C0.479736 8.93553 0.310303 9.19217 0.310303 9.4991V9.54383L8.2096 14.6715H9.793Z" fill="#FF4B55"/>
<path d="M16.5489 14.6715L25.1791 9.06933C25.0291 8.81552 24.7645 8.63701 24.4482 8.63701H24.2617L14.9655 14.6715H16.5489Z" fill="#FF4B55"/>
<path d="M9.04759 18.9818L0.433838 24.5732C0.582373 24.8332 0.851122 25.0163 1.17202 25.0163H1.33462L10.631 18.9818H9.04759Z" fill="#FF4B55"/>
<path d="M25.2964 24.222L17.2236 18.9819H15.6403L24.8075 24.9325C25.0822 24.8051 25.2705 24.538 25.2964 24.222Z" fill="#FF4B55"/>
<path d="M37.1388 14.6757L37.4549 15.6237L38.4543 15.6314C38.5316 15.6321 38.5637 15.7307 38.5014 15.7768L37.6975 16.3705L37.9989 17.3233C38.0222 17.3971 37.9382 17.4583 37.8752 17.4131L37.0621 16.832L36.249 17.4131C36.1859 17.4582 36.102 17.3971 36.1253 17.3233L36.4266 16.3705L35.6227 15.7768C35.5604 15.7308 35.5925 15.632 35.6699 15.6314L36.6692 15.6237L36.9853 14.6757C37.0105 14.6022 37.1144 14.6022 37.1388 14.6757Z" fill="#F5F5F5"/>
<path d="M32.8897 15.8418L33.5641 16.5793L34.4801 16.18C34.5511 16.149 34.6206 16.2262 34.5823 16.2935L34.0894 17.1628L34.7523 17.9106C34.8036 17.9686 34.7517 18.0586 34.6759 18.043L33.6968 17.8428L33.1905 18.7044C33.1512 18.7711 33.0496 18.7495 33.0408 18.6725L32.9286 17.6796L31.9528 17.4642C31.8771 17.4475 31.8663 17.3442 31.9368 17.3122L32.8466 16.8986L32.7498 15.904C32.7425 15.8268 32.8374 15.7846 32.8897 15.8418Z" fill="#F5F5F5"/>
<path d="M29.4822 18.6352L30.3982 19.0345L31.0726 18.297C31.1249 18.2399 31.2198 18.2822 31.2123 18.3592L31.1155 19.3539L32.0253 19.7674C32.0958 19.7995 32.0849 19.9028 32.0094 19.9195L31.0335 20.1348L30.9213 21.1278C30.9126 21.2047 30.8109 21.2263 30.7717 21.1596L30.2653 20.2981L29.2862 20.4983C29.2103 20.5138 29.1584 20.4239 29.2099 20.3659L29.8727 19.618L29.3798 18.7488C29.3417 18.6815 29.4111 18.6043 29.4822 18.6352Z" fill="#F5F5F5"/>
<path d="M27.5047 22.5733L28.504 22.5656L28.8203 21.6175C28.8447 21.544 28.9486 21.544 28.9732 21.6175L29.2893 22.5656L30.2886 22.5733C30.366 22.574 30.3981 22.6726 30.3358 22.7187L29.5319 23.3124L29.8332 24.2652C29.8566 24.339 29.7726 24.4002 29.7095 24.355L28.8964 23.7739L28.0833 24.355C28.0203 24.4001 27.9364 24.339 27.9596 24.2652L28.261 23.3124L27.4571 22.7187C27.3953 22.6726 27.4274 22.5738 27.5047 22.5733Z" fill="#F5F5F5"/>
<path d="M27.3012 26.9748L28.211 26.5613L28.1142 25.5666C28.1067 25.4896 28.2016 25.4474 28.2538 25.5044L28.9283 26.2419L29.8443 25.8426C29.9153 25.8117 29.9848 25.8888 29.9465 25.9562L29.4535 26.8255L30.1164 27.5734C30.1678 27.6314 30.1159 27.7213 30.0401 27.7058L29.061 27.5056L28.5546 28.3671C28.5154 28.4338 28.4138 28.4122 28.405 28.3353L28.2928 27.3423L27.3169 27.127C27.2415 27.1102 27.2307 27.0069 27.3012 26.9748Z" fill="#F5F5F5"/>
<path d="M28.905 31.0789L29.5679 30.3311L29.0749 29.4618C29.0367 29.3945 29.1063 29.3173 29.1772 29.3483L30.0932 29.7476L30.7676 29.0101C30.8198 28.953 30.9148 28.9953 30.9072 29.0723L30.8105 30.0669L31.7202 30.4805C31.7907 30.5125 31.7798 30.6159 31.7043 30.6326L30.7284 30.8479L30.6162 31.8409C30.6075 31.9178 30.5059 31.9394 30.4666 31.8727L29.9603 31.0112L28.9812 31.2114C28.9056 31.2268 28.8536 31.1369 28.905 31.0789Z" fill="#F5F5F5"/>
<path d="M32.0393 34.1759L32.3407 33.2231L31.5368 32.6294C31.4745 32.5834 31.5066 32.4846 31.5839 32.484L32.5833 32.4763L32.8995 31.5282C32.9239 31.4547 33.0278 31.4547 33.0524 31.5282L33.3685 32.4763L34.3678 32.484C34.4452 32.4847 34.4773 32.5833 34.415 32.6294L33.6111 33.2231L33.9125 34.1759C33.9358 34.2497 33.8518 34.3109 33.7887 34.2657L32.9756 33.6846L32.1626 34.2657C32.1002 34.3108 32.0161 34.2497 32.0393 34.1759Z" fill="#F5F5F5"/>
<path d="M36.1625 35.7302L36.0503 34.7372L35.0745 34.5219C34.9988 34.5052 34.988 34.4019 35.0585 34.3698L35.9683 33.9563L35.8715 32.9616C35.864 32.8846 35.9589 32.8423 36.0112 32.8994L36.6856 33.6369L37.6016 33.2376C37.6726 33.2066 37.7421 33.2838 37.7039 33.3512L37.2109 34.2204L37.8738 34.9683C37.9251 35.0263 37.8732 35.1162 37.7974 35.1007L36.8183 34.9005L36.312 35.762C36.2727 35.8287 36.1711 35.8071 36.1625 35.7302Z" fill="#F5F5F5"/>
<path d="M40.5612 35.4733L40.0549 34.6117L39.0758 34.8119C38.9999 34.8275 38.9479 34.7375 38.9994 34.6795L39.6623 33.9317L39.1693 33.0624C39.1312 32.995 39.2007 32.9179 39.2716 32.9488L40.1876 33.3482L40.862 32.6107C40.9143 32.5535 41.0092 32.5958 41.0017 32.6729L40.9049 33.6675L41.8146 34.0811C41.8851 34.1131 41.8742 34.2164 41.7987 34.2331L40.8228 34.4485L40.7106 35.4414C40.7021 35.5184 40.6005 35.54 40.5612 35.4733Z" fill="#F5F5F5"/>
<path d="M44.4754 33.4493L43.6623 32.8681L42.8492 33.4493C42.7861 33.4943 42.7022 33.4332 42.7255 33.3594L43.0268 32.4066L42.2229 31.8129C42.1606 31.7669 42.1928 31.6681 42.2701 31.6675L43.2694 31.6598L43.5856 30.7118C43.61 30.6382 43.714 30.6382 43.7386 30.7118L44.0547 31.6598L45.054 31.6675C45.1313 31.6682 45.1635 31.7668 45.1012 31.8129L44.2973 32.4066L44.5986 33.3594C44.6223 33.4331 44.5383 33.4943 44.4754 33.4493Z" fill="#F5F5F5"/>
<path d="M47.2278 30.0081L46.2487 29.808L45.7423 30.6695C45.7031 30.7362 45.6015 30.7146 45.5927 30.6376L45.4805 29.6447L44.5046 29.4293C44.429 29.4126 44.4182 29.3093 44.4887 29.2773L45.3985 28.8637L45.3017 27.8691C45.2942 27.792 45.3891 27.7499 45.4414 27.8069L46.1158 28.5444L47.0318 28.1451C47.1028 28.1141 47.1723 28.1913 47.134 28.2586L46.6411 29.1279L47.304 29.8757C47.3556 29.9337 47.3037 30.0237 47.2278 30.0081Z" fill="#F5F5F5"/>
<path d="M48.3426 25.7453L47.3667 25.9606L47.2545 26.9536C47.2458 27.0305 47.1442 27.0521 47.1049 26.9854L46.5986 26.1239L45.6195 26.3241C45.5436 26.3396 45.4916 26.2497 45.5431 26.1916L46.206 25.4438L45.713 24.5745C45.6748 24.5071 45.7444 24.4299 45.8153 24.4609L46.7313 24.8602L47.4057 24.1227C47.4579 24.0656 47.5529 24.1079 47.5454 24.1849L47.4486 25.1795L48.3583 25.5931C48.429 25.6252 48.4182 25.7287 48.3426 25.7453Z" fill="#F5F5F5"/>
<path d="M47.6268 21.3974L46.8229 21.991L47.1243 22.9439C47.1476 23.0177 47.0636 23.0788 47.0005 23.0337L46.1874 22.4526L45.3744 23.0337C45.3113 23.0787 45.2274 23.0177 45.2506 22.9439L45.552 21.991L44.7481 21.3974C44.6858 21.3514 44.7179 21.2526 44.7953 21.252L45.7946 21.2443L46.1108 20.2962C46.1352 20.2227 46.2391 20.2227 46.2637 20.2962L46.5798 21.2443L47.5791 21.252C47.657 21.2526 47.6891 21.3514 47.6268 21.3974Z" fill="#F5F5F5"/>
<path d="M45.205 17.7164L44.7121 18.5857L45.3749 19.3335C45.4263 19.3916 45.3744 19.4815 45.2986 19.466L44.3195 19.2658L43.8131 20.1273C43.7739 20.194 43.6723 20.1724 43.6635 20.0955L43.5513 19.1025L42.5754 18.8872C42.4998 18.8705 42.489 18.7671 42.5595 18.7351L43.4693 18.3215L43.3725 17.3269C43.365 17.2499 43.4599 17.2076 43.5122 17.2647L44.1866 18.0022L45.1026 17.6029C45.1737 17.5719 45.2432 17.6491 45.205 17.7164Z" fill="#F5F5F5"/>
<path d="M41.495 15.3389L41.3982 16.3335L42.308 16.7471C42.3785 16.7791 42.3676 16.8824 42.2921 16.8991L41.3162 17.1144L41.204 18.1074C41.1953 18.1844 41.0936 18.2059 41.0544 18.1392L40.548 17.2777L39.5689 17.4779C39.4931 17.4934 39.4411 17.4035 39.4926 17.3455L40.1555 16.5976L39.6625 15.7283C39.6243 15.6609 39.6938 15.5838 39.7647 15.6147L40.6808 16.0141L41.3552 15.2766C41.4076 15.2195 41.5025 15.2618 41.495 15.3389Z" fill="#F5F5F5"/>
<path d="M37.1388 14.6757L37.4549 15.6237L38.4543 15.6314C38.5316 15.6321 38.5637 15.7307 38.5014 15.7768L37.6975 16.3705L37.9989 17.3233C38.0222 17.3971 37.9382 17.4583 37.8752 17.4131L37.0621 16.832L36.249 17.4131C36.1859 17.4582 36.102 17.3971 36.1253 17.3233L36.4266 16.3705L35.6227 15.7768C35.5604 15.7308 35.5925 15.632 35.6699 15.6314L36.6692 15.6237L36.9853 14.6757C37.0105 14.6022 37.1144 14.6022 37.1388 14.6757Z" fill="#F5F5F5"/>
</g>
<defs>
<clipPath id="clip0_108_49579">
<rect width="50" height="50" fill="white" transform="translate(0.310547 0.0161133)"/>
</clipPath>
</defs>
</svg>
