<svg width="50" height="51" viewBox="0 0 50 51" fill="none" xmlns="http://www.w3.org/2000/svg">
<g clip-path="url(#clip0_108_49576)">
<path d="M49.1378 41.5537H0.862108C0.386034 41.5537 0 41.1677 0 40.6916V9.6573C0 9.18123 0.386034 8.7952 0.862108 8.7952H49.1379C49.614 8.7952 50 9.18123 50 9.6573V40.6916C49.9999 41.1678 49.6139 41.5537 49.1378 41.5537Z" fill="#F5F5F5"/>
<path d="M13.891 26.868C13.891 26.868 13.9149 27.3253 13.5299 27.7343C13.1448 28.1436 13.3373 28.673 13.8428 28.9137C13.8428 28.9137 13.4939 29.744 14.0113 30.0929C14.338 30.3134 14.7814 30.2855 14.7814 30.2855C14.7814 30.2855 15.0222 31.2723 14.8296 31.8979C14.637 32.5237 14.9018 34.3286 19.3059 33.2938C19.3059 33.2938 19.3459 34.449 21.1109 35.3474C22.8757 36.246 22.5301 38.3743 22.5301 38.3743C22.5301 38.3743 24.9593 39.7807 27.6443 36.4564C30.3294 33.1322 30.5211 32.6846 32.4389 31.9175C32.4389 31.9175 29.4343 28.849 30.5212 26.164C30.6642 25.8101 30.826 25.4388 30.9947 25.057C31.3058 26.0676 31.9205 27.5432 33.0184 28.4015C33.36 28.6673 33.7816 28.7511 34.1891 28.833C34.6266 28.9209 35.0042 28.9967 35.182 29.2665C35.3383 29.5067 35.3526 29.9304 35.2317 30.5168C33.9262 31.9409 32.6646 32.3204 32.6469 32.325L32.3433 32.4069L32.9816 34.5121L31.0767 36.2645L31.1107 36.4343C31.3464 37.609 32.0715 37.7648 32.3712 37.7789C32.3892 37.7789 32.4073 37.7809 32.4253 37.7809C33.1184 37.7809 33.8236 37.1976 34.0474 36.4285C34.435 35.1001 35.6996 34.9482 35.7135 34.9482L35.9053 34.9262L35.9692 34.7444C35.9972 34.6644 36.6544 32.7706 36.978 30.8409C37.1081 30.0603 37.1329 29.4389 37.1063 28.8953C37.1164 28.8765 37.1278 28.8661 37.1377 28.8471L37.1047 28.8299C36.9827 26.7722 35.8666 26.2246 34.7643 25.7166C33.8247 25.2803 33.4558 24.8568 33.2733 24.5209C33.3112 24.5219 33.3434 24.5319 33.3819 24.5319C33.6816 24.5319 33.9972 24.4979 34.3168 24.4081C35.2077 24.1603 35.929 23.5511 36.4603 22.5982C36.7839 22.0149 39.1913 15.4103 39.4649 14.6593L39.6546 14.1378L36.5471 14.8011L36.7838 12.9112L32.7564 14.3316L32.8523 14.6193C32.8663 14.6572 34.1489 18.509 34.025 20.8602C33.991 21.4776 33.7972 21.925 33.4436 22.1887C32.9991 22.517 32.3965 22.4995 32.0819 22.4656C32.7829 20.6032 33.2348 18.6465 32.5666 16.8946C31.4595 13.9922 26.5573 11.3329 22.8496 11.7165C19.1419 12.1001 16.0688 12.996 15.046 16.7039C14.0231 20.4117 14.3083 21.3914 14.4362 22.0306C14.5641 22.6699 12.1559 25.4918 12.5913 26.3628C12.8802 26.9401 13.891 26.868 13.891 26.868ZM31.6641 23.5148C31.7286 23.3628 31.793 23.2114 31.8556 23.0574C31.9692 23.0776 32.1376 23.1015 32.385 23.1015C32.8045 23.1015 33.3539 23.0216 33.8114 22.68C34.3167 22.3024 34.5945 21.7011 34.6365 20.8921C34.7503 18.7825 33.8314 15.672 33.5278 14.711L36.0529 13.8221L35.4396 18.7205L36.0469 18.7964L36.4667 15.4446L38.6999 14.9686C37.6352 17.8853 36.1388 21.9147 35.925 22.2983C35.4756 23.1034 34.8783 23.6148 34.151 23.8167C33.059 24.1263 32.0188 23.6888 31.6641 23.5148ZM33.179 35.1643L33.4906 36.1926C33.4826 36.2176 33.4673 36.2309 33.4599 36.2565C33.3141 36.7559 32.8446 37.1655 32.427 37.1655C32.417 37.1655 32.4071 37.1655 32.399 37.1655C32.0195 37.1496 31.8376 36.7799 31.7517 36.4783L33.179 35.1643ZM36.4785 29.8583C36.4538 30.134 36.4271 30.4132 36.3725 30.7408C36.1128 32.293 35.6133 33.8672 35.4456 34.3727C35.1019 34.4531 34.3927 34.6961 33.8866 35.3831L33.1062 32.8144C33.7284 32.5672 35.1857 31.7506 36.4785 29.8583ZM31.3924 24.1553C31.4042 24.1286 31.4157 24.1042 31.4271 24.0774C31.6578 24.1868 32.0471 24.3475 32.5666 24.449C32.7109 24.8785 33.049 25.5971 34.5066 26.2719C35.5174 26.7386 36.3677 27.1344 36.5031 28.6967C36.3123 29.0476 36.1033 29.2914 35.8996 29.5795C35.8698 29.3313 35.8122 29.1085 35.6953 28.9309C35.3756 28.4455 34.8102 28.3316 34.3088 28.2317C33.9553 28.1598 33.6216 28.0939 33.396 27.918C32.1059 26.9107 31.553 24.8633 31.3924 24.1553ZM15.4313 19.6236C15.4313 19.6236 15.5274 17.4578 16.4904 15.6286L31.2192 22.4636L29.9676 25.1591L15.4313 19.6236Z" fill="#464655"/>
</g>
<defs>
<clipPath id="clip0_108_49576">
<rect width="50" height="50" fill="white" transform="translate(0 0.174561)"/>
</clipPath>
</defs>
</svg>
