<svg width="51" height="51" viewBox="0 0 51 51" fill="none" xmlns="http://www.w3.org/2000/svg">
<g clip-path="url(#clip0_108_49506)">
<path d="M50.4267 20.0016H0.426758V30.3463H50.4267V20.0016Z" fill="#FF4B55"/>
<path d="M1.28887 8.7952H49.5647C50.0407 8.7952 50.4268 9.18123 50.4268 9.6573V14.3987H0.426758V9.6573C0.426758 9.18123 0.812792 8.7952 1.28887 8.7952Z" fill="#41479B"/>
<path d="M50.4267 14.3991H0.426758V20.0026H50.4267V14.3991Z" fill="#F5F5F5"/>
<path d="M49.5646 41.5537H1.28887C0.812792 41.5537 0.426758 41.1677 0.426758 40.6916V35.9502H50.4267V40.6916C50.4267 41.1678 50.0406 41.5537 49.5646 41.5537Z" fill="#41479B"/>
<path d="M50.4259 30.3463H0.426025V35.9498H50.4259V30.3463Z" fill="#F5F5F5"/>
<path d="M13.9407 29.485C16.1676 29.485 17.9729 27.5551 17.9729 25.1744C17.9729 22.7938 16.1676 20.8639 13.9407 20.8639C11.7137 20.8639 9.90845 22.7938 9.90845 25.1744C9.90845 27.5551 11.7137 29.485 13.9407 29.485Z" fill="#F5F5F5"/>
<path d="M16.027 23.5065H11.8557V25.5922H16.027V23.5065Z" fill="#3CC8FF"/>
<path d="M12.4125 24.692L12.4602 25.152L12.6475 24.7293L12.5506 25.1815L12.8596 24.8372L12.6275 25.2375L13.0278 25.0055L12.6836 25.3145L13.1358 25.2175L12.713 25.4049L13.1731 25.4526L12.713 25.5003L13.1358 25.6877L12.6836 25.5908L13.0278 25.8997L12.6275 25.6676L12.8596 26.0679L12.5506 25.7237L12.6475 26.1759L12.4602 25.7532L12.4125 26.2131L12.3648 25.7532L12.1774 26.1759L12.2743 25.7237L11.9654 26.0679L12.1973 25.6676L11.7971 25.8997L12.1414 25.5908L11.6891 25.6877L12.1119 25.5003L11.6519 25.4526L12.1119 25.4049L11.6891 25.2175L12.1414 25.3145L11.7971 25.0055L12.1973 25.2375L11.9654 24.8372L12.2743 25.1815L12.1774 24.7293L12.3648 25.152L12.4125 24.692Z" fill="#FFE15A"/>
<path d="M14.7761 28.5116H13.1076L11.5781 27.2601V25.4526H16.4446V27.2601L14.7761 28.5116Z" fill="#41479B"/>
<path d="M15.6104 24.8965H15.6103C15.61 24.8584 15.5791 24.8277 15.5409 24.8277C15.5027 24.8277 15.4721 24.8584 15.4715 24.8965H15.4713C15.4713 25.1378 15.3314 25.4716 15.16 25.7106C14.9205 25.4083 14.8305 25.0577 14.7965 24.8369C14.7803 24.7316 14.6665 24.6732 14.5712 24.7209C14.5253 24.7438 14.4943 24.7886 14.4865 24.8393C14.3801 25.5213 14.0586 25.811 13.8504 25.9302C13.5388 25.6289 13.436 25.1413 13.4022 24.853C13.3891 24.7409 13.2691 24.6766 13.1682 24.727C13.1293 24.7465 13.1005 24.7815 13.0869 24.8228C12.6508 26.1522 11.439 26.287 11.439 26.287V26.7041H16.3055V26.5651V26.4261V26.2872V26.1482V26.0093C15.7495 25.8697 15.6104 24.8965 15.6104 24.8965Z" fill="#73AF00"/>
<path d="M16.306 23.6451C15.7498 23.367 15.7498 23.0889 15.7498 23.0889C15.7498 23.0889 15.0546 22.8108 14.4985 22.8108C14.4985 22.8108 14.6374 22.5327 14.3595 22.5327C14.0814 22.5327 13.9424 22.5327 13.9424 22.5327C13.9424 22.5327 13.8035 22.5327 13.5253 22.5327C13.2472 22.5327 13.3864 22.8108 13.3864 22.8108C12.8302 22.8108 12.135 23.0889 12.135 23.0889C12.135 23.0889 12.135 23.3671 11.5789 23.6451C11.0227 23.9232 11.0227 24.5489 11.0227 24.5489C11.0227 24.6641 11.1162 24.7574 11.2312 24.7574C11.3464 24.7574 11.4397 24.6639 11.4397 24.5489C11.4397 24.5251 11.4348 24.5027 11.4275 24.4814L11.4397 24.4794L12.8301 23.5061H13.9425H15.0549L16.4453 24.4794L16.4576 24.4814C16.4502 24.5026 16.4453 24.5252 16.4453 24.5489C16.4453 24.6641 16.5388 24.7574 16.6538 24.7574C16.7689 24.7574 16.8623 24.6639 16.8623 24.5489C16.8621 24.5488 16.8621 23.9231 16.306 23.6451Z" fill="#F0AA00"/>
<path d="M16.7232 25.3136C16.5843 25.3136 16.1671 25.3136 16.1671 24.8966C16.1671 24.4795 16.7232 24.4795 16.7232 24.4795L15.889 24.2013C15.6108 25.1746 16.1671 25.1746 16.1671 26.426C16.1671 27.547 14.9157 28.2336 14.4985 28.2336C14.0814 28.2336 13.9424 28.5117 13.9424 28.5117C13.9424 28.5117 13.8034 28.2336 13.3862 28.2336C12.9691 28.2336 11.7177 27.547 11.7177 26.426C11.7177 25.1747 12.2738 25.1747 11.9958 24.2013L11.1615 24.4795C11.1615 24.4795 11.7177 24.4795 11.7177 24.8966C11.7177 25.3136 11.3006 25.3136 11.1615 25.3136C11.0225 25.3136 10.4663 25.3136 10.4663 26.0089C10.4663 26.7041 11.1615 27.5383 12.1349 28.0945C13.1081 28.6506 12.691 29.2069 13.9424 29.2069C15.1937 29.2069 14.7767 28.6507 15.7499 28.0945C16.7231 27.5383 17.4184 26.7041 17.4184 26.0089C17.4184 25.3136 16.8622 25.3136 16.7232 25.3136Z" fill="#F0AA00"/>
<path d="M13.6639 23.1373L13.3276 22.9861C13.2717 22.961 13.2098 22.9552 13.1502 22.969C12.9334 23.0191 12.3957 23.1839 11.9954 23.6451L12.4125 23.7841L13.6639 23.1373Z" fill="#73AF00"/>
<path d="M14.22 23.1373L14.5563 22.9861C14.6122 22.961 14.6741 22.9552 14.7336 22.969C14.9504 23.0191 15.4882 23.1839 15.8885 23.6451L15.4714 23.7841L14.22 23.1373Z" fill="#73AF00"/>
<path d="M13.9913 23.228L14.2448 22.9745C14.2584 22.9609 14.2584 22.9389 14.2448 22.9254C14.2313 22.9118 14.2093 22.9118 14.1957 22.9254L13.9422 23.1789L13.6887 22.9254C13.6751 22.9118 13.6531 22.9118 13.6396 22.9254C13.626 22.9389 13.626 22.9609 13.6396 22.9745L13.8931 23.228L13.6396 23.4815C13.626 23.4951 13.626 23.5171 13.6396 23.5306C13.6464 23.5375 13.6553 23.5409 13.6642 23.5409C13.673 23.5409 13.682 23.5375 13.6888 23.5306L13.9423 23.2771L14.1958 23.5306C14.2027 23.5375 14.2115 23.5409 14.2204 23.5409C14.2294 23.5409 14.2382 23.5375 14.245 23.5306C14.2586 23.5171 14.2586 23.4951 14.245 23.4815L13.9913 23.228Z" fill="#73AF00"/>
<path d="M16.7227 24.4794C16.7227 24.2429 16.4992 24.1406 16.3057 24.0962V23.986C16.0439 23.9614 15.8977 23.8632 15.644 23.6902C15.5463 23.6235 15.4354 23.5481 15.3016 23.4667C14.8127 23.1697 14.4369 23.1268 14.22 23.1372V23.367H13.6639V23.1372C13.447 23.1268 13.0712 23.1697 12.5823 23.4667C12.4485 23.548 12.3376 23.6235 12.2398 23.6902C11.986 23.8631 11.84 23.9614 11.5782 23.986V24.0962C11.3846 24.1405 11.1611 24.2428 11.1611 24.4794L11.5782 24.3404V24.4038C11.9729 24.3747 12.1984 24.2233 12.4747 24.0351C12.5684 23.9714 12.6744 23.899 12.7988 23.8235C13.1164 23.6306 13.3632 23.5708 13.5248 23.5567V23.7843H14.3591V23.5567C14.5207 23.5709 14.7675 23.6306 15.0851 23.8235C15.2097 23.8992 15.3156 23.9714 15.4092 24.0351C15.6853 24.2233 15.911 24.3748 16.3057 24.4038V24.3404L16.7227 24.4794Z" fill="#F5F5F5"/>
<path d="M15.6103 22.2877V22.1156H15.223C15.2907 22.0575 15.3323 21.9891 15.3323 21.9071C15.3323 21.5229 14.4583 21.4205 13.9419 21.4205C13.4255 21.4205 12.5515 21.5229 12.5515 21.9071C12.5515 21.9891 12.5931 22.0575 12.6607 22.1156H12.2734V22.2877C11.933 22.3636 11.6548 22.5462 11.6401 22.5561L11.7943 22.7875C11.7981 22.7849 12.1808 22.5327 12.5515 22.5327V22.3937H15.3323V22.5327C15.7031 22.5327 16.0856 22.7848 16.0894 22.7875L16.2436 22.5561C16.2291 22.5462 15.9508 22.3636 15.6103 22.2877ZM14.498 22.0771V21.9715C14.498 21.9035 14.4341 21.8536 14.3681 21.8701L13.9419 21.9766L13.5157 21.8701C13.4497 21.8536 13.3857 21.9035 13.3857 21.9715V22.0771C13.0733 22.0312 12.8887 21.9548 12.8383 21.9071C12.9135 21.8356 13.2819 21.6986 13.9418 21.6986C14.6017 21.6986 14.9701 21.8358 15.0453 21.9071C14.9951 21.9547 14.8103 22.0311 14.498 22.0771Z" fill="#3CC8FF"/>
<path d="M13.9595 23.8365L13.9947 23.9421L14.1057 23.943C14.1202 23.9431 14.1261 23.9615 14.1145 23.97L14.0252 24.0362L14.0587 24.1424C14.063 24.1562 14.0474 24.1675 14.0357 24.1591L13.9453 24.0943L13.8549 24.1591C13.8432 24.1675 13.8276 24.1561 13.8319 24.1424L13.8654 24.0362L13.7761 23.97C13.7645 23.9615 13.7706 23.9431 13.7849 23.943L13.8959 23.9421L13.9311 23.8365C13.9357 23.8228 13.9549 23.8228 13.9595 23.8365Z" fill="#F5F5F5"/>
<path d="M13.4145 23.8722L13.4604 23.9735L13.571 23.9628C13.5853 23.9614 13.5931 23.9791 13.5826 23.9888L13.5007 24.064L13.5451 24.166C13.5509 24.1793 13.5365 24.1922 13.524 24.1851L13.4274 24.1302L13.3443 24.2041C13.3336 24.2137 13.3169 24.204 13.3197 24.1899L13.3419 24.0807L13.2461 24.0243C13.2338 24.017 13.2378 23.9982 13.2521 23.9965L13.3624 23.984L13.3863 23.8753C13.3892 23.861 13.4085 23.859 13.4145 23.8722Z" fill="#F5F5F5"/>
<path d="M12.8547 24.0212L12.9215 24.1101L13.0271 24.0756C13.0408 24.0711 13.0523 24.0867 13.044 24.0984L12.9803 24.1896L13.0457 24.2796C13.0542 24.2912 13.043 24.3069 13.0293 24.3027L12.9231 24.2701L12.8579 24.3603C12.8496 24.372 12.831 24.3662 12.8308 24.3518L12.8289 24.2405L12.7232 24.2062C12.7096 24.2018 12.7094 24.1824 12.723 24.1778L12.828 24.1416L12.8278 24.0303C12.8277 24.0159 12.8461 24.0097 12.8547 24.0212Z" fill="#F5F5F5"/>
<path d="M12.2939 24.2577L12.3718 24.337L12.4719 24.2888C12.4849 24.2825 12.4983 24.2964 12.4916 24.3093L12.4405 24.4081L12.5173 24.4886C12.5272 24.499 12.5182 24.516 12.504 24.5138L12.3943 24.4956L12.3416 24.5936C12.3348 24.6063 12.3158 24.603 12.3137 24.5888L12.2971 24.4786L12.1878 24.4587C12.1736 24.4561 12.171 24.4369 12.1838 24.4305L12.2832 24.3807L12.2684 24.2703C12.2664 24.2559 12.2838 24.2475 12.2939 24.2577Z" fill="#F5F5F5"/>
<path d="M14.4764 23.8722L14.4305 23.9735L14.3199 23.9628C14.3056 23.9614 14.2978 23.9791 14.3083 23.9888L14.3902 24.064L14.3458 24.166C14.34 24.1793 14.3544 24.1922 14.3669 24.1851L14.4635 24.1302L14.5466 24.2041C14.5573 24.2137 14.574 24.204 14.5712 24.1899L14.549 24.0807L14.6448 24.0243C14.6571 24.017 14.6531 23.9982 14.6388 23.9965L14.5285 23.984L14.5046 23.8753C14.5016 23.861 14.4823 23.859 14.4764 23.8722Z" fill="#F5F5F5"/>
<path d="M15.036 24.0212L14.9692 24.1101L14.8636 24.0756C14.8499 24.0711 14.8385 24.0867 14.8467 24.0984L14.9104 24.1896L14.845 24.2796C14.8365 24.2912 14.8477 24.3069 14.8614 24.3027L14.9676 24.2701L15.0328 24.3603C15.0412 24.372 15.0597 24.3662 15.0599 24.3518L15.0618 24.2405L15.1675 24.2062C15.1811 24.2018 15.1813 24.1824 15.1677 24.1778L15.0627 24.1416L15.0629 24.0303C15.063 24.0159 15.0446 24.0097 15.036 24.0212Z" fill="#F5F5F5"/>
<path d="M15.5969 24.2577L15.519 24.337L15.419 24.2888C15.4059 24.2825 15.3926 24.2964 15.3992 24.3093L15.4503 24.4081L15.3736 24.4886C15.3637 24.499 15.3726 24.516 15.3868 24.5138L15.4965 24.4956L15.5492 24.5936C15.556 24.6063 15.575 24.603 15.5772 24.5888L15.5937 24.4786L15.703 24.4587C15.7172 24.4561 15.7199 24.4369 15.707 24.4305L15.6077 24.3807L15.6225 24.2703C15.6243 24.2559 15.607 24.2475 15.5969 24.2577Z" fill="#F5F5F5"/>
<path d="M12.9814 27.1733L13.6897 27.6468H14.5457L14.9412 27.308L14.637 27.4297H13.6289L12.9814 27.1733Z" fill="#8C5A28"/>
<path d="M13.463 26.5622L13.3948 27.2516L13.0845 27.1329C13.0845 27.1327 13.2273 26.8005 13.463 26.5622Z" fill="#F5F5F5"/>
<path d="M14.1229 26.2887H14.0769V27.4625H14.1229V26.2887Z" fill="#8C5A28"/>
<path d="M14.5487 26.3883H14.5027V27.4635H14.5487V26.3883Z" fill="#8C5A28"/>
<path d="M13.7 26.3883H13.6541V27.4635H13.7V26.3883Z" fill="#8C5A28"/>
<path d="M14.2407 27.3515H13.9605C13.9314 27.3515 13.9077 27.3278 13.9077 27.2986V27.1567C13.9077 27.1275 13.9314 27.1038 13.9605 27.1038H14.2407C14.2699 27.1038 14.2935 27.1275 14.2935 27.1567V27.2986C14.2935 27.3278 14.2699 27.3515 14.2407 27.3515Z" fill="#F5F5F5"/>
<path d="M14.2407 27.0212H13.9605C13.9314 27.0212 13.9077 26.9975 13.9077 26.9683V26.8264C13.9077 26.7972 13.9314 26.7735 13.9605 26.7735H14.2407C14.2699 26.7735 14.2935 26.7972 14.2935 26.8264V26.9683C14.2935 26.9976 14.2699 27.0212 14.2407 27.0212Z" fill="#F5F5F5"/>
<path d="M14.2407 26.7171H13.9605C13.9314 26.7171 13.9077 26.6934 13.9077 26.6642V26.5223C13.9077 26.4931 13.9314 26.4694 13.9605 26.4694H14.2407C14.2699 26.4694 14.2935 26.4931 14.2935 26.5223V26.6642C14.2935 26.6934 14.2699 26.7171 14.2407 26.7171Z" fill="#F5F5F5"/>
<path d="M14.6401 27.3515H14.4119C14.3828 27.3515 14.3591 27.3278 14.3591 27.2986V27.1567C14.3591 27.1275 14.3828 27.1038 14.4119 27.1038H14.6401C14.6693 27.1038 14.6929 27.1275 14.6929 27.1567V27.2986C14.6929 27.3278 14.6693 27.3515 14.6401 27.3515Z" fill="#F5F5F5"/>
<path d="M14.6401 27.0475H14.4119C14.3828 27.0475 14.3591 27.0238 14.3591 26.9946V26.8916C14.3591 26.8624 14.3828 26.8386 14.4119 26.8386H14.6401C14.6693 26.8386 14.6929 26.8624 14.6929 26.8916V26.9946C14.6929 27.0238 14.6693 27.0475 14.6401 27.0475Z" fill="#F5F5F5"/>
<path d="M14.6401 26.7461H14.4119C14.3828 26.7461 14.3591 26.7224 14.3591 26.6932V26.6237C14.3591 26.5945 14.3828 26.5707 14.4119 26.5707H14.6401C14.6693 26.5707 14.6929 26.5945 14.6929 26.6237V26.6932C14.6929 26.7224 14.6693 26.7461 14.6401 26.7461Z" fill="#F5F5F5"/>
<path d="M13.7908 27.3515H13.5626C13.5334 27.3515 13.5098 27.3278 13.5098 27.2986V27.1567C13.5098 27.1275 13.5334 27.1038 13.5626 27.1038H13.7908C13.8199 27.1038 13.8436 27.1275 13.8436 27.1567V27.2986C13.8435 27.3278 13.8199 27.3515 13.7908 27.3515Z" fill="#F5F5F5"/>
<path d="M13.7908 27.0475H13.5626C13.5334 27.0475 13.5098 27.0238 13.5098 26.9946V26.8916C13.5098 26.8624 13.5334 26.8386 13.5626 26.8386H13.7908C13.8199 26.8386 13.8436 26.8624 13.8436 26.8916V26.9946C13.8435 27.0238 13.8199 27.0475 13.7908 27.0475Z" fill="#F5F5F5"/>
<path d="M13.7908 26.7461H13.5626C13.5334 26.7461 13.5098 26.7224 13.5098 26.6932V26.6237C13.5098 26.5945 13.5334 26.5707 13.5626 26.5707H13.7908C13.8199 26.5707 13.8436 26.5945 13.8436 26.6237V26.6932C13.8435 26.7224 13.8199 26.7461 13.7908 26.7461Z" fill="#F5F5F5"/>
<path d="M13.6995 26.3884V26.5274L13.9033 26.4566L13.6995 26.3884Z" fill="#F5F5F5"/>
<path d="M14.5491 26.3884V26.5274L14.7529 26.4566L14.5491 26.3884Z" fill="#F5F5F5"/>
<path d="M14.1235 26.2887V26.4276L14.3275 26.3568L14.1235 26.2887Z" fill="#F5F5F5"/>
<path d="M13.5806 25.3503L13.8266 25.5149H14.124L14.2614 25.3971L14.1557 25.4393H13.8055L13.5806 25.3503Z" fill="#8C5A28"/>
<path d="M13.7477 25.138L13.724 25.3775L13.6162 25.3362C13.6161 25.3362 13.6658 25.2208 13.7477 25.138Z" fill="#F5F5F5"/>
<path d="M13.9766 25.0426H13.9607V25.4505H13.9766V25.0426Z" fill="#8C5A28"/>
<path d="M14.1236 25.0777H14.1077V25.4511H14.1236V25.0777Z" fill="#8C5A28"/>
<path d="M13.8294 25.0777H13.8135V25.4511H13.8294V25.0777Z" fill="#8C5A28"/>
<path d="M14.0177 25.4121H13.9203C13.9101 25.4121 13.9019 25.4039 13.9019 25.3937V25.3445C13.9019 25.3343 13.91 25.326 13.9203 25.326H14.0177C14.0278 25.326 14.0361 25.3342 14.0361 25.3445V25.3937C14.0361 25.4039 14.0279 25.4121 14.0177 25.4121Z" fill="#F5F5F5"/>
<path d="M14.0177 25.2975H13.9203C13.9101 25.2975 13.9019 25.2893 13.9019 25.279V25.2298C13.9019 25.2197 13.91 25.2114 13.9203 25.2114H14.0177C14.0278 25.2114 14.0361 25.2196 14.0361 25.2298V25.279C14.0361 25.2892 14.0279 25.2975 14.0177 25.2975Z" fill="#F5F5F5"/>
<path d="M14.0177 25.1918H13.9203C13.9101 25.1918 13.9019 25.1836 13.9019 25.1734V25.1241C13.9019 25.114 13.91 25.1057 13.9203 25.1057H14.0177C14.0278 25.1057 14.0361 25.1139 14.0361 25.1241V25.1734C14.0361 25.1836 14.0279 25.1918 14.0177 25.1918Z" fill="#F5F5F5"/>
<path d="M14.1565 25.4121H14.0772C14.0671 25.4121 14.0588 25.4039 14.0588 25.3937V25.3445C14.0588 25.3343 14.067 25.326 14.0772 25.326H14.1565C14.1667 25.326 14.1749 25.3342 14.1749 25.3445V25.3937C14.1748 25.4039 14.1666 25.4121 14.1565 25.4121Z" fill="#F5F5F5"/>
<path d="M14.1565 25.3066H14.0772C14.0671 25.3066 14.0588 25.2984 14.0588 25.2881V25.2524C14.0588 25.2422 14.067 25.2339 14.0772 25.2339H14.1565C14.1667 25.2339 14.1749 25.2421 14.1749 25.2524V25.2881C14.1748 25.2985 14.1666 25.3066 14.1565 25.3066Z" fill="#F5F5F5"/>
<path d="M14.1565 25.2018H14.0772C14.0671 25.2018 14.0588 25.1936 14.0588 25.1833V25.1592C14.0588 25.1491 14.067 25.1408 14.0772 25.1408H14.1565C14.1667 25.1408 14.1749 25.149 14.1749 25.1592V25.1833C14.1748 25.1937 14.1666 25.2018 14.1565 25.2018Z" fill="#F5F5F5"/>
<path d="M13.8614 25.4121H13.7821C13.772 25.4121 13.7637 25.4039 13.7637 25.3937V25.3445C13.7637 25.3343 13.7719 25.326 13.7821 25.326H13.8614C13.8715 25.326 13.8798 25.3342 13.8798 25.3445V25.3937C13.8797 25.4039 13.8715 25.4121 13.8614 25.4121Z" fill="#F5F5F5"/>
<path d="M13.8614 25.3066H13.7821C13.772 25.3066 13.7637 25.2984 13.7637 25.2881V25.2524C13.7637 25.2422 13.7719 25.2339 13.7821 25.2339H13.8614C13.8715 25.2339 13.8798 25.2421 13.8798 25.2524V25.2881C13.8797 25.2985 13.8715 25.3066 13.8614 25.3066Z" fill="#F5F5F5"/>
<path d="M13.8614 25.2018H13.7821C13.772 25.2018 13.7637 25.1936 13.7637 25.1833V25.1592C13.7637 25.1491 13.7719 25.1408 13.7821 25.1408H13.8614C13.8715 25.1408 13.8798 25.149 13.8798 25.1592V25.1833C13.8797 25.1937 13.8715 25.2018 13.8614 25.2018Z" fill="#F5F5F5"/>
<path d="M13.8296 25.0776V25.1258L13.9004 25.1013L13.8296 25.0776Z" fill="#F5F5F5"/>
<path d="M14.1248 25.0776V25.1258L14.1956 25.1013L14.1248 25.0776Z" fill="#F5F5F5"/>
<path d="M13.9771 25.043V25.0911L14.0479 25.0665L13.9771 25.043Z" fill="#F5F5F5"/>
<path d="M13.4065 24.6183H13.226C13.161 24.6183 13.1077 24.5651 13.1077 24.5C13.1077 24.4349 13.1609 24.3816 13.226 24.3816H13.4065C13.4715 24.3816 13.5249 24.4348 13.5249 24.5C13.5249 24.5651 13.4716 24.6183 13.4065 24.6183Z" fill="#F5F5F5"/>
<path d="M14.7781 24.6183H14.6593C14.5942 24.6183 14.5413 24.5653 14.5413 24.4999C14.5413 24.4346 14.5942 24.3816 14.6593 24.3816H14.7781C14.8432 24.3816 14.8961 24.4346 14.8961 24.4999C14.896 24.5653 14.8431 24.6183 14.7781 24.6183Z" fill="#F5F5F5"/>
<path d="M15.6238 24.7964H15.5192C15.4819 24.7964 15.4517 24.7662 15.4517 24.7287V24.7175C15.4517 24.6801 15.4819 24.6498 15.5192 24.6498H15.6238C15.6611 24.6498 15.6913 24.6801 15.6913 24.7175V24.7287C15.6913 24.7662 15.6611 24.7964 15.6238 24.7964Z" fill="#F5F5F5"/>
</g>
<defs>
<clipPath id="clip0_108_49506">
<rect width="50" height="50" fill="white" transform="translate(0.427734 0.174561)"/>
</clipPath>
</defs>
</svg>
