<svg width="51" height="51" viewBox="0 0 51 51" fill="none" xmlns="http://www.w3.org/2000/svg">
<g clip-path="url(#clip0_108_49450)">
<path d="M0.720947 30.6342H50.7209V40.6917C50.7209 41.1677 50.3348 41.5538 49.8587 41.5538H1.58306C1.10698 41.5538 0.720947 41.1677 0.720947 40.6917V30.6342Z" fill="#41479B"/>
<path d="M1.58306 8.7952H49.8588C50.3349 8.7952 50.7209 9.18123 50.7209 9.6573V19.7147H0.720947V9.6573C0.720947 9.18123 1.10698 8.7952 1.58306 8.7952Z" fill="#FF4B55"/>
<path d="M50.7209 19.7145H0.720947V30.6335H50.7209V19.7145Z" fill="#F5F5F5"/>
<path d="M22.1003 20.0017H19.6865V22.7605H22.1003V20.0017Z" fill="#FF4B55"/>
<path d="M26.9274 20.0017H24.5137V22.7605H26.9274V20.0017Z" fill="#FF4B55"/>
<path d="M24.5134 22.7605H22.0996V25.5193H24.5134V22.7605Z" fill="#FF4B55"/>
<path d="M31.7548 20.0017H29.3411V22.7605H31.7548V20.0017Z" fill="#FF4B55"/>
<path d="M29.3415 22.7605H26.9277V25.5193H29.3415V22.7605Z" fill="#FF4B55"/>
<path d="M24.5134 20.0017H22.0996V22.7605H24.5134V20.0017Z" fill="#F5F5F5"/>
<path d="M29.3415 20.0017H26.9277V22.7605H29.3415V20.0017Z" fill="#F5F5F5"/>
<path d="M22.1003 22.7605H19.6865V25.5193H22.1003V22.7605Z" fill="#F5F5F5"/>
<path d="M26.9274 22.7605H24.5137V25.5193H26.9274V22.7605Z" fill="#F5F5F5"/>
<path d="M31.7548 22.7605H29.3411V25.5193H31.7548V22.7605Z" fill="#F5F5F5"/>
<path d="M26.9269 25.5191H24.5132V28.2779H26.9269V25.5191Z" fill="#FF4B55"/>
<path d="M24.5129 28.2779H22.0991V31.0367H24.5129V28.2779Z" fill="#FF4B55"/>
<path d="M29.341 28.2779H26.9272V31.0367H29.341V28.2779Z" fill="#FF4B55"/>
<path d="M24.5136 25.5192H22.0999V28.278H24.5136V25.5192Z" fill="#F5F5F5"/>
<path d="M29.341 25.5191H26.9272V28.2779H29.341V25.5191Z" fill="#F5F5F5"/>
<path d="M26.9269 28.278H24.5132V31.0367H26.9269V28.278Z" fill="#F5F5F5"/>
<path d="M31.7554 20.0021V27.7607C31.7554 31.0934 29.0536 33.7952 25.7209 33.7952C22.3882 33.7952 19.6864 31.0934 19.6864 27.7607V20.0021H31.7554ZM32.1864 19.5711H31.7554H19.6864H19.2554V20.0021V27.7607C19.2554 31.3257 22.1558 34.2262 25.7209 34.2262C29.286 34.2262 32.1864 31.3258 32.1864 27.7607V20.0021V19.5711Z" fill="#FF4B55"/>
<path d="M22.1013 28.2779V25.5193H19.6875V27.7607C19.6875 27.9354 19.699 28.107 19.7136 28.278H22.1013V28.2779Z" fill="#FF4B55"/>
<path d="M31.729 28.2778H29.3413V31.0364H30.7841C31.3077 30.2289 31.643 29.2898 31.729 28.2778Z" fill="#F5F5F5"/>
<path d="M20.6573 31.0366H22.1001V28.2781H19.7124C19.7984 29.2899 20.1338 30.229 20.6573 31.0366Z" fill="#F5F5F5"/>
<path d="M29.3418 28.2778H31.7295C31.744 28.107 31.7556 27.9353 31.7556 27.7606V25.5191H29.3418V28.2778Z" fill="#FF4B55"/>
<path d="M22.1005 32.58V31.0364H20.6577C21.0443 31.6328 21.534 32.1537 22.1005 32.58Z" fill="#FF4B55"/>
<path d="M30.7846 31.0364H29.3418V32.58C29.9084 32.1537 30.398 31.6328 30.7846 31.0364Z" fill="#FF4B55"/>
<path d="M22.1001 32.58C22.8026 33.1088 23.6203 33.4926 24.5139 33.674V31.0365H22.1001V32.58Z" fill="#F5F5F5"/>
<path d="M26.9272 33.6739C27.8208 33.4926 28.6385 33.1087 29.341 32.58V31.0364H26.9272V33.6739Z" fill="#F5F5F5"/>
<path d="M26.9277 31.0365H24.5139V33.674C24.9039 33.7532 25.3075 33.7952 25.7208 33.7952C26.1342 33.7952 26.5377 33.7532 26.9278 33.674V31.0365H26.9277Z" fill="#FF4B55"/>
<path d="M21.353 15.4374C20.8278 15.3561 20.2905 15.2975 19.7427 15.2636C19.3191 15.6124 18.9153 15.9759 18.532 16.3525C18.9169 17.2817 19.3018 18.2109 19.6866 19.1401C20.4593 18.8201 21.2511 18.5639 22.0544 18.3719C21.8206 17.3937 21.5869 16.4155 21.353 15.4374Z" fill="#4173CD"/>
<path d="M27.1864 14.9797C26.7144 14.7409 26.2258 14.5201 25.7214 14.319C25.217 14.5202 24.7282 14.741 24.2563 14.9797C24.3348 15.9822 24.4133 16.9849 24.4917 17.9878C25.3103 17.9236 26.1327 17.9236 26.9513 17.9878C27.0295 16.985 27.108 15.9824 27.1864 14.9797Z" fill="#4173CD"/>
<path d="M32.9101 16.3525C32.5268 15.976 32.1229 15.6125 31.6994 15.2636C31.1517 15.2974 30.6144 15.3561 30.0892 15.4374C29.8554 16.4156 29.6215 17.3937 29.3877 18.3718C30.191 18.5639 30.9828 18.82 31.7556 19.14C32.1404 18.2108 32.5253 17.2816 32.9101 16.3525Z" fill="#4173CD"/>
<path d="M24.2557 14.9797C23.7524 14.8173 23.2346 14.6752 22.7036 14.5553C22.235 14.8327 21.7845 15.1273 21.3528 15.4374C21.5866 16.4156 21.8205 17.3937 22.0544 18.3718C22.8578 18.1798 23.6725 18.0518 24.4912 17.9878C24.4126 16.985 24.3341 15.9824 24.2557 14.9797Z" fill="#41479B"/>
<path d="M30.088 15.4373C29.6562 15.1272 29.2057 14.8325 28.7372 14.5552C28.2062 14.6751 27.6883 14.8174 27.1851 14.9796C27.1066 15.9821 27.0281 16.9849 26.9497 17.9877C27.7684 18.0517 28.5831 18.1797 29.3864 18.3718C29.6203 17.3936 29.8542 16.4154 30.088 15.4373Z" fill="#41479B"/>
<path d="M24.3498 16.1829C23.4372 16.2542 22.5289 16.3969 21.6333 16.6111C21.5865 16.4155 21.5397 16.2198 21.4929 16.0242C22.4192 15.8029 23.3586 15.6553 24.3026 15.5813C24.3184 15.7819 24.3341 15.9824 24.3498 16.1829Z" fill="#FF4B55"/>
<path d="M24.4437 17.386C23.5938 17.4525 22.7479 17.5854 21.9138 17.7848C21.8669 17.5892 21.8202 17.3935 21.7734 17.198C22.6382 16.9912 23.5154 16.8534 24.3967 16.7845C24.4124 16.9848 24.428 17.1855 24.4437 17.386Z" fill="#FF4B55"/>
<path d="M28.5847 17.5887C28.3743 17.5512 28.1632 17.5179 27.9517 17.4888C27.6039 17.4408 27.3448 17.1455 27.3749 16.8136C27.405 16.4817 27.7375 16.241 28.1162 16.2933C28.3432 16.3246 28.5698 16.3602 28.7957 16.4005C29.1726 16.4671 29.4165 16.7991 29.343 17.1237C29.2697 17.449 28.9312 17.6497 28.5847 17.5887Z" fill="#FFE15A"/>
<path d="M31.9863 18.5825C31.1841 18.2502 30.3617 17.9844 29.5278 17.7848C29.5747 17.5892 29.6214 17.3935 29.6682 17.198C30.5329 17.4047 31.3854 17.6805 32.2173 18.025C32.1403 18.2108 32.0634 18.3967 31.9863 18.5825Z" fill="#FF4B55"/>
<path d="M31.7717 16.7721C31.6864 17.0071 31.3989 17.119 31.1272 17.0306C30.8557 16.9421 30.6894 16.6839 30.7582 16.4435C30.8269 16.203 31.1182 16.0758 31.4062 16.1694C31.6946 16.2629 31.8569 16.537 31.7717 16.7721Z" fill="#FFE15A"/>
<path d="M20.6851 16.4436C20.7538 16.6842 20.5875 16.9425 20.3161 17.0307C20.0445 17.1186 19.757 17.0067 19.6716 16.7722C19.5863 16.537 19.7488 16.263 20.0371 16.1696C20.3251 16.0762 20.6166 16.2032 20.6851 16.4436Z" fill="#FFE15A"/>
<path d="M25.5839 16.0484C25.5845 16.2483 25.4048 16.4111 25.1821 16.4179C24.9596 16.425 24.7698 16.2733 24.7581 16.0741C24.7465 15.8749 24.926 15.7025 25.1596 15.6949C25.3932 15.6876 25.5829 15.8485 25.5839 16.0484Z" fill="#FFE15A"/>
<path d="M26.6852 16.0741C26.6733 16.2737 26.4835 16.425 26.2611 16.4179C26.0386 16.411 25.8589 16.2483 25.8594 16.0483C25.8603 15.8486 26.0501 15.6873 26.2836 15.6949C26.5173 15.702 26.6967 15.8748 26.6852 16.0741Z" fill="#FFE15A"/>
<path d="M26.113 16.9791C26.1074 17.179 25.9324 17.3362 25.7216 17.3362C25.5111 17.3361 25.336 17.1791 25.3302 16.9791C25.3247 16.7798 25.4998 16.6124 25.7216 16.613C25.9434 16.6125 26.1185 16.7797 26.113 16.9791Z" fill="#FFE15A"/>
</g>
<defs>
<clipPath id="clip0_108_49450">
<rect width="50" height="50" fill="white" transform="translate(0.720703 0.174561)"/>
</clipPath>
</defs>
</svg>
