<svg width="51" height="51" viewBox="0 0 51 51" fill="none" xmlns="http://www.w3.org/2000/svg">
<g clip-path="url(#clip0_108_49441)">
<path d="M50.1479 15.3469H0.147949V9.6573C0.147949 9.18123 0.533984 8.7952 1.01006 8.7952H49.2858C49.7619 8.7952 50.1479 9.18123 50.1479 9.6573L50.1479 15.3469Z" fill="#41479B"/>
<path d="M49.285 41.5537H1.00932C0.533251 41.5537 0.147217 41.1677 0.147217 40.6916V35.002H50.1471V40.6916C50.1471 41.1678 49.7611 41.5537 49.285 41.5537Z" fill="#41479B"/>
<path d="M50.1476 15.3473H0.147705V21.8991H50.1476V15.3473Z" fill="#F5F5F5"/>
<path d="M50.1476 21.8991H0.147705V28.4508H50.1476V21.8991Z" fill="#41479B"/>
<path d="M50.1476 28.4508H0.147705V35.0026H50.1476V28.4508Z" fill="#F5F5F5"/>
<path d="M0.470947 41.349L25.4125 25.5528C25.6899 25.377 25.6899 24.9722 25.4125 24.7964L0.470947 8.99998C0.278076 9.15809 0.147705 9.38846 0.147705 9.65731V40.6916C0.147705 40.9605 0.278174 41.1908 0.470947 41.349Z" fill="#FF4B55"/>
<path d="M8.79299 21.0183L9.67815 23.6722L12.4757 23.6939C12.6924 23.6957 12.7822 23.9721 12.6079 24.1009L10.3574 25.7629L11.2013 28.4301C11.2667 28.6368 11.0314 28.8077 10.8551 28.6816L8.57913 27.0548L6.30315 28.6817C6.12688 28.8078 5.89153 28.6368 5.95696 28.4302L6.80081 25.7631L4.55023 24.1011C4.37591 23.9723 4.46575 23.6958 4.68245 23.6941L7.48001 23.6724L8.36516 21.0185C8.43362 20.8128 8.72444 20.8128 8.79299 21.0183Z" fill="#F5F5F5"/>
</g>
<defs>
<clipPath id="clip0_108_49441">
<rect width="50" height="50" fill="white" transform="translate(0.148438 0.174561)"/>
</clipPath>
</defs>
</svg>
