<svg width="51" height="51" viewBox="0 0 51 51" fill="none" xmlns="http://www.w3.org/2000/svg">
<g clip-path="url(#clip0_108_49435)">
<path d="M49.5797 41.5538H1.304C0.827929 41.5538 0.441895 41.1678 0.441895 40.6917V9.6573C0.441895 9.18123 0.827929 8.7952 1.304 8.7952H49.5798C50.0559 8.7952 50.4419 9.18123 50.4419 9.6573V40.6917C50.4418 41.1679 50.0558 41.5538 49.5797 41.5538Z" fill="#41479B"/>
<path d="M50.4418 31.2087H0.441895V35.5193H50.4418V31.2087Z" fill="#FFE15A"/>
<path d="M12.057 16.8609L11.2091 19.4033L8.5291 19.4241C8.27207 19.426 8.16553 19.7541 8.37227 19.9067L10.5282 21.4987L9.71982 24.0538C9.64238 24.2989 9.92129 24.5016 10.1304 24.3521L12.3107 22.7937L14.4911 24.3521C14.7002 24.5015 14.9792 24.2989 14.9017 24.0538L14.0933 21.4987L16.2492 19.9067C16.456 19.754 16.3494 19.4261 16.0924 19.4241L13.4124 19.4033L12.5644 16.8609C12.4832 16.617 12.1384 16.617 12.057 16.8609Z" fill="#F5F5F5"/>
<path d="M5.94872 12.1692L5.45799 13.6408L3.90683 13.6529C3.7581 13.6541 3.69638 13.8438 3.8161 13.9322L5.06395 14.8537L4.59608 16.3327C4.55126 16.4745 4.71268 16.5919 4.83368 16.5053L6.09559 15.6033L7.3575 16.5053C7.4785 16.5919 7.64002 16.4745 7.5951 16.3327L7.12723 14.8537L8.37508 13.9322C8.49471 13.8438 8.43309 13.654 8.28436 13.6529L6.73319 13.6408L6.24247 12.1692C6.1954 12.0281 5.99579 12.0281 5.94872 12.1692Z" fill="#F5F5F5"/>
</g>
<defs>
<clipPath id="clip0_108_49435">
<rect width="50" height="50" fill="white" transform="translate(0.441406 0.174561)"/>
</clipPath>
</defs>
</svg>
