<svg width="51" height="51" viewBox="0 0 51 51" fill="none" xmlns="http://www.w3.org/2000/svg">
<g clip-path="url(#clip0_108_49431)">
<path d="M1.18662 41.3454L25.8687 25.1745L1.18662 9.00363C0.99668 9.16174 0.868652 9.39084 0.868652 9.65724V40.6917C0.868652 40.9582 0.99668 41.1873 1.18662 41.3454Z" fill="#41479B"/>
<path d="M1.18579 41.3454C1.33521 41.4698 1.52026 41.5538 1.72983 41.5538H50.0057C50.4818 41.5538 50.8678 41.1678 50.8678 40.6917V25.1745H25.8678L1.18579 41.3454Z" fill="#FF4B55"/>
<path d="M1.18579 9.00363C1.33521 8.87921 1.52026 8.79523 1.72983 8.79523H50.0057C50.4818 8.79523 50.8678 9.18126 50.8678 9.65734V25.1745H25.8678L1.18579 9.00363Z" fill="#F5F5F5"/>
</g>
<defs>
<clipPath id="clip0_108_49431">
<rect width="50" height="50" fill="white" transform="translate(0.869141 0.174561)"/>
</clipPath>
</defs>
</svg>
