<svg width="51" height="51" viewBox="0 0 51 51" fill="none" xmlns="http://www.w3.org/2000/svg">
<g clip-path="url(#clip0_108_49424)">
<path d="M49.3004 41.5538H1.02471C0.548632 41.5538 0.162598 41.1678 0.162598 40.6917V9.6573C0.162598 9.18123 0.548632 8.7952 1.02471 8.7952H49.3005C49.7766 8.7952 50.1626 9.18123 50.1626 9.6573V40.6917C50.1625 41.1679 49.7765 41.5538 49.3004 41.5538Z" fill="#82AFFF"/>
<path d="M49.3004 8.79529H46.8292L0.162598 32.9331V34.6573L49.8077 8.97878C49.6638 8.87107 49.494 8.79529 49.3004 8.79529Z" fill="#FFE15A"/>
<path d="M1.02515 41.5539H3.49633L50.1629 17.416V15.6919L0.517822 41.3704C0.661767 41.4781 0.831494 41.5539 1.02515 41.5539Z" fill="#FFE15A"/>
<path d="M49.8077 8.97881L0.162598 34.6573V40.6917C0.162598 40.9743 0.307422 41.2131 0.517382 41.3703L50.1625 15.6919V9.65732C50.1625 9.3748 50.0177 9.13603 49.8077 8.97881Z" fill="#FF4B55"/>
<path d="M9.20735 12.1842L10.4493 15.9083L14.375 15.9387C14.5945 15.9404 14.6856 16.2205 14.509 16.351L11.3509 18.6831L12.5351 22.4261C12.6013 22.6353 12.363 22.8085 12.1844 22.6808L8.99055 20.3979L5.79671 22.6808C5.61819 22.8086 5.37981 22.6353 5.44603 22.4261L6.6302 18.6831L3.4721 16.351C3.29544 16.2206 3.38656 15.9404 3.60609 15.9387L7.53176 15.9083L8.77375 12.1842C8.84338 11.976 9.13782 11.976 9.20735 12.1842Z" fill="#FFE15A"/>
</g>
<defs>
<clipPath id="clip0_108_49424">
<rect width="50" height="50" fill="white" transform="translate(0.162109 0.174561)"/>
</clipPath>
</defs>
</svg>
