<svg width="51" height="51" viewBox="0 0 51 51" fill="none" xmlns="http://www.w3.org/2000/svg">
<g clip-path="url(#clip0_108_49416)">
<path d="M1.20151 41.3454L25.8835 25.1745L1.20151 9.00363C1.01157 9.16174 0.883545 9.39084 0.883545 9.65724V40.6917C0.883545 40.9582 1.01157 41.1873 1.20151 41.3454Z" fill="#F5F5F5"/>
<path d="M1.20166 41.3454C1.35107 41.4698 1.53613 41.5538 1.7457 41.5538H50.0216C50.4977 41.5538 50.8837 41.1678 50.8837 40.6917V25.1745H25.8837L1.20166 41.3454Z" fill="#73AF00"/>
<path d="M1.20166 9.00363C1.35107 8.87921 1.53613 8.79523 1.7457 8.79523H50.0216C50.4977 8.79523 50.8837 9.18126 50.8837 9.65734V25.1745H25.8837L1.20166 9.00363Z" fill="#82AFFF"/>
<path d="M9.84507 21.2815L8.97202 23.8992L6.21255 23.9207C6.06128 23.9219 5.99858 24.1151 6.12017 24.2049L8.34009 25.8443L7.50776 28.4753C7.46216 28.6196 7.62642 28.7389 7.74946 28.6509L9.99448 27.0463L12.2395 28.6509C12.3625 28.7388 12.5268 28.6195 12.4812 28.4753L11.6489 25.8443L13.8685 24.2048C13.9902 24.115 13.9275 23.9218 13.7761 23.9206L11.0166 23.8991L10.1436 21.2814C10.0959 21.1379 9.89292 21.1379 9.84507 21.2815Z" fill="#FF4B55"/>
</g>
<defs>
<clipPath id="clip0_108_49416">
<rect width="50" height="50" fill="white" transform="translate(0.882812 0.174561)"/>
</clipPath>
</defs>
</svg>
