<svg width="50" height="51" viewBox="0 0 50 51" fill="none" xmlns="http://www.w3.org/2000/svg">
<g clip-path="url(#clip0_108_49321)">
<path d="M49.1378 41.9819H0.862108C0.386034 41.9819 0 41.5959 0 41.1198V10.0854C0 9.6093 0.386034 9.22327 0.862108 9.22327H49.1379C49.614 9.22327 50 9.6093 50 10.0854V41.1198C49.9999 41.596 49.6139 41.9819 49.1378 41.9819Z" fill="#F5F5F5"/>
<path d="M20.6896 22.1544H0.862108C0.386034 22.1544 0 21.7684 0 21.2923V10.0854C0 9.6093 0.386034 9.22327 0.862108 9.22327H20.6896C21.1657 9.22327 21.5517 9.6093 21.5517 10.0854V21.2923C21.5517 21.7684 21.1657 22.1544 20.6896 22.1544Z" fill="#41479B"/>
<path d="M49.1376 41.9819H29.3101C28.834 41.9819 28.448 41.5959 28.448 41.1198V29.913C28.448 29.4369 28.834 29.0509 29.3101 29.0509H49.1376C49.6137 29.0509 49.9997 29.4369 49.9997 29.913V41.1199C49.9997 41.596 49.6137 41.9819 49.1376 41.9819Z" fill="#41479B"/>
<path d="M49.1376 22.1544H29.3101C28.834 22.1544 28.448 21.7684 28.448 21.2923V10.0854C28.448 9.6093 28.834 9.22327 29.3101 9.22327H49.1376C49.6137 9.22327 49.9997 9.6093 49.9997 10.0854V21.2923C49.9997 21.7684 49.6137 22.1544 49.1376 22.1544Z" fill="#FF4B55"/>
<path d="M20.6896 41.9819H0.862108C0.386034 41.9819 0 41.5959 0 41.1198V29.913C0 29.4369 0.386034 29.0509 0.862108 29.0509H20.6896C21.1657 29.0509 21.5517 29.4369 21.5517 29.913V41.1199C21.5517 41.596 21.1657 41.9819 20.6896 41.9819Z" fill="#FF4B55"/>
<path d="M24.5056 28.0608C24.5056 28.0608 25.0207 28.2493 24.9535 28.8959L25.1617 28.892C25.1617 28.892 25.0303 28.1449 24.9217 28.0553C24.8131 27.9658 24.5056 28.0608 24.5056 28.0608Z" fill="#64B496"/>
<path d="M25.0213 27.9609C24.8028 27.9609 24.421 27.9606 24.0194 27.8522C24.109 27.7591 24.2327 27.5714 24.2327 27.2441C24.2327 26.7316 23.8796 27.0586 23.8796 27.0586C23.8796 27.0586 23.6474 27.254 23.7878 27.7764C23.6509 27.7241 23.515 27.6567 23.3856 27.5704C23.4661 27.4692 23.6269 27.2335 23.7202 26.8597C23.7202 26.8597 23.1317 26.7434 22.9708 27.1865C22.8722 27.0614 22.7878 26.9207 22.7174 26.7649C22.8687 26.7668 23.0797 26.667 23.0797 26.091C23.0797 26.091 22.6954 26.0917 22.5928 26.425C22.5524 26.2856 22.5216 26.1363 22.4989 25.9785C22.6524 26.023 23.049 26.055 23.049 25.1941C23.049 25.1941 22.5728 25.195 22.4625 25.6169C22.4565 25.509 22.4541 25.3975 22.4552 25.2824C22.6864 25.1615 23.0056 24.8952 22.9725 24.3488C22.9725 24.3488 22.7528 24.3986 22.5515 24.5675C22.5911 24.3604 22.5747 24.0571 22.257 23.8041C22.257 23.8041 21.9651 24.3207 22.3915 24.7401C22.3544 24.7923 22.3221 24.8517 22.2954 24.9176C22.1996 24.7717 22.046 24.636 21.7985 24.5536C21.7985 24.5536 21.6847 25.2455 22.3307 25.535C22.346 25.9391 22.4092 26.2961 22.5178 26.6065C22.3327 26.4436 22.183 26.2191 22.183 26.2191C22.183 25.4504 21.5528 25.431 21.5528 25.431C21.4352 26.3084 22.084 26.3438 22.084 26.3438L22.4393 26.7315C21.6705 26.6034 21.6705 27.244 21.6705 27.244C22.183 27.3722 22.4393 27.1159 22.4393 27.1159L22.7164 27.2584C22.2248 27.2728 22.0549 27.7565 22.0549 27.7565C22.6728 27.8596 23.1245 27.7143 23.2781 27.6533C23.9004 28.0884 24.6674 28.089 25.0215 28.089V27.9609H25.0213Z" fill="#64B496"/>
<path d="M24.978 27.961C25.1965 27.961 25.5783 27.9607 25.9799 27.8523C25.8903 27.7591 25.7666 27.5714 25.7666 27.2442C25.7666 26.7317 26.1197 27.0587 26.1197 27.0587C26.1197 27.0587 26.352 27.2541 26.2115 27.7764C26.3484 27.7242 26.4843 27.6568 26.6138 27.5705C26.5332 27.4693 26.3725 27.2336 26.2791 26.8597C26.2791 26.8597 26.8676 26.7434 27.0285 27.1866C27.1271 27.0615 27.2115 26.9208 27.2819 26.765C27.1307 26.7669 26.9196 26.6671 26.9196 26.0911C26.9196 26.0911 27.3039 26.0918 27.4067 26.4251C27.4472 26.2857 27.4779 26.1364 27.5006 25.9786C27.3472 26.0231 26.9505 26.055 26.9505 25.1942C26.9505 25.1942 27.4268 25.1951 27.537 25.617C27.5431 25.509 27.5454 25.3975 27.5443 25.2825C27.3131 25.1616 26.9939 24.8953 27.027 24.3489C27.027 24.3489 27.2467 24.3987 27.448 24.5675C27.4084 24.3604 27.4248 24.0572 27.7425 23.8042C27.7425 23.8042 28.0344 24.3208 27.608 24.7402C27.6451 24.7924 27.6774 24.8517 27.7041 24.9176C27.7999 24.7717 27.9535 24.6361 28.201 24.5537C28.201 24.5537 28.3148 25.2456 27.6688 25.535C27.6535 25.9391 27.5903 26.2962 27.4817 26.6066C27.6668 26.4436 27.8165 26.2192 27.8165 26.2192C27.8165 25.4505 28.4467 25.431 28.4467 25.431C28.5643 26.3085 27.9155 26.3439 27.9155 26.3439L27.5602 26.7316C28.329 26.6035 28.329 27.2441 28.329 27.2441C27.8165 27.3722 27.5602 27.116 27.5602 27.116L27.2831 27.2585C27.7747 27.2728 27.9446 27.7566 27.9446 27.7566C27.3268 27.8596 26.875 27.7143 26.7214 27.6534C26.0991 28.0884 25.3321 28.089 24.978 28.089V27.961Z" fill="#64B496"/>
<path d="M22.8382 22.3756C22.3876 22.6644 21.9904 23.0321 21.6704 23.4661C21.8079 23.5675 21.9454 23.669 22.0829 23.7703C22.3653 23.3872 22.7158 23.0628 23.1133 22.8078L22.8382 22.3756Z" fill="#41479B"/>
<path d="M25.0013 25.7067H26.795V26.7317C26.795 27.0148 26.5656 27.2442 26.2825 27.2442H25.5137C25.3032 27.2442 25.118 27.3472 25.0012 27.504L25.0013 25.7067Z" fill="#FF6B71"/>
<path d="M25.3855 24.5536V23.1443H27.3074L26.7949 23.6568V25.0661H25.3855V24.5536Z" fill="#5F64B9"/>
<path d="M26.7949 25.0656H26.1543V25.7062H26.7949V25.0656Z" fill="#F5F5F5"/>
<path d="M25.0014 25.7067H23.2078V26.7317C23.2078 27.0148 23.4372 27.2442 23.7203 27.2442H24.489C24.6996 27.2442 24.8847 27.3472 25.0015 27.504L25.0014 25.7067Z" fill="#FF6B71"/>
<path d="M24.6812 27.2751C24.809 27.3159 24.9193 27.3955 24.9985 27.5004H25.0045C25.0838 27.3954 25.194 27.316 25.3219 27.2751V26.2191H24.6812L24.6812 27.2751Z" fill="#F5F5F5"/>
<path d="M24.6169 24.5536V23.1443H22.6951L23.2076 23.6568V25.0661H24.6169V24.5536Z" fill="#5F64B9"/>
<path d="M23.8486 25.0656H23.208V25.7062H23.8486V25.0656Z" fill="#F5F5F5"/>
<path d="M23.8481 23.7849V24.1693L24.2335 24.4255V24.1693L23.8481 23.7849Z" fill="#41479B"/>
<path d="M24.2327 24.1693V24.5536L24.7452 24.8099V24.6817L24.2327 24.1693Z" fill="#F5F5F5"/>
<path d="M26.1554 23.7849V24.1693L25.77 24.4255V24.1693L26.1554 23.7849Z" fill="#41479B"/>
<path d="M25.7701 24.1693V24.5536L25.2576 24.8099V24.6817L25.7701 24.1693Z" fill="#F5F5F5"/>
<path d="M25.7746 26.6035H24.2288C23.8774 26.6035 23.5925 26.3167 23.5925 25.9629V23.9814L25.011 24.9379L26.4107 23.9814V25.9629C26.4107 26.3168 26.1259 26.6035 25.7746 26.6035Z" fill="#FF4B55"/>
<path d="M24.1045 24.2975L23.592 23.9131V25.3225L24.1045 25.5787V24.2975Z" fill="#41479B"/>
<path d="M25.8977 24.2973L26.4102 23.9129V25.3223L25.8977 25.5786V24.2973Z" fill="#41479B"/>
<path d="M25.7694 25.5791H24.2319V26.2198H25.7694V25.5791Z" fill="#41479B"/>
<path d="M24.2327 24.4255L25.0013 24.8099L25.7701 24.4255V25.5786H24.2327V24.4255Z" fill="#FF4B55"/>
<path d="M25.5781 24.5465V25.8348C25.5781 25.9407 25.4918 26.0268 25.386 26.0268H24.6172C24.5113 26.0268 24.4251 25.9406 24.4251 25.8348V24.5518L24.0408 24.2943V25.8348C24.0408 26.1526 24.2994 26.4112 24.6172 26.4112H25.386C25.7039 26.4112 25.9624 26.1526 25.9624 25.8348V24.2856L25.5781 24.5465Z" fill="#F5F5F5"/>
<path d="M25.7123 25.4414C25.4965 25.4608 25.2536 25.4826 25.0016 25.5703C24.7496 25.4826 24.5066 25.4608 24.2908 25.4414C23.9297 25.409 23.7154 25.3774 23.5928 25.1596V25.5294C23.7812 25.6519 24.0197 25.6743 24.2679 25.6967C24.4906 25.7167 24.7209 25.7373 24.9562 25.8265L25.0017 25.8436L25.0471 25.8265C25.2823 25.7373 25.5126 25.7168 25.7354 25.6967C25.9838 25.6744 26.2227 25.6522 26.4111 25.5296V25.1587C26.2884 25.3774 26.0739 25.409 25.7123 25.4414Z" fill="#F5F5F5"/>
<path d="M25.2575 24.2333H25.0654V24.0411H24.9373V24.2333H24.7451V24.3614H24.9373V24.938H25.0654V24.3614H25.2575V24.2333Z" fill="#FFE15A"/>
<path d="M23.8086 23.652L23.7383 23.7223L24.8641 24.8481L24.9344 24.7778L23.8086 23.652Z" fill="#464655"/>
<path d="M23.5623 23.4757L23.7033 23.7571L23.8444 23.6164L23.5623 23.4757Z" fill="#FFE15A"/>
<path d="M24.0673 23.4695L23.9868 23.5281L24.9244 24.8152L25.0048 24.7566L24.0673 23.4695Z" fill="#464655"/>
<path d="M23.8503 23.2572L23.946 23.5571L24.1073 23.4399L23.8503 23.2572Z" fill="#FFE15A"/>
<path d="M23.585 23.8871L23.5281 23.9686L24.8335 24.8801L24.8904 24.7986L23.585 23.8871Z" fill="#464655"/>
<path d="M23.3115 23.7577L23.4998 24.0102L23.6141 23.8471L23.3115 23.7577Z" fill="#FFE15A"/>
<path d="M25.0681 24.777L25.1384 24.8473L26.2643 23.7215L26.194 23.6512L25.0681 24.777Z" fill="#464655"/>
<path d="M26.4406 23.4757L26.2995 23.7571L26.1584 23.6164L26.4406 23.4757Z" fill="#FFE15A"/>
<path d="M24.9984 24.7555L25.0789 24.8141L26.0164 23.527L25.936 23.4684L24.9984 24.7555Z" fill="#464655"/>
<path d="M26.1526 23.2572L26.0569 23.5571L25.8958 23.4399L26.1526 23.2572Z" fill="#FFE15A"/>
<path d="M25.1135 24.7999L25.1704 24.8814L26.4758 23.9699L26.4189 23.8884L25.1135 24.7999Z" fill="#464655"/>
<path d="M26.6917 23.7577L26.5034 24.0102L26.3892 23.8471L26.6917 23.7577Z" fill="#FFE15A"/>
<path d="M24.9366 27.2077C24.9366 27.2077 24.4411 26.6756 24.5373 26.1871C24.6145 25.7942 24.849 25.3611 25.0325 25.2558C25.0325 25.2558 25.292 25.2398 25.2269 25.4651C25.1619 25.6905 25.0826 25.7486 25.1058 25.9708C25.1458 26.3554 25.2078 26.811 24.9366 27.2077Z" fill="#F5F5F5"/>
<path d="M25.0867 25.2586C25.0558 25.2545 25.0322 25.2559 25.0322 25.2559C24.8487 25.3612 24.6143 25.7943 24.537 26.1872C24.4933 26.4094 24.5723 26.6401 24.6711 26.8262C24.6085 26.0207 24.8437 25.735 25.0867 25.2586Z" fill="#41479B"/>
<path d="M25.106 25.971C25.0828 25.7488 25.1622 25.6907 25.2274 25.4653C25.2732 25.3076 25.1596 25.2682 25.0872 25.2587C25.0872 25.2587 24.9214 25.6388 24.9107 25.8938C24.9013 26.1181 24.9589 27.0309 24.9366 27.208C25.2085 26.811 25.1463 26.3554 25.106 25.971Z" fill="#FF4B55"/>
<path d="M24.7693 25.4486C24.8725 25.348 25.0176 25.3029 25.1598 25.3274C25.0924 25.1105 25.025 24.8936 24.9577 24.6766C24.8157 24.6523 24.6705 24.6973 24.5671 24.7979C24.6344 25.0149 24.7019 25.2317 24.7693 25.4486Z" fill="#F5F0F0"/>
<path d="M25.1599 25.3273C25.2631 25.2267 25.4083 25.1816 25.5504 25.206C25.4831 24.9892 25.4157 24.7723 25.3483 24.5553C25.2063 24.531 25.0611 24.576 24.9578 24.6766C25.025 24.8935 25.0924 25.1103 25.1599 25.3273Z" fill="#F5F5F5"/>
<path d="M24.4162 22.5122C23.7207 22.4962 23.0338 22.6672 22.427 23.0073C22.3435 22.8583 22.2599 22.7093 22.1763 22.5604C22.8631 22.1752 23.6407 21.9817 24.428 21.9998C24.424 22.1706 24.42 22.3414 24.4162 22.5122Z" fill="#5F64B9"/>
<path d="M27.1647 22.3756C27.6153 22.6644 28.0125 23.0321 28.3325 23.4661C28.195 23.5675 28.0575 23.669 27.92 23.7703C27.6376 23.3872 27.2871 23.0628 26.8896 22.8078L27.1647 22.3756Z" fill="#41479B"/>
<path d="M25.5868 22.5122C26.2823 22.4962 26.9692 22.6672 27.576 23.0073C27.6595 22.8583 27.7431 22.7093 27.8267 22.5604C27.1399 22.1752 26.3623 21.9817 25.575 21.9998C25.579 22.1706 25.583 22.3414 25.5868 22.5122Z" fill="#5F64B9"/>
<path d="M26.0265 22.3756C25.3555 22.192 24.6475 22.192 23.9766 22.3756C23.9315 22.2108 23.8863 22.0461 23.8413 21.8812C24.6008 21.6735 25.4021 21.6735 26.1617 21.8812C26.1167 22.046 26.0716 22.2107 26.0265 22.3756Z" fill="#41479B"/>
<path d="M23.2843 28.118C22.7313 28.2624 22.1907 28.4573 21.6702 28.7025C21.743 28.857 21.8159 29.0116 21.8886 29.1661C22.3909 28.9293 22.9129 28.7425 23.4472 28.6053L23.2843 28.118Z" fill="#FF6B71"/>
<path d="M26.7181 28.1181C27.2711 28.2625 27.8117 28.4574 28.3322 28.7026C28.2594 28.8571 28.1865 29.0117 28.1138 29.1661C27.6115 28.9294 27.0895 28.7426 26.5552 28.6054L26.7181 28.1181Z" fill="#FF6B71"/>
<path d="M27.0623 28.5142C25.7147 28.1907 24.31 28.1907 22.9624 28.5142C22.9226 28.348 22.8826 28.182 22.8428 28.016C24.2688 27.6736 25.7559 27.6736 27.1819 28.016C27.1422 28.182 27.1022 28.3482 27.0623 28.5142Z" fill="#FF4B55"/>
<path d="M25.0022 28.6536L24.6489 28.742C24.5681 28.7622 24.4897 28.7011 24.4897 28.6178V28.4335C24.4897 28.3502 24.5681 28.289 24.6489 28.3093L25.0022 28.3977V28.6536Z" fill="#FF4B55"/>
<path d="M25.0022 28.3974L25.3555 28.309C25.4364 28.2888 25.5147 28.3499 25.5147 28.4332V28.6175C25.5147 28.7008 25.4364 28.762 25.3555 28.7417L25.0022 28.6533V28.3974Z" fill="#FF4B55"/>
<path d="M25.0294 28.6535H24.9742C24.9185 28.6535 24.8733 28.6085 24.8733 28.5528V28.4979C24.8733 28.4423 24.9184 28.3972 24.9742 28.3972H25.0294C25.0851 28.3972 25.1303 28.4422 25.1303 28.4979V28.5528C25.1302 28.6085 25.0851 28.6535 25.0294 28.6535Z" fill="#FF6B71"/>
</g>
<defs>
<clipPath id="clip0_108_49321">
<rect width="50" height="50" fill="white" transform="translate(0 0.602539)"/>
</clipPath>
</defs>
</svg>
