<svg width="51" height="51" viewBox="0 0 51 51" fill="none" xmlns="http://www.w3.org/2000/svg">
<g clip-path="url(#clip0_108_49316)">
<path d="M49.5646 9.22327H1.28887C0.812792 9.22327 0.426758 9.6092 0.426758 10.0853V41.1197C0.426758 41.5958 0.812792 41.9818 1.28887 41.9818H49.5647C50.0407 41.9818 50.4268 41.5958 50.4268 41.1197V10.0853C50.4267 9.6092 50.0406 9.22327 49.5646 9.22327Z" fill="#FF4B55"/>
<path d="M0.768066 41.7891L28.4895 26.138C28.9063 25.9026 28.9063 25.3024 28.4895 25.0672L0.768066 9.41595C0.565429 9.57367 0.426758 9.80873 0.426758 10.0853V41.1197C0.426758 41.3964 0.565527 41.6314 0.768066 41.7891Z" fill="#FFE15A"/>
<path d="M0.694433 41.7396L19.5354 26.1956C19.9082 25.8881 19.9082 25.3171 19.5354 25.0095L0.694433 9.46545C0.530762 9.62249 0.426758 9.84065 0.426758 10.0853V41.1197C0.426758 41.3644 0.530762 41.5827 0.694433 41.7396Z" fill="#464655"/>
<path d="M5.81098 21.5542L5.8931 24.657L2.98403 25.7391C2.70502 25.8429 2.7187 26.242 3.00414 26.3265L5.98041 27.2071L6.11068 30.3082C6.12318 30.6057 6.50697 30.7159 6.67552 30.4706L8.43285 27.9121L11.4224 28.7465C11.709 28.8266 11.9326 28.4955 11.7514 28.2595L9.86107 25.7976L11.5784 23.2122C11.7431 22.9643 11.4975 22.6494 11.2169 22.7488L8.29154 23.7858L6.36342 21.3535C6.17836 21.1202 5.80307 21.2567 5.81098 21.5542Z" fill="#F5F5F5"/>
</g>
<defs>
<clipPath id="clip0_108_49316">
<rect width="50" height="50" fill="white" transform="translate(0.427734 0.602539)"/>
</clipPath>
</defs>
</svg>
