<svg width="51" height="51" viewBox="0 0 51 51" fill="none" xmlns="http://www.w3.org/2000/svg">
<g clip-path="url(#clip0_108_49267)">
<path d="M50.7209 33.7923H0.720947V41.1198C0.720947 41.5959 1.10698 41.9819 1.58306 41.9819H49.8588C50.3349 41.9819 50.7209 41.5959 50.7209 41.1198L50.7209 33.7923Z" fill="#FF4B55"/>
<path d="M50.7209 25.6026H0.720947V10.0854C0.720947 9.6093 1.10698 9.22327 1.58306 9.22327H49.8588C50.3349 9.22327 50.7209 9.6093 50.7209 10.0854L50.7209 25.6026Z" fill="#FFE15A"/>
<path d="M50.7209 25.6027H0.720947V33.7921H50.7209V25.6027Z" fill="#41479B"/>
<path d="M24.821 26.0863L31.1179 20.6891V28.5003C31.1179 29.8168 30.0506 30.8839 28.7343 30.8839C28.1455 30.8839 27.5774 30.6659 27.1397 30.2721L24.821 28.1854V26.0863Z" fill="#FFE15A"/>
<path d="M28.1428 29.1577L26.3206 27.5177V24.8014L29.6189 21.9742V23.9489V28.5004C29.6189 28.988 29.2221 29.3847 28.7345 29.3847C28.5157 29.3847 28.3055 29.3041 28.1428 29.1577Z" fill="#FF4B55"/>
<path d="M27.2201 24.0304V27.118L28.7193 28.4717V23.9302V22.7454L29.6189 21.9743V23.949V28.5005C29.6189 28.9881 29.2221 29.3849 28.7345 29.3849C28.5157 29.3849 28.3055 29.3043 28.1428 29.1578L26.3206 27.5178V24.8015L27.2201 24.0304Z" fill="#41479B"/>
<path d="M26.6206 26.0863L20.3237 20.6891V28.5003C20.3237 29.8168 21.391 30.8839 22.7073 30.8839C23.2962 30.8839 23.8643 30.6659 24.3019 30.2721L26.6206 28.1854V26.0863Z" fill="#FFE15A"/>
<path d="M23.2991 29.1577L25.1213 27.5177V24.8014L21.823 21.9742V23.9489V28.5004C21.823 28.988 22.2198 29.3847 22.7074 29.3847C22.9262 29.3847 23.1364 29.3041 23.2991 29.1577Z" fill="#FF4B55"/>
<path d="M24.2206 24.0304V27.118L22.7214 28.4717V23.9302V22.7454L21.8218 21.9743V23.949V28.5005C21.8218 28.9881 22.2186 29.3849 22.7062 29.3849C22.925 29.3849 23.1352 29.3043 23.2978 29.1578L25.1201 27.5178V24.8015L24.2206 24.0304Z" fill="#41479B"/>
<path d="M31.3305 20.7159H30.8994V23.2988H31.3305V20.7159Z" fill="#41479B"/>
<path d="M20.5375 20.7159H20.1064V23.2988H20.5375V20.7159Z" fill="#41479B"/>
<path d="M24.8212 19.4897C24.8212 19.4897 25.4209 16.6411 23.322 17.0159C21.223 17.3907 21.223 17.9903 18.8242 19.1898C18.8242 19.1898 21.5228 19.7895 22.7223 19.4897C22.7223 19.4897 23.6219 20.6891 24.5214 20.989H25.421L24.8212 19.4897Z" fill="#5A4646"/>
<path d="M26.6206 19.4898C26.6206 19.4898 26.0208 16.6411 28.1198 17.016C30.2187 17.3908 30.2187 17.9904 32.6175 19.1899C32.6175 19.1899 29.9189 19.7896 28.7195 19.4898C28.7195 19.4898 27.8199 20.6891 26.9204 20.989H26.0208L26.6206 19.4898Z" fill="#5A4646"/>
<path d="M26.6204 20.989H24.8213V19.4786C24.8213 18.9879 25.219 18.5901 25.7098 18.5901H25.7319C26.2227 18.5901 26.6204 18.9879 26.6204 19.4786V20.989Z" fill="#5A4646"/>
<path d="M25.7208 20.0891C26.052 20.0891 26.3205 19.8206 26.3205 19.4894C26.3205 19.1582 26.052 18.8897 25.7208 18.8897C25.3896 18.8897 25.1211 19.1582 25.1211 19.4894C25.1211 19.8206 25.3896 20.0891 25.7208 20.0891Z" fill="#E6E1CD"/>
<path d="M24.4341 19.1025L25.5616 19.7046C25.6562 19.7552 25.7728 19.7378 25.8484 19.6619C25.9436 19.5668 25.9436 19.4127 25.8484 19.3175L25.1211 18.5901H24.9462C24.6634 18.5901 24.4341 18.8194 24.4341 19.1025Z" fill="#FFD0AF"/>
<path d="M24.8251 19.1898H23.9219L24.3171 18.7272C24.3913 18.6403 24.4998 18.5902 24.6142 18.5902H25.1212V18.8938C25.1212 19.0572 24.9886 19.1898 24.8251 19.1898Z" fill="#FFAF94"/>
<path d="M28.2779 20.9898C28.0756 20.7498 28.0324 20.4315 28.1311 20.1558C28.4195 20.1054 28.7259 20.2017 28.9281 20.442C29.101 20.6472 29.1511 20.908 29.1024 21.1521C29.1623 21.2539 29.2356 21.3848 29.3161 21.5392C29.3201 21.5173 29.3193 21.4955 29.3255 21.4735C29.3962 21.2249 29.5934 21.0489 29.827 20.9893C29.9943 21.163 30.0694 21.4164 29.9987 21.6649C29.938 21.8788 29.7812 22.0338 29.5905 22.1123C29.6658 22.285 29.7403 22.4714 29.81 22.668C29.814 22.6564 29.8143 22.6447 29.819 22.6333C29.9166 22.3939 30.132 22.2408 30.3707 22.2073C30.5178 22.3982 30.5647 22.6584 30.4671 22.8977C30.3817 23.1071 30.2044 23.2452 30.0019 23.3002C30.1062 23.7116 30.1752 24.1481 30.1752 24.5876H29.8753C29.8753 24.2046 29.8165 23.821 29.7277 23.454C29.5427 23.5137 29.336 23.501 29.1569 23.3914C28.9386 23.2576 28.8234 23.0224 28.8287 22.7837C29.0391 22.6704 29.3009 22.6662 29.5193 22.8001C29.5272 22.8049 29.5324 22.8119 29.5401 22.817C29.4758 22.6324 29.4074 22.4573 29.3372 22.293C29.1572 22.3781 28.9454 22.3912 28.7511 22.3C28.5193 22.191 28.3789 21.97 28.3579 21.7321C28.5538 21.5968 28.8127 21.564 29.0438 21.6716C28.9612 21.5129 28.8867 21.38 28.8283 21.2807C28.6218 21.2569 28.4229 21.1618 28.2779 20.9898Z" fill="#8CB400"/>
<path d="M23.1635 20.9899C23.3658 20.7499 23.409 20.4316 23.3104 20.1558C23.0219 20.1054 22.7156 20.2018 22.5133 20.442C22.3405 20.6472 22.2904 20.9081 22.3391 21.1522C22.2791 21.254 22.2059 21.3848 22.1253 21.5393C22.1213 21.5173 22.1222 21.4956 22.1159 21.4736C22.0452 21.225 21.8481 21.049 21.6145 20.9894C21.4472 21.163 21.372 21.4165 21.4427 21.665C21.5034 21.8789 21.6603 22.0338 21.8509 22.1124C21.7756 22.2851 21.7011 22.4714 21.6315 22.668C21.6275 22.6565 21.6272 22.6448 21.6225 22.6333C21.5248 22.394 21.3094 22.2409 21.0707 22.2074C20.9237 22.3983 20.8768 22.6584 20.9744 22.8978C21.0599 23.1072 21.2371 23.2453 21.4397 23.3002C21.3354 23.7117 21.2663 24.1482 21.2663 24.5876H21.5662C21.5662 24.2046 21.625 23.821 21.7138 23.454C21.8989 23.5138 22.1056 23.501 22.2846 23.3914C22.5031 23.2577 22.6182 23.0225 22.6128 22.7837C22.4025 22.6705 22.1407 22.6663 21.9223 22.8001C21.9144 22.8049 21.9091 22.812 21.9015 22.817C21.9657 22.6325 22.0341 22.4574 22.1043 22.2931C22.2843 22.3782 22.4961 22.3913 22.6905 22.3C22.9223 22.1911 23.0626 21.9701 23.0836 21.7322C22.8877 21.5968 22.6288 21.5641 22.3978 21.6716C22.4803 21.5129 22.5548 21.38 22.6132 21.2808C22.8197 21.257 23.0186 21.1619 23.1635 20.9899Z" fill="#8CB400"/>
<path d="M25.7207 27.5857L19.4238 22.1884V29.9996C19.4238 31.3161 20.4911 32.3832 21.8074 32.3832C22.3963 32.3832 22.9643 32.1653 23.402 31.7714L25.7207 29.6847V27.5857Z" fill="#FFE15A"/>
<path d="M22.3992 30.6569L24.2214 29.0169V26.3006L20.9231 23.4734V25.4482V29.9996C20.9231 30.4872 21.3199 30.884 21.8075 30.884C22.0264 30.884 22.2365 30.8034 22.3992 30.6569Z" fill="#FF4B55"/>
<path d="M23.3219 25.5296V28.6172L21.8227 29.9709V25.4294V24.2446L20.9231 23.4735V25.4482V29.9997C20.9231 30.4873 21.3199 30.8841 21.8075 30.8841C22.0263 30.8841 22.2365 30.8035 22.3992 30.657L24.2214 29.017V26.3007L23.3219 25.5296Z" fill="#41479B"/>
<path d="M25.7209 27.5857L32.0178 22.1884V29.9996C32.0178 31.3161 30.9505 32.3832 29.6342 32.3832C29.0454 32.3832 28.4773 32.1653 28.0396 31.7714L25.7209 29.6847V27.5857Z" fill="#FFE15A"/>
<path d="M29.0422 30.6569L27.22 29.0169V26.3006L30.5183 23.4734V25.4482V29.9996C30.5183 30.4872 30.1215 30.884 29.6339 30.884C29.4149 30.884 29.2049 30.8034 29.0422 30.6569Z" fill="#FF4B55"/>
<path d="M28.1195 25.5296V28.6172L29.6187 29.9709V25.4294V24.2446L30.5183 23.4735V25.4482V29.9997C30.5183 30.4873 30.1215 30.8841 29.6339 30.8841C29.4151 30.8841 29.2049 30.8035 29.0422 30.657L27.22 29.017V26.3007L28.1195 25.5296Z" fill="#41479B"/>
<path d="M25.7209 29.9845C27.377 29.9845 28.7195 27.9706 28.7195 25.4864C28.7195 23.0022 27.377 20.9884 25.7209 20.9884C24.0649 20.9884 22.7224 23.0022 22.7224 25.4864C22.7224 27.9706 24.0649 29.9845 25.7209 29.9845Z" fill="#69C3FF"/>
<path d="M23.0222 26.6861H28.4195L28.7194 25.4868L27.3529 25.7147C27.0788 25.7604 26.7984 25.6822 26.5873 25.5014L25.0362 24.1718C24.8976 24.0529 24.7209 23.9876 24.5384 23.9876C24.3356 23.9876 24.141 24.0682 23.9976 24.2116L23.0222 25.187V26.6861Z" fill="#009B64"/>
<path d="M25.4366 25.2853L25.9516 24.9562L25.0362 24.1716C24.8976 24.0528 24.7209 23.9874 24.5384 23.9874C24.3356 23.9874 24.141 24.068 23.9976 24.2115L23.0222 25.1868V25.4867L24.5214 25.1868L24.7865 25.3194C24.9943 25.4233 25.2411 25.4102 25.4366 25.2853Z" fill="#F5F5F5"/>
<path d="M23.0222 26.6861L23.322 28.4851L24.8212 29.9845H25.7208L26.9202 29.6847L28.1197 28.4851L28.4195 26.6861H23.0222Z" fill="#5AA0E6"/>
<path d="M25.7207 30.2843C23.902 30.2843 22.4224 28.132 22.4224 25.4866C22.4224 22.8412 23.902 20.689 25.7207 20.689C27.5394 20.689 29.019 22.8412 29.019 25.4866C29.019 28.132 27.5394 30.2843 25.7207 30.2843ZM25.7207 21.2889C24.2328 21.2889 23.0221 23.1721 23.0221 25.4868C23.0221 27.8016 24.2327 29.6848 25.7207 29.6848C27.2087 29.6848 28.4193 27.8016 28.4193 25.4868C28.4193 23.1721 27.2086 21.2889 25.7207 21.2889Z" fill="#FFC88C"/>
<path d="M23.6054 29.9575C23.354 29.6104 22.9798 29.3848 22.556 29.3848C22.1322 29.3848 21.758 29.6104 21.5066 29.9575C21.9353 30.0764 22.2861 30.4244 22.4522 30.8832C22.5191 31.068 22.5561 31.2707 22.5561 31.4838C22.556 30.742 23.0041 30.1242 23.6054 29.9575Z" fill="#E1E1E1"/>
<path d="M22.7945 30.9035C22.7945 30.9035 22.7712 31.3033 22.5661 31.4907L22.5575 31.4837C22.3525 31.2963 22.3291 30.8965 22.3291 30.8965L22.7945 30.9035Z" fill="#E1E1E1"/>
<path d="M29.471 31.0339H21.971C21.8892 31.0339 21.823 30.9676 21.823 30.8858V30.8821C21.823 30.8003 21.8893 30.7341 21.971 30.7341H29.471C29.5529 30.7341 29.6191 30.8004 29.6191 30.8821V30.8858C29.6191 30.9676 29.5529 31.0339 29.471 31.0339Z" fill="#966446"/>
<path d="M27.2275 31.4837H24.2142C23.8871 31.4837 23.6218 31.2185 23.6218 30.8913V30.8766C23.6218 30.5494 23.8871 30.2842 24.2142 30.2842H27.2275C27.5546 30.2842 27.8199 30.5494 27.8199 30.8766V30.8913C27.8198 31.2185 27.5545 31.4837 27.2275 31.4837Z" fill="#BE915A"/>
<path d="M23.0223 30.7341H21.9729C21.8902 30.7341 21.823 30.8012 21.823 30.884C21.823 30.9668 21.8901 31.0339 21.9729 31.0339H23.0223V30.7341Z" fill="#B9B9B9"/>
<path d="M25.721 31.4837V34.2233L24.5217 33.8825L25.1213 31.4837H25.721Z" fill="#FF4B55"/>
<path d="M25.4208 31.4837L24.8211 33.5827L23.6218 33.2828L24.5214 31.4837H25.4208Z" fill="#41479B"/>
<path d="M24.2214 31.4837L23.3218 32.6831L24.2214 32.9829L24.821 31.4837H24.2214Z" fill="#FFE15A"/>
<path d="M25.7209 31.4837V34.2233L26.9203 33.8825L26.3207 31.4837H25.7209Z" fill="#FF4B55"/>
<path d="M26.0208 31.4837L26.6205 33.5827L27.8198 33.2828L26.9202 31.4837H26.0208Z" fill="#41479B"/>
<path d="M27.22 31.4837L28.1196 32.6831L27.22 32.9829L26.6204 31.4837H27.22Z" fill="#FFE15A"/>
<path d="M19.6396 24.7708L19.2085 24.3364V22.1881H19.6396V24.7708Z" fill="#41479B"/>
<path d="M32.2299 24.3365L31.7988 24.7709V22.1882H32.2299V24.3365Z" fill="#41479B"/>
</g>
<defs>
<clipPath id="clip0_108_49267">
<rect width="50" height="50" fill="white" transform="translate(0.720703 0.602539)"/>
</clipPath>
</defs>
</svg>
