<svg width="51" height="51" viewBox="0 0 51 51" fill="none" xmlns="http://www.w3.org/2000/svg">
<g clip-path="url(#clip0_108_49262)">
<path d="M50.1476 20.1429H0.147705V10.0854C0.147705 9.6093 0.53374 9.22327 1.00981 9.22327H49.2856C49.7617 9.22327 50.1477 9.6093 50.1477 10.0854L50.1476 20.1429Z" fill="#FF4B55"/>
<path d="M49.2855 41.9819H1.00981C0.53374 41.9819 0.147705 41.5959 0.147705 41.1198V31.0624H50.1476V41.1198C50.1476 41.596 49.7616 41.9819 49.2855 41.9819Z" fill="#464655"/>
<path d="M50.1476 20.1427H0.147705V31.0617H50.1476V20.1427Z" fill="#F5F5F5"/>
<path d="M27.9002 23.9005C27.9002 23.4731 27.4813 23.1711 27.0759 23.3064L26.3138 23.5604L26.1287 22.4428C26.0181 21.7762 25.4468 21.2924 24.7707 21.2924H24.0579L23.3124 22.21H24.2996L24.0233 23.5744L23.2193 23.3065C22.8138 23.1712 22.395 23.4732 22.395 23.9006V28.5368L23.5047 27.4272L22.9818 28.9956H22.3951V29.9132H27.9003V28.9956H27.3136L26.7907 27.4272L27.9004 28.5368V23.9005H27.9002ZM24.689 28.9954H23.9493L24.4579 27.6371L24.689 27.9322V28.9954ZM25.6063 28.9954V27.9322L25.8374 27.6371L26.346 28.9954H25.6063ZM25.1477 27.3324C25.1477 27.3324 23.7283 26.3719 23.7857 24.5799C23.7857 24.5799 24.6603 24.4366 25.1477 23.6623C25.6351 24.4365 26.5097 24.5799 26.5097 24.5799C26.567 26.372 25.1477 27.3324 25.1477 27.3324Z" fill="#F0C727"/>
</g>
<defs>
<clipPath id="clip0_108_49262">
<rect width="50" height="50" fill="white" transform="translate(0.148438 0.602539)"/>
</clipPath>
</defs>
</svg>
