<svg width="51" height="51" viewBox="0 0 51 51" fill="none" xmlns="http://www.w3.org/2000/svg">
<g clip-path="url(#clip0_108_49186)">
<path d="M50.4423 20.1429H0.442383V10.0854C0.442383 9.6093 0.828417 9.22327 1.30449 9.22327H49.5803C50.0564 9.22327 50.4424 9.6093 50.4424 10.0854L50.4423 20.1429Z" fill="#41479B"/>
<path d="M49.5799 41.9819H1.30425C0.828173 41.9819 0.442139 41.5959 0.442139 41.1198V31.0624H50.442V41.1198C50.442 41.596 50.056 41.9819 49.5799 41.9819Z" fill="#41479B"/>
<path d="M50.4418 20.1427H0.441895V31.0617H50.4418V20.1427Z" fill="#F5F5F5"/>
<path d="M25.4207 29.2709C23.3412 29.2709 21.6492 27.579 21.6492 25.4993C21.6492 24.611 21.964 23.7483 22.5359 23.0699L22.7006 23.2088C22.1615 23.8483 21.8646 24.6616 21.8646 25.4993C21.8646 27.46 23.4598 29.0554 25.4206 29.0554L25.4207 29.2709Z" fill="#50AF69"/>
<path d="M24.0413 28.1573C23.9942 28.2377 23.9709 28.3481 23.9607 28.4601C23.9182 28.4294 23.873 28.4009 23.824 28.377C23.824 28.377 23.7499 28.6381 23.8078 28.8261C23.8078 28.8261 23.6112 28.8504 23.4308 29.0315C23.4308 29.0315 23.493 29.0754 23.5997 29.1212C23.4205 29.2611 23.3652 29.3993 23.3652 29.3993C24.4228 29.9281 24.9297 29.1905 24.9518 29.1574C24.6927 28.4183 24.0413 28.1573 24.0413 28.1573Z" fill="#50AF69"/>
<path d="M24.9517 29.1578C24.9524 29.1597 24.9532 29.1613 24.9539 29.1634V29.1545C24.9539 29.1545 24.9522 29.1569 24.9517 29.1578Z" fill="#50AF69"/>
<path d="M23.0644 27.4524C22.9954 27.503 22.9354 27.5875 22.8857 27.6782C22.861 27.6368 22.8334 27.5963 22.8007 27.5582C22.8007 27.5582 22.6427 27.7512 22.6229 27.9309C22.6229 27.9309 22.4483 27.8797 22.23 27.9663C22.23 27.9663 22.2664 28.0261 22.3396 28.1038C22.1375 28.1561 22.0403 28.2525 22.0403 28.2525C22.7384 29.085 23.4355 28.6485 23.4662 28.6287C23.5183 27.9104 23.0644 27.4524 23.0644 27.4524Z" fill="#50AF69"/>
<path d="M23.4663 28.6286C23.4662 28.6306 23.4663 28.6322 23.4661 28.6342L23.4693 28.6267C23.4693 28.6267 23.4671 28.6281 23.4663 28.6286Z" fill="#50AF69"/>
<path d="M22.4589 26.5308C22.3835 26.5468 22.3029 26.594 22.2286 26.65C22.2236 26.6068 22.216 26.5634 22.2033 26.5199C22.2033 26.5199 22.002 26.6199 21.9191 26.7602C21.9191 26.7602 21.7947 26.6533 21.5834 26.6436C21.5834 26.6436 21.591 26.7062 21.6225 26.7971C21.4371 26.7652 21.3215 26.8084 21.3215 26.8084C21.5865 27.7509 22.3208 27.6507 22.3535 27.6457C22.6619 27.0754 22.4589 26.5308 22.4589 26.5308Z" fill="#50AF69"/>
<path d="M22.3528 27.6459C22.352 27.6473 22.3515 27.6488 22.3506 27.6504L22.356 27.6454C22.3561 27.6455 22.3537 27.6458 22.3528 27.6459Z" fill="#50AF69"/>
<path d="M22.2186 25.4806C22.147 25.4852 22.0637 25.5164 21.9839 25.5562C21.9894 25.5181 21.9924 25.4794 21.9911 25.4402C21.9911 25.4402 21.787 25.5026 21.6802 25.6143C21.6802 25.6143 21.5927 25.5066 21.4046 25.4725C21.4046 25.4725 21.3972 25.5277 21.4046 25.6104C21.2451 25.5603 21.1311 25.5836 21.1311 25.5836C21.1534 26.4334 21.8373 26.4353 21.8677 26.4349C22.2764 25.9775 22.2186 25.4806 22.2186 25.4806Z" fill="#50AF69"/>
<path d="M21.8678 26.4351C21.8667 26.4363 21.8659 26.4374 21.8647 26.4387L21.8707 26.4351C21.8708 26.4351 21.8685 26.435 21.8678 26.4351Z" fill="#50AF69"/>
<path d="M22.2986 24.6107C22.2374 24.5961 22.1594 24.6007 22.0821 24.6135C22.0966 24.583 22.1092 24.5513 22.118 24.5181C22.118 24.5181 21.9306 24.5177 21.8121 24.5837C21.8121 24.5837 21.7666 24.4706 21.6177 24.3935C21.6177 24.3935 21.5971 24.4379 21.5819 24.5092C21.461 24.4259 21.3594 24.4161 21.3594 24.4161C21.1582 25.1347 21.7313 25.3132 21.757 25.3207C22.2185 25.0425 22.2986 24.6107 22.2986 24.6107Z" fill="#50AF69"/>
<path d="M21.7569 25.3206C21.7557 25.3214 21.7546 25.3222 21.7534 25.3229L21.7594 25.3214C21.7594 25.3214 21.7574 25.3207 21.7569 25.3206Z" fill="#50AF69"/>
<path d="M21.8445 23.5529C21.8445 23.5529 21.649 24.0648 21.9522 24.3611C21.9522 24.3611 22.3473 24.2444 22.5426 23.8336L22.3764 23.8022L22.291 23.5462L22.0081 23.672L21.8445 23.5529Z" fill="#50AF69"/>
<path d="M22.3947 22.7302C22.3947 22.7302 22.0886 23.1845 22.3166 23.5418C22.3166 23.5418 22.7279 23.5176 23.0112 23.1616L22.8564 23.0935L22.8313 22.8248L22.5273 22.8832L22.3947 22.7302Z" fill="#50AF69"/>
<path d="M25.4619 29.2709V29.0554C27.4227 29.0554 29.018 27.46 29.018 25.4993C29.018 24.6617 28.7211 23.8483 28.1819 23.2088L28.3467 23.0699C28.9186 23.7483 29.2334 24.611 29.2334 25.4993C29.2334 27.579 27.5415 29.2709 25.4619 29.2709Z" fill="#50AF69"/>
<path d="M26.8417 28.1573C26.8888 28.2377 26.9121 28.3481 26.9223 28.4601C26.9648 28.4294 27.01 28.4009 27.059 28.377C27.059 28.377 27.1331 28.6381 27.0751 28.8261C27.0751 28.8261 27.2717 28.8504 27.4521 29.0315C27.4521 29.0315 27.3899 29.0754 27.2832 29.1212C27.4624 29.2611 27.5177 29.3993 27.5177 29.3993C26.4601 29.9281 25.9532 29.1905 25.9312 29.1574C26.1903 28.4183 26.8417 28.1573 26.8417 28.1573Z" fill="#50AF69"/>
<path d="M25.931 29.1578C25.9302 29.1597 25.9294 29.1613 25.9287 29.1634V29.1545C25.9287 29.1545 25.9305 29.1569 25.931 29.1578Z" fill="#50AF69"/>
<path d="M27.8184 27.4524C27.8874 27.503 27.9474 27.5875 27.997 27.6782C28.0217 27.6368 28.0492 27.5963 28.0819 27.5582C28.0819 27.5582 28.2399 27.7512 28.2598 27.9309C28.2598 27.9309 28.4344 27.8797 28.6526 27.9663C28.6526 27.9663 28.6163 28.0261 28.5431 28.1038C28.7452 28.1561 28.8424 28.2525 28.8424 28.2525C28.1442 29.085 27.4472 28.6485 27.4165 28.6287C27.3645 27.9104 27.8184 27.4524 27.8184 27.4524Z" fill="#50AF69"/>
<path d="M27.4166 28.6286C27.4167 28.6306 27.4166 28.6322 27.4169 28.6342L27.4136 28.6267C27.4136 28.6267 27.4158 28.6281 27.4166 28.6286Z" fill="#50AF69"/>
<path d="M28.4242 26.5308C28.4996 26.5468 28.5802 26.594 28.6545 26.65C28.6595 26.6068 28.6671 26.5634 28.6798 26.5199C28.6798 26.5199 28.8811 26.6199 28.964 26.7602C28.964 26.7602 29.0884 26.6533 29.2997 26.6436C29.2997 26.6436 29.2921 26.7062 29.2606 26.7971C29.446 26.7652 29.5616 26.8084 29.5616 26.8084C29.2966 27.7509 28.5623 27.6507 28.5296 27.6457C28.2212 27.0754 28.4242 26.5308 28.4242 26.5308Z" fill="#50AF69"/>
<path d="M28.53 27.6459C28.5309 27.6473 28.5314 27.6488 28.5323 27.6504L28.5269 27.6454C28.5268 27.6455 28.5292 27.6458 28.53 27.6459Z" fill="#50AF69"/>
<path d="M28.6639 25.4806C28.7355 25.4852 28.8188 25.5164 28.8986 25.5562C28.8931 25.5181 28.8901 25.4794 28.8915 25.4402C28.8915 25.4402 29.0956 25.5026 29.2023 25.6143C29.2023 25.6143 29.2898 25.5066 29.4779 25.4725C29.4779 25.4725 29.4853 25.5277 29.4779 25.6104C29.6375 25.5603 29.7514 25.5836 29.7514 25.5836C29.7292 26.4334 29.0453 26.4353 29.0148 26.4349C28.6061 25.9775 28.6639 25.4806 28.6639 25.4806Z" fill="#50AF69"/>
<path d="M29.0152 26.4351C29.0163 26.4363 29.0171 26.4374 29.0182 26.4387L29.0122 26.4351C29.0122 26.4351 29.0145 26.435 29.0152 26.4351Z" fill="#50AF69"/>
<path d="M28.5845 24.6107C28.6457 24.5961 28.7237 24.6007 28.801 24.6135C28.7865 24.583 28.7739 24.5513 28.7651 24.5181C28.7651 24.5181 28.9525 24.5177 29.071 24.5837C29.071 24.5837 29.1165 24.4706 29.2654 24.3935C29.2654 24.3935 29.286 24.4379 29.3012 24.5092C29.4221 24.4259 29.5237 24.4161 29.5237 24.4161C29.7249 25.1347 29.1518 25.3132 29.1261 25.3207C28.6646 25.0425 28.5845 24.6107 28.5845 24.6107Z" fill="#50AF69"/>
<path d="M29.126 25.3206C29.1272 25.3214 29.1282 25.3222 29.1295 25.3229L29.1235 25.3214C29.1235 25.3214 29.1255 25.3207 29.126 25.3206Z" fill="#50AF69"/>
<path d="M29.0382 23.5529C29.0382 23.5529 29.2336 24.0648 28.9305 24.3611C28.9305 24.3611 28.5354 24.2444 28.3401 23.8336L28.5063 23.8022L28.5916 23.5462L28.8746 23.672L29.0382 23.5529Z" fill="#50AF69"/>
<path d="M28.4881 22.7302C28.4881 22.7302 28.7942 23.1845 28.5662 23.5418C28.5662 23.5418 28.1549 23.5176 27.8716 23.1616L28.0264 23.0935L28.0515 22.8248L28.3555 22.8832L28.4881 22.7302Z" fill="#50AF69"/>
<path d="M25.4419 27.0035L25.1087 27.5033C25.0517 27.5887 25.063 27.7023 25.1356 27.7749L25.4419 28.0811L25.7481 27.7749C25.8207 27.7023 25.8319 27.5887 25.7751 27.5033L25.4419 27.0035Z" fill="#41479B"/>
<path d="M25.5846 27.5033L25.4422 27.0035L25.2999 27.5033C25.2756 27.5887 25.2804 27.7023 25.3113 27.7749L25.4422 28.0811L25.573 27.7749C25.6041 27.7022 25.6089 27.5887 25.5846 27.5033Z" fill="#F5F5F5"/>
<path d="M25.4421 22.5315V21.1845C25.4421 21.1845 24.9303 21.9208 25.0111 22.9984" fill="#41479B"/>
<path d="M23.1468 22.5361C22.4063 24.1431 23.1658 25.4654 23.3252 25.7143C23.3294 25.721 24.3825 24.0174 24.3825 24.0174L23.1468 22.5361Z" fill="#41479B"/>
<path d="M23.9259 24.7544C23.8091 24.3907 23.7922 23.9658 23.9325 23.4784L23.4743 22.9292C23.0978 23.9437 23.2536 24.6927 23.6304 25.2302C23.7229 25.0815 23.8256 24.916 23.9259 24.7544Z" fill="#F5F5F5"/>
<path d="M24.3642 24.1072C24.3321 24.1072 24.3003 24.0929 24.2791 24.0655L22.9278 22.3281C22.8912 22.2812 22.8997 22.2135 22.9466 22.177C22.9938 22.1404 23.0613 22.149 23.0978 22.196L24.4491 23.9334C24.4857 23.9804 24.4772 24.048 24.4302 24.0845C24.4106 24.0999 24.3873 24.1072 24.3642 24.1072Z" fill="#FFE15A"/>
<path d="M22.2089 24.206C21.7778 28.5163 25.2262 27.4387 25.4416 27.0077L23.2864 25.9302L23.7175 25.0681L22.2089 24.206Z" fill="#41479B"/>
<path d="M23.2511 24.702L22.6504 24.3416C22.5152 26.9029 23.883 27.3295 24.8919 27.2024C24.074 27.0926 23.2568 26.4887 23.2511 24.702Z" fill="#F5F5F5"/>
<path d="M23.7174 25.1756C23.6978 25.1756 23.6781 25.1703 23.6603 25.1592L21.9363 24.0818C21.8859 24.0503 21.8706 23.9838 21.9021 23.9335C21.9336 23.8827 22 23.8675 22.0507 23.8992L23.7747 24.9766C23.8251 25.0081 23.8404 25.0746 23.8089 25.1249C23.7884 25.1577 23.7532 25.1756 23.7174 25.1756Z" fill="#FFE15A"/>
<path d="M27.7372 22.5318C28.4776 24.1389 27.7182 25.4611 27.5588 25.71C27.5546 25.7167 26.5015 24.0132 26.5015 24.0132L27.7372 22.5318Z" fill="#41479B"/>
<path d="M26.9575 24.7501C27.0743 24.3864 27.0912 23.9615 26.9509 23.4741L27.4091 22.9249C27.7856 23.9394 27.6298 24.6884 27.253 25.2259C27.1605 25.0773 27.0578 24.9117 26.9575 24.7501Z" fill="#F5F5F5"/>
<path d="M26.5192 24.1031C26.4962 24.1031 26.4728 24.0957 26.4532 24.0803C26.4063 24.0439 26.3978 23.9761 26.4344 23.9292L27.7856 22.1918C27.8223 22.1448 27.8898 22.1365 27.9368 22.1729C27.9838 22.2093 27.9923 22.2771 27.9557 22.324L26.6044 24.0614C26.5832 24.0888 26.5514 24.1031 26.5192 24.1031Z" fill="#FFE15A"/>
<path d="M28.6744 24.2018C29.1054 28.5121 25.6571 27.4345 25.4417 27.0035L27.5968 25.926L27.1658 25.0639L28.6744 24.2018Z" fill="#41479B"/>
<path d="M27.6323 24.6977L28.233 24.3373C28.3681 26.8986 27.0003 27.3252 25.9915 27.198C26.8093 27.0883 27.6265 26.4845 27.6323 24.6977Z" fill="#F5F5F5"/>
<path d="M27.166 25.1714C27.1301 25.1714 27.095 25.1535 27.0745 25.1206C27.0429 25.0703 27.0584 25.0038 27.1087 24.9723L28.8327 23.8949C28.8834 23.8631 28.9497 23.8785 28.9812 23.9292C29.0128 23.9795 28.9974 24.046 28.947 24.0775L27.223 25.1549C27.2052 25.1661 27.1855 25.1714 27.166 25.1714Z" fill="#FFE15A"/>
<path d="M25.4417 25.2792C25.9178 25.2792 26.3038 24.8932 26.3038 24.4171C26.3038 23.941 25.9178 23.555 25.4417 23.555C24.9656 23.555 24.5796 23.941 24.5796 24.4171C24.5796 24.8932 24.9656 25.2792 25.4417 25.2792Z" fill="#FFE6E6"/>
<path d="M25.4418 24.8482C25.6799 24.8482 25.8729 24.6552 25.8729 24.4171C25.8729 24.179 25.6799 23.9861 25.4418 23.9861C25.2037 23.9861 25.0107 24.179 25.0107 24.4171C25.0107 24.6552 25.2037 24.8482 25.4418 24.8482Z" fill="#F5F5F5"/>
<path d="M25.442 25.8182C25.3823 25.8182 25.334 25.77 25.334 25.7104V24.4174C25.334 24.3578 25.3823 24.3097 25.442 24.3097C25.5017 24.3097 25.55 24.3578 25.55 24.4174V25.7104C25.55 25.77 25.5017 25.8182 25.442 25.8182Z" fill="#FFE15A"/>
<path d="M28.3871 26.9855H22.613L23.2866 25.7039H27.6149L28.3871 26.9855Z" fill="#5AA0E6"/>
<path d="M25.6169 25.9439H27.1186L26.6515 25.4768C26.6295 25.4549 26.6027 25.4383 26.5733 25.4285L26.4107 25.3743C26.3521 25.3548 26.2877 25.3635 26.2364 25.3976L25.7172 25.7437L25.6169 25.9439Z" fill="#FFB750"/>
<path d="M25.1064 26.0247H26.8987L26.3412 25.4672C26.315 25.441 26.283 25.4212 26.2478 25.4095L26.0537 25.3448C25.9838 25.3216 25.9069 25.3317 25.8456 25.3728L25.226 25.7859L25.1064 26.0247Z" fill="#FFC455"/>
<path d="M24.4829 26.1145H26.6473L25.974 25.4412C25.9424 25.4096 25.9038 25.3857 25.8612 25.3715L25.6269 25.2934C25.5424 25.2652 25.4496 25.2776 25.3756 25.327L24.6273 25.8258L24.4829 26.1145Z" fill="#FFCD55"/>
<path d="M23.866 26.1953H26.3441L25.5732 25.4244C25.5369 25.3881 25.4927 25.3608 25.444 25.3445L25.1756 25.2551C25.0789 25.2228 24.9727 25.2371 24.8878 25.2936L24.031 25.8648L23.866 26.1953Z" fill="#FFD25A"/>
<path d="M22.8555 26.3569H26.0882L25.0826 25.3514C25.0353 25.3041 24.9776 25.2683 24.9141 25.2473L24.5641 25.1306C24.4379 25.0886 24.2993 25.107 24.1887 25.1808L23.071 25.9259L22.8555 26.3569Z" fill="#FFE15A"/>
<path d="M25.6754 24.6107H25.2095L25.3168 24.1608H25.4787C25.5312 24.1608 25.5768 24.1968 25.589 24.2479L25.6754 24.6107Z" fill="#FF4B55"/>
<path d="M25.6485 24.6829H25.2301C25.1958 24.6829 25.1682 24.6552 25.1682 24.621V24.6003C25.1682 24.566 25.196 24.5384 25.2301 24.5384H25.6485C25.6828 24.5384 25.7104 24.5662 25.7104 24.6003V24.621C25.7104 24.6551 25.6826 24.6829 25.6485 24.6829Z" fill="#FF4B55"/>
<path d="M25.3726 24.3656L25.2677 24.3391C25.2361 24.3311 25.2224 24.294 25.2413 24.2674L25.3172 24.1608L25.3726 24.3656Z" fill="#FF4B55"/>
<path d="M24.904 23.3103C24.8989 23.3498 24.8938 23.3895 24.8887 23.429C25.0562 23.3274 25.2409 23.2664 25.4416 23.2664C25.6421 23.2666 25.827 23.3272 25.9945 23.429C25.9895 23.3894 25.9843 23.3498 25.9792 23.3103C25.8126 23.2234 25.6333 23.1734 25.4416 23.1736C25.25 23.1734 25.0707 23.2233 24.904 23.3103Z" fill="#41479B"/>
<path d="M24.9108 23.2587C24.9058 23.2983 24.9006 23.3379 24.8955 23.3775C25.0611 23.2756 25.2437 23.2146 25.4417 23.2143C25.6397 23.2145 25.8223 23.2755 25.9879 23.3775C25.9828 23.3378 25.9776 23.2983 25.9726 23.2587C25.8078 23.1711 25.6309 23.1215 25.4416 23.1214C25.2525 23.1214 25.0756 23.1713 24.9108 23.2587Z" fill="#5AA0E6"/>
<path d="M24.9167 23.2109C24.9116 23.2505 24.9064 23.2901 24.9014 23.3297C25.0653 23.2275 25.2458 23.166 25.4414 23.1661C25.6371 23.1661 25.8175 23.2275 25.9814 23.3297C25.9764 23.2901 25.9712 23.2505 25.9661 23.2109C25.8032 23.1234 25.6283 23.0732 25.4413 23.0732C25.2547 23.0731 25.0798 23.1233 24.9167 23.2109Z" fill="#9BC800"/>
<path d="M24.924 23.1564C24.9189 23.196 24.9138 23.2356 24.9087 23.2751C25.0708 23.1727 25.2487 23.1109 25.4418 23.1109C25.6348 23.1111 25.8128 23.1725 25.9749 23.2751C25.9698 23.2356 25.9646 23.1959 25.9596 23.1564C25.7985 23.0685 25.6262 23.0181 25.4419 23.018C25.2574 23.0182 25.0851 23.0685 24.924 23.1564Z" fill="#FFE14E"/>
<path d="M24.9309 23.1028C24.9258 23.1423 24.9206 23.182 24.9155 23.2215C25.0758 23.1187 25.2512 23.057 25.4416 23.0569C25.632 23.0571 25.8075 23.1186 25.9677 23.2215C25.9626 23.182 25.9574 23.1423 25.9523 23.1028C25.7933 23.0146 25.6232 22.964 25.4416 22.9639C25.26 22.9641 25.0898 23.0145 24.9309 23.1028Z" fill="#FFB14E"/>
<path d="M24.9337 23.0799C24.9302 23.1076 24.9266 23.1354 24.9231 23.1631C25.0812 23.0602 25.2542 22.9978 25.4417 22.9978C25.6292 22.9977 25.8022 23.06 25.9604 23.1631C25.9569 23.1354 25.9533 23.1076 25.9498 23.0799C25.7916 22.9916 25.6225 22.9409 25.4418 22.9407C25.2611 22.9405 25.0919 22.9915 24.9337 23.0799Z" fill="#FF4B55"/>
<path d="M28.4591 27.1112H22.4246C22.3849 27.1112 22.3484 27.0893 22.3296 27.0544C22.3109 27.0192 22.313 26.9766 22.335 26.9437L25.3523 22.4178C25.3922 22.3581 25.4916 22.3581 25.5316 22.4178L28.5488 26.9437C28.5708 26.9768 28.573 27.0193 28.5542 27.0544C28.5354 27.0893 28.4988 27.1112 28.4591 27.1112ZM22.6259 26.8957H28.2578L25.4418 22.6719L22.6259 26.8957Z" fill="#FFE15A"/>
<path d="M25.4422 21.5078C25.3825 21.5078 25.3342 21.4596 25.3342 21.4001V20.969C25.3342 20.9094 25.3825 20.8613 25.4422 20.8613C25.5019 20.8613 25.5502 20.9094 25.5502 20.969V21.4001C25.5502 21.4596 25.5019 21.5078 25.4422 21.5078Z" fill="#FFE15A"/>
<path d="M25.6574 21.5078H25.2264C25.1668 21.5078 25.1187 21.4596 25.1187 21.4001C25.1187 21.3405 25.1668 21.2924 25.2264 21.2924H25.6574C25.717 21.2924 25.7651 21.3405 25.7651 21.4001C25.7651 21.4596 25.717 21.5078 25.6574 21.5078Z" fill="#FFE15A"/>
<path d="M25.4418 29.2669C25.434 29.2669 25.426 29.266 25.4184 29.2645C25.3129 29.2408 24.961 29.1565 24.8572 29.0536C24.7253 28.9227 24.7247 28.7091 24.8553 28.5772C24.9188 28.5134 25.0032 28.478 25.0931 28.4778H25.0943C25.1838 28.4778 25.268 28.5125 25.3316 28.5757C25.4354 28.6788 25.5224 29.0299 25.5466 29.1351C25.5549 29.1711 25.5442 29.209 25.5181 29.2353C25.4978 29.2557 25.4702 29.2669 25.4418 29.2669ZM25.0943 28.6932C25.0656 28.7027 25.0311 28.706 25.0082 28.7289C24.9611 28.7762 24.9614 28.8532 25.0089 28.9005C25.035 28.9259 25.1515 28.97 25.2912 29.0098C25.2503 28.8706 25.2055 28.7545 25.1797 28.7284L25.2556 28.6521L25.1796 28.7284C25.1568 28.7056 25.1265 28.6932 25.0943 28.6932Z" fill="#41479B"/>
<path d="M25.4427 29.2664C25.4143 29.2664 25.3866 29.2552 25.3662 29.2346C25.3402 29.2083 25.3294 29.1703 25.3377 29.1344C25.3619 29.0291 25.449 28.6781 25.5527 28.575C25.6166 28.5116 25.6927 28.4829 25.7912 28.4772C25.8812 28.4774 25.9655 28.5127 26.0289 28.5765C26.1599 28.7085 26.159 28.9221 26.0273 29.0528C25.9233 29.1559 25.5714 29.2403 25.4659 29.2639C25.4584 29.2656 25.4504 29.2664 25.4427 29.2664ZM25.6288 28.6515L25.7047 28.7279C25.6789 28.7539 25.6341 28.8701 25.5933 29.0092C25.7329 28.9695 25.8494 28.9255 25.8756 28.8997C25.9229 28.8528 25.9232 28.7758 25.8762 28.7284C25.8534 28.7055 25.8231 28.6927 25.7906 28.6927H25.7902C25.758 28.6927 25.7277 28.7051 25.7049 28.7279L25.6288 28.6515ZM25.6288 28.6515H25.631H25.6288Z" fill="#41479B"/>
<path d="M25.012 29.913C24.9524 29.913 24.9043 29.8649 24.9043 29.8053C24.9043 29.3133 25.3749 29.0724 25.3949 29.0623C25.4484 29.0356 25.5126 29.0575 25.5393 29.1103C25.566 29.1633 25.5446 29.228 25.4917 29.2549C25.4879 29.2569 25.1199 29.4479 25.1199 29.8052C25.1198 29.8649 25.0716 29.913 25.012 29.913Z" fill="#41479B"/>
<path d="M25.8738 29.913C25.8142 29.913 25.766 29.8648 25.766 29.8053C25.766 29.448 25.3981 29.2567 25.3943 29.255C25.3413 29.228 25.32 29.1634 25.3467 29.1104C25.3736 29.0575 25.4376 29.0356 25.491 29.0624C25.5111 29.0726 25.9817 29.3133 25.9817 29.8054C25.9815 29.8648 25.9333 29.913 25.8738 29.913Z" fill="#41479B"/>
</g>
<defs>
<clipPath id="clip0_108_49186">
<rect width="50" height="50" fill="white" transform="translate(0.441406 0.602539)"/>
</clipPath>
</defs>
</svg>
