<svg width="51" height="51" viewBox="0 0 51 51" fill="none" xmlns="http://www.w3.org/2000/svg">
<g clip-path="url(#clip0_108_49167)">
<path d="M50.1625 20.1429H0.162598V10.0854C0.162598 9.6093 0.548632 9.22327 1.02471 9.22327H49.3005C49.7766 9.22327 50.1626 9.6093 50.1626 10.0854L50.1625 20.1429Z" fill="#73AF00"/>
<path d="M49.3004 41.9819H1.02471C0.548632 41.9819 0.162598 41.5959 0.162598 41.1198V31.0624H50.1625V41.1198C50.1625 41.596 49.7765 41.9819 49.3004 41.9819Z" fill="#FF4B55"/>
<path d="M50.1625 20.1427H0.162598V31.0617H50.1625V20.1427Z" fill="#F5F5F5"/>
<path d="M12.6719 26.1368C12.9191 25.8236 12.9191 25.3816 12.6719 25.0685L0.390625 9.51215C0.252441 9.66508 0.162598 9.86312 0.162598 10.0854V41.1198C0.162598 41.3421 0.252441 41.5402 0.390625 41.693L12.6719 26.1368Z" fill="#4173CD"/>
<path d="M24.9557 26.3738C24.9557 26.3948 24.9488 28.4214 24.4305 29.4184H25.8869C25.3685 28.4215 25.3617 26.3948 25.3617 26.3738C25.3617 25.6755 26.0854 25.1206 26.0927 25.1152L25.8489 24.7907C25.8299 24.805 25.5887 24.9899 25.3618 25.2902V24.7501H24.9558V25.2902C24.7289 24.9899 24.4877 24.8049 24.4687 24.7907L24.2249 25.1152C24.2322 25.1206 24.9557 25.6754 24.9557 26.3738Z" fill="#B46446"/>
<path d="M27.1885 23.9381C27.1761 23.9381 27.1646 23.9413 27.1523 23.9421C27.0696 23.704 26.8457 23.5321 26.5795 23.5321C26.4835 23.5321 26.3939 23.5564 26.3132 23.5959C26.2271 23.4378 26.0617 23.3292 25.8691 23.3292C25.8138 23.3292 25.7615 23.3403 25.7116 23.3566C25.6036 23.1019 25.3514 22.9232 25.0573 22.9232C24.6959 22.9232 24.4009 23.1941 24.356 23.5433C24.3197 23.5376 24.2833 23.5321 24.2455 23.5321C23.8531 23.5321 23.5351 23.8502 23.5351 24.2426C23.5351 24.2887 23.5402 24.3335 23.5486 24.3772C23.3688 24.4363 23.2274 24.5753 23.1653 24.7536C23.1532 24.7525 23.1415 24.7499 23.1291 24.7499C22.9049 24.7499 22.7231 24.9317 22.7231 25.1559C22.7231 25.3801 22.905 25.5618 23.1291 25.5618C23.2326 25.5618 23.3262 25.5219 23.3978 25.4579C23.4949 25.5234 23.612 25.5618 23.7381 25.5618C23.8496 25.5618 23.9526 25.5297 24.0425 25.4773C24.1323 25.5296 24.2354 25.5618 24.3469 25.5618C24.6832 25.5618 24.9559 25.2892 24.9559 24.9528C24.9559 24.9271 24.9514 24.9026 24.9483 24.8777C25.0429 24.9243 25.1477 24.9528 25.2604 24.9528C25.4017 24.9528 25.5323 24.9105 25.6429 24.8395C25.7467 25.0271 25.9441 25.1558 26.1738 25.1558C26.2231 25.1558 26.2706 25.1483 26.3165 25.1372C26.4282 25.2715 26.5944 25.3588 26.7827 25.3588C26.9646 25.3588 27.1262 25.2774 27.2377 25.1509C27.5506 25.1256 27.7976 24.8664 27.7976 24.5469C27.7973 24.2107 27.5248 23.9381 27.1885 23.9381Z" fill="#73AF00"/>
<path d="M26.5795 24.4455C26.5795 24.4244 26.5839 24.4045 26.5857 24.3839C26.4771 24.4843 26.3332 24.5471 26.1735 24.5471C25.9614 24.5471 25.7752 24.4385 25.6661 24.274C25.557 24.4385 25.3707 24.5471 25.1587 24.5471C24.9956 24.5471 24.8484 24.4822 24.7391 24.3778C24.6758 24.7053 24.3883 24.953 24.0423 24.953C24.0071 24.953 23.9735 24.9476 23.9398 24.9426C23.9399 24.9461 23.9409 24.9494 23.9409 24.953C23.9409 25.2184 23.7701 25.4417 23.5332 25.5251C23.5974 25.5481 23.6658 25.5618 23.738 25.5618C23.8495 25.5618 23.9525 25.5297 24.0424 25.4774C24.1322 25.5296 24.2353 25.5618 24.3468 25.5618C24.6831 25.5618 24.9558 25.2892 24.9558 24.9529C24.9558 24.9271 24.9513 24.9027 24.9482 24.8778C25.0428 24.9243 25.1477 24.9529 25.2603 24.9529C25.4016 24.9529 25.5322 24.9105 25.6428 24.8395C25.7466 25.0272 25.944 25.1558 26.1737 25.1558C26.223 25.1558 26.2705 25.1484 26.3164 25.1372C26.4281 25.2715 26.5943 25.3588 26.7825 25.3588C26.9644 25.3588 27.126 25.2775 27.2375 25.1509L27.2388 25.1507C26.8707 25.1239 26.5795 24.8203 26.5795 24.4455Z" fill="#5FA000"/>
<path d="M25.1587 30.7121C25.1261 30.7121 25.0972 30.6913 25.0865 30.6607C25.0788 30.6378 24.8877 30.1034 24.1438 30.1034H23.129C22.5273 30.1034 22.0381 29.614 22.0381 29.0125V22.3145C22.0381 22.2725 22.0722 22.2384 22.1142 22.2384H28.4062C28.4482 22.2384 28.4823 22.2725 28.4823 22.3145V29.0125C28.4823 29.6142 27.9929 30.1034 27.3914 30.1034H26.1735C25.4252 30.1034 25.2327 30.6546 25.231 30.6603C25.2205 30.6914 25.1916 30.7122 25.1589 30.7122L25.1587 30.7121ZM22.1901 22.3904V29.0123C22.1901 29.5299 22.6112 29.9511 23.1289 29.9511H24.1437C24.7462 29.9511 25.0378 30.2746 25.1586 30.469C25.2794 30.2744 25.571 29.9511 26.1734 29.9511H27.3913C27.909 29.9511 28.3301 29.5299 28.3301 29.0123V22.3904H22.1901Z" fill="#464655"/>
<path d="M24.3788 20.5046L24.5718 20.8133L24.9355 20.8259L24.7646 21.1473L24.9355 21.4687L24.5718 21.4813L24.3788 21.7901L24.186 21.4813L23.8223 21.4687L23.9932 21.1473L23.8223 20.8259L24.186 20.8133L24.3788 20.5046Z" fill="#FFE15A"/>
<path d="M22.6641 20.7846L22.9238 21.0397L23.2804 20.967L23.1892 21.3193L23.4305 21.592L23.0797 21.6892L22.9644 22.0344L22.7047 21.7792L22.3481 21.852L22.4392 21.4995L22.198 21.227L22.5488 21.1298L22.6641 20.7846Z" fill="#FFE15A"/>
<path d="M21.0191 21.2714L21.3277 21.4646L21.6602 21.3165L21.6473 21.6803L21.9417 21.8943L21.6203 22.065L21.5821 22.4271L21.2735 22.2339L20.941 22.3819L20.9539 22.0182L20.6594 21.8041L20.9809 21.6334L21.0191 21.2714Z" fill="#FFE15A"/>
<path d="M25.9449 20.5046L25.7519 20.8133L25.3882 20.8259L25.5592 21.1473L25.3882 21.4687L25.7519 21.4813L25.9449 21.7901L26.1377 21.4813L26.5015 21.4687L26.3306 21.1473L26.5015 20.8259L26.1377 20.8133L25.9449 20.5046Z" fill="#FFE15A"/>
<path d="M27.6595 20.7846L27.3998 21.0397L27.0432 20.967L27.1344 21.3193L26.8931 21.592L27.2438 21.6892L27.3592 22.0344L27.6189 21.7792L27.9755 21.852L27.8844 21.4995L28.1256 21.227L27.7748 21.1298L27.6595 20.7846Z" fill="#FFE15A"/>
<path d="M29.3047 21.2714L28.9961 21.4646L28.6636 21.3165L28.6765 21.6803L28.3821 21.8943L28.7036 22.065L28.7417 22.4271L29.0503 22.2339L29.3829 22.3819L29.37 22.0182L29.6644 21.8041L29.3429 21.6334L29.3047 21.2714Z" fill="#FFE15A"/>
</g>
<defs>
<clipPath id="clip0_108_49167">
<rect width="50" height="50" fill="white" transform="translate(0.162109 0.602539)"/>
</clipPath>
</defs>
</svg>
