<svg width="51" height="51" viewBox="0 0 51 51" fill="none" xmlns="http://www.w3.org/2000/svg">
<g clip-path="url(#clip0_108_49162)">
<path d="M50.5895 25.6025H0.5896V10.0853C0.5896 9.60921 0.975634 9.22318 1.45171 9.22318H49.7275C50.2036 9.22318 50.5896 9.60921 50.5896 10.0853L50.5895 25.6025Z" fill="#73AF00"/>
<path d="M0.5896 25.6025H50.5895V41.1198C50.5895 41.5959 50.2035 41.9819 49.7274 41.9819H1.45171C0.975634 41.9819 0.5896 41.5959 0.5896 41.1198V25.6025Z" fill="#4173CD"/>
<path d="M0.5896 10.0853V41.1197C0.5896 41.4314 0.763818 41.6923 1.01157 41.8435L50.5895 25.6026L1.01157 9.36157C0.76372 9.51294 0.5896 9.77358 0.5896 10.0853Z" fill="#FF4B55"/>
<path d="M19.0279 30.5235C19.0279 30.5235 21.4558 29.6381 22.1413 26.9817C22.1413 26.9817 21.0844 28.3527 20.3417 28.7527C20.3417 28.7527 21.9698 26.5818 21.6271 24.4681C21.6271 24.4681 21.4271 25.325 21.0272 25.6678C21.0272 25.6678 21.7413 22.6115 20.8272 21.3261C20.8272 21.3261 20.8557 22.4116 20.4559 23.497C20.4559 23.497 20.6082 20.0597 19.0467 19.1838C19.0467 19.1838 19.6561 20.2693 19.3989 21.1832C19.3989 21.1832 18.9705 19.2409 16.9805 18.4697C16.9805 18.4697 16.8567 18.6124 16.8853 19.041C16.8853 19.041 16.3426 18.3839 15 18.4125C15 18.4125 15.0285 18.8981 15.3713 19.3551C15.3713 19.3551 14.8286 19.6408 14.4859 19.5551C14.4859 19.5551 15.0285 20.155 16.9423 20.0978C16.9423 20.0978 16.6852 20.3263 16.1711 20.3834C16.1711 20.3834 16.953 20.7425 17.7231 20.8118C18.78 20.907 19.1989 21.526 19.3988 22.2972C19.3988 22.2972 18.5705 21.8116 18.2563 21.326C18.2563 21.326 18.1991 22.1543 19.7701 23.7539L18.9703 23.4112C18.9703 23.4112 19.4845 24.8965 20.1129 26.5818L19.4559 25.8676C19.4559 25.8676 19.3131 27.0673 19.1988 29.2953L18.7417 28.2384C18.7417 28.2384 17.9419 30.8663 16.7137 31.2947C15.7522 31.6302 14.6887 31.8598 14.2708 31.9441C14.2317 30.4738 14.8571 30.1522 14.8571 30.1522C15.971 30.2093 16.2282 28.9811 16.2282 28.9811C15.9996 29.2096 15.5711 29.2096 15.5711 29.2096C16.2282 28.524 16.2282 27.5529 16.2282 27.5529C15.8283 28.3241 15.1998 28.4384 15.1998 28.4384L15.257 27.6672C14.0951 28.5121 14.1781 29.5017 14.1973 29.6467C14.1711 29.4617 13.9642 28.0146 13.8574 27.6672C13.7431 27.2959 14.0001 26.5532 14.4 26.6674C15.6945 27.0372 15.9996 26.0962 15.9996 26.0962C15.3141 26.4105 14.9142 26.1819 14.9142 26.1819C15.7996 25.3249 15.4284 24.5252 15.4284 24.5252C15.1427 25.3535 14.3429 25.4964 14.3429 25.4964L14.3144 24.5824C13.9431 24.7824 13.6002 25.6679 13.6002 25.6679C13.6002 25.6679 13.5146 24.9537 13.7715 24.3253C14.0286 23.6969 14.6855 24.0111 14.6855 24.0111C15.8566 24.2396 16.228 23.1256 16.228 23.1256L15.4568 23.2399C16.3137 22.6115 16.0567 21.8402 16.0567 21.8402C15.8567 22.3257 15.1427 22.4115 15.1427 22.4115L15.4855 21.4975C14.7428 21.4975 14.3144 22.4687 14.3144 22.4687L14.2573 21.5261C14.6 20.2979 13.8002 19.7551 13.8002 19.7551C13.6289 19.9836 13.7146 20.4693 13.7146 20.4693C13.0004 19.8409 12.4578 20.5835 12.4578 20.5835C13.0004 21.1548 13.5147 21.0977 13.5147 21.0977C13.3434 21.2119 12.7149 21.269 12.7149 21.269C13.429 21.8689 13.8288 21.7545 13.8288 21.7545C14.1716 23.2114 13.2576 23.8683 13.2576 23.8683C13.0863 22.7828 12.4292 22.2687 12.4292 22.2687L12.4578 22.9828C12.0293 22.7257 11.6866 21.9545 11.6866 21.9545C11.4009 23.04 12.1721 23.9825 12.1721 23.9825L11.4579 23.9254C12.0864 25.3822 13.0861 24.9252 13.0861 24.9252C13.0004 25.9535 13.3432 27.6388 13.3432 27.6388C13.2004 27.4675 11.6866 26.0392 11.6866 26.0392C11.6294 26.6104 12.1721 27.353 12.1721 27.353C11.8865 27.2959 11.0581 26.6675 11.0581 26.6675C11.1438 27.5815 12.3435 28.1814 12.3435 28.1814C11.8865 28.2385 11.0009 27.7243 11.0009 27.7243C11.5151 29.9237 13.4002 28.9526 13.4002 28.9526L13.5449 31.9276C13.1466 31.8319 12.2758 31.61 11.3722 31.2948C10.144 30.8664 9.34418 28.2385 9.34418 28.2385L8.88715 29.2954C8.77289 27.0674 8.63002 25.8677 8.63002 25.8677L7.97299 26.5819C8.60141 24.8966 9.11557 23.4113 9.11557 23.4113L8.31577 23.754C9.88735 22.1542 9.83012 21.3259 9.83012 21.3259C9.51586 21.8115 8.68754 22.2971 8.68754 22.2971C8.88754 21.5259 9.51586 20.7261 10.2871 20.669C11.0584 20.6118 11.9153 20.3833 11.9153 20.3833C11.4011 20.3262 11.1441 20.0977 11.1441 20.0977C13.3721 19.8977 13.6005 19.2979 13.6005 19.2979C13.2577 19.3835 12.2008 19.2694 12.2008 19.2694C13.0863 18.7838 14.5431 18.3268 14.5431 18.3268C12.7435 18.0125 11.2011 19.041 11.2011 19.041C11.4582 18.5554 11.9153 18.0126 11.9153 18.0126C9.71586 18.9838 8.68745 21.1832 8.68745 21.1832C8.43032 20.2693 9.03969 19.1837 9.03969 19.1837C7.47817 20.0597 7.63051 23.4969 7.63051 23.4969C7.23061 22.4115 7.25923 21.326 7.25923 21.326C6.34526 22.6114 7.05923 25.6677 7.05923 25.6677C6.65932 25.3249 6.45933 24.468 6.45933 24.468C6.11655 26.5818 7.74467 28.7526 7.74467 28.7526C7.002 28.3527 5.94507 26.9816 5.94507 26.9816C6.63061 29.638 9.05854 30.5235 9.05854 30.5235C7.71596 30.0093 7.14477 30.4378 7.14477 30.4378C8.08735 30.6378 9.00141 31.209 9.74408 31.7517C10.4868 32.2943 11.4866 32.4087 12.372 32.5229C12.7378 32.57 13.041 32.6316 13.2757 32.6878C12.7917 32.9246 12.4578 33.4204 12.4578 33.9955H15.3713C15.3713 33.4421 15.0627 32.9608 14.6081 32.7142C14.9007 32.6516 15.2905 32.5775 15.7141 32.5228C16.5995 32.4085 17.5246 32.1734 18.342 31.7516C19.2275 31.2945 19.9987 30.6376 20.9413 30.4377C20.9416 30.4379 20.3702 30.0096 19.0279 30.5235Z" fill="#FFE15A"/>
</g>
<defs>
<clipPath id="clip0_108_49162">
<rect width="50" height="50" fill="white" transform="translate(0.589844 0.602539)"/>
</clipPath>
</defs>
</svg>
