<svg width="51" height="51" viewBox="0 0 51 51" fill="none" xmlns="http://www.w3.org/2000/svg">
<g clip-path="url(#clip0_108_49150)">
<path d="M50.3103 20.4124H0.310425V10.3549C0.310425 9.87886 0.696459 9.49283 1.17253 9.49283H49.4483C49.9244 9.49283 50.3104 9.87886 50.3104 10.3549L50.3103 20.4124Z" fill="#73AF00"/>
<path d="M49.4482 42.2514H1.17253C0.696459 42.2514 0.310425 41.8654 0.310425 41.3893V31.3319H50.3103V41.3893C50.3103 41.8655 49.9243 42.2514 49.4482 42.2514Z" fill="#FF4B55"/>
<path d="M50.3103 20.4123H0.310425V31.3312H50.3103V20.4123Z" fill="#FFE15A"/>
<path d="M35.6565 25.8818C35.6565 31.5874 31.0241 36.2279 25.3103 36.2279C19.5964 36.2279 14.9641 31.5874 14.9641 25.8818C14.9641 20.1597 19.5964 15.5274 25.3103 15.5274C31.0241 15.5274 35.6565 20.1597 35.6565 25.8818Z" fill="#4173CD"/>
<path d="M17.4417 23.2807H23.453L24.8132 19.0945L25.1745 20.2173L23.1991 26.3029L22.6106 25.8736L23.2259 23.9827H18.3914L17.4417 23.2807ZM20.4452 32.537L22.3031 26.8232L18.7423 24.2303H19.9167L25.092 27.9874L24.5037 28.4167L22.8915 27.2442L21.395 31.8517L20.4452 32.537ZM30.1762 32.537L25.3108 29.0031L21.752 31.5875L22.1154 30.4812L27.2865 26.7157L27.5074 27.4093L25.8992 28.5736L29.811 31.4225L30.1762 32.537ZM33.1797 23.2807L28.3183 26.8231L29.6787 31.0095L28.7291 30.3157L26.7556 24.2302H27.4782L28.0932 26.1294L32.0072 23.2806H33.1796V23.2807H33.1797ZM25.3108 17.5668L27.1687 23.2807H31.5718L30.6201 23.9827H24.2249L24.45 23.2807H26.444L24.9474 18.6815L25.3108 17.5668Z" fill="#F2DD30"/>
<path d="M25.4841 34.1556H25.1393V29.672H25.4841V34.1556ZM33.1282 28.59L28.8654 27.2111L28.9728 26.8892L33.2377 28.2681L33.1282 28.59ZM17.4912 28.59L17.3838 28.2681L21.6506 26.8892L21.756 27.2111L17.4912 28.59ZM27.6827 22.9091L27.4017 22.7111L30.038 19.0861L30.3126 19.2843L27.6827 22.9091ZM22.9451 22.9091L20.3047 19.2843L20.5835 19.0861L23.2176 22.7111L22.9451 22.9091Z" fill="#F2DD30"/>
</g>
<defs>
<clipPath id="clip0_108_49150">
<rect width="50" height="50" fill="white" transform="translate(0.310547 0.87207)"/>
</clipPath>
</defs>
</svg>
