<svg width="50" height="51" viewBox="0 0 50 51" fill="none" xmlns="http://www.w3.org/2000/svg">
<g clip-path="url(#clip0_108_49135)">
<path d="M49.1378 42.275H0.862108C0.386034 42.275 0 41.8889 0 41.4129V10.3784C0 9.90236 0.386034 9.51633 0.862108 9.51633H49.1379C49.614 9.51633 50 9.90236 50 10.3784V41.4129C49.9999 41.889 49.6139 42.275 49.1378 42.275Z" fill="#41479B"/>
<path d="M25.3502 13.2672L25.6959 14.3037L26.7884 14.3122C26.9299 14.3132 26.9885 14.4937 26.8747 14.5778L25.9958 15.2268L26.3253 16.2684C26.3679 16.4032 26.2144 16.5149 26.0993 16.4326L25.2105 15.7972L24.3218 16.4326C24.2067 16.5148 24.0531 16.4033 24.0958 16.2684L24.4253 15.2268L23.5464 14.5778C23.4326 14.4937 23.4912 14.3132 23.6327 14.3122L24.7252 14.3037L25.0709 13.2672C25.1155 13.1331 25.3054 13.1331 25.3502 13.2672Z" fill="#FFE15A"/>
<path d="M25.3502 35.5194L25.6959 36.5558L26.7884 36.5643C26.9299 36.5654 26.9885 36.7458 26.8747 36.8299L25.9958 37.4789L26.3253 38.5205C26.3679 38.6553 26.2144 38.767 26.0993 38.6847L25.2105 38.0493L24.3218 38.6847C24.2067 38.7669 24.0531 38.6554 24.0958 38.5205L24.4253 37.4789L23.5464 36.8299C23.4326 36.7458 23.4912 36.5654 23.6327 36.5643L24.7252 36.5558L25.0709 35.5194C25.1155 35.3852 25.3054 35.3852 25.3502 35.5194Z" fill="#FFE15A"/>
<path d="M36.4764 24.3933L36.8221 25.4297L37.9146 25.4382C38.0561 25.4393 38.1147 25.6197 38.0009 25.7038L37.122 26.3528L37.4515 27.3944C37.4942 27.5292 37.3406 27.6409 37.2255 27.5586L36.3367 26.9232L35.448 27.5586C35.3329 27.6408 35.1793 27.5293 35.222 27.3944L35.5515 26.3528L34.6726 25.7038C34.5588 25.6197 34.6174 25.4393 34.7589 25.4382L35.8514 25.4297L36.1971 24.3933C36.2417 24.2591 36.4317 24.2591 36.4764 24.3933Z" fill="#FFE15A"/>
<path d="M14.224 24.3933L14.5697 25.4297L15.6621 25.4382C15.8036 25.4393 15.8622 25.6197 15.7485 25.7038L14.8696 26.3528L15.199 27.3944C15.2417 27.5292 15.0882 27.6409 14.9731 27.5586L14.0843 26.9232L13.1955 27.5586C13.0805 27.6408 12.9269 27.5293 12.9696 27.3944L13.2991 26.3528L12.4201 25.7038C12.3064 25.6197 12.365 25.4393 12.5065 25.4382L13.599 25.4297L13.9447 24.3933C13.9894 24.2591 14.1793 24.2591 14.224 24.3933Z" fill="#FFE15A"/>
<path d="M15.8944 18.5831L16.2401 19.6196L17.3325 19.6281C17.474 19.6291 17.5326 19.8096 17.4189 19.8937L16.54 20.5427L16.8695 21.5843C16.9121 21.7191 16.7586 21.8308 16.6435 21.7485L15.7547 21.1131L14.8659 21.7485C14.7509 21.8307 14.5973 21.7192 14.64 21.5843L14.9695 20.5427L14.0906 19.8937C13.9768 19.8096 14.0354 19.6291 14.1769 19.6281L15.2694 19.6196L15.6151 18.5831C15.6598 18.449 15.8495 18.449 15.8944 18.5831Z" fill="#FFE15A"/>
<path d="M35.1651 29.7092L35.5108 30.7456L36.6033 30.7541C36.7448 30.7552 36.8034 30.9356 36.6896 31.0197L35.8107 31.6688L36.1402 32.7104C36.1829 32.8451 36.0294 32.9568 35.9142 32.8745L35.0255 32.2392L34.1367 32.8745C34.0217 32.9567 33.868 32.8452 33.9107 32.7104L34.2402 31.6688L33.3613 31.0197C33.2475 30.9356 33.3061 30.7552 33.4476 30.7541L34.5401 30.7456L34.8858 29.7092C34.9305 29.575 35.1204 29.575 35.1651 29.7092Z" fill="#FFE15A"/>
<path d="M31.0928 14.5107L31.4385 15.5471L32.531 15.5556C32.6725 15.5567 32.7311 15.7372 32.6174 15.8212L31.7384 16.4703L32.0679 17.5119C32.1106 17.6466 31.9571 17.7583 31.842 17.676L30.9532 17.0407L30.0644 17.676C29.9494 17.7582 29.7958 17.6467 29.8385 17.5119L30.1679 16.4703L29.289 15.8212C29.1753 15.7372 29.2339 15.5567 29.3754 15.5556L30.4678 15.5471L30.8135 14.5107C30.8582 14.3765 31.0479 14.3765 31.0928 14.5107Z" fill="#FFE15A"/>
<path d="M19.9666 33.7816L20.3123 34.8181L21.4048 34.8266C21.5463 34.8276 21.6049 35.0081 21.4911 35.0922L20.6122 35.7412L20.9417 36.7828C20.9844 36.9176 20.8309 37.0293 20.7157 36.947L19.827 36.3116L18.9382 36.947C18.8232 37.0292 18.6696 36.9177 18.7122 36.7828L19.0417 35.7412L18.1628 35.0922C18.0491 35.0081 18.1076 34.8276 18.2491 34.8266L19.3416 34.8181L19.6873 33.7816C19.7321 33.6475 19.9218 33.6475 19.9666 33.7816Z" fill="#FFE15A"/>
<path d="M34.8858 18.5831L34.5401 19.6196L33.4476 19.6281C33.3061 19.6291 33.2475 19.8096 33.3613 19.8937L34.2402 20.5427L33.9107 21.5843C33.868 21.7191 34.0216 21.8308 34.1367 21.7485L35.0255 21.1131L35.9142 21.7485C36.0293 21.8307 36.1829 21.7192 36.1402 21.5843L35.8107 20.5427L36.6896 19.8937C36.8034 19.8096 36.7448 19.6291 36.6033 19.6281L35.5108 19.6196L35.1651 18.5831C35.1204 18.449 34.9305 18.449 34.8858 18.5831Z" fill="#FFE15A"/>
<path d="M15.6151 29.7092L15.2694 30.7456L14.1769 30.7541C14.0354 30.7552 13.9768 30.9356 14.0906 31.0197L14.9695 31.6688L14.64 32.7104C14.5973 32.8451 14.7508 32.9568 14.8659 32.8745L15.7547 32.2392L16.6435 32.8745C16.7585 32.9567 16.9121 32.8452 16.8695 32.7104L16.54 31.6688L17.4189 31.0197C17.5326 30.9356 17.474 30.7552 17.3325 30.7541L16.2401 30.7456L15.8944 29.7092C15.8495 29.575 15.6598 29.575 15.6151 29.7092Z" fill="#FFE15A"/>
<path d="M19.6873 14.5107L19.3416 15.5471L18.2491 15.5556C18.1076 15.5567 18.0491 15.7372 18.1628 15.8212L19.0417 16.4703L18.7122 17.5119C18.6696 17.6466 18.8231 17.7583 18.9382 17.676L19.827 17.0407L20.7157 17.676C20.8308 17.7582 20.9844 17.6467 20.9417 17.5119L20.6122 16.4703L21.4911 15.8212C21.6049 15.7372 21.5463 15.5567 21.4048 15.5556L20.3123 15.5471L19.9666 14.5107C19.9218 14.3765 19.7321 14.3765 19.6873 14.5107Z" fill="#FFE15A"/>
<path d="M30.8133 33.7816L30.4676 34.8181L29.3751 34.8266C29.2336 34.8276 29.175 35.0081 29.2888 35.0922L30.1677 35.7412L29.8382 36.7828C29.7955 36.9176 29.9491 37.0293 30.0642 36.947L30.953 36.3116L31.8417 36.947C31.9568 37.0292 32.1104 36.9177 32.0677 36.7828L31.7382 35.7412L32.6171 35.0922C32.7309 35.0081 32.6723 34.8276 32.5308 34.8266L31.4383 34.8181L31.0926 33.7816C31.0478 33.6475 30.858 33.6475 30.8133 33.7816Z" fill="#FFE15A"/>
</g>
<defs>
<clipPath id="clip0_108_49135">
<rect width="50" height="50" fill="white" transform="translate(0 0.895752)"/>
</clipPath>
</defs>
</svg>
