<svg width="51" height="51" viewBox="0 0 51 51" fill="none" xmlns="http://www.w3.org/2000/svg">
<g clip-path="url(#clip0_108_49093)">
<path d="M49.5646 42.2749H1.28887C0.812792 42.2749 0.426758 41.8888 0.426758 41.4128V10.3784C0.426758 9.90236 0.812792 9.51633 1.28887 9.51633H49.5647C50.0407 9.51633 50.4268 9.90236 50.4268 10.3784V41.4128C50.4267 41.8889 50.0406 42.2749 49.5646 42.2749Z" fill="#41479B"/>
<path d="M24.5646 9.51633H23.0672L15.0819 14.7481V9.51633H10.7716V14.7481L2.78623 9.51633H1.28887C0.812792 9.51633 0.426758 9.90236 0.426758 10.3784V11.0622L7.27782 15.5508H0.426758V19.8611H7.27782L0.426758 24.3498V25.0335C0.426758 25.5096 0.812792 25.8956 1.28887 25.8956H2.78623L10.7716 20.6639V25.8956H15.0819V20.6639L23.0671 25.8956H24.5645C25.0406 25.8956 25.4266 25.5096 25.4266 25.0335V24.3497L18.5756 19.8611H25.4266V15.5508H18.5756L25.4266 11.0622V10.3784C25.4266 9.90236 25.0408 9.51633 24.5646 9.51633Z" fill="#F5F5F5"/>
<path d="M25.4259 16.4128H14.2191V9.51624H11.6328V16.4128H0.426025V18.9989H11.6328V25.8955H14.2191V18.9989H25.4259V16.4128Z" fill="#FF4B55"/>
<path d="M9.90872 15.5507L0.836864 9.6619C0.595459 9.81473 0.426025 10.0714 0.426025 10.3783V10.423L8.32533 15.5507H9.90872Z" fill="#FF4B55"/>
<path d="M16.6647 15.5507L25.2949 9.94856C25.1449 9.69475 24.8803 9.51624 24.564 9.51624H24.3776L15.0813 15.5507H16.6647Z" fill="#FF4B55"/>
<path d="M9.16331 19.861L0.549561 25.4524C0.698095 25.7124 0.966845 25.8955 1.28774 25.8955H1.45034L10.7467 19.861H9.16331Z" fill="#FF4B55"/>
<path d="M25.4122 25.1013L17.3394 19.8611H15.7561L24.9234 25.8117C25.1981 25.6843 25.3864 25.4172 25.4122 25.1013Z" fill="#FF4B55"/>
<path d="M32.7224 35.3089L32.3178 34.3646L32.52 34.8368L32.3154 34.3658C32.4007 34.3282 34.4033 33.4145 34.4033 30.7278H35.4306C35.4306 34.1093 32.833 35.2613 32.7224 35.3089Z" fill="#E67346"/>
<path d="M33.124 33.0115L32.3977 32.2852C33.7863 30.8967 34.5079 30.5158 34.5856 30.4768L35.0451 31.3957L34.8153 30.9362L35.049 31.3936C35.0424 31.3971 34.392 31.7434 33.124 33.0115Z" fill="#EB7D4B"/>
<path d="M43.2778 35.3089L43.6824 34.3646L43.4801 34.8368L43.6847 34.3658C43.5995 34.3282 41.5968 33.4145 41.5968 30.7278H40.5696C40.5696 34.1093 43.1671 35.2613 43.2778 35.3089Z" fill="#E67346"/>
<path d="M42.8762 33.0115L43.6024 32.2852C42.2139 30.8967 41.4923 30.5158 41.4145 30.4768L40.9551 31.3957L41.1849 30.9362L40.9512 31.3936C40.9576 31.3971 41.608 31.7434 42.8762 33.0115Z" fill="#EB7D4B"/>
<path d="M37.9986 17.3736H32.52C32.52 17.3736 32.52 23.8795 32.52 25.5915C32.52 27.3035 32.8625 31.755 37.9986 33.467C43.1348 31.7549 43.4772 27.3035 43.4772 25.5915C43.4772 23.8795 43.4772 17.3736 43.4772 17.3736H37.9986Z" fill="#4173CD"/>
<path d="M40.3953 19.428H37.4516C37.1406 19.428 36.8389 19.3222 36.596 19.1279L35.4467 18.2084C35.3252 18.1113 35.1745 18.0583 35.0189 18.0583H34.9167C34.5385 18.0583 34.232 18.3649 34.232 18.7431H33.7184C33.4348 18.7431 33.2048 18.9731 33.2048 19.2567C33.2048 19.5402 33.4348 19.7702 33.7184 19.7702H34.232C34.4211 19.7702 34.5745 19.9236 34.5745 20.1127V21.8248C34.5745 22.4623 35.012 22.9934 35.6017 23.146V24.2217H36.2865L36.5433 23.1944H39.7107L40.0532 23.5369V24.2217H40.3956V23.1944H40.7381V24.2217H41.0806V23.0995C41.2845 22.9809 41.4231 22.7626 41.4231 22.5097V20.4552C41.4226 19.888 40.9627 19.428 40.3953 19.428Z" fill="#C8C8C8"/>
<path d="M34.2319 23.8795L34.9169 25.9339H41.0804L41.7651 23.8795H34.2319Z" fill="#73AF00"/>
<path d="M41.6466 25.249C40.7337 25.249 40.7337 25.9338 39.8208 25.9338C38.9082 25.9338 38.9082 25.249 37.9955 25.249C37.083 25.249 37.083 25.9338 36.1705 25.9338C35.2577 25.9338 35.2577 25.249 34.3448 25.249C33.4339 25.249 33.4316 25.9307 32.5247 25.9336C32.5357 26.315 32.5683 26.7815 32.6526 27.2972C33.4331 27.2334 33.4793 26.6187 34.3449 26.6187C35.2577 26.6187 35.2577 27.3035 36.1705 27.3035C37.083 27.3035 37.083 26.6187 37.9956 26.6187C38.9082 26.6187 38.9082 27.3035 39.8209 27.3035C40.7338 27.3035 40.7338 26.6187 41.6467 26.6187C42.5146 26.6187 42.5602 27.2347 43.3445 27.2973C43.4286 26.7817 43.4614 26.3151 43.4724 25.9337C42.5612 25.9321 42.56 25.249 41.6466 25.249Z" fill="#F5F5F5"/>
<path d="M41.6465 26.6188C40.7336 26.6188 40.7336 27.3036 39.8207 27.3036C38.9081 27.3036 38.9081 26.6188 37.9954 26.6188C37.0829 26.6188 37.0829 27.3036 36.1703 27.3036C35.2575 27.3036 35.2575 26.6188 34.3446 26.6188C33.4791 26.6188 33.4329 27.2335 32.6523 27.2972C32.7193 27.7076 32.82 28.149 32.9673 28.6026C33.4667 28.4282 33.6125 27.9883 34.3445 27.9883C35.2573 27.9883 35.2573 28.6731 36.1702 28.6731C37.0827 28.6731 37.0827 27.9883 37.9953 27.9883C38.9079 27.9883 38.9079 28.6731 39.8206 28.6731C40.7335 28.6731 40.7335 27.9883 41.6464 27.9883C42.381 27.9883 42.5263 28.4299 43.0288 28.6037C43.1763 28.1497 43.2769 27.708 43.3441 27.2973C42.56 27.2346 42.5144 26.6188 41.6465 26.6188Z" fill="#4173CD"/>
<path d="M41.6466 27.9884C40.7337 27.9884 40.7337 28.6731 39.8208 28.6731C38.9082 28.6731 38.9082 27.9884 37.9955 27.9884C37.083 27.9884 37.083 28.6731 36.1705 28.6731C35.2577 28.6731 35.2577 27.9884 34.3448 27.9884C33.6127 27.9884 33.4669 28.4281 32.9675 28.6026C33.0856 28.9663 33.2351 29.3377 33.4221 29.7078C33.6537 29.5342 33.8818 29.358 34.3448 29.358C35.2576 29.358 35.2576 30.0428 36.1705 30.0428C37.083 30.0428 37.083 29.358 37.9955 29.358C38.9081 29.358 38.9081 30.0428 39.8208 30.0428C40.7337 30.0428 40.7337 29.358 41.6466 29.358C42.1122 29.358 42.3408 29.5355 42.5738 29.71C42.7612 29.3394 42.9109 28.9677 43.029 28.6037C42.5265 28.43 42.3814 27.9884 41.6466 27.9884Z" fill="#F5F5F5"/>
<path d="M41.6466 29.3581C40.7337 29.3581 40.7337 30.0429 39.8208 30.0429C38.9082 30.0429 38.9082 29.3581 37.9956 29.3581C37.0831 29.3581 37.0831 30.0429 36.1705 30.0429C35.2577 30.0429 35.2577 29.3581 34.3448 29.3581C33.8819 29.3581 33.6536 29.5342 33.4221 29.7079C33.6003 30.0607 33.8134 30.4116 34.0679 30.7533C34.1506 30.7377 34.2412 30.7279 34.3448 30.7279C35.2576 30.7279 35.2576 31.4127 36.1705 31.4127C37.083 31.4127 37.083 30.7279 37.9956 30.7279C38.9081 30.7279 38.9081 31.4127 39.8208 31.4127C40.7337 31.4127 40.7337 30.7279 41.6466 30.7279C41.7522 30.7279 41.8445 30.7379 41.9286 30.754C42.1828 30.4129 42.3956 30.0624 42.5738 29.7102C42.341 29.5357 42.1123 29.3581 41.6466 29.3581Z" fill="#4173CD"/>
<path d="M41.9285 30.7538C41.8445 30.7377 41.7522 30.7278 41.6466 30.7278C40.7337 30.7278 40.7337 31.4125 39.8208 31.4125C38.9082 31.4125 38.9082 30.7278 37.9955 30.7278C37.083 30.7278 37.083 31.4125 36.1704 31.4125C35.2576 31.4125 35.2576 30.7278 34.3447 30.7278C34.2412 30.7278 34.1507 30.7375 34.0679 30.7531C34.6229 31.4981 35.3756 32.1966 36.3943 32.7649C37.0881 32.6625 37.1652 32.0974 37.9953 32.0974C38.8273 32.0974 38.9029 32.665 39.601 32.7654C40.6203 32.1974 41.3733 31.4989 41.9285 30.7538Z" fill="#F5F5F5"/>
<path d="M38.169 25.2493H37.8274V31.0705H38.169V25.2493Z" fill="#FF965A"/>
<path d="M39.0256 26.1048H36.9709V26.4473H39.0256V26.1048Z" fill="#FF965A"/>
<path d="M39.0256 28.1594H36.9709V28.5019H39.0256V28.1594Z" fill="#FF965A"/>
<path d="M39.0254 26.4465H36.9707V27.801H39.0254V26.4465Z" fill="#FFE15A"/>
<path d="M37.8273 25.249V25.9339L36.8 25.5915L37.8273 25.249Z" fill="#FF4B55"/>
<path d="M40.4517 25.2493H40.1101V29.2727H40.4517V25.2493Z" fill="#FF965A"/>
<path d="M41.3083 26.1048H39.2537V26.4473H41.3083V26.1048Z" fill="#FF965A"/>
<path d="M41.3083 28.1594H39.2537V28.5019H41.3083V28.1594Z" fill="#FF965A"/>
<path d="M41.3088 26.4465H39.2542V27.801H41.3088V26.4465Z" fill="#FFE15A"/>
<path d="M40.1102 25.249V25.9339L39.083 25.5915L40.1102 25.249Z" fill="#FF4B55"/>
<path d="M35.8714 25.2493H35.5298V29.2439H35.8714V25.2493Z" fill="#FF965A"/>
<path d="M36.729 26.1048H34.6743V26.4473H36.729V26.1048Z" fill="#FF965A"/>
<path d="M36.729 28.1594H34.6743V28.5019H36.729V28.1594Z" fill="#FF965A"/>
<path d="M36.7295 26.4465H34.6748V27.801H36.7295V26.4465Z" fill="#FFE15A"/>
<path d="M35.5304 25.249V25.9339L34.5032 25.5915L35.5304 25.249Z" fill="#FF4B55"/>
<path d="M39.7108 29.0156C39.7108 29.9596 38.9428 30.7277 37.9987 30.7277C37.0547 30.7277 36.2866 29.9597 36.2866 29.0156H35.9441H35.6045L33.2855 28.4919L33.21 28.826L34.2321 29.0568V29.358L34.9857 29.6594C35.2828 31.0504 36.5203 32.0972 37.9986 32.0972C39.4622 32.0972 40.6884 31.0705 41.001 29.7003H42.1075V28.673L39.7108 29.0156Z" fill="#FF965A"/>
<path d="M43.4774 17.3735C43.4774 17.3735 43.4774 23.8795 43.4774 25.5915C43.4774 27.3035 43.1349 31.755 37.9987 33.467C32.8624 31.7549 32.5201 27.3035 32.5201 25.5915C32.5201 23.8795 32.5201 17.3735 32.5201 17.3735H37.9987H43.4774ZM43.8197 17.0312H43.4772H37.9986H32.52H32.1775V17.3736V25.5916C32.1775 29.6517 34.2064 32.5639 37.8903 33.792L37.9986 33.8281L38.1069 33.792C41.7908 32.5639 43.8197 29.6516 43.8197 25.5916V17.3736V17.0312Z" fill="#F5F5F5"/>
<path d="M37.9986 35.1791C35.4784 35.1791 33.1411 34.3349 31.7466 32.9206L32.7217 31.9589C33.8645 33.1175 35.8372 33.8094 37.9987 33.8094C40.1602 33.8094 42.133 33.1176 43.2758 31.9589L44.2509 32.9206C42.8561 34.3348 40.5189 35.1791 37.9986 35.1791Z" fill="#FF965A"/>
</g>
<defs>
<clipPath id="clip0_108_49093">
<rect width="50" height="50" fill="white" transform="translate(0.427734 0.895752)"/>
</clipPath>
</defs>
</svg>
