<svg width="51" height="51" viewBox="0 0 51 51" fill="none" xmlns="http://www.w3.org/2000/svg">
<g clip-path="url(#clip0_108_49047)">
<path d="M49.8587 42.275H1.58306C1.10698 42.275 0.720947 41.8889 0.720947 41.4129V10.3784C0.720947 9.90236 1.10698 9.51633 1.58306 9.51633H49.8588C50.3349 9.51633 50.7209 9.90236 50.7209 10.3784V41.4129C50.7208 41.889 50.3348 42.275 49.8587 42.275Z" fill="#82AFFF"/>
<path d="M24.8588 25.8957H1.58306C1.10698 25.8957 0.720947 25.5097 0.720947 25.0336V10.3784C0.720947 9.90236 1.10698 9.51633 1.58306 9.51633H24.8589C25.335 9.51633 25.721 9.90236 25.721 10.3784V25.0336C25.7209 25.5097 25.3349 25.8957 24.8588 25.8957Z" fill="#41479B"/>
<path d="M24.8588 9.51645H23.3613L15.376 14.7483V9.51645H11.0657V14.7483L3.08032 9.51645H1.58306C1.10698 9.51645 0.720947 9.90239 0.720947 10.3785V11.0622L7.57201 15.5508H0.720947V19.8612H7.57201L0.720947 24.3498V25.0336C0.720947 25.5097 1.10698 25.8957 1.58306 25.8957H3.08051L11.0658 20.6639V25.8957H15.3762V20.6639L23.3614 25.8957H24.8589C25.335 25.8957 25.721 25.5097 25.721 25.0336V24.3498L18.8699 19.8613H25.7209V15.5509H18.8698L25.7209 11.0623V10.3786C25.7209 9.90239 25.3349 9.51645 24.8588 9.51645Z" fill="#F5F5F5"/>
<path d="M25.7209 16.413H14.514V9.51645H11.9279V16.413H0.720947V18.9991H11.9279V25.8957H14.514V18.9991H25.7209V16.413Z" fill="#FF4B55"/>
<path d="M10.2039 15.5509L1.13203 9.66214C0.890625 9.81487 0.721191 10.0716 0.721191 10.3784V10.4232L8.62049 15.5509H10.2039Z" fill="#FF4B55"/>
<path d="M16.9596 15.5509L25.5899 9.9488C25.4399 9.69499 25.1752 9.51648 24.8589 9.51648H24.6725L15.3762 15.5509H16.9596Z" fill="#FF4B55"/>
<path d="M9.45897 19.8613L0.845215 25.4527C0.99375 25.7126 1.2625 25.8957 1.5834 25.8957H1.74599L11.0425 19.8613H9.45897Z" fill="#FF4B55"/>
<path d="M25.7075 25.1013L17.6347 19.8613H16.0513L25.2186 25.8119C25.4932 25.6845 25.6816 25.4174 25.7075 25.1013Z" fill="#FF4B55"/>
<path d="M32.1694 18.9247V28.3835C32.1694 32.2195 37.5579 34.191 38.2145 34.4169C38.8705 34.191 44.2596 32.2163 44.2596 28.3835V18.9247H32.1694Z" fill="#F5F5F5"/>
<path d="M44.4729 23.263V18.7113H31.9561V23.263H37.3611V27.5301H31.9561V29.237H37.3611V34.3574L38.2145 34.6419L39.0679 34.3574V29.237H44.4729V27.5301H39.0679V23.263H44.4729Z" fill="#FF4B55"/>
<path d="M33.3594 22.1997C33.7528 22.1997 34.0716 21.8808 34.0716 21.4875C34.0716 21.0942 33.7528 20.7753 33.3594 20.7753C32.9661 20.7753 32.6472 21.0942 32.6472 21.4875C32.6472 21.8808 32.9661 22.1997 33.3594 22.1997Z" fill="#F5F5F5"/>
<path d="M34.7282 20.5244C34.5003 20.3991 34.0901 20.0629 33.9249 20.1199C33.7597 20.177 33.7228 20.2938 33.4916 20.3116C33.2664 20.3289 32.9108 20.5487 33.059 20.7922C33.2517 21.1092 33.8548 20.8627 33.8946 20.7145C33.8946 20.7145 34.0428 20.7382 34.1673 20.7085C34.1673 20.7085 34.4151 21.0542 34.7227 21.0315C35.0303 21.0086 35.1728 20.627 35.1045 20.627C35.0362 20.627 34.7282 20.5244 34.7282 20.5244Z" fill="#FFE15A"/>
<path d="M35.6739 22.0342C35.6227 22.1281 35.2323 22.4619 34.58 22.6153C34.4348 22.6495 34.4604 22.8204 34.3151 22.735C34.1698 22.6495 33.7681 22.581 33.4091 22.5641C33.0501 22.547 33.0145 22.2143 33.0758 22.094C33.1536 21.9412 33.7267 21.848 33.8292 22.036C33.9318 22.2241 34.0086 22.1849 34.2638 22.2393C34.4219 22.273 34.4262 22.3504 34.4262 22.3504C34.4262 22.3504 34.7168 22.0598 34.9647 21.9743C35.2125 21.8889 35.4262 21.7008 35.4689 21.7008C35.5116 21.7008 35.7338 21.7605 35.7338 21.7605L35.6739 22.0342Z" fill="#FFE15A"/>
<path d="M36.6227 21.0257C36.9988 21.1624 38.1098 21.1196 39.2977 20.7351C40.4856 20.3505 40.8276 20.2821 41.4087 20.4957C41.9899 20.7093 42.2414 20.0343 41.8598 19.9201C41.2604 19.7407 39.4063 20.818 38.0638 20.2135C38.0638 20.2135 38.0243 20.3761 38.0669 20.4529C38.0669 20.4529 37.0927 20.4871 37.3234 19.4787C37.3234 19.4787 37.3898 19.8469 37.8504 19.8046C38.7216 19.7246 38.8461 20.338 40.6908 19.7693C41.7149 19.4535 42.5106 19.6085 42.5176 20.1068C42.5261 20.7067 41.6992 20.8461 41.6992 20.8461C41.6992 20.8461 42.021 21.5042 42.6706 21.2136C43.3202 20.923 43.3543 21.4243 43.4114 21.5954C43.4684 21.7664 43.5766 21.9317 43.719 21.9486C43.719 21.9486 43.8215 22.2563 43.7817 22.2962C43.7418 22.336 43.474 22.6723 43.2063 22.6723C42.9385 22.6723 42.3574 22.6723 42.3574 22.6723C42.3574 22.6723 42.2034 22.2904 42.4998 22.2849C42.796 22.2792 43.1551 22.2565 43.1095 22.0968C43.0639 21.9373 42.8303 21.8632 42.836 21.6865C42.836 21.6865 42.1465 22.1879 41.7193 21.5953L41.7078 21.8745C41.7078 21.8745 41.1893 21.7776 41.0014 21.3617C41.0014 21.3617 41.0527 21.829 40.6083 21.7606C40.6083 21.7606 40.6995 21.8973 40.8534 21.9942C41.0073 22.091 40.8476 22.3018 40.5514 22.4784C40.2552 22.6551 39.3435 23.1679 38.9276 22.6437C38.5117 22.1195 39.0188 21.8175 39.1441 21.8517C39.2694 21.8859 39.6284 22.4385 39.8734 22.3645C40.1184 22.2904 40.238 22.0397 40.0328 21.8859C39.8277 21.7322 39.6742 21.5867 39.8034 21.4315C39.9813 21.2181 40.6368 21.282 40.614 21.1397C40.5912 20.9972 39.9816 21.0371 39.5827 21.4359C39.1839 21.8347 37.4518 22.7521 36.7623 22.1709C36.073 21.5898 36.6227 21.0257 36.6227 21.0257Z" fill="#FFE15A"/>
<path d="M36.3999 20.7695C36.3999 20.7695 36.9212 21.2823 37.8016 21.4447C37.8016 21.4447 37.6392 21.6925 37.1691 21.6241C37.1691 21.6241 37.3572 21.7866 37.4854 22.06C37.4854 22.06 37.1863 22.1283 36.9213 21.983C36.9213 21.983 36.9555 22.2052 37.0837 22.3848C37.0837 22.3848 36.7333 22.3848 36.4341 22.1199L36.3145 22.4616C36.3145 22.4616 36.1094 22.3249 35.9811 22.0599C35.9811 22.0599 35.7418 22.248 35.5026 22.248C35.5026 22.248 35.5881 21.9916 35.5881 21.8462C35.5881 21.8462 35.2463 22.0513 34.9642 21.9744C34.9642 21.9744 34.9727 21.6155 35.0667 21.5129C35.0667 21.5129 34.8445 21.5386 34.6992 21.4616C34.6992 21.4616 34.7847 21.2651 34.8274 21.1368C34.8274 21.1368 34.5881 21.1453 34.4429 21.0086C34.4429 21.0086 34.9044 20.8291 35.007 20.6582L36.3999 20.7695Z" fill="#FFD25A"/>
<path d="M35.5595 19.3336C35.6621 19.3906 35.8273 19.5159 35.8957 19.7267C35.8957 19.7267 36.0838 19.4531 36.4085 19.4019C36.4085 19.4019 36.551 19.5614 36.5111 19.9773C36.5111 19.9773 36.8701 19.8747 37.0638 20.0627C37.0638 20.0627 36.682 20.1482 36.5054 20.4672C36.5054 20.4672 36.4369 20.7932 36.5566 20.9869C36.5566 20.9869 36.4233 21.0047 36.2889 20.9459C36.2889 20.9459 36.2206 21.2707 36.2889 21.3733C36.2889 21.3733 36.1008 21.3504 35.9983 21.1511C35.9983 21.1511 35.8444 21.3847 35.8558 21.5272C35.8558 21.5272 35.6507 21.4075 35.6393 21.231C35.6393 21.231 35.4968 21.4988 35.3431 21.5216C35.3431 21.5216 35.326 21.1455 35.2577 21.003C35.2577 21.003 35.1266 21.1455 34.9557 21.1398C34.9557 21.1398 34.9557 20.8491 35.0982 20.7124C35.0982 20.7124 34.8588 20.7864 34.7278 20.5243C34.7278 20.5243 35.1208 20.6382 35.2177 20.399C35.3146 20.1597 35.343 20.0857 35.4798 19.9546C35.6166 19.8237 35.5595 19.3336 35.5595 19.3336Z" fill="#FFBE5A"/>
<path d="M36.4002 20.4362C36.4002 20.4362 35.913 21.3677 35.4687 21.0858C34.9819 20.7767 35.5883 20.0516 35.6652 19.9747C35.6652 19.9746 36.0241 20.0687 36.4002 20.4362Z" fill="#FFE15A"/>
<path d="M34.643 25.2074C34.643 25.2074 34.5919 24.5384 34.2292 24.3453C33.8882 24.1639 33.6868 24.0732 33.6477 23.8405C33.6477 23.8405 33.944 23.9767 34.2572 24.0617C34.5402 24.1386 34.8164 24.6176 34.7325 25.1564L34.643 25.2074Z" fill="#5ABEA0"/>
<path d="M33.498 25.7575L33.5441 25.8426L33.5776 26.0255L33.5105 26.2424C33.5105 26.2424 33.7771 26.3483 33.8377 26.7103C33.8793 26.9586 33.9887 27.0123 34.0558 26.9612C34.1229 26.9102 34.1635 26.8498 34.0935 26.5783C34.004 26.2317 33.7621 25.9021 33.7621 25.9021L33.5734 25.6128L33.498 25.7575Z" fill="#B46446"/>
<path d="M33.7626 25.902C33.5194 25.5873 32.8566 24.9322 32.7309 25.8254C32.7309 25.8254 32.4712 25.0728 32.9574 25.1022C33.5193 25.1364 33.7626 25.902 33.7626 25.902Z" fill="#5ABEA0"/>
<path d="M33.5445 25.8426C33.3348 25.6128 33.2676 25.4427 33.1586 25.0174C33.0496 24.5921 33.0161 24.4644 32.8902 24.4729C32.7643 24.4814 32.6889 24.6175 32.6889 24.8897C32.6889 24.8897 32.3199 24.5578 32.5714 24.2941C32.8231 24.0305 33.385 24.1751 33.4186 24.643C33.4521 25.1108 33.4438 25.4256 33.6115 25.817L33.5445 25.8426Z" fill="#5ABEA0"/>
<path d="M33.6033 25.6384C33.6033 25.6384 33.1588 24.6601 34.4086 24.1325C34.4086 24.1325 33.3013 23.8348 33.4356 25.4086L33.6033 25.6384Z" fill="#5ABEA0"/>
<path d="M33.7459 25.9872C33.7459 25.9872 32.8064 25.6299 32.8903 26.4977C32.8903 26.4977 33.0497 26.0893 33.511 26.2425L33.7459 25.9872Z" fill="#5ABEA0"/>
<path d="M34.8107 25.644C34.8107 25.8979 34.9105 26.6343 34.7688 26.7273C34.6975 26.7741 34.4962 26.7358 34.513 26.5572C34.5298 26.3786 34.6094 25.5107 34.6094 25.2982C34.6094 25.0855 34.8107 25.644 34.8107 25.644Z" fill="#B46446"/>
<path d="M34.213 26.2339C34.3752 26.0695 34.4255 25.6952 34.3696 25.1961C34.3696 25.1961 34.7051 25.4286 34.8114 25.6441C34.8114 25.6441 34.9176 25.1506 34.5709 25.0202C34.2243 24.8897 34.0397 24.9635 33.9782 25.1222C33.9166 25.281 34.0841 25.4587 34.1572 25.7177C34.2242 25.956 34.213 26.2339 34.213 26.2339Z" fill="#5ABEA0"/>
<path d="M34.7888 25.5136C34.7888 25.5136 34.8448 25.2528 35.0292 25.1449C35.0292 25.1449 35.4095 25.4115 35.3815 25.7689C35.3815 25.7689 35.4822 25.2812 35.2752 25.0883C35.0683 24.8955 34.8334 24.8445 34.716 25.0146C34.5986 25.1846 34.7888 25.5136 34.7888 25.5136Z" fill="#5ABEA0"/>
<path d="M34.8785 25.0145C34.8785 25.0145 34.996 24.3168 35.2923 24.1637C35.5886 24.0106 36.1367 23.8688 36.1702 23.8347C36.1702 23.8347 35.516 23.8688 35.4098 23.8688C35.3035 23.8688 34.7163 24.2941 34.7163 24.9238C34.7163 25.5533 34.7723 25.1223 34.7891 25.1165C34.8058 25.111 34.8785 25.0145 34.8785 25.0145Z" fill="#5ABEA0"/>
<path d="M35.1506 26.8593C35.2177 26.9997 35.3771 27.0336 35.4107 26.9613C35.4442 26.8891 35.5952 26.3361 35.5952 26.3361L35.3813 26.234L35.1506 26.8593Z" fill="#B46446"/>
<path d="M36.4044 24.5382C36.6672 24.3851 36.8407 24.8389 36.8407 24.8389C36.8407 24.3046 36.6729 24.1356 36.2535 24.3397C36.1272 24.4013 36.0347 24.5301 35.9667 24.6795C35.7544 24.0694 35.2862 24.0788 35.2862 24.0788L35.1799 24.1525C35.5633 24.2263 35.783 24.6857 35.8758 24.9363C35.8257 25.1192 35.8015 25.2966 35.7912 25.398C35.5399 25.6585 35.3812 26.2339 35.3812 26.2339C35.3812 26.2339 35.5616 26.3402 35.5951 26.3359C35.5951 26.3359 35.7125 25.9744 35.8593 25.9829C36.0061 25.9914 36.1781 26.2254 36.1823 26.3743C36.1823 26.3743 36.4003 25.9319 36.1404 25.7618C36.0427 25.6979 35.9646 25.6736 35.9015 25.6725L36.0943 25.4556C36.4088 25.5151 36.6269 25.8129 36.6269 25.8129C36.6332 25.2812 36.3985 25.1774 36.1509 25.222C36.1952 25.0079 36.2925 24.6034 36.4044 24.5382Z" fill="#5ABEA0"/>
<path d="M41.582 25.2744C41.582 25.7203 41.582 26.7092 41.582 26.7822C41.582 26.8551 41.2627 27.1388 41.2627 27.1388H42.1116C42.1116 27.1388 41.839 26.8226 41.839 26.7822C41.839 26.7417 41.9013 25.3878 41.9013 25.3878L41.582 25.2744Z" fill="#B46446"/>
<path d="M41.6367 25.4285C41.4343 25.4123 40.8734 25.8744 40.7099 26.5796C40.7099 26.5796 40.2113 25.7689 41.4576 25.0961C41.4576 25.0961 40.9046 24.9339 40.0635 25.8095C40.0181 25.8567 39.9778 24.4882 41.4888 24.8529C41.4888 24.8529 40.9124 24.0179 39.7285 24.6746C39.7285 24.6746 40.5151 23.2641 41.6757 24.5287C41.6757 24.5287 41.6834 23.4343 41.6913 23.5477C41.6992 23.6612 41.7848 24.1638 41.7848 24.1638L42.0106 23.7666L41.8315 24.5772C41.8315 24.5772 42.8674 23.1991 43.7476 24.6341C43.7476 24.6341 42.6103 24.164 42.0652 24.6908C42.0652 24.6908 43.2336 24.3746 43.14 25.7284C43.14 25.7284 42.6806 24.9259 41.9328 25.0312C41.9328 25.0312 42.813 25.4365 42.5325 26.5309C42.5324 26.531 42.002 25.4577 41.6367 25.4285Z" fill="#5ABEA0"/>
<path d="M34.1989 30.3003C34.1555 30.2416 34.0948 30.2133 34.0352 30.2059C34.0581 30.1268 34.0735 30.0907 34.0673 30.0331C34.0855 30.0376 34.1029 30.0458 34.1215 30.048L34.1295 29.983C34.0604 29.9747 33.985 29.9436 33.9076 29.8964C33.9553 29.8554 33.9899 29.7925 33.9899 29.7155C33.9899 29.6318 33.9515 29.5617 33.8969 29.5219C33.8424 29.5618 33.8039 29.6319 33.8039 29.7155C33.8039 29.7783 33.8297 29.8287 33.8635 29.869C33.8347 29.8491 33.8056 29.826 33.7764 29.8012C33.7689 29.7498 33.7492 29.6979 33.7035 29.6563C33.6416 29.6 33.564 29.5811 33.4978 29.5946C33.4905 29.6617 33.5164 29.7373 33.5783 29.7937C33.626 29.8373 33.6823 29.8521 33.7363 29.8533C33.7486 29.8637 33.7615 29.8742 33.775 29.8848C33.7379 29.8803 33.698 29.8841 33.658 29.8987C33.5793 29.9274 33.5267 29.9874 33.5079 30.0522C33.5641 30.0898 33.643 30.102 33.7216 30.0733C33.7903 30.0483 33.8344 29.998 33.8582 29.9429C33.9042 29.9723 33.9547 29.9968 34.007 30.0165L33.9987 30.0175C33.9969 30.0647 34 30.0841 33.9766 30.1718C33.9238 30.1376 33.8538 30.1221 33.7799 30.1439C33.6996 30.1675 33.6433 30.2242 33.6204 30.2878C33.6742 30.3288 33.7521 30.346 33.8325 30.3222C33.8928 30.3045 33.9337 30.2657 33.9629 30.2216C33.9519 30.2549 33.938 30.2893 33.9225 30.3244C33.8753 30.3462 33.8311 30.3798 33.804 30.4354C33.7674 30.5106 33.7713 30.5905 33.803 30.6502C33.8695 30.6382 33.9346 30.592 33.9713 30.5168C33.9995 30.4587 33.9981 30.4006 33.9838 30.3484C33.9904 30.3337 33.9967 30.3183 34.0032 30.3023C34.0093 30.3391 34.0243 30.3764 34.0495 30.4106C34.0992 30.478 34.1715 30.5116 34.2391 30.5113C34.2592 30.4468 34.2486 30.3676 34.1989 30.3003Z" fill="#5ABEA0"/>
<path d="M33.814 30.0901C34.0982 30.0901 34.4701 30.0793 34.4591 30.3635C34.4482 30.6477 34.1311 31.6101 34.8637 31.9054C35.5963 32.2006 35.6838 32.1568 35.6838 32.1568L36.0118 32.9113L36.8101 32.627L36.0445 32.0146C36.0445 32.0146 35.9789 31.5991 35.7931 31.3147C35.7931 31.3147 36.2633 31.0741 36.4273 30.8664L36.0993 30.8445C36.0993 30.8445 36.5258 30.5712 36.7226 30.265L36.493 30.2869C36.493 30.2869 36.7554 30.0244 36.821 29.7183C36.821 29.7183 36.3945 30.1447 35.9571 30.1994C35.9571 30.1994 36.143 29.7182 36.1867 29.5324C36.1867 29.5324 35.8587 29.7401 35.6291 29.8276C35.3995 29.9151 35.0386 29.926 35.2026 30.6696C35.2026 30.6696 35.0058 30.5056 34.8855 30.1556C34.7653 29.8057 34.7216 29.6745 34.5575 29.6745C34.2896 29.6745 34.1857 29.9151 34.1857 29.9151L33.814 30.0901Z" fill="#FFECDE"/>
<path d="M41.8849 30.2308C41.9832 30.0996 42.18 29.6898 42.3521 29.7963C42.5243 29.9029 42.7539 30.1652 42.8932 30.0422C43.0324 29.9193 43.0407 29.7635 42.8275 29.6898C42.6144 29.616 42.3767 29.493 42.2292 29.5422C42.0816 29.5913 41.6309 30.0587 41.6309 30.0587L41.8849 30.2308Z" fill="#B46446"/>
<path d="M40.6141 30.5832C40.6059 30.3946 40.7332 29.5761 41.2454 29.6814C41.5241 29.7389 41.6612 30.0343 42.0242 30.1732C42.4094 30.3208 42.6554 30.4109 42.5816 30.665C42.5078 30.9191 42.3684 31.2225 42.0487 31.2963C41.729 31.3702 40.6141 30.5832 40.6141 30.5832Z" fill="#FFE15A"/>
<path d="M40.2777 31.258C40.1684 31.2799 39.764 31.8701 40.245 32.4713C40.245 32.4713 40.8352 32.7117 41.3052 32.3401C41.7752 31.9685 41.4254 31.7827 41.4254 31.7827L40.2777 31.258Z" fill="#5ABEA0"/>
<path d="M40.3188 31.3864C40.2697 31.3126 40.2779 31.258 40.2779 31.258C40.2779 31.258 40.2532 30.4109 40.6058 30.3945C40.9583 30.3781 42.2288 31.2142 42.2288 31.3536C42.2288 31.493 41.8189 31.8946 41.4746 31.9766C41.1305 32.0586 40.3188 31.3864 40.3188 31.3864Z" fill="#5ABEA0"/>
<path d="M39.4502 33.4359C39.4502 33.4359 40.5699 32.9329 40.3595 32.5236C40.2076 32.2284 39.8663 32.4176 39.8123 32.6431C39.7448 32.9244 39.526 33.3165 39.4502 33.4359Z" fill="#B46446"/>
<path d="M38.2145 34.8658L38.1498 34.8452C38.0849 34.8244 36.5391 34.3265 34.9679 33.2909C32.858 31.9005 31.7427 30.2033 31.7427 28.3835V18.498H44.6863V28.3835C44.6863 30.2034 43.571 31.9005 41.4611 33.2909C39.89 34.3265 38.3442 34.8244 38.2792 34.8452L38.2145 34.8658ZM32.1694 18.9247V28.3835C32.1694 32.2195 37.5579 34.191 38.2145 34.4169C38.8705 34.191 44.2596 32.2163 44.2596 28.3835V18.9247H32.1694Z" fill="#464655"/>
</g>
<defs>
<clipPath id="clip0_108_49047">
<rect width="50" height="50" fill="white" transform="translate(0.720703 0.895752)"/>
</clipPath>
</defs>
</svg>
