<svg width="51" height="51" viewBox="0 0 51 51" fill="none" xmlns="http://www.w3.org/2000/svg">
<g clip-path="url(#clip0_108_49014)">
<path d="M0.868164 33.6541H50.8681V41.4127C50.8681 41.8887 50.482 42.2748 50.006 42.2748H1.73027C1.2542 42.2748 0.868164 41.8887 0.868164 41.4127V33.6541Z" fill="#FF4B55"/>
<path d="M1.73076 9.51633H50.0065C50.4826 9.51633 50.8686 9.90236 50.8686 10.3784V18.137H0.868652V10.3783C0.868652 9.90226 1.25469 9.51633 1.73076 9.51633Z" fill="#FF4B55"/>
<path d="M50.8686 18.1368H0.868652V33.6544H50.8686V18.1368Z" fill="#F5F5F5"/>
<path d="M31.5518 23.6942L26.0796 25.9279C26.0774 25.9224 26.0748 25.9174 26.0723 25.9121L31.3572 23.2653C31.1482 22.8483 30.8944 22.4576 30.5999 22.1014L26.0435 25.8694C26.039 25.8638 26.0364 25.8566 26.0312 25.8513L30.208 21.6703C29.91 21.3723 29.5806 21.106 29.2267 20.8741L25.9931 25.8239C25.9857 25.819 25.9792 25.8133 25.9712 25.8092L28.6133 20.521C28.1889 20.3084 27.7366 20.144 27.2632 20.0339L25.9205 25.7923C25.9035 25.7882 25.8872 25.7818 25.8687 25.7818C25.8503 25.7818 25.8342 25.7882 25.817 25.7923L24.4743 20.0339C24.0008 20.144 23.5485 20.3083 23.1242 20.521L25.7663 25.8092C25.7584 25.8133 25.7517 25.819 25.7444 25.8239L22.5107 20.8741C22.1567 21.1061 21.8274 21.3724 21.5295 21.6703L25.7062 25.8513C25.7012 25.8566 25.6986 25.8637 25.6939 25.8694L21.1376 22.1014C20.8431 22.4575 20.5893 22.8483 20.3803 23.2653L25.6652 25.9121C25.6627 25.9175 25.66 25.9225 25.6579 25.9279L20.1856 23.6942C20.0207 24.0987 19.898 24.5248 19.8223 24.9672L25.6482 25.9759C25.6474 25.981 25.6457 25.9856 25.6452 25.9907L19.7646 25.3781C19.7434 25.5857 19.7324 25.7961 19.7324 26.0093C19.7324 26.3778 19.7667 26.7381 19.829 27.0886L25.8686 26.4638L31.9084 27.0886C31.9707 26.7379 32.005 26.3777 32.005 26.0093C32.005 25.7961 31.9939 25.5857 31.9728 25.3781L26.0921 25.9907C26.0917 25.9856 26.0898 25.981 26.089 25.9759L31.9149 24.9672C31.8394 24.5249 31.7167 24.0988 31.5518 23.6942Z" fill="#FFB955"/>
<path d="M19.938 27.5865C19.9801 27.7452 20.0287 27.9013 20.0829 28.0546H31.6546C31.7088 27.9013 31.7574 27.7452 31.7995 27.5865C31.2326 27.5133 31.1622 27.1456 30.4716 27.1456C29.7049 27.1456 29.7049 27.6001 28.9381 27.6001C28.1714 27.6001 28.1714 27.1456 27.4046 27.1456C26.6377 27.1456 26.6377 27.6001 25.8706 27.6001C25.1041 27.6001 25.1041 27.1456 24.3375 27.1456C23.5702 27.1456 23.5702 27.6001 22.8031 27.6001C22.0354 27.6001 22.0354 27.1456 21.2677 27.1456C20.5762 27.1456 20.5059 27.5134 19.938 27.5865Z" fill="#4173CD"/>
<path d="M30.2903 28.7364C29.5522 28.7363 29.5521 28.2819 28.8139 28.2819C28.0755 28.2819 28.0755 28.7364 27.3371 28.7364C26.5988 28.7364 26.5988 28.2819 25.8604 28.2819C25.1218 28.2819 25.1218 28.7364 24.3833 28.7364C23.6452 28.7364 23.6452 28.2819 22.9071 28.2819C22.1683 28.2819 22.1683 28.7364 21.4295 28.7364C20.7741 28.7364 20.6987 28.3797 20.175 28.2987C20.3 28.6092 20.4482 28.9079 20.6202 29.1909H30.29H30.2906H31.1163C31.2886 28.9073 31.4371 28.6078 31.5623 28.2964C31.023 28.3723 30.9526 28.7364 30.2903 28.7364Z" fill="#4173CD"/>
<path d="M30.8778 29.5518C30.7349 29.4769 30.5657 29.4183 30.3014 29.4183C29.563 29.4183 29.563 29.8728 28.8246 29.8728C28.0862 29.8728 28.0862 29.4183 27.3478 29.4183C26.6093 29.4183 26.6093 29.8728 25.8708 29.8728C25.1326 29.8728 25.1326 29.4183 24.3945 29.4183C23.6558 29.4183 23.6558 29.8728 22.917 29.8728C22.1776 29.8728 22.1776 29.4183 21.4385 29.4183C21.1731 29.4183 21.0035 29.4771 20.8604 29.5523C21.056 29.8281 21.2727 30.0878 21.5101 30.3274H30.2279C30.4653 30.0876 30.6822 29.8278 30.8778 29.5518Z" fill="#4173CD"/>
<path d="M29.6502 30.8401C29.4272 30.7108 29.2478 30.5546 28.8146 30.5546C28.0762 30.5546 28.0762 31.0091 27.3378 31.0091C26.5995 31.0091 26.5995 30.5546 25.8611 30.5546C25.1225 30.5546 25.1225 31.0091 24.384 31.0091C23.6458 31.0091 23.6458 30.5546 22.9078 30.5546C22.4803 30.5546 22.2999 30.7065 22.0808 30.8348C22.385 31.074 22.7122 31.2847 23.0587 31.4637H28.6789C29.0231 31.286 29.3479 31.077 29.6502 30.8401Z" fill="#4173CD"/>
<path d="M24.3945 31.691C24.1525 31.691 23.9903 31.7401 23.855 31.8057C24.486 32.0248 25.1632 32.1455 25.8688 32.1455H25.87C25.1326 32.1452 25.1324 31.691 24.3945 31.691Z" fill="#4173CD"/>
<path d="M25.8743 32.1454C26.5791 32.1447 27.2552 32.0241 27.8854 31.8048C27.7504 31.7398 27.5886 31.691 27.3479 31.691C26.6105 31.691 26.6091 32.1438 25.8743 32.1454Z" fill="#4173CD"/>
<path d="M26.675 25.2321L24.7305 24.6702C24.6214 24.6387 24.5458 24.5403 24.5444 24.4267C24.5354 23.7067 24.5042 21.1712 24.5042 20.7819C24.5042 20.3274 24.9586 19.6455 25.8678 19.6455H26.5846C26.6525 19.6455 26.673 19.7379 26.6106 19.7646C26.2823 19.9053 25.8679 20.1986 25.8679 20.7819C25.8679 21.4744 26.5274 21.7713 26.8416 21.8735C26.9387 21.905 27.0043 21.9942 27.0043 22.0963V24.9848C27.0041 25.1562 26.8398 25.2798 26.675 25.2321Z" fill="#FF4B55"/>
<path d="M24.96 27.7759C25.0312 27.7327 25.1158 27.8048 25.0837 27.8818C24.8934 28.3387 24.4269 29.191 23.5951 29.191C22.4588 29.191 22.2314 28.282 22.2314 27.6001V22.7793C22.2314 22.6803 22.3117 22.6001 22.4106 22.6001H22.734C22.833 22.6001 22.9132 22.6804 22.9132 22.7793V27.3729C22.9135 27.9874 24.2057 28.2326 24.96 27.7759Z" fill="#FF4B55"/>
<path d="M26.6806 27.7759C26.6093 27.7327 26.5247 27.8048 26.5568 27.8818C26.7472 28.3387 27.2137 29.191 28.0454 29.191C29.1817 29.191 29.4091 28.282 29.4091 27.6001V22.7793C29.4091 22.6803 29.3288 22.6001 29.2299 22.6001H28.9065C28.8075 22.6001 28.7273 22.6804 28.7273 22.7793V27.3729C28.7271 27.9874 27.4349 28.2326 26.6806 27.7759Z" fill="#FF4B55"/>
<path d="M28.2594 27.0318H23.4788C23.4183 27.0318 23.3691 26.9827 23.3691 26.9221V26.9142C23.3691 26.8537 23.4183 26.8046 23.4788 26.8046H28.2594C28.3199 26.8046 28.369 26.8537 28.369 26.9142V26.9221C28.369 26.9828 28.3199 27.0318 28.2594 27.0318Z" fill="#AA4650"/>
<path d="M23.8514 26.1744L24.0975 25.8462C24.1352 25.7961 24.1249 25.7247 24.0747 25.687C24.0246 25.6495 23.9532 25.66 23.9156 25.7099L23.8198 25.8376V25.7494C23.8198 25.6866 23.769 25.6357 23.7062 25.6357C23.6434 25.6357 23.5925 25.6866 23.5925 25.7494V25.8293L23.5029 25.7099C23.4653 25.6598 23.3942 25.6494 23.3439 25.687C23.2936 25.7247 23.2834 25.796 23.3211 25.8462L23.5672 26.1744L23.3211 26.5025C23.2834 26.5526 23.2937 26.624 23.3439 26.6617C23.3643 26.677 23.3882 26.6843 23.4118 26.6843C23.4464 26.6843 23.4805 26.6686 23.5027 26.6388L23.709 26.3637L23.9152 26.6388C23.9375 26.6686 23.9716 26.6843 24.0062 26.6843C24.0299 26.6843 24.0538 26.677 24.0741 26.6617C24.1244 26.624 24.1346 26.5527 24.0969 26.5025L23.8514 26.1744Z" fill="#AA4650"/>
<path d="M25.9734 26.174L26.2195 25.8459C26.2572 25.7958 26.247 25.7244 26.1968 25.6867C26.1467 25.6492 26.0753 25.6597 26.0377 25.7096L25.9419 25.8373V25.749C25.9419 25.6862 25.891 25.6353 25.8282 25.6353C25.7654 25.6353 25.7146 25.6862 25.7146 25.749V25.829L25.625 25.7096C25.5874 25.6595 25.5162 25.649 25.4659 25.6867C25.4156 25.7244 25.4055 25.7957 25.4432 25.8459L25.6893 26.174L25.4432 26.5021C25.4055 26.5522 25.4157 26.6236 25.4659 26.6613C25.4863 26.6766 25.5103 26.684 25.5339 26.684C25.5685 26.684 25.6026 26.6683 25.6248 26.6385L25.8311 26.3634L26.0373 26.6385C26.0596 26.6683 26.0937 26.684 26.1282 26.684C26.152 26.684 26.1759 26.6766 26.1962 26.6613C26.2465 26.6236 26.2566 26.5523 26.219 26.5021L25.9734 26.174Z" fill="#AA4650"/>
<path d="M24.9129 26.174L25.159 25.8459C25.1967 25.7958 25.1864 25.7244 25.1362 25.6867C25.0861 25.6492 25.0148 25.6597 24.9772 25.7096L24.8814 25.8373V25.749C24.8814 25.6862 24.8305 25.6353 24.7677 25.6353C24.7049 25.6353 24.654 25.6862 24.654 25.749V25.829L24.5645 25.7096C24.5269 25.6595 24.4557 25.649 24.4054 25.6867C24.3551 25.7244 24.3449 25.7957 24.3826 25.8459L24.6287 26.174L24.3826 26.5021C24.3449 26.5522 24.3552 26.6236 24.4054 26.6613C24.4258 26.6766 24.4497 26.684 24.4734 26.684C24.5079 26.684 24.542 26.6683 24.5643 26.6385L24.7705 26.3634L24.9768 26.6385C24.999 26.6683 25.0331 26.684 25.0677 26.684C25.0914 26.684 25.1153 26.6766 25.1357 26.6613C25.1859 26.6236 25.1961 26.5523 25.1584 26.5021L24.9129 26.174Z" fill="#AA4650"/>
<path d="M27.0342 26.174L27.2803 25.8459C27.318 25.7958 27.3078 25.7244 27.2576 25.6867C27.2075 25.6492 27.1361 25.6597 27.0985 25.7096L27.0027 25.8373V25.749C27.0027 25.6862 26.9518 25.6353 26.889 25.6353C26.8262 25.6353 26.7754 25.6862 26.7754 25.749V25.829L26.6858 25.7096C26.6482 25.6595 26.577 25.649 26.5267 25.6867C26.4764 25.7244 26.4663 25.7957 26.504 25.8459L26.7501 26.174L26.504 26.5021C26.4663 26.5522 26.4765 26.6236 26.5267 26.6613C26.5471 26.6766 26.5711 26.684 26.5947 26.684C26.6293 26.684 26.6633 26.6683 26.6856 26.6385L26.8919 26.3634L27.0981 26.6385C27.1204 26.6683 27.1545 26.684 27.189 26.684C27.2128 26.684 27.2367 26.6766 27.257 26.6613C27.3073 26.6236 27.3174 26.5523 27.2797 26.5021L27.0342 26.174Z" fill="#AA4650"/>
<path d="M28.0948 26.174L28.3409 25.8459C28.3786 25.7958 28.3683 25.7244 28.3181 25.6867C28.268 25.6492 28.1966 25.6597 28.159 25.7096L28.0632 25.8373V25.749C28.0632 25.6862 28.0124 25.6353 27.9496 25.6353C27.8868 25.6353 27.8359 25.6862 27.8359 25.749V25.829L27.7463 25.7096C27.7088 25.6595 27.6376 25.649 27.5873 25.6867C27.537 25.7244 27.5268 25.7957 27.5645 25.8459L27.8106 26.174L27.5645 26.5021C27.5268 26.5522 27.5371 26.6236 27.5873 26.6613C27.6077 26.6766 27.6316 26.684 27.6552 26.684C27.6898 26.684 27.7239 26.6683 27.7462 26.6385L27.9524 26.3634L28.1587 26.6385C28.1809 26.6683 28.215 26.684 28.2496 26.684C28.2733 26.684 28.2972 26.6766 28.3175 26.6613C28.3678 26.6236 28.378 26.5523 28.3403 26.5021L28.0948 26.174Z" fill="#AA4650"/>
<path d="M23.6416 27.7338C23.8097 27.8073 24.7971 27.8178 25.0491 27.5553C25.3012 27.2927 25.2487 27.1771 25.2487 27.1771L24.0512 27.1876L23.6416 27.7338Z" fill="#AA4650"/>
<path d="M28.0482 27.7338C27.8801 27.8073 26.8927 27.8178 26.6407 27.5553C26.3886 27.2927 26.4411 27.1771 26.4411 27.1771L27.6386 27.1876L28.0482 27.7338Z" fill="#AA4650"/>
</g>
<defs>
<clipPath id="clip0_108_49014">
<rect width="50" height="50" fill="white" transform="translate(0.869141 0.895752)"/>
</clipPath>
</defs>
</svg>
