<svg width="51" height="51" viewBox="0 0 51 51" fill="none" xmlns="http://www.w3.org/2000/svg">
<g clip-path="url(#clip0_108_48991)">
<path d="M49.4482 41.5445H1.17253C0.696459 41.5445 0.310425 41.1585 0.310425 40.6824V9.64797C0.310425 9.17189 0.696459 8.78586 1.17253 8.78586H49.4483C49.9244 8.78586 50.3104 9.17189 50.3104 9.64797V40.6824C50.3103 41.1586 49.9243 41.5445 49.4482 41.5445Z" fill="#F5F5F5"/>
<path d="M50.3103 22.5791H27.8966V8.78601H22.7242V22.5791H0.310425V27.7515H22.7242V41.5445H27.8966V27.7515H50.3103V22.5791Z" fill="#FF4B55"/>
<path d="M14.9655 14.5045C14.1116 14.5904 13.275 14.6764 12.4373 14.7625C12.5235 13.9247 12.6094 13.0882 12.6955 12.2344C11.9123 12.3357 11.1222 12.3357 10.3391 12.2344C10.4249 13.0882 10.511 13.9248 10.5972 14.7625C9.75942 14.6765 8.9228 14.5905 8.06909 14.5045C8.17036 15.2875 8.17036 16.0778 8.06909 16.8608C8.923 16.7749 9.75952 16.6889 10.5972 16.6028C10.5111 17.4405 10.425 18.2771 10.3391 19.1309C11.1222 19.0296 11.9123 19.0296 12.6955 19.1309C12.6096 18.2771 12.5235 17.4405 12.4373 16.6028C13.2751 16.6888 14.1117 16.7748 14.9655 16.8608C14.8643 16.0778 14.8643 15.2874 14.9655 14.5045Z" fill="#FF4B55"/>
<path d="M42.5516 14.5045C41.6977 14.5904 40.8612 14.6764 40.0235 14.7625C40.1097 13.9247 40.1956 13.0882 40.2816 12.2344C39.4985 12.3357 38.7084 12.3357 37.9253 12.2344C38.0111 13.0882 38.0972 13.9248 38.1834 14.7625C37.3456 14.6765 36.509 14.5905 35.6553 14.5045C35.7565 15.2875 35.7565 16.0778 35.6553 16.8608C36.5092 16.7749 37.3457 16.6889 38.1834 16.6028C38.0973 17.4405 38.0112 18.2771 37.9253 19.1309C38.7084 19.0296 39.4985 19.0296 40.2816 19.1309C40.1958 18.2771 40.1097 17.4405 40.0235 16.6028C40.8613 16.6888 41.6978 16.7748 42.5516 16.8608C42.4505 16.0778 42.4505 15.2874 42.5516 14.5045Z" fill="#FF4B55"/>
<path d="M14.9655 33.4699C14.1116 33.5557 13.275 33.6418 12.4373 33.7279C12.5235 32.8901 12.6094 32.0536 12.6955 31.1998C11.9123 31.301 11.1222 31.301 10.3391 31.1998C10.4249 32.0536 10.511 32.8902 10.5972 33.7279C9.75942 33.6419 8.9228 33.5558 8.06909 33.4699C8.17036 34.2529 8.17036 35.0431 8.06909 35.8261C8.923 35.7403 9.75952 35.6543 10.5972 35.5681C10.5111 36.4059 10.425 37.2424 10.3391 38.0962C11.1222 37.995 11.9123 37.995 12.6955 38.0962C12.6096 37.2424 12.5235 36.4058 12.4373 35.5681C13.2751 35.6542 14.1117 35.7402 14.9655 35.8261C14.8643 35.0432 14.8643 34.2529 14.9655 33.4699Z" fill="#FF4B55"/>
<path d="M42.5516 33.4699C41.6977 33.5557 40.8612 33.6418 40.0235 33.7279C40.1097 32.8901 40.1956 32.0536 40.2816 31.1998C39.4985 31.301 38.7084 31.301 37.9253 31.1998C38.0111 32.0536 38.0972 32.8902 38.1834 33.7279C37.3456 33.6419 36.509 33.5558 35.6553 33.4699C35.7565 34.2529 35.7565 35.0431 35.6553 35.8261C36.5092 35.7403 37.3457 35.6543 38.1834 35.5681C38.0973 36.4059 38.0112 37.2424 37.9253 38.0962C38.7084 37.995 39.4985 37.995 40.2816 38.0962C40.1958 37.2424 40.1097 36.4058 40.0235 35.5681C40.8613 35.6542 41.6978 35.7402 42.5516 35.8261C42.4505 35.0432 42.4505 34.2529 42.5516 33.4699Z" fill="#FF4B55"/>
</g>
<defs>
<clipPath id="clip0_108_48991">
<rect width="50" height="50" fill="white" transform="translate(0.310547 0.165283)"/>
</clipPath>
</defs>
</svg>
