<svg width="51" height="51" viewBox="0 0 51 51" fill="none" xmlns="http://www.w3.org/2000/svg">
<g clip-path="url(#clip0_108_48982)">
<path d="M50.0312 19.9793H0.03125V9.92175C0.03125 9.44568 0.417284 9.05965 0.893358 9.05965H49.1691C49.6452 9.05965 50.0312 9.44568 50.0312 9.92175L50.0312 19.9793Z" fill="#FF4B55"/>
<path d="M49.169 41.8183H0.893358C0.417284 41.8183 0.03125 41.4322 0.03125 40.9562V30.8988H50.0312V40.9562C50.0312 41.4323 49.6451 41.8183 49.169 41.8183Z" fill="#73AF00"/>
<path d="M50.0312 19.9791H0.03125V30.898H50.0312V19.9791Z" fill="#FFE15A"/>
<path d="M25.3947 21.3286L26.2944 24.0261L29.138 24.0482C29.5061 24.051 29.6588 24.5208 29.3627 24.7396L27.0752 26.4288L27.9329 29.1401C28.044 29.491 27.6443 29.7815 27.3447 29.5673L25.0313 27.9136L22.7178 29.5671C22.4184 29.7813 22.0187 29.4908 22.1296 29.1399L22.9873 26.4286L20.6998 24.7394C20.4037 24.5206 20.5563 24.0509 20.9245 24.048L23.7681 24.0259L24.6678 21.3284C24.7843 20.9793 25.2782 20.9793 25.3947 21.3286Z" fill="#464655"/>
</g>
<defs>
<clipPath id="clip0_108_48982">
<rect width="50" height="50" fill="white" transform="translate(0.03125 0.438965)"/>
</clipPath>
</defs>
</svg>
