<svg width="51" height="51" viewBox="0 0 51 51" fill="none" xmlns="http://www.w3.org/2000/svg">
<g clip-path="url(#clip0_108_48969)">
<path d="M49.4612 41.8182H1.18547C0.709399 41.8182 0.323364 41.4321 0.323364 40.9561V9.92175C0.323364 9.44568 0.709399 9.05965 1.18547 9.05965H49.4613C49.9373 9.05965 50.3234 9.44568 50.3234 9.92175V40.9561C50.3233 41.4322 49.9372 41.8182 49.4612 41.8182Z" fill="#F5F5F5"/>
<path d="M49.4604 41.8181H1.18474C0.708666 41.8181 0.322632 41.4321 0.322632 40.956V30.6112H50.3225V40.956C50.3225 41.4322 49.9365 41.8181 49.4604 41.8181Z" fill="#FF4B55"/>
<path d="M34.8051 21.1285V19.4044H33.081V15.094H33.943V13.3699H28.7706V15.094H29.6326V19.4044H27.0465V13.3699H27.9085V11.6458H22.7362V13.3699H23.5982V19.4044H21.0121V15.094H21.8741V13.3699H16.7017V15.094H17.5637V19.4044H15.8396V21.1285H16.7017V28.0251H15.8396V29.7492H34.8051V28.0251H33.943V21.1285H34.8051Z" fill="#FF4B55"/>
<path d="M27.0466 28.8873H23.5984V25.439C23.5984 24.4868 24.3703 23.7149 25.3225 23.7149C26.2748 23.7149 27.0466 24.4868 27.0466 25.439V28.8873Z" fill="#464655"/>
<path d="M25.3223 16.8184C24.8462 16.8184 24.4602 17.2044 24.4602 17.6805V20.2667H26.1843V17.6805C26.1844 17.2044 25.7984 16.8184 25.3223 16.8184Z" fill="#464655"/>
<path d="M31.357 17.6805C30.8809 17.6805 30.4949 18.0665 30.4949 18.5426V20.2667H32.219V18.5426C32.2191 18.0664 31.8332 17.6805 31.357 17.6805Z" fill="#464655"/>
<path d="M19.288 17.6805C18.8119 17.6805 18.4259 18.0665 18.4259 18.5426V20.2667H20.15V18.5426C20.1501 18.0664 19.7641 17.6805 19.288 17.6805Z" fill="#464655"/>
<path d="M32.2191 28.8873H28.7709V26.3011C28.7709 25.3488 29.5427 24.5769 30.495 24.5769C31.4472 24.5769 32.2191 25.3488 32.2191 26.3011V28.8873Z" fill="#464655"/>
<path d="M21.8741 28.8873H18.4259V26.3011C18.4259 25.3488 19.1978 24.5769 20.15 24.5769C21.1023 24.5769 21.8741 25.3488 21.8741 26.3011V28.8873Z" fill="#464655"/>
<path d="M27.6939 31.9044C27.6939 31.7605 27.6219 31.6257 27.502 31.5458L25.7543 30.3808V30.0158L27.2401 29.2729C27.4532 29.1664 27.5393 28.9075 27.4329 28.6946C27.3259 28.4812 27.0679 28.3953 26.8546 28.5018L25.3232 29.2675L23.7919 28.5019C23.5797 28.3954 23.32 28.4813 23.2135 28.6947C23.1071 28.9077 23.1933 29.1665 23.4063 29.273L24.8922 30.0158V30.3808L23.1444 31.546C23.0245 31.6259 22.9525 31.7606 22.9525 31.9045C22.9525 32.0485 23.0245 32.1832 23.1444 32.2631L24.8922 33.4283V37.077H23.168V37.737C23.168 37.9753 23.3608 38.1681 23.5991 38.1681C23.764 38.1681 23.9076 38.0755 23.9801 37.9391H24.8923V38.8012H23.9725C23.8981 38.6724 23.7588 38.5857 23.5992 38.5857C23.3609 38.5857 23.1681 38.7784 23.1681 39.0167V39.6633H24.8923V40.0943C24.8923 40.3326 25.085 40.5254 25.3233 40.5254C25.5616 40.5254 25.7544 40.3326 25.7544 40.0943V39.6633V37.0771V33.4284L27.5021 32.2632C27.6219 32.183 27.6939 32.0484 27.6939 31.9044ZM25.3232 32.6794L24.1606 31.9044L25.3232 31.1295L26.4858 31.9044L25.3232 32.6794Z" fill="#FFE15A"/>
</g>
<defs>
<clipPath id="clip0_108_48969">
<rect width="50" height="50" fill="white" transform="translate(0.324219 0.438965)"/>
</clipPath>
</defs>
</svg>
