<svg width="51" height="51" viewBox="0 0 51 51" fill="none" xmlns="http://www.w3.org/2000/svg">
<g clip-path="url(#clip0_108_48952)">
<path d="M50.179 25.4389H0.179077V9.92166C0.179077 9.44559 0.565112 9.05956 1.04118 9.05956H49.317C49.793 9.05956 50.1791 9.44559 50.1791 9.92166L50.179 25.4389Z" fill="#F5F5F5"/>
<path d="M0.178345 25.439H50.1782V40.9563C50.1782 41.4323 49.7922 41.8184 49.3161 41.8184H1.04045C0.564379 41.8184 0.178345 41.4323 0.178345 40.9563V25.439Z" fill="#FF4B55"/>
<path d="M17.4196 14.2321C11.2301 14.2321 6.21265 19.2497 6.21265 25.439H28.6264C28.6264 19.2497 23.609 14.2321 17.4196 14.2321Z" fill="#FF4B55"/>
<path d="M17.4203 36.6458C23.6097 36.6458 28.6272 31.6283 28.6272 25.4389H6.21338C6.21338 31.6284 11.2309 36.6458 17.4203 36.6458Z" fill="#F5F5F5"/>
</g>
<defs>
<clipPath id="clip0_108_48952">
<rect width="50" height="50" fill="white" transform="translate(0.179688 0.438965)"/>
</clipPath>
</defs>
</svg>
