<svg width="51" height="51" viewBox="0 0 51 51" fill="none" xmlns="http://www.w3.org/2000/svg">
<g clip-path="url(#clip0_108_48935)">
<path d="M49.7475 41.8182H1.47185C0.995776 41.8182 0.609741 41.4321 0.609741 40.9561V9.92175C0.609741 9.44568 0.995776 9.05965 1.47185 9.05965H49.7476C50.2237 9.05965 50.6097 9.44568 50.6097 9.92175V40.9561C50.6096 41.4322 50.2236 41.8182 49.7475 41.8182Z" fill="#FF4B55"/>
<path d="M45.4372 14.2321V36.6458H5.78223V14.2321H45.4372Z" fill="#FFE15A"/>
<path d="M5.78223 14.2321L25.6097 25.4389L5.78223 36.6457V14.2321Z" fill="#73AF00"/>
<path d="M45.4375 14.2321L25.61 25.4389L45.4375 36.6457V14.2321Z" fill="#73AF00"/>
<path d="M25.6097 28.8871C27.5141 28.8871 29.058 27.3433 29.058 25.4389C29.058 23.5345 27.5141 21.9907 25.6097 21.9907C23.7053 21.9907 22.1615 23.5345 22.1615 25.4389C22.1615 27.3433 23.7053 28.8871 25.6097 28.8871Z" fill="#FF4B55"/>
<path d="M25.8283 22.9124L26.3676 24.5294L28.0721 24.5427C28.2928 24.5445 28.3843 24.826 28.2068 24.9572L26.8356 25.9698L27.3498 27.5949C27.4164 27.8054 27.1769 27.9794 26.9972 27.8511L25.6104 26.8598L24.2237 27.8511C24.0442 27.9794 23.8046 27.8054 23.8711 27.5949L24.3854 25.9698L23.0142 24.9572C22.8367 24.826 22.9282 24.5445 23.1489 24.5427L24.8534 24.5294L25.3927 22.9124C25.4622 22.7031 25.7584 22.7031 25.8283 22.9124Z" fill="#FFE15A"/>
<path d="M25.7388 10.2039L26.0574 11.1592L27.0645 11.167C27.1949 11.1679 27.249 11.3344 27.144 11.4118L26.3338 12.01L26.6376 12.9703C26.6769 13.0946 26.5353 13.1974 26.4293 13.1215L25.61 12.5362L24.7906 13.1218C24.6846 13.1977 24.543 13.0948 24.5823 12.9706L24.8861 12.0103L24.0759 11.4121C23.971 11.3346 24.025 11.1682 24.1554 11.1673L25.1625 11.1595L25.4811 10.2042C25.5224 10.0801 25.6974 10.0801 25.7388 10.2039Z" fill="#FFE15A"/>
<path d="M37.0803 10.2039L37.3989 11.1593L38.406 11.167C38.5364 11.1679 38.5905 11.3344 38.4855 11.4118L37.6753 12.01L37.9791 12.9703C38.0184 13.0946 37.8768 13.1974 37.7708 13.1216L36.9514 12.5359L36.1319 13.1216C36.0259 13.1974 35.8843 13.0945 35.9236 12.9703L36.2274 12.01L35.4172 11.4118C35.3123 11.3343 35.3663 11.1679 35.4967 11.167L36.5038 11.1593L36.8224 10.2039C36.864 10.0802 37.0389 10.0802 37.0803 10.2039Z" fill="#FFE15A"/>
<path d="M14.3974 10.2039L14.716 11.1593L15.7232 11.167C15.8535 11.1679 15.9076 11.3344 15.8027 11.4118L14.9924 12.01L15.2962 12.9703C15.3356 13.0946 15.194 13.1974 15.0879 13.1216L14.2685 12.5359L13.4491 13.1216C13.343 13.1974 13.2014 13.0945 13.2408 12.9703L13.5446 12.01L12.7343 11.4118C12.6294 11.3343 12.6834 11.1679 12.8138 11.167L13.8209 11.1593L14.1396 10.2039C14.1812 10.0802 14.3562 10.0802 14.3974 10.2039Z" fill="#FFE15A"/>
<path d="M25.7388 37.7429L26.0574 38.6983L27.0645 38.706C27.1949 38.707 27.249 38.8735 27.144 38.9508L26.3338 39.549L26.6376 40.5093C26.6769 40.6336 26.5353 40.7364 26.4293 40.6606L25.61 40.0752L24.7906 40.6609C24.6846 40.7367 24.543 40.6338 24.5823 40.5096L24.8861 39.5493L24.0759 38.9511C23.971 38.8737 24.025 38.7072 24.1554 38.7063L25.1625 38.6986L25.4811 37.7432C25.5224 37.6193 25.6974 37.6193 25.7388 37.7429Z" fill="#FFE15A"/>
<path d="M37.0803 37.7429L37.3989 38.6983L38.406 38.706C38.5364 38.707 38.5905 38.8735 38.4855 38.9508L37.6753 39.549L37.9791 40.5093C38.0184 40.6336 37.8768 40.7364 37.7708 40.6606L36.9514 40.0749L36.1319 40.6606C36.0259 40.7364 35.8843 40.6335 35.9236 40.5093L36.2274 39.549L35.4172 38.9508C35.3123 38.8734 35.3663 38.707 35.4967 38.706L36.5038 38.6983L36.8224 37.7429C36.864 37.6193 37.0389 37.6193 37.0803 37.7429Z" fill="#FFE15A"/>
<path d="M14.3974 37.7429L14.716 38.6983L15.7232 38.706C15.8535 38.707 15.9076 38.8735 15.8027 38.9508L14.9924 39.549L15.2962 40.5093C15.3356 40.6336 15.194 40.7364 15.0879 40.6606L14.2685 40.0749L13.4491 40.6606C13.343 40.7364 13.2014 40.6335 13.2408 40.5093L13.5446 39.549L12.7343 38.9508C12.6294 38.8734 12.6834 38.707 12.8138 38.706L13.8209 38.6983L14.1396 37.7429C14.1812 37.6193 14.3562 37.6193 14.3974 37.7429Z" fill="#FFE15A"/>
<path d="M12.1404 23.2837H9.98523V25.4389C9.98523 26.6292 10.9501 27.5941 12.1404 27.5941C13.3307 27.5941 14.2956 26.6292 14.2956 25.4389C14.2956 24.2486 13.3306 23.2837 12.1404 23.2837Z" fill="#FFE15A"/>
<path d="M14.2949 27.5941L13.1102 27.3644L12.1398 25.4389L14.0653 26.4095L14.2949 27.5941Z" fill="#FF4B55"/>
</g>
<defs>
<clipPath id="clip0_108_48935">
<rect width="50" height="50" fill="white" transform="translate(0.609375 0.438965)"/>
</clipPath>
</defs>
</svg>
