<svg width="51" height="51" viewBox="0 0 51 51" fill="none" xmlns="http://www.w3.org/2000/svg">
<g clip-path="url(#clip0_108_48848)">
<path d="M17.1361 41.818H1.33147C0.855396 41.818 0.46936 41.4319 0.46936 40.9559V9.92139C0.46936 9.44532 0.855396 9.05928 1.33147 9.05928H17.1361V41.818Z" fill="#82AFFF"/>
<path d="M33.8031 9.05977H17.1361V41.8186H33.8031V9.05977Z" fill="#F5F5F5"/>
<path d="M49.6071 41.818H33.8025V9.05937H49.6071C50.0832 9.05937 50.4692 9.44541 50.4692 9.92148V40.956C50.4692 41.4321 50.0832 41.818 49.6071 41.818Z" fill="#82AFFF"/>
<path d="M25.2517 21.1525L24.7573 21.3998L25.2121 21.5875L25.2517 21.1525Z" fill="#FFC855"/>
<path d="M25.4693 30.2876C22.7217 30.2876 20.4866 28.0523 20.4866 25.3049C20.4866 23.5981 21.3457 22.0287 22.7845 21.1068L22.9124 21.3066C21.5419 22.1848 20.7239 23.6795 20.7239 25.3049C20.7239 27.9216 22.8528 30.0504 25.4694 30.0504L25.4693 30.2876Z" fill="#73AF00"/>
<path d="M22.6174 30.5985C22.8073 30.6371 23.1001 30.587 23.4009 30.447C23.7018 30.3068 23.9285 30.1148 24.0209 29.9446C23.8311 29.9059 23.5382 29.956 23.2375 30.096C22.9368 30.2364 22.71 30.4282 22.6174 30.5985Z" fill="#73AF00"/>
<path d="M24.0215 29.9447C24.0602 29.7548 24.0101 29.4619 23.87 29.1612C23.7298 28.8603 23.5378 28.6336 23.3676 28.5411C23.3289 28.731 23.379 29.0239 23.5191 29.3246C23.6592 29.6252 23.8512 29.852 24.0215 29.9447Z" fill="#73AF00"/>
<path d="M21.6248 29.9892C21.8069 30.0554 22.104 30.0487 22.422 29.9544C22.7401 29.86 22.9926 29.7032 23.1091 29.5484C22.927 29.4822 22.6299 29.4889 22.3119 29.5832C21.9938 29.6777 21.7413 29.8343 21.6248 29.9892Z" fill="#73AF00"/>
<path d="M23.1095 29.5483C23.1758 29.3662 23.1691 29.0691 23.0748 28.751C22.9803 28.4329 22.8236 28.1804 22.6688 28.0639C22.6026 28.246 22.6093 28.5431 22.7036 28.8612C22.798 29.1793 22.9548 29.4319 23.1095 29.5483Z" fill="#73AF00"/>
<path d="M20.7065 29.1583C20.8738 29.2561 21.1672 29.3031 21.4972 29.2673C21.8271 29.2316 22.1036 29.1227 22.246 28.9913C22.0787 28.8936 21.7854 28.8466 21.4554 28.8823C21.1254 28.9181 20.8489 29.027 20.7065 29.1583Z" fill="#73AF00"/>
<path d="M22.2462 28.9912C22.3439 28.824 22.3909 28.5306 22.3551 28.2006C22.3194 27.8706 22.2105 27.5942 22.0792 27.4518C21.9814 27.6191 21.9344 27.9124 21.9702 28.2424C22.0059 28.5724 22.1148 28.849 22.2462 28.9912Z" fill="#73AF00"/>
<path d="M19.9478 28.0109C20.095 28.1367 20.3755 28.2349 20.7065 28.258C21.0376 28.2812 21.3291 28.2231 21.4924 28.1191C21.3451 27.9932 21.0646 27.895 20.7336 27.8719C20.4025 27.8487 20.1111 27.9068 19.9478 28.0109Z" fill="#73AF00"/>
<path d="M21.4921 28.1191C21.618 27.9718 21.7161 27.6913 21.7392 27.3603C21.7624 27.0292 21.7043 26.7377 21.6003 26.5744C21.4744 26.7217 21.3763 27.0022 21.3531 27.3332C21.3299 27.6644 21.388 27.9557 21.4921 28.1191Z" fill="#73AF00"/>
<path d="M19.5033 26.7471C19.6209 26.9011 19.8743 27.0561 20.1931 27.1484C20.512 27.2406 20.809 27.2451 20.9907 27.1777C20.8731 27.0237 20.6197 26.8688 20.3009 26.7765C19.982 26.6842 19.6849 26.6796 19.5033 26.7471Z" fill="#73AF00"/>
<path d="M20.9908 27.1778C21.1448 27.0602 21.2997 26.8068 21.392 26.4879C21.4844 26.1691 21.4888 25.8721 21.4214 25.6904C21.2674 25.8079 21.1124 26.0613 21.0202 26.3802C20.9279 26.6991 20.9235 26.996 20.9908 27.1778Z" fill="#73AF00"/>
<path d="M19.3151 25.2713C19.3891 25.4504 19.5942 25.6653 19.8785 25.8365C20.1629 26.0077 20.4488 26.0885 20.6417 26.07C20.5677 25.8909 20.3626 25.6761 20.0782 25.5048C19.794 25.3336 19.5079 25.253 19.3151 25.2713Z" fill="#73AF00"/>
<path d="M20.6417 26.07C20.8208 25.996 21.0357 25.7909 21.207 25.5066C21.3782 25.2222 21.4589 24.9363 21.4405 24.7434C21.2614 24.8174 21.0465 25.0225 20.8752 25.3069C20.7041 25.5913 20.6233 25.8772 20.6417 26.07Z" fill="#73AF00"/>
<path d="M19.4933 23.8781C19.5281 24.0687 19.6836 24.3218 19.9257 24.5489C20.1678 24.7759 20.4306 24.9147 20.6229 24.9372C20.5881 24.7466 20.4325 24.4935 20.1905 24.2664C19.9484 24.0395 19.6858 23.9005 19.4933 23.8781Z" fill="#73AF00"/>
<path d="M20.623 24.9373C20.8137 24.9026 21.0668 24.747 21.2938 24.5049C21.5209 24.2628 21.6597 24 21.6822 23.8077C21.4916 23.8425 21.2385 23.9981 21.0114 24.2402C20.7844 24.4822 20.6454 24.7448 20.623 24.9373Z" fill="#73AF00"/>
<path d="M20.1932 22.3705C20.1534 22.5601 20.2015 22.8532 20.3398 23.155C20.4781 23.4568 20.6687 23.6846 20.8383 23.7782C20.8782 23.5887 20.83 23.2955 20.6917 22.9938C20.5534 22.6919 20.3628 22.464 20.1932 22.3705Z" fill="#73AF00"/>
<path d="M20.8384 23.7783C21.0279 23.8181 21.3211 23.77 21.6229 23.6317C21.9246 23.4934 22.1524 23.3028 22.2461 23.1331C22.0565 23.0933 21.7634 23.1414 21.4616 23.2797C21.1599 23.418 20.9319 23.6086 20.8384 23.7783Z" fill="#73AF00"/>
<path d="M21.0306 21.254C20.9412 21.4259 20.9088 21.7213 20.9608 22.049C21.0129 22.3769 21.1352 22.6477 21.2734 22.7833C21.3628 22.6115 21.3952 22.316 21.3432 21.9883C21.2911 21.6606 21.1687 21.3898 21.0306 21.254Z" fill="#73AF00"/>
<path d="M21.2732 22.7834C21.4451 22.8728 21.7405 22.9052 22.0682 22.8532C22.396 22.8011 22.6668 22.6788 22.8025 22.5406C22.6306 22.4512 22.3352 22.4188 22.0075 22.4708C21.6796 22.5229 21.4088 22.6452 21.2732 22.7834Z" fill="#73AF00"/>
<path d="M21.8509 20.477C21.7373 20.6339 21.6617 20.9211 21.6649 21.253C21.6681 21.585 21.7493 21.8707 21.866 22.0253C21.9796 21.8684 22.0552 21.5812 22.052 21.2492C22.0488 20.9174 21.9677 20.6315 21.8509 20.477Z" fill="#73AF00"/>
<path d="M21.8662 22.0253C22.0231 22.139 22.3104 22.2146 22.6423 22.2113C22.9742 22.2081 23.26 22.127 23.4146 22.0103C23.2576 21.8966 22.9704 21.821 22.6385 21.8242C22.3066 21.8275 22.0209 21.9087 21.8662 22.0253Z" fill="#73AF00"/>
<path d="M22.2643 21.6183C22.4573 21.6339 22.7422 21.5492 23.024 21.374C23.306 21.1988 23.508 20.981 23.5795 20.8009C23.3865 20.7853 23.1016 20.8699 22.8198 21.0452C22.5379 21.2203 22.3359 21.4381 22.2643 21.6183Z" fill="#73AF00"/>
<path d="M25.4692 30.2876V30.0503C28.0858 30.0503 30.2147 27.9215 30.2147 25.3048C30.2147 23.6794 29.3966 22.1846 28.0262 21.3065L28.1541 21.1067C29.593 22.0286 30.4521 23.5981 30.4521 25.3048C30.452 28.0522 28.2168 30.2876 25.4692 30.2876Z" fill="#73AF00"/>
<path d="M28.3206 30.5985C28.1308 30.6371 27.8379 30.587 27.5371 30.447C27.2363 30.3068 27.0096 30.1148 26.9171 29.9446C27.107 29.9059 27.3998 29.956 27.7006 30.096C28.0013 30.2364 28.2281 30.4282 28.3206 30.5985Z" fill="#73AF00"/>
<path d="M26.9174 29.9447C26.8787 29.7548 26.9288 29.4619 27.0689 29.1612C27.2091 28.8603 27.4011 28.6336 27.5713 28.5411C27.61 28.731 27.5599 29.0239 27.4198 29.3246C27.2797 29.6252 27.0877 29.852 26.9174 29.9447Z" fill="#73AF00"/>
<path d="M29.3138 29.9892C29.1317 30.0554 28.8346 30.0487 28.5166 29.9544C28.1985 29.86 27.946 29.7032 27.8295 29.5484C28.0116 29.4822 28.3087 29.4889 28.6267 29.5832C28.9448 29.6777 29.1973 29.8343 29.3138 29.9892Z" fill="#73AF00"/>
<path d="M27.8291 29.5483C27.763 29.3662 27.7695 29.0691 27.8638 28.751C27.9584 28.4329 28.115 28.1804 28.2698 28.0639C28.336 28.246 28.3294 28.5431 28.235 28.8612C28.1407 29.1793 27.9839 29.4319 27.8291 29.5483Z" fill="#73AF00"/>
<path d="M30.2316 29.1583C30.0643 29.2561 29.7709 29.3031 29.441 29.2673C29.111 29.2316 28.8345 29.1227 28.6921 28.9913C28.8594 28.8936 29.1528 28.8466 29.4828 28.8823C29.8127 28.9181 30.0892 29.027 30.2316 29.1583Z" fill="#73AF00"/>
<path d="M28.6924 28.9912C28.5947 28.824 28.5477 28.5306 28.5835 28.2006C28.6192 27.8706 28.7281 27.5942 28.8594 27.4518C28.9572 27.6191 29.0042 27.9124 28.9684 28.2424C28.9327 28.5724 28.8238 28.849 28.6924 28.9912Z" fill="#73AF00"/>
<path d="M30.9909 28.0109C30.8437 28.1367 30.5632 28.2349 30.2321 28.258C29.9011 28.2812 29.6097 28.2231 29.4463 28.1191C29.5936 27.9932 29.874 27.895 30.2051 27.8719C30.5361 27.8487 30.8275 27.9068 30.9909 28.0109Z" fill="#73AF00"/>
<path d="M29.4458 28.1191C29.3199 27.9718 29.2218 27.6913 29.1987 27.3603C29.1755 27.0292 29.2336 26.7377 29.3376 26.5744C29.4635 26.7217 29.5616 27.0022 29.5848 27.3332C29.608 27.6644 29.5499 27.9557 29.4458 28.1191Z" fill="#73AF00"/>
<path d="M31.4353 26.7471C31.3177 26.9011 31.0643 27.0561 30.7454 27.1484C30.4267 27.2407 30.1296 27.2451 29.9479 27.1777C30.0655 27.0237 30.3189 26.8688 30.6377 26.7765C30.9566 26.6842 31.2536 26.6796 31.4353 26.7471Z" fill="#73AF00"/>
<path d="M29.948 27.1778C29.794 27.0602 29.639 26.8068 29.5467 26.4879C29.4543 26.1691 29.4499 25.8721 29.5173 25.6904C29.6713 25.8079 29.8263 26.0613 29.9186 26.3802C30.0109 26.6991 30.0153 26.996 29.948 27.1778Z" fill="#73AF00"/>
<path d="M31.6234 25.2713C31.5494 25.4504 31.3443 25.6653 31.0599 25.8365C30.7756 26.0077 30.4897 26.0885 30.2968 26.07C30.3708 25.8909 30.5759 25.6761 30.8602 25.5048C31.1445 25.3336 31.4305 25.253 31.6234 25.2713Z" fill="#73AF00"/>
<path d="M30.2967 26.07C30.1176 25.996 29.9027 25.7909 29.7314 25.5066C29.5602 25.2222 29.4795 24.9363 29.4979 24.7434C29.677 24.8174 29.8919 25.0225 30.0632 25.3069C30.2345 25.5913 30.3151 25.8772 30.2967 26.07Z" fill="#73AF00"/>
<path d="M31.4449 23.8781C31.4101 24.0687 31.2546 24.3218 31.0125 24.5489C30.7704 24.7759 30.5076 24.9147 30.3153 24.9372C30.3501 24.7466 30.5056 24.4935 30.7477 24.2664C30.9898 24.0394 31.2524 23.9005 31.4449 23.8781Z" fill="#73AF00"/>
<path d="M30.3153 24.9373C30.1247 24.9026 29.8715 24.747 29.6445 24.5049C29.4174 24.2628 29.2787 24 29.2561 23.8077C29.4467 23.8425 29.6999 23.9981 29.9269 24.2402C30.154 24.4822 30.2929 24.7448 30.3153 24.9373Z" fill="#73AF00"/>
<path d="M30.745 22.3705C30.7849 22.5601 30.7367 22.8532 30.5985 23.155C30.4602 23.4568 30.2696 23.6846 30.0999 23.7782C30.0601 23.5887 30.1082 23.2955 30.2465 22.9938C30.3848 22.6919 30.5754 22.464 30.745 22.3705Z" fill="#73AF00"/>
<path d="M30.0999 23.7783C29.9103 23.8181 29.6171 23.77 29.3154 23.6317C29.0136 23.4934 28.7858 23.3028 28.6921 23.1331C28.8817 23.0933 29.1749 23.1414 29.4766 23.2797C29.7784 23.418 30.0063 23.6086 30.0999 23.7783Z" fill="#73AF00"/>
<path d="M29.9083 21.254C29.9977 21.4259 30.0301 21.7213 29.9781 22.049C29.926 22.3769 29.8037 22.6477 29.6655 22.7833C29.5761 22.6115 29.5437 22.316 29.5957 21.9883C29.6478 21.6606 29.7701 21.3898 29.9083 21.254Z" fill="#73AF00"/>
<path d="M29.665 22.7834C29.4932 22.8728 29.1978 22.9052 28.87 22.8532C28.5422 22.8011 28.2714 22.6788 28.1357 22.5406C28.3076 22.4512 28.603 22.4188 28.9308 22.4708C29.2586 22.5229 29.5294 22.6452 29.665 22.7834Z" fill="#73AF00"/>
<path d="M29.0872 20.477C29.2008 20.6339 29.2764 20.9211 29.2732 21.253C29.27 21.585 29.1888 21.8707 29.0721 22.0253C28.9584 21.8684 28.8829 21.5812 28.8861 21.2492C28.8893 20.9174 28.9704 20.6315 29.0872 20.477Z" fill="#73AF00"/>
<path d="M29.0721 22.0253C28.9152 22.139 28.628 22.2146 28.2961 22.2113C27.9641 22.2081 27.6784 22.127 27.5238 22.0103C27.6807 21.8966 27.9679 21.821 28.2999 21.8242C28.6318 21.8275 28.9175 21.9087 29.0721 22.0253Z" fill="#73AF00"/>
<path d="M28.6739 21.6183C28.4808 21.6339 28.1959 21.5492 27.9141 21.374C27.6322 21.1988 27.4301 20.981 27.3586 20.8009C27.5517 20.7853 27.8366 20.8699 28.1184 21.0452C28.4002 21.2203 28.6023 21.4381 28.6739 21.6183Z" fill="#73AF00"/>
<path d="M22.7491 29.184L21.8855 30.0477L21.4596 29.1958L22.7373 27.9181L23.1632 28.3439L23.0402 28.713C22.981 28.8905 22.8814 29.0518 22.7491 29.184Z" fill="#966446"/>
<path d="M27.422 22.8074L22.7372 27.4922C22.6197 27.6098 22.6197 27.8005 22.7372 27.9181L22.9501 28.131L23.802 27.2791L27.2091 23.446L27.635 23.0201L27.422 22.8074Z" fill="#B9B9B9"/>
<path d="M23.8902 26.7652C23.8337 26.8217 23.8019 26.8983 23.8019 26.9781V27.2793L27.209 23.4462L23.8902 26.7652Z" fill="#966446"/>
<path d="M27.6349 23.0203L27.422 22.8074L27.209 23.0203L27.422 23.2334L27.6349 23.4464L29.9773 20.6781L27.6349 23.0203Z" fill="#A0A0A0"/>
<path d="M28.4269 29.184L29.2905 30.0477L29.7164 29.1958L28.4387 27.9181L28.0128 28.3439L28.1359 28.713C28.195 28.8905 28.2947 29.0518 28.4269 29.184Z" fill="#966446"/>
<path d="M23.7539 22.8074L28.4386 27.4922C28.5562 27.6098 28.5562 27.8005 28.4386 27.9181L28.2258 28.131L27.3739 27.2791L23.9668 23.446L23.5409 23.0201L23.7539 22.8074Z" fill="#B9B9B9"/>
<path d="M27.2859 26.7652C27.3423 26.8217 27.3742 26.8983 27.3742 26.9781V27.2793L23.967 23.4462L27.2859 26.7652Z" fill="#966446"/>
<path d="M23.541 23.0203L23.7539 22.8074L23.9668 23.0203L23.7539 23.2334L23.541 23.4464L21.1985 20.6781L23.541 23.0203Z" fill="#A0A0A0"/>
<path d="M23.84 29.0067L24.0516 29.1997C24.8237 28.3532 26.1747 26.8719 28.3165 24.9488C28.3166 24.9489 26.5422 26.0442 23.84 29.0067Z" fill="#B9B9B9"/>
<path d="M23.2411 29.8756C23.1652 29.8062 23.1598 29.6885 23.229 29.6125L23.6825 29.1152C23.7519 29.0393 23.8696 29.0339 23.9456 29.1031C24.0216 29.1725 24.027 29.2902 23.9577 29.3662L23.5042 29.8635C23.4349 29.9395 23.3171 29.945 23.2411 29.8756Z" fill="#FFE15A"/>
<path d="M23.6679 28.8502L23.545 28.905C23.4357 28.9594 23.1482 29.122 23.0987 29.3537C23.0751 29.4635 23.1084 29.5704 23.1936 29.6716C23.2017 29.6507 23.2128 29.6304 23.2289 29.6129L23.286 29.5503C23.2474 29.4942 23.2269 29.4392 23.2386 29.3839C23.2696 29.239 23.463 29.1096 23.5845 29.0454L24.1278 29.541L24.263 29.3929L23.6679 28.8502Z" fill="#FFC855"/>
<path d="M27.334 29.2411L27.1224 29.4341C26.3503 28.5876 24.9992 27.1062 22.8574 25.1832C22.8573 25.1833 24.6317 26.2784 27.334 29.2411Z" fill="#B9B9B9"/>
<path d="M27.9326 30.1101C28.0085 30.0407 28.0139 29.923 27.9447 29.847L27.4912 29.3497C27.4218 29.2737 27.304 29.2684 27.2281 29.3376C27.1521 29.4069 27.1467 29.5247 27.216 29.6007L27.6695 30.098C27.7388 30.174 27.8566 30.1794 27.9326 30.1101Z" fill="#FFE15A"/>
<path d="M27.5054 29.0844L27.6282 29.1392C27.7375 29.1936 28.025 29.3562 28.0745 29.5879C28.0982 29.6977 28.0649 29.8046 27.9796 29.9058C27.9715 29.8849 27.9605 29.8647 27.9444 29.8471L27.8872 29.7845C27.9258 29.7284 27.9463 29.6733 27.9347 29.6181C27.9036 29.4732 27.7103 29.3438 27.5888 29.2796L27.0454 29.7752L26.9103 29.6271L27.5054 29.0844Z" fill="#FFC855"/>
<path d="M25.6804 21.4042C25.697 21.363 25.7067 21.3183 25.7067 21.2712C25.7067 21.0746 25.5473 20.9152 25.3507 20.9152C25.1541 20.9152 24.9948 21.0746 24.9948 21.2712C24.9948 21.3883 25.0521 21.4913 25.1395 21.5562C25.0108 22.5899 26.03 22.6689 26.4184 22.8135C27.0076 23.0326 27.7468 23.4763 27.7003 24.7162C27.6552 25.9215 26.893 27.0845 26.893 27.0845L27.5257 26.2243C27.2944 27.2028 26.7541 28.4493 25.4694 29.9316C25.4694 29.9316 26.3478 29.0724 27.0808 27.9642C26.5414 29.2331 25.9439 30.4061 25.9439 30.4061C25.9439 30.4061 27.0018 29.0319 27.857 26.6543C28.8937 23.7717 26.7128 22.0398 25.6804 21.4042Z" fill="#69B469"/>
<path d="M24.7586 25.6604H23.8094V26.135H24.7586V25.6604Z" fill="#F4E08F"/>
<path d="M23.8085 26.6097C24.0706 26.6097 24.2831 26.3972 24.2831 26.1351C24.2831 25.873 24.0706 25.6605 23.8085 25.6605C23.5464 25.6605 23.3339 25.873 23.3339 26.1351C23.3339 26.3972 23.5464 26.6097 23.8085 26.6097Z" fill="#ECD077"/>
<path d="M23.809 23.5257C24.0711 23.5257 24.2836 23.3132 24.2836 23.0511C24.2836 22.789 24.0711 22.5765 23.809 22.5765C23.5468 22.5765 23.3344 22.789 23.3344 23.0511C23.3344 23.3132 23.5468 23.5257 23.809 23.5257Z" fill="#ECD077"/>
<path d="M26.6557 23.5253C26.9178 23.5253 27.1303 23.3128 27.1303 23.0507C27.1303 22.7886 26.9178 22.5761 26.6557 22.5761H23.8085C24.0706 22.5761 24.2831 22.7886 24.2831 23.0507C24.2831 23.3128 24.0706 23.5253 23.8085 23.5253C23.5464 23.5253 23.3339 23.3128 23.3339 23.0507C23.3339 23.8473 24.0005 24.8103 24.2154 25.6607C24.2154 25.6607 24.283 25.8732 24.283 26.1353C24.283 26.3974 24.0705 26.6099 23.8084 26.6099H26.6556C26.9177 26.6099 27.1302 26.3974 27.1302 26.1353C27.1302 25.3388 26.4636 24.3757 26.2487 23.5253H26.6557Z" fill="#FCF0A8"/>
<path d="M24.2839 23.0509C24.2839 23.313 24.0714 23.5255 23.8093 23.5255H26.6566C26.9187 23.5255 27.1312 23.313 27.1312 23.0509H24.2839Z" fill="#F4E08F"/>
<path d="M24.2834 26.1352C24.2834 26.3973 24.0709 26.6098 23.8088 26.6098H26.6561C26.9182 26.6098 27.1307 26.3973 27.1307 26.1352H24.2834Z" fill="#F4E08F"/>
</g>
<defs>
<clipPath id="clip0_108_48848">
<rect width="50" height="50" fill="white" transform="translate(0.46875 0.438965)"/>
</clipPath>
</defs>
</svg>
