<svg width="51" height="51" viewBox="0 0 51 51" fill="none" xmlns="http://www.w3.org/2000/svg">
<g clip-path="url(#clip0_108_48833)">
<path d="M50.6044 25.7322H0.604492V10.2149C0.604492 9.73887 0.990527 9.35284 1.4666 9.35284H49.7424C50.2185 9.35284 50.6045 9.73887 50.6045 10.2149L50.6044 25.7322Z" fill="#FFE15A"/>
<path d="M0.604492 25.7322H50.6044V41.2495C50.6044 41.7255 50.2184 42.1116 49.7423 42.1116H1.4666C0.990527 42.1116 0.604492 41.7255 0.604492 41.2495V25.7322Z" fill="#73AF00"/>
<path d="M16.9838 9.35293V42.1115H1.4666C0.990527 42.1115 0.604492 41.7254 0.604492 41.2494V10.2149C0.604492 9.73887 0.990527 9.35284 1.4666 9.35284H16.9838V9.35293Z" fill="#FF4B55"/>
<path d="M8.6313 21.4313L7.68101 24.2809L4.67721 24.3042C4.51256 24.3055 4.4442 24.5156 4.57682 24.6135L6.99322 26.3978L6.08717 29.2617C6.03746 29.4187 6.21627 29.5485 6.35025 29.4529L8.794 27.7062L11.2377 29.453C11.3717 29.5488 11.5504 29.4188 11.5008 29.2619L10.5948 26.398L13.0112 24.6137C13.1436 24.5158 13.0754 24.3057 12.9108 24.3044L9.90698 24.2811L8.95669 21.4315C8.90435 21.2752 8.68345 21.2752 8.6313 21.4313Z" fill="#464655"/>
</g>
<defs>
<clipPath id="clip0_108_48833">
<rect width="50" height="50" fill="white" transform="translate(0.603516 0.732178)"/>
</clipPath>
</defs>
</svg>
