<svg width="51" height="51" viewBox="0 0 51 51" fill="none" xmlns="http://www.w3.org/2000/svg">
<g clip-path="url(#clip0_108_48812)">
<path d="M50.3233 13.4479H0.323364V10.2151C0.323364 9.73898 0.709399 9.35295 1.18547 9.35295H49.4613C49.9373 9.35295 50.3234 9.73898 50.3234 10.2151L50.3233 13.4479Z" fill="#F5F5F5"/>
<path d="M50.3233 13.4482H0.323364V17.543H50.3233V13.4482Z" fill="#FF4B55"/>
<path d="M50.3233 17.5429H0.323364V21.6377H50.3233V17.5429Z" fill="#41479B"/>
<path d="M50.3233 21.6376H0.323364V25.7324H50.3233V21.6376Z" fill="#F5F5F5"/>
<path d="M50.3233 29.8271H0.323364V24.8702H1.4009V25.7323H50.3233V29.8271Z" fill="#FF4B55"/>
<path d="M50.3233 33.9218H0.323364V38.0166H50.3233V33.9218Z" fill="#F5F5F5"/>
<path d="M49.4612 42.1116H1.18547C0.709399 42.1116 0.323364 41.7255 0.323364 41.2495V38.0168H50.3233V41.2495C50.3233 41.7256 49.9372 42.1116 49.4612 42.1116Z" fill="#FF4B55"/>
<path d="M50.3225 29.8271H0.322632V33.9219H50.3225V29.8271Z" fill="#41479B"/>
<path d="M24.4605 25.7324H1.18474C0.708666 25.7324 0.322632 25.3464 0.322632 24.8703V10.2151C0.322632 9.73906 0.708666 9.35303 1.18474 9.35303H24.4606C24.9366 9.35303 25.3227 9.73906 25.3227 10.2151V24.8703C25.3226 25.3464 24.9365 25.7324 24.4605 25.7324Z" fill="#41479B"/>
<path d="M24.4612 9.35304H22.9638L14.9784 14.5849V9.35304H10.6681V14.5849L2.68273 9.35304H1.18547C0.709399 9.35304 0.323364 9.73898 0.323364 10.2151V10.8988L7.17443 15.3874H0.323364V19.6977H7.17443L0.323364 24.1864V24.8702C0.323364 25.3463 0.709399 25.7323 1.18547 25.7323H2.68293L10.6683 20.5005V25.7323H14.9786V20.5005L22.9638 25.7323H24.4613C24.9374 25.7323 25.3234 25.3463 25.3234 24.8702V24.1864L18.4724 19.6978H25.3233V15.3875H18.4723L25.3233 10.8989V10.2152C25.3233 9.73898 24.9373 9.35304 24.4612 9.35304Z" fill="#F5F5F5"/>
<path d="M25.3226 16.2495H14.1157V9.35298H11.5295V16.2495H0.322632V18.8357H11.5295V25.7322H14.1157V18.8357H25.3226V16.2495Z" fill="#FF4B55"/>
<path d="M9.80533 15.3874L0.733471 9.49868C0.492065 9.65141 0.322632 9.90815 0.322632 10.215V10.2597L8.22193 15.3874H9.80533Z" fill="#FF4B55"/>
<path d="M16.5612 15.3874L25.1914 9.78531C25.0414 9.5315 24.7768 9.35298 24.4605 9.35298H24.2741L14.9778 15.3874H16.5612Z" fill="#FF4B55"/>
<path d="M9.06041 19.6978L0.446655 25.2892C0.59519 25.5491 0.86394 25.7322 1.18484 25.7322H1.34743L10.6439 19.6978H9.06041Z" fill="#FF4B55"/>
<path d="M25.3089 24.9378L17.2361 19.6978H15.6527L24.8201 25.6485C25.0947 25.521 25.2831 25.2539 25.3089 24.9378Z" fill="#FF4B55"/>
</g>
<defs>
<clipPath id="clip0_108_48812">
<rect width="50" height="50" fill="white" transform="translate(0.324219 0.732178)"/>
</clipPath>
</defs>
</svg>
