<svg width="51" height="51" viewBox="0 0 51 51" fill="none" xmlns="http://www.w3.org/2000/svg">
<g clip-path="url(#clip0_108_48801)">
<path d="M50.7521 20.2726H0.752197V10.2151C0.752197 9.73899 1.13823 9.35295 1.61431 9.35295H49.8901C50.3662 9.35295 50.7522 9.73899 50.7522 10.2151L50.7521 20.2726Z" fill="#4173CD"/>
<path d="M49.8902 42.1117H1.61455C1.13848 42.1117 0.752441 41.7256 0.752441 41.2496V31.1922H50.7523V41.2496C50.7523 41.7257 50.3663 42.1117 49.8902 42.1117Z" fill="#4173CD"/>
<path d="M50.7521 20.2724H0.752197V31.1913H50.7521V20.2724Z" fill="#F5F5F5"/>
<path d="M25.8767 24.324L26.1852 25.2491L27.1603 25.2566C27.2866 25.2576 27.3388 25.4187 27.2374 25.4937L26.4529 26.073L26.747 27.0028C26.785 27.1232 26.6481 27.2227 26.5453 27.1494L25.752 26.5823L24.9586 27.1493C24.8559 27.2226 24.7189 27.1231 24.7569 27.0027L25.051 26.0729L24.2666 25.4936C24.1651 25.4186 24.2173 25.2575 24.3436 25.2565L25.3187 25.249L25.6272 24.3239C25.6673 24.2043 25.8367 24.2043 25.8767 24.324Z" fill="#4173CD"/>
<path d="M17.0707 26.8067L17.3792 27.7318L18.3542 27.7393C18.4805 27.7403 18.5328 27.9014 18.4313 27.9764L17.6468 28.5557L17.941 29.4855C17.9791 29.6059 17.842 29.7054 17.7392 29.6321L16.9459 29.0651L16.1525 29.6321C16.0498 29.7054 15.9127 29.6059 15.9507 29.4855L16.2449 28.5557L15.4604 27.9764C15.3589 27.9014 15.4112 27.7403 15.5375 27.7393L16.5126 27.7318L16.821 26.8067C16.8613 26.687 17.0307 26.687 17.0707 26.8067Z" fill="#4173CD"/>
<path d="M17.071 21.8411L17.3795 22.7662L18.3546 22.7737C18.4809 22.7747 18.5331 22.9358 18.4317 23.0108L17.6472 23.5901L17.9413 24.5199C17.9794 24.6403 17.8424 24.7398 17.7396 24.6665L16.9462 24.0995L16.1529 24.6665C16.0501 24.7398 15.9131 24.6403 15.9511 24.5199L16.2452 23.5901L15.4608 23.0108C15.3593 22.9358 15.4116 22.7747 15.5378 22.7737L16.5129 22.7662L16.8214 21.8411C16.8616 21.7215 17.0311 21.7215 17.071 21.8411Z" fill="#4173CD"/>
<path d="M34.6824 26.8067L34.9909 27.7318L35.966 27.7393C36.0923 27.7403 36.1445 27.9014 36.0431 27.9764L35.2586 28.5557L35.5527 29.4855C35.5908 29.6059 35.4538 29.7054 35.351 29.6321L34.5576 29.0651L33.7643 29.6321C33.6615 29.7054 33.5245 29.6059 33.5625 29.4855L33.8567 28.5557L33.0722 27.9764C32.9705 27.9014 33.023 27.7403 33.1492 27.7393L34.1243 27.7318L34.4328 26.8067C34.4731 26.687 34.6425 26.687 34.6824 26.8067Z" fill="#4173CD"/>
<path d="M34.6824 21.8412L34.9909 22.7663L35.966 22.7738C36.0923 22.7748 36.1445 22.9359 36.0431 23.0109L35.2586 23.5902L35.5527 24.52C35.5908 24.6404 35.4538 24.7399 35.351 24.6666L34.5576 24.0996L33.7643 24.6666C33.6615 24.7399 33.5245 24.6404 33.5625 24.52L33.8567 23.5902L33.0722 23.0109C32.9705 22.9359 33.023 22.7748 33.1492 22.7738L34.1243 22.7663L34.4328 21.8412C34.4731 21.7216 34.6425 21.7216 34.6824 21.8412Z" fill="#4173CD"/>
</g>
<defs>
<clipPath id="clip0_108_48801">
<rect width="50" height="50" fill="white" transform="translate(0.751953 0.732178)"/>
</clipPath>
</defs>
</svg>
