<svg width="51" height="51" viewBox="0 0 51 51" fill="none" xmlns="http://www.w3.org/2000/svg">
<g clip-path="url(#clip0_108_48793)">
<path d="M49.3169 42.1116H1.04118C0.565112 42.1116 0.179077 41.7256 0.179077 41.2495V10.2151C0.179077 9.73899 0.565112 9.35295 1.04118 9.35295H49.317C49.793 9.35295 50.1791 9.73899 50.1791 10.2151V41.2495C50.179 41.7257 49.7929 42.1116 49.3169 42.1116Z" fill="#FF4B55"/>
<path d="M22.0999 26.9943C21.0132 27.0055 19.7929 26.6575 18.7237 25.4789C18.65 25.3976 18.6603 25.2696 18.7441 25.1986L18.7444 25.1983C18.8256 25.1294 18.9458 25.1401 19.0175 25.2189C20.6474 27.0086 22.6675 26.6953 23.8745 26.2628C23.4286 26.2827 22.8683 26.2492 22.508 26.0123C21.0026 25.0228 21.6844 23.9701 20.6846 22.6975C19.6912 21.4331 18.7972 21.464 17.3896 21.6774C15.9961 21.8885 15.5521 20.8664 15.4139 20.2991C15.3892 20.1974 15.2474 20.1911 15.2111 20.289C13.4742 24.9818 18.6968 30.7884 24.0588 26.6133C23.5297 26.8081 22.8483 26.9867 22.0999 26.9943ZM18.1872 25.4018C18.1567 25.4856 18.0371 25.4823 18.0112 25.3969L17.8112 24.7378L17.1228 24.7137C17.0336 24.7106 16.9999 24.5958 17.073 24.5449L17.638 24.151L17.4483 23.4888C17.4237 23.4032 17.5224 23.3355 17.5935 23.3892L18.1427 23.8048L18.7138 23.4197C18.7877 23.3698 18.8827 23.4427 18.8534 23.527L18.6278 24.1778L19.1706 24.6019C19.2408 24.6569 19.2007 24.7696 19.1116 24.7678L18.4229 24.7543L18.1872 25.4018Z" fill="#F5F5F5"/>
<path d="M25.9467 23.8764C26.8096 23.2158 27.9948 22.7625 29.5573 23.0642C29.665 23.085 29.7336 23.1936 29.7091 23.3006L29.709 23.301C29.6853 23.4049 29.5828 23.4684 29.4781 23.4483C27.1006 22.9935 25.6718 24.4558 24.9655 25.5256C25.3104 25.2423 25.7789 24.9332 26.2092 24.9067C28.0073 24.7957 28.0929 26.0471 29.6563 26.4658C31.2095 26.8817 31.9063 26.3209 32.9049 25.306C33.8934 24.3012 34.8618 24.853 35.3124 25.2241C35.3931 25.2906 35.5104 25.2107 35.4807 25.1105C34.0563 20.3136 26.3946 18.7993 24.6078 25.3559C24.9141 24.883 25.3525 24.3314 25.9467 23.8764ZM30.0329 22.8043C30.007 22.7189 30.1047 22.6498 30.1766 22.7025L30.7319 23.1099L31.2972 22.7164C31.3704 22.6654 31.4663 22.737 31.4384 22.8216L31.2225 23.4757L31.7714 23.8917C31.8425 23.9457 31.8041 24.059 31.715 24.0585L31.0262 24.0553L30.8003 24.706C30.771 24.7903 30.6513 24.7887 30.6242 24.7039L30.4144 24.0478L29.7257 24.0339C29.6366 24.0321 29.601 23.9179 29.6735 23.8659L30.2327 23.4636L30.0329 22.8043Z" fill="#F5F5F5"/>
<path d="M23.0688 24.3287C22.645 23.3279 22.5024 22.067 23.1855 20.6297C23.2326 20.5306 23.355 20.4915 23.4524 20.542L23.4528 20.5421C23.5474 20.5911 23.5832 20.7063 23.5378 20.8026C22.5027 22.9909 23.5613 24.7399 24.4204 25.6914C24.2323 25.2865 24.0503 24.7557 24.1321 24.3323C24.4744 22.5636 25.7074 22.7936 26.5038 21.3846C27.2951 19.9847 26.9263 19.1699 26.1934 17.9493C25.4678 16.7409 26.2443 15.9414 26.7164 15.5978C26.8009 15.5363 26.7529 15.4028 26.6485 15.4065C21.6478 15.5859 18.2652 22.6252 24.1665 25.9952C23.7851 25.5801 23.3607 25.0178 23.0688 24.3287ZM23.0527 20.1043C22.9636 20.108 22.9212 19.9961 22.9902 19.9397L23.5236 19.504L23.284 18.8582C23.2529 18.7746 23.3463 18.6996 23.4212 18.7478L24.0005 19.1205L24.5405 18.693C24.6104 18.6377 24.7105 18.7032 24.6878 18.7895L24.5124 19.4555L25.0857 19.8371C25.1599 19.8865 25.1286 20.0019 25.0396 20.007L24.3519 20.046L24.1663 20.7092C24.1423 20.7951 24.0227 20.8009 23.9904 20.7178L23.7408 20.0759L23.0527 20.1043Z" fill="#F5F5F5"/>
<path d="M26.9654 26.5995C27.8636 27.2112 28.6663 28.194 28.8704 29.7722C28.8846 29.8811 28.8028 29.9802 28.6936 29.9907H28.693C28.5869 30.0008 28.4945 29.9233 28.4806 29.8177C28.1656 27.4176 26.3285 26.5206 25.0909 26.1859C25.4682 26.4244 25.9088 26.772 26.0693 27.1723C26.7394 28.8445 25.5782 29.319 25.6717 30.9347C25.7646 32.54 26.516 33.0253 27.7932 33.6546C29.0575 34.2776 28.8379 35.3701 28.627 35.9147C28.5893 36.0122 28.7019 36.0984 28.7876 36.0387C32.8942 33.1797 31.9257 25.4302 25.1397 25.7931C25.6857 25.9354 26.3469 26.1783 26.9654 26.5995ZM29.2668 30.142C29.3398 30.0907 29.436 30.1618 29.4085 30.2465L29.1961 30.9017L29.7473 31.3149C29.8186 31.3683 29.7809 31.4819 29.6917 31.482L29.0029 31.4824L28.7804 32.1342C28.7516 32.2186 28.6319 32.2177 28.6043 32.133L28.391 31.478L27.7024 31.4677C27.6131 31.4665 27.5771 31.3523 27.6491 31.2999L28.2062 30.8946L28.003 30.2364C27.9768 30.1511 28.074 30.0815 28.1462 30.1339L28.7037 30.5384L29.2668 30.142Z" fill="#F5F5F5"/>
<path d="M24.7186 28.547C24.4092 29.5888 23.7172 30.6525 22.2759 31.3272C22.1765 31.3738 22.0573 31.3261 22.0141 31.2252L22.0139 31.2248C21.972 31.1269 22.0177 31.0153 22.114 30.9699C24.3044 29.9395 24.6001 27.9166 24.5422 26.6359C24.4298 27.0679 24.2328 27.5933 23.9003 27.868C22.5114 29.0152 21.706 28.0535 20.1954 28.6342C18.6944 29.2112 18.4607 30.0747 18.2499 31.4828C18.0413 32.8767 16.9336 32.9998 16.3508 32.9648C16.2465 32.9585 16.1985 33.092 16.2814 33.1556C20.2545 36.1976 27.3417 32.9169 24.9312 26.5631C24.9619 27.1258 24.9317 27.8295 24.7186 28.547ZM22.0442 31.8171C22.1153 31.871 22.0769 31.9842 21.9878 31.9839L21.2991 31.9809L21.0733 32.6317C21.0441 32.716 20.9244 32.7144 20.8972 32.6295L20.6872 31.9735L19.9985 31.9598C19.9093 31.958 19.8737 31.8438 19.9462 31.7917L20.5051 31.3893L20.3053 30.7301C20.2795 30.6448 20.3771 30.5756 20.449 30.6284L21.0045 31.0356L21.5697 30.6418C21.6428 30.5909 21.7387 30.6624 21.7109 30.7471L21.4953 31.4012L22.0442 31.8171Z" fill="#F5F5F5"/>
</g>
<defs>
<clipPath id="clip0_108_48793">
<rect width="50" height="50" fill="white" transform="translate(0.179688 0.732178)"/>
</clipPath>
</defs>
</svg>
