<svg width="51" height="51" viewBox="0 0 51 51" fill="none" xmlns="http://www.w3.org/2000/svg">
<g clip-path="url(#clip0_108_48760)">
<path d="M50.4693 20.4073H0.46936V10.3498C0.46936 9.87375 0.855395 9.48772 1.33147 9.48772H49.6073C50.0833 9.48772 50.4694 9.87375 50.4694 10.3498L50.4693 20.4073Z" fill="#FAB446"/>
<path d="M49.6072 42.2464H1.33147C0.855395 42.2464 0.46936 41.8603 0.46936 41.3842V31.3269H50.4693V41.3842C50.4693 41.8604 50.0832 42.2464 49.6072 42.2464Z" fill="#73AF00"/>
<path d="M50.4693 20.4071H0.46936V31.3261H50.4693V20.4071Z" fill="#F5F5F5"/>
<path d="M25.4692 30.5007C22.9141 30.5007 20.8356 28.4221 20.8356 25.8671C20.8356 23.312 22.9141 21.2335 25.4692 21.2335C28.0242 21.2335 30.1027 23.312 30.1027 25.8671C30.1027 28.4221 28.0242 30.5007 25.4692 30.5007ZM25.4692 22.0955C23.3893 22.0955 21.6976 23.7872 21.6976 25.8671C21.6976 27.947 23.3893 29.6387 25.4692 29.6387C27.549 29.6387 29.2407 27.947 29.2407 25.8671C29.2407 23.7872 27.549 22.0955 25.4692 22.0955Z" fill="#41479B"/>
<path d="M25.4693 26.3925C25.7594 26.3925 25.9946 26.1573 25.9946 25.8672C25.9946 25.5771 25.7594 25.3419 25.4693 25.3419C25.1792 25.3419 24.944 25.5771 24.944 25.8672C24.944 26.1573 25.1792 26.3925 25.4693 26.3925Z" fill="#41479B"/>
<path d="M25.4696 25.946L24.1347 26.0808L21.2671 25.946V25.7884L24.1347 25.6536L25.4696 25.7884V25.946Z" fill="#41479B"/>
<path d="M25.4696 25.946L26.8046 26.0808L29.6721 25.946V25.7884L26.8046 25.6536L25.4696 25.7884V25.946Z" fill="#41479B"/>
<path d="M25.3905 25.8672L25.2557 24.5322L25.3905 21.6646H25.5481L25.6829 24.5322L25.5481 25.8672H25.3905Z" fill="#41479B"/>
<path d="M25.3905 25.8672L25.2557 27.2021L25.3905 30.0697H25.5481L25.6829 27.2021L25.5481 25.8672H25.3905Z" fill="#41479B"/>
<path d="M25.4138 25.9228L24.3746 25.0743L22.4421 22.9513L22.5536 22.8398L24.6766 24.7723L25.5251 25.8115L25.4138 25.9228Z" fill="#41479B"/>
<path d="M25.4139 25.9228L26.2625 26.9621L28.3855 28.8945L28.4969 28.7831L26.5645 26.66L25.5253 25.8115L25.4139 25.9228Z" fill="#41479B"/>
<path d="M25.4139 25.8115L26.2625 24.7723L28.3855 22.8398L28.4969 22.9513L26.5645 25.0743L25.5253 25.9228L25.4139 25.8115Z" fill="#41479B"/>
<path d="M25.4138 25.8115L24.3746 26.66L22.4421 28.7831L22.5536 28.8945L24.6766 26.9621L25.5251 25.9228L25.4138 25.8115Z" fill="#41479B"/>
<path d="M25.4995 25.94L24.3176 26.5754L21.6169 27.5482L21.5565 27.4026L24.1543 26.1808L25.4391 25.7943L25.4995 25.94Z" fill="#41479B"/>
<path d="M25.4993 25.94L26.7842 25.5536L29.3819 24.3317L29.3216 24.1861L26.6208 25.159L25.439 25.7943L25.4993 25.94Z" fill="#41479B"/>
<path d="M25.3963 25.8974L24.7609 24.7155L23.7881 22.0147L23.9337 21.9544L25.1556 24.5521L25.542 25.837L25.3963 25.8974Z" fill="#41479B"/>
<path d="M25.3964 25.8973L25.7828 27.1822L27.0047 29.78L27.1503 29.7196L26.1774 27.0188L25.5421 25.837L25.3964 25.8973Z" fill="#41479B"/>
<path d="M25.4391 25.94L24.1543 25.5536L21.5565 24.3317L21.6169 24.1861L24.3176 25.159L25.4995 25.7943L25.4391 25.94Z" fill="#41479B"/>
<path d="M25.439 25.94L26.6208 26.5754L29.3216 27.5482L29.3819 27.4026L26.7842 26.1808L25.4993 25.7943L25.439 25.94Z" fill="#41479B"/>
<path d="M25.3964 25.837L25.7828 24.5521L27.0047 21.9544L27.1503 22.0147L26.1774 24.7155L25.5421 25.8974L25.3964 25.837Z" fill="#41479B"/>
<path d="M25.3963 25.837L24.7609 27.0188L23.7881 29.7196L23.9337 29.78L25.1556 27.1822L25.542 25.8973L25.3963 25.837Z" fill="#41479B"/>
<path d="M25.4695 26.5757C25.8608 26.5757 26.1781 26.2584 26.1781 25.8671C26.1781 25.4757 25.8608 25.1585 25.4695 25.1585C25.0781 25.1585 24.7609 25.4757 24.7609 25.8671C24.7609 26.2584 25.0781 26.5757 25.4695 26.5757Z" fill="#F5F5F5"/>
<path d="M25.4695 26.292C25.7041 26.292 25.8944 26.1017 25.8944 25.8671C25.8944 25.6324 25.7041 25.4422 25.4695 25.4422C25.2348 25.4422 25.0446 25.6324 25.0446 25.8671C25.0446 26.1017 25.2348 26.292 25.4695 26.292Z" fill="#41479B"/>
</g>
<defs>
<clipPath id="clip0_108_48760">
<rect width="50" height="50" fill="white" transform="translate(0.46875 0.866943)"/>
</clipPath>
</defs>
</svg>
