<svg width="51" height="51" viewBox="0 0 51 51" fill="none" xmlns="http://www.w3.org/2000/svg">
<g clip-path="url(#clip0_108_48711)">
<path d="M50.192 20.4072H0.192139V10.3498C0.192139 9.87375 0.578173 9.48772 1.05425 9.48772H49.33C49.8061 9.48772 50.1921 9.87375 50.1921 10.3498L50.192 20.4072Z" fill="#73AF00"/>
<path d="M49.3299 42.2464H1.05425C0.578173 42.2464 0.192139 41.8603 0.192139 41.3842V31.3269H50.192V41.3842C50.192 41.8603 49.806 42.2464 49.3299 42.2464Z" fill="#FF4B55"/>
<path d="M50.1928 20.4067H0.192871V31.3257H50.1928V20.4067Z" fill="#F5F5F5"/>
<path d="M0.327783 19.8296H0.335302C0.410205 19.8296 0.470947 19.769 0.470947 19.694V19.4002C0.470947 19.3253 0.531591 19.2646 0.606591 19.2646H1.17563C1.25054 19.2646 1.31128 19.3252 1.31128 19.4002V19.694C1.31128 19.7689 1.37192 19.8296 1.44692 19.8296H2.57016C2.64506 19.8296 2.70581 19.769 2.70581 19.694V19.1141C2.70581 19.0392 2.64516 18.9784 2.57016 18.9784H2.00473C1.92983 18.9784 1.86909 19.0391 1.86909 19.1141V19.1289C1.86909 19.2038 1.92973 19.2646 2.00473 19.2646H2.29135C2.36626 19.2646 2.427 19.3252 2.427 19.4002V19.415C2.427 19.4899 2.36635 19.5506 2.29135 19.5506H1.72573C1.65083 19.5506 1.59009 19.49 1.59009 19.415V19.1141C1.59009 19.0392 1.52944 18.9784 1.45444 18.9784H0.327783C0.252881 18.9784 0.192139 19.0391 0.192139 19.1141V19.694C0.192139 19.7688 0.252783 19.8296 0.327783 19.8296ZM0.88911 19.8296H0.896825C0.971727 19.8296 1.03247 19.769 1.03247 19.694V19.6863C1.03247 19.6113 0.971825 19.5506 0.896825 19.5506H0.88911C0.814208 19.5506 0.753466 19.6113 0.753466 19.6863V19.694C0.753466 19.7688 0.814208 19.8296 0.88911 19.8296ZM0.327783 18.6924H3.6894C3.7643 18.6924 3.82504 18.6318 3.82504 18.5568V18.5419C3.82504 18.467 3.7644 18.4063 3.6894 18.4063H0.327783C0.252881 18.4063 0.192139 18.4669 0.192139 18.5419V18.5568C0.192139 18.6318 0.252783 18.6924 0.327783 18.6924ZM3.6893 19.8296H3.12387C3.04897 19.8296 2.98823 19.769 2.98823 19.694V19.1141C2.98823 19.0392 3.04887 18.9784 3.12387 18.9784H3.9684C4.0433 18.9784 4.10405 18.9178 4.10405 18.8428V18.5419C4.10405 18.467 4.16469 18.4063 4.23969 18.4063H4.24721C4.32211 18.4063 4.38285 18.4669 4.38285 18.5419V19.415C4.38285 19.4899 4.4435 19.5506 4.5185 19.5506H4.52621C4.60112 19.5506 4.66186 19.49 4.66186 19.415V18.5419C4.66186 18.467 4.7225 18.4063 4.7975 18.4063H4.80502C4.87992 18.4063 4.94067 18.4669 4.94067 18.5419V19.415C4.94067 19.4899 5.00131 19.5506 5.07631 19.5506H5.08754C5.16244 19.5506 5.22318 19.49 5.22318 19.415V18.5419C5.22318 18.467 5.28383 18.4063 5.35883 18.4063H5.36293C5.43783 18.4063 5.49857 18.4669 5.49857 18.5419V19.694C5.49857 19.7689 5.43793 19.8296 5.36293 19.8296H4.23969C4.16479 19.8296 4.10405 19.769 4.10405 19.694V19.4002C4.10405 19.3253 4.0434 19.2646 3.9684 19.2646H3.40297C3.32807 19.2646 3.26733 19.3252 3.26733 19.4002V19.415C3.26733 19.4899 3.32797 19.5506 3.40297 19.5506H3.6894C3.7643 19.5506 3.82504 19.6113 3.82504 19.6863V19.694C3.82504 19.7688 3.7642 19.8296 3.6893 19.8296Z" fill="#F5F5F5"/>
<path d="M5.91726 19.8294H5.92849C6.00339 19.8294 6.06414 19.7688 6.06414 19.6938V19.4C6.06414 19.3251 6.12478 19.2644 6.19978 19.2644H6.76169C6.83659 19.2644 6.89734 19.325 6.89734 19.4V19.6938C6.89734 19.7687 6.95798 19.8294 7.03298 19.8294H8.15622C8.23112 19.8294 8.29186 19.7688 8.29186 19.6938V19.1139C8.29186 19.039 8.23122 18.9782 8.15622 18.9782H7.59079C7.51589 18.9782 7.45515 19.0389 7.45515 19.1139V19.1287C7.45515 19.2036 7.51579 19.2644 7.59079 19.2644H7.87741C7.95232 19.2644 8.01306 19.325 8.01306 19.4V19.4147C8.01306 19.4896 7.95241 19.5504 7.87741 19.5504H7.31198C7.23708 19.5504 7.17634 19.4897 7.17634 19.4147V19.1139C7.17634 19.039 7.1157 18.9782 7.0407 18.9782H5.91726C5.84236 18.9782 5.78162 19.0389 5.78162 19.1139V19.6938C5.78171 19.7686 5.84246 19.8294 5.91726 19.8294ZM6.47517 19.8294H6.48269C6.55759 19.8294 6.61833 19.7688 6.61833 19.6938V19.686C6.61833 19.6111 6.55769 19.5504 6.48269 19.5504H6.47517C6.40027 19.5504 6.33953 19.611 6.33953 19.686V19.6938C6.33962 19.7686 6.40027 19.8294 6.47517 19.8294ZM5.91726 18.6922H9.27546C9.35036 18.6922 9.4111 18.6315 9.4111 18.5565V18.5417C9.4111 18.4668 9.35046 18.4061 9.27546 18.4061H5.91726C5.84236 18.4061 5.78162 18.4667 5.78162 18.5417V18.5565C5.78171 18.6315 5.84246 18.6922 5.91726 18.6922ZM9.27546 19.8294H8.70641C8.63151 19.8294 8.57077 19.7688 8.57077 19.6938V19.1139C8.57077 19.039 8.63142 18.9782 8.70641 18.9782H9.55094C9.62585 18.9782 9.68659 18.9176 9.68659 18.8426V18.5417C9.68659 18.4668 9.74723 18.4061 9.82223 18.4061H9.83346C9.90837 18.4061 9.96911 18.4667 9.96911 18.5417V19.4147C9.96911 19.4896 10.0298 19.5504 10.1048 19.5504H10.116C10.1909 19.5504 10.2516 19.4897 10.2516 19.4147V18.5417C10.2516 18.4668 10.3123 18.4061 10.3873 18.4061H10.3914C10.4663 18.4061 10.527 18.4667 10.527 18.5417V19.4147C10.527 19.4896 10.5877 19.5504 10.6627 19.5504H10.6739C10.7488 19.5504 10.8095 19.4897 10.8095 19.4147V18.5417C10.8095 18.4668 10.8702 18.4061 10.9452 18.4061H10.9527C11.0276 18.4061 11.0883 18.4667 11.0883 18.5417V19.6938C11.0883 19.7687 11.0277 19.8294 10.9527 19.8294H9.82243C9.74753 19.8294 9.68678 19.7688 9.68678 19.6938V19.4C9.68678 19.3251 9.62614 19.2644 9.55114 19.2644H8.98923C8.91432 19.2644 8.85358 19.325 8.85358 19.4V19.4147C8.85358 19.4896 8.91423 19.5504 8.98923 19.5504H9.27585C9.35075 19.5504 9.41149 19.611 9.41149 19.686V19.6938C9.411 19.7686 9.35036 19.8294 9.27546 19.8294Z" fill="#F5F5F5"/>
<path d="M11.503 19.8294H11.5105C11.5854 19.8294 11.6461 19.7688 11.6461 19.6938V19.4C11.6461 19.3251 11.7068 19.2644 11.7818 19.2644H12.3474C12.4223 19.2644 12.483 19.325 12.483 19.4V19.6938C12.483 19.7687 12.5437 19.8294 12.6187 19.8294H13.7454C13.8203 19.8294 13.8811 19.7688 13.8811 19.6938V19.1139C13.8811 19.039 13.8204 18.9782 13.7454 18.9782H13.18C13.1051 18.9782 13.0444 19.0389 13.0444 19.1139V19.1287C13.0444 19.2036 13.105 19.2644 13.18 19.2644H13.4666C13.5415 19.2644 13.6023 19.325 13.6023 19.4V19.4147C13.6023 19.4896 13.5416 19.5504 13.4666 19.5504H12.8976C12.8227 19.5504 12.7619 19.4897 12.7619 19.4147V19.1139C12.7619 19.039 12.7013 18.9782 12.6263 18.9782H11.5031C11.4281 18.9782 11.3674 19.0389 11.3674 19.1139V19.6938C11.3672 19.7686 11.4281 19.8294 11.503 19.8294ZM12.0608 19.8294H12.0683C12.1432 19.8294 12.2039 19.7688 12.2039 19.6938V19.686C12.2039 19.6111 12.1433 19.5504 12.0683 19.5504H12.0608C11.9859 19.5504 11.9251 19.611 11.9251 19.686V19.6938C11.9251 19.7686 11.9859 19.8294 12.0608 19.8294ZM11.503 18.6922H14.8647C14.9396 18.6922 15.0003 18.6315 15.0003 18.5565V18.5417C15.0003 18.4668 14.9397 18.4061 14.8647 18.4061H11.503C11.4281 18.4061 11.3673 18.4667 11.3673 18.5417V18.5565C11.3672 18.6315 11.4281 18.6922 11.503 18.6922ZM14.8647 19.8294H14.2956C14.2207 19.8294 14.16 19.7688 14.16 19.6938V19.1139C14.16 19.039 14.2206 18.9782 14.2956 18.9782H15.14C15.2149 18.9782 15.2756 18.9176 15.2756 18.8426V18.5417C15.2756 18.4668 15.3362 18.4061 15.4112 18.4061H15.419C15.4939 18.4061 15.5546 18.4667 15.5546 18.5417V19.4147C15.5546 19.4896 15.6153 19.5504 15.6902 19.5504H15.7015C15.7764 19.5504 15.8371 19.4897 15.8371 19.4147V18.5417C15.8371 18.4668 15.8978 18.4061 15.9728 18.4061H15.984C16.0589 18.4061 16.1196 18.4667 16.1196 18.5417V19.4147C16.1196 19.4896 16.1803 19.5504 16.2553 19.5504H16.2594C16.3343 19.5504 16.395 19.4897 16.395 19.4147V18.5417C16.395 18.4668 16.4557 18.4061 16.5307 18.4061H16.5382C16.6131 18.4061 16.6738 18.4667 16.6738 18.5417V19.6938C16.6738 19.7687 16.6132 19.8294 16.5382 19.8294H15.4112C15.3363 19.8294 15.2756 19.7688 15.2756 19.6938V19.4C15.2756 19.3251 15.215 19.2644 15.14 19.2644H14.5745C14.4996 19.2644 14.4389 19.325 14.4389 19.4V19.4147C14.4389 19.4896 14.4995 19.5504 14.5745 19.5504H14.8649C14.9398 19.5504 15.0005 19.611 15.0005 19.686V19.6938C15.0003 19.7686 14.9396 19.8294 14.8647 19.8294Z" fill="#F5F5F5"/>
<path d="M17.0883 19.8294H17.0958C17.1707 19.8294 17.2314 19.7688 17.2314 19.6938V19.4C17.2314 19.3251 17.2921 19.2644 17.3671 19.2644H17.9325C18.0074 19.2644 18.0682 19.325 18.0682 19.4V19.6938C18.0682 19.7687 18.1288 19.8294 18.2038 19.8294H19.3308C19.4057 19.8294 19.4664 19.7688 19.4664 19.6938V19.1139C19.4664 19.039 19.4058 18.9782 19.3308 18.9782H18.7617C18.6868 18.9782 18.6261 19.0389 18.6261 19.1139V19.1287C18.6261 19.2036 18.6867 19.2644 18.7617 19.2644H19.0483C19.1232 19.2644 19.184 19.325 19.184 19.4V19.4147C19.184 19.4896 19.1233 19.5504 19.0483 19.5504H18.4829C18.408 19.5504 18.3473 19.4897 18.3473 19.4147V19.1139C18.3473 19.039 18.2866 18.9782 18.2116 18.9782H17.0884C17.0135 18.9782 16.9527 19.0389 16.9527 19.1139V19.6938C16.9527 19.7686 17.0135 19.8294 17.0883 19.8294ZM17.6462 19.8294H17.6537C17.7286 19.8294 17.7894 19.7688 17.7894 19.6938V19.686C17.7894 19.6111 17.7287 19.5504 17.6537 19.5504H17.6462C17.5713 19.5504 17.5105 19.611 17.5105 19.686V19.6938C17.5106 19.7686 17.5713 19.8294 17.6462 19.8294ZM17.0883 18.6922H20.4465C20.5214 18.6922 20.5821 18.6315 20.5821 18.5565V18.5417C20.5821 18.4668 20.5215 18.4061 20.4465 18.4061H17.0883C17.0134 18.4061 16.9526 18.4667 16.9526 18.5417V18.5565C16.9527 18.6315 17.0135 18.6922 17.0883 18.6922ZM20.4465 19.8294H19.8774C19.8025 19.8294 19.7418 19.7688 19.7418 19.6938V19.1139C19.7418 19.039 19.8024 18.9782 19.8774 18.9782H20.7291C20.804 18.9782 20.8647 18.9176 20.8647 18.8426V18.5417C20.8647 18.4668 20.9254 18.4061 21.0004 18.4061H21.0079C21.0828 18.4061 21.1435 18.4667 21.1435 18.5417V19.4147C21.1435 19.4896 21.2042 19.5504 21.2792 19.5504H21.2833C21.3582 19.5504 21.4189 19.4897 21.4189 19.4147V18.5417C21.4189 18.4668 21.4796 18.4061 21.5546 18.4061H21.5658C21.6407 18.4061 21.7015 18.4667 21.7015 18.5417V19.4147C21.7015 19.4896 21.7621 19.5504 21.8371 19.5504H21.8448C21.9197 19.5504 21.9805 19.4897 21.9805 19.4147V18.5417C21.9805 18.4668 22.0411 18.4061 22.1161 18.4061H22.1236C22.1985 18.4061 22.2593 18.4667 22.2593 18.5417V19.6938C22.2593 19.7687 22.1986 19.8294 22.1236 19.8294H20.9999C20.925 19.8294 20.8643 19.7688 20.8643 19.6938V19.4C20.8643 19.3251 20.8036 19.2644 20.7286 19.2644H20.1596C20.0847 19.2644 20.0239 19.325 20.0239 19.4V19.4147C20.0239 19.4896 20.0846 19.5504 20.1596 19.5504H20.4462C20.5211 19.5504 20.5818 19.611 20.5818 19.686V19.6938C20.582 19.7686 20.5214 19.8294 20.4465 19.8294Z" fill="#F5F5F5"/>
<path d="M22.6735 19.8294H22.6812C22.7561 19.8294 22.8168 19.7688 22.8168 19.6938V19.4C22.8168 19.3251 22.8775 19.2644 22.9525 19.2644H23.5179C23.5928 19.2644 23.6536 19.325 23.6536 19.4V19.6938C23.6536 19.7687 23.7142 19.8294 23.7892 19.8294H24.9162C24.9911 19.8294 25.0518 19.7688 25.0518 19.6938V19.1139C25.0518 19.039 24.9912 18.9782 24.9162 18.9782H24.3471C24.2722 18.9782 24.2115 19.0389 24.2115 19.1139V19.1287C24.2115 19.2036 24.2721 19.2644 24.3471 19.2644H24.6372C24.7121 19.2644 24.7728 19.325 24.7728 19.4V19.4147C24.7728 19.4896 24.7122 19.5504 24.6372 19.5504H24.0717C23.9968 19.5504 23.9361 19.4897 23.9361 19.4147V19.1139C23.9361 19.039 23.8754 18.9782 23.8004 18.9782H22.6735C22.5986 18.9782 22.5378 19.0389 22.5378 19.1139V19.6938C22.5379 19.7686 22.5986 19.8294 22.6735 19.8294ZM23.235 19.8294H23.2391C23.314 19.8294 23.3748 19.7688 23.3748 19.6938V19.686C23.3748 19.6111 23.3141 19.5504 23.2391 19.5504H23.235C23.1601 19.5504 23.0994 19.611 23.0994 19.686V19.6938C23.0994 19.7686 23.1601 19.8294 23.235 19.8294ZM22.6735 18.6922H26.0353C26.1102 18.6922 26.1709 18.6315 26.1709 18.5565V18.5417C26.1709 18.4668 26.1103 18.4061 26.0353 18.4061H22.6735C22.5986 18.4061 22.5378 18.4667 22.5378 18.5417V18.5565C22.5379 18.6315 22.5986 18.6922 22.6735 18.6922ZM26.0354 19.8294H25.4664C25.3915 19.8294 25.3307 19.7688 25.3307 19.6938V19.1139C25.3307 19.039 25.3914 18.9782 25.4664 18.9782H26.3144C26.3893 18.9782 26.45 18.9176 26.45 18.8426V18.5417C26.45 18.4668 26.5107 18.4061 26.5857 18.4061H26.5932C26.6681 18.4061 26.7288 18.4667 26.7288 18.5417V19.4147C26.7288 19.4896 26.7895 19.5504 26.8645 19.5504H26.8722C26.9471 19.5504 27.0079 19.4897 27.0079 19.4147V18.5417C27.0079 18.4668 27.0685 18.4061 27.1435 18.4061H27.151C27.2259 18.4061 27.2867 18.4667 27.2867 18.5417V19.4147C27.2867 19.4896 27.3473 19.5504 27.4223 19.5504H27.4298C27.5047 19.5504 27.5655 19.4897 27.5655 19.4147V18.5417C27.5655 18.4668 27.6261 18.4061 27.7011 18.4061H27.7088C27.7837 18.4061 27.8445 18.4667 27.8445 18.5417V19.6938C27.8445 19.7687 27.7838 19.8294 27.7088 19.8294H26.5856C26.5107 19.8294 26.4499 19.7688 26.4499 19.6938V19.4C26.4499 19.3251 26.3893 19.2644 26.3143 19.2644H25.7453C25.6704 19.2644 25.6096 19.325 25.6096 19.4V19.4147C25.6096 19.4896 25.6703 19.5504 25.7453 19.5504H26.0353C26.1102 19.5504 26.1709 19.611 26.1709 19.686V19.6938C26.1709 19.7686 26.1103 19.8294 26.0354 19.8294Z" fill="#F5F5F5"/>
<path d="M28.2586 19.8294H28.2663C28.3412 19.8294 28.4019 19.7688 28.4019 19.6938V19.4C28.4019 19.3251 28.4626 19.2644 28.5376 19.2644H29.103C29.1779 19.2644 29.2386 19.325 29.2386 19.4V19.6938C29.2386 19.7687 29.2993 19.8294 29.3743 19.8294H30.5012C30.5761 19.8294 30.6369 19.7688 30.6369 19.6938V19.1139C30.6369 19.039 30.5762 18.9782 30.5012 18.9782H29.9356C29.8607 18.9782 29.8 19.0389 29.8 19.1139V19.1287C29.8 19.2036 29.8606 19.2644 29.9356 19.2644H30.2187C30.2936 19.2644 30.3544 19.325 30.3544 19.4V19.4147C30.3544 19.4896 30.2937 19.5504 30.2187 19.5504H29.6568C29.5819 19.5504 29.5212 19.4897 29.5212 19.4147V19.1139C29.5212 19.039 29.4605 18.9782 29.3855 18.9782H28.2586C28.1837 18.9782 28.1229 19.0389 28.1229 19.1139V19.6938C28.1229 19.7686 28.1837 19.8294 28.2586 19.8294ZM28.82 19.8294H28.8241C28.899 19.8294 28.9597 19.7688 28.9597 19.6938V19.686C28.9597 19.6111 28.8991 19.5504 28.8241 19.5504H28.82C28.7451 19.5504 28.6843 19.611 28.6843 19.686V19.6938C28.6844 19.7686 28.7451 19.8294 28.82 19.8294ZM28.2586 18.6922H31.6203C31.6952 18.6922 31.7559 18.6315 31.7559 18.5565V18.5417C31.7559 18.4668 31.6953 18.4061 31.6203 18.4061H28.2586C28.1837 18.4061 28.1229 18.4667 28.1229 18.5417V18.5565C28.1229 18.6315 28.1837 18.6922 28.2586 18.6922ZM31.6204 19.8294H31.0549C30.98 19.8294 30.9193 19.7688 30.9193 19.6938V19.1139C30.9193 19.039 30.9799 18.9782 31.0549 18.9782H31.8993C31.9742 18.9782 32.0349 18.9176 32.0349 18.8426V18.5417C32.0349 18.4668 32.0956 18.4061 32.1706 18.4061H32.1783C32.2532 18.4061 32.3139 18.4667 32.3139 18.5417V19.4147C32.3139 19.4896 32.3746 19.5504 32.4496 19.5504H32.4571C32.532 19.5504 32.5927 19.4897 32.5927 19.4147V18.5417C32.5927 18.4668 32.6534 18.4061 32.7284 18.4061H32.7361C32.811 18.4061 32.8717 18.4667 32.8717 18.5417V19.4147C32.8717 19.4896 32.9324 19.5504 33.0074 19.5504H33.0149C33.0898 19.5504 33.1506 19.4897 33.1506 19.4147V18.5417C33.1506 18.4668 33.2112 18.4061 33.2862 18.4061H33.2939C33.3688 18.4061 33.4296 18.4667 33.4296 18.5417V19.6938C33.4296 19.7687 33.3689 19.8294 33.2939 19.8294H32.1704C32.0955 19.8294 32.0347 19.7688 32.0347 19.6938V19.4C32.0347 19.3251 31.9741 19.2644 31.8991 19.2644H31.3301C31.2552 19.2644 31.1945 19.325 31.1945 19.4V19.4147C31.1945 19.4896 31.2551 19.5504 31.3301 19.5504H31.6202C31.6951 19.5504 31.7558 19.611 31.7558 19.686V19.6938C31.756 19.7686 31.6952 19.8294 31.6204 19.8294Z" fill="#F5F5F5"/>
<path d="M33.8439 19.8294H33.8516C33.9265 19.8294 33.9873 19.7688 33.9873 19.6938V19.4C33.9873 19.3251 34.0479 19.2644 34.1229 19.2644H34.6918C34.7667 19.2644 34.8275 19.325 34.8275 19.4V19.6938C34.8275 19.7687 34.8881 19.8294 34.9631 19.8294H36.0867C36.1616 19.8294 36.2223 19.7688 36.2223 19.6938V19.1139C36.2223 19.039 36.1617 18.9782 36.0867 18.9782H35.521C35.4461 18.9782 35.3854 19.0389 35.3854 19.1139V19.1287C35.3854 19.2036 35.446 19.2644 35.521 19.2644H35.8114C35.8863 19.2644 35.947 19.325 35.947 19.4V19.4147C35.947 19.4896 35.8864 19.5504 35.8114 19.5504H35.2386C35.1637 19.5504 35.103 19.4897 35.103 19.4147V19.1139C35.103 19.039 35.0423 18.9782 34.9673 18.9782H33.8441C33.7692 18.9782 33.7084 19.0389 33.7084 19.1139V19.6938C33.7083 19.7686 33.769 19.8294 33.8439 19.8294ZM34.4018 19.8294H34.413C34.4879 19.8294 34.5487 19.7688 34.5487 19.6938V19.686C34.5487 19.6111 34.488 19.5504 34.413 19.5504H34.4018C34.3269 19.5504 34.2662 19.611 34.2662 19.686V19.6938C34.2662 19.7686 34.3269 19.8294 34.4018 19.8294ZM33.8439 18.6922H37.2056C37.2805 18.6922 37.3412 18.6315 37.3412 18.5565V18.5417C37.3412 18.4668 37.2806 18.4061 37.2056 18.4061H33.8439C33.769 18.4061 33.7083 18.4667 33.7083 18.5417V18.5565C33.7083 18.6315 33.769 18.6922 33.8439 18.6922ZM37.2058 19.8294H36.6404C36.5655 19.8294 36.5047 19.7688 36.5047 19.6938V19.1139C36.5047 19.039 36.5654 18.9782 36.6404 18.9782H37.4847C37.5596 18.9782 37.6203 18.9176 37.6203 18.8426V18.5417C37.6203 18.4668 37.681 18.4061 37.756 18.4061H37.7637C37.8386 18.4061 37.8993 18.4667 37.8993 18.5417V19.4147C37.8993 19.4896 37.96 19.5504 38.035 19.5504H38.0425C38.1174 19.5504 38.1782 19.4897 38.1782 19.4147V18.5417C38.1782 18.4668 38.2388 18.4061 38.3138 18.4061H38.3215C38.3964 18.4061 38.4572 18.4667 38.4572 18.5417V19.4147C38.4572 19.4896 38.5178 19.5504 38.5928 19.5504H38.604C38.6789 19.5504 38.7397 19.4897 38.7397 19.4147V18.5417C38.7397 18.4668 38.8003 18.4061 38.8753 18.4061H38.8792C38.9541 18.4061 39.0149 18.4667 39.0149 18.5417V19.6938C39.0149 19.7687 38.9542 19.8294 38.8792 19.8294H37.756C37.6811 19.8294 37.6203 19.7688 37.6203 19.6938V19.4C37.6203 19.3251 37.5597 19.2644 37.4847 19.2644H36.9228C36.8479 19.2644 36.7871 19.325 36.7871 19.4V19.4147C36.7871 19.4896 36.8478 19.5504 36.9228 19.5504H37.2059C37.2808 19.5504 37.3415 19.611 37.3415 19.686V19.6938C37.3413 19.7686 37.2807 19.8294 37.2058 19.8294Z" fill="#F5F5F5"/>
<path d="M39.4333 19.8294H39.4374C39.5123 19.8294 39.573 19.7688 39.573 19.6938V19.4C39.573 19.3251 39.6336 19.2644 39.7086 19.2644H40.2743C40.3492 19.2644 40.4099 19.325 40.4099 19.4V19.6938C40.4099 19.7687 40.4706 19.8294 40.5456 19.8294H41.6723C41.7472 19.8294 41.808 19.7688 41.808 19.6938V19.1139C41.808 19.039 41.7473 18.9782 41.6723 18.9782H41.1106C41.0357 18.9782 40.9749 19.0389 40.9749 19.1139V19.1287C40.9749 19.2036 41.0356 19.2644 41.1106 19.2644H41.397C41.4719 19.2644 41.5327 19.325 41.5327 19.4V19.4147C41.5327 19.4896 41.472 19.5504 41.397 19.5504H40.8281C40.7532 19.5504 40.6924 19.4897 40.6924 19.4147V19.1139C40.6924 19.039 40.6318 18.9782 40.5568 18.9782H39.4333C39.3584 18.9782 39.2976 19.0389 39.2976 19.1139V19.6938C39.2975 19.7686 39.3584 19.8294 39.4333 19.8294ZM39.9911 19.8294H39.9988C40.0737 19.8294 40.1344 19.7688 40.1344 19.6938V19.686C40.1344 19.6111 40.0738 19.5504 39.9988 19.5504H39.9911C39.9162 19.5504 39.8554 19.611 39.8554 19.686V19.6938C39.8554 19.7686 39.9162 19.8294 39.9911 19.8294ZM39.4333 18.6922H42.7987C42.8736 18.6922 42.9343 18.6315 42.9343 18.5565V18.5417C42.9343 18.4668 42.8737 18.4061 42.7987 18.4061H39.4333C39.3584 18.4061 39.2976 18.4667 39.2976 18.5417V18.5565C39.2975 18.6315 39.3584 18.6922 39.4333 18.6922ZM42.7986 19.8294H42.2258C42.1509 19.8294 42.0902 19.7688 42.0902 19.6938V19.1139C42.0902 19.039 42.1508 18.9782 42.2258 18.9782H43.0704C43.1453 18.9782 43.206 18.9176 43.206 18.8426V18.5417C43.206 18.4668 43.2666 18.4061 43.3416 18.4061H43.3529C43.4278 18.4061 43.4885 18.4667 43.4885 18.5417V19.4147C43.4885 19.4896 43.5492 19.5504 43.6242 19.5504H43.6317C43.7066 19.5504 43.7673 19.4897 43.7673 19.4147V18.5417C43.7673 18.4668 43.828 18.4061 43.903 18.4061H43.9071C43.982 18.4061 44.0427 18.4667 44.0427 18.5417V19.4147C44.0427 19.4896 44.1034 19.5504 44.1784 19.5504H44.1896C44.2645 19.5504 44.3252 19.4897 44.3252 19.4147V18.5417C44.3252 18.4668 44.3859 18.4061 44.4609 18.4061H44.4686C44.5435 18.4061 44.6042 18.4667 44.6042 18.5417V19.6938C44.6042 19.7687 44.5436 19.8294 44.4686 19.8294H43.3416C43.2667 19.8294 43.206 19.7688 43.206 19.6938V19.4C43.206 19.3251 43.1454 19.2644 43.0704 19.2644H42.5049C42.43 19.2644 42.3693 19.325 42.3693 19.4V19.4147C42.3693 19.4896 42.4299 19.5504 42.5049 19.5504H42.7987C42.8736 19.5504 42.9343 19.611 42.9343 19.686V19.6938C42.9343 19.7686 42.8735 19.8294 42.7986 19.8294Z" fill="#F5F5F5"/>
<path d="M45.0185 19.8294H45.0262C45.1011 19.8294 45.1618 19.7688 45.1618 19.6938V19.4C45.1618 19.3251 45.2225 19.2644 45.2975 19.2644H45.8629C45.9378 19.2644 45.9985 19.325 45.9985 19.4V19.6938C45.9985 19.7687 46.0592 19.8294 46.1342 19.8294H47.2611C47.336 19.8294 47.3968 19.7688 47.3968 19.6938V19.1139C47.3968 19.039 47.3361 18.9782 47.2611 18.9782H46.6992C46.6243 18.9782 46.5636 19.0389 46.5636 19.1139V19.1287C46.5636 19.2036 46.6242 19.2644 46.6992 19.2644H46.9858C47.0607 19.2644 47.1215 19.325 47.1215 19.4V19.4147C47.1215 19.4896 47.0608 19.5504 46.9858 19.5504H46.4131C46.3382 19.5504 46.2774 19.4897 46.2774 19.4147V19.1139C46.2774 19.039 46.2168 18.9782 46.1418 18.9782H45.0186C44.9437 18.9782 44.8829 19.0389 44.8829 19.1139V19.6938C44.8829 19.7686 44.9437 19.8294 45.0185 19.8294ZM45.5764 19.8294H45.5841C45.659 19.8294 45.7197 19.7688 45.7197 19.6938V19.686C45.7197 19.6111 45.6591 19.5504 45.5841 19.5504H45.5764C45.5015 19.5504 45.4407 19.611 45.4407 19.686V19.6938C45.4408 19.7686 45.5015 19.8294 45.5764 19.8294ZM45.0185 18.6922H48.3767C48.4516 18.6922 48.5123 18.6315 48.5123 18.5565V18.5417C48.5123 18.4668 48.4517 18.4061 48.3767 18.4061H45.0185C44.9436 18.4061 44.8828 18.4667 44.8828 18.5417V18.5565C44.8829 18.6315 44.9437 18.6922 45.0185 18.6922ZM48.3767 19.8294H47.8112C47.7363 19.8294 47.6756 19.7688 47.6756 19.6938V19.1139C47.6756 19.039 47.7362 18.9782 47.8112 18.9782H48.6629C48.7378 18.9782 48.7985 18.9176 48.7985 18.8426V18.5417C48.7985 18.4668 48.8592 18.4061 48.9342 18.4061H48.9346C49.0095 18.4061 49.0702 18.4667 49.0702 18.5417V19.4147C49.0702 19.4896 49.1309 19.5504 49.2059 19.5504H49.2207C49.2956 19.5504 49.3563 19.4897 49.3563 19.4147V18.5417C49.3563 18.4668 49.417 18.4061 49.492 18.4061H49.4924C49.5673 18.4061 49.628 18.4667 49.628 18.5417V19.4147C49.628 19.4896 49.6887 19.5504 49.7637 19.5504H49.7714C49.8463 19.5504 49.907 19.4897 49.907 19.4147V18.5417C49.907 18.4668 49.9677 18.4061 50.0427 18.4061H50.0574C50.1323 18.4061 50.1931 18.4667 50.1931 18.5417V19.6938C50.1931 19.7687 50.1324 19.8294 50.0574 19.8294H48.9342C48.8593 19.8294 48.7985 19.7688 48.7985 19.6938V19.4C48.7985 19.3251 48.7379 19.2644 48.6629 19.2644H48.0902C48.0153 19.2644 47.9546 19.325 47.9546 19.4V19.4147C47.9546 19.4896 48.0152 19.5504 48.0902 19.5504H48.3767C48.4516 19.5504 48.5123 19.611 48.5123 19.686V19.6938C48.5123 19.7686 48.4516 19.8294 48.3767 19.8294Z" fill="#F5F5F5"/>
<path d="M0.328515 20.6945H2.57099C2.64589 20.6945 2.70664 20.6339 2.70664 20.5589V20.258C2.70664 20.1831 2.64599 20.1224 2.57099 20.1224H0.328515C0.253613 20.1224 0.192871 20.183 0.192871 20.258V20.5589C0.192871 20.6339 0.253516 20.6945 0.328515 20.6945ZM3.1247 20.6945H5.36366C5.43856 20.6945 5.49931 20.6339 5.49931 20.5589V20.258C5.49931 20.1831 5.43866 20.1224 5.36366 20.1224H3.1247C3.0498 20.1224 2.98906 20.183 2.98906 20.258V20.5589C2.98906 20.6339 3.0498 20.6945 3.1247 20.6945Z" fill="#F5F5F5"/>
<path d="M5.91726 20.6945H8.15622C8.23112 20.6945 8.29186 20.6339 8.29186 20.5589V20.258C8.29186 20.1831 8.23122 20.1224 8.15622 20.1224H5.91726C5.84236 20.1224 5.78162 20.183 5.78162 20.258V20.5589C5.78171 20.6339 5.84246 20.6945 5.91726 20.6945ZM8.70641 20.6945H10.9525C11.0274 20.6945 11.0881 20.6339 11.0881 20.5589V20.258C11.0881 20.1831 11.0275 20.1224 10.9525 20.1224H8.70641C8.63151 20.1224 8.57077 20.183 8.57077 20.258V20.5589C8.57077 20.6339 8.63151 20.6945 8.70641 20.6945Z" fill="#F5F5F5"/>
<path d="M11.503 20.6945H13.7454C13.8203 20.6945 13.8811 20.6339 13.8811 20.5589V20.258C13.8811 20.1831 13.8204 20.1224 13.7454 20.1224H11.503C11.4281 20.1224 11.3673 20.183 11.3673 20.258V20.5589C11.3672 20.6339 11.4281 20.6945 11.503 20.6945ZM14.2955 20.6945H16.538C16.6129 20.6945 16.6736 20.6339 16.6736 20.5589V20.258C16.6736 20.1831 16.613 20.1224 16.538 20.1224H14.2955C14.2206 20.1224 14.1599 20.183 14.1599 20.258V20.5589C14.16 20.6339 14.2207 20.6945 14.2955 20.6945Z" fill="#F5F5F5"/>
<path d="M17.0883 20.6945H19.3308C19.4057 20.6945 19.4664 20.6339 19.4664 20.5589V20.258C19.4664 20.1831 19.4058 20.1224 19.3308 20.1224H17.0883C17.0134 20.1224 16.9526 20.183 16.9526 20.258V20.5589C16.9527 20.6339 17.0135 20.6945 17.0883 20.6945ZM19.8774 20.6945H22.1235C22.1984 20.6945 22.2592 20.6339 22.2592 20.5589V20.258C22.2592 20.1831 22.1985 20.1224 22.1235 20.1224H19.8774C19.8025 20.1224 19.7418 20.183 19.7418 20.258V20.5589C19.7418 20.6339 19.8024 20.6945 19.8774 20.6945Z" fill="#F5F5F5"/>
<path d="M22.6735 20.6945H24.9162C24.9911 20.6945 25.0518 20.6339 25.0518 20.5589V20.258C25.0518 20.1831 24.9912 20.1224 24.9162 20.1224H22.6735C22.5986 20.1224 22.5378 20.183 22.5378 20.258V20.5589C22.5379 20.6339 22.5986 20.6945 22.6735 20.6945ZM25.4662 20.6945H27.7088C27.7837 20.6945 27.8445 20.6339 27.8445 20.5589V20.258C27.8445 20.1831 27.7838 20.1224 27.7088 20.1224H25.4662C25.3913 20.1224 25.3305 20.183 25.3305 20.258V20.5589C25.3306 20.6339 25.3913 20.6945 25.4662 20.6945Z" fill="#F5F5F5"/>
<path d="M28.2586 20.6945H30.5012C30.5761 20.6945 30.6369 20.6339 30.6369 20.5589V20.258C30.6369 20.1831 30.5762 20.1224 30.5012 20.1224H28.2586C28.1837 20.1224 28.1229 20.183 28.1229 20.258V20.5589C28.1229 20.6339 28.1837 20.6945 28.2586 20.6945ZM31.0549 20.6945H33.2939C33.3688 20.6945 33.4296 20.6339 33.4296 20.5589V20.258C33.4296 20.1831 33.3689 20.1224 33.2939 20.1224H31.0549C30.98 20.1224 30.9193 20.183 30.9193 20.258V20.5589C30.9193 20.6339 30.98 20.6945 31.0549 20.6945Z" fill="#F5F5F5"/>
<path d="M33.8439 20.6945H36.0866C36.1615 20.6945 36.2222 20.6339 36.2222 20.5589V20.258C36.2222 20.1831 36.1616 20.1224 36.0866 20.1224H33.8439C33.769 20.1224 33.7083 20.183 33.7083 20.258V20.5589C33.7083 20.6339 33.769 20.6945 33.8439 20.6945ZM36.6403 20.6945H38.879C38.9539 20.6945 39.0147 20.6339 39.0147 20.5589V20.258C39.0147 20.1831 38.954 20.1224 38.879 20.1224H36.6403C36.5654 20.1224 36.5046 20.183 36.5046 20.258V20.5589C36.5047 20.6339 36.5654 20.6945 36.6403 20.6945Z" fill="#F5F5F5"/>
<path d="M39.4333 20.6945H41.6722C41.7471 20.6945 41.8079 20.6339 41.8079 20.5589V20.258C41.8079 20.1831 41.7472 20.1224 41.6722 20.1224H39.4333C39.3584 20.1224 39.2976 20.183 39.2976 20.258V20.5589C39.2975 20.6339 39.3584 20.6945 39.4333 20.6945ZM42.2259 20.6945H44.4686C44.5435 20.6945 44.6042 20.6339 44.6042 20.5589V20.258C44.6042 20.1831 44.5436 20.1224 44.4686 20.1224H42.2259C42.151 20.1224 42.0903 20.183 42.0903 20.258V20.5589C42.0903 20.6339 42.151 20.6945 42.2259 20.6945Z" fill="#F5F5F5"/>
<path d="M45.0185 20.6945H47.2611C47.336 20.6945 47.3968 20.6339 47.3968 20.5589V20.258C47.3968 20.1831 47.3361 20.1224 47.2611 20.1224H45.0185C44.9436 20.1224 44.8828 20.183 44.8828 20.258V20.5589C44.8829 20.6339 44.9437 20.6945 45.0185 20.6945ZM47.8113 20.6945H50.0574C50.1323 20.6945 50.1931 20.6339 50.1931 20.5589V20.258C50.1931 20.1831 50.1324 20.1224 50.0574 20.1224H47.8113C47.7364 20.1224 47.6757 20.183 47.6757 20.258V20.5589C47.6756 20.6339 47.7363 20.6945 47.8113 20.6945Z" fill="#F5F5F5"/>
<path d="M50.0571 31.9046H50.0496C49.9747 31.9046 49.914 31.9652 49.914 32.0402V32.334C49.914 32.4089 49.8533 32.4696 49.7783 32.4696H49.2093C49.1344 32.4696 49.0736 32.409 49.0736 32.334V32.0402C49.0736 31.9653 49.013 31.9046 48.938 31.9046H47.8148C47.7399 31.9046 47.6791 31.9652 47.6791 32.0402V32.6202C47.6791 32.6951 47.7398 32.7558 47.8148 32.7558H48.3802C48.4551 32.7558 48.5158 32.6952 48.5158 32.6202V32.6053C48.5158 32.5304 48.4552 32.4697 48.3802 32.4697H48.0936C48.0187 32.4697 47.9579 32.4091 47.9579 32.3341V32.3193C47.9579 32.2444 48.0186 32.1837 48.0936 32.1837H48.6592C48.7341 32.1837 48.7948 32.2443 48.7948 32.3193V32.6202C48.7948 32.6951 48.8555 32.7558 48.9305 32.7558H50.0572C50.1321 32.7558 50.1929 32.6952 50.1929 32.6202V32.0402C50.1928 31.9653 50.1321 31.9046 50.0571 31.9046ZM49.4958 31.9046H49.4881C49.4132 31.9046 49.3525 31.9652 49.3525 32.0402V32.0479C49.3525 32.1228 49.4131 32.1836 49.4881 32.1836H49.4958C49.5707 32.1836 49.6315 32.1229 49.6315 32.0479V32.0402C49.6315 31.9653 49.5707 31.9046 49.4958 31.9046ZM50.0571 33.0418H46.6955C46.6206 33.0418 46.5599 33.1024 46.5599 33.1774V33.1923C46.5599 33.2672 46.6205 33.3279 46.6955 33.3279H50.0571C50.132 33.3279 50.1928 33.2673 50.1928 33.1923V33.1774C50.1928 33.1024 50.1321 33.0418 50.0571 33.0418ZM46.6956 31.9046H47.2611C47.336 31.9046 47.3967 31.9652 47.3967 32.0402V32.6202C47.3967 32.6951 47.3361 32.7558 47.2611 32.7558H46.4165C46.3416 32.7558 46.2809 32.8165 46.2809 32.8915V33.1924C46.2809 33.2673 46.2202 33.328 46.1452 33.328H46.1377C46.0628 33.328 46.0021 33.2674 46.0021 33.1924V32.3193C46.0021 32.2444 45.9414 32.1837 45.8664 32.1837H45.8587C45.7838 32.1837 45.7231 32.2443 45.7231 32.3193V33.1924C45.7231 33.2673 45.6624 33.328 45.5874 33.328H45.5799C45.505 33.328 45.4443 33.2674 45.4443 33.1924V32.3193C45.4443 32.2444 45.3836 32.1837 45.3086 32.1837H45.2974C45.2225 32.1837 45.1617 32.2443 45.1617 32.3193V33.1924C45.1617 33.2673 45.1011 33.328 45.0261 33.328H45.022C44.9471 33.328 44.8864 33.2674 44.8864 33.1924V32.0403C44.8864 31.9654 44.947 31.9047 45.022 31.9047H46.1452C46.2201 31.9047 46.2809 31.9653 46.2809 32.0403V32.3341C46.2809 32.409 46.3415 32.4697 46.4165 32.4697H46.982C47.0569 32.4697 47.1176 32.4091 47.1176 32.3341V32.3193C47.1176 32.2444 47.057 32.1837 46.982 32.1837H46.6955C46.6206 32.1837 46.5599 32.123 46.5599 32.048V32.0403C46.5599 31.9653 46.6207 31.9046 46.6956 31.9046Z" fill="#F5F5F5"/>
<path d="M44.4687 31.9046H44.4575C44.3826 31.9046 44.3218 31.9652 44.3218 32.0402V32.334C44.3218 32.4089 44.2612 32.4696 44.1862 32.4696H43.6243C43.5494 32.4696 43.4886 32.409 43.4886 32.334V32.0402C43.4886 31.9653 43.428 31.9046 43.353 31.9046H42.2297C42.1548 31.9046 42.0941 31.9652 42.0941 32.0402V32.6202C42.0941 32.6951 42.1547 32.7558 42.2297 32.7558H42.7952C42.8701 32.7558 42.9308 32.6952 42.9308 32.6202V32.6053C42.9308 32.5304 42.8702 32.4697 42.7952 32.4697H42.5085C42.4336 32.4697 42.3729 32.4091 42.3729 32.3341V32.3193C42.3729 32.2444 42.4335 32.1837 42.5085 32.1837H43.0742C43.1491 32.1837 43.2098 32.2443 43.2098 32.3193V32.6202C43.2098 32.6951 43.2705 32.7558 43.3455 32.7558H44.4687C44.5436 32.7558 44.6043 32.6952 44.6043 32.6202V32.0402C44.6042 31.9653 44.5435 31.9046 44.4687 31.9046ZM43.9108 31.9046H43.9033C43.8284 31.9046 43.7676 31.9652 43.7676 32.0402V32.0479C43.7676 32.1228 43.8283 32.1836 43.9033 32.1836H43.9108C43.9857 32.1836 44.0464 32.1229 44.0464 32.0479V32.0402C44.0463 31.9653 43.9857 31.9046 43.9108 31.9046ZM44.4687 33.0418H41.1105C41.0356 33.0418 40.9749 33.1024 40.9749 33.1774V33.1923C40.9749 33.2672 41.0355 33.3279 41.1105 33.3279H44.4687C44.5436 33.3279 44.6043 33.2673 44.6043 33.1923V33.1774C44.6042 33.1024 44.5435 33.0418 44.4687 33.0418ZM41.1105 31.9046H41.6795C41.7544 31.9046 41.8152 31.9652 41.8152 32.0402V32.6202C41.8152 32.6951 41.7545 32.7558 41.6795 32.7558H40.835C40.7601 32.7558 40.6994 32.8165 40.6994 32.8915V33.1924C40.6994 33.2673 40.6387 33.328 40.5637 33.328H40.5525C40.4776 33.328 40.4168 33.2674 40.4168 33.1924V32.3193C40.4168 32.2444 40.3562 32.1837 40.2812 32.1837H40.27C40.1951 32.1837 40.1343 32.2443 40.1343 32.3193V33.1924C40.1343 33.2673 40.0737 33.328 39.9987 33.328H39.9946C39.9197 33.328 39.8589 33.2674 39.8589 33.1924V32.3193C39.8589 32.2444 39.7983 32.1837 39.7233 32.1837H39.7121C39.6372 32.1837 39.5764 32.2443 39.5764 32.3193V33.1924C39.5764 33.2673 39.5158 33.328 39.4408 33.328H39.4333C39.3584 33.328 39.2976 33.2674 39.2976 33.1924V32.0403C39.2976 31.9654 39.3583 31.9047 39.4333 31.9047H40.5636C40.6385 31.9047 40.6993 31.9653 40.6993 32.0403V32.3341C40.6993 32.409 40.7599 32.4697 40.8349 32.4697H41.3968C41.4717 32.4697 41.5325 32.4091 41.5325 32.3341V32.3193C41.5325 32.2444 41.4718 32.1837 41.3968 32.1837H41.1102C41.0353 32.1837 40.9746 32.123 40.9746 32.048V32.0403C40.9749 31.9653 41.0356 31.9046 41.1105 31.9046Z" fill="#F5F5F5"/>
<path d="M38.8827 31.9046H38.8752C38.8003 31.9046 38.7395 31.9652 38.7395 32.0402V32.334C38.7395 32.4089 38.6789 32.4696 38.6039 32.4696H38.0383C37.9633 32.4696 37.9026 32.409 37.9026 32.334V32.0402C37.9026 31.9653 37.842 31.9046 37.767 31.9046H36.6402C36.5653 31.9046 36.5046 31.9652 36.5046 32.0402V32.6202C36.5046 32.6951 36.5652 32.7558 36.6402 32.7558H37.2056C37.2805 32.7558 37.3413 32.6952 37.3413 32.6202V32.6053C37.3413 32.5304 37.2806 32.4697 37.2056 32.4697H36.919C36.8441 32.4697 36.7834 32.4091 36.7834 32.3341V32.3193C36.7834 32.2444 36.844 32.1837 36.919 32.1837H37.4881C37.563 32.1837 37.6237 32.2443 37.6237 32.3193V32.6202C37.6237 32.6951 37.6843 32.7558 37.7593 32.7558H38.8826C38.9575 32.7558 39.0182 32.6952 39.0182 32.6202V32.0402C39.0184 31.9653 38.9576 31.9046 38.8827 31.9046ZM38.3249 31.9046H38.3174C38.2425 31.9046 38.1817 31.9652 38.1817 32.0402V32.0479C38.1817 32.1228 38.2424 32.1836 38.3174 32.1836H38.3249C38.3998 32.1836 38.4605 32.1229 38.4605 32.0479V32.0402C38.4605 31.9653 38.3998 31.9046 38.3249 31.9046ZM38.8827 33.0418H35.5209C35.446 33.0418 35.3852 33.1024 35.3852 33.1774V33.1923C35.3852 33.2672 35.4459 33.3279 35.5209 33.3279H38.8827C38.9576 33.3279 39.0183 33.2673 39.0183 33.1923V33.1774C39.0184 33.1024 38.9576 33.0418 38.8827 33.0418ZM35.521 31.9046H36.09C36.1649 31.9046 36.2257 31.9652 36.2257 32.0402V32.6202C36.2257 32.6951 36.165 32.7558 36.09 32.7558H35.2457C35.1708 32.7558 35.11 32.8165 35.11 32.8915V33.1924C35.11 33.2673 35.0494 33.328 34.9744 33.328H34.9667C34.8918 33.328 34.831 33.2674 34.831 33.1924V32.3193C34.831 32.2444 34.7704 32.1837 34.6954 32.1837H34.6842C34.6093 32.1837 34.5485 32.2443 34.5485 32.3193V33.1924C34.5485 33.2673 34.4879 33.328 34.4129 33.328H34.4016C34.3267 33.328 34.266 33.2674 34.266 33.1924V32.3193C34.266 32.2444 34.2053 32.1837 34.1303 32.1837H34.1262C34.0513 32.1837 33.9906 32.2443 33.9906 32.3193V33.1924C33.9906 33.2673 33.93 33.328 33.855 33.328H33.8474C33.7725 33.328 33.7118 33.2674 33.7118 33.1924V32.0403C33.7118 31.9654 33.7724 31.9047 33.8474 31.9047H34.9744C35.0493 31.9047 35.11 31.9653 35.11 32.0403V32.3341C35.11 32.409 35.1707 32.4697 35.2457 32.4697H35.8111C35.886 32.4697 35.9468 32.4091 35.9468 32.3341V32.3193C35.9468 32.2444 35.8861 32.1837 35.8111 32.1837H35.5208C35.4459 32.1837 35.3851 32.123 35.3851 32.048V32.0403C35.3853 31.9653 35.4461 31.9046 35.521 31.9046Z" fill="#F5F5F5"/>
<path d="M33.2976 31.9046H33.2901C33.2151 31.9046 33.1544 31.9652 33.1544 32.0402V32.334C33.1544 32.4089 33.0938 32.4696 33.0188 32.4696H32.4533C32.3784 32.4696 32.3177 32.409 32.3177 32.334V32.0402C32.3177 31.9653 32.257 31.9046 32.182 31.9046H31.0551C30.9802 31.9046 30.9195 31.9652 30.9195 32.0402V32.6202C30.9195 32.6951 30.9801 32.7558 31.0551 32.7558H31.6241C31.699 32.7558 31.7598 32.6952 31.7598 32.6202V32.6053C31.7598 32.5304 31.6991 32.4697 31.6241 32.4697H31.3375C31.2626 32.4697 31.2019 32.4091 31.2019 32.3341V32.3193C31.2019 32.2444 31.2625 32.1837 31.3375 32.1837H31.9029C31.9778 32.1837 32.0386 32.2443 32.0386 32.3193V32.6202C32.0386 32.6951 32.0992 32.7558 32.1742 32.7558H33.2975C33.3724 32.7558 33.4331 32.6952 33.4331 32.6202V32.0402C33.4331 31.9653 33.3724 31.9046 33.2976 31.9046ZM32.7397 31.9046H32.7321C32.6572 31.9046 32.5965 31.9652 32.5965 32.0402V32.0479C32.5965 32.1228 32.6571 32.1836 32.7321 32.1836H32.7397C32.8146 32.1836 32.8753 32.1229 32.8753 32.0479V32.0402C32.8752 31.9653 32.8146 31.9046 32.7397 31.9046ZM33.2976 33.0418H29.9394C29.8645 33.0418 29.8037 33.1024 29.8037 33.1774V33.1923C29.8037 33.2672 29.8644 33.3279 29.9394 33.3279H33.2976C33.3725 33.3279 33.4332 33.2673 33.4332 33.1923V33.1774C33.4331 33.1024 33.3724 33.0418 33.2976 33.0418ZM29.9394 31.9046H30.5084C30.5833 31.9046 30.6441 31.9652 30.6441 32.0402V32.6202C30.6441 32.6951 30.5834 32.7558 30.5084 32.7558H29.6568C29.5819 32.7558 29.5211 32.8165 29.5211 32.8915V33.1924C29.5211 33.2673 29.4605 33.328 29.3855 33.328H29.378C29.303 33.328 29.2423 33.2674 29.2423 33.1924V32.3193C29.2423 32.2444 29.1817 32.1837 29.1067 32.1837H29.1026C29.0277 32.1837 28.9669 32.2443 28.9669 32.3193V33.1924C28.9669 33.2673 28.9063 33.328 28.8313 33.328H28.82C28.7451 33.328 28.6844 33.2674 28.6844 33.1924V32.3193C28.6844 32.2444 28.6238 32.1837 28.5488 32.1837H28.541C28.4661 32.1837 28.4054 32.2443 28.4054 32.3193V33.1924C28.4054 33.2673 28.3448 33.328 28.2698 33.328H28.2622C28.1873 33.328 28.1266 33.2674 28.1266 33.1924V32.0403C28.1266 31.9654 28.1872 31.9047 28.2622 31.9047H29.3855C29.4604 31.9047 29.5211 31.9653 29.5211 32.0403V32.3341C29.5211 32.409 29.5818 32.4697 29.6568 32.4697H30.2258C30.3007 32.4697 30.3614 32.4091 30.3614 32.3341V32.3193C30.3614 32.2444 30.3008 32.1837 30.2258 32.1837H29.9392C29.8643 32.1837 29.8035 32.123 29.8035 32.048V32.0403C29.8038 31.9653 29.8645 31.9046 29.9394 31.9046Z" fill="#F5F5F5"/>
<path d="M27.7124 31.9046H27.7047C27.6298 31.9046 27.569 31.9652 27.569 32.0402V32.334C27.569 32.4089 27.5084 32.4696 27.4334 32.4696H26.8679C26.793 32.4696 26.7323 32.409 26.7323 32.334V32.0402C26.7323 31.9653 26.6716 31.9046 26.5966 31.9046H25.4697C25.3948 31.9046 25.3341 31.9652 25.3341 32.0402V32.6202C25.3341 32.6951 25.3947 32.7558 25.4697 32.7558H26.0387C26.1136 32.7558 26.1744 32.6952 26.1744 32.6202V32.6053C26.1744 32.5304 26.1137 32.4697 26.0387 32.4697H25.7487C25.6738 32.4697 25.6131 32.4091 25.6131 32.3341V32.3193C25.6131 32.2444 25.6737 32.1837 25.7487 32.1837H26.3141C26.389 32.1837 26.4498 32.2443 26.4498 32.3193V32.6202C26.4498 32.6951 26.5104 32.7558 26.5854 32.7558H27.7124C27.7873 32.7558 27.848 32.6952 27.848 32.6202V32.0402C27.8479 31.9653 27.7873 31.9046 27.7124 31.9046ZM27.1508 31.9046H27.1467C27.0718 31.9046 27.0111 31.9652 27.0111 32.0402V32.0479C27.0111 32.1228 27.0717 32.1836 27.1467 32.1836H27.1508C27.2257 32.1836 27.2865 32.1229 27.2865 32.0479V32.0402C27.2865 31.9653 27.2257 31.9046 27.1508 31.9046ZM27.7124 33.0418H24.3506C24.2757 33.0418 24.2149 33.1024 24.2149 33.1774V33.1923C24.2149 33.2672 24.2756 33.3279 24.3506 33.3279H27.7124C27.7873 33.3279 27.848 33.2673 27.848 33.1923V33.1774C27.8479 33.1024 27.7873 33.0418 27.7124 33.0418ZM24.3505 31.9046H24.9195C24.9944 31.9046 25.0551 31.9652 25.0551 32.0402V32.6202C25.0551 32.6951 24.9945 32.7558 24.9195 32.7558H24.0715C23.9966 32.7558 23.9358 32.8165 23.9358 32.8915V33.1924C23.9358 33.2673 23.8752 33.328 23.8002 33.328H23.7926C23.7177 33.328 23.657 33.2674 23.657 33.1924V32.3193C23.657 32.2444 23.5964 32.1837 23.5214 32.1837H23.5136C23.4387 32.1837 23.378 32.2443 23.378 32.3193V33.1924C23.378 33.2673 23.3174 33.328 23.2424 33.328H23.2348C23.1599 33.328 23.0992 33.2674 23.0992 33.1924V32.3193C23.0992 32.2444 23.0385 32.1837 22.9635 32.1837H22.956C22.8811 32.1837 22.8204 32.2443 22.8204 32.3193V33.1924C22.8204 33.2673 22.7597 33.328 22.6847 33.328H22.677C22.6021 33.328 22.5414 33.2674 22.5414 33.1924V32.0403C22.5414 31.9654 22.602 31.9047 22.677 31.9047H23.8003C23.8752 31.9047 23.9359 31.9653 23.9359 32.0403V32.3341C23.9359 32.409 23.9966 32.4697 24.0716 32.4697H24.6406C24.7155 32.4697 24.7762 32.4091 24.7762 32.3341V32.3193C24.7762 32.2444 24.7156 32.1837 24.6406 32.1837H24.3506C24.2757 32.1837 24.2149 32.123 24.2149 32.048V32.0403C24.2149 31.9653 24.2756 31.9046 24.3505 31.9046Z" fill="#F5F5F5"/>
<path d="M22.127 31.9046H22.1193C22.0444 31.9046 21.9837 31.9652 21.9837 32.0402V32.334C21.9837 32.4089 21.923 32.4696 21.848 32.4696H21.2826C21.2077 32.4696 21.147 32.409 21.147 32.334V32.0402C21.147 31.9653 21.0863 31.9046 21.0113 31.9046H19.8844C19.8095 31.9046 19.7487 31.9652 19.7487 32.0402V32.6202C19.7487 32.6951 19.8094 32.7558 19.8844 32.7558H20.45C20.5249 32.7558 20.5856 32.6952 20.5856 32.6202V32.6053C20.5856 32.5304 20.525 32.4697 20.45 32.4697H20.1669C20.092 32.4697 20.0312 32.4091 20.0312 32.3341V32.3193C20.0312 32.2444 20.0919 32.1837 20.1669 32.1837H20.7288C20.8037 32.1837 20.8644 32.2443 20.8644 32.3193V32.6202C20.8644 32.6951 20.9251 32.7558 21.0001 32.7558H22.127C22.2019 32.7558 22.2627 32.6952 22.2627 32.6202V32.0402C22.2627 31.9653 22.2019 31.9046 22.127 31.9046ZM21.5656 31.9046H21.5615C21.4866 31.9046 21.4259 31.9652 21.4259 32.0402V32.0479C21.4259 32.1228 21.4865 32.1836 21.5615 32.1836H21.5656C21.6405 32.1836 21.7013 32.1229 21.7013 32.0479V32.0402C21.7012 31.9653 21.6405 31.9046 21.5656 31.9046ZM22.127 33.0418H18.7652C18.6903 33.0418 18.6296 33.1024 18.6296 33.1774V33.1923C18.6296 33.2672 18.6902 33.3279 18.7652 33.3279H22.1269C22.2018 33.3279 22.2626 33.2673 22.2626 33.1923V33.1774C22.2627 33.1024 22.2019 33.0418 22.127 33.0418ZM18.7652 31.9046H19.3307C19.4056 31.9046 19.4663 31.9652 19.4663 32.0402V32.6202C19.4663 32.6951 19.4057 32.7558 19.3307 32.7558H18.4863C18.4114 32.7558 18.3507 32.8165 18.3507 32.8915V33.1924C18.3507 33.2673 18.29 33.328 18.215 33.328H18.2073C18.1324 33.328 18.0717 33.2674 18.0717 33.1924V32.3193C18.0717 32.2444 18.011 32.1837 17.936 32.1837H17.9285C17.8536 32.1837 17.7929 32.2443 17.7929 32.3193V33.1924C17.7929 33.2673 17.7322 33.328 17.6572 33.328H17.6495C17.5746 33.328 17.5139 33.2674 17.5139 33.1924V32.3193C17.5139 32.2444 17.4532 32.1837 17.3782 32.1837H17.3707C17.2958 32.1837 17.2351 32.2443 17.2351 32.3193V33.1924C17.2351 33.2673 17.1744 33.328 17.0994 33.328H17.0917C17.0168 33.328 16.9561 33.2674 16.9561 33.1924V32.0403C16.9561 31.9654 17.0167 31.9047 17.0917 31.9047H18.2152C18.2901 31.9047 18.3509 31.9653 18.3509 32.0403V32.3341C18.3509 32.409 18.4115 32.4697 18.4865 32.4697H19.0555C19.1304 32.4697 19.1911 32.4091 19.1911 32.3341V32.3193C19.1911 32.2444 19.1305 32.1837 19.0555 32.1837H18.7654C18.6905 32.1837 18.6298 32.123 18.6298 32.048V32.0403C18.6296 31.9653 18.6904 31.9046 18.7652 31.9046Z" fill="#F5F5F5"/>
<path d="M16.5413 31.9046H16.5336C16.4587 31.9046 16.398 31.9652 16.398 32.0402V32.334C16.398 32.4089 16.3373 32.4696 16.2623 32.4696H15.6934C15.6185 32.4696 15.5577 32.409 15.5577 32.334V32.0402C15.5577 31.9653 15.4971 31.9046 15.4221 31.9046H14.2986C14.2237 31.9046 14.1629 31.9652 14.1629 32.0402V32.6202C14.1629 32.6951 14.2236 32.7558 14.2986 32.7558H14.8642C14.9391 32.7558 14.9998 32.6952 14.9998 32.6202V32.6053C14.9998 32.5304 14.9392 32.4697 14.8642 32.4697H14.5738C14.4989 32.4697 14.4382 32.4091 14.4382 32.3341V32.3193C14.4382 32.2444 14.4988 32.1837 14.5738 32.1837H15.1466C15.2215 32.1837 15.2822 32.2443 15.2822 32.3193V32.6202C15.2822 32.6951 15.3429 32.7558 15.4179 32.7558H16.5411C16.616 32.7558 16.6768 32.6952 16.6768 32.6202V32.0402C16.6769 31.9653 16.6162 31.9046 16.5413 31.9046ZM15.9834 31.9046H15.9722C15.8973 31.9046 15.8365 31.9652 15.8365 32.0402V32.0479C15.8365 32.1228 15.8972 32.1836 15.9722 32.1836H15.9834C16.0583 32.1836 16.1191 32.1229 16.1191 32.0479V32.0402C16.1191 31.9653 16.0583 31.9046 15.9834 31.9046ZM16.5413 33.0418H13.1796C13.1047 33.0418 13.044 33.1024 13.044 33.1774V33.1923C13.044 33.2672 13.1046 33.3279 13.1796 33.3279H16.5413C16.6162 33.3279 16.677 33.2673 16.677 33.1923V33.1774C16.6769 33.1024 16.6162 33.0418 16.5413 33.0418ZM13.1794 31.9046H13.7448C13.8197 31.9046 13.8805 31.9652 13.8805 32.0402V32.6202C13.8805 32.6951 13.8198 32.7558 13.7448 32.7558H12.9005C12.8256 32.7558 12.7649 32.8165 12.7649 32.8915V33.1924C12.7649 33.2673 12.7042 33.328 12.6292 33.328H12.6215C12.5466 33.328 12.4859 33.2674 12.4859 33.1924V32.3193C12.4859 32.2444 12.4252 32.1837 12.3502 32.1837H12.3427C12.2678 32.1837 12.2071 32.2443 12.2071 32.3193V33.1924C12.2071 33.2673 12.1464 33.328 12.0714 33.328H12.0637C11.9888 33.328 11.9281 33.2674 11.9281 33.1924V32.3193C11.9281 32.2444 11.8674 32.1837 11.7924 32.1837H11.7812C11.7063 32.1837 11.6455 32.2443 11.6455 32.3193V33.1924C11.6455 33.2673 11.5849 33.328 11.5099 33.328H11.5059C11.431 33.328 11.3702 33.2674 11.3702 33.1924V32.0403C11.3702 31.9654 11.4309 31.9047 11.5059 31.9047H12.6291C12.704 31.9047 12.7648 31.9653 12.7648 32.0403V32.3341C12.7648 32.409 12.8254 32.4697 12.9004 32.4697H13.4623C13.5372 32.4697 13.598 32.4091 13.598 32.3341V32.3193C13.598 32.2444 13.5373 32.1837 13.4623 32.1837H13.1792C13.1043 32.1837 13.0436 32.123 13.0436 32.048V32.0403C13.0439 31.9653 13.1045 31.9046 13.1794 31.9046Z" fill="#F5F5F5"/>
<path d="M10.9526 31.9046H10.9485C10.8736 31.9046 10.8129 31.9652 10.8129 32.0402V32.334C10.8129 32.4089 10.7522 32.4696 10.6772 32.4696H10.1116C10.0367 32.4696 9.97594 32.409 9.97594 32.334V32.0402C9.97594 31.9653 9.9153 31.9046 9.8403 31.9046H8.71374C8.63884 31.9046 8.57809 31.9652 8.57809 32.0402V32.6202C8.57809 32.6951 8.63874 32.7558 8.71374 32.7558H9.27546C9.35036 32.7558 9.4111 32.6952 9.4111 32.6202V32.6053C9.4111 32.5304 9.35046 32.4697 9.27546 32.4697H8.98903C8.91413 32.4697 8.85339 32.4091 8.85339 32.3341V32.3193C8.85339 32.2444 8.91403 32.1837 8.98903 32.1837H9.55807C9.63298 32.1837 9.69372 32.2443 9.69372 32.3193V32.6202C9.69372 32.6951 9.75436 32.7558 9.82936 32.7558H10.9529C11.0278 32.7558 11.0885 32.6952 11.0885 32.6202V32.0402C11.0883 31.9653 11.0275 31.9046 10.9526 31.9046ZM10.3948 31.9046H10.3871C10.3122 31.9046 10.2514 31.9652 10.2514 32.0402V32.0479C10.2514 32.1228 10.3121 32.1836 10.3871 32.1836H10.3948C10.4697 32.1836 10.5304 32.1229 10.5304 32.0479V32.0402C10.5304 31.9653 10.4697 31.9046 10.3948 31.9046ZM10.9526 33.0418H7.58728C7.51237 33.0418 7.45163 33.1024 7.45163 33.1774V33.1923C7.45163 33.2672 7.51228 33.3279 7.58728 33.3279H10.9527C11.0276 33.3279 11.0883 33.2673 11.0883 33.1923V33.1774C11.0883 33.1024 11.0275 33.0418 10.9526 33.0418ZM7.58728 31.9046H8.16003C8.23493 31.9046 8.29567 31.9652 8.29567 32.0402V32.6202C8.29567 32.6951 8.23503 32.7558 8.16003 32.7558H7.3155C7.2406 32.7558 7.17986 32.8165 7.17986 32.8915V33.1924C7.17986 33.2673 7.11921 33.328 7.04421 33.328H7.03298C6.95808 33.328 6.89734 33.2674 6.89734 33.1924V32.3193C6.89734 32.2444 6.83669 32.1837 6.76169 32.1837H6.75417C6.67927 32.1837 6.61853 32.2443 6.61853 32.3193V33.1924C6.61853 33.2673 6.55788 33.328 6.48288 33.328H6.47878C6.40388 33.328 6.34314 33.2674 6.34314 33.1924V32.3193C6.34314 32.2444 6.28249 32.1837 6.20749 32.1837H6.19626C6.12136 32.1837 6.06062 32.2443 6.06062 32.3193V33.1924C6.06062 33.2673 5.99998 33.328 5.92498 33.328H5.91726C5.84236 33.328 5.78162 33.2674 5.78162 33.1924V32.0403C5.78162 31.9654 5.84226 31.9047 5.91726 31.9047H7.04421C7.11911 31.9047 7.17986 31.9653 7.17986 32.0403V32.3341C7.17986 32.409 7.2405 32.4697 7.3155 32.4697H7.88093C7.95583 32.4697 8.01657 32.4091 8.01657 32.3341V32.3193C8.01657 32.2444 7.95593 32.1837 7.88093 32.1837H7.58747C7.51257 32.1837 7.45183 32.123 7.45183 32.048V32.0403C7.45153 31.9653 7.51237 31.9046 7.58728 31.9046Z" fill="#F5F5F5"/>
<path d="M5.36728 31.9046H5.35956C5.28466 31.9046 5.22392 31.9652 5.22392 32.0402V32.334C5.22392 32.4089 5.16327 32.4696 5.08827 32.4696H4.52284C4.44794 32.4696 4.3872 32.409 4.3872 32.334V32.0402C4.3872 31.9653 4.32655 31.9046 4.25155 31.9046H3.1247C3.0498 31.9046 2.98906 31.9652 2.98906 32.0402V32.6202C2.98906 32.6951 3.0497 32.7558 3.1247 32.7558H3.68661C3.76152 32.7558 3.82226 32.6952 3.82226 32.6202V32.6053C3.82226 32.5304 3.76161 32.4697 3.68661 32.4697H3.39999C3.32509 32.4697 3.26435 32.4091 3.26435 32.3341V32.3193C3.26435 32.2444 3.32499 32.1837 3.39999 32.1837H3.97275C4.04765 32.1837 4.10839 32.2443 4.10839 32.3193V32.6202C4.10839 32.6951 4.16904 32.7558 4.24404 32.7558H5.36728C5.44218 32.7558 5.50292 32.6952 5.50292 32.6202V32.0402C5.50292 31.9653 5.44218 31.9046 5.36728 31.9046ZM4.80946 31.9046H4.80175C4.72685 31.9046 4.66611 31.9652 4.66611 32.0402V32.0479C4.66611 32.1228 4.72675 32.1836 4.80175 32.1836H4.80946C4.88437 32.1836 4.94511 32.1229 4.94511 32.0479V32.0402C4.94501 31.9653 4.88437 31.9046 4.80946 31.9046ZM5.36728 33.0418H2.00918C1.93427 33.0418 1.87353 33.1024 1.87353 33.1774V33.1923C1.87353 33.2672 1.93418 33.3279 2.00918 33.3279H5.36737C5.44228 33.3279 5.50302 33.2673 5.50302 33.1923V33.1774C5.50292 33.1024 5.44218 33.0418 5.36728 33.0418ZM2.00918 31.9046H2.5746C2.64951 31.9046 2.71025 31.9652 2.71025 32.0402V32.6202C2.71025 32.6951 2.6496 32.7558 2.5746 32.7558H1.72314C1.64824 32.7558 1.5875 32.8165 1.5875 32.8915V33.1924C1.5875 33.2673 1.52685 33.328 1.45185 33.328H1.45146C1.37656 33.328 1.31582 33.2674 1.31582 33.1924V32.3193C1.31582 32.2444 1.25517 32.1837 1.18017 32.1837H1.16513C1.09023 32.1837 1.02949 32.2443 1.02949 32.3193V33.1924C1.02949 33.2673 0.968846 33.328 0.893846 33.328H0.893553C0.818651 33.328 0.757909 33.2674 0.757909 33.1924V32.3193C0.757909 32.2444 0.697265 32.1837 0.622265 32.1837H0.614452C0.53955 32.1837 0.478808 32.2443 0.478808 32.3193V33.1924C0.478808 33.2673 0.418164 33.328 0.343164 33.328H0.328515C0.253613 33.328 0.192871 33.2674 0.192871 33.1924V32.0403C0.192871 31.9654 0.253516 31.9047 0.328515 31.9047H1.45176C1.52666 31.9047 1.5874 31.9653 1.5874 32.0403V32.3341C1.5874 32.409 1.64804 32.4697 1.72304 32.4697H2.2957C2.3706 32.4697 2.43134 32.4091 2.43134 32.3341V32.3193C2.43134 32.2444 2.3707 32.1837 2.2957 32.1837H2.00927C1.93437 32.1837 1.87363 32.123 1.87363 32.048V32.0403C1.87353 31.9653 1.93427 31.9046 2.00918 31.9046Z" fill="#F5F5F5"/>
<path d="M50.0571 31.0393H47.8147C47.7398 31.0393 47.679 31.1 47.679 31.175V31.4759C47.679 31.5508 47.7397 31.6115 47.8147 31.6115H50.0571C50.132 31.6115 50.1928 31.5509 50.1928 31.4759V31.175C50.1928 31.1 50.1321 31.0393 50.0571 31.0393ZM47.261 31.0393H45.022C44.9471 31.0393 44.8864 31.1 44.8864 31.175V31.4759C44.8864 31.5508 44.947 31.6115 45.022 31.6115H47.261C47.3359 31.6115 47.3966 31.5509 47.3966 31.4759V31.175C47.3966 31.1 47.3359 31.0393 47.261 31.0393Z" fill="#F5F5F5"/>
<path d="M44.4685 31.0393H42.2295C42.1546 31.0393 42.0939 31.1 42.0939 31.175V31.4759C42.0939 31.5508 42.1545 31.6115 42.2295 31.6115H44.4685C44.5434 31.6115 44.6041 31.5509 44.6041 31.4759V31.175C44.604 31.1 44.5433 31.0393 44.4685 31.0393ZM41.6793 31.0393H39.4333C39.3584 31.0393 39.2976 31.1 39.2976 31.175V31.4759C39.2976 31.5508 39.3583 31.6115 39.4333 31.6115H41.6793C41.7542 31.6115 41.815 31.5509 41.815 31.4759V31.175C41.815 31.1 41.7543 31.0393 41.6793 31.0393Z" fill="#F5F5F5"/>
<path d="M38.883 31.0393H36.6405C36.5656 31.0393 36.5049 31.1 36.5049 31.175V31.4759C36.5049 31.5508 36.5655 31.6115 36.6405 31.6115H38.883C38.9579 31.6115 39.0186 31.5509 39.0186 31.4759V31.175C39.0187 31.1 38.9579 31.0393 38.883 31.0393ZM36.0904 31.0393H33.8479C33.773 31.0393 33.7123 31.1 33.7123 31.175V31.4759C33.7123 31.5508 33.7729 31.6115 33.8479 31.6115H36.0904C36.1653 31.6115 36.226 31.5509 36.226 31.4759V31.175C36.226 31.1 36.1652 31.0393 36.0904 31.0393Z" fill="#F5F5F5"/>
<path d="M33.2975 31.0393H31.055C30.9801 31.0393 30.9194 31.1 30.9194 31.175V31.4759C30.9194 31.5508 30.98 31.6115 31.055 31.6115H33.2975C33.3724 31.6115 33.4331 31.5509 33.4331 31.4759V31.175C33.433 31.1 33.3723 31.0393 33.2975 31.0393ZM30.5083 31.0393H28.2622C28.1873 31.0393 28.1266 31.1 28.1266 31.175V31.4759C28.1266 31.5508 28.1872 31.6115 28.2622 31.6115H30.5083C30.5832 31.6115 30.644 31.5509 30.644 31.4759V31.175C30.644 31.1 30.5833 31.0393 30.5083 31.0393Z" fill="#F5F5F5"/>
<path d="M27.7124 31.0393H25.4697C25.3948 31.0393 25.3341 31.1 25.3341 31.175V31.4759C25.3341 31.5508 25.3947 31.6115 25.4697 31.6115H27.7124C27.7873 31.6115 27.848 31.5509 27.848 31.4759V31.175C27.8479 31.1 27.7873 31.0393 27.7124 31.0393ZM24.9197 31.0393H22.677C22.6021 31.0393 22.5414 31.1 22.5414 31.175V31.4759C22.5414 31.5508 22.602 31.6115 22.677 31.6115H24.9197C24.9946 31.6115 25.0553 31.5509 25.0553 31.4759V31.175C25.0552 31.1 24.9946 31.0393 24.9197 31.0393Z" fill="#F5F5F5"/>
<path d="M22.127 31.0393H19.8844C19.8095 31.0393 19.7487 31.1 19.7487 31.175V31.4759C19.7487 31.5508 19.8094 31.6115 19.8844 31.6115H22.127C22.2019 31.6115 22.2627 31.5509 22.2627 31.4759V31.175C22.2627 31.1 22.2019 31.0393 22.127 31.0393ZM19.3307 31.0393H17.0917C17.0168 31.0393 16.9561 31.1 16.9561 31.175V31.4759C16.9561 31.5508 17.0167 31.6115 17.0917 31.6115H19.3307C19.4056 31.6115 19.4663 31.5509 19.4663 31.4759V31.175C19.4663 31.1 19.4056 31.0393 19.3307 31.0393Z" fill="#F5F5F5"/>
<path d="M16.5416 31.0393H14.299C14.2241 31.0393 14.1633 31.1 14.1633 31.175V31.4759C14.1633 31.5508 14.224 31.6115 14.299 31.6115H16.5416C16.6165 31.6115 16.6773 31.5509 16.6773 31.4759V31.175C16.6772 31.1 16.6165 31.0393 16.5416 31.0393ZM13.7453 31.0393H11.5065C11.4316 31.0393 11.3708 31.1 11.3708 31.175V31.4759C11.3708 31.5508 11.4315 31.6115 11.5065 31.6115H13.7453C13.8202 31.6115 13.8809 31.5509 13.8809 31.4759V31.175C13.8808 31.1 13.8202 31.0393 13.7453 31.0393Z" fill="#F5F5F5"/>
<path d="M10.9526 31.0393H8.71374C8.63884 31.0393 8.57809 31.1 8.57809 31.175V31.4759C8.57809 31.5508 8.63874 31.6115 8.71374 31.6115H10.9527C11.0276 31.6115 11.0883 31.5509 11.0883 31.4759V31.175C11.0883 31.1 11.0275 31.0393 10.9526 31.0393ZM8.15993 31.0393H5.91726C5.84236 31.0393 5.78162 31.1 5.78162 31.175V31.4759C5.78162 31.5508 5.84226 31.6115 5.91726 31.6115H8.15993C8.23483 31.6115 8.29558 31.5509 8.29558 31.4759V31.175C8.29558 31.1 8.23483 31.0393 8.15993 31.0393Z" fill="#F5F5F5"/>
<path d="M5.36728 31.0393H3.1247C3.0498 31.0393 2.98906 31.1 2.98906 31.175V31.4759C2.98906 31.5508 3.0497 31.6115 3.1247 31.6115H5.36737C5.44228 31.6115 5.50302 31.5509 5.50302 31.4759V31.175C5.50292 31.1 5.44218 31.0393 5.36728 31.0393ZM2.57451 31.0393H0.328515C0.253516 31.0393 0.192871 31.1 0.192871 31.175V31.4759C0.192871 31.5508 0.253516 31.6115 0.328515 31.6115H2.5746C2.64951 31.6115 2.71025 31.5509 2.71025 31.4759V31.175C2.71025 31.1 2.64951 31.0393 2.57451 31.0393Z" fill="#F5F5F5"/>
<path d="M24.4779 21.7922C24.7335 21.8604 25.0066 21.7853 25.1941 21.5944C25.4771 21.8809 25.9408 21.8877 26.2342 21.6081C26.4252 21.424 26.5036 21.1443 26.4354 20.8919C26.1865 21.2944 25.6614 21.424 25.259 21.1715C25.2385 21.1577 25.2113 21.1442 25.1943 21.1305C24.8158 21.4101 24.2805 21.3351 23.994 20.9601C23.9836 20.9395 23.9633 20.9122 23.9495 20.8919C23.8471 21.2877 24.0858 21.6967 24.4779 21.7922Z" fill="#FF4B55"/>
<path d="M26.0665 29.7591C26.9831 29.2559 27.748 28.463 28.1675 27.4187C28.8817 25.6286 28.4319 23.6081 27.0656 22.2976C27.0186 22.2526 26.9472 22.3128 26.9813 22.3683C28.3289 24.5658 27.798 27.4536 25.7128 29.0361L25.8125 22.6526C25.8139 22.5659 25.7752 22.4834 25.7079 22.4288L25.3687 22.1547C25.2648 22.0707 25.1164 22.0712 25.0131 22.1557L24.6789 22.4288C24.6122 22.4833 24.5741 22.5654 24.5755 22.6515L24.6723 29.0395C22.5868 27.4578 22.0548 24.5674 23.4003 22.3684C23.4343 22.3129 23.3629 22.2527 23.316 22.2978C21.9523 23.6083 21.4997 25.6287 22.2139 27.4187C22.6333 28.4628 23.3981 29.2558 24.315 29.759C23.7315 29.959 23.1183 30.0651 22.4981 30.0473C22.4326 30.0454 22.4194 30.1376 22.4822 30.1566C23.2701 30.3957 24.0805 30.4121 24.8424 30.2413L25.1415 30.8217C25.1622 30.8617 25.2195 30.8619 25.2403 30.8218L25.5415 30.2416C26.3034 30.4121 27.114 30.3954 27.9025 30.1563C27.9652 30.1373 27.9521 30.0451 27.8866 30.047C27.2657 30.0651 26.651 29.959 26.0665 29.7591Z" fill="#FF4B55"/>
<path d="M29.7975 23.8246C29.3284 22.9482 28.5493 22.2838 27.6218 21.9583C27.5637 21.9379 27.5184 22.0147 27.5659 22.0538C29.6133 23.7405 30.0238 26.7445 28.4405 28.9193C28.3585 29.0284 28.2699 29.1444 28.1846 29.2397C30.1285 28.1962 30.8479 25.7684 29.7975 23.8246Z" fill="#FF4B55"/>
<path d="M21.9443 28.9192C20.3609 26.7444 20.7682 23.7405 22.8152 22.0539C22.8628 22.0147 22.8174 21.9381 22.7593 21.9584C21.833 22.284 21.0593 22.9482 20.5871 23.8246C19.5301 25.7684 20.2564 28.1962 22.2035 29.2396C22.1115 29.1442 22.0228 29.0284 21.9443 28.9192Z" fill="#FF4B55"/>
</g>
<defs>
<clipPath id="clip0_108_48711">
<rect width="50" height="50" fill="white" transform="translate(0.191406 0.866943)"/>
</clipPath>
</defs>
</svg>
