<svg width="51" height="51" viewBox="0 0 51 51" fill="none" xmlns="http://www.w3.org/2000/svg">
<g clip-path="url(#clip0_108_48699)">
<path d="M50.6044 19.7004H0.604492V9.64288C0.604492 9.16681 0.990527 8.78077 1.4666 8.78077H49.7424C50.2185 8.78077 50.6045 9.16681 50.6045 9.64288L50.6044 19.7004Z" fill="#FF4B55"/>
<path d="M49.7423 41.5394H1.4666C0.990527 41.5394 0.604492 41.1534 0.604492 40.6773V30.6199H50.6044V40.6773C50.6044 41.1535 50.2184 41.5394 49.7423 41.5394Z" fill="#464655"/>
<path d="M50.6044 19.7002H0.604492V30.6191H50.6044V19.7002Z" fill="#F5F5F5"/>
<path d="M30.6888 22.9653C30.5982 22.9181 30.4908 22.7494 30.5243 22.6756C30.5596 22.5981 30.5047 22.6048 30.69 22.6598C31.0249 22.7466 31.2417 22.707 31.4545 22.5258L31.6437 22.3761L31.8645 22.4865C31.9865 22.5416 32.1126 22.5809 32.1482 22.573C32.2506 22.5494 32.4479 22.2971 32.4438 22.2104C32.4398 22.0925 32.5265 22.1239 32.5698 22.25C32.6605 22.4865 32.4938 22.8944 32.2653 22.9496C32.1551 22.981 32.0526 22.9732 31.879 22.9181C31.6741 22.8392 31.6425 22.8392 31.5323 22.9181C31.3036 23.0994 30.9765 23.1153 30.6888 22.9653Z" fill="#73AF00"/>
<path d="M31.5518 22.0529C31.4413 21.8979 31.3084 21.3556 31.3472 21.2229C31.3858 21.1011 31.4246 21.079 31.5297 21.1122C31.7178 21.1785 31.7623 21.3004 31.7399 21.7432C31.7068 22.075 31.6627 22.1858 31.5518 22.0529Z" fill="#73AF00"/>
<path d="M24.1401 24.4502C23.6859 24.7086 23.0103 24.753 23.0103 25.4691C22.021 25.5059 20.8544 25.5503 19.8023 25.5281C20.0874 25.1597 21.8922 23.4917 22.6427 22.8305C22.7669 22.7212 22.8091 22.5094 22.7368 22.3605L22.7174 22.3205C22.6092 22.0973 22.3149 22.0442 22.1356 22.2156C21.3877 22.931 20.6466 23.5976 20.5259 23.7119C19.5577 24.6904 19.2738 24.9756 19.1216 25.1287C19.0133 25.2378 18.9531 25.3851 18.9538 25.5388V25.5489C18.9556 25.8682 19.2149 26.1261 19.5341 26.1261H23.7705C24.0106 26.1261 23.7154 25.2919 24.0253 25.2919C24.2408 25.2919 24.2607 25.5912 24.2512 25.9083C24.244 26.1495 24.0452 26.3403 23.804 26.3406C21.9725 26.3431 20.0658 26.3606 18.2717 26.3623C18.1236 26.3624 18.0046 26.2422 18.0046 26.0939V25.7712C18.0046 25.4975 17.7007 25.3384 17.472 25.4886C17.4636 25.4941 17.4554 25.4994 17.4472 25.5045C17.3277 25.5792 17.2665 25.7255 17.3132 25.8584C17.3435 25.9447 17.3567 26.0498 17.3595 26.1596C17.3634 26.3048 17.2452 26.4246 17.0999 26.4291C16.5066 26.4472 15.8618 26.4526 15.6787 26.1027C15.5753 25.9054 15.3555 25.8123 15.1562 25.9119L15.1297 25.9252C14.92 26.03 14.836 26.2895 14.9508 26.4939C15.1694 26.8825 15.3688 27.3333 15.2653 27.9646C15.1809 28.1635 15.0219 28.2881 14.8496 28.4003C14.6582 28.5249 14.7784 28.8165 15.0029 28.775C15.5472 28.6744 15.9223 28.2435 16.037 27.7357H24.4765C24.786 27.7357 25.0369 27.4847 25.0369 27.1753V25.3437C24.9596 24.7972 24.3726 24.8194 24.1401 24.4502Z" fill="#73AF00"/>
<path d="M34.8447 22.03C34.9693 22.11 35.094 22.1902 35.2329 22.2564C35.3849 22.329 35.443 22.5145 35.3541 22.6575C35.3306 22.6953 35.3111 22.7376 35.2998 22.789V26.4215C35.5481 26.4731 35.6906 26.4242 35.8037 26.3462C35.9315 26.2581 36.1041 26.3221 36.1445 26.472C36.2301 26.7906 36.3703 27.1018 36.4451 27.3852C36.4919 27.5623 36.3589 27.7356 36.1757 27.7356H34.7527C34.6267 27.7356 34.5245 27.6335 34.5245 27.5075V22.2048C34.5244 22.0404 34.7065 21.941 34.8447 22.03Z" fill="#73AF00"/>
<path d="M33.1216 22.9145C33.1226 23.9175 33.1343 24.998 33.136 26.0732C33.1362 26.2126 33.0232 26.3254 32.8839 26.3254H32.8676C32.7284 26.3254 32.6156 26.2127 32.6156 26.0735V23.5256C32.6156 23.387 32.4526 23.3129 32.3483 23.4041L32.0143 23.6926C31.946 23.7516 31.9067 23.8365 31.9064 23.9267C31.9053 24.3412 31.9016 25.5478 31.9002 26.0746C31.8998 26.2133 31.7871 26.3254 31.6482 26.3254H31.6254C31.4869 26.3254 31.3744 26.2142 31.3734 26.0757C31.371 25.7251 31.3667 25.0752 31.3649 24.5877C31.3643 24.4474 31.1985 24.3742 31.093 24.4666C30.7471 24.7698 30.6672 24.8383 30.4856 25.0259C30.5004 25.1219 30.5743 25.0259 30.6185 25.0997V25.5871C29.358 25.3498 29.2639 26.3568 29.3111 27.4373C29.3182 27.5997 29.4515 27.7281 29.614 27.7281H33.5717C33.7184 27.7281 33.8374 27.6091 33.8374 27.4624V22.5424C33.8374 22.378 33.6424 22.2936 33.5211 22.4047C33.4244 22.4931 33.3212 22.5817 33.2325 22.6619C33.1614 22.7268 33.1215 22.818 33.1216 22.9145ZM30.209 26.2886C30.1315 26.067 30.5672 25.9858 30.6187 26.1853C30.6372 26.4289 30.3051 26.4363 30.209 26.2886Z" fill="#73AF00"/>
<path d="M17.1371 28.1269C17.2885 28.1269 17.4102 28.2525 17.4102 28.4001C17.4102 28.5552 17.2885 28.6733 17.1371 28.6733C16.9821 28.6733 16.8564 28.5552 16.8564 28.4001C16.8565 28.2525 16.9822 28.1269 17.1371 28.1269Z" fill="#73AF00"/>
<path d="M26.1357 22.1413C26.2096 22.1857 26.2856 22.2282 26.3665 22.2664C26.5126 22.3354 26.5702 22.517 26.4809 22.6516C26.454 22.6922 26.4311 22.7382 26.4176 22.7964V26.4215C26.6807 26.48 26.8245 26.4226 26.9393 26.3378C27.0535 26.2533 27.218 26.3117 27.2546 26.4489C27.3203 26.695 27.4192 26.9384 27.4954 27.1694C27.5888 27.4519 27.3792 27.743 27.0817 27.743H25.9716C25.7918 27.743 25.6461 27.5973 25.6461 27.4175V22.4221C25.6461 22.1709 25.9202 22.0119 26.1357 22.1413Z" fill="#73AF00"/>
</g>
<defs>
<clipPath id="clip0_108_48699">
<rect width="50" height="50" fill="white" transform="translate(0.603516 0.160156)"/>
</clipPath>
</defs>
</svg>
