<svg width="51" height="51" viewBox="0 0 51 51" fill="none" xmlns="http://www.w3.org/2000/svg">
<g clip-path="url(#clip0_108_48631)">
<path d="M49.89 41.5394H1.61431C1.13823 41.5394 0.752197 41.1534 0.752197 40.6773V9.64288C0.752197 9.16681 1.13823 8.78077 1.61431 8.78077H49.8901C50.3662 8.78077 50.7522 9.16681 50.7522 9.64288V40.6773C50.7521 41.1535 50.3661 41.5394 49.89 41.5394Z" fill="#41479B"/>
<path d="M50.7521 14.8154H0.752197V35.5048H50.7521V14.8154Z" fill="#F5F5F5"/>
<path d="M30.2314 25.1601L32.471 21.2811H27.992L25.752 17.4015L23.5122 21.2811H19.0332L21.2727 25.1601L19.0332 29.0391H23.5122L25.752 32.9187L27.9919 29.0391H32.4709L30.2314 25.1601ZM30.2737 22.5498L29.499 23.8916L28.7243 22.5498H30.2737ZM28.7666 25.1601L27.2595 27.7705H24.2445L22.7375 25.1601L24.2446 22.5498H27.2596L28.7666 25.1601ZM25.752 19.9388L26.527 21.2812H24.977L25.752 19.9388ZM21.2304 22.5498H22.7797L22.005 23.8916L21.2304 22.5498ZM21.2304 27.7705L22.0051 26.4287L22.7798 27.7705H21.2304ZM25.752 30.3814L24.977 29.039H26.527L25.752 30.3814ZM29.499 26.4287L30.2737 27.7705H28.7244L29.499 26.4287Z" fill="#41479B"/>
</g>
<defs>
<clipPath id="clip0_108_48631">
<rect width="50" height="50" fill="white" transform="translate(0.751953 0.160156)"/>
</clipPath>
</defs>
</svg>
