<svg width="51" height="51" viewBox="0 0 51 51" fill="none" xmlns="http://www.w3.org/2000/svg">
<g clip-path="url(#clip0_108_48561)">
<path d="M50.036 41.5394H1.7603C1.28423 41.5394 0.898193 41.1534 0.898193 40.6773V9.64288C0.898193 9.16681 1.28423 8.78077 1.7603 8.78077H50.0361C50.5122 8.78077 50.8982 9.16681 50.8982 9.64288V40.6773C50.8981 41.1535 50.5121 41.5394 50.036 41.5394Z" fill="#F5F5F5"/>
<path d="M50.8981 9.64288C50.8981 9.16681 50.5121 8.78077 50.036 8.78077H47.7519L25.8981 23.0989L4.04428 8.78087H1.7603C1.28423 8.78087 0.898193 9.16681 0.898193 9.64288V10.842L22.7521 25.1601L0.898193 39.4782V40.6773C0.898193 41.1534 1.28423 41.5394 1.7603 41.5394H4.04438L25.8981 27.2214L47.752 41.5394H50.0361C50.5122 41.5394 50.8982 41.1534 50.8982 40.6773V39.4782L29.0442 25.1601L50.8981 10.8421V9.64288Z" fill="#FF4B55"/>
<path d="M28.4916 12.5488C28.4916 12.5488 28.2187 12.1394 27.8092 12.4123C27.8092 12.4123 28.2827 12.7536 27.9627 13.1119C27.6241 13.4911 27.1587 13.1202 27.1295 12.8484C27.2536 12.839 27.3518 12.7363 27.3518 12.6098C27.3518 12.4769 27.2442 12.3692 27.1112 12.3692C26.9783 12.3692 26.8707 12.4769 26.8707 12.6098C26.8707 12.7135 26.9367 12.8011 27.0287 12.8349C26.97 13.0675 26.3599 13.2455 26.184 12.8603C25.986 12.4266 26.2992 12.0583 26.7215 12.1095C26.7215 12.1095 26.6404 11.5721 26.069 11.7981C26.069 11.7981 26.3078 11.1838 25.8984 10.7743C25.4889 11.1838 25.7278 11.7981 25.7278 11.7981C25.1562 11.572 25.0752 12.1095 25.0752 12.1095C25.4975 12.0583 25.8107 12.4264 25.6127 12.8603C25.4368 13.2455 24.8267 13.0675 24.768 12.8349C24.86 12.8012 24.926 12.7136 24.926 12.6098C24.926 12.4769 24.8184 12.3692 24.6855 12.3692C24.5526 12.3692 24.4449 12.4769 24.4449 12.6098C24.4449 12.7364 24.5431 12.839 24.6672 12.8484C24.638 13.1202 24.1725 13.4911 23.834 13.1119C23.5141 12.7536 23.9875 12.4123 23.9875 12.4123C23.5781 12.1394 23.3051 12.5488 23.3051 12.5488C23.1686 12.0028 22.6227 12.1394 22.6227 12.1394C23.1687 12.8218 23.5701 14.2296 23.5701 14.2296H28.2271C28.2271 14.2296 28.6284 12.8219 29.1745 12.1394C29.174 12.1394 28.628 12.0028 28.4916 12.5488Z" fill="#FFE15A"/>
<path d="M28.2263 14.2296C27.473 13.9641 26.6854 13.8314 25.8979 13.8314C25.1104 13.8314 24.3228 13.9641 23.5695 14.2296C22.3481 19.5811 25.8979 21.0114 25.8979 21.0114C25.8979 21.0114 29.4477 19.5811 28.2263 14.2296Z" fill="#FF4B55"/>
<path d="M24.194 16.1336C24.194 16.1336 24.0821 16.1125 23.9847 16.1904C23.9847 16.1904 23.9506 16.0559 24.1257 16.0234C24.301 15.9908 24.194 16.1336 24.194 16.1336Z" fill="#82AFFF"/>
<path d="M24.0595 15.9634C24.0595 15.9634 23.9708 15.8919 23.8483 15.9145C23.8483 15.9145 23.8819 15.7799 24.0516 15.8341C24.2213 15.8882 24.0595 15.9634 24.0595 15.9634Z" fill="#82AFFF"/>
<path d="M24.1327 16.0331C24.1327 16.0331 24.0105 16.012 23.904 16.0899C23.904 16.0899 23.8668 15.9554 24.0582 15.9229C24.2496 15.8904 24.1327 16.0331 24.1327 16.0331Z" fill="#82AFFF"/>
<path d="M26.2509 16.3906C26.2509 16.3906 26.1371 16.396 26.0605 16.4943C26.0605 16.4943 25.9962 16.3713 26.1591 16.2992C26.3219 16.2271 26.2509 16.3906 26.2509 16.3906Z" fill="#82AFFF"/>
<path d="M26.084 16.2439C26.084 16.2439 25.9812 16.1949 25.8672 16.2453C25.8672 16.2453 25.8687 16.1064 26.0463 16.1199C26.2239 16.1334 26.084 16.2439 26.084 16.2439Z" fill="#82AFFF"/>
<path d="M26.1681 16.307C26.1681 16.307 26.0442 16.3147 25.9587 16.4151C25.9587 16.4151 25.8914 16.2929 26.0702 16.217C26.249 16.1411 26.1681 16.307 26.1681 16.307Z" fill="#82AFFF"/>
<path d="M27.5505 16.4609C27.5505 16.4609 27.5079 16.4609 27.4317 16.5327C27.4317 16.5327 27.3771 16.4106 27.5378 16.3507C27.6988 16.2907 27.5505 16.4609 27.5505 16.4609Z" fill="#82AFFF"/>
<path d="M27.4691 16.2933C27.4691 16.2933 27.3731 16.2401 27.2606 16.2819C27.2606 16.2819 27.2701 16.1485 27.4401 16.1717C27.6101 16.195 27.4691 16.2933 27.4691 16.2933Z" fill="#82AFFF"/>
<path d="M27.5461 16.3588C27.5461 16.3588 27.4265 16.3591 27.3386 16.4506C27.3386 16.4506 27.281 16.329 27.4572 16.2664C27.6335 16.2039 27.5461 16.3588 27.5461 16.3588Z" fill="#82AFFF"/>
<path d="M24.0074 15.2891C24.0074 15.2891 23.9046 15.2207 23.7743 15.2569C23.7743 15.2569 23.7975 15.1086 23.9862 15.1504C24.175 15.1922 24.0074 15.2891 24.0074 15.2891Z" fill="#82AFFF"/>
<path d="M23.9985 15.033C23.9985 15.033 23.9321 14.9286 23.7904 14.9194C23.7904 14.9194 23.8821 14.7787 24.0431 14.8867C24.2043 14.9945 23.9985 15.033 23.9985 15.033Z" fill="#82AFFF"/>
<path d="M23.9992 15.1689C23.9992 15.1689 23.8908 15.0889 23.7476 15.1184C23.7476 15.1184 23.7798 14.9618 23.9827 15.0196C24.1857 15.0776 23.9992 15.1689 23.9992 15.1689Z" fill="#82AFFF"/>
<path d="M27.223 15.6372C27.4031 15.6421 27.6171 15.5707 27.6511 15.3842C27.6903 15.1698 27.5067 15.0614 27.2603 15.0711C27.0804 15.0782 26.6249 15.1816 26.2986 15.17C25.9759 15.1587 25.9671 14.8394 26.4559 14.8733C27.1809 14.9235 27.2961 14.8295 27.2961 14.8295C26.9068 14.9024 26.7511 14.7662 26.3376 14.7662C25.924 14.7662 25.8446 15.0526 26.0116 15.209C26.1987 15.3842 26.8776 15.2674 27.0577 15.2333C27.2378 15.1992 27.4661 15.1975 27.4842 15.3241C27.5003 15.4377 27.1987 15.4316 26.985 15.4233C26.645 15.4103 26.1501 15.5025 25.7098 15.5253C25.343 15.5442 25.292 15.4408 25.2085 15.3349C25.228 15.2996 25.2391 15.2603 25.2391 15.2187C25.2391 15.1977 25.2358 15.1774 25.2305 15.1576C25.2583 15.1273 25.2874 15.0786 25.3007 14.9996C25.3007 14.9996 25.2068 14.9831 25.1359 15.019C25.0791 14.9741 25.0038 14.9461 24.9205 14.9461C24.8371 14.9461 24.7619 14.9741 24.7051 15.019C24.6342 14.9832 24.5403 14.9996 24.5403 14.9996C24.5537 15.0787 24.5828 15.1272 24.6104 15.1576C24.6052 15.1773 24.6018 15.1975 24.6018 15.2187C24.6018 15.295 24.6386 15.3641 24.6978 15.4136C24.7263 15.4375 24.7476 15.469 24.7549 15.5055L24.7651 15.5573C24.7696 15.5801 24.7843 15.5979 24.8033 15.6087C24.501 15.5775 24.3578 15.3875 24.2844 15.2818C24.2014 15.1627 24.1498 14.8991 24.0232 14.8699L23.9486 15.2674C23.9486 15.2674 24.1085 15.6371 24.4059 15.788C24.7417 15.9582 24.805 15.9632 24.9152 16.0118C24.9281 16.0702 24.7076 16.1059 24.4838 16.0606C24.3275 16.0289 24.117 15.802 23.997 15.8182L24.1368 16.1286C24.5163 16.3687 24.848 16.3737 25.1326 16.3232C25.3337 16.2876 25.4101 16.1238 25.4234 16.0537C25.5055 16.0385 25.595 16.0215 25.8721 15.9534C25.9882 15.9249 26.1218 15.9099 26.2549 15.9036C26.2924 15.9892 26.3781 16.0987 26.6733 16.1091C26.6733 16.1091 26.7446 16.2227 26.5014 16.1999C26.2581 16.1772 26.1958 16.1014 26.0529 16.1176L26.1802 16.4205C26.1802 16.4205 26.4917 16.3135 26.8744 16.3524C26.8744 16.3524 26.9457 16.372 26.988 16.3104C27.0301 16.2487 27.0107 16.2131 26.9717 16.1579C26.9498 16.1269 26.9371 16.0263 26.9302 15.944C27.0705 15.9792 27.5007 15.8919 27.6561 15.905C27.8118 15.9179 27.8345 16.0996 27.7988 16.1612C27.7632 16.2229 27.4372 16.1702 27.4372 16.1702L27.5467 16.4694C27.5467 16.4694 27.5796 16.4536 27.6626 16.3754C27.7301 16.3118 28.0064 16.3333 28.0064 16.2846V15.7303C28.0064 15.704 27.9836 15.6835 27.9574 15.6858C27.3478 15.7389 27.223 15.6372 27.223 15.6372Z" fill="#FFE15A"/>
<path d="M24.7928 15.4402C24.802 15.4581 24.8088 15.4775 24.8125 15.4982L24.8217 15.55C24.8249 15.5682 24.8392 15.5814 24.8558 15.5814H24.9972C25.0138 15.5814 25.0282 15.5682 25.0314 15.55L25.0406 15.4982C25.0443 15.4775 25.051 15.4582 25.0602 15.4402H24.7928Z" fill="#FF4B55"/>
<path d="M24.9259 15.5426C24.8933 15.5426 24.8678 15.5466 24.8713 15.5919L24.8845 15.7858C24.8867 15.8153 24.9046 15.8379 24.9259 15.8379C24.9471 15.8379 24.9651 15.8153 24.9673 15.7858L24.9805 15.5919C24.9839 15.5466 24.9584 15.5426 24.9259 15.5426Z" fill="#82AFFF"/>
<path d="M24.5048 18.0479C24.5048 18.0479 24.4135 18.0306 24.3341 18.0941C24.3341 18.0941 24.3063 17.9844 24.4491 17.9578C24.5922 17.9315 24.5048 18.0479 24.5048 18.0479Z" fill="#82AFFF"/>
<path d="M24.3949 17.9091C24.3949 17.9091 24.3227 17.8508 24.2227 17.8692C24.2227 17.8692 24.25 17.7593 24.3885 17.8035C24.527 17.8477 24.3949 17.9091 24.3949 17.9091Z" fill="#82AFFF"/>
<path d="M24.4548 17.9659C24.4548 17.9659 24.355 17.9486 24.2683 18.0122C24.2683 18.0122 24.2379 17.9024 24.394 17.8759C24.5501 17.8495 24.4548 17.9659 24.4548 17.9659Z" fill="#82AFFF"/>
<path d="M26.1828 18.2576C26.1828 18.2576 26.09 18.262 26.0275 18.3421C26.0275 18.3421 25.9751 18.2417 26.108 18.1829C26.241 18.1242 26.1828 18.2576 26.1828 18.2576Z" fill="#82AFFF"/>
<path d="M26.0466 18.138C26.0466 18.138 25.9628 18.0981 25.8698 18.1391C25.8698 18.1391 25.8709 18.0258 26.0158 18.0368C26.1608 18.0478 26.0466 18.138 26.0466 18.138Z" fill="#82AFFF"/>
<path d="M26.1152 18.1894C26.1152 18.1894 26.0141 18.1957 25.9444 18.2776C25.9444 18.2776 25.8894 18.1777 26.0352 18.1159C26.1812 18.054 26.1152 18.1894 26.1152 18.1894Z" fill="#82AFFF"/>
<path d="M27.2425 18.3148C27.2425 18.3148 27.2078 18.3148 27.1455 18.3733C27.1455 18.3733 27.1009 18.2737 27.2321 18.225C27.3634 18.1761 27.2425 18.3148 27.2425 18.3148Z" fill="#82AFFF"/>
<path d="M27.176 18.1781C27.176 18.1781 27.0977 18.1348 27.0059 18.169C27.0059 18.169 27.0136 18.0602 27.1523 18.0791C27.291 18.098 27.176 18.1781 27.176 18.1781Z" fill="#82AFFF"/>
<path d="M27.239 18.2316C27.239 18.2316 27.1414 18.2317 27.0696 18.3065C27.0696 18.3065 27.0226 18.2073 27.1664 18.1563C27.3102 18.1052 27.239 18.2316 27.239 18.2316Z" fill="#82AFFF"/>
<path d="M24.3524 17.359C24.3524 17.359 24.2686 17.3033 24.1622 17.3328C24.1622 17.3328 24.1812 17.2117 24.3352 17.2459C24.4891 17.2801 24.3524 17.359 24.3524 17.359Z" fill="#82AFFF"/>
<path d="M24.3456 17.1501C24.3456 17.1501 24.2914 17.0648 24.1759 17.0574C24.1759 17.0574 24.2507 16.9427 24.3821 17.0307C24.5134 17.1188 24.3456 17.1501 24.3456 17.1501Z" fill="#82AFFF"/>
<path d="M24.3459 17.2611C24.3459 17.2611 24.2574 17.1957 24.1406 17.2198C24.1406 17.2198 24.1669 17.0921 24.3324 17.1394C24.498 17.1865 24.3459 17.2611 24.3459 17.2611Z" fill="#82AFFF"/>
<path d="M26.9752 17.6433C27.1221 17.6473 27.2967 17.5891 27.3244 17.4369C27.3564 17.2621 27.2067 17.1736 27.0056 17.1816C26.8588 17.1875 26.4872 17.2717 26.2211 17.2623C25.9578 17.253 25.9506 16.9926 26.3494 17.0202C26.9408 17.0612 27.0347 16.9846 27.0347 16.9846C26.7172 17.044 26.5902 16.9329 26.2528 16.9329C25.9154 16.9329 25.8507 17.1665 25.9868 17.2941C26.1395 17.437 26.6933 17.3418 26.8402 17.314C26.987 17.2861 27.1734 17.2847 27.1881 17.3881C27.2014 17.4807 26.9552 17.4757 26.781 17.469C26.5035 17.4584 26.0999 17.5337 25.7407 17.5521C25.4415 17.5676 25.3999 17.4832 25.3318 17.3969C25.3477 17.3681 25.3568 17.3361 25.3568 17.3021C25.3568 17.2851 25.3539 17.2685 25.3496 17.2524C25.3723 17.2276 25.3959 17.188 25.4069 17.1235C25.4069 17.1235 25.3302 17.1101 25.2725 17.1393C25.2262 17.1027 25.1648 17.0799 25.0967 17.0799C25.0286 17.0799 24.9673 17.1027 24.9209 17.1393C24.8632 17.1101 24.7865 17.1235 24.7865 17.1235C24.7974 17.188 24.8211 17.2276 24.8438 17.2524C24.8395 17.2685 24.8366 17.285 24.8366 17.3021C24.8366 17.3644 24.8667 17.4208 24.915 17.4611C24.9382 17.4807 24.9556 17.5062 24.9614 17.5361L24.9698 17.5785C24.9736 17.5971 24.9855 17.6115 25.001 17.6204C24.7543 17.595 24.6376 17.44 24.5778 17.3538C24.5102 17.2566 24.468 17.0416 24.3647 17.0178L24.3038 17.3419C24.3038 17.3419 24.4343 17.6435 24.6769 17.7666C24.9507 17.9055 25.0023 17.9095 25.0923 17.9491C25.1029 17.9968 24.923 18.0259 24.7404 17.9888C24.6129 17.9629 24.4412 17.7779 24.3433 17.791L24.4573 18.0442C24.7668 18.24 25.0374 18.2441 25.2696 18.2029C25.4335 18.1738 25.4959 18.0403 25.5068 17.9831C25.5737 17.9707 25.6466 17.9568 25.8728 17.9013C25.9675 17.878 26.0765 17.8657 26.1851 17.8606C26.2156 17.9305 26.2857 18.0199 26.5264 18.0282C26.5264 18.0282 26.5846 18.1208 26.3862 18.1022C26.1876 18.0837 26.1368 18.0219 26.0203 18.0351L26.1242 18.2822C26.1242 18.2822 26.3782 18.1949 26.6906 18.2267C26.6906 18.2267 26.7488 18.2425 26.7831 18.1923C26.8175 18.142 26.8017 18.1129 26.7698 18.068C26.752 18.0427 26.7417 17.9605 26.7361 17.8934C26.8504 17.9222 27.2014 17.8509 27.328 17.8614C27.4551 17.872 27.4736 18.0201 27.4445 18.0705C27.4154 18.1208 27.1494 18.0778 27.1494 18.0778L27.2388 18.3219C27.2388 18.3219 27.2656 18.309 27.3334 18.2451C27.3885 18.1933 27.6139 18.2107 27.6139 18.1711V17.7189C27.6139 17.6975 27.5952 17.6808 27.5739 17.6826C27.0771 17.7261 26.9752 17.6433 26.9752 17.6433Z" fill="#FFE15A"/>
<path d="M24.9926 17.4824C25 17.4971 25.0056 17.5129 25.0085 17.5296L25.0159 17.572C25.0184 17.5868 25.0302 17.5976 25.0437 17.5976H25.1591C25.1725 17.5976 25.1843 17.5868 25.1869 17.572L25.1943 17.5296C25.1973 17.5129 25.2028 17.497 25.2102 17.4824H24.9926Z" fill="#FF4B55"/>
<path d="M25.1002 17.5661C25.0735 17.5661 25.0529 17.5693 25.0557 17.6064L25.0664 17.7645C25.0683 17.7887 25.0828 17.8071 25.1002 17.8071C25.1177 17.8071 25.1322 17.7887 25.134 17.7645L25.1447 17.6064C25.1476 17.5693 25.1269 17.5661 25.1002 17.5661Z" fill="#82AFFF"/>
<path d="M24.8486 19.5696C24.8486 19.5696 24.7802 19.5567 24.7207 19.6042C24.7207 19.6042 24.6999 19.522 24.807 19.5022C24.914 19.4824 24.8486 19.5696 24.8486 19.5696Z" fill="#82AFFF"/>
<path d="M24.7661 19.4656C24.7661 19.4656 24.7119 19.4219 24.6371 19.4357C24.6371 19.4357 24.6576 19.3534 24.7612 19.3865C24.8649 19.4197 24.7661 19.4656 24.7661 19.4656Z" fill="#82AFFF"/>
<path d="M24.8111 19.5082C24.8111 19.5082 24.7364 19.4953 24.6715 19.5428C24.6715 19.5428 24.6487 19.4606 24.7656 19.4408C24.8825 19.4209 24.8111 19.5082 24.8111 19.5082Z" fill="#82AFFF"/>
<path d="M26.1044 19.7266C26.1044 19.7266 26.0349 19.7298 25.9881 19.7899C25.9881 19.7899 25.9488 19.7147 26.0484 19.6708C26.1479 19.6267 26.1044 19.7266 26.1044 19.7266Z" fill="#82AFFF"/>
<path d="M26.0027 19.6371C26.0027 19.6371 25.9399 19.6071 25.8702 19.6379C25.8702 19.6379 25.8712 19.5532 25.9796 19.5613C26.0882 19.5695 26.0027 19.6371 26.0027 19.6371Z" fill="#82AFFF"/>
<path d="M26.0539 19.6756C26.0539 19.6756 25.9782 19.6803 25.9261 19.7416C25.9261 19.7416 25.8849 19.6669 25.9941 19.6206C26.1032 19.5743 26.0539 19.6756 26.0539 19.6756Z" fill="#82AFFF"/>
<path d="M26.8983 19.7695C26.8983 19.7695 26.8723 19.7695 26.8257 19.8133C26.8257 19.8133 26.7923 19.7387 26.8905 19.7022C26.9887 19.6656 26.8983 19.7695 26.8983 19.7695Z" fill="#82AFFF"/>
<path d="M26.8488 19.6671C26.8488 19.6671 26.7902 19.6347 26.7214 19.6602C26.7214 19.6602 26.7273 19.5787 26.8311 19.5928C26.935 19.607 26.8488 19.6671 26.8488 19.6671Z" fill="#82AFFF"/>
<path d="M26.8956 19.7071C26.8956 19.7071 26.8225 19.7073 26.7687 19.7632C26.7687 19.7632 26.7334 19.689 26.8412 19.6507C26.9489 19.6125 26.8956 19.7071 26.8956 19.7071Z" fill="#82AFFF"/>
<path d="M24.7341 19.0539C24.7341 19.0539 24.6713 19.0121 24.5917 19.0342C24.5917 19.0342 24.6059 18.9436 24.7212 18.9692C24.8364 18.9947 24.7341 19.0539 24.7341 19.0539Z" fill="#82AFFF"/>
<path d="M24.7287 18.8974C24.7287 18.8974 24.6882 18.8336 24.6017 18.828C24.6017 18.828 24.6577 18.7421 24.756 18.808C24.8544 18.8739 24.7287 18.8974 24.7287 18.8974Z" fill="#82AFFF"/>
<path d="M24.7293 18.9805C24.7293 18.9805 24.663 18.9316 24.5756 18.9497C24.5756 18.9497 24.5952 18.8541 24.7192 18.8894C24.8432 18.9247 24.7293 18.9805 24.7293 18.9805Z" fill="#82AFFF"/>
<path d="M26.6993 19.2665C26.8093 19.2695 26.94 19.2259 26.9608 19.112C26.9848 18.9811 26.8727 18.9149 26.7222 18.9208C26.6122 18.9251 26.3341 18.9883 26.1348 18.9813C25.9377 18.9743 25.9323 18.7793 26.2309 18.8C26.6736 18.8307 26.744 18.7732 26.744 18.7732C26.5063 18.8179 26.4111 18.7346 26.1586 18.7346C25.9061 18.7346 25.8575 18.9095 25.9595 19.0051C26.0737 19.1121 26.4885 19.0407 26.5983 19.0199C26.7083 18.9991 26.8478 18.9981 26.8589 19.0754C26.8688 19.1447 26.6846 19.141 26.554 19.1359C26.3463 19.1279 26.0441 19.1843 25.7751 19.1982C25.5511 19.2098 25.5198 19.1466 25.4688 19.0819C25.4808 19.0604 25.4876 19.0364 25.4876 19.011C25.4876 18.9982 25.4855 18.9858 25.4823 18.9738C25.4992 18.9552 25.517 18.9256 25.5252 18.8773C25.5252 18.8773 25.4679 18.8672 25.4245 18.889C25.3898 18.8616 25.3439 18.8444 25.293 18.8444C25.242 18.8444 25.1961 18.8615 25.1614 18.889C25.1181 18.8671 25.0607 18.8773 25.0607 18.8773C25.0689 18.9255 25.0867 18.9552 25.1036 18.9738C25.1004 18.9857 25.0983 18.9981 25.0983 19.011C25.0983 19.0577 25.1209 19.0998 25.1569 19.1301C25.1744 19.1446 25.1873 19.1639 25.1917 19.1862L25.1979 19.2179C25.2007 19.2317 25.2097 19.2426 25.2212 19.2492C25.0365 19.2302 24.9491 19.1141 24.9043 19.0496C24.8536 18.9769 24.8221 18.8159 24.7448 18.798L24.6992 19.0406C24.6992 19.0406 24.797 19.2665 24.9785 19.3586C25.1836 19.4626 25.2222 19.4656 25.2895 19.4953C25.2976 19.531 25.1627 19.5527 25.0261 19.5251C24.9306 19.5057 24.802 19.3671 24.7288 19.3771L24.8142 19.5667C25.046 19.7133 25.2485 19.7164 25.4224 19.6855C25.5452 19.6638 25.5919 19.5638 25.5999 19.521C25.65 19.5117 25.7047 19.5013 25.8739 19.4597C25.9448 19.4422 26.0264 19.433 26.1077 19.4293C26.1307 19.4815 26.183 19.5484 26.3632 19.5547C26.3632 19.5547 26.4067 19.624 26.2582 19.6102C26.1096 19.5963 26.0715 19.55 25.9843 19.5599L26.0621 19.7449C26.0621 19.7449 26.2523 19.6795 26.486 19.7033C26.486 19.7033 26.5296 19.7151 26.5554 19.6775C26.5811 19.6399 26.5692 19.6181 26.5454 19.5845C26.532 19.5655 26.5243 19.504 26.5201 19.4538C26.6058 19.4754 26.8685 19.422 26.9635 19.43C27.0585 19.438 27.0725 19.5488 27.0507 19.5864C27.0289 19.624 26.8298 19.5919 26.8298 19.5919L26.8966 19.7746C26.8966 19.7746 26.9166 19.7649 26.9674 19.7172C27.0087 19.6784 27.1774 19.6914 27.1774 19.6617V19.3231C27.1774 19.3071 27.1636 19.2946 27.1475 19.296C26.7755 19.3287 26.6993 19.2665 26.6993 19.2665Z" fill="#FFE15A"/>
<path d="M25.2146 19.1463C25.2202 19.1573 25.2243 19.1692 25.2265 19.1817L25.2321 19.2133C25.234 19.2244 25.2428 19.2324 25.2529 19.2324H25.3392C25.3494 19.2324 25.3581 19.2243 25.36 19.2133L25.3656 19.1817C25.3678 19.1692 25.3719 19.1572 25.3775 19.1463H25.2146Z" fill="#FF4B55"/>
<path d="M25.2965 19.2089C25.2766 19.2089 25.2611 19.2112 25.2631 19.2391L25.2712 19.3574C25.2726 19.3755 25.2835 19.3894 25.2965 19.3894C25.3096 19.3894 25.3204 19.3756 25.3218 19.3574L25.3299 19.2391C25.332 19.2112 25.3164 19.2089 25.2965 19.2089Z" fill="#82AFFF"/>
</g>
<defs>
<clipPath id="clip0_108_48561">
<rect width="50" height="50" fill="white" transform="translate(0.898438 0.160156)"/>
</clipPath>
</defs>
</svg>
