<svg width="51" height="51" viewBox="0 0 51 51" fill="none" xmlns="http://www.w3.org/2000/svg">
<g clip-path="url(#clip0_108_48555)">
<path d="M50.192 19.7004H0.192139V9.64287C0.192139 9.1668 0.578173 8.78077 1.05425 8.78077H49.33C49.8061 8.78077 50.1921 9.1668 50.1921 9.64287L50.192 19.7004Z" fill="#464655"/>
<path d="M49.3299 41.5394H1.05425C0.578173 41.5394 0.192139 41.1534 0.192139 40.6773V30.6199H50.192V40.6773C50.192 41.1535 49.806 41.5394 49.3299 41.5394Z" fill="#73AF00"/>
<path d="M50.192 19.7002H0.192139V30.6191H50.192V19.7002Z" fill="#F5F5F5"/>
<path d="M0.510107 41.331L29.7202 25.5091C29.9974 25.359 29.9974 24.9612 29.7202 24.8111L0.510107 8.98926C0.320166 9.14737 0.192139 9.37647 0.192139 9.64287V40.6773C0.192139 40.9438 0.320166 41.1729 0.510107 41.331Z" fill="#FF4B55"/>
<path d="M9.50854 22.9301L10.0209 24.0415L11.2093 23.7491C11.2835 23.731 11.345 23.8079 11.3107 23.8763L10.7613 24.9698L11.7308 25.7167C11.7913 25.7634 11.7694 25.8595 11.6946 25.8752L10.497 26.1274L10.5176 27.3512C10.5189 27.4275 10.43 27.4703 10.3711 27.4218L9.42729 26.6428L8.48344 27.4218C8.42446 27.4704 8.33569 27.4276 8.33696 27.3512L8.35756 26.1274L7.16001 25.8752C7.0852 25.8595 7.06333 25.7634 7.12378 25.7167L8.09331 24.9698L7.54389 23.8763C7.50962 23.8079 7.57104 23.7309 7.64526 23.7491L8.83364 24.0415L9.34604 22.9301C9.37787 22.8607 9.47651 22.8607 9.50854 22.9301Z" fill="#F5F5F5"/>
</g>
<defs>
<clipPath id="clip0_108_48555">
<rect width="50" height="50" fill="white" transform="translate(0.191406 0.160156)"/>
</clipPath>
</defs>
</svg>
