<svg width="51" height="51" viewBox="0 0 51 51" fill="none" xmlns="http://www.w3.org/2000/svg">
<g clip-path="url(#clip0_108_48517)">
<path d="M49.7423 9.07407H1.4666C0.990527 9.07407 0.604492 9.46 0.604492 9.93608V40.9705C0.604492 41.4466 0.990527 41.8326 1.4666 41.8326H49.7424C50.2185 41.8326 50.6045 41.4466 50.6045 40.9705V9.93608C50.6044 9.46 50.2184 9.07407 49.7423 9.07407Z" fill="#82C3D2"/>
<path d="M6.4165 12.997C6.33847 12.6667 6.31904 12.5449 6.46728 12.3967C6.53954 12.3245 6.53954 12.2074 6.46728 12.1351C6.39501 12.0629 6.27792 12.0629 6.20566 12.1351C5.90566 12.4352 5.97724 12.7466 6.05488 13.0764C5.81835 12.9992 5.57304 13.0565 5.4416 13.2223C5.37636 13.305 5.25019 13.5371 5.48662 13.9076C5.5416 13.9936 5.65527 14.0189 5.74209 13.9644C5.82832 13.9094 5.85341 13.7949 5.79843 13.7089C5.70976 13.5694 5.70712 13.4834 5.73193 13.4519C5.76123 13.4147 5.85205 13.3951 5.94716 13.4288C6.00859 13.4501 6.15136 13.5238 6.15136 13.7464C6.15136 13.9243 6.06914 14.0873 5.92578 14.1931C5.78212 14.2994 5.59619 14.3294 5.41699 14.2737C5.1957 14.2061 5.04111 13.973 5.04111 13.7067C5.04111 13.5162 5.08193 13.3236 5.15693 13.1548C5.16884 13.1299 5.45166 12.5441 5.52451 12.3257C5.66855 11.8938 5.52216 11.6766 5.42226 11.5859C5.28857 11.4641 5.09316 11.4338 4.925 11.5075C4.89941 11.5188 4.87832 11.5352 4.85615 11.5505C4.83398 11.5351 4.81279 11.5188 4.7873 11.5075C4.61924 11.4338 4.42392 11.4641 4.29004 11.5859C4.19013 11.6766 4.04375 11.8939 4.18779 12.3257C4.26064 12.5441 4.54336 13.1299 4.55273 13.1495C4.63017 13.3237 4.67109 13.5163 4.67109 13.7068C4.67109 13.9732 4.5166 14.2062 4.29521 14.2738C4.11533 14.3294 3.92998 14.2998 3.78642 14.1932C3.64307 14.0873 3.56084 13.9244 3.56084 13.7465C3.56084 13.5239 3.70361 13.4503 3.76504 13.4289C3.86045 13.3953 3.95078 13.4147 3.98027 13.452C4.00508 13.4835 4.00244 13.5695 3.91377 13.709C3.85879 13.7951 3.88389 13.9096 3.97012 13.9645C4.05703 14.0195 4.17109 13.9938 4.22558 13.9077C4.46191 13.5372 4.33584 13.3052 4.2706 13.2224C4.13906 13.0566 3.89385 12.9993 3.65732 13.0765C3.73506 12.7469 3.80654 12.4353 3.50654 12.1352C3.43428 12.063 3.31719 12.063 3.24492 12.1352C3.17266 12.2075 3.17266 12.3246 3.24492 12.3968C3.39307 12.545 3.37383 12.6668 3.2957 12.9971C3.24883 13.1951 3.19062 13.442 3.19062 13.7462C3.19062 13.9487 3.26182 14.1423 3.38154 14.3014H3.37559C3.27334 14.3014 3.19053 14.3841 3.19053 14.4865C3.19053 14.5887 3.27324 14.6715 3.37559 14.6715H3.38154C3.26182 14.8306 3.19062 15.0242 3.19062 15.2266C3.19062 15.5309 3.24883 15.7778 3.29561 15.9758C3.37363 16.3062 3.39307 16.428 3.24482 16.5761C3.17256 16.6484 3.17256 16.7655 3.24482 16.8377C3.28096 16.8739 3.32832 16.8919 3.37568 16.8919C3.42295 16.8919 3.47041 16.8739 3.50654 16.8377C3.80654 16.5376 3.73496 16.2261 3.65732 15.8964C3.89385 15.9734 4.13916 15.9164 4.2706 15.7505C4.33584 15.6678 4.46201 15.4358 4.22558 15.0653C4.1708 14.9793 4.05644 14.9537 3.97012 15.0085C3.88389 15.0634 3.85879 15.178 3.91377 15.2639C4.00244 15.4035 4.00508 15.4895 3.98027 15.521C3.95088 15.5578 3.86045 15.5773 3.76504 15.5441C3.70361 15.5228 3.56084 15.4491 3.56084 15.2264C3.56084 15.0486 3.64307 14.8856 3.78642 14.7797C3.93008 14.6735 4.11582 14.6431 4.29521 14.6992C4.5165 14.7668 4.67109 14.9999 4.67109 15.2662C4.67109 15.4567 4.63027 15.6493 4.55273 15.8235L3.34072 18.5501C3.24111 18.7742 3.19053 19.0125 3.19053 19.2578C3.19053 19.5735 3.33408 19.8618 3.56006 20.0377C3.33418 20.2137 3.19053 20.502 3.19053 20.8177C3.19053 21.0631 3.24121 21.3013 3.34072 21.5253L4.55254 24.2518C4.62998 24.426 4.6709 24.6186 4.6709 24.8091C4.6709 25.0755 4.5164 25.3085 4.29502 25.3761C4.11513 25.4322 3.92978 25.4021 3.78623 25.2955C3.64287 25.1896 3.56064 25.0267 3.56064 24.8489C3.56064 24.6262 3.70342 24.5526 3.76484 24.5312C3.86025 24.4979 3.95058 24.517 3.98008 24.5543C4.00488 24.5858 4.00224 24.6718 3.91357 24.8114C3.85859 24.8974 3.88369 25.012 3.96992 25.0668C4.05683 25.1218 4.1709 25.0964 4.22539 25.01C4.46172 24.6395 4.33564 24.4076 4.27041 24.3247C4.13887 24.1589 3.89365 24.1018 3.65713 24.1788C3.73486 23.8493 3.80635 23.5376 3.50635 23.2375C3.43408 23.1653 3.31699 23.1653 3.24473 23.2375C3.17246 23.3098 3.17246 23.4269 3.24473 23.4992C3.39287 23.6473 3.37363 23.7691 3.29551 24.0995C3.24873 24.2975 3.19053 24.5444 3.19053 24.8487C3.19053 25.0511 3.26172 25.2448 3.38144 25.4038H3.37549C3.27324 25.4038 3.19043 25.4866 3.19043 25.5889C3.19043 25.6912 3.27314 25.774 3.37549 25.774H3.38144C3.26162 25.933 3.19053 26.1266 3.19053 26.3291C3.19053 26.6334 3.24873 26.8803 3.29551 27.0784C3.37353 27.4087 3.39297 27.5305 3.24473 27.6786C3.17246 27.7509 3.17246 27.868 3.24473 27.9403C3.28086 27.9764 3.32822 27.9945 3.37559 27.9945C3.42285 27.9945 3.47031 27.9764 3.50644 27.9403C3.80644 27.6402 3.73486 27.3286 3.65723 26.999C3.89375 27.0759 4.13906 27.0189 4.27051 26.8531C4.33574 26.7703 4.46191 26.5383 4.22549 26.1678C4.1707 26.0818 4.05635 26.0562 3.97002 26.111C3.88379 26.166 3.85869 26.2805 3.91367 26.3664C4.00234 26.506 4.00498 26.592 3.98017 26.6235C3.95078 26.6607 3.86035 26.6803 3.76494 26.6466C3.70351 26.6253 3.56074 26.5516 3.56074 26.3289C3.56074 26.1511 3.64297 25.9881 3.78633 25.8823C3.92998 25.776 4.11572 25.7456 4.29511 25.8017C4.5164 25.8693 4.67099 26.1024 4.67099 26.3687C4.67099 26.5592 4.63017 26.7518 4.55263 26.926L3.34072 29.653C3.24111 29.877 3.19053 30.1153 3.19053 30.3606C3.19053 30.6763 3.33408 30.9646 3.56006 31.1406C3.33418 31.3165 3.19053 31.6048 3.19053 31.9205C3.19053 32.1659 3.24121 32.4041 3.34072 32.6281L4.55254 35.3546C4.62998 35.5288 4.6709 35.7214 4.6709 35.9119C4.6709 36.1783 4.5164 36.4113 4.29502 36.4789C4.11513 36.535 3.92978 36.5046 3.78623 36.3984C3.64287 36.2924 3.56064 36.1295 3.56064 35.9517C3.56064 35.729 3.70342 35.6554 3.76484 35.634C3.86025 35.6007 3.95058 35.6198 3.98008 35.6571C4.00488 35.6886 4.00224 35.7746 3.91357 35.9142C3.85859 36.0002 3.88369 36.1147 3.96992 36.1696C4.05683 36.2246 4.1709 36.1992 4.22539 36.1128C4.46172 35.7423 4.33564 35.5104 4.27041 35.4276C4.13887 35.2612 3.89365 35.2044 3.65713 35.2817C3.73486 34.9521 3.80635 34.6404 3.50635 34.3403C3.43408 34.2681 3.31699 34.2681 3.24473 34.3403C3.17246 34.4126 3.17246 34.5297 3.24473 34.602C3.39287 34.7501 3.37363 34.8719 3.29551 35.2023C3.24873 35.4003 3.19053 35.6471 3.19053 35.9514C3.19053 36.2414 3.32949 36.5176 3.56182 36.6916C3.32949 36.8656 3.19053 37.1418 3.19053 37.4319C3.19053 37.7361 3.24873 37.983 3.29551 38.1811C3.37353 38.5113 3.39297 38.6332 3.24473 38.7814C3.17246 38.8536 3.17246 38.9707 3.24473 39.043C3.28086 39.0791 3.32822 39.0972 3.37559 39.0972C3.42285 39.0972 3.47031 39.0791 3.50644 39.043C3.80644 38.7429 3.73486 38.4314 3.65723 38.1017C3.89375 38.1786 4.13906 38.1216 4.27051 37.9558C4.33574 37.8731 4.46191 37.641 4.22549 37.2705C4.1707 37.1845 4.05635 37.1592 3.97002 37.2137C3.88379 37.2687 3.85869 37.3832 3.91367 37.4692C4.00234 37.6087 4.00498 37.6947 3.98017 37.7262C3.95078 37.7634 3.86035 37.7825 3.76494 37.7493C3.70351 37.728 3.56074 37.6543 3.56074 37.4317C3.56074 37.2538 3.64297 37.0908 3.78633 36.985C3.92998 36.8787 4.11572 36.8487 4.29511 36.9044C4.5164 36.972 4.67099 37.2051 4.67099 37.4714C4.67099 37.6619 4.63017 37.8545 4.55517 38.0233C4.54326 38.0482 4.26045 38.634 4.1876 38.8524C4.04355 39.2843 4.18994 39.5015 4.28984 39.5922C4.37529 39.6699 4.48535 39.7108 4.59785 39.7108C4.66162 39.7108 4.72627 39.6974 4.7872 39.6707C4.81279 39.6594 4.83388 39.643 4.85605 39.6277C4.87822 39.6431 4.89941 39.6594 4.9249 39.6707C4.98574 39.6975 5.05048 39.7108 5.11425 39.7108C5.22646 39.7108 5.33671 39.6699 5.42226 39.5922C5.52216 39.5015 5.66855 39.2842 5.52451 38.8524C5.45166 38.634 5.16894 38.0482 5.15957 38.0286C5.08213 37.8544 5.04121 37.6618 5.04121 37.4713C5.04121 37.2049 5.1957 36.9718 5.41709 36.9043C5.59707 36.8486 5.78232 36.8786 5.92587 36.9849C6.06923 37.0908 6.15146 37.2537 6.15146 37.4316C6.15146 37.6542 6.00869 37.7278 5.94726 37.7492C5.85224 37.7825 5.76123 37.7634 5.73203 37.7261C5.70722 37.6946 5.70986 37.6086 5.79853 37.4691C5.85351 37.383 5.82841 37.2686 5.74218 37.2136C5.65576 37.1594 5.54179 37.1847 5.48671 37.2704C5.25039 37.6409 5.37646 37.8729 5.44169 37.9557C5.57324 38.1215 5.81845 38.1786 6.05498 38.1016C5.97724 38.4312 5.90576 38.7428 6.20576 39.0429C6.24189 39.079 6.28925 39.0971 6.33662 39.0971C6.38398 39.0971 6.43134 39.079 6.46747 39.0429C6.53974 38.9706 6.53974 38.8535 6.46747 38.7813C6.31933 38.6331 6.33857 38.5113 6.41669 38.181C6.46347 37.9829 6.52167 37.736 6.52167 37.4318C6.52167 37.1417 6.38271 36.8655 6.15039 36.6915C6.38271 36.5175 6.52167 36.2414 6.52167 35.9513C6.52167 35.647 6.46347 35.4001 6.41669 35.2021C6.33867 34.8718 6.31923 34.7499 6.46747 34.6018C6.53974 34.5295 6.53974 34.4124 6.46747 34.3402C6.39521 34.2679 6.27812 34.2679 6.20585 34.3402C5.90585 34.6403 5.97744 34.9517 6.05507 35.2815C5.81855 35.2042 5.57324 35.2611 5.44179 35.4274C5.37656 35.5101 5.25039 35.7421 5.48681 36.1126C5.54179 36.1986 5.65546 36.2239 5.74228 36.1694C5.82851 36.1145 5.85361 35.9999 5.79863 35.914C5.70996 35.7744 5.70732 35.6884 5.73212 35.6569C5.76142 35.6197 5.85224 35.6006 5.94736 35.6338C6.00878 35.6551 6.15156 35.7288 6.15156 35.9515C6.15156 36.1293 6.06933 36.2923 5.92597 36.3982C5.78232 36.5044 5.59638 36.5348 5.41718 36.4787C5.19589 36.4111 5.0413 36.178 5.0413 35.9117C5.0413 35.7212 5.08213 35.5286 5.15966 35.3544L6.37148 32.628C6.47109 32.4039 6.52167 32.1656 6.52167 31.9203C6.52167 31.6046 6.37812 31.3163 6.15214 31.1404C6.37802 30.9644 6.52167 30.6761 6.52167 30.3604C6.52167 30.115 6.47099 29.8768 6.37148 29.6528L5.15976 26.9265C5.08232 26.7523 5.0414 26.5597 5.0414 26.3692C5.0414 26.1028 5.19589 25.8698 5.41728 25.8022C5.59726 25.7465 5.78251 25.7765 5.92607 25.8827C6.06943 25.9887 6.15165 26.1516 6.15165 26.3294C6.15165 26.5521 6.00888 26.6257 5.94746 26.6471C5.85244 26.6807 5.76142 26.6613 5.73222 26.624C5.70742 26.5925 5.71005 26.5065 5.79873 26.3669C5.85371 26.2809 5.82861 26.1664 5.74238 26.1115C5.65595 26.0573 5.54199 26.0826 5.48691 26.1683C5.25058 26.5388 5.37666 26.7707 5.44189 26.8535C5.57343 27.0194 5.81865 27.0765 6.05517 26.9994C5.97744 27.329 5.90595 27.6407 6.20595 27.9408C6.24208 27.9769 6.28945 27.995 6.33681 27.995C6.38417 27.995 6.43154 27.9769 6.46767 27.9408C6.53994 27.8685 6.53994 27.7514 6.46767 27.6791C6.31953 27.531 6.33876 27.4092 6.41689 27.0788C6.46367 26.8808 6.52187 26.6339 6.52187 26.3296C6.52187 26.1272 6.45068 25.9335 6.33095 25.7744H6.33691C6.43915 25.7744 6.52197 25.6917 6.52197 25.5894C6.52197 25.4871 6.43925 25.4043 6.33691 25.4043H6.33095C6.45077 25.2453 6.52187 25.0518 6.52187 24.8492C6.52187 24.5449 6.46367 24.298 6.41689 24.0999C6.33886 23.7696 6.31943 23.6478 6.46767 23.4996C6.53994 23.4274 6.53994 23.3103 6.46767 23.238C6.3954 23.1658 6.27831 23.1658 6.20605 23.238C5.90605 23.5381 5.97763 23.8496 6.05527 24.1793C5.81875 24.1024 5.57343 24.1594 5.44199 24.3252C5.37675 24.4079 5.25058 24.64 5.48701 25.0105C5.54199 25.0965 5.65566 25.1215 5.74248 25.0673C5.82871 25.0123 5.8538 24.8978 5.79882 24.8119C5.71015 24.6723 5.70751 24.5863 5.73232 24.5548C5.76162 24.5176 5.85244 24.4985 5.94755 24.5317C6.00898 24.553 6.15175 24.6267 6.15175 24.8494C6.15175 25.0272 6.06953 25.1902 5.92617 25.296C5.78251 25.4023 5.59658 25.4323 5.41738 25.3766C5.19609 25.309 5.0415 25.0759 5.0415 24.8096C5.0415 24.6191 5.08232 24.4265 5.15986 24.2523L6.37167 21.5258C6.47128 21.3018 6.52187 21.0635 6.52187 20.8182C6.52187 20.5025 6.37831 20.2142 6.15234 20.0382C6.37822 19.8623 6.52187 19.574 6.52187 19.2583C6.52187 19.0128 6.47118 18.7747 6.37167 18.5506L5.15986 15.8242C5.08242 15.65 5.0415 15.4574 5.0415 15.2669C5.0415 15.0004 5.19599 14.7674 5.41738 14.6999C5.59736 14.6442 5.78261 14.6742 5.92617 14.7804C6.06953 14.8864 6.15175 15.0493 6.15175 15.2271C6.15175 15.4498 6.00898 15.5234 5.94755 15.5448C5.85253 15.5781 5.76152 15.5585 5.73232 15.5216C5.70751 15.4902 5.71015 15.4042 5.79882 15.2646C5.8538 15.1786 5.82871 15.064 5.74248 15.0091C5.65605 14.9549 5.54209 14.9798 5.48701 15.0659C5.25068 15.4364 5.37675 15.6683 5.44199 15.7511C5.57353 15.9169 5.81875 15.9741 6.05527 15.897C5.97753 16.2266 5.90605 16.5382 6.20605 16.8383C6.24218 16.8745 6.28955 16.8925 6.33691 16.8925C6.38427 16.8925 6.43163 16.8745 6.46777 16.8383C6.54003 16.7661 6.54003 16.649 6.46777 16.5767C6.31962 16.4286 6.33886 16.3068 6.41699 15.9764C6.46376 15.7784 6.52197 15.5315 6.52197 15.2272C6.52197 15.0248 6.45077 14.8311 6.33105 14.672H6.33701C6.43925 14.672 6.52206 14.5893 6.52206 14.487C6.52206 14.3847 6.43935 14.3019 6.33701 14.3019H6.33105C6.45087 14.1428 6.52197 13.9494 6.52197 13.7467C6.52138 13.442 6.46318 13.1951 6.4165 12.997ZM4.53857 12.2085C4.47285 12.0112 4.4958 11.8988 4.53916 11.8593C4.56748 11.8326 4.61045 11.8337 4.63769 11.846C4.67109 11.8608 4.67109 11.8843 4.67109 11.8959C4.67109 11.9981 4.75381 12.0809 4.85615 12.0809C4.95839 12.0809 5.04121 11.9982 5.04121 11.8959C5.04121 11.8843 5.04121 11.8608 5.07461 11.846C5.10136 11.8337 5.14404 11.8326 5.17314 11.8593C5.2165 11.8988 5.23945 12.0112 5.17373 12.2085C5.12588 12.3515 4.95273 12.724 4.85625 12.9261C4.76172 12.7287 4.58672 12.3525 4.53857 12.2085ZM4.85605 19.8437C4.90918 19.9159 4.96923 19.9831 5.04228 20.0377C4.96923 20.0925 4.90918 20.1596 4.85605 20.2318C4.80293 20.1596 4.74287 20.0924 4.66982 20.0377C4.74287 19.983 4.80293 19.916 4.85605 19.8437ZM4.85605 30.9464C4.90918 31.0186 4.96923 31.0858 5.04228 31.1405C4.96923 31.1952 4.90918 31.2623 4.85605 31.3345C4.80293 31.2623 4.74287 31.1951 4.66982 31.1405C4.74287 31.0857 4.80293 31.0188 4.85605 30.9464ZM5.17343 38.9698C5.23916 39.1671 5.21621 39.2795 5.17285 39.319C5.14375 39.3453 5.10107 39.3442 5.07431 39.3323C5.04091 39.3175 5.04091 39.2941 5.04091 39.2824C5.04091 39.1802 4.9582 39.0974 4.85586 39.0974C4.75351 39.0974 4.6708 39.1801 4.6708 39.2824C4.6708 39.294 4.6708 39.3175 4.6374 39.3323C4.61025 39.3442 4.56728 39.3454 4.53886 39.319C4.49551 39.2795 4.47256 39.1671 4.53828 38.9698C4.58613 38.8268 4.75927 38.4543 4.85576 38.2522C4.95029 38.4495 5.12529 38.8258 5.17343 38.9698ZM5.04052 36.6918C4.9705 36.7463 4.9084 36.8115 4.85605 36.8853C4.80381 36.8115 4.7416 36.7464 4.67158 36.6918C4.7416 36.6373 4.80371 36.5721 4.85605 36.4984C4.9083 36.5721 4.97041 36.6373 5.04052 36.6918ZM6.03291 32.4777L4.85595 35.1257L3.679 32.4777C3.60156 32.3034 3.56064 32.1109 3.56064 31.9203C3.56064 31.6539 3.71514 31.4208 3.93652 31.3533C4.1164 31.2977 4.30195 31.3277 4.44531 31.4339C4.58867 31.5399 4.6709 31.7028 4.6709 31.8806C4.6709 32.1032 4.52812 32.1769 4.4667 32.1983C4.37129 32.2316 4.28056 32.2124 4.25146 32.1751C4.22666 32.1437 4.22929 32.0576 4.31797 31.9181C4.37295 31.8321 4.34785 31.7175 4.26162 31.6626C4.17519 31.6084 4.06123 31.6337 4.00615 31.7195C3.76982 32.09 3.8959 32.3219 3.96113 32.4047C4.09512 32.5739 4.34717 32.6321 4.58818 32.5478C4.61562 32.5383 4.64345 32.5265 4.6709 32.5125V32.9805C4.6709 32.9804 4.6706 32.9802 4.6706 32.9802C4.66504 32.8827 4.58437 32.8059 4.48594 32.8059C4.38369 32.8059 4.30088 32.8886 4.30088 32.9909C4.30088 33.1116 4.38525 33.321 4.6709 33.3859V33.7311C4.6709 33.8333 4.75361 33.9161 4.85595 33.9161C4.9583 33.9161 5.04101 33.8334 5.04101 33.7311V33.3859C5.32666 33.321 5.41103 33.1116 5.41103 32.9909C5.41103 32.8887 5.32851 32.7998 5.22636 32.7998C5.12412 32.7998 5.0417 32.8765 5.0417 32.9787C5.0416 32.979 5.04101 32.9795 5.04091 32.9798V32.5127C5.06836 32.5267 5.09619 32.5385 5.12363 32.548C5.36464 32.6321 5.6166 32.5739 5.75068 32.4049C5.81591 32.3222 5.94208 32.0902 5.70566 31.7197C5.65068 31.6336 5.53652 31.6083 5.45019 31.6628C5.36396 31.7178 5.33886 31.8323 5.39384 31.9183C5.48252 32.0578 5.48515 32.1439 5.46035 32.1753C5.43105 32.2125 5.34033 32.2317 5.24511 32.1985C5.18369 32.1772 5.04091 32.1034 5.04091 31.8808C5.04091 31.703 5.12314 31.54 5.2665 31.4341C5.41015 31.3279 5.59609 31.2975 5.77529 31.3535C5.99658 31.4211 6.15117 31.6542 6.15117 31.9205C6.15136 32.1109 6.11054 32.3035 6.03291 32.4777ZM6.03291 29.8032C6.11035 29.9775 6.15126 30.17 6.15126 30.3606C6.15126 30.627 5.99677 30.86 5.77539 30.9276C5.5958 30.9836 5.40996 30.9532 5.2666 30.847C5.12324 30.741 5.04101 30.5782 5.04101 30.4003C5.04101 30.1777 5.18379 30.104 5.24521 30.0826C5.34043 30.0493 5.43125 30.0685 5.46045 30.1058C5.48525 30.1372 5.48261 30.2233 5.39394 30.3628C5.33896 30.4489 5.36406 30.5633 5.45029 30.6183C5.5372 30.6733 5.65126 30.6479 5.70576 30.5615C5.94208 30.1909 5.81601 29.959 5.75078 29.8762C5.61669 29.7071 5.36474 29.6495 5.12373 29.7331C5.09629 29.7426 5.06845 29.7545 5.04101 29.7684V29.3003L5.0413 29.3009C5.04687 29.3981 5.12754 29.4751 5.22597 29.4751C5.32822 29.4751 5.41103 29.3924 5.41103 29.2901C5.41103 29.1694 5.32666 28.96 5.04101 28.8951V28.5499C5.04101 28.4477 4.9583 28.3649 4.85595 28.3649C4.75361 28.3649 4.6709 28.4476 4.6709 28.5499V28.8951C4.38525 28.96 4.30088 29.1694 4.30088 29.2901C4.30088 29.3923 4.3834 29.4812 4.48554 29.4812C4.58779 29.4812 4.67021 29.4045 4.67021 29.3023C4.67031 29.302 4.6709 29.3015 4.6709 29.3015L4.67099 29.7683C4.64355 29.7543 4.61572 29.7425 4.58828 29.733C4.34726 29.6495 4.09521 29.7071 3.96123 29.8761C3.89599 29.9588 3.76982 30.1908 4.00625 30.5614C4.06123 30.6474 4.17539 30.6724 4.26172 30.6182C4.34795 30.5632 4.37304 30.4487 4.31806 30.3627C4.22939 30.2232 4.22676 30.1371 4.25156 30.1057C4.28066 30.0685 4.37138 30.0493 4.46679 30.0825C4.52822 30.1038 4.67099 30.1776 4.67099 30.4002C4.67099 30.5781 4.58877 30.741 4.44541 30.8469C4.30176 30.9532 4.11621 30.9835 3.93662 30.9275C3.71533 30.8599 3.56074 30.6268 3.56074 30.3605C3.56074 30.1699 3.60156 29.9774 3.6791 29.8032L4.85605 27.1551L6.03291 29.8032ZM5.04052 25.5892C4.9705 25.6437 4.9084 25.7089 4.85605 25.7827C4.80381 25.7089 4.7416 25.6438 4.67158 25.5892C4.7416 25.5347 4.80371 25.4695 4.85605 25.3957C4.9083 25.4694 4.97041 25.5346 5.04052 25.5892ZM6.03291 21.375L4.85595 24.0231L3.679 21.375C3.60156 21.2008 3.56064 21.0082 3.56064 20.8177C3.56064 20.5513 3.71514 20.3183 3.93652 20.2507C4.1164 20.1951 4.30195 20.225 4.44531 20.3313C4.58867 20.4373 4.6709 20.6001 4.6709 20.778C4.6709 21.0006 4.52812 21.0743 4.4667 21.0956C4.37129 21.1292 4.28056 21.1098 4.25146 21.0725C4.22666 21.0411 4.22929 20.955 4.31797 20.8155C4.37295 20.7294 4.34785 20.6149 4.26162 20.56C4.17519 20.5055 4.06123 20.5307 4.00615 20.6168C3.76982 20.9873 3.8959 21.2193 3.96113 21.3021C4.09512 21.4712 4.34717 21.529 4.58818 21.4452C4.61562 21.4357 4.64345 21.4239 4.6709 21.4099V21.8779L4.6706 21.8773C4.66504 21.7801 4.58437 21.7031 4.48594 21.7031C4.38369 21.7031 4.30088 21.7858 4.30088 21.8881C4.30088 22.0088 4.38525 22.2182 4.6709 22.283V22.6283C4.6709 22.7305 4.75361 22.8133 4.85595 22.8133C4.9583 22.8133 5.04101 22.7306 5.04101 22.6283V22.283C5.32666 22.2182 5.41103 22.0088 5.41103 21.8881C5.41103 21.7859 5.32851 21.6969 5.22636 21.6969C5.12412 21.6969 5.0417 21.7736 5.0417 21.8758C5.0416 21.8761 5.04101 21.8766 5.04101 21.8766L5.04091 21.4098C5.06836 21.4238 5.09619 21.4356 5.12363 21.4451C5.36464 21.5289 5.6166 21.471 5.75068 21.302C5.81591 21.2193 5.94208 20.9873 5.70566 20.6167C5.65068 20.5303 5.53652 20.5051 5.45019 20.5599C5.36396 20.6149 5.33886 20.7294 5.39384 20.8154C5.48252 20.9549 5.48515 21.041 5.46035 21.0724C5.43105 21.1096 5.34033 21.1292 5.24511 21.0956C5.18369 21.0743 5.04091 21.0005 5.04091 20.7779C5.04091 20.6 5.12314 20.4371 5.2665 20.3312C5.41015 20.2249 5.59609 20.195 5.77529 20.2506C5.99658 20.3182 6.15117 20.5513 6.15117 20.8176C6.15136 21.0082 6.11054 21.2008 6.03291 21.375ZM6.03291 18.7005C6.11035 18.8748 6.15126 19.0673 6.15126 19.2579C6.15126 19.5243 5.99677 19.7573 5.77539 19.8249C5.5958 19.8809 5.40996 19.8505 5.2666 19.7443C5.12324 19.6383 5.04101 19.4754 5.04101 19.2976C5.04101 19.0749 5.18379 19.0013 5.24521 18.9799C5.34043 18.9466 5.43125 18.9658 5.46045 19.0031C5.48525 19.0345 5.48261 19.1206 5.39394 19.2601C5.33896 19.3461 5.36406 19.4606 5.45029 19.5156C5.5372 19.5701 5.65126 19.5452 5.70576 19.4587C5.94208 19.0882 5.81601 18.8563 5.75078 18.7735C5.61669 18.6043 5.36474 18.5465 5.12373 18.6304C5.09629 18.6399 5.06845 18.6517 5.04101 18.6657V18.1977C5.04101 18.1978 5.0413 18.198 5.0413 18.198C5.04687 18.2955 5.12754 18.3723 5.22597 18.3723C5.32822 18.3723 5.41103 18.2896 5.41103 18.1873C5.41103 18.0666 5.32666 17.8572 5.04101 17.7923V17.4471C5.04101 17.3449 4.9583 17.2621 4.85595 17.2621C4.75361 17.2621 4.6709 17.3448 4.6709 17.4471V17.7923C4.38525 17.8572 4.30088 18.0666 4.30088 18.1873C4.30088 18.2895 4.3834 18.3785 4.48554 18.3785C4.58779 18.3785 4.67021 18.3018 4.67021 18.1996C4.67031 18.1993 4.6709 18.1988 4.67099 18.1985V18.6656C4.64355 18.6516 4.61572 18.6398 4.58828 18.6303C4.34726 18.5465 4.09521 18.6043 3.96123 18.7734C3.89599 18.8561 3.76982 19.0881 4.00625 19.4586C4.06123 19.5447 4.17539 19.5697 4.26172 19.5155C4.34795 19.4605 4.37304 19.3459 4.31806 19.26C4.22939 19.1205 4.22676 19.0344 4.25156 19.003C4.28066 18.9658 4.37138 18.9466 4.46679 18.9798C4.52822 19.0011 4.67099 19.0749 4.67099 19.2975C4.67099 19.4753 4.58877 19.6383 4.44541 19.7442C4.30176 19.8504 4.11621 19.8808 3.93662 19.8248C3.71533 19.7572 3.56074 19.5241 3.56074 19.2578C3.56074 19.0672 3.60156 18.8747 3.6791 18.7004L4.85605 16.0524L6.03291 18.7005ZM4.67148 14.4865C4.7415 14.432 4.80361 14.3668 4.85595 14.293C4.9082 14.3668 4.97041 14.4319 5.04043 14.4865C4.97041 14.541 4.9083 14.6062 4.85595 14.6799C4.80371 14.6062 4.7416 14.541 4.67148 14.4865Z" fill="#FFE15A"/>
<path d="M27.0434 27.8591C29.5031 27.8591 31.4971 25.8651 31.4971 23.4054C31.4971 20.9457 29.5031 18.9517 27.0434 18.9517C24.5837 18.9517 22.5897 20.9457 22.5897 23.4054C22.5897 25.8651 24.5837 27.8591 27.0434 27.8591Z" fill="#FFE15A"/>
<path d="M27.378 17.727C27.378 17.9115 27.2284 18.0611 27.0439 18.0611C26.8594 18.0611 26.7098 17.9115 26.7098 17.727C26.7098 17.5425 27.0439 16.7249 27.0439 16.7249C27.0439 16.7249 27.378 17.5425 27.378 17.727Z" fill="#FFE15A"/>
<path d="M26.7098 29.0847C26.7098 28.9003 26.8594 28.7506 27.0439 28.7506C27.2284 28.7506 27.378 28.9003 27.378 29.0847C27.378 29.2692 27.0439 30.0869 27.0439 30.0869C27.0439 30.0869 26.7098 29.2693 26.7098 29.0847Z" fill="#FFE15A"/>
<path d="M32.7228 23.7399C32.5383 23.7399 32.3887 23.5903 32.3887 23.4058C32.3887 23.2213 32.5383 23.0717 32.7228 23.0717C32.9072 23.0717 33.7249 23.4058 33.7249 23.4058C33.7249 23.4058 32.9072 23.7399 32.7228 23.7399Z" fill="#FFE15A"/>
<path d="M21.3652 23.0718C21.5497 23.0718 21.6993 23.2214 21.6993 23.4059C21.6993 23.5904 21.5497 23.74 21.3652 23.74C21.1807 23.74 20.363 23.4059 20.363 23.4059C20.363 23.4059 21.1807 23.0718 21.3652 23.0718Z" fill="#FFE15A"/>
<path d="M31.2959 19.6265C31.1655 19.757 30.954 19.757 30.8235 19.6265C30.6929 19.496 30.693 19.2846 30.8235 19.1541C30.9539 19.0235 31.7683 18.6816 31.7683 18.6816C31.7683 18.6816 31.4265 19.496 31.2959 19.6265Z" fill="#FFE15A"/>
<path d="M22.7922 27.1852C22.9227 27.0547 23.1341 27.0547 23.2646 27.1852C23.3952 27.3157 23.3951 27.5271 23.2646 27.6577C23.1342 27.7882 22.3198 28.13 22.3198 28.13C22.3198 28.13 22.6617 27.3158 22.7922 27.1852Z" fill="#FFE15A"/>
<path d="M30.8234 27.6577C30.693 27.5272 30.693 27.3158 30.8234 27.1852C30.9539 27.0546 31.1653 27.0547 31.2959 27.1852C31.4265 27.3157 31.7684 28.13 31.7684 28.13C31.7684 28.13 30.9539 27.788 30.8234 27.6577Z" fill="#FFE15A"/>
<path d="M23.2647 19.1541C23.3952 19.2845 23.3952 19.496 23.2647 19.6265C23.1343 19.7571 22.9229 19.757 22.7923 19.6265C22.6617 19.496 22.3198 18.6817 22.3198 18.6817C22.3198 18.6817 23.1343 19.0237 23.2647 19.1541Z" fill="#FFE15A"/>
<path d="M25.1795 18.0314C25.2501 18.2019 25.1691 18.3972 24.9986 18.4678C24.8281 18.5384 24.6328 18.4575 24.5622 18.287C24.4916 18.1165 24.4873 17.2333 24.4873 17.2333C24.4873 17.2333 25.1089 17.8609 25.1795 18.0314Z" fill="#FFE15A"/>
<path d="M28.9087 28.7803C28.8381 28.6098 28.919 28.4145 29.0895 28.3439C29.2601 28.2733 29.4554 28.3542 29.526 28.5247C29.5966 28.6953 29.6009 29.5785 29.6009 29.5785C29.6009 29.5785 28.9792 28.9508 28.9087 28.7803Z" fill="#FFE15A"/>
<path d="M32.4185 21.5414C32.248 21.612 32.0527 21.531 31.9821 21.3605C31.9115 21.19 31.9924 20.9947 32.1629 20.9241C32.3334 20.8535 33.2165 20.8492 33.2165 20.8492C33.2165 20.8492 32.589 21.4707 32.4185 21.5414Z" fill="#FFE15A"/>
<path d="M21.6698 25.2704C21.8404 25.1998 22.0357 25.2807 22.1063 25.4512C22.1769 25.6217 22.0959 25.817 21.9254 25.8876C21.7549 25.9582 20.8717 25.9625 20.8717 25.9625C20.8717 25.9625 21.4993 25.3411 21.6698 25.2704Z" fill="#FFE15A"/>
<path d="M29.5259 18.2871C29.4553 18.4576 29.2599 18.5384 29.0895 18.4679C28.919 18.3973 28.8381 18.2019 28.9087 18.0315C28.9793 17.8611 29.6007 17.2335 29.6007 17.2335C29.6007 17.2335 29.5965 18.1167 29.5259 18.2871Z" fill="#FFE15A"/>
<path d="M24.5621 28.5246C24.6327 28.3541 24.8281 28.2733 24.9985 28.3438C25.169 28.4144 25.2499 28.6098 25.1794 28.7802C25.1088 28.9507 24.4873 29.5783 24.4873 29.5783C24.4873 29.5783 24.4915 28.6951 24.5621 28.5246Z" fill="#FFE15A"/>
<path d="M32.163 25.8877C31.9925 25.817 31.9116 25.6216 31.9821 25.4512C32.0527 25.2807 32.2482 25.1999 32.4186 25.2704C32.589 25.3409 33.2166 25.9625 33.2166 25.9625C33.2166 25.9625 32.3333 25.9584 32.163 25.8877Z" fill="#FFE15A"/>
<path d="M21.9253 20.9241C22.0958 20.9947 22.1767 21.1901 22.1062 21.3605C22.0356 21.5309 21.8402 21.6119 21.6697 21.5414C21.4993 21.4708 20.8717 20.8493 20.8717 20.8493C20.8717 20.8493 21.755 20.8534 21.9253 20.9241Z" fill="#FFE15A"/>
<path d="M26.2639 17.7709C26.2999 17.9519 26.1824 18.1278 26.0014 18.1637C25.8204 18.1998 25.6445 18.0823 25.6086 17.9012C25.5725 17.7203 25.7407 16.8532 25.7407 16.8532C25.7407 16.8532 26.2278 17.59 26.2639 17.7709Z" fill="#FFE15A"/>
<path d="M27.8245 29.0408C27.7885 28.8598 27.9059 28.6839 28.087 28.648C28.268 28.612 28.4438 28.7294 28.4798 28.9105C28.5158 29.0915 28.3476 29.9585 28.3476 29.9585C28.3476 29.9585 27.8604 29.2217 27.8245 29.0408Z" fill="#FFE15A"/>
<path d="M32.6791 22.6255C32.4981 22.6616 32.3222 22.5441 32.2863 22.363C32.2502 22.182 32.3677 22.0062 32.5488 21.9703C32.7297 21.9342 33.5968 22.1024 33.5968 22.1024C33.5968 22.1024 32.86 22.5896 32.6791 22.6255Z" fill="#FFE15A"/>
<path d="M21.4091 24.1862C21.5901 24.1501 21.7659 24.2676 21.8019 24.4487C21.8379 24.6297 21.7204 24.8055 21.5394 24.8415C21.3584 24.8775 20.4913 24.7093 20.4913 24.7093C20.4913 24.7093 21.2281 24.2221 21.4091 24.1862Z" fill="#FFE15A"/>
<path d="M30.4768 18.8697C30.3744 19.0231 30.1669 19.0643 30.0135 18.9618C29.86 18.8592 29.8188 18.6518 29.9214 18.4984C30.0238 18.345 30.7558 17.8507 30.7558 17.8507C30.7558 17.8507 30.5793 18.7162 30.4768 18.8697Z" fill="#FFE15A"/>
<path d="M23.6114 27.942C23.7138 27.7886 23.9214 27.7474 24.0748 27.8499C24.2282 27.9524 24.2694 28.1599 24.1669 28.3133C24.0644 28.4667 23.3324 28.961 23.3324 28.961C23.3324 28.961 23.509 28.0955 23.6114 27.942Z" fill="#FFE15A"/>
<path d="M31.5802 26.8386C31.4268 26.7362 31.3856 26.5286 31.4881 26.3752C31.5907 26.2218 31.7981 26.1806 31.9515 26.2831C32.1049 26.3856 32.5992 27.1176 32.5992 27.1176C32.5992 27.1176 31.7337 26.9411 31.5802 26.8386Z" fill="#FFE15A"/>
<path d="M22.5078 19.9731C22.6613 20.0755 22.7025 20.2831 22.5999 20.4365C22.4975 20.5899 22.29 20.6311 22.1365 20.5286C21.9831 20.426 21.4889 19.6941 21.4889 19.6941C21.4889 19.6941 22.3545 19.8707 22.5078 19.9731Z" fill="#FFE15A"/>
<path d="M24.1669 18.4984C24.2693 18.6518 24.2281 18.8592 24.0748 18.9618C23.9215 19.0643 23.7139 19.023 23.6114 18.8697C23.509 18.7163 23.3324 17.8508 23.3324 17.8508C23.3324 17.8508 24.0644 18.3451 24.1669 18.4984Z" fill="#FFE15A"/>
<path d="M29.9213 28.3133C29.8189 28.1599 29.8601 27.9525 30.0134 27.8499C30.1667 27.7475 30.3742 27.7887 30.4768 27.942C30.5792 28.0954 30.7558 28.9609 30.7558 28.9609C30.7558 28.9609 30.0238 28.4666 29.9213 28.3133Z" fill="#FFE15A"/>
<path d="M31.9515 20.5286C31.798 20.631 31.5906 20.5898 31.4881 20.4365C31.3856 20.2831 31.4268 20.0756 31.5802 19.9731C31.7336 19.8707 32.599 19.6941 32.599 19.6941C32.599 19.6941 32.1049 20.4261 31.9515 20.5286Z" fill="#FFE15A"/>
<path d="M22.1367 26.2831C22.2901 26.1807 22.4975 26.2219 22.6001 26.3752C22.7025 26.5286 22.6613 26.7361 22.508 26.8386C22.3546 26.9411 21.4891 27.1176 21.4891 27.1176C21.4891 27.1176 21.9833 26.3856 22.1367 26.2831Z" fill="#FFE15A"/>
<path d="M28.4798 17.9012C28.4437 18.0822 28.2679 18.1998 28.087 18.1637C27.906 18.1277 27.7885 17.9519 27.8245 17.7709C27.8605 17.59 28.3476 16.8532 28.3476 16.8532C28.3476 16.8532 28.5157 17.7203 28.4798 17.9012Z" fill="#FFE15A"/>
<path d="M25.6086 28.9105C25.6446 28.7295 25.8204 28.612 26.0013 28.648C26.1823 28.684 26.2999 28.8598 26.2638 29.0408C26.2278 29.2217 25.7407 29.9585 25.7407 29.9585C25.7407 29.9585 25.5726 29.0914 25.6086 28.9105Z" fill="#FFE15A"/>
<path d="M32.5485 24.8415C32.3676 24.8054 32.25 24.6296 32.286 24.4487C32.3221 24.2677 32.4978 24.1501 32.6788 24.1862C32.8598 24.2222 33.5966 24.7093 33.5966 24.7093C33.5966 24.7093 32.7295 24.8774 32.5485 24.8415Z" fill="#FFE15A"/>
<path d="M21.5396 21.9703C21.7206 22.0063 21.8382 22.1821 21.8021 22.363C21.7661 22.544 21.5903 22.6616 21.4093 22.6255C21.2284 22.5895 20.4916 22.1024 20.4916 22.1024C20.4916 22.1024 21.3587 21.9343 21.5396 21.9703Z" fill="#FFE15A"/>
<path d="M37.5206 24.5777C37.3902 24.5228 37.241 24.5857 37.1866 24.7154C37.1866 24.716 37.1866 24.716 37.1866 24.716C37.1857 24.7184 37.1806 24.7304 37.1719 24.7509C36.9788 25.2019 36.5794 25.861 36.1761 26.481C36.5518 25.2717 36.8952 23.9801 36.9192 23.8893C36.955 23.7537 36.8747 23.6144 36.7393 23.5776C36.6036 23.5412 36.4642 23.6201 36.4262 23.7551C36.2509 24.3833 35.8924 25.2099 35.5616 25.9097C35.6223 25.1295 35.6337 24.4066 35.6345 24.3543C35.6365 24.2161 35.5282 24.1018 35.3901 24.0953C35.2601 24.0993 35.1347 24.1941 35.1244 24.3322C34.7974 28.831 30.4684 30.8435 30.0469 31.0287C29.8264 31.0506 28.7992 31.1664 27.8668 31.4901C27.7612 31.5268 27.6711 31.5636 27.5815 31.6001C27.5482 31.5876 27.5124 31.5806 27.4748 31.5829C24.6133 31.7899 22.3317 30.6161 20.6918 28.1012C19.4529 26.201 19.0643 24.2065 19.0605 24.1866C19.0343 24.0479 18.9015 23.9586 18.7623 23.9831C18.6236 24.0094 18.5325 24.1426 18.5587 24.2813C18.5691 24.3364 18.7396 25.207 19.2091 26.3528C18.5809 25.3611 18.1431 24.1597 17.989 23.534C17.9859 23.5215 17.9779 23.5121 17.9732 23.5005C17.966 23.4829 17.9599 23.4651 17.9493 23.4498C17.9418 23.4389 17.9319 23.431 17.923 23.4215C17.909 23.4068 17.8957 23.3923 17.8786 23.3813C17.8688 23.375 17.8579 23.3718 17.8472 23.3669C17.8284 23.3581 17.8099 23.3494 17.7889 23.3454C17.7744 23.3425 17.7595 23.3444 17.7444 23.3441C17.7291 23.3439 17.7146 23.34 17.6989 23.3427C17.6955 23.3433 17.6928 23.3457 17.6894 23.3464C17.6861 23.3471 17.683 23.3461 17.6796 23.3467C17.666 23.3501 17.6555 23.3587 17.643 23.364C17.6271 23.371 17.6108 23.3761 17.5968 23.3858C17.5831 23.3953 17.5728 23.4076 17.5614 23.4194C17.55 23.4311 17.538 23.4415 17.5291 23.455C17.52 23.4688 17.5151 23.4843 17.5087 23.4997C17.5025 23.5146 17.4954 23.5287 17.4921 23.5448C17.4888 23.5613 17.4903 23.5783 17.4904 23.5956C17.4904 23.6093 17.4866 23.6225 17.489 23.6366C17.49 23.6426 17.492 23.6487 17.493 23.6545V23.6555C17.4933 23.6566 17.4937 23.6581 17.494 23.6592C17.652 24.5902 18.0286 25.5552 18.3691 26.2912C17.8284 25.6776 17.3765 24.9707 17.2164 24.552C17.2118 24.5398 17.2025 24.5313 17.1963 24.5204C17.1868 24.5035 17.1785 24.4862 17.1657 24.4722C17.1566 24.4623 17.1456 24.4558 17.1352 24.4475C17.1197 24.435 17.1049 24.4224 17.087 24.4138C17.0754 24.4084 17.0629 24.4066 17.0507 24.4028C17.0319 24.3971 17.0136 24.3909 16.9936 24.3896C16.9779 24.3885 16.9623 24.3925 16.9463 24.3946C16.9316 24.3964 16.9171 24.3946 16.9024 24.3992C16.8996 24.4001 16.8976 24.4023 16.895 24.4033C16.8922 24.4042 16.8895 24.4036 16.8868 24.4046C16.8729 24.4099 16.863 24.4202 16.8506 24.4275C16.8361 24.4361 16.8206 24.4432 16.8082 24.4544C16.7955 24.4658 16.7867 24.4799 16.7767 24.4935C16.7672 24.5063 16.7567 24.5177 16.7497 24.532C16.7423 24.5469 16.7396 24.5631 16.7354 24.5793C16.7312 24.595 16.7256 24.6096 16.7246 24.6261C16.7234 24.6426 16.7275 24.6591 16.7297 24.6758C16.7315 24.6903 16.7296 24.7046 16.734 24.7189C17.012 25.6154 17.6803 26.682 18.204 27.4334C17.7676 27.0971 17.4469 26.7334 17.3539 26.6237C17.3438 26.6118 17.3339 26.5998 17.3239 26.5878C17.2338 26.4795 17.0748 26.4641 16.9657 26.5524C16.857 26.6412 16.8399 26.8009 16.9278 26.91C16.9326 26.9161 16.9517 26.94 16.9838 26.9774C17.367 27.4334 17.7844 27.8588 18.1627 28.2181L17.6453 27.9976C17.5273 27.9467 17.3886 27.9926 17.3241 28.1048C17.2594 28.2171 17.2886 28.3592 17.3921 28.4371C17.4425 28.4745 18.3587 29.1589 19.1519 29.5635C19.0771 29.568 18.9893 29.5625 18.8911 29.555C18.7711 29.5435 18.6532 29.6293 18.624 29.751C18.5953 29.8732 18.6591 29.998 18.7752 30.0458C18.7947 30.0539 19.0364 30.1536 19.3348 30.2598C19.2652 30.2882 19.2098 30.3466 19.1869 30.4224C19.1525 30.5357 19.2008 30.6584 19.3036 30.7172C19.3303 30.7328 19.6914 30.9398 20.1381 31.1233C20.1262 31.1417 20.1165 31.1617 20.1091 31.1836C20.0742 31.2909 20.1141 31.4086 20.2072 31.473C20.2847 31.5263 22.0196 32.7037 24.0457 32.7037C24.1788 32.7037 24.3131 32.6987 24.4483 32.6877C24.5887 32.6767 24.6938 32.5536 24.6826 32.4128C24.6713 32.2721 24.5494 32.1659 24.4075 32.1788C23.1346 32.2827 21.9084 31.8047 21.1791 31.4395C21.2753 31.416 21.3307 31.3946 21.3445 31.3891C21.457 31.3432 21.5218 31.2249 21.4999 31.1057C21.4779 30.9866 21.3751 30.8992 21.2537 30.8966C20.9576 30.8906 20.5475 30.7464 20.1943 30.5917C20.3277 30.5249 20.4056 30.461 20.4125 30.4555C20.4893 30.3912 20.5217 30.2884 20.4956 30.1916C20.4692 30.0954 20.3887 30.023 20.2901 30.0071C20.1816 29.9891 20.0463 29.9541 19.9047 29.9113C20.0424 29.832 20.101 29.7447 20.1235 29.7002C20.1589 29.6294 20.1597 29.5465 20.1257 29.4752C20.0916 29.404 20.0265 29.3525 19.9491 29.336C19.8823 29.3215 19.8066 29.2971 19.7249 29.2652C19.7398 29.2502 19.7536 29.2332 19.7647 29.2138C19.8297 29.1036 19.8029 28.9619 19.7019 28.8826C19.6966 28.8786 19.4984 28.723 19.1982 28.464C19.2459 28.4465 19.2879 28.4141 19.3184 28.3703C19.3828 28.2775 19.3784 28.1533 19.3077 28.0654C19.302 28.0583 19.1035 27.8087 18.8298 27.4296C18.9202 27.4998 19.0104 27.5714 19.1006 27.6294C19.1431 27.6564 19.1912 27.6699 19.2388 27.6699C19.3035 27.6699 19.3672 27.6455 19.4164 27.598C19.4366 27.5785 19.4524 27.556 19.4649 27.5321C19.6199 27.6976 19.7827 27.8479 19.9537 27.9761C19.9759 27.9928 20.003 27.9925 20.028 28.0009C20.1004 28.1224 20.1758 28.2441 20.2549 28.3658C21.806 30.7523 23.993 32.0306 26.6161 32.1074C26.3746 32.254 26.1123 32.4056 25.6972 32.5673C25.6066 32.6027 25.5265 32.638 25.446 32.6735C25.4072 32.6811 25.3707 32.6952 25.3404 32.7193C24.6158 33.0547 24.3158 33.3862 24.1941 33.618C24.0726 33.8485 24.1774 34.0849 24.3257 34.2077C24.3718 34.2455 24.4305 34.265 24.4893 34.265C24.5297 34.265 24.5702 34.256 24.6068 34.2375C24.6971 34.1926 24.7575 34.0973 24.7535 33.9971C24.7639 33.9857 24.8083 33.9488 24.9475 33.9442C25.049 33.9357 25.2625 33.9586 25.5118 33.9786C25.7489 33.9981 26.0332 34.0203 26.3356 34.0358C26.1464 34.2563 25.9266 34.5119 25.9266 34.5119C25.8606 34.5887 25.846 34.6974 25.89 34.7887C25.9341 34.8805 26.0292 34.9374 26.1289 34.9338C26.3308 34.9268 26.4679 34.9228 26.558 34.9209C26.6365 35.0238 26.7329 35.0646 26.795 35.0805C26.9706 35.1254 27.1457 35.0551 27.2776 34.9718C27.3774 35.0437 27.4772 35.0741 27.5563 35.0856C27.7346 35.11 27.8997 35.0581 28.0192 34.9993C28.1429 35.0791 28.2641 35.0995 28.3565 35.0995C28.3578 35.0995 28.3592 35.0995 28.3607 35.0995C28.56 35.0986 28.7344 35.0023 28.8578 34.9079C28.9668 34.9728 29.071 34.9937 29.1516 34.9973C29.3345 35.0037 29.4861 34.9334 29.5869 34.8675C29.9468 34.9398 30.2571 34.7702 30.4621 34.5831C30.5557 34.6375 30.6447 34.651 30.7156 34.6475C30.8979 34.6411 31.0368 34.5302 31.1259 34.431C31.534 34.4803 31.8269 34.405 31.9961 34.204C32.0884 34.0948 32.1259 33.9716 32.1361 33.8593C33.2683 33.8529 33.3707 33.2347 33.379 33.1583C33.3865 33.0889 33.3654 33.0197 33.3202 32.9663C33.2753 32.913 33.2102 32.88 33.1407 32.876L30.1723 32.6975C30.0481 32.6885 29.9372 32.7718 29.9084 32.8931C29.9078 32.8951 29.8573 33.0836 29.699 33.2344C29.4859 33.4378 29.1428 33.5453 28.7697 33.6022C28.771 33.568 28.7662 33.5332 28.7532 33.4993C28.7023 33.3676 28.5541 33.3037 28.4229 33.3532C27.8101 33.591 26.8179 33.5611 26.0417 33.5071C26.1608 33.4098 26.3041 33.3134 26.4187 33.2505C26.5155 33.1972 26.5674 33.0879 26.5469 32.9792C26.5321 32.9002 26.4749 32.8453 26.406 32.8099C26.6218 32.7009 26.7988 32.5956 26.9666 32.4933C27.258 32.3148 27.5333 32.1465 28.0347 31.9725C29.0025 31.6363 30.1225 31.534 30.1337 31.533C30.1591 31.5309 30.1841 31.5245 30.2077 31.515C30.2476 31.4985 33.4068 30.175 34.8951 27.1213C34.8756 27.2136 34.8547 27.298 34.832 27.3717C34.7931 27.4975 34.8559 27.6317 34.9771 27.6825C35.0708 27.7219 35.1774 27.7014 35.2495 27.6346C35.1555 27.8826 35.0704 28.0776 35.001 28.1928C34.9302 28.3101 34.9644 28.4623 35.0783 28.538C35.1051 28.5555 35.1337 28.5674 35.1631 28.5745C35.0479 28.7431 34.9311 28.9027 34.8146 29.0489C34.737 29.1461 34.7415 29.2849 34.8226 29.3767C34.6226 29.5862 34.4452 29.7588 34.3105 29.8686C34.2225 29.9399 34.1938 30.0591 34.2342 30.161C34.1042 30.2353 33.9975 30.2877 33.9235 30.3101C33.7992 30.3475 33.723 30.4727 33.7464 30.6004C33.7586 30.6678 33.7965 30.7247 33.8489 30.7621C33.6927 30.8039 33.5218 30.8444 33.3363 30.8812C33.2318 30.9021 33.1511 30.9855 33.134 31.0907C33.1171 31.1959 33.167 31.3007 33.2594 31.3536C33.2674 31.3581 33.3546 31.4075 33.4882 31.4643C32.9941 31.6633 32.1118 31.9233 30.6641 32.066C30.5239 32.0799 30.4211 32.2052 30.4351 32.3454C30.4488 32.4856 30.5701 32.5829 30.7145 32.5748C33.4627 32.303 34.3114 31.6151 34.346 31.5856C34.4253 31.5192 34.4568 31.411 34.4253 31.3123C34.4044 31.2469 34.3585 31.1941 34.2995 31.1635C35.1776 30.8872 35.5545 30.5813 35.5742 30.5649C35.6705 30.485 35.6947 30.3469 35.6314 30.2386C35.5675 30.1303 35.4346 30.0834 35.3186 30.1303C35.286 30.1428 35.2338 30.1557 35.1679 30.1687C35.7572 29.7652 36.3826 29.2846 36.6577 29.0702C36.7061 29.0343 36.75 28.9998 36.7887 28.9673C36.8955 28.8776 36.9105 28.7188 36.8223 28.6107C36.7348 28.503 36.5753 28.4849 36.466 28.5712C36.4262 28.6027 36.3847 28.6351 36.3418 28.6685C36.2149 28.7628 36.0525 28.8696 35.8753 28.9792C36.5441 28.22 37.2173 27.3968 37.4096 27.1604C37.4271 27.1389 37.4443 27.1175 37.4617 27.096C37.55 26.9863 37.5328 26.8256 37.4231 26.7374C37.313 26.6476 37.1522 26.6661 37.0641 26.7752L37.0635 26.7758L37.0633 26.7764C37.0585 26.7819 37.0369 26.8088 37.0005 26.8538C36.799 27.0997 36.5869 27.3377 36.3777 27.5601C37.0589 26.3254 37.5747 25.1101 37.6503 24.93C37.653 24.9236 37.6556 24.9171 37.6583 24.9105C37.7124 24.7813 37.6509 24.6316 37.5206 24.5777ZM25.549 33.1877L25.6187 33.1968C25.5331 33.2768 25.4635 33.3664 25.4082 33.459C25.287 33.4493 25.1769 33.4407 25.0907 33.4369C25.2095 33.3592 25.3624 33.2749 25.549 33.1877Z" fill="#FFE15A"/>
</g>
<defs>
<clipPath id="clip0_108_48517">
<rect width="50" height="50" fill="white" transform="translate(0.603516 0.453369)"/>
</clipPath>
</defs>
</svg>
