<svg width="51" height="51" viewBox="0 0 51 51" fill="none" xmlns="http://www.w3.org/2000/svg">
<g clip-path="url(#clip0_108_48498)">
<path d="M0.03125 30.9131H50.0312V40.9705C50.0312 41.4466 49.6451 41.8326 49.169 41.8326H0.893358C0.417284 41.8326 0.03125 41.4466 0.03125 40.9705V30.9131Z" fill="#73AF00"/>
<path d="M0.893358 9.07407H49.1691C49.6452 9.07407 50.0312 9.4601 50.0312 9.93617V19.9936H0.03125V9.93608C0.03125 9.46 0.417284 9.07407 0.893358 9.07407Z" fill="#464655"/>
<path d="M50.0312 19.9934H0.03125V30.9123H50.0312V19.9934Z" fill="#C8414B"/>
<path d="M50.0312 19.4191H0.03125V21.1432H50.0312V19.4191Z" fill="#F5F5F5"/>
<path d="M50.0312 29.7639H0.03125V31.488H50.0312V29.7639Z" fill="#F5F5F5"/>
<path d="M29.6473 18.1894C30.3415 16.7581 31.0658 13.4424 31.0658 13.4424C31.0658 13.4424 28.9103 16.0639 28.216 17.4952C28.0705 17.7952 28.1322 18.1402 28.3423 18.3736L20.4354 34.6757L20.9721 34.9361L28.8791 18.6339C29.1927 18.6546 29.5019 18.4894 29.6473 18.1894Z" fill="#F5F5F5"/>
<path d="M20.4152 18.1894C19.721 16.7581 18.9967 13.4424 18.9967 13.4424C18.9967 13.4424 21.1522 16.0639 21.8465 17.4952C21.992 17.7952 21.9303 18.1402 21.7201 18.3736L29.6271 34.6757L29.0903 34.9361L21.1834 18.6339C20.8697 18.6546 20.5606 18.4894 20.4152 18.1894Z" fill="#F5F5F5"/>
<path d="M29.3415 25.4533C29.3415 30.2145 25.8247 34.074 25.0312 34.074C24.2376 34.074 20.7208 30.2145 20.7208 25.4533C20.7208 20.6922 24.2376 16.8327 25.0312 16.8327C25.8247 16.8327 29.3415 20.6922 29.3415 25.4533Z" fill="#C8414B"/>
<path d="M28.4793 29.6126C28.987 28.3791 29.3414 26.9622 29.3414 25.4533C29.3414 23.9444 28.9871 22.5276 28.4793 21.294C27.9716 22.5275 27.6172 23.9444 27.6172 25.4533C27.6172 26.9622 27.9716 28.3791 28.4793 29.6126Z" fill="#464655"/>
<path d="M21.5829 21.2941C21.0752 22.5276 20.7208 23.9445 20.7208 25.4534C20.7208 26.9622 21.0751 28.379 21.5829 29.6126C22.0906 28.3791 22.445 26.9622 22.445 25.4534C22.445 23.9445 22.0906 22.5277 21.5829 21.2941Z" fill="#464655"/>
<path d="M25.0323 26.7465C25.5084 26.7465 25.8944 26.1676 25.8944 25.4535C25.8944 24.7393 25.5084 24.1604 25.0323 24.1604C24.5561 24.1604 24.1702 24.7393 24.1702 25.4535C24.1702 26.1676 24.5561 26.7465 25.0323 26.7465Z" fill="#F5F5F5"/>
<path d="M25.1616 16.8327V24.1603C25.3967 23.671 25.8136 22.2252 25.8136 20.4965C25.8136 18.7677 25.3967 17.322 25.1616 16.8327Z" fill="#F5F5F5"/>
<path d="M24.9027 16.8327C24.6676 17.322 24.2507 18.7677 24.2507 20.4965C24.2507 22.2253 24.6676 23.6711 24.9027 24.1603V16.8327Z" fill="#F5F5F5"/>
<path d="M25.1616 26.7465V34.074C25.3967 33.5848 25.8136 32.139 25.8136 30.4103C25.8136 28.6814 25.3967 27.2357 25.1616 26.7465Z" fill="#F5F5F5"/>
<path d="M24.9027 26.7465C24.6676 27.2357 24.2507 28.6814 24.2507 30.4103C24.2507 32.1391 24.6676 33.5849 24.9027 34.074V26.7465Z" fill="#F5F5F5"/>
</g>
<defs>
<clipPath id="clip0_108_48498">
<rect width="50" height="50" fill="white" transform="translate(0.03125 0.453369)"/>
</clipPath>
</defs>
</svg>
