<svg width="51" height="51" viewBox="0 0 51 51" fill="none" xmlns="http://www.w3.org/2000/svg">
<g clip-path="url(#clip0_108_48484)">
<path d="M49.4611 41.8325H1.18547C0.709398 41.8325 0.323364 41.4465 0.323364 40.9704V9.93617C0.323364 9.4601 0.709398 9.07407 1.18547 9.07407H49.4612C49.9372 9.07407 50.3233 9.4601 50.3233 9.93617V40.9704C50.3232 41.4467 49.9371 41.8325 49.4611 41.8325Z" fill="#FF4B55"/>
<path d="M30.1541 25.7248C29.9355 25.5367 29.6874 25.3998 29.4385 25.2997C30.8456 25.0222 31.9772 23.8333 31.9772 23.8333C31.2932 24.1334 30.9752 24.1941 29.8864 23.8363C29.6125 23.7463 29.331 23.7146 29.0627 23.7175C30.2564 22.9225 30.8471 21.3913 30.8471 21.3913C30.33 21.9303 30.0594 22.1082 28.9166 22.1942C28.629 22.2159 28.3568 22.2944 28.11 22.3997C28.9088 21.2086 28.8684 19.5676 28.8684 19.5676C28.5969 20.2635 28.415 20.5313 27.3921 21.048C27.1347 21.1781 26.9132 21.355 26.7255 21.5466C27.0075 20.1404 26.3423 18.64 26.3423 18.64C26.3578 19.3868 26.2922 19.7039 25.545 20.5729C25.357 20.7915 25.22 21.0395 25.1199 21.2885C24.8425 19.8813 23.6535 18.7497 23.6535 18.7497C23.9536 19.4338 24.0144 19.7518 23.6566 20.8405C23.5665 21.1144 23.5349 21.396 23.5377 21.6643C22.7428 20.4705 21.2116 19.8799 21.2116 19.8799C21.7505 20.397 21.9285 20.6676 22.0145 21.8103C22.0362 22.0979 22.1147 22.3701 22.2199 22.6169C21.0286 21.8182 19.3878 21.8586 19.3878 21.8586C20.0837 22.1301 20.3516 22.3119 20.8683 23.3349C20.9984 23.5923 21.1752 23.8137 21.3669 24.0014C19.9607 23.7193 18.4602 24.3847 18.4602 24.3847C19.2071 24.3691 19.5241 24.4347 20.3931 25.1819C20.6118 25.37 20.8598 25.5068 21.1087 25.607C19.7016 25.8844 18.57 27.0734 18.57 27.0734C19.254 26.7733 19.572 26.7126 20.6608 27.0704C20.9348 27.1604 21.2163 27.1921 21.4846 27.1892C20.2909 27.984 19.7001 29.5155 19.7001 29.5155C20.2172 28.9765 20.4878 28.7986 21.6306 28.7126C21.9182 28.6909 22.1904 28.6124 22.4371 28.5072C21.6384 29.6985 21.6788 31.3392 21.6788 31.3392C21.9503 30.6432 22.1322 30.3754 23.1551 29.8587C23.4125 29.7286 23.6339 29.5517 23.8217 29.3601C23.5396 30.7664 24.2049 32.2667 24.2049 32.2667C24.1894 31.5199 24.255 31.2029 25.0022 30.3338C25.1903 30.1152 25.3272 29.8671 25.4273 29.6182C25.7047 31.0252 26.8937 32.157 26.8937 32.157C26.5936 31.4729 26.5328 31.1548 26.8906 30.0662C26.9807 29.7922 27.0123 29.5107 27.0095 29.2424C27.8044 30.4362 29.3356 31.0268 29.3356 31.0268C28.7967 30.5097 28.6188 30.2391 28.5327 29.0963C28.511 28.8089 28.4325 28.5366 28.3274 28.2898C29.5185 29.0885 31.1594 29.0481 31.1594 29.0481C30.4635 28.7765 30.1956 28.5948 29.6788 27.5718C29.5487 27.3144 29.3719 27.0929 29.1803 26.9052C30.5865 27.1873 32.0869 26.522 32.0869 26.522C31.3401 26.5376 31.023 26.4722 30.1541 25.7248Z" fill="#FFE15A"/>
<path d="M28.7807 26.1412L32.2195 25.4534L28.7807 24.7656L31.6946 22.8142L28.2543 23.4947L30.1997 20.5767L27.2818 22.5221L27.9623 19.0818L26.011 21.9957L25.3231 18.557L24.6354 21.9959L22.684 19.082L23.3646 22.5223L20.4466 20.5769L22.392 23.4949L18.9517 22.8144L21.8657 24.7658L18.4266 25.4535L21.8655 26.1413L18.9515 28.0926L22.3919 27.4121L20.4465 30.33L23.3644 28.3846L22.6838 31.8249L24.6352 28.9111L25.3231 32.3498L26.0109 28.911L27.9622 31.8248L27.2817 28.3845L30.1996 30.3299L28.2542 27.412L31.6946 28.0925L28.7807 26.1412Z" fill="#FFD25A"/>
<path d="M25.3232 28.9015C27.2276 28.9015 28.7715 27.3577 28.7715 25.4533C28.7715 23.5489 27.2276 22.0051 25.3232 22.0051C23.4188 22.0051 21.875 23.5489 21.875 25.4533C21.875 27.3577 23.4188 28.9015 25.3232 28.9015Z" fill="#FFE15A"/>
<path d="M10.3094 35.7982C12.8104 35.7982 12.8104 36.6603 15.3114 36.6603C17.8143 36.6603 17.8143 35.7982 20.3169 35.7982C22.8195 35.7982 22.8197 36.6603 25.3223 36.6603C27.8195 36.6603 27.8195 35.7982 30.3167 35.7982C32.8153 35.7982 32.8153 36.6603 35.3137 36.6603C37.8133 36.6603 37.8133 35.7982 40.3128 35.7982C42.8123 35.7982 42.8123 36.6603 45.3118 36.6603C47.8114 36.6603 47.8114 35.7982 50.311 35.7982C50.315 35.7982 50.3183 35.7984 50.3223 35.7984V33.2121C50.3183 33.2121 50.315 33.2119 50.311 33.2119C47.8114 33.2119 47.8114 34.0741 45.3118 34.0741C42.8124 34.0741 42.8124 33.2119 40.3128 33.2119C37.8132 33.2119 37.8132 34.0741 35.3137 34.0741C32.8152 34.0741 32.8152 33.2119 30.3167 33.2119C27.8196 33.2119 27.8196 34.0741 25.3223 34.0741C22.8195 34.0741 22.8195 33.2119 20.3169 33.2119C17.8143 33.2119 17.8141 34.0741 15.3114 34.0741C12.8104 34.0741 12.8104 33.2119 10.3094 33.2119C7.81059 33.2119 7.81059 34.0741 5.31167 34.0741C2.81549 34.0741 2.81081 33.215 0.322632 33.2122V35.7985C2.8109 35.8013 2.81549 36.6603 5.31167 36.6603C7.81059 36.6603 7.81059 35.7982 10.3094 35.7982Z" fill="#41479B"/>
<path d="M0.322632 30.6261C2.8109 30.6289 2.81549 31.4878 5.31167 31.4878C7.81059 31.4878 7.81059 30.6257 10.3094 30.6257C12.8104 30.6257 12.8104 31.4878 15.3114 31.4878C17.8143 31.4878 17.8143 30.6257 20.3169 30.6257C22.8195 30.6257 22.8197 31.4878 25.3223 31.4878C27.8195 31.4878 27.8195 30.6257 30.3167 30.6257C32.8153 30.6257 32.8153 31.4878 35.3137 31.4878C37.8133 31.4878 37.8133 30.6257 40.3128 30.6257C42.8123 30.6257 42.8123 31.4878 45.3118 31.4878C47.8114 31.4878 47.8114 30.6257 50.311 30.6257C50.315 30.6257 50.3183 30.6259 50.3223 30.6259V28.0397C50.3183 28.0397 50.315 28.0395 50.311 28.0395C47.8114 28.0395 47.8114 28.9016 45.3118 28.9016C42.8124 28.9016 42.8124 28.0395 40.3128 28.0395C37.8132 28.0395 37.8132 28.9016 35.3137 28.9016C32.8152 28.9016 32.8152 28.0395 30.3167 28.0395C27.8196 28.0395 27.8196 28.9016 25.3223 28.9016C22.8195 28.9016 22.8195 28.0395 20.3169 28.0395C17.8143 28.0395 17.8141 28.9016 15.3114 28.9016C12.8104 28.9016 12.8104 28.0395 10.3094 28.0395C7.81059 28.0395 7.81059 28.9016 5.31167 28.9016C2.81549 28.9016 2.81081 28.0425 0.322632 28.0398L0.322632 30.6261Z" fill="#41479B"/>
<path d="M0.322632 38.3847C2.8109 38.3874 2.81549 39.2464 5.31167 39.2464C7.81059 39.2464 7.81059 38.3843 10.3094 38.3843C12.8104 38.3843 12.8104 39.2464 15.3114 39.2464C17.8143 39.2464 17.8143 38.3843 20.3169 38.3843C22.8195 38.3843 22.8197 39.2464 25.3223 39.2464C27.8195 39.2464 27.8195 38.3843 30.3167 38.3843C32.8153 38.3843 32.8153 39.2464 35.3137 39.2464C37.8133 39.2464 37.8133 38.3843 40.3128 38.3843C42.8123 38.3843 42.8123 39.2464 45.3118 39.2464C47.8114 39.2464 47.8114 38.3843 50.311 38.3843C50.315 38.3843 50.3183 38.3845 50.3223 38.3845V35.7982C50.3183 35.7982 50.315 35.798 50.311 35.798C47.8114 35.798 47.8114 36.6602 45.3118 36.6602C42.8124 36.6602 42.8124 35.798 40.3128 35.798C37.8132 35.798 37.8132 36.6602 35.3137 36.6602C32.8152 36.6602 32.8152 35.798 30.3167 35.798C27.8196 35.798 27.8196 36.6602 25.3223 36.6602C22.8195 36.6602 22.8195 35.798 20.3169 35.798C17.8143 35.798 17.8141 36.6602 15.3114 36.6602C12.8104 36.6602 12.8104 35.798 10.3094 35.798C7.81059 35.798 7.81059 36.6602 5.31167 36.6602C2.81549 36.6602 2.81081 35.8011 0.322632 35.7983L0.322632 38.3847Z" fill="#F5F5F5"/>
<path d="M0.322632 33.2123C2.8109 33.215 2.81549 34.074 5.31167 34.074C7.81059 34.074 7.81059 33.2119 10.3094 33.2119C12.8104 33.2119 12.8104 34.074 15.3114 34.074C17.8143 34.074 17.8143 33.2119 20.3169 33.2119C22.8195 33.2119 22.8197 34.074 25.3223 34.074C27.8195 34.074 27.8195 33.2119 30.3167 33.2119C32.8153 33.2119 32.8153 34.074 35.3137 34.074C37.8133 34.074 37.8133 33.2119 40.3128 33.2119C42.8123 33.2119 42.8123 34.074 45.3118 34.074C47.8114 34.074 47.8114 33.2119 50.311 33.2119C50.315 33.2119 50.3183 33.2121 50.3223 33.2121V30.6259C50.3183 30.6259 50.315 30.6257 50.311 30.6257C47.8114 30.6257 47.8114 31.4878 45.3118 31.4878C42.8124 31.4878 42.8124 30.6257 40.3128 30.6257C37.8132 30.6257 37.8132 31.4878 35.3137 31.4878C32.8152 31.4878 32.8152 30.6257 30.3167 30.6257C27.8196 30.6257 27.8196 31.4878 25.3223 31.4878C22.8195 31.4878 22.8195 30.6257 20.3169 30.6257C17.8143 30.6257 17.8141 31.4878 15.3114 31.4878C12.8104 31.4878 12.8104 30.6257 10.3094 30.6257C7.81059 30.6257 7.81059 31.4878 5.31167 31.4878C2.81549 31.4878 2.81081 30.6287 0.322632 30.626L0.322632 33.2123Z" fill="#F5F5F5"/>
<path d="M0.322632 28.04C2.8109 28.0427 2.81549 28.9017 5.31167 28.9017C7.81059 28.9017 7.81059 28.0396 10.3094 28.0396C12.8104 28.0396 12.8104 28.9017 15.3114 28.9017C17.8143 28.9017 17.8143 28.0396 20.3169 28.0396C22.8195 28.0396 22.8197 28.9017 25.3223 28.9017C27.8195 28.9017 27.8195 28.0396 30.3167 28.0396C32.8153 28.0396 32.8153 28.9017 35.3137 28.9017C37.8133 28.9017 37.8133 28.0396 40.3128 28.0396C42.8123 28.0396 42.8123 28.9017 45.3118 28.9017C47.8114 28.9017 47.8114 28.0396 50.311 28.0396C50.315 28.0396 50.3183 28.0398 50.3223 28.0398V25.4536C50.3183 25.4536 50.315 25.4534 50.311 25.4534C47.8114 25.4534 47.8114 26.3155 45.3118 26.3155C42.8124 26.3155 42.8124 25.4534 40.3128 25.4534C37.8132 25.4534 37.8132 26.3155 35.3137 26.3155C32.8152 26.3155 32.8152 25.4534 30.3167 25.4534C27.8196 25.4534 27.8196 26.3155 25.3223 26.3155C22.8195 26.3155 22.8195 25.4534 20.3169 25.4534C17.8143 25.4534 17.8141 26.3155 15.3114 26.3155C12.8104 26.3155 12.8104 25.4534 10.3094 25.4534C7.81059 25.4534 7.81059 26.3155 5.31167 26.3155C2.81549 26.3155 2.81081 25.4564 0.322632 25.4536L0.322632 28.04Z" fill="#F5F5F5"/>
<path d="M45.3127 39.2464C42.8133 39.2464 42.8133 38.3843 40.3137 38.3843C37.8141 38.3843 37.8141 39.2464 35.3146 39.2464C32.8161 39.2464 32.8161 38.3843 30.3176 38.3843C27.8205 38.3843 27.8205 39.2464 25.3233 39.2464C22.8205 39.2464 22.8205 38.3843 20.3179 38.3843C17.8152 38.3843 17.815 39.2464 15.3124 39.2464C12.8114 39.2464 12.8114 38.3843 10.3104 38.3843C7.81157 38.3843 7.81157 39.2464 5.31265 39.2464C2.81647 39.2464 2.81178 38.3873 0.323608 38.3846V40.9705C0.323608 41.4466 0.709642 41.8326 1.18571 41.8326H49.4614C49.9314 41.8326 50.3103 41.4554 50.32 40.9877C50.3211 39.4709 50.3222 38.3847 50.3234 38.3847C50.3194 38.3847 50.3161 38.3845 50.3121 38.3845C47.8123 38.3843 47.8123 39.2464 45.3127 39.2464Z" fill="#41479B"/>
<path d="M27.1183 13.6531C31.3104 13.4909 33.4412 11.6613 33.4412 11.6613C33.1401 11.777 28.4386 12.1707 27.0952 12.2866C26.2469 12.3596 25.1886 13.3269 24.5221 14.0312C24.3426 13.5435 23.9917 13.0376 23.2969 12.9351C21.8841 12.7267 18.1321 12.4951 17.2057 12.0549C17.2057 12.0549 17.8036 12.9792 20.8941 13.3983C22.3747 13.599 23.1911 14.1069 23.5799 14.4526L23.2274 14.4405C23.2274 14.4405 23.2274 14.4405 22.6253 14.1393C22.0231 13.8382 21.4209 14.3477 21.4209 14.3477H20.4617C20.3416 14.3477 20.2731 14.4849 20.3451 14.5809L20.4374 14.7039C20.5316 14.8296 20.6795 14.9035 20.8365 14.9035H21.8146C22.162 15.5057 23.4821 16.1311 24.5707 16.1311C25.6592 16.1311 28.9944 14.6488 29.3186 14.6488L26.3016 14.5456L27.1183 13.6531Z" fill="#FFE15A"/>
</g>
<defs>
<clipPath id="clip0_108_48484">
<rect width="50" height="50" fill="white" transform="translate(0.324219 0.453369)"/>
</clipPath>
</defs>
</svg>
