<svg width="51" height="51" viewBox="0 0 51 51" fill="none" xmlns="http://www.w3.org/2000/svg">
<g clip-path="url(#clip0_108_48474)">
<path d="M49.89 41.8327H1.61431C1.13823 41.8327 0.752197 41.4467 0.752197 40.9706V9.93617C0.752197 9.4601 1.13823 9.07407 1.61431 9.07407H49.8901C50.3662 9.07407 50.7522 9.4601 50.7522 9.93617V40.9706C50.7521 41.4468 50.3661 41.8327 49.89 41.8327Z" fill="#41479B"/>
<path d="M26.8567 20.2272C26.3584 20.1328 25.7522 19.4998 25.9677 19.1496C26.1833 18.7994 25.7792 18.0182 25.2942 18.2875C24.8093 18.557 24.486 18.8802 24.028 18.9879C23.57 19.0956 23.1929 19.4459 23.543 19.7692C23.8932 20.0924 24.432 20.739 23.9202 21.4125C23.4084 22.0861 23.57 21.6281 22.9504 21.9243C22.3307 22.2206 21.8997 22.8133 22.0883 23.1636C22.2768 23.5138 22.4385 23.6486 21.8997 23.8909C21.3609 24.1333 21.1184 23.9718 20.6874 24.0795C20.2563 24.1872 19.2057 24.7261 18.8824 25.184C18.5592 25.642 17.8587 25.211 17.5624 25.1571C17.2661 25.1031 16.6734 25.3187 16.5387 25.6689C16.404 26.0191 16.6464 26.3424 17.1583 26.504C17.6701 26.6656 17.8856 26.6926 17.6433 27.1236C17.4009 27.5547 17.5624 28.3899 17.9665 28.6322C18.3706 28.8747 19.1518 29.629 19.1518 30.1408C19.1518 30.6526 19.0441 31.407 19.7984 31.5148C20.5527 31.6225 21.7111 31.9458 22.1152 32.6462C22.5193 33.3466 22.627 33.7507 22.7079 34.1817C22.7887 34.6128 22.8695 34.963 23.112 35.448C23.3545 35.9329 23.5161 36.768 23.2736 36.9565C23.0311 37.1451 22.8426 37.2798 23.0311 37.6435C23.2197 38.0071 23.2601 38.1418 23.6103 37.9397C23.9605 37.7377 23.9605 37.9532 24.1491 37.9128C24.3377 37.8724 25.1998 37.5626 25.0381 37.145C24.8764 36.7274 24.5262 35.7711 25.0246 35.2728C25.5229 34.7744 26.1965 34.6936 26.6275 34.3568C27.0586 34.0201 27.7724 33.9662 28.3247 33.4274C28.8769 32.8887 29.4696 33.2119 29.5639 33.5891C29.6583 33.9662 29.8064 34.6936 30.2375 34.6801C30.6685 34.6666 30.7628 34.6666 30.8436 34.1413C30.9245 33.616 31.5979 32.4441 31.8673 32.5923C32.1368 32.7404 32.3792 32.6192 32.3926 32.3902C32.4061 32.1612 32.9179 31.9592 33.1335 32.2825C33.349 32.6058 33.8204 32.8617 33.807 32.4576C33.7935 32.0535 33.2413 32.1074 33.2278 31.6629C33.2143 31.2184 33.6723 30.9356 34.0764 30.747C34.4805 30.5584 34.238 30.0734 34.3593 29.8041C34.4805 29.5347 35.1406 29.198 35.1675 28.9285C35.1945 28.6591 35.0059 28.5514 35.2887 28.484C35.5716 28.4166 35.9218 28.2954 35.7198 27.9857C35.5177 27.6759 35.5851 27.4469 35.8006 27.2987C36.0162 27.1506 36.1172 26.4474 35.8029 26.356C35.4884 26.2647 34.9206 26.5284 34.7786 26.7008C34.6366 26.8733 34.0586 26.1328 33.7846 25.9502C33.5108 25.7677 31.7461 25.8792 31.7867 25.575C31.8273 25.2708 32.5679 24.1603 32.2447 23.9852C31.9214 23.8101 31.4095 23.5541 30.992 23.4195C30.5744 23.2848 30.6687 23.7427 30.4397 23.379C30.2107 23.0154 30.1299 21.7222 29.874 21.7222C29.618 21.7222 29.4295 22.261 29.3217 22.0589C29.214 21.8569 29.3622 20.456 28.7695 20.429C28.1768 20.4021 28.1633 20.7523 27.8266 20.4964C27.4898 20.2407 27.5381 20.356 26.8567 20.2272Z" fill="#FF9B55"/>
<path d="M23.1964 12.5641L22.7488 13.9059L21.3344 13.9169C21.2568 13.9176 21.2247 14.0165 21.2871 14.0625L22.4249 14.9028L21.9982 16.2514C21.9749 16.3253 22.059 16.3866 22.1221 16.3413L23.2728 15.5188L24.4236 16.3413C24.4867 16.3864 24.5709 16.3253 24.5475 16.2514L24.1209 14.9028L25.2587 14.0625C25.3211 14.0165 25.2889 13.9175 25.2114 13.9169L23.7969 13.9059L23.3494 12.5641C23.325 12.4907 23.2209 12.4907 23.1964 12.5641Z" fill="#F5F5F5"/>
<path d="M28.1804 12.5641L27.7328 13.9059L26.3184 13.9169C26.2408 13.9176 26.2087 14.0165 26.2711 14.0625L27.4089 14.9028L26.9822 16.2514C26.9589 16.3253 27.043 16.3866 27.1062 16.3413L28.2569 15.5188L29.4077 16.3413C29.4708 16.3864 29.555 16.3253 29.5316 16.2514L29.105 14.9028L30.2428 14.0625C30.3052 14.0165 30.2729 13.9175 30.1955 13.9169L28.7811 13.9059L28.3335 12.5641C28.3089 12.4907 28.2048 12.4907 28.1804 12.5641Z" fill="#F5F5F5"/>
<path d="M18.2797 13.3858L17.8322 14.7276L16.4177 14.7386C16.3402 14.7393 16.3081 14.8382 16.3705 14.8842L17.5083 15.7244L17.0816 17.0731C17.0583 17.147 17.1423 17.2082 17.2055 17.163L18.3563 16.3405L19.5071 17.163C19.5702 17.208 19.6543 17.147 19.631 17.0731L19.2043 15.7244L20.3421 14.8842C20.4045 14.8382 20.3724 14.7392 20.2949 14.7386L18.8804 14.7276L18.4329 13.3858C18.4083 13.3122 18.3042 13.3122 18.2797 13.3858Z" fill="#F5F5F5"/>
<path d="M13.6282 15.0765L13.1807 16.4183L11.7662 16.4293C11.6887 16.43 11.6566 16.5289 11.719 16.5749L12.8568 17.4152L12.4301 18.7638C12.4068 18.8377 12.4908 18.899 12.554 18.8537L13.7048 18.0312L14.8556 18.8537C14.9187 18.8988 15.0029 18.8377 14.9795 18.7638L14.5529 17.4152L15.6906 16.5749C15.753 16.5289 15.7209 16.4299 15.6434 16.4293L14.2289 16.4183L13.7814 15.0765C13.7569 15.0031 13.6528 15.0031 13.6282 15.0765Z" fill="#F5F5F5"/>
<path d="M33.2363 13.3858L33.6839 14.7276L35.0983 14.7386C35.1759 14.7393 35.208 14.8382 35.1456 14.8842L34.0078 15.7244L34.4345 17.0731C34.4578 17.147 34.3737 17.2082 34.3105 17.163L33.1598 16.3405L32.009 17.163C31.9459 17.208 31.8617 17.147 31.8851 17.0731L32.3117 15.7244L31.1739 14.8842C31.1115 14.8382 31.1437 14.7392 31.2212 14.7386L32.6355 14.7276L33.0831 13.3858C33.1077 13.3122 33.2118 13.3122 33.2363 13.3858Z" fill="#F5F5F5"/>
<path d="M37.8882 15.0765L38.3357 16.4183L39.7502 16.4293C39.8277 16.43 39.8598 16.5289 39.7974 16.5749L38.6596 17.4152L39.0863 18.7638C39.1096 18.8377 39.0256 18.899 38.9624 18.8537L37.8116 18.0312L36.6608 18.8537C36.5977 18.8988 36.5136 18.8377 36.5369 18.7638L36.9636 17.4152L35.8258 16.5749C35.7634 16.5289 35.7956 16.4299 35.873 16.4293L37.2875 16.4183L37.735 15.0765C37.7595 15.0031 37.8636 15.0031 37.8882 15.0765Z" fill="#F5F5F5"/>
</g>
<defs>
<clipPath id="clip0_108_48474">
<rect width="50" height="50" fill="white" transform="translate(0.751953 0.453369)"/>
</clipPath>
</defs>
</svg>
