<svg width="51" height="51" viewBox="0 0 51 51" fill="none" xmlns="http://www.w3.org/2000/svg">
<g clip-path="url(#clip0_108_48469)">
<path d="M50.179 19.9937H0.179077V9.93617C0.179077 9.4601 0.565112 9.07407 1.04118 9.07407H49.317C49.793 9.07407 50.1791 9.4601 50.1791 9.93617L50.179 19.9937Z" fill="#73AF00"/>
<path d="M49.3169 41.8327H1.04118C0.565112 41.8327 0.179077 41.4467 0.179077 40.9706V30.9132H50.179V40.9706C50.179 41.4468 49.7929 41.8327 49.3169 41.8327Z" fill="#FF4B55"/>
<path d="M50.179 19.9935H0.179077V30.9124H50.179V19.9935Z" fill="#F5F5F5"/>
<path d="M0.497045 41.6243L13.9721 30.9279L13.9718 19.9787L0.497045 9.28259C0.307104 9.44069 0.179077 9.66979 0.179077 9.9362V40.9706C0.179077 41.2371 0.307104 41.4662 0.497045 41.6243Z" fill="#464655"/>
</g>
<defs>
<clipPath id="clip0_108_48469">
<rect width="50" height="50" fill="white" transform="translate(0.179688 0.453369)"/>
</clipPath>
</defs>
</svg>
