<svg width="51" height="51" viewBox="0 0 51 51" fill="none" xmlns="http://www.w3.org/2000/svg">
<g clip-path="url(#clip0_108_48443)">
<path d="M50.0385 15.9707H0.0385742V9.93617C0.0385742 9.4601 0.424609 9.07407 0.900682 9.07407H49.1765C49.6525 9.07407 50.0386 9.4601 50.0386 9.93617L50.0385 15.9707Z" fill="#FF4B55"/>
<path d="M49.1759 41.8327H0.900194C0.42412 41.8327 0.0380859 41.4467 0.0380859 40.9706V34.9361H50.038V40.9706C50.038 41.4468 49.652 41.8327 49.1759 41.8327Z" fill="#FF4B55"/>
<path d="M50.0385 15.971H0.0385742V34.9368H50.0385V15.971Z" fill="#41479B"/>
<path d="M25.0384 32.3499C28.8473 32.3499 31.9349 29.2622 31.9349 25.4534C31.9349 21.6446 28.8473 18.557 25.0384 18.557C21.2296 18.557 18.142 21.6446 18.142 25.4534C18.142 29.2622 21.2296 32.3499 25.0384 32.3499Z" fill="#F5F5F5"/>
</g>
<defs>
<clipPath id="clip0_108_48443">
<rect width="50" height="50" fill="white" transform="translate(0.0390625 0.453369)"/>
</clipPath>
</defs>
</svg>
