<svg width="51" height="51" viewBox="0 0 51 51" fill="none" xmlns="http://www.w3.org/2000/svg">
<g clip-path="url(#clip0_108_48434)">
<path d="M50.898 15.9707H0.898071V9.93617C0.898071 9.4601 1.28411 9.07407 1.76018 9.07407H50.036C50.512 9.07407 50.8981 9.4601 50.8981 9.93617L50.898 15.9707Z" fill="#FF4B55"/>
<path d="M50.0356 41.8327H1.75993C1.28386 41.8327 0.897827 41.4467 0.897827 40.9706V34.9361H50.8977V40.9706C50.8977 41.4468 50.5117 41.8327 50.0356 41.8327Z" fill="#FF4B55"/>
<path d="M50.8981 15.971H0.898193V34.9368H50.8981V15.971Z" fill="#F5F5F5"/>
<path d="M27.7401 31.2522L35.707 29.6587C36.282 29.5438 36.5386 28.867 36.1845 28.3995C36.0602 28.2354 35.877 28.1259 35.6735 28.0942L27.1861 26.7708C26.9515 26.7342 26.7853 26.5139 26.8248 26.2704C26.863 26.0347 27.1019 25.8844 27.3387 25.9156L33.2233 26.69C33.7016 26.7528 33.995 26.1814 33.665 25.8294L33.1925 25.3255C33.0157 25.1368 32.7839 25.0088 32.5299 24.9597L27.614 24.0076L31.8055 24.3096C32.1268 24.3327 32.313 23.953 32.0978 23.7131L31.8829 23.4736C31.7529 23.3288 31.5803 23.2292 31.3899 23.1895L27.2285 22.3198L30.1859 22.2343C30.4474 22.2268 30.5804 21.9166 30.4056 21.722L30.273 21.5742C30.1691 21.4585 30.0347 21.3743 29.8853 21.3315L27.2476 20.5741H29.3205C29.5256 20.5741 29.6634 20.364 29.5819 20.1759L29.512 20.0146C29.4281 19.821 29.2664 19.6719 29.0668 19.604L27.1499 18.9519L28.0927 18.9489C28.3728 18.948 28.5607 18.6607 28.4493 18.4037C28.3595 18.1966 28.2011 18.0268 28.0008 17.9229L25.8981 16.8327L23.7952 17.9231C23.5949 18.027 23.4364 18.1968 23.3467 18.4039C23.2352 18.6611 23.4231 18.9483 23.7033 18.9491L24.6461 18.9522L22.7292 19.6043C22.5295 19.6722 22.3678 19.8213 22.284 20.0149L22.2141 20.1762C22.1325 20.3644 22.2704 20.5744 22.4755 20.5744H24.5483L21.9106 21.3318C21.7612 21.3746 21.6268 21.4588 21.5229 21.5745L21.3903 21.7223C21.2156 21.917 21.3486 22.2271 21.61 22.2346L24.5675 22.3201L20.406 23.1898C20.2156 23.2295 20.0429 23.3291 19.9131 23.4738L19.6981 23.7134C19.4829 23.9531 19.669 24.333 19.9904 24.3099L24.1819 24.0079L19.266 24.96C19.0121 25.0091 18.7803 25.1371 18.6034 25.3258L18.131 25.8297C17.801 26.1817 18.0944 26.7532 18.5727 26.6902L24.4573 25.9159C24.694 25.8848 24.9331 26.035 24.9712 26.2707C25.0106 26.5144 24.8444 26.7346 24.6098 26.7711L16.1225 28.0944C15.919 28.1261 15.7358 28.2357 15.6114 28.3997C15.2573 28.8671 15.514 29.5439 16.089 29.6589L24.0558 31.2524V32.2467C24.0558 32.7895 23.8402 33.3101 23.4564 33.6939L22.2141 34.9363H25.8981H29.5822L28.3396 33.6938C27.9558 33.31 27.7402 32.7894 27.7402 32.2466V31.2522H27.7401Z" fill="#73AF00"/>
</g>
<defs>
<clipPath id="clip0_108_48434">
<rect width="50" height="50" fill="white" transform="translate(0.898438 0.453369)"/>
</clipPath>
</defs>
</svg>
