<svg width="51" height="51" viewBox="0 0 51 51" fill="none" xmlns="http://www.w3.org/2000/svg">
<g clip-path="url(#clip0_108_48429)">
<path d="M0.192139 31.0479H50.192V41.1053C50.192 41.5813 49.806 41.9674 49.3299 41.9674H1.05425C0.578173 41.9674 0.192139 41.5813 0.192139 41.1053V31.0479Z" fill="#73AF00"/>
<path d="M1.05425 9.20884H49.33C49.8061 9.20884 50.1921 9.59487 50.1921 10.0709V20.1284H0.192139V10.0708C0.192139 9.59478 0.578173 9.20884 1.05425 9.20884Z" fill="#41479B"/>
<path d="M50.192 20.1282H0.192139V31.0471H50.192V20.1282Z" fill="#F5F5F5"/>
<path d="M28.1686 27.5327L27.9682 27.6348C27.941 27.6486 27.9116 27.6607 27.8838 27.6741L26.1136 25.438C26.4774 24.6471 26.6931 23.5676 26.6931 23.0769C26.6931 22.2705 26.164 21.5988 25.4678 21.4567C25.4212 21.3515 25.3163 21.2779 25.1938 21.2779C25.0714 21.2779 24.9665 21.3515 24.9199 21.4567C24.2238 21.5988 23.6946 22.2706 23.6946 23.0769C23.6946 23.5676 23.9103 24.647 24.2741 25.438L22.504 27.6741C22.4765 27.6608 22.4471 27.6488 22.4199 27.635L22.2195 27.5329L21.4717 29.003L21.6721 29.105C22.6927 29.6241 23.9104 29.8985 25.1938 29.8985C26.4773 29.8985 27.6955 29.6239 28.7163 29.1049L28.9167 29.0029L28.1686 27.5327ZM26.3932 23.0769C26.3932 23.4416 26.2577 24.2083 26.0067 24.9112C25.9736 25.0037 25.9397 25.0915 25.905 25.1747L25.6435 24.8445V23.6766H26.0934L25.4936 23.0769V21.7719C26.01 21.9223 26.3932 22.4494 26.3932 23.0769ZM24.3809 24.9111C24.1299 24.2082 23.9944 23.4415 23.9944 23.0768C23.9944 22.4494 24.3775 21.9223 24.894 21.7718V23.0768L24.2943 23.6765H24.7441V24.8444L24.4827 25.1746C24.4478 25.0915 24.414 25.0036 24.3809 24.9111ZM22.3645 28.2396L22.4257 28.4914L22.2059 28.5514L22.3645 28.2396ZM22.1028 28.8127L22.4789 28.7102L22.5479 28.9943C22.3963 28.9383 22.2472 28.8788 22.1028 28.8127ZM22.673 28.2399C22.8441 28.3075 23.0222 28.3672 23.2052 28.4204L23.2593 28.5862L22.7857 28.703L22.673 28.2399ZM22.8844 29.109L22.8388 28.9216L23.3292 28.8006L23.4812 29.2665C23.2778 29.2223 23.0788 29.1694 22.8844 29.109ZM23.55 28.5107C23.7382 28.5545 23.9298 28.5923 24.1254 28.6209L24.2068 28.7666L23.6863 28.9288L23.55 28.5107ZM23.8178 29.3315L23.7561 29.1427L24.3189 28.9673L24.574 29.4234C24.3175 29.4043 24.0651 29.3738 23.8178 29.3315ZM24.4938 28.6652C24.7249 28.687 24.9586 28.6991 25.1937 28.6991C25.2438 28.6991 25.2936 28.6964 25.3436 28.6953L25.4062 28.7913L24.7144 29.0597L24.4938 28.6652ZM25.1937 29.4487C25.1046 29.4487 25.0166 29.4449 24.9282 29.4422L24.8252 29.2579L25.5317 28.9839L25.8182 29.4231C25.6122 29.4383 25.4045 29.4487 25.1937 29.4487ZM25.6916 28.6802C25.9293 28.6643 26.1642 28.6372 26.3946 28.599L26.4621 28.6853L25.9144 29.0218L25.6916 28.6802ZM26.1553 29.3911L26.0373 29.2102L26.6016 28.8635L26.9152 29.2646C26.6676 29.319 26.4139 29.3609 26.1553 29.3911ZM26.7262 28.5362C26.9223 28.494 27.1142 28.4444 27.3002 28.3862L27.37 28.4767L26.9719 28.8504L26.7262 28.5362ZM27.2359 29.1879L27.1109 29.0281L27.5081 28.6554L27.7849 29.0139C27.6059 29.0783 27.4236 29.1377 27.2359 29.1879ZM27.5998 28.2836C27.7261 28.2367 27.8502 28.1874 27.9695 28.1332L28.0281 28.2486L27.8365 28.5903L27.5998 28.2836ZM28.0769 28.9015L27.986 28.7837L28.1509 28.4897L28.3099 28.8022C28.2338 28.8373 28.1551 28.8691 28.0769 28.9015Z" fill="#464655"/>
</g>
<defs>
<clipPath id="clip0_108_48429">
<rect width="50" height="50" fill="white" transform="translate(0.191406 0.588135)"/>
</clipPath>
</defs>
</svg>
