<svg width="51" height="51" viewBox="0 0 51 51" fill="none" xmlns="http://www.w3.org/2000/svg">
<g clip-path="url(#clip0_108_48415)">
<path d="M50.6044 12.4803H0.604492V10.3643C0.604492 9.88819 0.990527 9.50215 1.4666 9.50215H49.7424C50.2185 9.50215 50.6045 9.88819 50.6045 10.3643L50.6044 12.4803Z" fill="#FF4B55"/>
<path d="M50.6044 12.4812H0.604492V15.4592H50.6044V12.4812Z" fill="#F5F5F5"/>
<path d="M50.6044 15.4577H0.604492V18.4357H50.6044V15.4577Z" fill="#FF4B55"/>
<path d="M50.6044 18.4362H0.604492V21.4142H50.6044V18.4362Z" fill="#F5F5F5"/>
<path d="M50.6044 24.3926H1.4666C0.990527 24.3926 0.604492 24.0065 0.604492 23.5304V21.4145H50.6044V24.3926Z" fill="#FF4B55"/>
<path d="M50.6044 27.3705H0.604492V23.2953H1.4664L1.4666 24.3925H50.6044V27.3705Z" fill="#F5F5F5"/>
<path d="M50.6044 27.3708H0.604492V30.3488H50.6044V27.3708Z" fill="#FF4B55"/>
<path d="M50.6044 30.3483H0.604492V33.3263H50.6044V30.3483Z" fill="#F5F5F5"/>
<path d="M50.6044 33.3268H0.604492V36.3048H50.6044V33.3268Z" fill="#FF4B55"/>
<path d="M50.6044 36.3053H0.604492V39.2833H50.6044V36.3053Z" fill="#F5F5F5"/>
<path d="M49.7423 42.2608H1.4666C0.990527 42.2608 0.604492 41.8748 0.604492 41.3987V39.2828H50.6044V41.3987C50.6044 41.8749 50.2184 42.2608 49.7423 42.2608Z" fill="#FF4B55"/>
<path d="M14.3975 24.3926H1.4666C0.990527 24.3926 0.604492 24.0065 0.604492 23.5304V10.3643C0.604492 9.88819 0.990527 9.50215 1.4666 9.50215H14.3976C14.8737 9.50215 15.2597 9.88819 15.2597 10.3643V23.5304C15.2596 24.0065 14.8736 24.3926 14.3975 24.3926Z" fill="#41479B"/>
<path d="M7.68557 13.3559L6.86253 15.8236L4.26116 15.8437C4.01175 15.8457 3.90823 16.164 4.10892 16.3122L6.20159 17.8576L5.41692 20.3379C5.34173 20.5757 5.61253 20.7724 5.81546 20.6274L7.93205 19.1147L10.0485 20.6274C10.2514 20.7724 10.5222 20.5757 10.447 20.3379L9.66232 17.8576L11.755 16.3122C11.9557 16.1641 11.8522 15.8456 11.6028 15.8437L9.00139 15.8236L8.17834 13.3559C8.09924 13.1191 7.76457 13.1191 7.68557 13.3559Z" fill="#F5F5F5"/>
</g>
<defs>
<clipPath id="clip0_108_48415">
<rect width="50" height="50" fill="white" transform="translate(0.603516 0.881348)"/>
</clipPath>
</defs>
</svg>
