<svg width="51" height="51" viewBox="0 0 51 51" fill="none" xmlns="http://www.w3.org/2000/svg">
<g clip-path="url(#clip0_108_48408)">
<path d="M0.03125 33.64H50.0312V41.3986C50.0312 41.8747 49.6451 42.2607 49.169 42.2607H0.893358C0.417284 42.2607 0.03125 41.8747 0.03125 41.3986V33.64Z" fill="#73AF00"/>
<path d="M0.893358 9.50215H49.1691C49.6452 9.50215 50.0312 9.88819 50.0312 10.3643V18.1228H0.03125V10.3642C0.03125 9.88809 0.417284 9.50215 0.893358 9.50215Z" fill="#FF4B55"/>
<path d="M50.0312 18.1226H0.03125V33.6402H50.0312V18.1226Z" fill="#464655"/>
<path d="M29.9204 23.0916L31.2179 24.7888L33.2438 24.1106C33.357 24.0727 33.4533 24.2009 33.3856 24.2991L32.1723 26.0575L33.4432 27.7746C33.5142 27.8706 33.4222 28.0018 33.3077 27.9677L31.2606 27.3572L30.0202 29.0966C29.9508 29.1938 29.7976 29.1468 29.7946 29.0274L29.7426 26.8918L27.7051 26.2497C27.5912 26.2139 27.5885 26.0536 27.7012 26.0139L29.7162 25.3045L29.6974 23.1683C29.6963 23.0487 29.8479 22.9967 29.9204 23.0916Z" fill="#F5F5F5"/>
<path d="M26.3986 30.0707C24.0868 30.0707 22.2114 28.1954 22.2114 25.8814C22.2114 23.5718 24.0867 21.6923 26.3986 21.6923C27.2587 21.6923 28.0519 21.9568 28.7129 22.4046C28.8141 22.4731 28.9297 22.3401 28.8449 22.252C27.857 21.225 26.4588 20.5983 24.9085 20.6512C22.245 20.7421 20.0402 22.8775 19.87 25.5371C19.6751 28.5834 22.0871 31.115 25.0903 31.115C26.5695 31.115 27.899 30.4965 28.8485 29.5077C28.9323 29.4203 28.8166 29.2893 28.7163 29.3573C28.0546 29.8057 27.2602 30.0707 26.3986 30.0707Z" fill="#F5F5F5"/>
</g>
<defs>
<clipPath id="clip0_108_48408">
<rect width="50" height="50" fill="white" transform="translate(0.03125 0.881348)"/>
</clipPath>
</defs>
</svg>
