<svg width="51" height="51" viewBox="0 0 51 51" fill="none" xmlns="http://www.w3.org/2000/svg">
<g clip-path="url(#clip0_108_48397)">
<path d="M50.3233 25.8814H0.323364V10.3642C0.323364 9.88808 0.709399 9.50204 1.18547 9.50204H49.4613C49.9373 9.50204 50.3234 9.88808 50.3234 10.3642L50.3233 25.8814Z" fill="#41479B"/>
<path d="M0.323364 25.8814H50.3233V41.3987C50.3233 41.8747 49.9372 42.2608 49.4612 42.2608H1.18547C0.709399 42.2608 0.323364 41.8747 0.323364 41.3987V25.8814Z" fill="#FF4B55"/>
<path d="M16.3418 19.3079C16.3306 19.2748 16.3053 19.2478 16.2727 19.2347C16.2694 19.2335 16.2017 19.2077 16.0931 19.1771C16.1409 19.1125 16.1746 19.0367 16.1746 18.9504C16.1746 18.8763 16.1483 18.811 16.1123 18.752C16.2316 18.6853 16.3157 18.5626 16.3157 18.4166C16.3157 18.3009 16.2625 18.1997 16.1821 18.1283C16.2786 18.0574 16.3454 17.9485 16.3454 17.82C16.3454 17.6765 16.2637 17.5561 16.1478 17.4886C16.2086 17.4198 16.2487 17.3319 16.2487 17.2331C16.2487 17.0611 16.1347 16.9194 15.9796 16.868C16.015 16.8095 16.0409 16.7445 16.0409 16.6712C16.0409 16.4598 15.871 16.289 15.6608 16.2837C15.6695 16.2512 15.6808 16.2197 15.6808 16.1846C15.6808 15.9698 15.5061 15.7951 15.2913 15.7951C15.255 15.7951 15.2224 15.8065 15.1891 15.8158C15.1897 15.8072 15.1941 15.7999 15.1941 15.791C15.1941 15.5763 15.0194 15.4015 14.8046 15.4015C14.7308 15.4015 14.6658 15.4276 14.6068 15.4634C14.5614 15.2987 14.4167 15.1749 14.2378 15.1749C14.1305 15.1749 14.0333 15.2185 13.9627 15.289C13.8968 15.1674 13.7723 15.0815 13.6245 15.0815C13.4895 15.0815 13.3763 15.1547 13.3064 15.2591C13.2353 15.1835 13.1362 15.1349 13.0245 15.1349C12.8803 15.1349 12.7592 15.2173 12.6919 15.3339C12.6207 15.254 12.5198 15.2014 12.4045 15.2014C12.2619 15.2014 12.1423 15.2821 12.0745 15.3966C12.0082 15.3444 11.9284 15.3083 11.8378 15.3083C11.6741 15.3083 11.5349 15.4104 11.4774 15.5539C11.4073 15.4861 11.3127 15.4433 11.2076 15.4433C11.059 15.4433 10.9339 15.5299 10.8683 15.6524C10.8396 15.6346 10.8103 15.6206 10.7774 15.6107C10.8595 15.4894 10.9075 15.3431 10.9075 15.1859C10.9075 14.8807 10.7256 14.6188 10.4656 14.4978L10.5748 14.2794C10.5917 14.2457 10.5917 14.2056 10.5748 14.1719L10.4433 13.909C10.4529 13.9003 10.462 13.8912 10.4707 13.8816L10.7338 14.0131C10.7507 14.0215 10.769 14.0256 10.7874 14.0256C10.8057 14.0256 10.8241 14.0212 10.8409 14.0128L11.4809 13.6928C11.5217 13.6723 11.5473 13.6309 11.5473 13.5855C11.5473 13.5401 11.5216 13.4987 11.4809 13.4783L10.8409 13.1583C10.8072 13.1414 10.7673 13.1414 10.7337 13.1583L10.4708 13.2897C10.462 13.2801 10.4528 13.2709 10.4432 13.262L10.5747 12.9991C10.5916 12.9654 10.5916 12.9254 10.5747 12.8916L10.2546 12.2516C10.214 12.1703 10.0805 12.1703 10.0399 12.2516L9.71989 12.8916C9.70299 12.9253 9.70299 12.9654 9.71989 12.9991L9.85133 13.262C9.84176 13.2707 9.83268 13.2798 9.82399 13.2893L9.5608 13.1579C9.52711 13.141 9.48727 13.1413 9.45358 13.1582L8.81354 13.4782C8.77272 13.4986 8.74713 13.54 8.74713 13.5854C8.74713 13.6308 8.77282 13.6723 8.81354 13.6927L9.45358 14.0127C9.47047 14.0211 9.48873 14.0255 9.50709 14.0255C9.52555 14.0255 9.54381 14.0211 9.56061 14.0127L9.8235 13.8812C9.83229 13.8909 9.84147 13.9001 9.85104 13.909L9.71959 14.1719C9.7027 14.2055 9.7027 14.2457 9.71959 14.2794L9.82877 14.4978C9.56871 14.6187 9.38688 14.8807 9.38688 15.1859C9.38688 15.3399 9.43366 15.4829 9.51266 15.6027C9.4651 15.6118 9.42203 15.6277 9.38219 15.6525C9.31657 15.53 9.19147 15.4434 9.04293 15.4434C8.93795 15.4434 8.84323 15.4861 8.77311 15.554C8.71569 15.4105 8.57653 15.3084 8.41276 15.3084C8.32204 15.3084 8.24215 15.3445 8.17604 15.3967C8.10817 15.2822 7.98854 15.2015 7.84606 15.2015C7.73073 15.2015 7.62985 15.2541 7.55856 15.334C7.49118 15.2173 7.37018 15.135 7.22604 15.135C7.11442 15.135 7.0152 15.1837 6.94411 15.2592C6.87419 15.1548 6.76091 15.0816 6.62604 15.0816C6.47819 15.0816 6.35378 15.1675 6.28776 15.2891C6.21726 15.2186 6.11999 15.175 6.01267 15.175C5.83376 15.175 5.68903 15.2988 5.64372 15.4635C5.58493 15.4277 5.5197 15.4016 5.44587 15.4016C5.23113 15.4016 5.05642 15.5763 5.05642 15.7911C5.05642 15.7998 5.06081 15.8073 5.0614 15.8159C5.0281 15.8066 4.99548 15.7952 4.95925 15.7952C4.74441 15.7952 4.5697 15.9699 4.5697 16.1846C4.5697 16.2198 4.58103 16.2513 4.58972 16.2838C4.37947 16.2891 4.20964 16.4599 4.20964 16.6713C4.20964 16.7446 4.23552 16.8095 4.27087 16.8681C4.1158 16.9195 4.00183 17.0611 4.00183 17.2332C4.00183 17.332 4.04177 17.4199 4.10271 17.4886C3.98689 17.5562 3.90515 17.6765 3.90515 17.8201C3.90515 17.9488 3.97195 18.0575 4.06843 18.1284C3.98796 18.1999 3.93484 18.301 3.93484 18.4167C3.93484 18.5627 4.01902 18.6854 4.13826 18.7521C4.10222 18.8112 4.07595 18.8764 4.07595 18.9505C4.07595 19.0414 4.11218 19.1215 4.16453 19.1878C4.07781 19.2135 4.02458 19.2337 4.02166 19.2348C3.98904 19.248 3.96365 19.2748 3.95251 19.308C3.94128 19.3414 3.94529 19.378 3.96326 19.4083C3.97273 19.4239 4.91638 21.0085 5.22878 22.5702C5.2365 22.6089 5.26452 22.6338 5.29753 22.6494C5.53747 22.9735 7.61647 23.2268 10.1471 23.2268C12.6778 23.2268 14.7567 22.9735 14.9967 22.6494C15.0297 22.6337 15.0579 22.6089 15.0655 22.5702C15.3776 21.0096 16.3214 19.4239 16.331 19.4083C16.3491 19.378 16.3531 19.3414 16.3418 19.3079Z" fill="#FFE15A"/>
<path d="M16.3418 19.3079C16.3306 19.2748 16.3053 19.2478 16.2727 19.2347C16.2694 19.2335 16.2017 19.2077 16.0931 19.1771C16.1409 19.1125 16.1746 19.0367 16.1746 18.9504C16.1746 18.8763 16.1483 18.811 16.1123 18.752C16.2316 18.6853 16.3157 18.5626 16.3157 18.4166C16.3157 18.3009 16.2625 18.1997 16.1821 18.1283C16.2786 18.0574 16.3454 17.9485 16.3454 17.82C16.3454 17.6765 16.2637 17.5561 16.1478 17.4886C16.2086 17.4198 16.2487 17.3319 16.2487 17.2331C16.2487 17.0611 16.1347 16.9194 15.9796 16.868C16.015 16.8095 16.0409 16.7445 16.0409 16.6712C16.0409 16.4598 15.871 16.289 15.6608 16.2837C15.6695 16.2512 15.6808 16.2197 15.6808 16.1846C15.6808 15.9698 15.5061 15.7951 15.2913 15.7951C15.255 15.7951 15.2224 15.8065 15.1891 15.8158C15.1897 15.8072 15.1941 15.7999 15.1941 15.791C15.1941 15.5763 15.0194 15.4015 14.8046 15.4015C14.7308 15.4015 14.6658 15.4276 14.6068 15.4634C14.5614 15.2987 14.4167 15.1749 14.2378 15.1749C14.1305 15.1749 14.0333 15.2185 13.9627 15.289C13.8968 15.1674 13.7723 15.0815 13.6245 15.0815C13.4895 15.0815 13.3763 15.1547 13.3064 15.2591C13.2353 15.1835 13.1362 15.1349 13.0245 15.1349C12.8803 15.1349 12.7592 15.2173 12.6919 15.3339C12.6207 15.254 12.5198 15.2014 12.4045 15.2014C12.2619 15.2014 12.1423 15.2821 12.0745 15.3966C12.0082 15.3444 11.9284 15.3083 11.8378 15.3083C11.6741 15.3083 11.5349 15.4104 11.4774 15.5539C11.4073 15.4861 11.3127 15.4433 11.2076 15.4433C11.059 15.4433 10.9339 15.5299 10.8683 15.6524C10.8396 15.6346 10.8103 15.6206 10.7774 15.6107C10.8595 15.4894 10.9075 15.3431 10.9075 15.1859C10.9075 14.8807 10.7256 14.6188 10.4656 14.4978L10.5748 14.2794C10.5917 14.2457 10.5917 14.2056 10.5748 14.1719L10.4433 13.909C10.4529 13.9003 10.462 13.8912 10.4707 13.8816L10.7338 14.0131C10.7507 14.0215 10.769 14.0256 10.7874 14.0256C10.8057 14.0256 10.8241 14.0212 10.8409 14.0128L11.4809 13.6928C11.5217 13.6723 11.5473 13.6309 11.5473 13.5855C11.5473 13.5401 11.5216 13.4987 11.4809 13.4783L10.8409 13.1583C10.8072 13.1414 10.7673 13.1414 10.7337 13.1583L10.4708 13.2897C10.462 13.2801 10.4528 13.2709 10.4432 13.262L10.5747 12.9991C10.5916 12.9654 10.5916 12.9254 10.5747 12.8916L10.2546 12.2516C10.214 12.1703 10.0805 12.1703 10.0399 12.2516L9.71989 12.8916C9.70299 12.9253 9.70299 12.9654 9.71989 12.9991L9.85133 13.262C9.84176 13.2707 9.83268 13.2798 9.82399 13.2893L9.5608 13.1579C9.52711 13.141 9.48727 13.1413 9.45358 13.1582L8.81354 13.4782C8.77272 13.4986 8.74713 13.54 8.74713 13.5854C8.74713 13.6308 8.77282 13.6723 8.81354 13.6927L9.45358 14.0127C9.47047 14.0211 9.48873 14.0255 9.50709 14.0255C9.52555 14.0255 9.54381 14.0211 9.56061 14.0127L9.8235 13.8812C9.83229 13.8909 9.84147 13.9001 9.85104 13.909L9.71959 14.1719C9.7027 14.2055 9.7027 14.2457 9.71959 14.2794L9.82877 14.4978C9.56871 14.6187 9.38688 14.8807 9.38688 15.1859C9.38688 15.3399 9.43366 15.4829 9.51266 15.6027C9.4651 15.6118 9.42203 15.6277 9.38219 15.6525C9.31657 15.53 9.19147 15.4434 9.04293 15.4434C8.93795 15.4434 8.84323 15.4861 8.77311 15.554C8.71569 15.4105 8.57653 15.3084 8.41276 15.3084C8.32204 15.3084 8.24215 15.3445 8.17604 15.3967C8.10817 15.2822 7.98854 15.2015 7.84606 15.2015C7.73073 15.2015 7.62985 15.2541 7.55856 15.334C7.49118 15.2173 7.37018 15.135 7.22604 15.135C7.11442 15.135 7.0152 15.1837 6.94411 15.2592C6.87419 15.1548 6.76091 15.0816 6.62604 15.0816C6.47819 15.0816 6.35378 15.1675 6.28776 15.2891C6.21726 15.2186 6.11999 15.175 6.01267 15.175C5.83376 15.175 5.68903 15.2988 5.64372 15.4635C5.58493 15.4277 5.5197 15.4016 5.44587 15.4016C5.23113 15.4016 5.05642 15.5763 5.05642 15.7911C5.05642 15.7998 5.06081 15.8073 5.0614 15.8159C5.0281 15.8066 4.99548 15.7952 4.95925 15.7952C4.74441 15.7952 4.5697 15.9699 4.5697 16.1846C4.5697 16.2198 4.58103 16.2513 4.58972 16.2838C4.37947 16.2891 4.20964 16.4599 4.20964 16.6713C4.20964 16.7446 4.23552 16.8095 4.27087 16.8681C4.1158 16.9195 4.00183 17.0611 4.00183 17.2332C4.00183 17.332 4.04177 17.4199 4.10271 17.4886C3.98689 17.5562 3.90515 17.6765 3.90515 17.8201C3.90515 17.9488 3.97195 18.0575 4.06843 18.1284C3.98796 18.1999 3.93484 18.301 3.93484 18.4167C3.93484 18.5627 4.01902 18.6854 4.13826 18.7521C4.10222 18.8112 4.07595 18.8764 4.07595 18.9505C4.07595 19.0414 4.11218 19.1215 4.16453 19.1878C4.07781 19.2135 4.02458 19.2337 4.02166 19.2348C3.98904 19.248 3.96365 19.2748 3.95251 19.308C3.94128 19.3414 3.94529 19.378 3.96326 19.4083C3.97273 19.4239 4.91638 21.0085 5.22878 22.5702C5.2365 22.6089 5.26452 22.6338 5.29753 22.6494C5.53747 22.9735 7.61647 23.2268 10.1471 23.2268C12.6778 23.2268 14.7567 22.9735 14.9967 22.6494C15.0297 22.6337 15.0579 22.6089 15.0655 22.5702C15.3776 21.0096 16.3214 19.4239 16.331 19.4083C16.3491 19.378 16.3531 19.3414 16.3418 19.3079ZM12.9491 18.5348V16.6566C13.1013 16.6434 13.2494 16.6392 13.3918 16.6442V18.5954C13.2593 18.5314 13.1098 18.5128 12.9491 18.5348ZM11.5676 15.9766C11.571 15.9799 11.5756 15.9812 11.5791 15.9844C11.574 15.9854 11.5689 15.9865 11.5637 15.9877C11.5654 15.984 11.5663 15.9803 11.5676 15.9766ZM15.785 18.801C15.8673 18.801 15.9343 18.8678 15.9343 18.9503C15.9343 19.0328 15.8673 19.0996 15.785 19.0996C15.7027 19.0996 15.6357 19.0327 15.6357 18.9503C15.6357 18.8678 15.7027 18.801 15.785 18.801ZM15.9259 18.5659C15.8436 18.5659 15.7766 18.499 15.7766 18.4166C15.7766 18.3341 15.8436 18.2673 15.9259 18.2673C16.0084 18.2673 16.0755 18.3342 16.0755 18.4166C16.0755 18.4991 16.0085 18.5659 15.9259 18.5659ZM15.8065 17.8199C15.8065 17.7374 15.8735 17.6706 15.9558 17.6706C16.0381 17.6706 16.1051 17.7375 16.1051 17.8199C16.1051 17.9024 16.0381 17.9692 15.9558 17.9692C15.8735 17.9692 15.8065 17.9024 15.8065 17.8199ZM11.3435 19.3079C11.2002 18.7629 11.0141 17.9425 10.9356 17.1223C11.0181 17.0934 11.1599 17.0461 11.3435 16.9905V19.3079ZM9.34293 17.1321C9.25846 18.0049 9.05231 18.8791 8.90709 19.4173V16.9903C9.11295 17.0526 9.26735 17.1053 9.34293 17.1321ZM10.2966 16.146C10.2966 16.2285 10.2297 16.2953 10.1473 16.2953C10.065 16.2953 9.99801 16.2284 9.99801 16.146C9.99801 16.0635 10.065 15.9967 10.1473 15.9967C10.2297 15.9965 10.2966 16.0635 10.2966 16.146ZM8.68307 15.9774L8.6821 15.9772C8.6821 15.9772 8.68268 15.9769 8.68288 15.9766C8.68297 15.9769 8.68297 15.9772 8.68307 15.9774ZM4.2947 17.6706C4.37703 17.6706 4.44402 17.7375 4.44402 17.8199C4.44402 17.9024 4.37703 17.9692 4.2947 17.9692C4.21238 17.9692 4.14539 17.9023 4.14539 17.8199C4.14529 17.7374 4.21238 17.6706 4.2947 17.6706ZM4.4739 18.4166C4.4739 18.4991 4.40691 18.5659 4.32458 18.5659C4.24206 18.5659 4.17498 18.499 4.17498 18.4166C4.17498 18.3341 4.24197 18.2673 4.32458 18.2673C4.40691 18.2672 4.4739 18.334 4.4739 18.4166ZM4.4655 18.801C4.54783 18.801 4.61482 18.8678 4.61482 18.9503C4.61482 19.0328 4.54783 19.0996 4.4655 19.0996C4.38318 19.0996 4.31619 19.0327 4.31619 18.9503C4.31609 18.8678 4.38318 18.801 4.4655 18.801ZM5.08181 16.7789C5.31677 16.3988 5.77536 15.9459 6.62673 15.9459C7.45798 15.9459 8.63083 16.1999 9.382 16.3866C9.38229 16.5495 9.37487 16.7165 9.36334 16.8845C8.85084 16.706 6.81247 16.0536 5.94548 16.647C4.96433 17.3198 5.27439 18.6033 5.45769 19.1348C5.30163 19.0926 5.14382 19.0734 4.99275 19.0704C4.63835 18.3594 4.6739 17.4389 5.08181 16.7789ZM5.75788 19.2512C5.67351 19.0551 5.13396 17.698 5.93601 16.9641V19.3585C5.87839 19.3173 5.81862 19.2824 5.75788 19.2512ZM6.17605 16.7951C6.3028 16.7294 6.45222 16.6868 6.61872 16.6641V18.7999C6.378 19.0439 6.27097 19.3798 6.2238 19.6323C6.20856 19.6132 6.19177 19.5977 6.17595 19.5799V16.7951H6.17605ZM6.85886 16.644C7.00124 16.639 7.14929 16.6432 7.30153 16.6564V18.5327C7.27536 18.5303 7.24802 18.5236 7.22243 18.5236C7.10446 18.5236 6.99372 18.5483 6.89313 18.5989C6.88073 18.6051 6.87067 18.6135 6.85876 18.62V16.6439H6.85886V16.644ZM7.54157 16.6822C7.6903 16.7019 7.83874 16.7278 7.98424 16.7569V18.8113C7.8319 18.7062 7.68366 18.6302 7.54157 18.5839V16.6822ZM8.22438 16.8085C8.3817 16.8447 8.53024 16.8827 8.66706 16.9209V19.4611C8.53473 19.2936 8.38229 19.1352 8.22438 18.9974V16.8085ZM9.62096 16.4472C9.80143 16.4941 9.94381 16.5331 10.0273 16.5566V18.5922C9.70201 18.6251 9.45348 18.7912 9.26383 18.9954C9.43278 18.2917 9.61471 17.3313 9.62096 16.4472ZM10.2672 16.5566C10.3486 16.5338 10.4851 16.4963 10.6588 16.4512C10.6654 17.3262 10.8438 18.2751 11.0112 18.9761C10.8239 18.7812 10.5819 18.6241 10.2673 18.5924V16.5567H10.2672V16.5566ZM11.5836 16.9211C11.7205 16.883 11.8689 16.8449 12.0262 16.8087V19.0163C12.0262 19.0219 12.0287 19.0267 12.0295 19.0322C11.8678 19.1782 11.7148 19.3457 11.5836 19.5194V16.9211ZM12.2663 16.7571C12.4119 16.728 12.5602 16.7021 12.7089 16.6824V18.5951C12.5666 18.6473 12.418 18.7302 12.2663 18.8399V16.7571ZM13.6318 16.6643C13.7984 16.687 13.9477 16.7294 14.0745 16.7952V19.6065C14.0745 19.6128 14.077 19.6182 14.078 19.6242C14.0756 19.6272 14.0729 19.6295 14.0706 19.6324C14.0208 19.3656 13.9022 19.0076 13.6318 18.7614V16.6643ZM14.3145 16.9643C15.1738 17.7511 14.4893 19.2597 14.4819 19.2758C14.4811 19.2774 14.4813 19.2791 14.4807 19.2807C14.4237 19.3132 14.3685 19.3512 14.3145 19.3931V16.9643ZM14.3049 16.647C13.4551 16.0649 11.4754 16.6821 10.9154 16.8747C10.9044 16.7113 10.8972 16.549 10.8975 16.3904C11.6479 16.2032 12.8309 15.9459 13.6676 15.9459C14.519 15.9459 14.9777 16.3988 15.2126 16.7789C15.6205 17.439 15.6561 18.3594 15.3017 19.0705C15.1347 19.0738 14.9597 19.0973 14.7878 19.1496C14.9704 18.627 15.295 17.3259 14.3049 16.647ZM15.8591 17.3824C15.7768 17.3824 15.7098 17.3155 15.7098 17.2331C15.7098 17.1506 15.7768 17.0838 15.8591 17.0838C15.9417 17.0838 16.0087 17.1507 16.0087 17.2331C16.0087 17.3155 15.9416 17.3824 15.8591 17.3824ZM15.8008 16.671C15.8008 16.7535 15.7338 16.8207 15.6512 16.8207C15.5689 16.8207 15.5019 16.7534 15.5019 16.671C15.5019 16.5885 15.5689 16.5217 15.6512 16.5217C15.7338 16.5217 15.8008 16.5885 15.8008 16.671ZM15.4409 16.1844C15.4409 16.2669 15.3739 16.3337 15.2913 16.3337C15.2089 16.3337 15.1419 16.2668 15.1419 16.1844C15.1419 16.1018 15.2089 16.035 15.2913 16.035C15.3737 16.0349 15.4409 16.1019 15.4409 16.1844ZM14.8046 15.6415C14.887 15.6415 14.954 15.7084 14.954 15.7908C14.954 15.8733 14.887 15.9405 14.8046 15.9405C14.7221 15.9405 14.655 15.8732 14.655 15.7908C14.655 15.7084 14.7221 15.6415 14.8046 15.6415ZM14.2378 15.4148C14.3202 15.4148 14.3872 15.4817 14.3872 15.5641C14.3872 15.6467 14.3202 15.7135 14.2378 15.7135C14.1555 15.7135 14.0885 15.6466 14.0885 15.5641C14.0884 15.4817 14.1555 15.4148 14.2378 15.4148ZM13.6245 15.3214C13.7068 15.3214 13.7738 15.3883 13.7738 15.4707C13.7738 15.5532 13.7068 15.6204 13.6245 15.6204C13.5419 15.6204 13.4749 15.5531 13.4749 15.4707C13.4749 15.3884 13.5419 15.3214 13.6245 15.3214ZM13.0244 15.3749C13.1067 15.3749 13.1737 15.4418 13.1737 15.5242C13.1737 15.6066 13.1067 15.6735 13.0244 15.6735C12.9419 15.6735 12.8748 15.6066 12.8748 15.5242C12.8748 15.4418 12.9419 15.3749 13.0244 15.3749ZM12.4044 15.4415C12.4867 15.4415 12.5537 15.5084 12.5537 15.5908C12.5537 15.6733 12.4867 15.7405 12.4044 15.7405C12.3218 15.7405 12.2547 15.6732 12.2547 15.5908C12.2547 15.5084 12.3217 15.4415 12.4044 15.4415ZM11.8375 15.5483C11.9198 15.5483 11.9868 15.6152 11.9868 15.6976C11.9868 15.7801 11.9198 15.847 11.8375 15.847C11.7551 15.847 11.6881 15.7801 11.6881 15.6976C11.6881 15.6152 11.7551 15.5483 11.8375 15.5483ZM11.2075 15.6834C11.2898 15.6834 11.3568 15.7503 11.3568 15.8327C11.3568 15.9151 11.2898 15.982 11.2075 15.982C11.1252 15.982 11.0582 15.9151 11.0582 15.8327C11.0582 15.7503 11.125 15.6834 11.2075 15.6834ZM10.6673 16.1271C10.585 16.1271 10.518 16.0602 10.518 15.9778C10.518 15.8953 10.585 15.8285 10.6673 15.8285C10.7497 15.8285 10.8167 15.8954 10.8167 15.9778C10.8167 16.0603 10.7497 16.1271 10.6673 16.1271ZM9.94723 13.5855C9.94723 13.4752 10.0369 13.3855 10.1472 13.3855C10.2576 13.3855 10.3472 13.4752 10.3472 13.5855C10.3472 13.6959 10.2576 13.7855 10.1472 13.7855C10.037 13.7856 9.94723 13.6959 9.94723 13.5855ZM10.7873 13.3996L11.159 13.5856L10.7873 13.7717L10.579 13.6675C10.584 13.6408 10.5873 13.6137 10.5873 13.5856C10.5873 13.5576 10.584 13.5304 10.579 13.5037L10.7873 13.3996ZM9.96139 12.9454L10.1471 12.5737L10.3329 12.9454L10.2287 13.1537C10.2022 13.1486 10.175 13.1454 10.147 13.1454C10.119 13.1454 10.0919 13.1486 10.0654 13.1537L9.96139 12.9454ZM9.50709 13.7715L9.13532 13.5854L9.50709 13.3994L9.71539 13.5036C9.71031 13.5303 9.70709 13.5574 9.70709 13.5854C9.70709 13.6135 9.71031 13.6407 9.71539 13.6674L9.50709 13.7715ZM9.96139 14.2256L10.0656 14.0173C10.0921 14.0223 10.1193 14.0256 10.1472 14.0256C10.1752 14.0256 10.2024 14.0223 10.2289 14.0173L10.3331 14.2256L10.229 14.4339C10.2018 14.4309 10.1753 14.4256 10.1473 14.4256C10.1193 14.4256 10.0928 14.4308 10.0657 14.4339L9.96139 14.2256ZM10.1472 14.6657C10.4339 14.6657 10.6672 14.8989 10.6672 15.1857C10.6672 15.4726 10.4339 15.7057 10.1472 15.7057C9.86051 15.7057 9.62721 15.4725 9.62721 15.1857C9.62721 14.8989 9.86041 14.6657 10.1472 14.6657ZM9.58326 15.8284C9.66559 15.8284 9.73258 15.8953 9.73258 15.9777C9.73258 16.0602 9.66559 16.127 9.58326 16.127C9.50094 16.127 9.43395 16.0601 9.43395 15.9777C9.43385 15.8952 9.50084 15.8284 9.58326 15.8284ZM9.04323 15.6834C9.12555 15.6834 9.19254 15.7503 9.19254 15.8327C9.19254 15.9151 9.12555 15.982 9.04323 15.982C8.9609 15.982 8.89391 15.9151 8.89391 15.8327C8.89391 15.7503 8.96081 15.6834 9.04323 15.6834ZM8.41305 15.5483C8.49538 15.5483 8.56237 15.6152 8.56237 15.6976C8.56237 15.7801 8.49538 15.847 8.41305 15.847C8.33073 15.847 8.26374 15.7801 8.26374 15.6976C8.26374 15.6152 8.33073 15.5483 8.41305 15.5483ZM7.84635 15.4415C7.92887 15.4415 7.99596 15.5084 7.99596 15.5908C7.99596 15.6733 7.92897 15.7405 7.84635 15.7405C7.76403 15.7405 7.69704 15.6732 7.69704 15.5908C7.69684 15.5084 7.76393 15.4415 7.84635 15.4415ZM7.22624 15.3749C7.30876 15.3749 7.37585 15.4418 7.37585 15.5242C7.37585 15.6066 7.30886 15.6735 7.22624 15.6735C7.14391 15.6735 7.07692 15.6066 7.07692 15.5242C7.07692 15.4418 7.14391 15.3749 7.22624 15.3749ZM6.62604 15.3214C6.70856 15.3214 6.77565 15.3883 6.77565 15.4707C6.77565 15.5532 6.70866 15.6204 6.62604 15.6204C6.54372 15.6204 6.47673 15.5531 6.47673 15.4707C6.47673 15.3884 6.54372 15.3214 6.62604 15.3214ZM6.01276 15.4148C6.09509 15.4148 6.16208 15.4817 6.16208 15.5641C6.16208 15.6467 6.09509 15.7135 6.01276 15.7135C5.93044 15.7135 5.86345 15.6466 5.86345 15.5641C5.86335 15.4817 5.93044 15.4148 6.01276 15.4148ZM5.44597 15.6415C5.52849 15.6415 5.59558 15.7084 5.59558 15.7908C5.59558 15.8733 5.52859 15.9405 5.44597 15.9405C5.36364 15.9405 5.29665 15.8732 5.29665 15.7908C5.29655 15.7084 5.36355 15.6415 5.44597 15.6415ZM4.95935 16.0349C5.04167 16.0349 5.10866 16.1018 5.10866 16.1843C5.10866 16.2668 5.04167 16.3336 4.95935 16.3336C4.87683 16.3336 4.80974 16.2667 4.80974 16.1843C4.80984 16.1019 4.87683 16.0349 4.95935 16.0349ZM4.59929 16.5217C4.68161 16.5217 4.74861 16.5886 4.74861 16.671C4.74861 16.7535 4.68161 16.8207 4.59929 16.8207C4.51677 16.8207 4.44968 16.7534 4.44968 16.671C4.44968 16.5885 4.51687 16.5217 4.59929 16.5217ZM4.39138 17.0836C4.4737 17.0836 4.5407 17.1505 4.5407 17.2329C4.5407 17.3154 4.4737 17.3822 4.39138 17.3822C4.30886 17.3822 4.24177 17.3153 4.24177 17.2329C4.24197 17.1504 4.30896 17.0836 4.39138 17.0836ZM14.8525 22.4223C14.2991 22.1486 12.4052 21.9466 10.1473 21.9466C7.88942 21.9466 5.99548 22.1486 5.44206 22.4223C5.15583 21.0972 4.47146 19.8152 4.24333 19.4123C4.62341 19.2957 5.7115 19.0644 6.19938 20.0402C6.22438 20.0899 6.28054 20.1162 6.33435 20.1034C6.38854 20.0906 6.42692 20.0422 6.42692 19.9865C6.42692 19.9778 6.43347 19.0972 7.00065 18.8135C7.56227 18.5342 8.47086 19.4617 8.75993 20.0403C8.75993 20.0403 8.76022 20.0405 8.76022 20.0407C8.76969 20.0595 8.78551 20.0741 8.80377 20.0858C8.80758 20.0882 8.8111 20.0903 8.8152 20.0922C8.82038 20.0947 8.82448 20.0987 8.83014 20.1006C8.84254 20.1047 8.85504 20.1065 8.86725 20.1065C8.8695 20.1065 8.87135 20.1046 8.8736 20.1045C8.87594 20.1045 8.8778 20.1059 8.88024 20.1058C8.89157 20.1046 8.89987 20.0968 8.91002 20.0926C8.92077 20.0884 8.93161 20.0863 8.94069 20.0792C8.95182 20.0705 8.95768 20.0579 8.9653 20.0457C8.97028 20.0376 8.97858 20.0328 8.9817 20.0234C8.98522 20.0124 9.00016 19.9658 9.02223 19.8931C9.12711 19.5899 9.45944 18.8264 10.1476 18.8264C10.7317 18.8264 11.0593 19.3765 11.2094 19.7285C11.2584 19.8975 11.2928 20.0058 11.2986 20.0234C11.3152 20.0744 11.3622 20.1065 11.4129 20.1065C11.4251 20.1065 11.4376 20.1047 11.45 20.1006C11.4521 20.0998 11.4537 20.0981 11.4558 20.0973C11.4892 20.0888 11.5194 20.0721 11.5353 20.0403C11.8246 19.4614 12.7339 18.536 13.2946 18.8135C13.3323 18.8324 13.3671 18.8543 13.4 18.878C13.4325 18.9054 13.4544 18.9258 13.4916 18.9555C13.8612 19.3163 13.8683 19.9788 13.8683 19.9865C13.8684 20.0421 13.9068 20.0906 13.9609 20.1034C14.0154 20.1159 14.071 20.0899 14.0959 20.0402C14.5828 19.0666 15.671 19.2964 16.0518 19.4127C15.8229 19.8159 15.1387 21.0976 14.8525 22.4223Z" fill="#464655"/>
<path d="M10.6215 19.7839C10.6059 19.7967 10.5908 19.8103 10.5757 19.8244C10.4593 19.9339 10.2678 19.8479 10.2678 19.6879V19.6664C10.2678 19.6001 10.214 19.5463 10.1478 19.5463C10.0816 19.5463 10.0278 19.6001 10.0278 19.6664V19.6879C10.0278 19.8479 9.83639 19.9339 9.71989 19.8244C9.70505 19.8104 9.68971 19.7969 9.67419 19.7839C9.62321 19.742 9.54743 19.7483 9.50524 19.7999C9.46286 19.8508 9.46989 19.9265 9.52097 19.9689C9.84889 20.2405 10.0276 20.8828 10.0276 21.1366V21.2666C10.0276 21.333 10.0814 21.3867 10.1476 21.3867C10.2138 21.3867 10.2676 21.3329 10.2676 21.2666V21.1366C10.2676 20.8828 10.4465 20.2406 10.7743 19.9689C10.8254 19.9264 10.8324 19.8508 10.79 19.7999C10.7481 19.7488 10.6724 19.7421 10.6215 19.7839Z" fill="#464655"/>
<path d="M13.3427 20.2881C13.3285 20.287 13.3146 20.2867 13.3004 20.287C13.188 20.2948 13.0782 20.1352 13.1327 20.0114C13.135 20.0062 13.1373 20.0009 13.1397 19.9956C13.1607 19.9478 13.1446 19.8695 13.1046 19.8186C13.0647 19.7678 13.0128 19.7705 12.988 19.8268C12.9855 19.8329 12.9827 19.8387 12.98 19.8449C12.9233 19.9736 12.7602 19.9351 12.7345 19.7459C12.7313 19.7216 12.7279 19.6969 12.7241 19.6723C12.7115 19.5923 12.6655 19.5369 12.6165 19.559C12.5678 19.5803 12.5349 19.6701 12.5466 19.7513C12.616 20.2878 12.5364 20.8536 12.4455 21.0594C12.4296 21.0957 12.4135 21.1321 12.3976 21.1685C12.3729 21.2245 12.4044 21.2679 12.4688 21.2632C12.5332 21.2583 12.6032 21.2141 12.6243 21.1663C12.6383 21.1347 12.6523 21.103 12.6661 21.0712C12.7523 20.8749 13.1131 20.4397 13.4087 20.4622C13.4563 20.462 13.4765 20.431 13.4575 20.3845C13.4387 20.3384 13.3886 20.292 13.3427 20.2881Z" fill="#464655"/>
<path d="M15.1232 20.6616C15.1115 20.6616 15.0999 20.6623 15.0881 20.6636C14.9937 20.6794 14.9138 20.533 14.9683 20.4091C14.9705 20.404 14.9729 20.3987 14.9752 20.3934C14.9962 20.3456 14.9886 20.2709 14.9589 20.2247C14.9293 20.1785 14.8858 20.1848 14.861 20.2412C14.8585 20.2472 14.8558 20.2531 14.853 20.2591C14.7964 20.3878 14.6631 20.3625 14.6554 20.1813C14.6545 20.158 14.6534 20.1343 14.6521 20.1108C14.6476 20.0343 14.6132 19.9839 14.5706 20.009C14.5283 20.0333 14.4944 20.1225 14.4983 20.2003C14.5171 20.7146 14.4095 21.268 14.3186 21.4738C14.3026 21.5101 14.2865 21.5464 14.2706 21.5829C14.2459 21.6389 14.2691 21.6786 14.3231 21.6694C14.3773 21.6599 14.439 21.6121 14.46 21.5642C14.4739 21.5326 14.4879 21.5008 14.5018 21.4691C14.5879 21.2728 14.9207 20.8252 15.1656 20.8255C15.2054 20.8217 15.2244 20.7904 15.2121 20.7467C15.1998 20.7033 15.1613 20.6619 15.1232 20.6616Z" fill="#464655"/>
<path d="M7.8486 21.0596C7.75769 20.854 7.6781 20.2881 7.74753 19.7515C7.75925 19.6704 7.72634 19.5807 7.67761 19.5593C7.62858 19.5371 7.58249 19.5926 7.56999 19.6725C7.56618 19.6971 7.56286 19.7217 7.55964 19.7462C7.53386 19.9353 7.37077 19.9736 7.31413 19.8451C7.3114 19.839 7.30886 19.833 7.30612 19.827C7.28132 19.7707 7.22966 19.768 7.18952 19.8188C7.14958 19.8697 7.13347 19.9479 7.15446 19.9959C7.15671 20.0011 7.15905 20.0064 7.1614 20.0116C7.21589 20.1354 7.10603 20.295 6.99372 20.2873C6.97956 20.2869 6.9656 20.2873 6.95144 20.2884C6.90554 20.2923 6.85534 20.3385 6.8364 20.3848C6.81745 20.4313 6.83767 20.4622 6.88523 20.4626C7.18083 20.4399 7.54167 20.8752 7.6278 21.0716C7.64167 21.1032 7.65573 21.1349 7.6696 21.1667C7.6906 21.2145 7.76061 21.2587 7.82517 21.2635C7.88962 21.2683 7.92106 21.225 7.89636 21.1688C7.88054 21.1323 7.86462 21.096 7.8486 21.0596Z" fill="#464655"/>
<path d="M5.97539 21.4736C5.88457 21.2679 5.77685 20.7144 5.7956 20.2001C5.79951 20.1223 5.76543 20.0332 5.72334 20.0089C5.68076 19.9838 5.64639 20.0341 5.6418 20.1106C5.64043 20.1341 5.63945 20.1577 5.63857 20.1811C5.63096 20.3623 5.49766 20.3876 5.44092 20.259C5.43818 20.2529 5.43564 20.2468 5.43291 20.241C5.4081 20.1846 5.36475 20.1783 5.33506 20.2245C5.30547 20.2707 5.29766 20.3454 5.31875 20.3932C5.321 20.3985 5.32334 20.4038 5.32568 20.409C5.38018 20.5328 5.3001 20.6792 5.20586 20.6634C5.19404 20.6621 5.18232 20.6614 5.1707 20.6614C5.13262 20.6617 5.09424 20.703 5.08174 20.7465C5.06934 20.79 5.08857 20.8215 5.12822 20.8253C5.37314 20.825 5.70605 21.2724 5.79209 21.4688C5.80596 21.5005 5.82002 21.5322 5.83388 21.5639C5.85488 21.6118 5.9166 21.6596 5.9707 21.6691C6.0248 21.6784 6.04795 21.6387 6.02324 21.5826C6.00742 21.5464 5.9914 21.5099 5.97539 21.4736Z" fill="#464655"/>
</g>
<defs>
<clipPath id="clip0_108_48397">
<rect width="50" height="50" fill="white" transform="translate(0.324219 0.881348)"/>
</clipPath>
</defs>
</svg>
