<svg width="51" height="51" viewBox="0 0 51 51" fill="none" xmlns="http://www.w3.org/2000/svg">
<g clip-path="url(#clip0_108_48374)">
<path d="M49.7475 42.2608H1.47185C0.995776 42.2608 0.609741 41.8747 0.609741 41.3987V10.3643C0.609741 9.88819 0.995776 9.50215 1.47185 9.50215H49.7476C50.2237 9.50215 50.6097 9.88819 50.6097 10.3643V41.3987C50.6096 41.8748 50.2236 42.2608 49.7475 42.2608Z" fill="#5AA587"/>
<path d="M27.6728 30.3354C28.6393 30.5665 29.6709 30.5844 30.7027 30.3283C32.5202 29.877 33.9579 28.692 34.7934 27.1704C33.3432 26.2163 31.5182 25.8414 29.7006 26.2926C28.7235 26.5353 27.8662 27.0006 27.1437 27.6061C27.1505 27.597 27.1562 27.5881 27.163 27.5791C29.8395 25.1655 32.8275 25.9447 32.8275 25.9447L33.5344 25.3407C33.5344 25.3407 30.5205 24.2994 27.8209 26.5325C29.4917 23.2977 27.6888 20.5229 27.6888 20.5229L27.273 21.3545C27.273 21.3545 28.7723 24.1039 27.0182 27.3118C27.0161 27.3141 27.0141 27.3167 27.012 27.319C27.4395 26.4604 27.6888 25.4979 27.6888 24.473C27.6888 22.6003 26.8852 20.9193 25.6097 19.7418C24.3343 20.9193 23.5306 22.6003 23.5306 24.473C23.5306 25.498 23.7798 26.4604 24.2074 27.319C24.2053 27.3167 24.2033 27.314 24.2012 27.3118C22.4471 24.1039 23.9464 21.3545 23.9464 21.3545L23.5306 20.5229C23.5306 20.5229 21.7278 23.2977 23.3985 26.5325C20.6989 24.2995 17.685 25.3407 17.685 25.3407L18.3919 25.9447C18.3919 25.9447 21.3798 25.1654 24.0564 27.5791C24.0632 27.5881 24.0689 27.597 24.0757 27.6061C23.3533 27.0006 22.4959 26.5353 21.5188 26.2926C19.7012 25.8414 17.8762 26.2163 16.426 27.1704C17.2615 28.692 18.6992 29.8769 20.5168 30.3283C21.5485 30.5844 22.5802 30.5665 23.5467 30.3354C19.9456 31.3422 17.5904 29.1732 17.5904 29.1732L16.6831 29.3763C16.6831 29.3763 20.3226 33.2791 25.6097 29.4505C30.8968 33.279 34.5363 29.3763 34.5363 29.3763L33.629 29.1732C33.6292 29.1732 31.2738 31.3421 27.6728 30.3354Z" fill="#F5F5F5"/>
<path d="M20.3561 34.8278C20.7319 35.0611 21.1247 35.269 21.5315 35.4515H29.6896C30.0965 35.269 30.4893 35.0611 30.8649 34.8278H20.3561Z" fill="#F5F5F5"/>
<path d="M22.2625 35.7463C23.3092 36.1192 24.4358 36.3237 25.6106 36.3237C26.7854 36.3237 27.912 36.1191 28.9587 35.7463H22.2625Z" fill="#F5F5F5"/>
<path d="M18.1439 32.9625C18.2699 33.1044 18.3987 33.2437 18.5324 33.3783H32.6886C32.8223 33.2437 32.9511 33.1045 33.0771 32.9625H18.1439Z" fill="#F5F5F5"/>
<path d="M19.0568 33.8663C19.2651 34.0479 19.48 34.2219 19.7031 34.386H31.5187C31.7416 34.2218 31.9567 34.0478 32.1649 33.8663H19.0568Z" fill="#F5F5F5"/>
<path d="M29.7684 31.8538C27.4396 31.8538 25.8462 30.2973 25.8303 30.2815L25.6096 30.0622L25.3897 30.2819C25.3739 30.2977 23.7908 31.8538 21.4521 31.8538H17.2903C17.4323 32.0679 17.5833 32.2754 17.7411 32.4775H21.4523C23.5443 32.4775 25.0631 31.3832 25.6104 30.9219C26.1576 31.3833 27.6764 32.4775 29.7685 32.4775H33.4797C33.6374 32.2754 33.7884 32.0679 33.9305 31.8538H29.7684Z" fill="#F5F5F5"/>
<path d="M25.5011 15.5181L25.1363 16.6122L23.9831 16.6212C23.8725 16.622 23.8266 16.7631 23.9156 16.8288L24.8434 17.5139L24.4956 18.6135C24.4622 18.719 24.5823 18.8062 24.6723 18.7419L25.6106 18.0712L26.5489 18.7419C26.6388 18.8062 26.7589 18.7189 26.7256 18.6135L26.3778 17.5139L27.3056 16.8288C27.3946 16.763 27.3487 16.6219 27.2381 16.6212L26.0849 16.6122L25.7201 15.5181C25.6845 15.4131 25.5361 15.4131 25.5011 15.5181Z" fill="#FFE15A"/>
<path d="M20.0432 17.7575L20.2544 18.5245L19.5971 18.9726C19.534 19.0156 19.5619 19.1141 19.6383 19.1175L20.4331 19.1538L20.6562 19.9174C20.6776 19.9907 20.7799 19.9945 20.8067 19.9231L21.0867 19.1784L21.8819 19.2022C21.9582 19.2044 21.9935 19.1083 21.9339 19.0608L21.3121 18.5643L21.5806 17.8154C21.6064 17.7435 21.5258 17.6803 21.4621 17.7223L20.7979 18.1602L20.1686 17.6735C20.1079 17.6268 20.0229 17.6839 20.0432 17.7575Z" fill="#FFE15A"/>
<path d="M16.8612 21.6208L17.4365 22.1704L17.1028 22.8926C17.0708 22.962 17.1454 23.0321 17.2125 22.9958L17.9129 22.6186L18.4966 23.1592C18.5525 23.2111 18.6423 23.1618 18.6287 23.0868L18.4863 22.304L19.1809 21.9159C19.2475 21.8787 19.2284 21.7781 19.1527 21.7679L18.3643 21.6615L18.2098 20.881C18.195 20.8061 18.0934 20.7933 18.0604 20.8621L17.7154 21.5789L16.9255 21.4846C16.8497 21.4755 16.8061 21.5681 16.8612 21.6208Z" fill="#FFE15A"/>
<path d="M31.3581 17.7575L31.1469 18.5245L31.8042 18.9726C31.8673 19.0156 31.8394 19.1141 31.763 19.1175L30.9682 19.1538L30.7451 19.9174C30.7236 19.9907 30.6214 19.9945 30.5945 19.9231L30.3146 19.1784L29.5193 19.2022C29.4431 19.2044 29.4078 19.1083 29.4674 19.0608L30.0892 18.5643L29.8207 17.8154C29.7949 17.7435 29.8755 17.6803 29.9392 17.7223L30.6034 18.1602L31.2327 17.6735C31.2934 17.6268 31.3783 17.6839 31.3581 17.7575Z" fill="#FFE15A"/>
<path d="M34.5401 21.6208L33.9648 22.1704L34.2985 22.8926C34.3305 22.962 34.2559 23.0321 34.1888 22.9958L33.4884 22.6186L32.9047 23.1592C32.8487 23.2111 32.759 23.1618 32.7726 23.0868L32.915 22.304L32.2204 21.9159C32.1538 21.8787 32.1729 21.7781 32.2486 21.7679L33.037 21.6615L33.1915 20.881C33.2063 20.8061 33.3079 20.7933 33.3409 20.8621L33.6859 21.5789L34.4758 21.4846C34.5516 21.4755 34.5952 21.5681 34.5401 21.6208Z" fill="#FFE15A"/>
</g>
<defs>
<clipPath id="clip0_108_48374">
<rect width="50" height="50" fill="white" transform="translate(0.609375 0.881348)"/>
</clipPath>
</defs>
</svg>
