<svg width="51" height="51" viewBox="0 0 51 51" fill="none" xmlns="http://www.w3.org/2000/svg">
<g clip-path="url(#clip0_108_48364)">
<path d="M33.8025 8.63666H49.6071C50.0832 8.63666 50.4692 9.02269 50.4692 9.49877V40.5332C50.4692 41.0093 50.0832 41.3953 49.6071 41.3953H33.8025V8.63666Z" fill="#41479B"/>
<path d="M33.8031 8.63702H17.1361V41.3958H33.8031V8.63702Z" fill="#FFE15A"/>
<path d="M1.33147 8.63666H17.1361V41.3953H1.33147C0.855396 41.3953 0.46936 41.0092 0.46936 40.5331V9.49867C0.46936 9.02259 0.855396 8.63666 1.33147 8.63666Z" fill="#41479B"/>
<path d="M29.7795 22.8608H27.6243V20.7056L28.9174 18.9815H27.6243H23.314H22.0209L23.314 20.7056V22.8608H21.1588L19.4347 21.5677V22.8608V27.1711V28.4642L21.1588 27.1711H23.314V29.3263L22.0209 31.0504H23.314H27.6243H28.9174L27.6243 29.3263V27.1711H29.7795L31.5036 28.4642V27.1711V22.8608V21.5677L29.7795 22.8608Z" fill="#FF4B55"/>
<path d="M29.7795 24.1538H26.3313V20.7056H24.6071V24.1538H21.1588V25.878H24.6071V29.3263H26.3313V25.878H29.7795V24.1538Z" fill="#F5F5F5"/>
</g>
<defs>
<clipPath id="clip0_108_48364">
<rect width="50" height="50" fill="white" transform="translate(0.46875 0.0161133)"/>
</clipPath>
</defs>
</svg>
