<svg width="51" height="51" viewBox="0 0 51 51" fill="none" xmlns="http://www.w3.org/2000/svg">
<g clip-path="url(#clip0_108_48316)">
<path d="M0.192139 30.4759H50.192V40.5333C50.192 41.0094 49.806 41.3954 49.3299 41.3954H1.05425C0.578173 41.3954 0.192139 41.0094 0.192139 40.5333V30.4759Z" fill="#73AF00"/>
<path d="M1.05425 8.6369H49.33C49.8061 8.6369 50.1921 9.02294 50.1921 9.49901V19.5564H0.192139V9.49891C0.192139 9.02284 0.578173 8.6369 1.05425 8.6369Z" fill="#464655"/>
<path d="M50.1929 19.5563H0.192993V30.4752H50.1929V19.5563Z" fill="#FF4B55"/>
<path d="M31.8904 18.5268C30.5449 16.2234 28.0529 14.6714 25.1928 14.6714C22.3326 14.6714 19.8406 16.2234 18.4951 18.5268H31.8904Z" fill="#FF4B55"/>
<path d="M25.6385 11.0077C25.6385 11.3945 25.1931 13.8094 25.1931 13.8094C25.1931 13.8094 24.7477 11.3946 24.7477 11.0077C24.7477 10.6209 24.9471 10.3073 25.1931 10.3073C25.4391 10.3073 25.6385 10.6208 25.6385 11.0077Z" fill="#FF4B55"/>
<path d="M33.5658 14.6602C33.2922 14.9338 31.2698 16.3264 31.2698 16.3264C31.2698 16.3264 32.6624 14.3039 32.936 14.0304C33.2095 13.7569 33.5723 13.6761 33.7462 13.8502C33.9201 14.0239 33.8393 14.3868 33.5658 14.6602Z" fill="#FF4B55"/>
<path d="M17.4504 14.0304C17.724 14.304 19.1166 16.3264 19.1166 16.3264C19.1166 16.3264 17.0941 14.9338 16.8206 14.6602C16.5471 14.3867 16.4663 14.0239 16.6404 13.85C16.8141 13.676 17.1769 13.7568 17.4504 14.0304Z" fill="#FF4B55"/>
<path d="M21.244 11.7047C21.392 12.0621 21.9046 14.4636 21.9046 14.4636C21.9046 14.4636 20.569 12.403 20.421 12.0457C20.2731 11.6883 20.3373 11.3223 20.5645 11.2281C20.7916 11.1339 21.0958 11.3472 21.244 11.7047Z" fill="#FF4B55"/>
<path d="M29.9652 12.0456C29.8171 12.403 28.4816 14.4635 28.4816 14.4635C28.4816 14.4635 28.9942 12.0621 29.1422 11.7046C29.2903 11.3471 29.5945 11.1338 29.8217 11.2279C30.0489 11.322 30.1133 11.6882 29.9652 12.0456Z" fill="#FF4B55"/>
<path d="M23.3645 11.1465C23.4414 11.5256 23.4849 13.9809 23.4849 13.9809C23.4849 13.9809 22.5684 11.7028 22.4914 11.3236C22.4145 10.9445 22.5477 10.5975 22.7887 10.5486C23.0299 10.4997 23.2877 10.7674 23.3645 11.1465Z" fill="#FF4B55"/>
<path d="M31.8598 13.1505C31.6462 13.4729 29.9408 15.2398 29.9408 15.2398C29.9408 15.2398 30.9036 12.9808 31.1173 12.6584C31.3309 12.3359 31.6704 12.1846 31.8755 12.3206C32.0805 12.4565 32.0735 12.828 31.8598 13.1505Z" fill="#FF4B55"/>
<path d="M15.9401 15.7365C16.2626 15.9502 18.0295 17.6555 18.0295 17.6555C18.0295 17.6555 15.7705 16.6927 15.448 16.4791C15.1255 16.2654 14.9743 15.9259 15.1102 15.7209C15.2462 15.5159 15.6177 15.5228 15.9401 15.7365Z" fill="#FF4B55"/>
<path d="M19.1959 12.7031C19.4121 13.0239 20.3918 15.2756 20.3918 15.2756C20.3918 15.2756 18.6732 13.5216 18.4571 13.2008C18.2409 12.88 18.2311 12.5085 18.4352 12.3711C18.6391 12.2337 18.9798 12.3823 19.1959 12.7031Z" fill="#FF4B55"/>
<path d="M34.8927 16.4059C34.5719 16.6221 32.3202 17.6018 32.3202 17.6018C32.3202 17.6018 34.0742 15.8833 34.395 15.6671C34.7158 15.4509 35.0874 15.4412 35.2248 15.6453C35.3623 15.8493 35.2135 16.1899 34.8927 16.4059Z" fill="#FF4B55"/>
<path d="M27.8112 11.3036C27.7372 11.6832 26.8379 13.9682 26.8379 13.9682C26.8379 13.9682 26.8629 11.5127 26.937 11.1331C27.0111 10.7535 27.2668 10.4837 27.5082 10.5308C27.7497 10.5779 27.8853 10.9239 27.8112 11.3036Z" fill="#FF4B55"/>
<path d="M28.0764 11.3696C27.964 11.7397 27.6888 14.1799 27.6888 14.1799C27.6888 14.1799 28.8164 11.9986 28.9288 11.6283C29.0412 11.2582 28.9414 10.9002 28.706 10.8287C28.4708 10.7572 28.1888 10.9995 28.0764 11.3696Z" fill="#FF4B55"/>
<path d="M19.4303 12.5622C19.6126 12.9034 21.1434 14.8234 21.1434 14.8234C21.1434 14.8234 20.3983 12.4836 20.216 12.1424C20.0337 11.8011 19.71 11.6185 19.493 11.7344C19.276 11.8505 19.2479 12.2209 19.4303 12.5622Z" fill="#FF4B55"/>
<path d="M35.0338 16.6403C34.6927 16.8226 32.7726 18.3535 32.7726 18.3535C32.7726 18.3535 35.1124 17.6084 35.4536 17.426C35.7948 17.2437 35.9775 16.9201 35.8615 16.7031C35.7457 16.4861 35.3751 16.458 35.0338 16.6403Z" fill="#FF4B55"/>
<path d="M32.0796 13.3131C31.8341 13.6121 30.6461 15.7611 30.6461 15.7611C30.6461 15.7611 32.5228 14.1773 32.7682 13.8782C33.0137 13.5792 33.0585 13.2103 32.8684 13.0542C32.6783 12.8981 32.3251 13.014 32.0796 13.3131Z" fill="#FF4B55"/>
<path d="M16.1031 15.5165C16.4021 15.7621 18.5511 16.95 18.5511 16.95C18.5511 16.95 16.9674 15.0734 16.6682 14.828C16.3691 14.5826 16.0004 14.5376 15.8442 14.7278C15.6882 14.918 15.804 15.2711 16.1031 15.5165Z" fill="#FF4B55"/>
<path d="M23.6348 11.1059C23.6726 11.491 24.3522 13.8506 24.3522 13.8506C24.3522 13.8506 24.5592 11.4038 24.5214 11.0187C24.4836 10.6337 24.2544 10.3412 24.0096 10.3653C23.7648 10.3893 23.597 10.7209 23.6348 11.1059Z" fill="#FF4B55"/>
<path d="M25.8827 11.0198C25.8442 11.4047 26.0473 13.8519 26.0473 13.8519C26.0473 13.8519 26.7305 11.4933 26.769 11.1084C26.8075 10.7234 26.6402 10.3916 26.3954 10.3671C26.1506 10.3426 25.9211 10.6349 25.8827 11.0198Z" fill="#FF4B55"/>
<path d="M17.6312 13.8664C17.8762 14.1657 19.7502 15.7525 19.7502 15.7525C19.7502 15.7525 18.5655 13.6015 18.3206 13.3022C18.0756 13.0029 17.7227 12.8865 17.5323 13.0422C17.3419 13.1979 17.3861 13.567 17.6312 13.8664Z" fill="#FF4B55"/>
<path d="M33.7298 14.8415C33.4304 15.0865 31.8436 16.9605 31.8436 16.9605C31.8436 16.9605 33.9946 15.7758 34.2939 15.5309C34.5932 15.286 34.7096 14.933 34.554 14.7426C34.3982 14.5523 34.0293 14.5964 33.7298 14.8415Z" fill="#FF4B55"/>
<path d="M30.186 12.1503C30.0031 12.4912 29.2544 14.8297 29.2544 14.8297C29.2544 14.8297 30.7882 12.9121 30.9711 12.5713C31.154 12.2303 31.1264 11.8597 30.9097 11.7434C30.6929 11.6271 30.3689 11.8092 30.186 12.1503Z" fill="#FF4B55"/>
<path d="M14.9399 17.4099C15.2809 17.5928 17.6194 18.3416 17.6194 18.3416C17.6194 18.3416 15.7018 16.8078 15.3609 16.6249C15.02 16.442 14.6494 16.4696 14.5331 16.6864C14.4169 16.9031 14.599 17.227 14.9399 17.4099Z" fill="#FF4B55"/>
<path d="M21.4736 11.6225C21.5853 11.9929 22.7096 14.176 22.7096 14.176C22.7096 14.176 22.4383 11.7353 22.3264 11.3651C22.2147 10.9947 21.933 10.7522 21.6976 10.8233C21.4621 10.8943 21.3618 11.2521 21.4736 11.6225Z" fill="#FF4B55"/>
</g>
<defs>
<clipPath id="clip0_108_48316">
<rect width="50" height="50" fill="white" transform="translate(0.191406 0.0161133)"/>
</clipPath>
</defs>
</svg>
