<svg width="51" height="51" viewBox="0 0 51 51" fill="none" xmlns="http://www.w3.org/2000/svg">
<g clip-path="url(#clip0_108_48345)">
<path d="M50.8981 11.8421H0.898193V10.3643C0.898193 9.88819 1.28423 9.50215 1.7603 9.50215H50.0361C50.5122 9.50215 50.8982 9.88819 50.8982 10.3643L50.8981 11.8421Z" fill="#FF4B55"/>
<path d="M50.8981 11.8415H0.898193V14.1813H50.8981V11.8415Z" fill="#F5F5F5"/>
<path d="M50.8981 14.1823H0.898193V16.5222H50.8981V14.1823Z" fill="#FF4B55"/>
<path d="M50.8981 16.5212H0.898193V18.861H50.8981V16.5212Z" fill="#F5F5F5"/>
<path d="M50.8981 18.862H0.898193V21.2018H50.8981V18.862Z" fill="#FF4B55"/>
<path d="M50.8981 21.2018H0.898193V23.5417H50.8981V21.2018Z" fill="#F5F5F5"/>
<path d="M50.8981 23.5417H0.898193V25.8815H50.8981V23.5417Z" fill="#FF4B55"/>
<path d="M50.8981 25.8815H0.898193V28.2214H50.8981V25.8815Z" fill="#F5F5F5"/>
<path d="M50.8981 30.5614H0.898193V26.7436H1.7603L1.7605 28.2214H50.8981V30.5614Z" fill="#FF4B55"/>
<path d="M50.8981 30.5612H0.898193V32.901H50.8981V30.5612Z" fill="#F5F5F5"/>
<path d="M50.8981 32.901H0.898193V35.2409H50.8981V32.901Z" fill="#FF4B55"/>
<path d="M50.8981 35.2418H0.898193V37.5817H50.8981V35.2418Z" fill="#F5F5F5"/>
<path d="M50.8981 37.5807H0.898193V39.9205H50.8981V37.5807Z" fill="#FF4B55"/>
<path d="M50.036 42.2608H1.7603C1.28423 42.2608 0.898193 41.8747 0.898193 41.3987V39.9208H50.8981V41.3987C50.8981 41.8748 50.5121 42.2608 50.036 42.2608Z" fill="#F5F5F5"/>
<path d="M31.0706 28.2214H1.7603C1.28423 28.2214 0.898193 27.8353 0.898193 27.3592V10.3643C0.898193 9.88819 1.28423 9.50215 1.7603 9.50215H31.0706C31.5467 9.50215 31.9327 9.88819 31.9327 10.3643V27.3592C31.9326 27.8355 31.5467 28.2214 31.0706 28.2214Z" fill="#41479B"/>
<path d="M9.08625 18.8525C9.08625 15.5921 11.7327 12.9473 14.9901 12.9473C15.8098 12.9473 16.5891 13.115 17.2988 13.4174C17.3909 13.4566 17.4604 13.3284 17.3776 13.272C16.2033 12.4726 14.7672 12.0346 13.2268 12.1146C9.84015 12.2907 7.07092 15.0185 6.85197 18.4027C6.59738 22.339 9.71222 25.5999 13.5862 25.5999C14.9862 25.5999 16.2876 25.1685 17.3684 24.4372C17.4516 24.3808 17.3826 24.2524 17.2901 24.2916C16.5827 24.5916 15.8065 24.758 14.9903 24.758C11.7327 24.7579 9.08625 22.1131 9.08625 18.8525Z" fill="#FFE15A"/>
<path d="M22.5822 18.8525L25.0781 17.8868C25.2014 17.8391 25.1594 17.6548 25.0275 17.6653L22.3607 17.8789L24.1933 15.9199C24.2838 15.8233 24.166 15.6758 24.0517 15.7424L21.7355 17.0935L22.5349 14.5373C22.5744 14.4111 22.4043 14.3292 22.3303 14.4388L20.8309 16.66L20.4463 14.0088C20.4273 13.8778 20.2383 13.8777 20.2191 14.0087L19.9734 15.6862L19.8715 16.3962L19.8322 16.6601L18.3328 14.4407C18.2588 14.3312 18.0884 14.4132 18.1282 14.5394L18.9305 17.0934L16.6145 15.7423C16.5003 15.6756 16.3825 15.8232 16.4729 15.9198L18.3054 17.8788L15.638 17.6652C15.506 17.6547 15.4639 17.839 15.5874 17.8867L18.0855 18.8524L15.5873 19.8183C15.4637 19.8661 15.5059 20.0504 15.6379 20.0398L18.3054 19.8263L16.4728 21.7901C16.3825 21.8869 16.5006 22.0343 16.6147 21.9675L18.9306 20.6115L18.1283 23.1656C18.0886 23.2918 18.2588 23.3739 18.3329 23.2642L19.8323 21.0449L19.8716 21.315L19.9735 22.0187L20.2193 23.7008C20.2384 23.8318 20.4275 23.8316 20.4465 23.7007L20.8311 21.0451L22.3305 23.2663C22.4046 23.3759 22.5747 23.2941 22.5351 23.1678L21.7357 20.6115L24.0516 21.9675C24.1658 22.0343 24.2838 21.8869 24.1935 21.7901L22.3608 19.8263L25.0277 20.0398C25.1596 20.0504 25.2017 19.8661 25.0783 19.8183L22.5822 18.8525Z" fill="#FFE15A"/>
</g>
<defs>
<clipPath id="clip0_108_48345">
<rect width="50" height="50" fill="white" transform="translate(0.898438 0.881348)"/>
</clipPath>
</defs>
</svg>
