<svg width="51" height="51" viewBox="0 0 51 51" fill="none" xmlns="http://www.w3.org/2000/svg">
<g clip-path="url(#clip0_108_48312)">
<path d="M49.7423 41.5538H1.4666C0.990527 41.5538 0.604492 41.1678 0.604492 40.6917V9.6573C0.604492 9.18123 0.990527 8.7952 1.4666 8.7952H49.7424C50.2185 8.7952 50.6045 9.18123 50.6045 9.6573V40.6917C50.6044 41.1679 50.2184 41.5538 49.7423 41.5538Z" fill="#FF4B55"/>
<path d="M43.7079 15.6919V34.6574H7.5011V15.6919H43.7079Z" fill="#73AF00"/>
<path d="M23.8833 25.1771C23.8833 21.913 26.1067 19.1794 29.1164 18.3876C29.2166 18.3612 29.2094 18.2163 29.1067 18.2031C28.8336 18.1679 28.5559 18.1478 28.2734 18.1478C24.3881 18.1478 21.2429 21.2925 21.2429 25.1771C21.2429 29.0449 24.3881 32.1982 28.2734 32.1982C28.5564 32.1982 28.8344 32.1778 29.1077 32.1426C29.2105 32.1293 29.2176 31.9845 29.1175 31.9582C26.1072 31.1651 23.8833 28.4275 23.8833 25.1771Z" fill="#F5F5F5"/>
</g>
<defs>
<clipPath id="clip0_108_48312">
<rect width="50" height="50" fill="white" transform="translate(0.603516 0.174561)"/>
</clipPath>
</defs>
</svg>
