<svg width="51" height="51" viewBox="0 0 51 51" fill="none" xmlns="http://www.w3.org/2000/svg">
<g clip-path="url(#clip0_108_48296)">
<path d="M49.4613 8.79523H25.3234V41.5538H49.4613C49.9373 41.5538 50.3234 41.1678 50.3234 40.6917V9.65724C50.3234 9.18116 49.9373 8.79523 49.4613 8.79523Z" fill="#FF4B55"/>
<path d="M1.18547 41.5538H25.3234V8.79523H1.18547C0.709399 8.79523 0.323364 9.18116 0.323364 9.65724V40.6917C0.323364 41.1679 0.709399 41.5538 1.18547 41.5538Z" fill="#F5F5F5"/>
<path d="M7.50747 10.8067V13.1134C7.63452 13.1184 7.77622 13.176 7.89399 13.2937C8.01177 13.4115 8.06958 13.5532 8.07437 13.6803H10.381V15.9791H8.07427C8.06929 16.1061 8.01167 16.2478 7.8939 16.3656C7.77612 16.4834 7.63442 16.541 7.50737 16.546V18.8526H5.20854V16.546C5.08149 16.541 4.93979 16.4834 4.82202 16.3656C4.70425 16.2478 4.64663 16.1061 4.64165 15.9791H2.33501V13.6804H4.64165C4.64663 13.5533 4.70425 13.4116 4.82202 13.2938C4.93979 13.1761 5.08149 13.1185 5.20854 13.1135V10.8068H7.50747V10.8067ZM7.79468 10.5193H7.50728H5.20845H4.92114V10.8067V12.8871C4.81147 12.932 4.70854 13.0009 4.6188 13.0905C4.52905 13.1803 4.4603 13.2832 4.41528 13.3929H2.33501H2.04761V13.6803V15.9791V16.2665H2.33501H4.41538C4.4604 16.3762 4.52915 16.4792 4.6189 16.5688C4.70854 16.6585 4.81147 16.7273 4.92114 16.7723V18.8526V19.1399H5.20854H7.50737H7.79478V18.8525V16.7722C7.90444 16.7272 8.00737 16.6584 8.09712 16.5686C8.18677 16.479 8.25562 16.3761 8.30054 16.2664H10.3809H10.6682V15.979V13.6802V13.3928H10.3808H8.30063C8.25571 13.2831 8.18687 13.1802 8.09712 13.0904C8.00747 13.0008 7.90454 12.9319 7.79478 12.887V10.8067L7.79468 10.5193Z" fill="#FF4B55"/>
<path d="M10.3809 13.6802H7.50742V10.8068H5.2085V13.6802H2.33496V15.9791H5.2085V18.8527H7.50742V15.9791H10.3809V13.6802Z" fill="#CDCDCD"/>
<path d="M6.35852 15.9793C6.99332 15.9793 7.50793 15.4647 7.50793 14.8298C7.50793 14.195 6.99332 13.6804 6.35852 13.6804C5.72372 13.6804 5.20911 14.195 5.20911 14.8298C5.20911 15.4647 5.72372 15.9793 6.35852 15.9793Z" fill="#B4A08C"/>
<path d="M5.32854 15.8598C5.12893 15.6602 4.85387 15.6117 4.71418 15.7514C4.57448 15.8911 4.62305 16.1661 4.82266 16.3657C5.02227 16.5653 5.29733 16.6139 5.43702 16.4742C5.57672 16.3345 5.52815 16.0594 5.32854 15.8598Z" fill="#B4A08C"/>
<path d="M7.89477 16.3648C8.09438 16.1652 8.14294 15.8901 8.00325 15.7504C7.86355 15.6107 7.5885 15.6593 7.38889 15.8589C7.18928 16.0585 7.14071 16.3336 7.28041 16.4732C7.4201 16.6129 7.69516 16.5644 7.89477 16.3648Z" fill="#B4A08C"/>
<path d="M7.38789 13.8001C7.5875 13.9997 7.86256 14.0483 8.00225 13.9086C8.14195 13.7689 8.09338 13.4938 7.89377 13.2942C7.69416 13.0946 7.4191 13.0461 7.27941 13.1858C7.13971 13.3255 7.18828 13.6005 7.38789 13.8001Z" fill="#B4A08C"/>
<path d="M4.82203 13.2938C4.62242 13.4934 4.57385 13.7685 4.71355 13.9082C4.85324 14.0479 5.1283 13.9993 5.32791 13.7997C5.52752 13.6001 5.57609 13.325 5.43639 13.1853C5.2967 13.0456 5.02164 13.0942 4.82203 13.2938Z" fill="#B4A08C"/>
<path d="M6.35845 16.4033C5.49077 16.4033 4.78491 15.6976 4.78491 14.8298C4.78491 13.9619 5.49077 13.2562 6.35845 13.2562C7.22612 13.2562 7.93198 13.9621 7.93198 14.8298C7.93198 15.6974 7.22612 16.4033 6.35845 16.4033ZM6.35845 13.4C5.57017 13.4 4.92866 14.0415 4.92866 14.8298C4.92866 15.618 5.57017 16.2595 6.35845 16.2595C7.14673 16.2595 7.78823 15.618 7.78823 14.8298C7.78823 14.0415 7.14673 13.4 6.35845 13.4Z" fill="#B4A08C"/>
</g>
<defs>
<clipPath id="clip0_108_48296">
<rect width="50" height="50" fill="white" transform="translate(0.324219 0.174561)"/>
</clipPath>
</defs>
</svg>
