<svg width="51" height="51" viewBox="0 0 51 51" fill="none" xmlns="http://www.w3.org/2000/svg">
<g clip-path="url(#clip0_108_48291)">
<path d="M49.89 41.5538H1.61431C1.13823 41.5538 0.752197 41.1678 0.752197 40.6917V9.6573C0.752197 9.18123 1.13823 8.7952 1.61431 8.7952H49.8901C50.3662 8.7952 50.7522 9.18123 50.7522 9.6573V40.6917C50.7521 41.1679 50.3661 41.5538 49.89 41.5538Z" fill="#41479B"/>
<path d="M1.14067 41.3931L50.7521 20.8642V14.8298L0.752197 40.6918C0.752197 40.989 0.911865 41.238 1.14067 41.3931Z" fill="#F5F5F5"/>
<path d="M50.4257 8.99794L0.752197 39.8297V40.6918L50.7521 14.8298V9.65731C50.7521 9.3871 50.6202 9.15605 50.4257 8.99794Z" fill="#FF9B55"/>
<path d="M15.0005 20.6989L20.5797 20.0021L15.0005 19.3054L17.8281 17.5712L14.3098 18.4314L16.451 15.5101L13.5299 17.6513L14.39 14.1331L12.6558 16.9607L11.9591 11.3815L11.2623 16.9607L9.52802 14.1331L10.3883 17.6513L7.46698 15.5101L9.60819 18.4314L6.08994 17.5712L8.91757 19.3054L3.33838 20.0021L8.91757 20.6989L6.08994 22.4332L9.60819 21.5729L7.46698 24.4942L10.3883 22.353L9.52802 25.8712L11.2623 23.0436L11.9591 28.6228L12.6558 23.0436L14.39 25.8712L13.5299 22.353L16.451 24.4942L14.3098 21.5729L17.8281 22.4332L15.0005 20.6989Z" fill="#F5F5F5"/>
</g>
<defs>
<clipPath id="clip0_108_48291">
<rect width="50" height="50" fill="white" transform="translate(0.751953 0.174561)"/>
</clipPath>
</defs>
</svg>
