<svg width="51" height="51" viewBox="0 0 51 51" fill="none" xmlns="http://www.w3.org/2000/svg">
<g clip-path="url(#clip0_108_48283)">
<path d="M49.3169 41.5537H1.04118C0.565112 41.5537 0.179077 41.1677 0.179077 40.6916V9.6573C0.179077 9.18123 0.565112 8.7952 1.04118 8.7952H49.317C49.793 8.7952 50.1791 9.18123 50.1791 9.6573V40.6916C50.179 41.1678 49.7929 41.5537 49.3169 41.5537Z" fill="#41479B"/>
<path d="M50.179 23.4503H26.9031V8.7952H23.4548V23.4503H0.179077V26.8986H23.4548V41.5537H26.9031V26.8986H50.179V23.4503Z" fill="#F5F5F5"/>
<path d="M17.0152 20.0104C16.9905 19.8637 16.9348 19.6899 16.8645 19.5781C16.7248 19.385 16.5631 19.2497 16.4064 19.1655C15.1722 18.5985 14.1389 18.7097 13.1528 18.7058C12.1789 18.7309 11.2678 18.8988 10.5281 19.0607C10.3273 19.1012 10.1534 19.1314 9.96738 19.1663C10.0594 18.9763 10.3966 18.7385 10.8507 18.5943C11.9577 18.2162 13.2214 18.0644 14.4634 17.8224C14.777 17.7609 15.095 17.689 15.4206 17.5964C15.5959 17.5363 15.7434 17.4895 15.9499 17.3936C16.0823 17.3187 16.2127 17.2244 16.3242 17.1237C16.443 17.0169 16.4339 16.987 16.495 16.915C16.777 16.3781 16.51 15.9959 16.2862 15.7963C16.0705 15.6193 15.8888 15.5501 15.7158 15.4789C15.3801 15.3611 15.069 15.2873 14.7688 15.2247C14.1904 15.109 13.6218 14.9952 13.065 14.8838C12.8006 14.8226 12.5448 14.7546 12.3204 14.6722C12.1223 14.6194 11.8423 14.4236 11.8839 14.477C11.3723 14.4328 12.5846 13.8622 13.4587 13.5435C13.691 13.4409 13.922 13.3374 14.1586 13.1913C14.3907 13.0379 14.6299 12.9077 14.8878 12.478C14.9385 12.3889 14.9363 12.3672 14.9629 12.3089L14.9924 12.2348C15.0563 12.0064 15.0212 12.068 15.036 11.969C15.0662 11.7293 14.9722 11.4732 14.8233 11.2598C14.5195 10.9315 14.2174 10.8375 13.993 10.7746C13.0648 10.5547 12.3971 10.6149 11.8169 10.6171C10.7167 10.6689 10.0879 10.6984 10.0879 10.6984L10.0454 10.7003C10.0441 10.7004 10.043 10.7004 10.0416 10.7005C9.68994 10.7211 9.42168 11.0228 9.44228 11.3743C9.44423 11.4087 9.46035 11.4375 9.46748 11.47C8.96923 11.6073 8.18086 11.7478 7.40088 11.5639C7.28213 11.5365 7.17246 11.6079 7.14502 11.7216C7.11768 11.8363 7.18906 11.9508 7.30273 11.9775C7.60918 12.0497 7.91318 12.078 8.20302 12.078C8.81875 12.078 9.34472 11.9528 9.7039 11.8427C9.81972 11.9287 9.96054 11.9829 10.1158 11.9738C10.1158 11.9738 10.7512 11.9366 11.8631 11.8716C12.3837 11.8529 13.0833 11.8254 13.6606 11.9611C13.7084 11.9685 13.734 11.9833 13.7656 11.9967C13.7701 11.9455 13.6724 12.0897 13.5198 12.1638C13.3717 12.2594 13.1789 12.351 12.9783 12.442C12.5682 12.6279 12.0988 12.7876 11.5785 13.0676C11.3273 13.2158 11.0168 13.3664 10.7588 13.807C10.6382 14.0111 10.5809 14.341 10.6443 14.5736L10.6631 14.6685L10.6737 14.7153L10.6794 14.7386C10.6394 14.6557 10.7401 14.8786 10.7322 14.8585L10.7843 14.9452C10.8305 15.0112 10.8232 15.0386 10.9342 15.1538C11.0231 15.2501 11.1236 15.3423 11.2272 15.4228C11.3181 15.4853 11.3858 15.5148 11.4676 15.561C11.6286 15.656 11.7748 15.6999 11.9273 15.7598C12.2281 15.8657 12.521 15.9377 12.8135 16.0024C13.378 16.1086 13.9549 16.2171 14.5415 16.3276C14.7875 16.3751 15.0177 16.4351 15.2305 16.5006C14.9579 16.5988 14.5764 16.6979 14.2474 16.7612C13.0507 17.0138 11.7816 17.1665 10.4909 17.6198C10.1679 17.7428 9.83691 17.8898 9.5124 18.1383C9.20683 18.3698 8.88564 18.8316 8.92675 19.339C8.81728 19.3543 8.6915 19.3767 8.59033 19.3879C7.49541 19.5328 7.03525 19.34 7.06494 19.3345C6.92197 19.2501 6.7377 19.2974 6.65332 19.4404C6.56885 19.5833 6.61621 19.7677 6.75918 19.8521C6.75918 19.8521 6.94688 19.9795 7.28193 20.0529C7.61533 20.1283 8.08437 20.1629 8.65566 20.1179C8.81298 20.1071 8.99726 20.0836 9.17031 20.0653C9.28994 20.2378 9.42929 20.428 9.55908 20.5202C9.86074 20.7732 10.1802 20.9351 10.4985 21.0768C11.7801 21.5725 13.0609 21.6766 14.3098 21.6274C14.9367 21.5804 15.5537 21.5072 16.1873 21.2245C16.4827 21.0867 16.8882 20.8697 17.0134 20.2421C17.0138 20.1617 17.0275 20.1251 17.0152 20.0104ZM16.0935 20.208C16.0772 20.1152 16.0262 20.3257 15.7869 20.3837C15.3751 20.5647 14.813 20.6475 14.2604 20.6766C13.1462 20.7132 11.9294 20.5831 10.886 20.16C10.7221 20.0842 10.5883 19.9888 10.4476 19.8976C10.5249 19.8857 10.592 19.8775 10.6713 19.865C11.4466 19.7415 12.2547 19.5961 13.1829 19.5808C14.067 19.5646 15.1928 19.5768 15.9403 19.9486C16.0271 19.9954 16.0651 20.0441 16.0938 20.0735C16.0938 20.0735 16.069 20.0438 16.0967 20.0248C16.109 20.0438 16.0935 20.1496 16.0935 20.208Z" fill="#F5F5F5"/>
<path d="M43.7396 20.0104C43.7149 19.8637 43.6592 19.6899 43.5889 19.5781C43.4492 19.385 43.2875 19.2497 43.1308 19.1655C41.8965 18.5985 40.8632 18.7097 39.8772 18.7058C38.9033 18.7309 37.9922 18.8988 37.2525 19.0607C37.0517 19.1012 36.8778 19.1314 36.6918 19.1663C36.7838 18.9763 37.121 18.7385 37.5751 18.5943C38.6821 18.2162 39.9458 18.0644 41.1877 17.8224C41.5014 17.7609 41.8194 17.689 42.145 17.5964C42.3203 17.5363 42.4678 17.4895 42.6743 17.3936C42.8067 17.3187 42.9371 17.2244 43.0486 17.1237C43.1673 17.0169 43.1583 16.987 43.2194 16.915C43.5014 16.3781 43.2345 15.9959 43.0106 15.7963C42.7949 15.6193 42.6132 15.5501 42.4402 15.4789C42.1044 15.3611 41.7934 15.2873 41.4932 15.2247C40.9148 15.109 40.3461 14.9952 39.7894 14.8838C39.525 14.8226 39.2692 14.7546 39.0448 14.6722C38.8466 14.6194 38.5667 14.4236 38.6083 14.477C38.0966 14.4328 39.3089 13.8622 40.1831 13.5435C40.4154 13.4409 40.6463 13.3374 40.883 13.1913C41.1151 13.0379 41.3543 12.9077 41.6122 12.478C41.6628 12.3889 41.6607 12.3672 41.6873 12.3089L41.7168 12.2348C41.7807 12.0064 41.7456 12.068 41.7604 11.969C41.7906 11.7293 41.6965 11.4732 41.5477 11.2598C41.2439 10.9315 40.9418 10.8375 40.7173 10.7746C39.7892 10.5547 39.1214 10.6149 38.5413 10.6171C37.4411 10.6689 36.8123 10.6984 36.8123 10.6984L36.7698 10.7003C36.7685 10.7004 36.7674 10.7004 36.766 10.7005C36.4143 10.7211 36.1461 11.0228 36.1667 11.3743C36.1686 11.4087 36.1847 11.4375 36.1919 11.47C35.6936 11.6073 34.9052 11.7478 34.1253 11.5639C34.0065 11.5365 33.8968 11.6079 33.8694 11.7216C33.8421 11.8363 33.9135 11.9508 34.0271 11.9775C34.3336 12.0497 34.6376 12.078 34.9274 12.078C35.5431 12.078 36.0691 11.9528 36.4283 11.8427C36.5441 11.9287 36.6849 11.9829 36.8402 11.9738C36.8402 11.9738 37.4756 11.9366 38.5875 11.8716C39.1081 11.8529 39.8077 11.8254 40.385 11.9611C40.4328 11.9685 40.4584 11.9833 40.49 11.9967C40.4945 11.9455 40.3968 12.0897 40.2442 12.1638C40.0961 12.2594 39.9033 12.351 39.7027 12.442C39.2925 12.6279 38.8232 12.7876 38.3029 13.0676C38.0517 13.2158 37.7412 13.3664 37.4832 13.807C37.3626 14.0111 37.3053 14.341 37.3687 14.5736L37.3875 14.6685L37.3981 14.7153L37.4039 14.7386C37.3639 14.6557 37.4646 14.8786 37.4567 14.8585L37.5088 14.9452C37.5549 15.0112 37.5477 15.0386 37.6587 15.1538C37.7476 15.2501 37.8481 15.3423 37.9517 15.4228C38.0425 15.4853 38.1103 15.5148 38.1921 15.561C38.3531 15.656 38.4993 15.6999 38.6518 15.7598C38.9526 15.8657 39.2455 15.9377 39.5379 16.0024C40.1025 16.1086 40.6794 16.2171 41.266 16.3276C41.512 16.3751 41.7421 16.4351 41.9549 16.5006C41.6824 16.5988 41.3009 16.6979 40.9719 16.7612C39.7752 17.0138 38.5061 17.1665 37.2154 17.6198C36.8924 17.7428 36.5614 17.8898 36.2369 18.1383C35.9313 18.3698 35.6101 18.8316 35.6512 19.339C35.5418 19.3543 35.416 19.3767 35.3148 19.3879C34.2199 19.5328 33.7597 19.34 33.7894 19.3345C33.6465 19.2501 33.4622 19.2974 33.3778 19.4404C33.2933 19.5833 33.3407 19.7677 33.4837 19.8521C33.4837 19.8521 33.6714 19.9795 34.0064 20.0529C34.3398 20.1283 34.8089 20.1629 35.3801 20.1179C35.5375 20.1071 35.7217 20.0836 35.8948 20.0653C36.0144 20.2378 36.1538 20.428 36.2836 20.5202C36.5852 20.7732 36.9047 20.9351 37.223 21.0768C38.5046 21.5725 39.7855 21.6766 41.0342 21.6274C41.6612 21.5804 42.2782 21.5072 42.9118 21.2245C43.2072 21.0867 43.6126 20.8697 43.7378 20.2421C43.7379 20.1617 43.7517 20.1251 43.7396 20.0104ZM42.8178 20.208C42.8015 20.1152 42.7504 20.3257 42.5112 20.3837C42.0994 20.5647 41.5373 20.6475 40.9847 20.6766C39.8705 20.7132 38.6537 20.5831 37.6103 20.16C37.4464 20.0842 37.3126 19.9888 37.1718 19.8976C37.2492 19.8857 37.3163 19.8775 37.3956 19.865C38.1709 19.7415 38.979 19.5961 39.9072 19.5808C40.7913 19.5646 41.917 19.5768 42.6646 19.9486C42.7514 19.9954 42.7894 20.0441 42.8181 20.0735C42.8181 20.0735 42.7933 20.0438 42.8209 20.0248C42.8333 20.0438 42.8179 20.1496 42.8178 20.208Z" fill="#F5F5F5"/>
<path d="M17.0152 38.1136C16.9905 37.967 16.9348 37.7932 16.8645 37.6814C16.7248 37.4883 16.5631 37.353 16.4064 37.2688C15.1722 36.7018 14.1389 36.813 13.1528 36.8091C12.1789 36.8342 11.2678 37.0021 10.5281 37.164C10.3273 37.2045 10.1534 37.2346 9.96738 37.2696C10.0594 37.0796 10.3966 36.8418 10.8507 36.6976C11.9577 36.3195 13.2214 36.1677 14.4634 35.9257C14.777 35.8642 15.095 35.7923 15.4206 35.6997C15.5959 35.6396 15.7434 35.5927 15.9499 35.4969C16.0823 35.4219 16.2127 35.3277 16.3242 35.227C16.443 35.1202 16.4339 35.0903 16.495 35.0182C16.777 34.4814 16.51 34.0992 16.2862 33.8996C16.0705 33.7225 15.8888 33.6534 15.7158 33.5822C15.3801 33.4644 15.069 33.3906 14.7688 33.328C14.1904 33.2123 13.6218 33.0985 13.065 32.9871C12.8006 32.9259 12.5448 32.8579 12.3204 32.7755C12.1223 32.7226 11.8423 32.5268 11.8839 32.5803C11.3723 32.5361 12.5846 31.9655 13.4587 31.6468C13.691 31.5442 13.922 31.4406 14.1586 31.2946C14.3907 31.1412 14.6299 31.011 14.8878 30.5813C14.9385 30.4922 14.9363 30.4705 14.9629 30.4122L14.9924 30.3381C15.0563 30.1097 15.0212 30.1713 15.036 30.0723C15.0662 29.8326 14.9722 29.5765 14.8233 29.3631C14.5195 29.0348 14.2174 28.9408 13.993 28.8779C13.0648 28.658 12.3971 28.7182 11.8169 28.7204C10.7167 28.7722 10.0879 28.8016 10.0879 28.8016L10.0454 28.8036C10.0441 28.8037 10.043 28.8037 10.0416 28.8038C9.68994 28.8244 9.42168 29.1261 9.44228 29.4776C9.44423 29.512 9.46035 29.5408 9.46748 29.5733C8.96923 29.7106 8.18086 29.8511 7.40088 29.6672C7.28213 29.6398 7.17246 29.7112 7.14502 29.8249C7.11768 29.9395 7.18906 30.0541 7.30273 30.0807C7.60918 30.153 7.91318 30.1813 8.20302 30.1813C8.81875 30.1813 9.34472 30.056 9.7039 29.946C9.81972 30.032 9.96054 30.0862 10.1158 30.0771C10.1158 30.0771 10.7512 30.0399 11.8631 29.9749C12.3837 29.9561 13.0833 29.9287 13.6606 30.0643C13.7084 30.0718 13.734 30.0866 13.7656 30.1C13.7701 30.0488 13.6724 30.193 13.5198 30.2671C13.3717 30.3627 13.1789 30.4543 12.9783 30.5453C12.5682 30.7311 12.0988 30.8909 11.5785 31.1708C11.3273 31.319 11.0168 31.4696 10.7588 31.9101C10.6382 32.1142 10.5809 32.4442 10.6443 32.6768L10.6631 32.7717L10.6737 32.8185L10.6794 32.8418C10.6394 32.7589 10.7401 32.9818 10.7322 32.9617L10.7843 33.0484C10.8305 33.1144 10.8232 33.1418 10.9342 33.257C11.0231 33.3534 11.1236 33.4455 11.2272 33.526C11.3181 33.5885 11.3858 33.6179 11.4676 33.6642C11.6286 33.7592 11.7748 33.8031 11.9273 33.863C12.2281 33.9689 12.521 34.0409 12.8135 34.1055C13.378 34.2118 13.9549 34.3203 14.5415 34.4307C14.7875 34.4783 15.0177 34.5383 15.2305 34.6038C14.9579 34.702 14.5764 34.8011 14.2474 34.8644C13.0507 35.117 11.7816 35.2697 10.4909 35.723C10.1679 35.846 9.83691 35.9929 9.5124 36.2415C9.20683 36.473 8.88564 36.9348 8.92675 37.4422C8.81728 37.4575 8.6915 37.4799 8.59033 37.4911C7.49541 37.636 7.03525 37.4432 7.06494 37.4377C6.92197 37.3533 6.7377 37.4006 6.65332 37.5436C6.56885 37.6865 6.61621 37.8709 6.75918 37.9552C6.75918 37.9552 6.94688 38.0827 7.28193 38.1561C7.61533 38.2315 8.08437 38.266 8.65566 38.2211C8.81298 38.2103 8.99726 38.1868 9.17031 38.1685C9.28994 38.341 9.42929 38.5312 9.55908 38.6234C9.86074 38.8764 10.1802 39.0383 10.4985 39.1799C11.7801 39.6757 13.0609 39.7798 14.3098 39.7306C14.9367 39.6836 15.5537 39.6104 16.1873 39.3277C16.4827 39.1899 16.8882 38.9729 17.0134 38.3453C17.0138 38.2651 17.0275 38.2285 17.0152 38.1136ZM16.0935 38.3114C16.0772 38.2186 16.0262 38.4291 15.7869 38.4871C15.3751 38.668 14.813 38.7509 14.2604 38.78C13.1462 38.8166 11.9294 38.6865 10.886 38.2634C10.7221 38.1876 10.5883 38.0922 10.4476 38.0009C10.5249 37.9891 10.592 37.9809 10.6713 37.9684C11.4466 37.8449 12.2547 37.6995 13.1829 37.6842C14.067 37.668 15.1928 37.6801 15.9403 38.052C16.0271 38.0988 16.0651 38.1475 16.0938 38.1769C16.0938 38.1769 16.069 38.1471 16.0967 38.1282C16.109 38.1471 16.0935 38.253 16.0935 38.3114Z" fill="#F5F5F5"/>
<path d="M43.7396 38.1136C43.7149 37.967 43.6592 37.7932 43.5889 37.6814C43.4492 37.4883 43.2875 37.353 43.1308 37.2688C41.8965 36.7018 40.8632 36.813 39.8772 36.8091C38.9033 36.8342 37.9922 37.0021 37.2525 37.164C37.0517 37.2045 36.8778 37.2346 36.6918 37.2696C36.7838 37.0796 37.121 36.8418 37.5751 36.6976C38.6821 36.3195 39.9458 36.1677 41.1877 35.9257C41.5014 35.8642 41.8194 35.7923 42.145 35.6997C42.3203 35.6396 42.4678 35.5927 42.6743 35.4969C42.8067 35.4219 42.9371 35.3277 43.0486 35.227C43.1673 35.1202 43.1583 35.0903 43.2194 35.0182C43.5014 34.4814 43.2345 34.0992 43.0106 33.8996C42.7949 33.7225 42.6132 33.6534 42.4402 33.5822C42.1044 33.4644 41.7934 33.3906 41.4932 33.328C40.9148 33.2123 40.3461 33.0985 39.7894 32.9871C39.525 32.9259 39.2692 32.8579 39.0448 32.7755C38.8466 32.7226 38.5667 32.5268 38.6083 32.5803C38.0966 32.5361 39.3089 31.9655 40.1831 31.6468C40.4154 31.5442 40.6463 31.4406 40.883 31.2946C41.1151 31.1412 41.3543 31.011 41.6122 30.5813C41.6628 30.4922 41.6607 30.4705 41.6873 30.4122L41.7168 30.3381C41.7807 30.1097 41.7456 30.1713 41.7604 30.0723C41.7906 29.8326 41.6965 29.5765 41.5477 29.3631C41.2439 29.0348 40.9418 28.9408 40.7173 28.8779C39.7892 28.658 39.1214 28.7182 38.5413 28.7204C37.4411 28.7722 36.8123 28.8016 36.8123 28.8016L36.7698 28.8036C36.7685 28.8037 36.7674 28.8037 36.766 28.8038C36.4143 28.8244 36.1461 29.1261 36.1667 29.4776C36.1686 29.512 36.1847 29.5408 36.1919 29.5733C35.6936 29.7106 34.9052 29.8511 34.1253 29.6672C34.0065 29.6398 33.8968 29.7112 33.8694 29.8249C33.8421 29.9395 33.9135 30.0541 34.0271 30.0807C34.3336 30.153 34.6376 30.1813 34.9274 30.1813C35.5431 30.1813 36.0691 30.056 36.4283 29.946C36.5441 30.032 36.6849 30.0862 36.8402 30.0771C36.8402 30.0771 37.4756 30.0399 38.5875 29.9749C39.1081 29.9561 39.8077 29.9287 40.385 30.0643C40.4328 30.0718 40.4584 30.0866 40.49 30.1C40.4945 30.0488 40.3968 30.193 40.2442 30.2671C40.0961 30.3627 39.9033 30.4543 39.7027 30.5453C39.2925 30.7311 38.8232 30.8909 38.3029 31.1708C38.0517 31.319 37.7412 31.4696 37.4832 31.9101C37.3626 32.1142 37.3053 32.4442 37.3687 32.6768L37.3875 32.7717L37.3981 32.8185L37.4039 32.8418C37.3639 32.7589 37.4646 32.9818 37.4567 32.9617L37.5088 33.0484C37.5549 33.1144 37.5477 33.1418 37.6587 33.257C37.7476 33.3534 37.8481 33.4455 37.9517 33.526C38.0425 33.5885 38.1103 33.6179 38.1921 33.6642C38.3531 33.7592 38.4993 33.8031 38.6518 33.863C38.9526 33.9689 39.2455 34.0409 39.5379 34.1055C40.1025 34.2118 40.6794 34.3203 41.266 34.4307C41.512 34.4783 41.7421 34.5383 41.9549 34.6038C41.6824 34.702 41.3009 34.8011 40.9719 34.8644C39.7752 35.117 38.5061 35.2697 37.2154 35.723C36.8924 35.846 36.5614 35.9929 36.2369 36.2415C35.9313 36.473 35.6101 36.9348 35.6512 37.4422C35.5418 37.4575 35.416 37.4799 35.3148 37.4911C34.2199 37.636 33.7597 37.4432 33.7894 37.4377C33.6465 37.3533 33.4622 37.4006 33.3778 37.5436C33.2933 37.6865 33.3407 37.8709 33.4837 37.9552C33.4837 37.9552 33.6714 38.0827 34.0064 38.1561C34.3398 38.2315 34.8089 38.266 35.3801 38.2211C35.5375 38.2103 35.7217 38.1868 35.8948 38.1685C36.0144 38.341 36.1538 38.5312 36.2836 38.6234C36.5852 38.8764 36.9047 39.0383 37.223 39.1799C38.5046 39.6757 39.7855 39.7798 41.0342 39.7306C41.6612 39.6836 42.2782 39.6104 42.9118 39.3277C43.2072 39.1899 43.6126 38.9729 43.7378 38.3453C43.7379 38.2651 43.7517 38.2285 43.7396 38.1136ZM42.8178 38.3114C42.8015 38.2186 42.7504 38.4291 42.5112 38.4871C42.0994 38.668 41.5373 38.7509 40.9847 38.78C39.8705 38.8166 38.6537 38.6865 37.6103 38.2634C37.4464 38.1876 37.3126 38.0922 37.1718 38.0009C37.2492 37.9891 37.3163 37.9809 37.3956 37.9684C38.1709 37.8449 38.979 37.6995 39.9072 37.6842C40.7913 37.668 41.917 37.6801 42.6646 38.052C42.7514 38.0988 42.7894 38.1475 42.8181 38.1769C42.8181 38.1769 42.7933 38.1471 42.8209 38.1282C42.8333 38.1471 42.8179 38.253 42.8178 38.3114Z" fill="#F5F5F5"/>
</g>
<defs>
<clipPath id="clip0_108_48283">
<rect width="50" height="50" fill="white" transform="translate(0.179688 0.174561)"/>
</clipPath>
</defs>
</svg>
