<svg width="51" height="51" viewBox="0 0 51 51" fill="none" xmlns="http://www.w3.org/2000/svg">
<g clip-path="url(#clip0_108_48278)">
<path d="M49.7475 41.5538H1.47185C0.995776 41.5538 0.609741 41.1678 0.609741 40.6917V9.6573C0.609741 9.18123 0.995776 8.7952 1.47185 8.7952H49.7476C50.2237 8.7952 50.6097 9.18123 50.6097 9.6573V40.6917C50.6096 41.1679 50.2236 41.5538 49.7475 41.5538Z" fill="#73AF00"/>
<path d="M34.892 22.1453C34.869 21.998 34.6554 22.0053 34.6386 22.1535C34.1244 26.6849 30.2806 30.2055 25.6101 30.2055C20.9411 30.2055 17.096 26.6849 16.5816 22.1537C16.5648 22.0055 16.3512 21.9981 16.3282 22.1455C16.2567 22.6013 16.2177 23.0674 16.2177 23.5434C16.2176 28.7258 20.4236 32.9332 25.6101 32.9332C30.7984 32.9332 35.0027 28.7258 35.0027 23.5434C35.0025 23.0674 34.9633 22.6012 34.892 22.1453Z" fill="#FFE15A"/>
<path d="M25.4936 18.2671L24.8144 20.3036L22.6677 20.3202C22.55 20.3211 22.5012 20.4712 22.5959 20.5412L24.3229 21.8165L23.6754 23.8633C23.6399 23.9755 23.7677 24.0684 23.8635 23.9999L25.6098 22.7516L27.3564 23.9999C27.4522 24.0684 27.58 23.9756 27.5445 23.8633L26.8969 21.8165L28.624 20.5412C28.7187 20.4712 28.6699 20.3211 28.5522 20.3202L26.4054 20.3036L25.7262 18.2671C25.6888 18.1554 25.5308 18.1554 25.4936 18.2671Z" fill="#FFE15A"/>
</g>
<defs>
<clipPath id="clip0_108_48278">
<rect width="50" height="50" fill="white" transform="translate(0.609375 0.174561)"/>
</clipPath>
</defs>
</svg>
