<svg width="51" height="51" viewBox="0 0 51 51" fill="none" xmlns="http://www.w3.org/2000/svg">
<g clip-path="url(#clip0_108_48186)">
<path d="M49.6072 41.8233H1.33147C0.855395 41.8233 0.46936 41.4372 0.46936 40.9612V9.92685C0.46936 9.45078 0.855395 9.06474 1.33147 9.06474H49.6073C50.0833 9.06474 50.4694 9.45078 50.4694 9.92685V40.9612C50.4693 41.4373 50.0832 41.8233 49.6072 41.8233Z" fill="#4173CD"/>
<path d="M21.6136 34.0646C21.5411 35.3525 22.3937 35.5112 22.8555 35.5181C23.3173 35.5252 24.0171 35.7281 24.668 35.861C25.3189 35.994 25.5287 35.455 25.5287 35.455C25.9137 35.9589 26.2892 35.805 26.2892 35.805C26.5971 35.4971 27.4183 35.3431 27.7401 35.322C28.062 35.3009 27.9851 34.8602 27.9851 34.8602C28.3224 34.6726 28.5506 34.4577 28.7138 34.2404C28.7208 34.2435 28.727 34.2484 28.7339 34.2514C29.2867 34.4893 29.7137 33.9855 29.8046 33.7965C29.8608 33.6797 29.9639 33.628 30.0375 33.6028L30.0636 33.8945C30.3015 33.5516 30.8194 33.6776 30.8194 33.6776C30.2875 32.8589 29.7487 33.2368 29.7487 33.2368L29.9575 33.4351C29.6407 33.5948 29.4526 34.2269 28.9859 34.0416C28.9461 34.0257 28.9123 34.003 28.8768 33.9822C29.0651 33.6087 29.0713 33.2563 29.0209 33.0549C28.93 32.6911 28.37 32.6071 28.0972 32.978C27.9065 33.2373 28.0272 33.6378 28.3036 33.9381C28.1576 34.04 27.9712 34.1347 27.7264 34.2027C26.9705 34.4127 25.8369 33.4189 25.0531 33.3769C24.2693 33.3349 23.5835 33.9927 23.1916 34.4126C22.7997 34.8325 22.2738 34.4605 22.2819 34.1886L21.6136 34.0646ZM28.4751 33.1248C28.6221 33.0619 28.6851 33.1738 28.7061 33.3557C28.7148 33.432 28.673 33.5568 28.5702 33.6909C28.4082 33.4419 28.3816 33.1648 28.4751 33.1248Z" fill="#73AF00"/>
<path d="M23.8338 35.6179L23.4159 35.833L23.5327 35.5442L23.8338 35.6179Z" fill="#F5F5F5"/>
<path d="M23.4443 35.5184L23.058 35.7172L23.166 35.4503L23.4443 35.5184Z" fill="#F5F5F5"/>
<path d="M23.0837 35.4457L22.7982 35.6067L22.8719 35.4023L23.0837 35.4457Z" fill="#F5F5F5"/>
<path d="M26.2898 35.805L25.8348 35.9235L26.0121 35.6673L26.2898 35.805Z" fill="#F5F5F5"/>
<path d="M25.9739 35.6369L25.5503 35.7329L25.7215 35.5014L25.9739 35.6369Z" fill="#F5F5F5"/>
<path d="M25.6783 35.4817L25.3875 35.633L25.468 35.4312L25.6783 35.4817Z" fill="#F5F5F5"/>
<path d="M19.6529 19.9611C19.5638 20.0238 19.5579 20.169 19.6397 20.2853C19.7216 20.4016 19.8601 20.4451 19.9493 20.3824C20.0384 20.3197 20.0443 20.1746 19.9624 20.0583C19.8806 19.9419 19.742 19.8985 19.6529 19.9611Z" fill="#F5F5F5"/>
<path d="M30.991 20.3838C31.0801 20.4465 31.2186 20.403 31.3005 20.2867C31.3823 20.1703 31.3764 20.0252 31.2873 19.9625C31.1982 19.8998 31.0596 19.9433 30.9778 20.0596C30.896 20.176 30.9019 20.3211 30.991 20.3838Z" fill="#F5F5F5"/>
<path d="M28.1745 24.4377V29.4605C28.1745 30.9518 26.9612 32.165 25.47 32.165C23.9788 32.165 22.7655 30.9517 22.7655 29.4605V24.4377H28.1745ZM29.7199 22.5059H21.2199C21.0066 22.5059 20.8336 22.6788 20.8336 22.8922V29.4604C20.8336 32.0209 22.9094 34.0967 25.4699 34.0967C28.0305 34.0967 30.1063 32.0209 30.1063 29.4604V22.8923C30.1064 22.6788 29.9333 22.5059 29.7199 22.5059Z" fill="#F5F5F5"/>
<path d="M22.7651 24.438H20.8334V23.3683C20.8334 22.8922 21.2194 22.5062 21.6955 22.5062H22.7652L22.7651 24.438Z" fill="#FF4B55"/>
<path d="M26.4363 22.5055H24.5045V24.4373H26.4363V22.5055Z" fill="#FF4B55"/>
<path d="M22.7654 26.3698H20.8336V28.3015H22.7654V26.3698Z" fill="#FF4B55"/>
<path d="M30.1074 26.3698H28.1757V28.3015H30.1074V26.3698Z" fill="#FF4B55"/>
<path d="M30.1063 24.4377H28.1746V22.5059H29.2443C29.7204 22.5059 30.1064 22.892 30.1064 23.368V24.4377H30.1063Z" fill="#FF4B55"/>
<path d="M27.1139 33.7913L26.3708 32.0076C26.0886 32.1077 25.7864 32.1649 25.4705 32.1649C25.1546 32.1649 24.8523 32.1076 24.5702 32.0076L23.827 33.7913C24.3385 33.9857 24.891 34.0967 25.4706 34.0967C26.05 34.0967 26.6024 33.9857 27.1139 33.7913Z" fill="#FF4B55"/>
<path d="M22.0502 32.5828L23.5612 31.3742C23.1789 30.9927 22.912 30.4971 22.8115 29.9442L20.9491 30.4763C21.1284 31.2772 21.5156 31.9976 22.0502 32.5828Z" fill="#FF4B55"/>
<path d="M29.9915 30.4762L28.1291 29.9441C28.0287 30.497 27.7617 30.9926 27.3794 31.3741L28.8904 32.5828C29.425 31.9976 29.8123 31.2772 29.9915 30.4762Z" fill="#FF4B55"/>
<path d="M22.1852 22.8923H21.4125V24.0514H22.1852V22.8923Z" fill="#FFE15A"/>
<path d="M22.185 26.7555H21.4122V27.9145H22.185V26.7555Z" fill="#FFE15A"/>
<path d="M22.5716 30.6197H21.7988V31.7788H22.5716V30.6197Z" fill="#FFE15A"/>
<path d="M29.1388 30.6197H28.3661V31.7788H29.1388V30.6197Z" fill="#FFE15A"/>
<path d="M29.5256 22.8922H28.7528V24.0513H29.5256V22.8922Z" fill="#FFE15A"/>
<path d="M22.1852 24.8112H21.4125V25.9703H22.1852V24.8112Z" fill="#FF4B55"/>
<path d="M29.5256 24.8113H28.7528V25.9704H29.5256V24.8113Z" fill="#FF4B55"/>
<path d="M22.185 28.6433H21.4122V29.8024H22.185V28.6433Z" fill="#FF4B55"/>
<path d="M23.8499 32.0603H23.0771V33.2194H23.8499V32.0603Z" fill="#FF4B55"/>
<path d="M27.8586 32.0603H27.0858V33.2194H27.8586V32.0603Z" fill="#FF4B55"/>
<path d="M29.5256 28.6433H28.7528V29.8024H29.5256V28.6433Z" fill="#FF4B55"/>
<path d="M25.8555 22.8923H25.0828V24.0513H25.8555V22.8923Z" fill="#FFE15A"/>
<path d="M24.0186 22.8922H23.2458V24.0513H24.0186V22.8922Z" fill="#FF4B55"/>
<path d="M27.6572 22.8922H26.8844V24.0513H27.6572V22.8922Z" fill="#FF4B55"/>
<path d="M29.5265 26.7556H28.7538V27.9147H29.5265V26.7556Z" fill="#FFE15A"/>
<path d="M25.8559 32.5515H25.0831V33.7106H25.8559V32.5515Z" fill="#FFE15A"/>
<path d="M25.4695 25.1742C26.2152 25.1742 26.8217 25.7807 26.8217 26.5264C26.8217 27.2721 26.2151 27.8787 25.4695 27.8787C24.7239 27.8787 24.1172 27.2721 24.1172 26.5264C24.1172 25.7808 24.7239 25.1742 25.4695 25.1742ZM25.4695 24.9809C24.6159 24.9809 23.924 25.6728 23.924 26.5264C23.924 27.3799 24.6158 28.0719 25.4695 28.0719C26.3231 28.0719 27.015 27.38 27.015 26.5264C27.015 25.6728 26.3231 24.9809 25.4695 24.9809Z" fill="#FFE15A"/>
<path d="M25.2357 26.4179C24.8525 26.4179 24.6132 26.5258 24.4635 26.6597C24.525 26.3563 24.653 26.0314 24.9217 26.0314C24.975 26.0314 25.0183 25.988 25.0183 25.9348C25.0183 25.8816 24.9751 25.8383 24.9217 25.8383C24.6553 25.8383 24.4896 26.0238 24.3859 26.2566C24.3222 24.9896 24.1254 24.9848 24.0525 24.9848C23.9991 24.9848 23.9559 25.0283 23.9559 25.0814C23.9559 25.1279 23.9883 25.1664 24.032 25.1758C24.0723 25.224 24.1069 25.3865 24.1349 25.6118C24.0099 25.3464 23.8282 25.1539 23.5615 25.1539C23.5082 25.1539 23.465 25.1973 23.465 25.2505C23.465 25.3036 23.5081 25.3471 23.5615 25.3471C23.8253 25.3471 23.9873 25.6688 24.084 26.0554C23.8987 25.7911 23.619 25.5969 23.2075 25.5969C23.1542 25.5969 23.111 25.6403 23.111 25.6934C23.111 25.7466 23.1541 25.79 23.2075 25.79C23.6349 25.79 23.8801 26.0365 24.0215 26.3214C23.8558 26.181 23.6195 26.0798 23.2799 26.0798C23.2266 26.0798 23.1833 26.1232 23.1833 26.1763C23.1833 26.2295 23.2265 26.2729 23.2799 26.2729C24.1989 26.2729 24.2134 27.1377 24.2135 27.1747C24.2135 27.1887 24.2231 27.1986 24.2284 27.2107C24.2333 27.2213 24.2335 27.2344 24.2416 27.2424L24.2418 27.2427C24.2593 27.2601 24.2834 27.271 24.31 27.271H24.3102C24.3201 27.2709 24.3266 27.2633 24.3356 27.2604C24.3651 27.2513 24.3854 27.2312 24.3951 27.202C24.3984 27.1926 24.4065 27.1857 24.4066 27.1752C24.407 27.1521 24.4232 26.611 25.2357 26.611C25.289 26.611 25.3322 26.5676 25.3322 26.5144C25.3322 26.4611 25.2891 26.4179 25.2357 26.4179Z" fill="#73AF00"/>
<path d="M25.71 26.4179C26.0932 26.4179 26.3324 26.5258 26.4822 26.6598C26.4206 26.3564 26.2926 26.0315 26.0239 26.0315C25.9706 26.0315 25.9274 25.988 25.9274 25.9349C25.9274 25.8817 25.9705 25.8383 26.0239 25.8383C26.2904 25.8383 26.4561 26.0238 26.5598 26.2567C26.6235 24.9897 26.8202 24.9849 26.8932 24.9849C26.9465 24.9849 26.9898 25.0283 26.9898 25.0815C26.9898 25.1279 26.9573 25.1664 26.9137 25.1758C26.8734 25.224 26.8388 25.3865 26.8108 25.6118C26.9358 25.3464 27.1174 25.1539 27.3841 25.1539C27.4374 25.1539 27.4807 25.1974 27.4807 25.2505C27.4807 25.3036 27.4375 25.3471 27.3841 25.3471C27.1203 25.3471 26.9583 25.6689 26.8616 26.0555C27.047 25.7911 27.3267 25.5969 27.7381 25.5969C27.7914 25.5969 27.8347 25.6403 27.8347 25.6935C27.8347 25.7466 27.7915 25.7901 27.7381 25.7901C27.3108 25.7901 27.0655 26.0365 26.9241 26.3214C27.0899 26.1811 27.3262 26.0798 27.6657 26.0798C27.7191 26.0798 27.7623 26.1233 27.7623 26.1764C27.7623 26.2295 27.7192 26.273 27.6657 26.273C26.7467 26.273 26.7322 27.1377 26.7321 27.1747C26.7321 27.1887 26.7226 27.1986 26.7172 27.2108C26.7123 27.2213 26.7121 27.2344 26.704 27.2424L26.7038 27.2427C26.6863 27.2602 26.6622 27.271 26.6357 27.271H26.6355C26.6255 27.2709 26.6191 27.2633 26.6101 27.2605C26.5806 27.2513 26.5603 27.2313 26.5505 27.2021C26.5473 27.1926 26.5392 27.1858 26.5391 27.1752C26.5388 27.1522 26.5225 26.611 25.71 26.611C25.6567 26.611 25.6134 26.5676 25.6134 26.5145C25.6134 26.4611 25.6566 26.4179 25.71 26.4179Z" fill="#73AF00"/>
<path d="M23.978 26.9129C24.1503 27.5783 24.7496 28.0719 25.4688 28.0719C26.1881 28.0719 26.7873 27.5783 26.9597 26.9129H23.978Z" fill="#FF4B55"/>
<path d="M25.4697 28.0719C26.1891 28.0719 26.7882 27.5782 26.9605 26.9128H25.4697V28.0719Z" fill="#FFE15A"/>
<path d="M25.4698 28.6755C26.2155 28.6755 26.8221 29.282 26.8221 30.0277C26.8221 30.7734 26.2154 31.38 25.4698 31.38C24.7242 31.38 24.1176 30.7734 24.1176 30.0277C24.1176 29.2822 24.7243 28.6755 25.4698 28.6755ZM25.4698 28.4825C24.6163 28.4825 23.9243 29.1744 23.9243 30.028C23.9243 30.8815 24.6162 31.5735 25.4698 31.5735C26.3234 31.5735 27.0153 30.8816 27.0153 30.028C27.0153 29.1743 26.3234 28.4825 25.4698 28.4825Z" fill="#FFE15A"/>
<path d="M25.2357 29.9192C24.8525 29.9192 24.6132 30.0271 24.4635 30.1611C24.525 29.8577 24.653 29.5328 24.9217 29.5328C24.975 29.5328 25.0183 29.4893 25.0183 29.4362C25.0183 29.383 24.9751 29.3396 24.9217 29.3396C24.6553 29.3396 24.4896 29.5252 24.3859 29.758C24.3222 28.491 24.1254 28.4862 24.0525 28.4862C23.9991 28.4862 23.9559 28.5296 23.9559 28.5828C23.9559 28.6293 23.9883 28.6677 24.032 28.6771C24.0723 28.7253 24.1069 28.8878 24.1349 29.1131C24.0099 28.8477 23.8282 28.6552 23.5615 28.6552C23.5082 28.6552 23.465 28.6987 23.465 28.7518C23.465 28.805 23.5081 28.8484 23.5615 28.8484C23.8253 28.8484 23.9873 29.1702 24.084 29.5568C23.8987 29.2924 23.619 29.0982 23.2075 29.0982C23.1542 29.0982 23.111 29.1417 23.111 29.1948C23.111 29.248 23.1541 29.2914 23.2075 29.2914C23.6349 29.2914 23.8801 29.5378 24.0215 29.8227C23.8558 29.6824 23.6195 29.5811 23.2799 29.5811C23.2266 29.5811 23.1833 29.6246 23.1833 29.6777C23.1833 29.7308 23.2265 29.7743 23.2799 29.7743C24.1989 29.7743 24.2134 30.639 24.2135 30.676C24.2135 30.69 24.2231 30.7 24.2284 30.7119C24.2333 30.7224 24.2335 30.7355 24.2416 30.7435L24.2418 30.7438C24.2593 30.7613 24.2834 30.7721 24.31 30.7721H24.3102C24.3201 30.772 24.3266 30.7644 24.3356 30.7616C24.3651 30.7524 24.3854 30.7324 24.3951 30.7032C24.3984 30.6937 24.4065 30.6869 24.4066 30.6763C24.407 30.6533 24.4232 30.1122 25.2357 30.1122C25.289 30.1122 25.3322 30.0687 25.3322 30.0156C25.3322 29.9627 25.2891 29.9192 25.2357 29.9192Z" fill="#73AF00"/>
<path d="M25.71 29.9192C26.0932 29.9192 26.3324 30.0271 26.4822 30.1611C26.4206 29.8577 26.2926 29.5328 26.0239 29.5328C25.9706 29.5328 25.9274 29.4893 25.9274 29.4362C25.9274 29.383 25.9705 29.3396 26.0239 29.3396C26.2904 29.3396 26.4561 29.5252 26.5598 29.758C26.6235 28.491 26.8202 28.4862 26.8932 28.4862C26.9465 28.4862 26.9898 28.5297 26.9898 28.5828C26.9898 28.6293 26.9573 28.6677 26.9137 28.6771C26.8734 28.7254 26.8388 28.8879 26.8108 29.1132C26.9358 28.8477 27.1174 28.6552 27.3841 28.6552C27.4374 28.6552 27.4807 28.6987 27.4807 28.7518C27.4807 28.8051 27.4375 28.8484 27.3841 28.8484C27.1203 28.8484 26.9583 29.1702 26.8616 29.5568C27.047 29.2925 27.3267 29.0982 27.7381 29.0982C27.7914 29.0982 27.8347 29.1417 27.8347 29.1948C27.8347 29.248 27.7915 29.2914 27.7381 29.2914C27.3108 29.2914 27.0655 29.5379 26.9241 29.8227C27.0899 29.6824 27.3262 29.5811 27.6657 29.5811C27.7191 29.5811 27.7623 29.6246 27.7623 29.6777C27.7623 29.7308 27.7192 29.7743 27.6657 29.7743C26.7467 29.7743 26.7322 30.639 26.7321 30.676C26.7321 30.69 26.7226 30.7 26.7172 30.7119C26.7123 30.7224 26.7121 30.7355 26.704 30.7435L26.7038 30.7438C26.6863 30.7613 26.6622 30.7721 26.6357 30.7721H26.6355C26.6255 30.772 26.6191 30.7644 26.6101 30.7616C26.5806 30.7524 26.5603 30.7324 26.5505 30.7032C26.5473 30.6937 26.5392 30.6869 26.5391 30.6763C26.5388 30.6533 26.5225 30.1122 25.71 30.1122C25.6567 30.1122 25.6134 30.0687 25.6134 30.0156C25.6134 29.9627 25.6566 29.9192 25.71 29.9192Z" fill="#73AF00"/>
<path d="M23.978 30.4142C24.1503 31.0796 24.7496 31.5733 25.4688 31.5733C26.1881 31.5733 26.7873 31.0796 26.9597 30.4142H23.978Z" fill="#FF4B55"/>
<path d="M25.4694 31.5733C26.1887 31.5733 26.7878 31.0796 26.9602 30.4142H25.4694V31.5733Z" fill="#FFE15A"/>
<path d="M20.0615 23.6649V22.8922H18.1296V23.6649H18.516V32.1649H18.1296V32.9376H18.516H19.675H20.0615V32.1649H19.675V23.6649H20.0615Z" fill="#F5F5F5"/>
<path d="M32.8115 23.6649V22.8922H30.8796V23.6649H31.266V32.1649H30.8796V32.9376H31.266H32.425H32.8115V32.1649H32.425V23.6649H32.8115Z" fill="#F5F5F5"/>
<path d="M29.719 22.5059H21.219C20.7923 22.5059 20.4463 22.1599 20.4463 21.7331C20.4463 21.3064 20.7923 20.9604 21.219 20.9604H29.719C30.1458 20.9604 30.4918 21.3064 30.4918 21.7331C30.4918 22.16 30.1459 22.5059 29.719 22.5059Z" fill="#FFE15A"/>
<path d="M25.7593 22.0229H25.1798C25.0197 22.0229 24.89 21.8932 24.89 21.7332C24.89 21.5731 25.0198 21.4435 25.1798 21.4435H25.7593C25.9193 21.4435 26.049 21.5732 26.049 21.7332C26.049 21.8932 25.9192 22.0229 25.7593 22.0229Z" fill="#FF4B55"/>
<path d="M28.6584 22.023H28.0789C27.9189 22.023 27.7892 21.8932 27.7892 21.7332C27.7892 21.5732 27.919 21.4435 28.0789 21.4435H28.6584C28.8185 21.4435 28.9482 21.5733 28.9482 21.7332C28.9483 21.8932 28.8185 22.023 28.6584 22.023Z" fill="#73AF00"/>
<path d="M22.8629 22.023H22.2834C22.1233 22.023 21.9937 21.8932 21.9937 21.7332C21.9937 21.5732 22.1234 21.4435 22.2834 21.4435H22.8629C23.0229 21.4435 23.1526 21.5733 23.1526 21.7332C23.1527 21.8932 23.023 22.023 22.8629 22.023Z" fill="#73AF00"/>
<path d="M30.8945 19.3586L30.3311 19.5517L30.3854 20.0892C29.7631 20.7964 29.4508 20.842 29.3222 20.7972C29.163 20.7423 29.0897 20.5154 29.0601 20.3416L29.2926 20.5741C30.4517 19.415 29.7876 17.7126 29.7876 17.7126C29.4616 17.7729 29.3167 18.0748 29.3167 18.0748C29.0148 18.0507 28.701 18.0748 28.701 18.0748C28.6769 18.3404 28.7734 18.7146 28.7734 18.7146C28.1108 18.8513 27.8381 19.2103 27.8381 19.2103C27.9518 19.5285 28.3148 19.8013 28.3148 19.8013C28.2062 20.0669 28.3389 20.3807 28.3389 20.3807C28.5047 20.3807 28.6482 20.3307 28.7496 20.2817C28.3169 20.8212 28.1132 20.8341 28.0441 20.8081C27.8351 20.7305 27.782 20.1131 27.8114 19.6994C27.8145 19.6571 27.7894 19.6178 27.7498 19.6024C27.7106 19.5877 27.6654 19.5997 27.6391 19.633L27.3059 20.0578C25.9154 18.2054 27.0149 17.0967 27.0149 17.0967V16.3239H26.6285V16.7102H26.2974V16.3239H25.9662V16.7102H25.6351V16.3239H25.3039V16.7102H24.9728V16.3239H24.6416V16.7102H24.3105V16.3239H23.9241V17.0967C23.9241 17.0967 25.0234 18.2052 23.6331 20.0578L23.2999 19.633C23.2736 19.5994 23.2283 19.587 23.1892 19.6024C23.1495 19.6178 23.1245 19.6572 23.1276 19.6994C23.1569 20.1131 23.1042 20.7304 22.8948 20.8081C22.8255 20.8332 22.6215 20.8208 22.1879 20.2799C22.2896 20.3297 22.4342 20.3808 22.6023 20.3808C22.6023 20.3808 22.7352 20.067 22.6264 19.8013C22.6264 19.8013 22.9893 19.5286 23.103 19.2104C23.103 19.2104 22.8303 18.8513 22.1677 18.7147C22.1677 18.7147 22.2643 18.3405 22.2402 18.0749C22.2402 18.0749 21.9263 18.0508 21.6244 18.0749C21.6244 18.0749 21.4795 17.773 21.1535 17.7127C21.1535 17.7127 20.4894 19.415 21.6486 20.5742L21.8784 20.3443C21.8486 20.5179 21.7752 20.7427 21.6168 20.7974C21.4875 20.8423 21.1763 20.7967 20.5556 20.0918L20.6101 19.552L20.0466 19.3589C19.7569 18.4815 19.0646 18.5861 19.0646 18.5861C19.5234 18.9805 19.6199 19.9866 19.6199 19.9866L20.8113 21.1457L20.8757 20.9605C20.849 20.8057 20.8076 20.6846 20.763 20.5866C21.1367 20.9318 21.4402 21.0639 21.6803 20.9798C21.916 20.8981 22.016 20.6317 22.0583 20.4306C22.3752 20.8222 22.6298 21.0107 22.8424 21.0107C22.8839 21.0107 22.9237 21.0035 22.962 20.9891C23.2658 20.8767 23.3244 20.3408 23.3287 19.9827L23.538 20.2495V20.9605H25.0835C25.0835 20.7471 25.2565 20.5742 25.4698 20.5742C25.6832 20.5742 25.8562 20.7471 25.8562 20.9605H27.4017V20.2495L27.6109 19.9827C27.6152 20.3408 27.674 20.8767 27.9776 20.9891C28.0159 21.0035 28.0558 21.0107 28.0973 21.0107C28.3099 21.0107 28.5644 20.822 28.8814 20.4306C28.9236 20.6317 29.0236 20.8981 29.2594 20.9798C29.5007 21.0639 29.8051 20.931 30.1802 20.5836C30.1352 20.6822 30.093 20.8042 30.066 20.9606L30.1305 21.1458L31.3218 19.9867C31.3218 19.9867 31.4184 18.9805 31.8771 18.5862C31.8765 18.5858 31.1843 18.4812 30.8945 19.3586Z" fill="#FFE15A"/>
<path d="M24.0203 22.0229C23.8603 22.0229 23.7306 21.8932 23.7306 21.7332C23.7306 21.5731 23.8604 21.4435 24.0203 21.4435C24.1804 21.4435 24.3101 21.5732 24.3101 21.7332C24.3101 21.8932 24.1803 22.0229 24.0203 22.0229Z" fill="#F5F5F5"/>
<path d="M26.9187 22.023C26.7586 22.023 26.6289 21.8932 26.6289 21.7332C26.6289 21.5732 26.7587 21.4435 26.9187 21.4435C27.0787 21.4435 27.2084 21.5733 27.2084 21.7332C27.2085 21.8932 27.0787 22.023 26.9187 22.023Z" fill="#F5F5F5"/>
<path d="M29.8173 22.023C29.6573 22.023 29.5276 21.8932 29.5276 21.7332C29.5276 21.5732 29.6574 21.4435 29.8173 21.4435C29.9774 21.4435 30.1071 21.5733 30.1071 21.7332C30.1071 21.8932 29.9774 22.023 29.8173 22.023Z" fill="#FF4B55"/>
<path d="M21.1242 22.023C20.9642 22.023 20.8345 21.8932 20.8345 21.7332C20.8345 21.5732 20.9643 21.4435 21.1242 21.4435C21.2843 21.4435 21.414 21.5733 21.414 21.7332C21.414 21.8932 21.2842 22.023 21.1242 22.023Z" fill="#FF4B55"/>
<path d="M25.4685 19.0286C25.6818 19.0286 25.8548 18.8557 25.8548 18.6423C25.8548 18.4289 25.6818 18.256 25.4685 18.256C25.2551 18.256 25.0822 18.4289 25.0822 18.6423C25.0822 18.8557 25.2551 19.0286 25.4685 19.0286Z" fill="#F5F5F5"/>
<path d="M21.5197 18.9967C21.3861 19.0304 21.3095 19.1835 21.3486 19.3387C21.3878 19.4938 21.5279 19.5923 21.6615 19.5585C21.7952 19.5248 21.8718 19.3717 21.8327 19.2165C21.7935 19.0614 21.6534 18.9629 21.5197 18.9967Z" fill="#F5F5F5"/>
<path d="M29.2791 19.5585C29.4127 19.5923 29.5528 19.4938 29.592 19.3387C29.6311 19.1835 29.5545 19.0304 29.4209 18.9967C29.2872 18.9629 29.1471 19.0614 29.1079 19.2165C29.0688 19.3717 29.1454 19.5248 29.2791 19.5585Z" fill="#F5F5F5"/>
<path d="M20.8321 26.2437C20.4672 26.1746 19.981 26.1242 19.4473 26.1806C18.9245 26.2357 18.314 26.3982 17.7412 26.7872V29.2346C18.5409 27.3017 20.3243 27.6753 20.8321 27.8286V26.2437Z" fill="#F5F5F5"/>
<path d="M30.1046 26.2437C30.4696 26.1746 30.9558 26.1242 31.4895 26.1806C32.0122 26.2357 32.6228 26.3982 33.1955 26.7872V29.2346C32.3958 27.3017 30.6124 27.6753 30.1046 27.8286V26.2437Z" fill="#F5F5F5"/>
<path d="M23.3613 32.7826C23.3613 32.7826 22.945 33.4359 22.7343 33.4992C22.7343 33.4992 22.4486 33.7073 22.3906 33.6863L23.393 32.5245L23.3613 32.7826Z" fill="#FF4B55"/>
<path d="M23.3249 33.1597C23.129 33.1387 22.975 33.2506 22.877 33.3837C22.7791 33.5167 22.5152 33.5604 22.4879 33.3877C22.4633 33.2323 23.0106 32.7467 23.0106 32.7467C23.0106 32.7467 22.9197 32.5831 22.6697 32.6467C22.432 32.7073 22.1982 33.0897 22.1982 33.0897C22.1982 33.0897 21.9606 32.9967 21.7697 33.1557L20.9526 34.0904C20.9526 34.0904 21.9562 34.9478 23.234 33.6844L23.0171 33.6144C23.0869 33.3487 23.3249 33.1597 23.3249 33.1597Z" fill="#73AF00"/>
<path d="M22.1179 33.4958C22.1703 33.4958 22.2127 33.4533 22.2127 33.401C22.2127 33.3486 22.1703 33.3062 22.1179 33.3062C22.0655 33.3062 22.0231 33.3486 22.0231 33.401C22.0231 33.4533 22.0655 33.4958 22.1179 33.4958Z" fill="#F5F5F5"/>
<path d="M18.1278 16.8684C19.3146 16.8643 20.4924 17.0717 21.605 17.4831V16.2725C20.4883 15.8874 19.3114 15.7046 18.1278 15.7335V16.8684Z" fill="#F5F5F5"/>
<path d="M27.7865 15.5513C26.2626 15.1855 24.6739 15.1855 23.1501 15.5513C23.1501 15.165 23.1501 14.7786 23.1501 14.3922C24.674 14.0264 26.2627 14.0264 27.7865 14.3922C27.7865 14.7786 27.7865 15.1649 27.7865 15.5513Z" fill="#F5F5F5"/>
<path d="M23.5366 14.6683C22.5914 14.7561 21.6603 14.9775 20.7728 15.3319C20.8284 15.7142 20.884 16.0966 20.9395 16.4789C21.7747 16.1455 22.6488 15.9323 23.5366 15.8345V14.6683Z" fill="#F5F5F5"/>
<path d="M17.7412 18.1915C18.2676 18.0446 18.8035 17.9363 19.346 17.8767V16.7104C18.8042 16.7607 18.2683 16.8602 17.7412 16.9981V18.1915Z" fill="#F5F5F5"/>
<path d="M32.8098 16.8684C31.6229 16.8643 30.4452 17.0717 29.3325 17.4831V16.2725C30.4493 15.8874 31.6262 15.7046 32.8098 15.7335V16.8684Z" fill="#F5F5F5"/>
<path d="M27.4004 14.6683C28.3456 14.7561 29.2767 14.9775 30.1642 15.3319C30.1086 15.7142 30.053 16.0966 29.9975 16.4789C29.1623 16.1455 28.2882 15.9323 27.4004 15.8345V14.6683Z" fill="#F5F5F5"/>
<path d="M33.1956 18.1915C32.6692 18.0446 32.1333 17.9363 31.5908 17.8767V16.7104C32.1326 16.7607 32.6686 16.8602 33.1956 16.9981V18.1915Z" fill="#F5F5F5"/>
</g>
<defs>
<clipPath id="clip0_108_48186">
<rect width="50" height="50" fill="white" transform="translate(0.46875 0.444092)"/>
</clipPath>
</defs>
</svg>
