<svg width="51" height="51" viewBox="0 0 51 51" fill="none" xmlns="http://www.w3.org/2000/svg">
<g clip-path="url(#clip0_108_48154)">
<path d="M49.3299 41.8234H1.05425C0.578173 41.8234 0.192139 41.4373 0.192139 40.9613V9.92685C0.192139 9.45078 0.578173 9.06474 1.05425 9.06474H49.33C49.8061 9.06474 50.1921 9.45078 50.1921 9.92685V40.9613C50.192 41.4374 49.806 41.8234 49.3299 41.8234Z" fill="#82AFFF"/>
<path d="M25.0797 13.781L24.4156 15.7724L22.3164 15.7887C22.2014 15.7896 22.1536 15.9364 22.2462 16.0049L23.9349 17.2519L23.3017 19.2532C23.267 19.3629 23.3919 19.4538 23.4855 19.3868L25.1932 18.1661L26.9011 19.3868C26.9947 19.4537 27.1196 19.363 27.0849 19.2532L26.4517 17.2519L28.1404 16.0049C28.2329 15.9365 28.1852 15.7897 28.0701 15.7887L25.971 15.7724L25.3069 13.781C25.2705 13.6719 25.116 13.6719 25.0797 13.781Z" fill="#F5F5F5"/>
<path d="M25.0797 31.5606L24.4156 33.552L22.3164 33.5683C22.2014 33.5691 22.1536 33.716 22.2462 33.7845L23.9349 35.0314L23.3017 37.0328C23.267 37.1425 23.3919 37.2334 23.4855 37.1664L25.1932 35.9457L26.9011 37.1664C26.9947 37.2333 27.1196 37.1426 27.0849 37.0328L26.4517 35.0314L28.1404 33.7845C28.2329 33.7161 28.1852 33.5692 28.0701 33.5683L25.971 33.552L25.3069 31.5606C25.2705 31.4514 25.116 31.4514 25.0797 31.5606Z" fill="#F5F5F5"/>
<path d="M36.8565 25.3306L34.8651 24.6664L34.8488 22.5673C34.8479 22.4523 34.701 22.4045 34.6326 22.4971L33.3856 24.1858L31.3842 23.5526C31.2746 23.5179 31.1837 23.6428 31.2506 23.7364L32.4713 25.4441L31.2506 27.152C31.1837 27.2456 31.2745 27.3705 31.3842 27.3358L33.3856 26.7026L34.6326 28.3912C34.7009 28.4838 34.8478 28.436 34.8488 28.321L34.8651 26.2219L36.8565 25.5577C36.9656 25.5214 36.9656 25.3669 36.8565 25.3306Z" fill="#F5F5F5"/>
<path d="M13.5302 25.3306L15.5216 24.6664L15.5379 22.5673C15.5388 22.4523 15.6856 22.4045 15.7541 22.4971L17.0011 24.1858L19.0024 23.5526C19.1121 23.5179 19.203 23.6428 19.136 23.7364L17.9153 25.4442L19.136 27.1521C19.2029 27.2457 19.1122 27.3706 19.0024 27.3359L17.0011 26.7027L15.7541 28.3913C15.6857 28.4839 15.5389 28.4361 15.5379 28.3211L15.5216 26.222L13.5302 25.5578C13.4211 25.5214 13.4211 25.3669 13.5302 25.3306Z" fill="#F5F5F5"/>
</g>
<defs>
<clipPath id="clip0_108_48154">
<rect width="50" height="50" fill="white" transform="translate(0.191406 0.444092)"/>
</clipPath>
</defs>
</svg>
