<svg width="51" height="51" viewBox="0 0 51 51" fill="none" xmlns="http://www.w3.org/2000/svg">
<g clip-path="url(#clip0_108_48104)">
<path d="M33.9377 9.22299H49.7423C50.2184 9.22299 50.6044 9.60903 50.6044 10.0851V41.1196C50.6044 41.5956 50.2184 41.9817 49.7423 41.9817H33.9377V9.22299Z" fill="#FF4B55"/>
<path d="M33.9385 9.22339H17.2715V41.9822H33.9385V9.22339Z" fill="#FFE15A"/>
<path d="M1.4666 9.22299H17.2712V41.9816H1.4666C0.990527 41.9816 0.604492 41.5956 0.604492 41.1195V10.085C0.604492 9.60893 0.990527 9.22299 1.4666 9.22299Z" fill="#41479B"/>
<path d="M28.6593 31.5104L29.0881 31.1608L27.1339 28.764L26.7051 29.1137L28.6593 31.5104Z" fill="#FFCD5A"/>
<path d="M27.349 30.344L28.2068 29.6453L27.3472 28.5901L26.4894 29.2888L27.349 30.344Z" fill="#FFBE5A"/>
<path d="M24.7435 29.1138L24.3147 28.7642L22.3605 31.1609L22.7893 31.5106L24.7435 29.1138Z" fill="#FFCD5A"/>
<path d="M24.9574 29.2889L24.0996 28.5902L23.24 29.6454L24.0977 30.3442L24.9574 29.2889Z" fill="#FFBE5A"/>
<path d="M25.0322 29.6635L23.649 32.4298L25.5854 33.8129V29.9401L25.0322 29.6635Z" fill="#FFE15A"/>
<path d="M26.1386 29.6635L27.5218 32.4298L25.5853 33.8129V29.9401L26.1386 29.6635Z" fill="#FFCD5A"/>
<path d="M21.7126 29.6634V22.471H22.5425C22.5425 22.471 22.5425 27.1738 22.5425 28.0036C22.5425 28.8335 21.7126 29.6634 21.7126 29.6634Z" fill="#FFBE5A"/>
<path d="M21.1591 31.0466V22.471H21.9889C21.9889 22.471 21.9889 28.5569 21.9889 29.3868C21.9888 30.2166 21.1591 31.0466 21.1591 31.0466Z" fill="#FFCD5A"/>
<path d="M20.6061 32.1532V22.4712H21.436C21.436 22.4712 21.436 29.6635 21.436 30.4934C21.436 31.3232 20.6061 32.1532 20.6061 32.1532Z" fill="#FFE15A"/>
<path d="M22.5424 22.7477C22.5424 22.7477 22.5424 26.6896 22.5424 28.0037C22.5424 29.3869 24.5479 29.2024 25.5852 30.2167C26.6226 29.2023 28.6281 29.3868 28.6281 28.0037C28.6281 26.6897 28.6281 22.7477 28.6281 22.7477H22.5424Z" fill="#FF4B55"/>
<path d="M22.5424 25.7907C22.5424 26.6665 22.5424 27.5161 22.5424 28.0038C22.5424 29.387 24.5479 29.2025 25.5852 30.2168C26.6226 29.2024 28.6281 29.3869 28.6281 28.0037C28.6281 27.5161 28.6281 26.6664 28.6281 25.7906L22.5424 25.7907Z" fill="#41479B"/>
<path d="M25.5848 29.3868L24.7549 28.8336V28.5569L25.0315 28.2804V26.6205L24.2017 26.0673L25.0315 24.9607H25.3081L25.5848 25.2375L25.8614 24.9607H26.1381L26.968 26.0673L26.1381 26.6205V28.2804L26.4146 28.5569V28.8336L25.5848 29.3868Z" fill="#FFE15A"/>
<path d="M24.4783 23.0244C24.4783 23.0244 23.3718 23.301 23.3718 24.4076C23.3718 25.5141 24.4783 26.0674 24.4783 26.0674L25.0315 25.2375C23.3717 24.6841 24.4783 23.0244 24.4783 23.0244Z" fill="#FFE15A"/>
<path d="M26.6913 23.0244C26.6913 23.0244 27.7977 23.301 27.7977 24.4076C27.7977 25.5141 26.6913 26.0674 26.6913 26.0674L26.1381 25.2375C27.7977 24.6841 26.6913 23.0244 26.6913 23.0244Z" fill="#FFE15A"/>
<path d="M22.8185 25.7907L23.3717 26.0673L23.925 25.7907L23.3717 25.514L22.8185 25.7907Z" fill="#FFE15A"/>
<path d="M27.2446 25.7907L27.7979 26.0673L28.3512 25.7907L27.7979 25.514L27.2446 25.7907Z" fill="#FFE15A"/>
<path d="M25.5848 23.1627L25.786 23.3687L26.0738 23.3652L26.0705 23.6531L26.2764 23.8543L26.0705 24.0553L26.0738 24.3432L25.786 24.3398L25.5848 24.5459L25.3837 24.3398L25.0958 24.3432L25.0993 24.0553L24.8933 23.8543L25.0993 23.6531L25.0958 23.3652L25.3837 23.3687L25.5848 23.1627Z" fill="#FFE15A"/>
<path d="M23.7068 26.9988L23.9063 27.2207L24.1836 27.1107C24.3273 27.0538 24.462 27.2099 24.3847 27.3437L24.2354 27.602L24.4257 27.8319C24.5242 27.9509 24.4173 28.1274 24.2662 28.0952L23.9744 28.0329L23.8147 28.2849C23.7319 28.4154 23.5311 28.3682 23.5149 28.2145L23.4839 27.9177L23.1949 27.8437C23.0452 27.8053 23.028 27.5998 23.1691 27.5371L23.4418 27.416L23.423 27.1182C23.4135 26.9637 23.6036 26.8839 23.7068 26.9988Z" fill="#FFE15A"/>
<path d="M27.3906 27.6294C27.4516 27.3148 27.7112 27.092 28.0138 27.0584C27.9517 27.025 27.8857 26.9974 27.813 26.9833C27.4254 26.9082 27.0504 27.1615 26.9754 27.5489C26.9003 27.9364 27.1534 28.3114 27.5409 28.3865C27.6137 28.4006 27.6853 28.3997 27.7552 28.3919C27.4872 28.2477 27.3296 27.9441 27.3906 27.6294Z" fill="#FFE15A"/>
<path d="M24.4783 22.7477L25.0315 19.9814L23.925 19.1515L24.2017 18.8749H24.7549C24.7549 18.8749 25.0316 18.5982 25.5848 18.5982C26.138 18.5982 26.6913 18.8749 26.6913 19.7047C26.6913 20.5344 26.9679 22.7475 26.9679 22.7475H24.4783V22.7477Z" fill="#FFE15A"/>
<path d="M22.5425 21.6411C21.9313 21.6411 21.436 22.1366 21.436 22.7476H23.6491C23.649 22.1366 23.1535 21.6411 22.5425 21.6411Z" fill="#FFAA5A"/>
<path d="M22.2658 22.7477H20.6061V20.9064C20.6061 20.5483 20.8964 20.2581 21.2544 20.2581H21.6175C21.9756 20.2581 22.2658 20.5484 22.2658 20.9064V22.7477Z" fill="#FFBE5A"/>
<path d="M29.4576 29.6635V22.4712H28.6277C28.6277 22.4712 28.6277 27.1739 28.6277 28.0037C28.6277 28.8337 29.4576 29.6635 29.4576 29.6635Z" fill="#FFBE5A"/>
<path d="M30.0114 31.0466V22.471H29.1815C29.1815 22.471 29.1815 28.5569 29.1815 29.3868C29.1815 30.2166 30.0114 31.0466 30.0114 31.0466Z" fill="#FFCD5A"/>
<path d="M30.5646 32.1532V22.4712H29.7347C29.7347 22.4712 29.7347 29.6635 29.7347 30.4934C29.7346 31.3232 30.5646 32.1532 30.5646 32.1532Z" fill="#FFE15A"/>
<path d="M28.6282 21.6411C29.2394 21.6411 29.7347 22.1366 29.7347 22.7476H27.5216C27.5217 22.1366 28.0171 21.6411 28.6282 21.6411Z" fill="#FFAA5A"/>
<path d="M28.9049 22.7477H30.5647V20.9064C30.5647 20.5483 30.2743 20.2581 29.9163 20.2581H29.5533C29.1952 20.2581 28.905 20.5484 28.905 20.9064L28.9049 22.7477Z" fill="#FFBE5A"/>
<path d="M32.1082 25.8986L31.7538 25.6828L27.88 32.0443L28.2344 32.2602L32.1082 25.8986Z" fill="#FFAA5A"/>
<path d="M28.7299 31.894L29.4208 31.0296L28.7449 30.4893L28.0539 31.3536L28.7299 31.894Z" fill="#FFE15A"/>
<path d="M32.2222 25.9703L31.6315 25.6107L30.8017 26.9741L31.3924 27.3337L32.2222 25.9703Z" fill="#FFCD5A"/>
<path d="M23.4802 32.0385L19.5754 25.9983L19.3431 26.1485L23.2479 32.1887L23.4802 32.0385Z" fill="#73AF00"/>
<path d="M22.0318 28.8627C21.9326 28.9752 21.8667 29.1458 21.8501 29.3425C21.7137 29.2048 21.5571 29.1171 21.4112 29.0936C21.3727 29.2362 21.3883 29.4151 21.458 29.596C21.2717 29.5304 21.0893 29.5203 20.946 29.5647C20.9864 29.7686 21.1525 29.9899 21.4071 30.1417C21.6616 30.2937 21.9353 30.3347 22.1338 30.2733L22.1907 30.2366C22.3281 30.0807 22.403 29.8144 22.369 29.5199C22.3347 29.2255 22.201 28.9832 22.0318 28.8627Z" fill="#73AF00"/>
<path d="M22.1622 30.5323C22.3149 30.5323 22.4388 30.4084 22.4388 30.2556C22.4388 30.1028 22.3149 29.9789 22.1622 29.9789C22.0094 29.9789 21.8855 30.1028 21.8855 30.2556C21.8855 30.4084 22.0094 30.5323 22.1622 30.5323Z" fill="#FF4B55"/>
<path d="M20.9802 27.2365C20.8809 27.349 20.8151 27.5196 20.7985 27.7162C20.6621 27.5785 20.5054 27.4908 20.3595 27.4673C20.3211 27.61 20.3367 27.7889 20.4063 27.9698C20.2201 27.9041 20.0377 27.8941 19.8944 27.9384C19.9347 28.1423 20.1009 28.3636 20.3554 28.5155C20.6099 28.6674 20.8837 28.7084 21.0822 28.6471L21.139 28.6104C21.2764 28.4544 21.3513 28.1881 21.3174 27.8937C21.2832 27.5991 21.1495 27.3569 20.9802 27.2365Z" fill="#73AF00"/>
<path d="M21.1113 28.9063C21.2641 28.9063 21.3879 28.7824 21.3879 28.6296C21.3879 28.4768 21.2641 28.353 21.1113 28.353C20.9585 28.353 20.8346 28.4768 20.8346 28.6296C20.8346 28.7824 20.9585 28.9063 21.1113 28.9063Z" fill="#FF4B55"/>
<path d="M19.929 25.6103C19.8298 25.7228 19.764 25.8934 19.7474 26.0901C19.6109 25.9524 19.4543 25.8647 19.3084 25.8411C19.2699 25.9838 19.2855 26.1627 19.3552 26.3436C19.1689 26.278 18.9865 26.2679 18.8433 26.3122C18.8836 26.5161 19.0497 26.7374 19.3043 26.8893C19.5588 27.0412 19.8325 27.0823 20.0311 27.0209L20.0879 26.9842C20.2253 26.8283 20.3002 26.5619 20.2662 26.2675C20.2318 25.973 20.0982 25.7307 19.929 25.6103Z" fill="#73AF00"/>
<path d="M20.0596 27.2803C20.2124 27.2803 20.3363 27.1564 20.3363 27.0036C20.3363 26.8509 20.2124 26.727 20.0596 26.727C19.9068 26.727 19.783 26.8509 19.783 27.0036C19.783 27.1564 19.9068 27.2803 20.0596 27.2803Z" fill="#FF4B55"/>
<path d="M23.3938 31.3548L22.7029 30.4905L22.027 31.0308L22.7179 31.8951L23.3938 31.3548Z" fill="#FFE15A"/>
<path d="M24.2029 18.0456H23.9255V19.982H24.2029V18.0456Z" fill="#FFE15A"/>
<path d="M24.478 18.322H23.6481V18.5987H24.478V18.322Z" fill="#FFE15A"/>
<path d="M23.9257 19.1515L24.7555 19.774V18.8749H24.2023L23.9257 19.1515Z" fill="#FF875A"/>
<path d="M24.2021 18.045V18.3217H24.4788V18.5983H24.2021V18.875H24.7553C24.7553 18.875 25.032 18.5983 25.5852 18.5983C26.1384 18.5983 26.6917 18.875 26.6917 19.7048C26.6917 20.5347 26.9683 22.7476 26.9683 22.7476H27.5215C27.5215 22.1365 28.0169 21.6412 28.628 21.6412C28.7241 21.6412 28.8157 21.6572 28.9046 21.6804V21.088C28.9046 20.6297 29.2762 20.2581 29.7345 20.2581C30.1928 20.2581 30.5644 20.6297 30.5644 21.088V22.4712V22.7478V27.6332L30.9216 27.0464L30.8036 26.9745L31.6335 25.611L31.7515 25.6829L31.9288 25.7909L32.2242 25.9707L31.3943 27.3342L31.2761 27.2623L30.5644 28.4316V32.1536C30.5644 32.1536 29.9039 31.4912 29.7625 30.7584C29.6614 30.6285 29.545 30.4629 29.4425 30.2748L29.1259 30.7949L29.4203 31.0302L28.7293 31.8945L28.5459 31.7478L28.2332 32.2616L27.8788 32.0458L28.2191 31.4866L28.0539 31.3545L28.2891 31.06L27.5632 30.1698L27.3487 30.3446L26.7033 29.5526C26.5315 29.6217 26.3617 29.6975 26.1983 29.7843L27.5212 32.4303L25.5848 33.8135L23.6484 32.4303L24.9713 29.7843C24.8737 29.7324 24.7745 29.6833 24.673 29.6386L24.0977 30.3446L23.8832 30.1698L23.1573 31.06L23.3925 31.3545L23.1576 31.5423L23.4787 32.0389L23.2463 32.1891L22.9404 31.7159L22.717 31.8944L22.0261 31.0301L22.3366 30.7819L22.172 30.5273C22.1681 30.5274 22.1643 30.5275 22.1604 30.5275C22.07 30.5275 21.9814 30.4872 21.9288 30.4057C21.9063 30.371 21.8942 30.3331 21.8888 30.2948C21.8368 30.2917 21.784 30.2843 21.7292 30.2712C21.6263 30.4607 21.5091 30.6276 21.4075 30.7584C21.2662 31.4913 20.6055 32.1536 20.6055 32.1536V28.6248C20.5219 28.5985 20.4377 28.5651 20.3547 28.5156C20.1002 28.3637 19.934 28.1424 19.8937 27.9386C19.9519 27.9206 20.0165 27.9116 20.0852 27.9116C20.1858 27.9116 20.2952 27.931 20.4057 27.9699C20.3697 27.8762 20.3487 27.7834 20.3418 27.6955L20.0697 27.2746C20.0658 27.2747 20.062 27.2748 20.0581 27.2748C19.9676 27.2748 19.8791 27.2345 19.8264 27.1529C19.804 27.1182 19.7919 27.0804 19.7864 27.0421C19.6333 27.0329 19.4655 26.986 19.3037 26.8895C19.0492 26.7376 18.883 26.5163 18.8426 26.3125C18.9008 26.2945 18.9655 26.2855 19.0341 26.2855C19.1347 26.2855 19.2441 26.3049 19.3546 26.3438C19.285 26.1629 19.2694 25.9841 19.3079 25.8414C19.4538 25.8649 19.6104 25.9526 19.7468 26.0903C19.7634 25.8936 19.8293 25.723 19.9284 25.6105C20.0977 25.731 20.2313 25.9733 20.2653 26.2679C20.287 26.4552 20.2608 26.6273 20.2062 26.7708C20.2389 26.7916 20.2685 26.8181 20.2909 26.8528C20.3459 26.9379 20.3439 27.0401 20.3019 27.1246L20.574 27.5455C20.5845 27.5514 20.5949 27.5584 20.6054 27.5649V22.7481V22.4715V21.0883C20.6054 20.63 20.977 20.2584 21.4353 20.2584C21.8936 20.2584 22.2652 20.63 22.2652 21.0883V21.6807C22.3541 21.6576 22.4457 21.6415 22.5419 21.6415C23.153 21.6415 23.6483 22.1369 23.6483 22.7479H24.4782L25.0314 19.9816L24.7547 19.7742L24.2015 19.3593V19.9817H23.9249V18.5985H23.6482V18.3219H23.9249V18.0452H24.2026L24.2021 18.045ZM28.6427 30.6176L28.7449 30.4897L28.7993 30.5332L29.2452 29.8007C29.2063 29.6652 29.1814 29.5263 29.1814 29.3869C29.1814 29.3733 29.1814 29.3547 29.1814 29.3383C28.94 29.0207 28.6282 28.5126 28.6282 28.0037C28.6282 28.5863 28.2706 28.8898 27.7811 29.123L28.2069 29.6456L27.9925 29.8202L28.6427 30.6176ZM22.5543 30.6078L22.7022 30.4896L22.8043 30.6175L23.4545 29.8199L23.2402 29.6453L23.5922 29.2133C23.0013 28.9665 22.5422 28.6641 22.5422 28.0036C22.5422 28.374 22.3769 28.7436 22.1939 29.0403C22.2808 29.1679 22.3463 29.3309 22.3682 29.5198C22.3899 29.7071 22.3637 29.8793 22.3091 30.0227C22.3418 30.0435 22.3714 30.07 22.3938 30.1048C22.4488 30.1898 22.4468 30.292 22.4048 30.3765L22.5543 30.6078ZM24.2021 17.8376H23.9254C23.8109 17.8376 23.718 17.9305 23.718 18.045V18.1141H23.6489C23.5343 18.1141 23.4415 18.207 23.4415 18.3216V18.5982C23.4415 18.7128 23.5343 18.8057 23.6489 18.8057H23.718V19.9813C23.718 20.0959 23.8109 20.1888 23.9254 20.1888H24.2021C24.3167 20.1888 24.4095 20.0959 24.4095 19.9813V19.7739L24.6308 19.9398L24.8028 20.0688L24.3085 22.5401H23.8398C23.74 21.9139 23.1961 21.4337 22.5421 21.4337C22.5192 21.4337 22.4962 21.4345 22.473 21.4358V21.0879C22.473 20.5159 22.0076 20.0505 21.4356 20.0505C20.8636 20.0505 20.3982 20.5159 20.3982 21.0879V22.4711V22.7477V25.9292C20.3233 25.7226 20.2015 25.5498 20.0489 25.4411C20.0126 25.4152 19.9705 25.4026 19.9288 25.4026C19.871 25.4026 19.8138 25.4266 19.7731 25.4728C19.7092 25.5454 19.6567 25.6337 19.6175 25.7333C19.5267 25.6841 19.4333 25.6509 19.3411 25.636C19.3299 25.6342 19.3189 25.6333 19.308 25.6333C19.2157 25.6333 19.1327 25.695 19.1079 25.7867C19.0836 25.8767 19.0754 25.9756 19.0831 26.0786C19.0668 26.0778 19.0505 26.0774 19.0344 26.0774C18.9446 26.0774 18.8595 26.0896 18.7817 26.1137C18.6802 26.145 18.6188 26.2479 18.6393 26.3521C18.693 26.6232 18.9016 26.8906 19.1975 27.0671C19.334 27.1485 19.4823 27.2044 19.6328 27.2316C19.6388 27.2431 19.6454 27.2542 19.6524 27.265C19.7205 27.3704 19.8273 27.4429 19.9495 27.4699L20.1006 27.7038C20.0956 27.7037 20.0906 27.7037 20.0856 27.7037C19.9958 27.7037 19.9107 27.7159 19.8329 27.7399C19.7314 27.7713 19.67 27.8742 19.6905 27.9784C19.7442 28.2495 19.9528 28.5169 20.2487 28.6933C20.296 28.7216 20.3452 28.7466 20.3983 28.7691V32.1527C20.3983 32.2367 20.449 32.3124 20.5265 32.3444C20.5522 32.355 20.5791 32.3601 20.6057 32.3601C20.6598 32.3601 20.7129 32.339 20.7527 32.2991C20.7809 32.2709 21.4316 31.6114 21.6012 30.8461C21.671 30.7544 21.7354 30.6619 21.794 30.5693C21.8608 30.6465 21.9511 30.6997 22.0521 30.7222L22.0611 30.7359L21.8972 30.867C21.8543 30.9014 21.8266 30.9514 21.8206 31.0061C21.8144 31.0607 21.8303 31.1157 21.8647 31.1587L22.5556 32.023C22.59 32.066 22.64 32.0936 22.6948 32.0997C22.7024 32.1006 22.7101 32.101 22.7177 32.101C22.7646 32.101 22.8103 32.0851 22.8472 32.0556L22.8914 32.0203L23.0727 32.3009C23.1026 32.3471 23.1496 32.3796 23.2034 32.3911C23.2178 32.3942 23.2324 32.3957 23.2469 32.3957C23.2866 32.3957 23.3258 32.3844 23.3595 32.3624L23.4937 32.2757L23.4633 32.3365C23.4176 32.4278 23.4453 32.5388 23.5283 32.5981L25.4647 33.9813C25.5008 34.0071 25.543 34.02 25.5853 34.02C25.6276 34.02 25.6698 34.0071 25.7059 33.9813L27.6423 32.5981C27.7254 32.5388 27.753 32.4279 27.7073 32.3365L26.4771 29.8761C26.5293 29.8515 26.5836 29.827 26.6406 29.8025L27.1883 30.4747C27.2294 30.525 27.2891 30.5511 27.3494 30.5511C27.3955 30.5511 27.4418 30.5357 27.4803 30.5044L27.5341 30.4606L28.023 31.0602L27.8923 31.2237C27.858 31.2667 27.8421 31.3216 27.8482 31.3763C27.8543 31.431 27.8819 31.481 27.9249 31.5154L27.9475 31.5335L27.702 31.9367C27.6424 32.0346 27.6735 32.1621 27.7713 32.2218L28.1257 32.4376C28.1585 32.4575 28.1959 32.4679 28.2337 32.4679C28.2501 32.4679 28.2667 32.4659 28.2828 32.4619C28.3362 32.4488 28.3824 32.4152 28.411 32.3681L28.6011 32.0557C28.6393 32.0859 28.6846 32.1006 28.7298 32.1006C28.7907 32.1006 28.851 32.0738 28.892 32.0226L29.583 31.1583C29.6084 31.1265 29.6229 31.0894 29.6271 31.0518C29.8525 31.726 30.3925 32.2731 30.4181 32.2988C30.4578 32.3386 30.511 32.3598 30.5651 32.3598C30.5918 32.3598 30.6186 32.3547 30.6443 32.3441C30.7218 32.312 30.7725 32.2364 30.7725 32.1524V28.4887L31.3523 27.5363C31.3665 27.5392 31.3806 27.5407 31.3948 27.5407C31.4648 27.5407 31.5332 27.5053 31.5722 27.441L32.4021 26.0775C32.4308 26.0306 32.4395 25.9741 32.4264 25.9206C32.4133 25.8672 32.3796 25.821 32.3327 25.7924L32.0373 25.6126L31.8601 25.5047L31.7418 25.4327C31.7082 25.4122 31.6709 25.4025 31.6342 25.4025C31.5642 25.4025 31.4959 25.438 31.4569 25.5022L30.7726 26.6265V22.7471V22.4704V21.0877C30.7726 20.5157 30.3072 20.0503 29.7352 20.0503C29.1632 20.0503 28.6978 20.5157 28.6978 21.0877V21.4356C28.6747 21.4343 28.6516 21.4335 28.6287 21.4335C27.9747 21.4335 27.4308 21.9137 27.331 22.5399H27.1526C27.0872 21.9953 26.8997 20.3746 26.8997 19.7045C26.8997 18.7357 26.2209 18.3905 25.5857 18.3905C25.1153 18.3905 24.8118 18.5698 24.6816 18.6672H24.6748C24.6824 18.6455 24.6866 18.6223 24.6866 18.598V18.3214C24.6866 18.2068 24.5937 18.114 24.4792 18.114H24.41V18.0448C24.4095 17.9305 24.3167 17.8376 24.2021 17.8376ZM22.4353 29.04C22.4884 28.9466 22.5347 28.8544 22.5746 28.7636C22.7475 28.9957 22.9963 29.1607 23.2612 29.2914L23.0795 29.5143C23.0448 29.557 23.0284 29.6117 23.0339 29.6665C23.0395 29.7213 23.0666 29.7716 23.1092 29.8062L23.1626 29.8498L22.7929 30.3031C22.7718 30.2928 22.7489 30.2861 22.7251 30.2834C22.7174 30.2825 22.7096 30.2821 22.7021 30.2821C22.6814 30.2821 22.6611 30.2852 22.6415 30.2912C22.6509 30.1869 22.6262 30.0822 22.5681 29.9922C22.5611 29.9813 22.5536 29.9707 22.5457 29.9605C22.5826 29.8122 22.5925 29.6541 22.5744 29.4961C22.5556 29.3339 22.5081 29.1786 22.4353 29.04ZM28.1022 29.1888C28.2849 29.0822 28.4624 28.9473 28.5969 28.7659C28.7029 29.0078 28.8421 29.2278 28.974 29.4074C28.9756 29.5229 28.9915 29.6419 29.0219 29.7682L28.707 30.2856C28.6888 30.289 28.6709 30.2948 28.654 30.3031L28.2843 29.8498L28.3376 29.8062C28.3803 29.7715 28.4074 29.7212 28.4129 29.6665C28.4185 29.6118 28.4022 29.557 28.3673 29.5143L28.1022 29.1888ZM24.098 30.5516C24.1583 30.5516 24.2179 30.5256 24.259 30.4753L24.6089 30.046L23.662 31.9399C23.6594 31.9351 23.6566 31.9305 23.6536 31.9258L23.4344 31.5866L23.5228 31.5159C23.5658 31.4815 23.5934 31.4315 23.5995 31.3767C23.6056 31.3222 23.5897 31.2672 23.5553 31.2243L23.4247 31.0608L23.9135 30.4611L23.9673 30.5049C24.0055 30.5365 24.0519 30.5516 24.098 30.5516ZM29.3982 30.7463L29.4433 30.6721C29.483 30.7305 29.525 30.7887 29.5691 30.8467C29.573 30.8641 29.5771 30.8814 29.5815 30.8988C29.5723 30.8875 29.5618 30.877 29.55 30.8676L29.3982 30.7463Z" fill="#FFAA5A"/>
</g>
<defs>
<clipPath id="clip0_108_48104">
<rect width="50" height="50" fill="white" transform="translate(0.603516 0.602539)"/>
</clipPath>
</defs>
</svg>
