<svg width="51" height="51" viewBox="0 0 51 51" fill="none" xmlns="http://www.w3.org/2000/svg">
<g clip-path="url(#clip0_108_48085)">
<path d="M33.6569 9.22299H49.4615C49.9375 9.22299 50.3236 9.60903 50.3236 10.0851V41.1196C50.3236 41.5956 49.9375 41.9817 49.4615 41.9817H33.6569V9.22299Z" fill="#FF4B55"/>
<path d="M33.6575 9.22339H16.9905V41.9822H33.6575V9.22339Z" fill="#41479B"/>
<path d="M1.18547 9.22299H16.9901V41.9816H1.18547C0.709399 41.9816 0.323364 41.5956 0.323364 41.1195V10.085C0.323364 9.60893 0.709399 9.22299 1.18547 9.22299Z" fill="#FF4B55"/>
<path d="M8.69053 22.7729C7.3877 22.7729 6.271 21.9879 5.779 20.8667C5.77871 20.8838 5.77393 20.8997 5.77393 20.9168C5.77393 22.5276 7.07979 23.8334 8.69053 23.8334C10.3013 23.8334 11.607 22.5276 11.607 20.9168C11.607 20.8997 11.6022 20.8838 11.602 20.8668C11.11 21.9879 9.99326 22.7729 8.69053 22.7729Z" fill="#F9CF02"/>
<path d="M8.69055 22.2428C9.862 22.2428 10.8116 21.2932 10.8116 20.1217C10.8116 18.9503 9.862 18.0006 8.69055 18.0006C7.5191 18.0006 6.56946 18.9503 6.56946 20.1217C6.56946 21.2932 7.5191 22.2428 8.69055 22.2428Z" fill="#F9CF02"/>
<path d="M7.36475 16.1445C7.36475 16.8766 7.9583 17.4702 8.69043 17.4702C9.42256 17.4702 10.0161 16.8766 10.0161 16.1445C10.0161 15.6142 9.68467 15.5479 9.68467 15.3491C9.68467 15.1502 9.8835 14.8851 9.48584 14.5537C9.68467 14.8851 9.35332 14.9514 9.35332 15.2828C9.35332 15.6141 9.48584 15.6142 9.48584 15.8793C9.48584 16.0258 9.36709 16.1444 9.2208 16.1444C9.07432 16.1444 8.95576 16.0256 8.95576 15.8793C8.95576 15.6143 9.2208 15.3491 9.2208 14.9513C9.2208 14.5536 9.15449 14.421 8.95576 14.0896C8.75693 13.7581 8.42549 13.493 8.69072 13.2279C8.29297 13.3604 8.49189 13.8907 8.49189 14.2222C8.49189 14.5537 8.22686 14.7525 8.22686 15.1502C8.22686 15.548 8.42568 15.6142 8.42568 15.8793C8.42568 16.0258 8.30693 16.1444 8.16064 16.1444C8.01436 16.1444 7.89561 16.0256 7.89561 15.8793C7.89561 15.6143 8.02813 15.6143 8.02813 15.2828C8.02813 14.9512 7.69668 14.885 7.89561 14.5537C7.49785 14.8851 7.69678 15.1502 7.69678 15.3491C7.69619 15.5479 7.36475 15.6141 7.36475 16.1445Z" fill="#F9CF02"/>
<path d="M2.85754 24.5826V36.8715C2.85754 36.9924 2.95559 37.0904 3.07639 37.0904H5.28997C5.41086 37.0904 5.50881 36.9923 5.50881 36.8715V24.5826C5.50881 24.4618 5.41077 24.3638 5.28997 24.3638H3.07639C2.95559 24.3637 2.85754 24.4618 2.85754 24.5826Z" fill="#F9CF02"/>
<path d="M11.8723 24.5826V36.8715C11.8723 36.9924 11.9704 37.0904 12.0912 37.0904H14.3047C14.4256 37.0904 14.5236 36.9923 14.5236 36.8715V24.5826C14.5236 24.4618 14.4255 24.3638 14.3047 24.3638H12.0912C11.9703 24.3637 11.8723 24.4618 11.8723 24.5826Z" fill="#F9CF02"/>
<path d="M6.03931 26.7036V27.3264C6.03931 27.4473 6.13735 27.5453 6.25815 27.5453H11.1231C11.244 27.5453 11.3419 27.4472 11.3419 27.3264V26.7036C11.3419 26.5828 11.2439 26.4848 11.1231 26.4848H6.25815C6.13726 26.4848 6.03931 26.5828 6.03931 26.7036Z" fill="#F9CF02"/>
<path d="M6.03931 34.1276V34.7504C6.03931 34.8713 6.13735 34.9692 6.25815 34.9692H11.1231C11.244 34.9692 11.3419 34.8712 11.3419 34.7504V34.1276C11.3419 34.0067 11.2439 33.9088 11.1231 33.9088H6.25815C6.13726 33.9088 6.03931 34.0067 6.03931 34.1276Z" fill="#F9CF02"/>
<path d="M6.4343 24.3637H10.9468C11.0578 24.3637 11.0983 24.5099 11.0031 24.567L8.85959 25.8533C8.75559 25.9157 8.62561 25.9157 8.5218 25.8533L6.37805 24.567C6.28283 24.5099 6.32336 24.3637 6.4343 24.3637Z" fill="#F9CF02"/>
<path d="M6.43432 35.4996H10.9468C11.0579 35.4996 11.0983 35.6458 11.0032 35.703L8.85942 36.9891C8.75541 37.0515 8.62543 37.0515 8.52163 36.9891L6.37797 35.7029C6.28286 35.6457 6.32338 35.4996 6.43432 35.4996Z" fill="#F9CF02"/>
<path d="M8.94958 28.0963C8.86599 28.0883 8.78503 28.071 8.69939 28.071C7.24128 28.071 6.05505 29.2572 6.05505 30.7153C6.05505 31.5808 6.47781 32.3425 7.12371 32.8231C7.19802 32.8783 7.29626 32.7985 7.26013 32.713C7.18269 32.5295 7.13914 32.3284 7.13914 32.1167C7.13914 31.2549 7.84158 30.554 8.70417 30.5567C9.15759 30.558 9.59226 30.3341 9.79294 29.9275C10.2081 29.0865 9.70154 28.2507 8.94958 28.0963ZM8.69939 29.8427C8.4074 29.8427 8.17048 29.606 8.17048 29.3138C8.17048 29.0218 8.4073 28.785 8.69939 28.785C8.99138 28.785 9.2282 29.0217 9.2282 29.3138C9.2281 29.606 8.99138 29.8427 8.69939 29.8427Z" fill="#F9CF02"/>
<path d="M10.2749 28.6076C10.2006 28.5523 10.1023 28.6323 10.1385 28.7176C10.216 28.9011 10.2595 29.1022 10.2595 29.3138C10.2595 30.1757 9.55694 30.8766 8.69444 30.874C8.24102 30.8726 7.80625 31.0965 7.60567 31.5032C7.19073 32.3442 7.69727 33.1801 8.44922 33.3343C8.53282 33.3423 8.61377 33.3596 8.69942 33.3596C10.1574 33.3596 11.3438 32.1734 11.3438 30.7153C11.3436 29.85 10.9208 29.0882 10.2749 28.6076ZM8.69942 32.6457C8.40743 32.6457 8.17051 32.4089 8.17051 32.1168C8.17051 31.8248 8.40733 31.5879 8.69942 31.5879C8.99141 31.5879 9.22823 31.8247 9.22823 32.1168C9.22813 32.4088 8.99141 32.6457 8.69942 32.6457Z" fill="#F9CF02"/>
</g>
<defs>
<clipPath id="clip0_108_48085">
<rect width="50" height="50" fill="white" transform="translate(0.324219 0.602539)"/>
</clipPath>
</defs>
</svg>
