<svg width="51" height="51" viewBox="0 0 51 51" fill="none" xmlns="http://www.w3.org/2000/svg">
<g clip-path="url(#clip0_108_48041)">
<path d="M49.3169 41.9819H1.04118C0.565112 41.9819 0.179077 41.5959 0.179077 41.1198V10.0854C0.179077 9.6093 0.565112 9.22327 1.04118 9.22327H49.317C49.793 9.22327 50.1791 9.6093 50.1791 10.0854V41.1198C50.179 41.596 49.7929 41.9819 49.3169 41.9819Z" fill="#41479B"/>
<path d="M24.3169 9.22339H22.8195L14.8341 14.4552V9.22339H10.5238V14.4552L2.53845 9.22339H1.04118C0.565112 9.22339 0.179077 9.60932 0.179077 10.0854V10.7692L7.03014 15.2578H0.179077V19.5681H7.03014L0.179077 24.0568V24.7405C0.179077 25.2166 0.565112 25.6027 1.04118 25.6027H2.53864L10.524 20.3708V25.6027H14.8343V20.3708L22.8196 25.6027H24.317C24.7931 25.6027 25.1791 25.2166 25.1791 24.7405V24.0568L18.3281 19.5682H25.179V15.2579H18.328L25.179 10.7693V10.0855C25.179 9.60933 24.793 9.22339 24.3169 9.22339Z" fill="#F5F5F5"/>
<path d="M25.1792 16.12H13.9722V9.22339H11.3861V16.12H0.179199V18.7061H11.3861V25.6027H13.9722V18.7061H25.1792V16.12Z" fill="#FF4B55"/>
<path d="M9.66104 15.2579L0.589184 9.36917C0.347778 9.52191 0.178345 9.77864 0.178345 10.0855V10.1302L8.07765 15.2579H9.66104Z" fill="#FF4B55"/>
<path d="M16.4169 15.258L25.0471 9.65583C24.8971 9.40203 24.6325 9.22351 24.3162 9.22351H24.1298L14.8335 15.258H16.4169Z" fill="#FF4B55"/>
<path d="M8.91649 19.5683L0.302734 25.1597C0.451269 25.4197 0.720019 25.6028 1.04092 25.6028H1.20351L10.5 19.5683H8.91649Z" fill="#FF4B55"/>
<path d="M25.1647 24.8083L17.0918 19.5683H15.5084L24.6758 25.519C24.9504 25.3915 25.1388 25.1244 25.1647 24.8083Z" fill="#FF4B55"/>
<path d="M43.4045 18.8878H31.9524V27.7384H43.4045V18.8878Z" fill="#82AFFF"/>
<path d="M31.9528 27.7382C31.9528 30.757 35.3364 33.2042 37.6791 33.2042C39.7614 33.2042 43.4055 30.7569 43.4055 27.7382H31.9528Z" fill="#C86464"/>
<path d="M39.208 22.1203C39.3924 22.1529 39.707 22.1963 39.7395 22.6409C39.772 23.0856 39.6093 24.6691 39.4467 24.8642C39.4467 24.8642 39.9781 26.0681 39.9998 26.7838C40.0215 27.4996 39.9239 29.6415 39.989 29.9831C40.0541 30.3247 40.2981 31.0243 40.2981 31.0243C40.2981 31.0243 39.5497 30.5851 39.257 30.8616C38.9642 31.1381 37.8905 31.5124 37.4674 31.0731C37.4674 31.0731 37.9717 29.6416 37.9717 28.0148C37.9717 26.3879 37.9717 22.3697 37.9717 22.3697C37.9717 22.3697 38.1832 22.2017 38.4597 22.1962C38.7363 22.1908 39.208 22.1203 39.208 22.1203Z" fill="#73AF00"/>
<path d="M39.3168 30.7207C39.3493 30.9268 39.436 31.0786 39.3927 31.1545C39.3492 31.2305 39.0674 31.9245 39.23 31.9245C39.3926 31.9245 39.6746 31.8378 39.7506 31.6859C39.8265 31.5341 39.859 31.3063 39.9024 31.2413C39.9459 31.1763 39.8265 30.8509 39.7289 30.7967C39.6314 30.7424 39.3168 30.7207 39.3168 30.7207Z" fill="#FFF5E1"/>
<path d="M37.4403 22.5758L36.8438 22.6518C36.8438 22.6518 36.9197 22.2614 36.9305 21.9902C36.9414 21.7191 36.963 21.2202 36.963 21.2202C36.963 21.2202 37.386 20.9599 37.3968 20.9164C37.4022 20.8948 37.4524 20.7592 37.4131 20.6887C37.3739 20.6182 37.2451 20.6127 37.2451 20.6127C37.2451 20.6127 36.7461 20.873 36.7461 20.9164C36.7461 20.9599 36.7461 21.2202 36.6919 21.3177C36.6377 21.4154 36.334 22.2287 36.3124 22.4456C36.2907 22.6625 36.2582 23.1181 36.3449 23.1398C36.4316 23.1615 37.3318 23.2591 37.4294 23.2157C37.527 23.1723 37.4403 22.5758 37.4403 22.5758Z" fill="#FFF5E1"/>
<path d="M40.1428 20.4338H37.9718V19.4089H37.2236V20.4338H35.0526V21.1821H37.2236V31.0244H37.9718V21.1821H40.1428V20.4338Z" fill="#464655"/>
<path d="M38.861 21.7623C38.861 21.7623 39.5877 21.9716 39.6852 21.7298C39.7991 21.4478 39.4195 21.4099 39.349 21.1117C39.3411 21.0783 39.2731 20.6779 38.9803 20.602C38.6875 20.526 38.4163 20.602 38.4055 20.7972C38.3947 20.9924 38.861 21.7623 38.861 21.7623Z" fill="#963C3C"/>
<path d="M38.4707 22.6842C38.4492 22.6877 38.4165 22.4673 38.4599 22.1961C38.5033 21.925 38.4599 21.8382 38.4599 21.8382C38.4599 21.8382 38.1562 21.8707 38.1562 21.7515C38.1562 21.6322 38.2213 21.079 38.4057 20.7971C38.4057 20.7971 38.5358 20.9598 38.7744 20.9598C38.7744 20.9598 38.7636 21.155 38.8937 21.2851C38.8937 21.2851 38.7311 21.426 38.807 21.5236C38.883 21.6213 39.0239 21.7405 39.0239 21.7405C39.0239 21.7405 39.0348 21.9684 39.2083 22.1201C39.2082 22.1203 38.9913 22.5975 38.4707 22.6842Z" fill="#FFF5E1"/>
<path d="M35.564 27.3918H35.4988V28.6823H35.564V27.3918Z" fill="#464655"/>
<path d="M35.8266 27.1418H35.7614V28.9321H35.8266V27.1418Z" fill="#464655"/>
<path d="M36.0873 26.9133H36.0221V29.1603H36.0873V26.9133Z" fill="#464655"/>
<path d="M36.3493 26.5862H36.2841V29.4854H36.3493V26.5862Z" fill="#464655"/>
<path d="M36.6109 26.1594H36.5457V29.9117H36.6109V26.1594Z" fill="#464655"/>
<path d="M36.8727 26.1594H36.8075V30.0871H36.8727V26.1594Z" fill="#464655"/>
<path d="M37.9825 28.2153C37.695 26.7197 36.898 25.851 36.616 25.8077C36.334 25.7644 36.1281 25.9921 36.1064 26.1548C36.0847 26.3175 35.9328 26.8056 35.6183 27.0332C35.3037 27.261 34.7181 27.3911 34.588 27.8141C34.4578 28.237 34.8049 28.4214 35.011 28.3779C35.0264 28.3747 35.0415 28.3687 35.057 28.3636L37.2741 31.0908C37.3545 31.1898 37.5114 31.1737 37.5675 31.0589C37.7953 30.5933 38.2279 29.4905 37.9825 28.2153ZM35.2431 28.2456C35.33 28.1522 35.3667 28.0236 35.2713 27.89C35.1086 27.6622 34.9243 27.9877 34.9243 27.9877C34.9243 27.9877 34.8701 27.7057 35.293 27.5647C35.716 27.4238 36.1932 27.1853 36.4101 26.6754C36.627 26.1657 36.6161 26.2632 36.6161 26.2632C36.6161 26.2632 37.4838 26.7513 37.6031 28.2805C37.7224 29.8097 37.2994 30.4279 37.2994 30.4279L35.2431 28.2456Z" fill="#FFE15A"/>
<path d="M37.2229 24.9433C37.1233 25.007 37.0335 25.0619 36.9707 25.0946C36.7674 25.2002 36.5233 25.3061 36.499 25.4037C36.4746 25.5013 36.3363 25.5827 36.3445 25.6964C36.3527 25.8103 36.3445 26.1519 36.3445 26.1519C36.4664 26.1276 36.7105 26.0868 36.7919 25.9404C36.8733 25.7939 36.9464 25.5092 37.2068 25.3872C37.2114 25.3851 37.2182 25.3828 37.2231 25.3807V24.9433H37.2229Z" fill="#FFF5E1"/>
<path d="M39.3783 22.8659C39.2564 22.9228 38.8904 23.3621 38.8334 23.5655C38.7765 23.7688 38.5976 24.2488 38.5976 24.2488C38.5976 24.2488 38.228 24.297 37.9713 24.4407V25.151C38.1136 25.1098 38.2394 25.0692 38.3129 25.0297C38.5244 24.9159 38.8253 24.7044 38.9799 24.6637C39.1344 24.6231 39.2646 24.3627 39.3215 24.2082C39.3784 24.0538 39.5573 23.5982 39.5818 23.2891C39.6062 22.9797 39.5003 22.8089 39.3783 22.8659Z" fill="#FFF5E1"/>
<path d="M37.6791 33.3889L37.6507 33.3844C31.8373 32.4665 31.7705 27.4315 31.7705 27.2178V18.7062H43.5878V27.2177C43.5878 27.4315 43.521 32.4664 37.7076 33.3843L37.6791 33.3889ZM32.1351 19.0706V27.2176C32.1351 27.4185 32.1979 32.1382 37.6791 33.0197C43.1603 32.1382 43.2231 27.4185 43.2231 27.2176V19.0706H32.1351Z" fill="#F5F5F5"/>
</g>
<defs>
<clipPath id="clip0_108_48041">
<rect width="50" height="50" fill="white" transform="translate(0.179688 0.602539)"/>
</clipPath>
</defs>
</svg>
