<svg width="51" height="51" viewBox="0 0 51 51" fill="none" xmlns="http://www.w3.org/2000/svg">
<g clip-path="url(#clip0_108_48071)">
<path d="M49.028 10.9473H2.47632V40.2578H49.028V10.9473Z" fill="#C8414B"/>
<path d="M49.89 9.22327H1.61431C1.13823 9.22327 0.752197 9.6092 0.752197 10.0853V41.1197C0.752197 41.5958 1.13823 41.9818 1.61431 41.9818H49.8901C50.3662 41.9818 50.7522 41.5958 50.7522 41.1197V10.0853C50.7521 9.6092 50.3661 9.22327 49.89 9.22327ZM49.028 40.2577H2.47632V10.9474H49.028V40.2577Z" fill="#E6B432"/>
<path d="M32.8255 32.3216C33.55 32.3216 34.1373 31.7342 34.1373 31.0097C34.1373 30.2853 33.55 29.6979 32.8255 29.6979C32.101 29.6979 31.5137 30.2853 31.5137 31.0097C31.5137 31.7342 32.101 32.3216 32.8255 32.3216Z" fill="#41479B"/>
<path d="M35.1274 23.4777C34.162 24.2894 33.5127 24.3235 33.5127 24.3235C35.23 23.623 35.0506 22.2901 35.0506 22.2901C34.2389 23.3581 33.4101 23.6571 33.4101 23.6571C35.136 22.4866 34.8626 20.9146 34.8626 20.9146C34.2987 22.162 33.5853 22.6489 33.5853 22.6489C35.0207 20.7394 34.3158 19.5091 34.3158 19.5091C33.7519 21.2776 33.2777 21.7903 33.2777 21.7903C34.3799 18.8427 33.4358 17.9926 33.4358 17.9926C33.4358 19.5732 32.8463 20.4788 32.8463 20.4788C33.4615 18.3942 32.496 17.198 32.496 17.198C32.496 17.198 32.4869 18.8976 32.1595 19.7878C32.081 19.6685 32.0345 19.6843 32.0345 19.6843C31.8681 20.776 31.2814 21.5445 31.0281 21.8337C30.9719 21.5616 30.8027 21.4783 30.8027 21.4783C30.8027 21.4783 30.7722 21.7454 30.5326 22.1394C30.3756 22.3975 29.6338 22.9993 29.5141 23.529C29.4182 23.9537 29.8388 24.3065 29.9755 24.3919C30.1122 24.4773 30.2574 24.6312 30.1975 24.8788C30.1378 25.1266 29.6934 25.1009 29.3773 25.0924C29.0612 25.0839 29.0185 25.605 28.6681 25.588L28.6088 25.9767L28.4716 26.0066C28.4716 26.0066 27.0362 28.8669 26.914 29.8401L25.8571 29.9795L24.8002 29.8401C24.678 28.8669 23.2427 26.0066 23.2427 26.0066L23.1055 25.9767L23.0461 25.588C22.6958 25.6051 22.6531 25.0839 22.3369 25.0924C22.0207 25.1009 21.5765 25.1266 21.5167 24.8788C21.4569 24.6311 21.6021 24.4772 21.7388 24.3919C21.8755 24.3065 22.2961 23.9536 22.2001 23.529C22.0805 22.9992 21.3387 22.3975 21.1816 22.1394C20.942 21.7455 20.9115 21.4783 20.9115 21.4783C20.9115 21.4783 20.7424 21.5616 20.6861 21.8337C20.4329 21.5443 19.8462 20.776 19.6798 19.6843C19.6798 19.6843 19.6333 19.6686 19.5548 19.7878C19.2274 18.8975 19.2184 17.198 19.2184 17.198C19.2184 17.198 18.2529 18.3941 18.8681 20.4788C18.8681 20.4788 18.2785 19.5733 18.2785 17.9926C18.2785 17.9926 17.3345 18.8427 18.4366 21.7903C18.4366 21.7903 17.9625 21.2777 17.3985 19.5091C17.3985 19.5091 16.6937 20.7394 18.129 22.6489C18.129 22.6489 17.4156 22.162 16.8518 20.9146C16.8518 20.9146 16.5784 22.4866 18.3042 23.6571C18.3042 23.6571 17.4754 23.3581 16.6638 22.2901C16.6638 22.2901 16.4844 23.6231 18.2017 24.3235C18.2017 24.3235 17.5523 24.2894 16.5869 23.4777C16.5869 23.4777 16.416 24.6568 18.6545 25.2634C18.6545 25.2634 17.7402 25.2463 16.809 24.6226C16.809 24.6226 16.7833 25.7845 18.6972 26.0152C18.6972 26.0152 18.0649 26.1092 17.3558 25.8529C17.3558 25.8529 17.3814 26.7927 19.0475 26.9123C19.0475 26.9123 18.3895 26.9636 17.9624 26.861C17.9624 26.861 18.0051 27.8265 19.3209 27.6642C19.3209 27.6642 18.8766 27.8094 18.7313 27.852C18.7313 27.852 18.757 28.6402 20.1282 28.3583C20.1282 28.3583 19.8847 28.51 19.5515 28.5612C19.5515 28.5612 19.8334 29.2191 20.9783 28.9286L20.7434 29.185C20.7434 29.185 21.6276 29.6976 22.3068 28.9927L22.0633 29.4284C22.0633 29.4284 22.64 29.6463 22.9988 29.0824C22.9988 29.0824 22.9006 29.9282 21.7044 30.0821C21.7044 30.0821 21.7471 30.2615 21.7983 30.3299C21.7983 30.3299 21.7214 30.4751 21.0294 30.5947C21.0294 30.5947 21.1746 30.8168 21.3284 30.8852C21.3284 30.8852 21.0294 31.1416 20.8671 31.1928C20.8671 31.1928 21.1234 31.3209 21.2857 31.3466C21.2857 31.3466 20.9269 31.6969 20.4826 31.7054C20.0383 31.7139 19.2438 31.6626 19.2438 31.6626C19.2438 31.6626 19.2353 31.2354 19.0303 30.868C18.8252 30.5006 18.7569 30.4728 18.7569 30.4728C18.7569 30.4728 18.8018 30.1781 18.6736 30.0563C18.5455 29.9346 18.475 29.8769 18.475 29.8769C18.475 29.8769 18.5434 29.2874 18.3554 28.92C18.1675 28.5526 17.501 27.7495 17.4668 27.1515C17.4326 26.5534 17.4583 26.3313 17.4583 26.3313L17.2532 26.3825L17.1165 26.1006L17.3472 26.0749L17.2532 25.6478L16.937 25.7674L16.8942 25.4L16.5184 25.5538L16.7062 25.887L16.373 25.981L16.5696 26.3739L16.826 26.2116L16.8943 26.5533C16.8943 26.5533 16.7405 26.5875 16.6551 26.7242C16.6551 26.7242 17.0778 27.0048 17.2019 27.3395C17.3984 27.8692 17.3386 29.0653 17.6205 29.4241C17.9024 29.7829 18.1246 30.0307 18.1246 30.0307C18.1246 30.0307 18.0456 30.2742 18.1353 30.4087C18.225 30.5433 18.3531 30.5817 18.3531 30.5817C18.3531 30.5817 18.2762 31.1265 18.4749 31.4852C18.6735 31.844 18.7889 31.9339 18.7889 31.9339C18.7889 31.9339 18.0647 32.376 18.5774 32.8887C18.5774 32.8887 18.5091 33.3543 18.9961 33.4654C18.9961 33.4654 19.0218 33.8328 19.4404 33.7901C19.4404 33.7901 19.6455 33.7304 19.6968 33.8329C19.748 33.9353 19.6968 34.5249 19.6968 34.5249C19.6968 34.5249 19.8847 34.5078 20.0043 34.4224L20.3802 34.6103L20.3887 34.1917L20.8586 34.0038C20.8586 34.0038 20.6535 34.038 20.2349 33.645C20.2349 33.645 20.3032 33.6022 20.3545 33.269C20.3545 33.269 20.6877 33.0042 20.7561 32.7906C20.8245 32.577 21.2944 32.1071 21.8412 31.9533L21.916 32.2865C21.916 32.2865 22.6978 31.5945 23.0245 31.556L23.2936 31.9105C23.2936 31.9105 24.3018 30.4154 24.7461 30.1505C24.7119 30.2701 24.9597 30.2872 24.4086 30.9023C23.8575 31.5176 24.1992 32.0045 24.1992 32.0045C23.8575 32.2864 23.9259 32.5428 23.883 32.8333C23.8403 33.1238 22.7039 33.8757 22.7039 33.8757C23.0627 34.3285 23.4643 34.226 23.4643 34.226C23.2422 34.3712 23.3105 34.8582 23.3105 34.8582C23.6352 34.9436 23.9599 34.7984 23.9599 34.7984C23.8487 35.1059 24.0196 35.3195 24.0196 35.3195C24.2247 35.1914 24.6946 35.1144 24.6946 35.1144C24.6349 35.6442 24.9765 35.9261 24.9765 35.9261L25.2756 35.6014C25.3268 36.1994 25.8566 36.5412 25.8566 36.5412C25.8566 36.5412 26.3864 36.1994 26.4377 35.6014L26.7367 35.9261C26.7367 35.9261 27.0785 35.6441 27.0186 35.1144C27.0186 35.1144 27.4886 35.1914 27.6936 35.3195C27.6936 35.3195 27.8645 35.1059 27.7534 34.7984C27.7534 34.7984 28.0781 34.9436 28.4027 34.8582C28.4027 34.8582 28.4711 34.3712 28.2489 34.226C28.2489 34.226 28.6506 34.3284 29.0094 33.8757C29.0094 33.8757 27.873 33.1238 27.8303 32.8333C27.7876 32.5428 27.8559 32.2865 27.514 32.0045C27.514 32.0045 27.8557 31.5175 27.3047 30.9023C26.7536 30.2871 27.0013 30.27 26.9672 30.1505C27.4115 30.4153 28.4196 31.9105 28.4196 31.9105L28.6888 31.556C29.0156 31.5945 29.7972 32.2865 29.7972 32.2865L29.872 31.9533L29.8862 31.9379C30.2938 32.1574 30.9671 32.4543 31.2391 32.6623C31.5297 32.8845 31.7689 32.9016 32.4694 32.6623C33.1701 32.423 34.4735 32.0552 34.2807 31.6199C34.2702 31.5962 34.2583 31.5803 34.2467 31.5617C34.2773 31.4493 34.2899 31.2531 34.0842 31.0816C34.0842 31.0816 34.0866 31.1294 34.0849 31.1907L33.4171 30.9418C33.395 30.8827 33.362 30.8248 33.2982 30.7741C33.2982 30.7741 33.2992 30.8254 33.29 30.8945L33.1187 30.8307L33.4606 29.8688C33.4347 29.8544 33.4056 29.8463 33.3788 29.8336C33.3857 29.7465 33.4021 29.6261 33.4276 29.5002C33.5111 29.5294 33.5874 29.5654 33.6427 29.6106L33.7391 29.2585C33.7391 29.2585 33.6353 29.2517 33.4985 29.2261C33.5331 29.1198 33.5741 29.0244 33.6228 28.9628L33.17 28.8261C33.17 28.8261 33.1817 28.9633 33.1737 29.1345C33.0873 29.0994 33.0049 29.0549 32.9383 28.9978L32.8321 29.3887C32.8685 29.3908 32.9922 29.4015 33.1354 29.427C33.1095 29.5418 33.0639 29.6435 32.9986 29.7199C32.9825 29.7178 32.9676 29.7119 32.9511 29.7103L32.6191 30.6444L31.7187 30.3089C31.6802 30.3696 31.6504 30.4358 31.6225 30.5028C31.6273 30.4931 31.6316 30.4778 31.6367 30.4717C31.6367 30.4717 31.2884 30.6539 31.2931 30.9216C31.229 30.9459 31.1727 30.994 31.141 31.0775C31.0386 31.3467 31.6664 31.949 31.5127 32.0259C31.3617 32.1013 30.5729 31.4517 30.4465 31.3426C30.6091 31.311 30.8463 31.1929 30.8463 31.1929C30.6839 31.1416 30.3849 30.8853 30.3849 30.8853C30.5387 30.817 30.684 30.5948 30.684 30.5948C29.992 30.4752 29.915 30.33 29.915 30.33C29.9663 30.2616 30.009 30.0822 30.009 30.0822C28.8129 29.9284 28.7145 29.0825 28.7145 29.0825C29.0733 29.6464 29.6501 29.4285 29.6501 29.4285L29.4065 28.9928C30.0857 29.6977 30.97 29.1851 30.97 29.1851L30.735 28.9287C31.8799 29.2192 32.1619 28.5613 32.1619 28.5613C31.8287 28.5101 31.5851 28.3584 31.5851 28.3584C32.9564 28.6403 32.982 27.8521 32.982 27.8521C32.8368 27.8094 32.3925 27.6643 32.3925 27.6643C33.7082 27.8267 33.7509 26.8611 33.7509 26.8611C33.3238 26.9636 32.6659 26.9124 32.6659 26.9124C34.3319 26.7928 34.3576 25.853 34.3576 25.853C33.6484 26.1094 33.0162 26.0153 33.0162 26.0153C34.93 25.7847 34.9044 24.6227 34.9044 24.6227C33.9731 25.2464 33.0589 25.2635 33.0589 25.2635C35.2983 24.6567 35.1274 23.4777 35.1274 23.4777ZM33.1858 31.9297C33.0945 31.7814 33.3121 31.6488 33.41 31.5077L33.7887 31.6487C33.6601 31.8021 33.28 32.0825 33.1858 31.9297ZM32.9328 31.3299C32.8099 31.5202 32.7245 31.7337 32.3464 31.7438C31.8722 31.7566 31.7953 31.3337 31.6928 31.103C31.663 31.0357 31.6114 30.985 31.5522 30.9501C31.552 30.9087 31.5542 30.8633 31.5578 30.8174L32.9328 31.3299Z" fill="#E6B432"/>
<path d="M25.7172 22.3031C25.7172 22.3031 25.1086 21.784 24.9291 21.5021C24.9291 21.5021 25.1341 21.4188 25.2366 21.2907C25.2366 21.2907 24.6855 20.996 24.3908 20.6948C24.3908 20.6948 24.5831 20.6627 24.7304 20.541C24.7304 20.541 24.2355 20.4515 23.9845 20.0462C24.5567 19.8508 24.3652 19.317 24.3652 19.317C24.2499 19.4709 23.7757 19.663 23.2631 19.4452C22.7505 19.2273 22.1866 19.381 22.1866 19.663C22.1866 19.663 21.0332 19.3298 21.3216 20.4449C21.3216 20.4449 21.5073 20.0284 21.9175 20.1822C22.3276 20.336 22.7441 20.8614 22.7441 20.8614C22.7441 20.8614 22.4878 21.0023 22.0136 20.8486C22.0136 20.8486 22.2059 21.5854 23.071 21.2138C23.071 21.2138 23.4127 21.3975 23.4298 21.9358C23.4298 21.9358 23.575 21.8588 23.669 21.688C23.669 21.688 23.8057 22.2091 23.6263 22.6364C23.6263 22.6364 23.8656 22.5937 23.9425 22.5167C23.9425 22.5167 24.0109 22.9696 23.7119 23.337C23.7119 23.337 25.0255 23.9628 25.8586 23.2772C25.8586 23.2772 25.5446 22.9184 25.4421 22.5852C25.4417 22.585 25.6146 22.5145 25.7172 22.3031Z" fill="#E6B432"/>
<path d="M29.53 19.663C29.53 19.3811 28.9661 19.2273 28.4535 19.4452C27.9409 19.663 27.4667 19.4709 27.3514 19.317C27.3514 19.317 27.1598 19.8508 27.732 20.0462C27.4811 20.4515 26.9861 20.541 26.9861 20.541C27.1336 20.6627 27.3258 20.6948 27.3258 20.6948C27.0311 20.996 26.48 21.2907 26.48 21.2907C26.5824 21.4188 26.7875 21.5021 26.7875 21.5021C26.6081 21.784 25.9993 22.3031 25.9993 22.3031C26.1018 22.5145 26.2749 22.585 26.2749 22.585C26.1725 22.9182 25.8584 23.277 25.8584 23.277C26.6914 23.9626 28.0051 23.3368 28.0051 23.3368C27.7061 22.9694 27.7744 22.5166 27.7744 22.5166C27.8514 22.5935 28.0906 22.6362 28.0906 22.6362C27.9112 22.209 28.0479 21.6878 28.0479 21.6878C28.1419 21.8587 28.2872 21.9356 28.2872 21.9356C28.3043 21.3973 28.646 21.2136 28.646 21.2136C29.511 21.5853 29.7033 20.8484 29.7033 20.8484C29.2292 21.0022 28.9728 20.8612 28.9728 20.8612C28.9728 20.8612 29.3893 20.3358 29.7995 20.182C30.2097 20.0282 30.3954 20.4447 30.3954 20.4447C30.6833 19.3298 29.53 19.663 29.53 19.663Z" fill="#E6B432"/>
<path d="M29.0078 26.4702C28.8953 25.8154 28.7984 25.2497 29.0809 24.6017L29.1336 24.4807L28.0148 23.1959L27.8825 23.24C27.8711 23.2439 26.7017 23.6262 25.952 23.2512L25.8584 23.2044L25.7649 23.2512C25.0187 23.6251 23.8461 23.2439 23.834 23.2398L23.7018 23.1961L22.5831 24.4807L22.6359 24.6017C22.9184 25.2497 22.8214 25.8154 22.7089 26.4702C22.603 27.0886 22.4827 27.7896 22.6943 28.6443C22.9238 29.5723 23.697 29.9021 24.3788 30.1935C24.9045 30.4178 25.4009 30.6297 25.6816 31.0745L25.8583 31.3548L26.0351 31.0745C26.3157 30.6297 26.8121 30.4179 27.3378 30.1935C28.0198 29.9022 28.7928 29.5724 29.0224 28.6443C29.234 27.7895 29.1137 27.0885 29.0078 26.4702ZM23.0697 24.5585L23.8375 23.677C24.1854 23.7726 25.1256 23.9794 25.8583 23.6684C26.5909 23.9795 27.5312 23.7725 27.8791 23.677L28.647 24.5585C28.3774 25.2687 28.4835 25.8877 28.5956 26.5409C28.6795 27.0304 28.763 27.5346 28.6929 28.1152H23.0238C22.9537 27.5346 23.0372 27.0304 23.121 26.5409C23.2331 25.8877 23.3393 25.2686 23.0697 24.5585ZM27.1737 29.8089C26.6986 30.0118 26.2096 30.2204 25.8583 30.6164C25.5071 30.2204 25.0181 30.0118 24.5429 29.8089C23.8761 29.5242 23.3008 29.2754 23.1111 28.5767H28.6054C28.4158 29.2754 27.8405 29.5243 27.1737 29.8089Z" fill="#E6B432"/>
<path d="M23.0688 24.5584L23.8366 23.6769C24.1845 23.7725 25.1247 23.9793 25.8574 23.6683C26.5901 23.9794 27.5303 23.7724 27.8782 23.6769L28.6461 24.5584C28.3765 25.2686 28.4826 25.8876 28.5947 26.5409C28.6786 27.0303 28.7621 27.5345 28.692 28.1152H23.0229C22.9529 27.5345 23.0364 27.0303 23.1201 26.5409C23.2323 25.8876 23.3384 25.2685 23.0688 24.5584Z" fill="#41479B"/>
<path d="M23.0808 28.4546C23.0874 28.4846 23.0916 28.5134 23.0992 28.5438C23.2788 29.2695 23.8642 29.5194 24.5421 29.8088C25.0173 30.0117 25.5063 30.2203 25.8576 30.6163C26.2088 30.2203 26.6978 30.0117 27.173 29.8088C27.8509 29.5193 28.4364 29.2694 28.616 28.5438C28.6235 28.5135 28.6277 28.4846 28.6343 28.4546H23.0808Z" fill="#73AF00"/>
<path d="M28.365 26.0314C28.365 25.6533 28.0058 25.5938 27.6792 25.6002C27.3525 25.6068 26.8748 25.5471 26.8627 25.2932C26.8552 25.1349 27.1208 25.1201 27.2938 25.1756C27.3942 25.2078 28.0188 25.3194 28.2148 24.9013C28.2148 24.9013 27.9864 24.9086 27.7453 24.8545C27.5596 24.8128 26.7974 24.9077 26.6601 25.2017C26.5229 25.4956 26.9653 25.789 27.4748 25.789C27.9843 25.789 28.0542 25.8909 28.0502 26.0152C28.0449 26.1784 27.6409 26.2246 27.4087 26.2225C27.0432 26.0898 26.1902 26.1937 26.1861 26.1776C26.1812 26.1578 25.9894 25.8284 25.9894 25.8284C25.9894 25.8284 26.3386 25.8038 26.3828 25.7399C26.427 25.676 26.1179 25.4304 26.1179 25.4304C26.1179 25.4304 26.3779 25.3267 26.3878 25.253C26.3985 25.1718 26.1767 24.9797 26.1767 24.9797C26.1767 24.9797 26.2624 24.8952 26.3268 24.751C26.3729 24.648 26.0068 24.6204 26.0068 24.6204C26.0265 24.5421 26.0189 24.466 25.9219 24.431C25.8469 24.4039 25.5691 24.5093 25.3798 24.5093C25.1904 24.5093 25.1185 24.6465 25.1185 24.6465C25.1185 24.6465 24.7853 24.6858 24.7395 24.7248C24.6938 24.7641 24.7526 25.0188 24.7526 25.0188C24.5828 24.9927 24.5045 24.8424 24.5045 24.8424C24.4195 25.2278 24.8181 25.267 24.8181 25.267L24.8834 25.4761C24.8834 25.4761 24.8834 25.4761 25.0467 25.4957C25.21 25.5154 25.1316 25.6721 24.8769 25.6721C24.6221 25.6721 24.514 25.976 24.514 25.976C24.3369 25.981 24.2386 25.8383 24.1992 25.6563C24.1559 25.456 24.1814 25.1482 24.214 24.9531C24.2533 24.7169 24.1353 24.6481 24.1353 24.6481L24.0565 24.8449C24.0517 24.6432 23.8745 24.6236 23.8745 24.6236L23.845 24.8695C23.7564 24.7072 23.6041 24.7809 23.6041 24.7809C23.6041 24.7809 23.7517 25.312 23.7468 25.3415C23.7418 25.371 23.6927 25.3956 23.6238 25.3218C23.555 25.248 23.5059 25.2972 23.5059 25.2972C23.5797 25.8283 23.8645 25.7504 23.8645 25.7504C23.8645 25.7504 23.8771 25.9168 23.9632 26.2546C24.055 26.6153 24.4327 26.5474 24.4327 26.5474C24.4327 26.665 24.5242 26.8348 24.5503 27.2267C24.5764 27.6186 24.2172 27.893 24.2172 27.893C23.8905 27.8864 23.9232 28.2066 23.9232 28.2066H24.8246C24.8246 27.3731 25.1829 27.2302 25.1829 27.2302C25.7141 27.2548 26.2256 27.0334 26.2256 27.0334C26.1469 27.3531 26.2847 27.4859 26.2847 27.4859C26.5011 27.4564 26.3929 27.8842 26.3289 27.8842C26.265 27.8842 26.1321 27.8842 26.0535 27.8842C25.9749 27.8842 25.7485 28.1301 25.7485 28.1301H26.683C26.683 28.1301 26.8257 27.9236 26.8748 27.8203C26.9239 27.717 26.7666 27.5744 26.7568 27.4662C26.7471 27.358 26.9191 27.2892 26.9191 27.2892C27.1012 27.5448 27.5191 27.5597 27.5191 27.5597L27.5094 27.3679C27.5094 27.3679 27.7258 27.4417 27.775 27.5056C27.8241 27.5695 27.8143 27.8647 27.5537 27.899C27.2931 27.9334 27.2733 28.1203 27.2733 28.1203C27.2733 28.1203 27.8684 28.1203 27.9865 28.1203C28.1046 28.1203 28.1979 27.899 28.1979 27.8154C28.1979 27.7318 28.1979 27.1859 28.1979 27.0677C28.1979 26.9497 28.0996 26.9645 27.8684 26.9398C27.6585 26.9175 27.6786 26.6877 27.5921 26.421C27.8956 26.4109 28.365 26.3445 28.365 26.0314Z" fill="#E6B432"/>
<path d="M28.3103 17.094C28.2519 16.5782 27.8407 15.9215 26.2748 15.6137C26.2696 15.4473 26.1673 15.3063 26.0209 15.2469V14.9595H26.2772V14.652H26.0209V14.3957H25.7134V14.6521H25.457V14.9596H25.7134V15.247C25.5672 15.3064 25.4647 15.4474 25.4595 15.6138C23.8936 15.9217 23.4824 16.5783 23.4239 17.0941C23.351 17.7371 23.8115 18.3469 24.2268 18.5806V18.9068H27.5076V18.5806C27.9228 18.3469 28.3832 17.737 28.3103 17.094ZM26.5928 18.0866H26.1336V16.1951C26.5121 16.3661 26.7463 16.6283 26.8145 16.9885C26.8993 17.4369 26.72 17.8942 26.5928 18.0866ZM24.9197 16.9882C24.9879 16.628 25.222 16.3659 25.6006 16.195V18.0865H25.1413C25.0139 17.8942 24.8347 17.4367 24.9197 16.9882ZM24.5401 16.4689C24.4648 16.6199 24.4166 16.771 24.3921 16.9098C24.3179 17.3299 24.4029 17.7568 24.5436 18.0866H24.4358C24.2058 17.9282 23.9102 17.5386 23.9538 17.1541C23.9842 16.8851 24.1882 16.6543 24.5401 16.4689ZM27.2984 18.0866H27.1904C27.3311 17.757 27.4162 17.3301 27.3421 16.91C27.3175 16.7712 27.2694 16.6199 27.1939 16.4688C27.546 16.6542 27.75 16.8852 27.7804 17.154C27.824 17.5386 27.5284 17.9282 27.2984 18.0866Z" fill="#E6B432"/>
</g>
<defs>
<clipPath id="clip0_108_48071">
<rect width="50" height="50" fill="white" transform="translate(0.751953 0.602539)"/>
</clipPath>
</defs>
</svg>
