<svg width="51" height="51" viewBox="0 0 51 51" fill="none" xmlns="http://www.w3.org/2000/svg">
<g clip-path="url(#clip0_108_48019)">
<path d="M50.0385 20.1429H0.0385742V10.0854C0.0385742 9.6093 0.424609 9.22327 0.900682 9.22327H49.1765C49.6525 9.22327 50.0386 9.6093 50.0386 10.0854L50.0385 20.1429Z" fill="#5AA587"/>
<path d="M49.1764 41.9819H0.900682C0.424609 41.9819 0.0385742 41.5959 0.0385742 41.1198V31.0624H50.0385V41.1198C50.0385 41.596 49.6524 41.9819 49.1764 41.9819Z" fill="#FFE15A"/>
<path d="M50.0385 20.1427H0.0385742V31.0617H50.0385V20.1427Z" fill="#464655"/>
<path d="M50.0385 19.1729H0.0385742V20.5345H50.0385V19.1729Z" fill="#F5F5F5"/>
<path d="M50.038 30.67H0.0380859V32.0315H50.038V30.67Z" fill="#F5F5F5"/>
<path d="M0.356542 41.7735L20.1652 26.0494C20.4529 25.8211 20.4529 25.3842 20.1652 25.1558L0.356542 9.43176C0.166601 9.58987 0.0385742 9.81897 0.0385742 10.0854V41.1198C0.0385742 41.3863 0.166601 41.6154 0.356542 41.7735Z" fill="#FF4B55"/>
<path d="M8.02833 19.995L9.28858 23.7738L13.2719 23.8047C13.4946 23.8065 13.5869 24.0907 13.4077 24.2231L10.2033 26.5894L11.4048 30.3873C11.4719 30.5997 11.2302 30.7754 11.0489 30.6458L7.80821 28.3294L4.56749 30.6458C4.38625 30.7753 4.14445 30.5997 4.21164 30.3873L5.4131 26.5894L2.20881 24.2231C2.02961 24.0907 2.12199 23.8065 2.34465 23.8047L6.32794 23.7738L7.58819 19.995C7.6589 19.7836 7.95782 19.7836 8.02833 19.995Z" fill="#FFE15A"/>
<path d="M7.57719 27.0134L7.26567 27.3269H4.6604L5.37143 24.7178L5.66196 24.5726L5.19556 26.8988C5.19165 26.9275 5.19751 26.9561 5.21655 26.979C5.23384 27.002 5.2605 27.0134 5.28921 27.0134H7.57719Z" fill="#F5F5F5"/>
<path d="M8.20242 27.4474C8.08962 27.5315 7.95203 27.5793 7.80867 27.5793C7.66531 27.5793 7.52771 27.5315 7.41492 27.4474L7.80867 27.0536L8.20242 27.4474Z" fill="#F5F5F5"/>
<path d="M10.9567 27.327H8.35144L8.03992 27.0135H10.3278C10.3565 27.0135 10.3832 27.0021 10.4005 26.9791C10.4195 26.9562 10.4254 26.9275 10.4215 26.8989L9.95505 24.5727L10.2456 24.7179L10.9567 27.327Z" fill="#F5F5F5"/>
<path d="M10.2109 26.8224H7.90381V24.4426C8.28994 24.1157 9.30869 24.3394 9.74062 24.4732L10.2109 26.8224Z" fill="#F5F5F5"/>
<path d="M7.71303 24.4426V26.8224H5.40601L5.87622 24.4733C6.30825 24.3394 7.327 24.1159 7.71303 24.4426Z" fill="#F5F5F5"/>
<path d="M11.1752 27.3978L10.4201 24.6262C10.4125 24.6013 10.3953 24.5784 10.3704 24.5669L9.86578 24.3147C9.86383 24.3127 9.86188 24.3127 9.85816 24.3127C9.85621 24.3127 9.85621 24.3108 9.85436 24.3088C9.79313 24.2878 8.39596 23.8328 7.80915 24.2782C7.22233 23.8328 5.82507 24.2878 5.76393 24.3088C5.76198 24.3108 5.76198 24.3108 5.76013 24.3127C5.75622 24.3127 5.75446 24.3127 5.75251 24.3147L5.24792 24.5669C5.22302 24.5783 5.20593 24.6013 5.19821 24.6262L4.44314 27.3978C4.43552 27.4265 4.44118 27.457 4.45847 27.48C4.47751 27.5029 4.50622 27.5183 4.53493 27.5183H7.2109C7.3695 27.6769 7.58366 27.7705 7.80915 27.7705C8.03473 27.7705 8.24879 27.6769 8.40739 27.5183H11.0834C11.1121 27.5183 11.1407 27.5029 11.1598 27.48C11.177 27.457 11.1828 27.4265 11.1752 27.3978ZM7.90465 24.4427C8.29079 24.1158 9.30953 24.3395 9.74147 24.4733L10.2117 26.8224H7.90465C7.90465 26.8225 7.90465 24.4427 7.90465 24.4427ZM5.87663 24.4734C6.30866 24.3396 7.32741 24.1159 7.71344 24.4428V26.8226H5.40642L5.87663 24.4734ZM4.66101 27.3271L5.37204 24.718L5.66257 24.5728L5.19616 26.8989C5.19226 26.9276 5.19811 26.9563 5.21716 26.9792C5.23444 27.0022 5.2611 27.0136 5.28981 27.0136H7.5777L7.26618 27.3271H4.66101ZM7.80905 27.5794C7.66569 27.5794 7.52809 27.5316 7.4153 27.4475L7.80905 27.0537L8.2028 27.4475C8.0901 27.5315 7.9525 27.5794 7.80905 27.5794ZM8.35192 27.3271L8.04039 27.0136H10.3283C10.357 27.0136 10.3837 27.0022 10.4009 26.9792C10.42 26.9563 10.4258 26.9275 10.4219 26.8989L9.95553 24.5728L10.2461 24.718L10.9571 27.3271H8.35192Z" fill="#464655"/>
<path d="M10.1981 21.9462C10.1006 22.0141 9.96862 22.0025 9.88453 21.9184L9.75739 21.7912V22.1025L8.97936 22.8805H8.66813L7.42341 24.1253H7.11217L4.71882 26.5187C4.65984 26.5776 4.63933 26.6648 4.6657 26.7439L4.77829 27.0816L4.3115 27.5484H4.00027L3.0488 28.4999C2.97283 28.5759 2.97283 28.6991 3.0488 28.7752L3.67673 29.4031C3.76736 29.4938 3.91599 29.4881 3.99939 29.3907L5.40075 27.704L5.55632 27.2372L5.86755 26.926L6.49001 27.8596L6.9568 27.3928L6.45886 26.6459L6.58288 26.5219C6.70348 26.4013 6.70348 26.2059 6.58288 26.0853L6.49001 25.9924L6.57741 25.905C7.24157 26.4741 8.03903 26.6213 8.7983 26.2958L8.53825 25.689C7.9109 25.9578 7.3986 25.7329 7.04225 25.44L8.35709 24.1252L8.30524 23.8658L8.66832 23.5027H8.97955L11.3136 21.1687L10.1981 21.9462Z" fill="#464655"/>
<path d="M5.55781 21.6358L5.24658 21.947C5.16074 22.0328 5.16074 22.1722 5.24658 22.2582L5.29843 22.3101L4.77978 22.4139L3.37939 23.8143L4.15742 24.5923L5.55781 23.1919L5.66152 22.6732L5.86904 22.8807L6.0246 22.7251L11.2004 27.9009L11.5116 27.5897L6.33583 22.4139L6.4914 22.2583L5.86894 21.6359C5.7831 21.5498 5.64384 21.5498 5.55781 21.6358Z" fill="#464655"/>
</g>
<defs>
<clipPath id="clip0_108_48019">
<rect width="50" height="50" fill="white" transform="translate(0.0390625 0.602539)"/>
</clipPath>
</defs>
</svg>
