<svg width="51" height="51" viewBox="0 0 51 51" fill="none" xmlns="http://www.w3.org/2000/svg">
<g clip-path="url(#clip0_108_48014)">
<path d="M0.46936 31.3318H50.4693V41.3892C50.4693 41.8653 50.0832 42.2513 49.6072 42.2513H1.33147C0.855395 42.2513 0.46936 41.8653 0.46936 41.3892V31.3318Z" fill="#FF4B55"/>
<path d="M1.33147 9.49283H49.6073C50.0833 9.49283 50.4694 9.87886 50.4694 10.3549V20.4123H0.46936V10.3548C0.46936 9.87876 0.855395 9.49283 1.33147 9.49283Z" fill="#FFE15A"/>
<path d="M50.4693 20.4121H0.46936V31.3311H50.4693V20.4121Z" fill="#73AF00"/>
<path d="M25.9606 15.0283L28.5421 22.7688L36.7015 22.8321C37.1993 22.836 37.4056 23.471 37.0053 23.7667L30.4415 28.6139L32.9027 36.3935C33.0528 36.8681 32.5124 37.2605 32.1076 36.9712L25.4692 32.2264L18.8309 36.9712C18.4259 37.2606 17.8857 36.8681 18.0358 36.3935L20.497 28.6139L13.9332 23.7667C13.5328 23.471 13.7391 22.8358 14.237 22.8321L22.3963 22.7688L24.9779 15.0283C25.1352 14.5561 25.8032 14.5561 25.9606 15.0283Z" fill="#F5F5F5"/>
</g>
<defs>
<clipPath id="clip0_108_48014">
<rect width="50" height="50" fill="white" transform="translate(0.46875 0.87207)"/>
</clipPath>
</defs>
</svg>
