<svg width="51" height="51" viewBox="0 0 51 51" fill="none" xmlns="http://www.w3.org/2000/svg">
<g clip-path="url(#clip0_108_48003)">
<path d="M0.898193 34.2233V10.0853C0.898193 9.60924 1.28423 9.22321 1.7603 9.22321H38.8292L0.898193 34.2233Z" fill="#41479B"/>
<path d="M50.8983 16.9819V41.1198C50.8983 41.5958 50.5123 41.9819 50.0362 41.9819H12.9673L50.8983 16.9819Z" fill="#73AF00"/>
<path d="M50.8982 17.468V10.0853C50.8982 9.60924 50.5122 9.22321 50.0361 9.22321H38.3141L0.898193 33.7372V41.1198C0.898193 41.5959 1.28423 41.9819 1.7603 41.9819H13.4823L50.8982 17.468Z" fill="#F5F5F5"/>
<path d="M50.8982 14.3767V10.0853C50.8982 9.60924 50.5122 9.22321 50.0361 9.22321H43.0324L0.898193 36.8285V41.1199C0.898193 41.596 1.28423 41.982 1.7603 41.982H8.76401L50.8982 14.3767Z" fill="#FF4B55"/>
<path d="M9.70847 14.85C10.5572 14.85 11.3254 15.1938 11.8817 15.7498L12.1869 13.632L10.5038 14.9563L9.70837 12.9679L8.91296 14.9563L7.22986 13.632L7.53503 15.7498C8.09158 15.1937 8.85974 14.85 9.70847 14.85Z" fill="#FFE15A"/>
<path d="M7.53376 20.098C6.97781 19.5417 6.63396 18.7733 6.63396 17.9248C6.63396 17.076 6.97781 16.3079 7.53376 15.7515L5.41599 15.4463L6.74031 17.1294L4.75183 17.9248L6.74031 18.7202L5.41599 20.4033L7.53376 20.098Z" fill="#FFE15A"/>
<path d="M14.6656 17.9247L12.6771 17.1293L14.0014 15.4463L11.8837 15.7514C12.4396 16.3078 12.7835 17.0761 12.7835 17.9247C12.7835 18.7733 12.4396 19.5416 11.8837 20.0979L14.0014 20.4031L12.6771 18.72L14.6656 17.9247Z" fill="#FFE15A"/>
<path d="M9.70889 20.9995C8.86016 20.9995 8.09199 20.6557 7.53564 20.0997L7.23047 22.2175L8.91357 20.8932L9.70898 22.8816L10.5044 20.8932L12.1875 22.2175L11.8823 20.0997C11.3258 20.6558 10.5576 20.9995 9.70889 20.9995Z" fill="#FFE15A"/>
<path d="M9.70889 20.4354C11.0955 20.4354 12.2195 19.3114 12.2195 17.9248C12.2195 16.5382 11.0955 15.4142 9.70889 15.4142C8.3223 15.4142 7.19824 16.5382 7.19824 17.9248C7.19824 19.3114 8.3223 20.4354 9.70889 20.4354Z" fill="#FFE15A"/>
</g>
<defs>
<clipPath id="clip0_108_48003">
<rect width="50" height="50" fill="white" transform="translate(0.898438 0.602539)"/>
</clipPath>
</defs>
</svg>
