<svg width="51" height="51" viewBox="0 0 51 51" fill="none" xmlns="http://www.w3.org/2000/svg">
<g clip-path="url(#clip0_108_47995)">
<path d="M49.3299 9.49283H1.05425C0.578173 9.49283 0.192139 9.87876 0.192139 10.3548V41.3893C0.192139 41.8653 0.578173 42.2514 1.05425 42.2514H49.33C49.8061 42.2514 50.1921 41.8653 50.1921 41.3893V10.3548C50.192 9.87876 49.806 9.49283 49.3299 9.49283Z" fill="#41479B"/>
<path d="M34.7228 25.6616L32.2506 25.1122C31.8955 21.8001 29.2656 19.1716 25.9536 18.8162L25.4039 16.3426C25.3601 16.1456 25.0267 16.1456 24.983 16.3426L24.4347 18.8103C21.1212 19.1647 18.4918 21.799 18.1365 25.1122L15.664 25.6616C15.5653 25.6835 15.4951 25.7711 15.4951 25.872C15.4951 25.973 15.5653 26.0606 15.6639 26.0825L18.1364 26.6319C18.4916 29.9445 21.1211 32.5757 24.4339 32.9306L24.9829 35.4014C25.0049 35.5 25.0925 35.5703 25.1934 35.5703C25.2944 35.5703 25.382 35.5 25.4039 35.4015L25.9538 32.9269C29.2655 32.5715 31.8954 29.9438 32.2506 26.632L34.723 26.0826C34.8215 26.0606 34.8918 25.9731 34.8918 25.872C34.8918 25.771 34.8214 25.6835 34.7228 25.6616ZM31.8141 25.0151L27.0982 23.9672L26.0508 19.2539C29.049 19.6407 31.4278 22.0168 31.8141 25.0151ZM24.3361 19.2531L23.2885 23.9673L18.574 25.015C18.9607 22.0168 21.338 19.6397 24.3361 19.2531ZM23.4006 24.3839L24.8886 25.872H16.704L23.4006 24.3839ZM18.5742 26.7294L23.2887 27.777L24.3365 32.4924C21.338 32.1059 18.9607 29.7275 18.5742 26.7294ZM25.1933 34.3614L23.7053 27.6647L25.1933 26.1768V34.3614ZM25.1933 25.5672V17.3827L26.6814 24.0794L25.1933 25.5672ZM26.0515 32.4866L27.0981 27.7768L31.8139 26.7289C31.4277 29.7266 29.0492 32.0993 26.0515 32.4866ZM26.9861 27.3601L25.4981 25.872H33.6827L26.9861 27.3601Z" fill="#F5F5F5"/>
<path d="M13.9862 26.0875H1.91731C1.79827 26.0875 1.70178 25.9911 1.70178 25.872C1.70178 25.753 1.79827 25.6565 1.91731 25.6565H13.9862C14.1053 25.6565 14.2018 25.753 14.2018 25.872C14.2018 25.9911 14.1054 26.0875 13.9862 26.0875Z" fill="#F5F5F5"/>
<path d="M48.4693 26.0875H36.4003C36.2813 26.0875 36.1848 25.9911 36.1848 25.872C36.1848 25.753 36.2813 25.6565 36.4003 25.6565H48.4693C48.5883 25.6565 48.6848 25.753 48.6848 25.872C48.6848 25.9911 48.5883 26.0875 48.4693 26.0875Z" fill="#F5F5F5"/>
<path d="M25.1932 14.8807C25.0741 14.8807 24.9777 14.7842 24.9777 14.6651V11.2169C24.9777 11.0979 25.0741 11.0014 25.1932 11.0014C25.3122 11.0014 25.4087 11.0979 25.4087 11.2169V14.6651C25.4087 14.7843 25.3122 14.8807 25.1932 14.8807Z" fill="#F5F5F5"/>
<path d="M25.1932 40.7427C25.0741 40.7427 24.9777 40.6462 24.9777 40.5272V37.079C24.9777 36.9599 25.0741 36.8634 25.1932 36.8634C25.3122 36.8634 25.4087 36.9599 25.4087 37.079V40.5272C25.4087 40.6462 25.3122 40.7427 25.1932 40.7427Z" fill="#F5F5F5"/>
</g>
<defs>
<clipPath id="clip0_108_47995">
<rect width="50" height="50" fill="white" transform="translate(0.191406 0.87207)"/>
</clipPath>
</defs>
</svg>
