<svg width="51" height="51" viewBox="0 0 51 51" fill="none" xmlns="http://www.w3.org/2000/svg">
<g clip-path="url(#clip0_108_47991)">
<path d="M49.7423 42.2749H1.4666C0.990527 42.2749 0.604492 41.8888 0.604492 41.4128V10.3784C0.604492 9.90236 0.990527 9.51633 1.4666 9.51633H49.7424C50.2185 9.51633 50.6045 9.90236 50.6045 10.3784V41.4128C50.6044 41.8889 50.2184 42.2749 49.7423 42.2749Z" fill="#41479B"/>
<path d="M50.6044 24.171H0.604492V27.6192H50.6044V24.171Z" fill="#FFE15A"/>
<path d="M12.2422 31.068L12.7443 33.0738L14.1818 31.5877L13.6138 33.5758L15.6018 33.0076L14.1158 34.4454L16.1215 34.9473L14.1158 35.4493L15.6018 36.8869L13.6138 36.3189L14.1818 38.3069L12.7443 36.8209L12.2422 38.8267L11.7402 36.8209L10.3026 38.3069L10.8707 36.3189L8.88264 36.8869L10.3687 35.4493L8.36292 34.9473L10.3687 34.4454L8.88264 33.0076L10.8707 33.5758L10.3026 31.5877L11.7402 33.0738L12.2422 31.068Z" fill="#F5F5F5"/>
</g>
<defs>
<clipPath id="clip0_108_47991">
<rect width="50" height="50" fill="white" transform="translate(0.603516 0.895752)"/>
</clipPath>
</defs>
</svg>
