<svg width="51" height="51" viewBox="0 0 51 51" fill="none" xmlns="http://www.w3.org/2000/svg">
<g clip-path="url(#clip0_108_47984)">
<path d="M49.169 42.275H0.893358C0.417284 42.275 0.03125 41.8889 0.03125 41.4129V10.3784C0.03125 9.90236 0.417284 9.51633 0.893358 9.51633H49.1691C49.6452 9.51633 50.0312 9.90236 50.0312 10.3784V41.4129C50.0312 41.889 49.6451 42.275 49.169 42.275Z" fill="#F5F5F5"/>
<path d="M1.15195 11.7235L19.0121 24.7751H7.76014H5.25019L6.92557 26.6439L19.935 41.1544H1.15195V11.7235ZM0.332128 9.73636C0.151172 9.89446 0.03125 10.1195 0.03125 10.3784V41.4129C0.03125 41.8889 0.417284 42.275 0.893358 42.275H22.4451L7.76014 25.8957H22.4451L0.332128 9.73636Z" fill="#41479B"/>
<path d="M1.1521 11.7234L19.0122 24.775H7.76029H5.25033L6.92592 26.6437L19.9353 41.1543H1.1521V11.7234Z" fill="#FF4B55"/>
<path d="M6.60746 29.8409L7.2975 31.265L8.60716 30.3767C8.66488 30.3375 8.74252 30.3823 8.73744 30.4519L8.62308 32.0302L10.2014 31.9159C10.271 31.9108 10.3159 31.9884 10.2766 32.0461L9.38832 33.3558L10.8124 34.0459C10.8752 34.0763 10.8752 34.1658 10.8124 34.1962L9.38832 34.8863L10.2766 36.1959C10.3159 36.2537 10.271 36.3313 10.2014 36.3262L8.62308 36.2119L8.73744 37.7902C8.74252 37.8598 8.66488 37.9046 8.60716 37.8654L7.2975 36.9771L6.60746 38.4012C6.57699 38.464 6.48754 38.464 6.45707 38.4012L5.76703 36.9771L4.45737 37.8654C4.39965 37.9046 4.32202 37.8598 4.3271 37.7902L4.44145 36.2119L2.86313 36.3262C2.7935 36.3313 2.74868 36.2537 2.78794 36.1959L3.67622 34.8863L2.25181 34.1965C2.18901 34.1661 2.18901 34.0766 2.25181 34.0461L3.67592 33.3561L2.78765 32.0464C2.74839 31.9887 2.79321 31.9111 2.86284 31.9162L4.44116 32.0305L4.3268 30.4522C4.32172 30.3826 4.39936 30.3378 4.45708 30.377L5.76674 31.2653L6.45678 29.8412C6.48744 29.7781 6.57699 29.7781 6.60746 29.8409Z" fill="#F5F5F5"/>
<path d="M8.39994 21.6048L7.80082 21.1955L8.32826 20.6427L7.5766 20.5055L7.83363 19.7861L7.09115 19.9664L7.03324 19.2047L6.42836 19.6714L6.06576 18.9991L5.70307 19.6716L5.09819 19.2049L5.04028 19.9666L4.2978 19.7863L4.55483 20.5057L3.80317 20.6429L4.33061 21.1957L3.73149 21.605C2.97553 21.2521 2.31089 20.7363 1.78784 20.0985C2.13921 22.1454 3.91821 23.7048 6.06557 23.7048C8.21293 23.7048 9.99183 22.1454 10.3433 20.0985C9.82054 20.7363 9.1558 21.2519 8.39994 21.6048Z" fill="#F5F5F5"/>
</g>
<defs>
<clipPath id="clip0_108_47984">
<rect width="50" height="50" fill="white" transform="translate(0.03125 0.895752)"/>
</clipPath>
</defs>
</svg>
