<svg width="51" height="51" viewBox="0 0 51 51" fill="none" xmlns="http://www.w3.org/2000/svg">
<g clip-path="url(#clip0_108_47963)">
<path d="M49.89 42.275H1.61431C1.13823 42.275 0.752197 41.8889 0.752197 41.4129V10.3784C0.752197 9.90236 1.13823 9.51633 1.61431 9.51633H49.8901C50.3662 9.51633 50.7522 9.90236 50.7522 10.3784V41.4129C50.7521 41.889 50.3661 42.275 49.89 42.275Z" fill="#41479B"/>
<path d="M24.89 9.51645H23.3926L15.4072 14.7483V9.51645H11.0969V14.7483L3.11157 9.51645H1.61431C1.13823 9.51645 0.752197 9.90239 0.752197 10.3785V11.0622L7.60326 15.5508H0.752197V19.8612H7.60326L0.752197 24.3498V25.0336C0.752197 25.5097 1.13823 25.8957 1.61431 25.8957H3.11176L11.0971 20.6639V25.8957H15.4074V20.6639L23.3927 25.8957H24.8901C25.3662 25.8957 25.7522 25.5097 25.7522 25.0336V24.3498L18.9012 19.8613H25.7521V15.5509H18.9011L25.7521 11.0623V10.3786C25.7521 9.90239 25.3661 9.51645 24.89 9.51645Z" fill="#F5F5F5"/>
<path d="M25.7521 16.413H14.5452V9.51645H11.9591V16.413H0.752197V18.9991H11.9591V25.8957H14.5452V18.9991H25.7521V16.413Z" fill="#FF4B55"/>
<path d="M10.2351 15.5509L1.16328 9.66214C0.921875 9.81487 0.752441 10.0716 0.752441 10.3784V10.4232L8.65174 15.5509H10.2351Z" fill="#FF4B55"/>
<path d="M16.9911 15.5509L25.6214 9.9488C25.4714 9.69499 25.2067 9.51648 24.8904 9.51648H24.704L15.4077 15.5509H16.9911Z" fill="#FF4B55"/>
<path d="M9.4901 19.8613L0.876343 25.4527C1.02488 25.7126 1.29363 25.8957 1.61453 25.8957H1.77712L11.0736 19.8613H9.4901Z" fill="#FF4B55"/>
<path d="M25.7386 25.1013L17.6658 19.8613H16.0824L25.2498 25.8119C25.5244 25.6845 25.7128 25.4174 25.7386 25.1013Z" fill="#FF4B55"/>
<path d="M39.3727 36.8443C39.3378 36.8443 39.3025 36.8332 39.2725 36.8122L38.2522 36.0831L37.2318 36.8122C37.2019 36.8332 37.1666 36.8443 37.1316 36.8443C37.0959 36.8443 37.0605 36.8332 37.0303 36.8114C36.9705 36.7676 36.9448 36.6902 36.9671 36.6195L37.3455 35.424L36.337 34.6798C36.2772 34.6352 36.2524 34.5586 36.2752 34.4879C36.2983 34.4172 36.3636 34.3692 36.4381 34.3684L37.6921 34.3582L38.0887 33.1687C38.1123 33.0989 38.1783 33.0508 38.2524 33.0508C38.3266 33.0508 38.3927 33.0988 38.4162 33.1687L38.8128 34.3582L40.0668 34.3684C40.1413 34.3693 40.2065 34.4172 40.2297 34.4879C40.2524 34.5586 40.2275 34.6352 40.1679 34.6798L39.1594 35.424L39.5378 36.6195C39.56 36.6902 39.5345 36.7676 39.4746 36.8114C39.4439 36.8332 39.4082 36.8443 39.3727 36.8443Z" fill="#FF4B55"/>
<path d="M38.2521 33.2232L38.6877 34.5297L40.0649 34.5403L38.957 35.3584L39.3724 36.6713L38.2521 35.8707L37.1317 36.6715L37.5471 35.3586L36.4392 34.5405L37.8163 34.5298L38.2521 33.2232ZM38.2521 32.8784C38.1037 32.8784 37.9719 32.9733 37.9249 33.1141L37.5672 34.1868L36.4366 34.1956C36.2882 34.1966 36.1572 34.2926 36.1113 34.4339C36.0654 34.5751 36.1151 34.7297 36.2343 34.8178L37.1439 35.4895L36.8029 36.5675C36.7581 36.709 36.8089 36.8633 36.9289 36.9505C36.9894 36.9944 37.0605 37.0164 37.1317 37.0164C37.2019 37.0164 37.2722 36.9949 37.3323 36.952L38.2522 36.2945L39.1721 36.952C39.2322 36.9948 39.3024 37.0164 39.3726 37.0164C39.4437 37.0164 39.5149 36.9944 39.5753 36.9505C39.6953 36.8632 39.7461 36.709 39.7014 36.5675L39.3604 35.4895L40.27 34.8178C40.3894 34.7297 40.4389 34.5751 40.393 34.4339C40.3471 34.2927 40.2161 34.1966 40.0677 34.1956L38.937 34.1868L38.5793 33.1141C38.5323 32.9734 38.4004 32.8784 38.2521 32.8784Z" fill="#F5F5F5"/>
<path d="M39.3725 22.9458C39.3371 22.9458 39.3023 22.9348 39.2723 22.9138L38.252 22.184L37.2316 22.9139C37.2017 22.9349 37.1663 22.9459 37.1314 22.9459C37.096 22.9459 37.0603 22.9349 37.03 22.913C36.9703 22.8693 36.9446 22.7918 36.9668 22.7211L37.3453 21.5256L36.3368 20.7806C36.277 20.736 36.2522 20.6585 36.2749 20.5887C36.2981 20.518 36.3637 20.4699 36.4378 20.4692L37.6918 20.4599L38.0884 19.2703C38.1121 19.2005 38.1781 19.1525 38.2522 19.1525C38.3263 19.1525 38.3924 19.2004 38.416 19.2703L38.8125 20.4599L40.0665 20.4692C40.1407 20.47 40.2063 20.518 40.2294 20.5887C40.2522 20.6585 40.2273 20.736 40.1676 20.7806L39.1591 21.5256L39.5375 22.7211C39.5598 22.7918 39.5342 22.8693 39.4744 22.913C39.4437 22.9349 39.4079 22.9458 39.3725 22.9458Z" fill="#FF4B55"/>
<path d="M38.2521 19.3247L38.6877 20.6312L40.0649 20.6418L38.957 21.4599L39.3724 22.7729L38.2521 21.9721L37.1317 22.7729L37.5471 21.4599L36.4392 20.6418L37.8163 20.6312L38.2521 19.3247ZM38.2521 18.9799C38.1037 18.9799 37.9719 19.0748 37.9249 19.2156L37.5672 20.2883L36.4366 20.2971C36.2882 20.2981 36.1572 20.3941 36.1113 20.5354C36.0654 20.6766 36.1151 20.8312 36.2343 20.9193L37.1439 21.591L36.8029 22.669C36.7581 22.8105 36.8089 22.9648 36.9289 23.052C36.9894 23.0959 37.0605 23.1179 37.1317 23.1179C37.2019 23.1179 37.2722 23.0964 37.3323 23.0535L38.2522 22.396L39.1721 23.0535C39.2322 23.0963 39.3024 23.1179 39.3726 23.1179C39.4437 23.1179 39.5149 23.0959 39.5753 23.052C39.6953 22.9647 39.7461 22.8105 39.7014 22.669L39.3604 21.591L40.27 20.9193C40.3894 20.8312 40.4389 20.6766 40.393 20.5354C40.3471 20.3941 40.2161 20.2981 40.0677 20.2971L38.937 20.2883L38.5793 19.2156C38.5323 19.0748 38.4004 18.9799 38.2521 18.9799Z" fill="#F5F5F5"/>
<path d="M45.4069 27.2562C45.3716 27.2562 45.3367 27.2452 45.3068 27.2242L44.2865 26.4943L43.2661 27.2242C43.2362 27.2452 43.2009 27.2562 43.1659 27.2562C43.1306 27.2562 43.0948 27.2451 43.0646 27.2233C43.0048 27.1795 42.9791 27.1021 43.0014 27.0314L43.3798 25.8359L42.3713 25.0909C42.3115 25.0462 42.2867 24.9688 42.3095 24.899C42.3326 24.8283 42.3983 24.7802 42.4724 24.7794L43.7264 24.7702L44.123 23.5806C44.1466 23.5108 44.2126 23.4627 44.2867 23.4627C44.3609 23.4627 44.427 23.5107 44.4505 23.5806L44.8471 24.7702L46.1011 24.7794C46.1752 24.7803 46.2408 24.8283 46.264 24.899C46.2867 24.9688 46.2618 25.0462 46.2022 25.0909L45.1937 25.8359L45.5721 27.0314C45.5943 27.1021 45.5688 27.1795 45.5089 27.2233C45.4781 27.2451 45.4424 27.2562 45.4069 27.2562Z" fill="#FF4B55"/>
<path d="M44.2866 23.6351L44.7223 24.9415L46.0994 24.9522L44.9915 25.7702L45.4069 27.0833L44.2865 26.2824L43.1661 27.0833L43.5816 25.7703L42.4736 24.9523L43.8508 24.9416L44.2866 23.6351ZM44.2866 23.2903C44.1383 23.2903 44.0065 23.3852 43.9595 23.526L43.6018 24.5986L42.4711 24.6074C42.3228 24.6085 42.1917 24.7045 42.1458 24.8457C42.0999 24.9869 42.1496 25.1415 42.2689 25.2297L43.1784 25.9014L42.8374 26.9794C42.7927 27.1209 42.8435 27.2752 42.9635 27.3624C43.0239 27.4063 43.095 27.4282 43.1662 27.4282C43.2364 27.4282 43.3067 27.4068 43.3667 27.3639L44.2866 26.7064L45.2066 27.3639C45.2666 27.4067 45.3368 27.4282 45.4071 27.4282C45.4782 27.4282 45.5494 27.4063 45.6099 27.3624C45.7299 27.2751 45.7807 27.1209 45.7359 26.9794L45.3949 25.9014L46.3045 25.2297C46.4239 25.1415 46.4734 24.9869 46.4275 24.8457C46.3816 24.7045 46.2507 24.6085 46.1023 24.6074L44.9716 24.5986L44.6139 23.526C44.5668 23.3852 44.4351 23.2903 44.2866 23.2903Z" fill="#F5F5F5"/>
<path d="M33.3381 28.9803C33.3027 28.9803 33.2679 28.9692 33.2379 28.9482L32.2177 28.2184L31.1973 28.9482C31.1674 28.9692 31.132 28.9803 31.0971 28.9803C31.0617 28.9803 31.026 28.9692 30.9957 28.9474C30.936 28.9036 30.9103 28.8262 30.9325 28.7555L31.311 27.56L30.3025 26.815C30.2427 26.7703 30.2179 26.6929 30.2406 26.6231C30.2638 26.5524 30.3294 26.5043 30.4035 26.5035L31.6575 26.4942L32.0541 25.3047C32.0777 25.2349 32.1438 25.1868 32.2179 25.1868C32.292 25.1868 32.3581 25.2348 32.3817 25.3047L32.7782 26.4942L34.0322 26.5035C34.1064 26.5044 34.172 26.5524 34.1951 26.6231C34.2179 26.6929 34.193 26.7703 34.1333 26.815L33.1248 27.56L33.5032 28.7555C33.5255 28.8262 33.4999 28.9036 33.4401 28.9474C33.4093 28.9693 33.3735 28.9803 33.3381 28.9803Z" fill="#FF4B55"/>
<path d="M32.2175 25.3592L32.6532 26.6656L34.0303 26.6763L32.9224 27.4944L33.3378 28.8074L32.2174 28.0066L31.097 28.8074L31.5125 27.4944L30.4046 26.6763L31.7817 26.6656L32.2175 25.3592ZM32.2175 25.0144C32.0692 25.0144 31.9374 25.1093 31.8904 25.2501L31.5327 26.3228L30.402 26.3316C30.2537 26.3326 30.1226 26.4286 30.0767 26.5698C30.0308 26.7111 30.0805 26.8656 30.1998 26.9538L31.1093 27.6255L30.7683 28.7035C30.7236 28.845 30.7744 28.9993 30.8944 29.0865C30.9548 29.1304 31.0259 29.1524 31.0971 29.1524C31.1673 29.1524 31.2377 29.1309 31.2976 29.088L32.2175 28.4305L33.1375 29.088C33.1975 29.1308 33.2677 29.1524 33.3379 29.1524C33.409 29.1524 33.4802 29.1304 33.5407 29.0865C33.6607 28.9992 33.7115 28.845 33.6667 28.7035L33.3257 27.6255L34.2353 26.9538C34.3547 26.8656 34.4042 26.7111 34.3583 26.5698C34.3125 26.4286 34.1815 26.3326 34.0331 26.3316L32.9024 26.3228L32.5447 25.2501C32.4977 25.1093 32.3659 25.0144 32.2175 25.0144Z" fill="#F5F5F5"/>
</g>
<defs>
<clipPath id="clip0_108_47963">
<rect width="50" height="50" fill="white" transform="translate(0.751953 0.895752)"/>
</clipPath>
</defs>
</svg>
