<svg width="51" height="51" viewBox="0 0 51 51" fill="none" xmlns="http://www.w3.org/2000/svg">
<g clip-path="url(#clip0_108_47918)">
<path d="M50.1791 20.4359H0.179199V10.3784C0.179199 9.90236 0.565234 9.51633 1.04131 9.51633H49.3171C49.7932 9.51633 50.1792 9.90236 50.1792 10.3784L50.1791 20.4359Z" fill="#41479B"/>
<path d="M49.3161 42.2748H1.04045C0.564379 42.2748 0.178345 41.8888 0.178345 41.4127V31.3553H50.1782V41.4127C50.1782 41.8889 49.7922 42.2748 49.3161 42.2748Z" fill="#41479B"/>
<path d="M50.179 20.4358H0.179077V31.3547H50.179V20.4358Z" fill="#F5F5F5"/>
<path d="M25.1789 22.7392L22.5493 26.6063H27.8085L25.1789 22.7392Z" fill="#AFEBFF"/>
<path d="M22.5493 26.6062L20.8478 29.0812H29.5101L27.8085 26.6062H22.5493Z" fill="#557DE6"/>
<path d="M25.8527 26.3901C25.8631 26.3685 25.8741 26.3473 25.8836 26.3252C25.8742 26.3471 25.8631 26.3685 25.8527 26.3901Z" fill="#73AF00"/>
<path d="M25.925 26.2118C25.9315 26.1924 25.9393 26.1735 25.9449 26.1538C25.9392 26.1734 25.9314 26.1923 25.925 26.2118Z" fill="#73AF00"/>
<path d="M25.7633 26.5522C25.7766 26.5311 25.7897 26.51 25.8021 26.4883C25.7898 26.5101 25.7765 26.5312 25.7633 26.5522Z" fill="#73AF00"/>
<path d="M26.1652 25.8318C26.1416 25.8318 26.1191 25.8358 26.0983 25.8427C26.1191 25.8357 26.1416 25.8318 26.1652 25.8318Z" fill="#73AF00"/>
<path d="M26.0421 25.8727C26.0093 25.8982 25.9869 25.9339 25.9818 25.9745V25.9747V25.9745C25.987 25.9339 26.0093 25.8981 26.0421 25.8727Z" fill="#73AF00"/>
<path d="M25.9623 27.0269C25.9991 27.0618 26.0356 27.0951 26.0723 27.1269C26.2686 26.957 26.4735 26.7411 26.6173 26.4884C26.6069 26.5065 26.5958 26.5241 26.5848 26.5418C26.4506 26.295 26.3797 26.0814 26.3453 25.9547C26.3257 25.8825 26.2509 25.8321 26.1654 25.832C26.1983 26.1204 26.269 26.6506 25.9623 27.0269Z" fill="#73AF00"/>
<path d="M26.7405 26.2118C26.7469 26.1924 26.7547 26.1735 26.7603 26.1538C26.7547 26.1734 26.7469 26.1923 26.7405 26.2118Z" fill="#73AF00"/>
<path d="M26.8573 25.8727C26.8245 25.8982 26.8021 25.9339 26.797 25.9745V25.9747V25.9745C26.8022 25.9339 26.8244 25.8981 26.8573 25.8727Z" fill="#73AF00"/>
<path d="M26.6681 26.3901C26.6785 26.3685 26.6896 26.3473 26.699 26.3252C26.6895 26.3471 26.6785 26.3685 26.6681 26.3901Z" fill="#73AF00"/>
<path d="M28.3372 27.2259C28.0391 27.2259 27.7569 27.0828 27.5847 26.8395C27.3252 26.4729 27.2075 26.1311 27.16 25.9558C27.1403 25.8833 27.0653 25.8329 26.9798 25.8329L26.9801 25.833C27.0193 26.1774 27.1127 26.8658 26.5532 27.226H26.189C26.174 27.2142 26.1595 27.2029 26.1442 27.1904C26.1444 27.1907 26.1448 27.191 26.1451 27.1912C26.0432 27.3244 25.8393 27.3617 25.6812 27.2801C25.0193 26.9391 25.122 26.1953 25.1633 25.833C25.0779 25.8331 25.003 25.8834 24.9834 25.9558C24.949 26.0825 24.8781 26.296 24.7439 26.5429C24.733 26.5251 24.7218 26.5077 24.7114 26.4895C24.8732 26.7737 25.1131 27.0135 25.3299 27.1912C25.2279 27.3244 25.024 27.3617 24.8659 27.2801C24.204 26.9391 24.3068 26.1952 24.3481 25.833C24.2626 25.8331 24.1878 25.8834 24.1682 25.9558C24.1338 26.0825 24.0629 26.296 23.9286 26.5429C23.9178 26.5251 23.9066 26.5077 23.8962 26.4895C24.0579 26.7737 24.2979 27.0135 24.5147 27.1912C24.4127 27.3244 24.2088 27.3617 24.0507 27.2801C23.3888 26.9391 23.4915 26.1953 23.5328 25.833L23.5331 25.8329C23.4476 25.8329 23.3726 25.8832 23.353 25.9558C23.3054 26.1311 23.1877 26.4729 22.9282 26.8395C22.7561 27.0829 22.4739 27.2259 22.1757 27.2259H21.9308V27.5353H28.2729H28.4275V27.2259H28.3372Z" fill="#73AF00"/>
<path d="M25.4457 26.3251C25.4552 26.3472 25.4662 26.3685 25.4766 26.3899C25.4662 26.3685 25.4551 26.3471 25.4457 26.3251Z" fill="#73AF00"/>
<path d="M25.3845 26.1537C25.39 26.1735 25.3979 26.1923 25.4043 26.2118C25.3978 26.1923 25.39 26.1735 25.3845 26.1537Z" fill="#73AF00"/>
<path d="M25.3476 25.9748V25.9746C25.3425 25.934 25.3203 25.8984 25.2874 25.8728C25.3201 25.8984 25.3425 25.934 25.3476 25.9746V25.9748Z" fill="#73AF00"/>
<path d="M25.5275 26.4884C25.5399 26.5102 25.5531 26.5312 25.5662 26.5524C25.5531 26.5312 25.5399 26.5101 25.5275 26.4884Z" fill="#73AF00"/>
<path d="M25.6694 26.7028C25.6677 26.7008 25.6664 26.6986 25.6648 26.6965C25.6781 26.6788 25.6908 26.661 25.7036 26.643C25.6909 26.6609 25.6778 26.6787 25.6646 26.6963C25.6513 26.6787 25.6383 26.661 25.6257 26.643C25.64 26.6632 25.6544 26.683 25.6694 26.7028Z" fill="#73AF00"/>
<path d="M25.7375 26.7884C25.7526 26.8065 25.7676 26.8245 25.7831 26.8419C25.7676 26.8245 25.7526 26.8065 25.7375 26.7884Z" fill="#73AF00"/>
<path d="M25.9028 26.9699C25.8883 26.9554 25.8742 26.9403 25.86 26.9253C25.8743 26.9404 25.8883 26.9554 25.9028 26.9699Z" fill="#73AF00"/>
<path d="M26.9799 25.832L26.9796 25.8319C26.9326 25.8319 26.8892 25.8472 26.8564 25.8727C26.8237 25.8983 26.8012 25.934 26.7962 25.9746V25.9748C26.7886 26.0358 26.7756 26.0953 26.7593 26.1538C26.7538 26.1735 26.7459 26.1924 26.7394 26.2118C26.7268 26.2501 26.7138 26.2882 26.698 26.3252C26.6886 26.3472 26.6775 26.3685 26.6671 26.39C26.6511 26.4232 26.6346 26.4563 26.6164 26.4884C26.4726 26.7409 26.2678 26.9569 26.0715 27.1268C26.0348 27.0952 25.9983 27.0619 25.9614 27.0268C26.268 26.6506 26.1974 26.1204 26.1646 25.8319L26.1643 25.8318C26.1408 25.8318 26.1182 25.8357 26.0974 25.8427C26.0766 25.8497 26.0576 25.8599 26.0412 25.8726C26.0085 25.8982 25.986 25.9339 25.9809 25.9745V25.9747C25.9733 26.0357 25.9603 26.0952 25.9439 26.1537C25.9385 26.1734 25.9305 26.1923 25.9241 26.2117C25.9115 26.25 25.8985 26.2881 25.8827 26.3251C25.8732 26.3471 25.8622 26.3684 25.8517 26.3899C25.8357 26.4231 25.8193 26.4562 25.8011 26.4883C25.7887 26.51 25.7755 26.531 25.7623 26.5522C25.7431 26.5829 25.7235 26.6133 25.7027 26.6428C25.69 26.6608 25.6771 26.6788 25.6639 26.6963C25.6507 26.6786 25.6376 26.6608 25.6248 26.6428C25.604 26.6133 25.5844 26.583 25.5652 26.5522C25.5519 26.531 25.5388 26.5099 25.5264 26.4883C25.5081 26.4561 25.4919 26.423 25.4758 26.3899C25.4653 26.3683 25.4543 26.3471 25.4448 26.3251C25.429 26.2882 25.416 26.25 25.4034 26.2117C25.397 26.1923 25.3891 26.1734 25.3836 26.1537C25.3672 26.0953 25.3543 26.0357 25.3467 25.9747V25.9745C25.3416 25.9339 25.3193 25.8982 25.2864 25.8726C25.2537 25.8471 25.2103 25.8318 25.1634 25.8318L25.1631 25.8319C25.1219 26.1941 25.019 26.938 25.6809 27.279C25.7926 27.3365 25.9265 27.3343 26.0316 27.2813C26.0987 27.2475 26.1708 27.2249 26.2459 27.2249H26.5531C27.1125 26.8647 27.0191 26.1762 26.9799 25.832Z" fill="#FFE15A"/>
<path d="M24.569 26.1537C24.5744 26.1735 24.5823 26.1923 24.5888 26.2118C24.5823 26.1923 24.5745 26.1735 24.569 26.1537Z" fill="#73AF00"/>
<path d="M24.5321 25.9748V25.9746C24.527 25.934 24.5047 25.8983 24.4718 25.8727C24.5045 25.8983 24.527 25.934 24.5321 25.9746V25.9748Z" fill="#73AF00"/>
<path d="M24.6301 26.3251C24.6396 26.3471 24.6506 26.3684 24.6611 26.3899C24.6505 26.3684 24.6396 26.347 24.6301 26.3251Z" fill="#73AF00"/>
<path d="M24.3483 25.8319C24.3718 25.8319 24.3944 25.8358 24.4152 25.8428C24.3943 25.8357 24.3717 25.8319 24.3483 25.8319Z" fill="#73AF00"/>
<path d="M24.8659 27.2791C25.0241 27.3605 25.228 27.3232 25.3299 27.1902C25.1131 27.0125 24.8732 26.7728 24.7114 26.4885C24.6931 26.4563 24.6768 26.4232 24.6607 26.3901C24.6503 26.3686 24.6392 26.3474 24.6298 26.3253C24.614 26.2884 24.601 26.2502 24.5884 26.2119C24.5819 26.1925 24.5741 26.1736 24.5685 26.1539C24.5521 26.0955 24.5392 26.0359 24.5316 25.9749V25.9747C24.5265 25.9341 24.5043 25.8984 24.4714 25.8729C24.455 25.8602 24.4359 25.8499 24.4151 25.8429C24.3943 25.8358 24.3718 25.832 24.3482 25.832L24.3479 25.8321C24.3068 26.1942 24.204 26.938 24.8659 27.2791Z" fill="#FFE15A"/>
<path d="M23.7527 26.1539C23.7582 26.1736 23.7661 26.1925 23.7725 26.2119C23.7661 26.1925 23.7583 26.1736 23.7527 26.1539Z" fill="#73AF00"/>
<path d="M23.814 26.3253C23.8234 26.3473 23.8345 26.3686 23.8449 26.3901C23.8345 26.3686 23.8233 26.3472 23.814 26.3253Z" fill="#73AF00"/>
<path d="M23.7164 25.9749V25.9747C23.7113 25.9341 23.689 25.8984 23.6561 25.8729C23.6888 25.8984 23.7113 25.9341 23.7164 25.9747V25.9749Z" fill="#73AF00"/>
<path d="M24.0508 27.2791C24.209 27.3605 24.4129 27.3232 24.5148 27.1902C24.298 27.0125 24.0581 26.7728 23.8963 26.4885C23.8779 26.4563 23.8617 26.4232 23.8456 26.3901C23.8352 26.3686 23.8241 26.3474 23.8147 26.3253C23.7988 26.2884 23.7859 26.2502 23.7733 26.2119C23.7668 26.1925 23.759 26.1736 23.7534 26.1539C23.737 26.0955 23.7241 26.0359 23.7165 25.9749V25.9747C23.7114 25.9341 23.6892 25.8984 23.6563 25.8729C23.6236 25.8473 23.5802 25.832 23.5331 25.832L23.5328 25.8321C23.4916 26.1942 23.3887 26.938 24.0508 27.2791Z" fill="#FFE15A"/>
<path d="M23.8759 24.602C23.8631 24.6513 23.8501 24.7007 23.8373 24.75C24.2595 24.6234 24.7256 24.5473 25.2312 24.5473C25.7369 24.5476 26.2029 24.6231 26.6252 24.75C26.6124 24.7007 26.5994 24.6513 26.5866 24.602C26.1666 24.4936 25.7145 24.4313 25.2312 24.4315C24.748 24.4314 24.296 24.4936 23.8759 24.602Z" fill="#41479B"/>
<path d="M23.8926 24.5376C23.8798 24.587 23.8668 24.6364 23.854 24.6857C24.2716 24.5587 24.7319 24.4826 25.2311 24.4824C25.7305 24.4826 26.1907 24.5586 26.6083 24.6857C26.5955 24.6364 26.5825 24.587 26.5697 24.5376C26.1544 24.4285 25.7081 24.3666 25.2311 24.3665C24.7541 24.3666 24.3079 24.4288 23.8926 24.5376Z" fill="#5AA0E6"/>
<path d="M23.9082 24.4781C23.8954 24.5275 23.8824 24.5769 23.8696 24.6262C24.2831 24.4988 24.738 24.4221 25.2312 24.4223C25.7247 24.4223 26.1795 24.4988 26.5929 24.6262C26.5801 24.5769 26.5671 24.5275 26.5543 24.4781C26.1435 24.369 25.7024 24.3064 25.2312 24.3064C24.7601 24.3063 24.3191 24.369 23.9082 24.4781Z" fill="#9BC800"/>
<path d="M23.9258 24.4102C23.913 24.4595 23.9 24.5089 23.8872 24.5582C24.2958 24.4304 24.7446 24.3536 25.2311 24.3536C25.7177 24.3538 26.1665 24.4304 26.5751 24.5582C26.5623 24.5089 26.5493 24.4595 26.5365 24.4102C26.1305 24.3006 25.6958 24.2379 25.2311 24.2377C24.7665 24.2378 24.3317 24.3006 23.9258 24.4102Z" fill="#FFE14E"/>
<path d="M23.9432 24.3433C23.9304 24.3927 23.9175 24.4421 23.9047 24.4914C24.3086 24.3633 24.7511 24.2862 25.2311 24.2861C25.7111 24.2864 26.1538 24.3631 26.5576 24.4914C26.5448 24.4421 26.5318 24.3927 26.519 24.3433C26.118 24.2336 25.6892 24.1703 25.2311 24.1703C24.773 24.1705 24.3443 24.2333 23.9432 24.3433Z" fill="#FFB14E"/>
<path d="M23.9505 24.3148C23.9414 24.3494 23.9325 24.3839 23.9235 24.4185C24.3221 24.2902 24.7584 24.2124 25.231 24.2125C25.7037 24.2123 26.14 24.2899 26.5385 24.4185C26.5294 24.384 26.5205 24.3495 26.5114 24.3148C26.1125 24.2048 25.6863 24.1416 25.2309 24.1415C24.7757 24.1412 24.3495 24.2047 23.9505 24.3148Z" fill="#FF4B55"/>
<path d="M29.5103 29.2313H20.8479C20.7908 29.2313 20.7385 29.1999 20.7115 29.1498C20.6846 29.0994 20.6877 29.0383 20.7192 28.9908L25.0505 22.4941C25.1079 22.4083 25.2505 22.4083 25.3079 22.4941L29.6391 28.9908C29.6707 29.0383 29.6737 29.0993 29.6467 29.1498C29.6198 29.2 29.5674 29.2313 29.5103 29.2313ZM21.1368 28.922H29.2213L25.1791 22.8588L21.1368 28.922Z" fill="#FFE15A"/>
<path d="M25.4748 25.2055C25.4748 25.0693 25.3369 24.8625 25.1161 24.8625C24.9871 24.8625 24.8825 24.9414 24.8825 25.0386C24.8825 25.0872 24.9086 25.131 24.9507 25.1629C24.9505 25.1646 24.9504 25.1666 24.9503 25.1682C24.8975 25.2006 24.8632 25.2492 24.8632 25.3044C24.8632 25.3972 24.9588 25.4723 25.0796 25.4792L25.179 25.678L25.2687 25.4985C25.3866 25.4685 25.4748 25.349 25.4748 25.2055Z" fill="#FF4B55"/>
</g>
<defs>
<clipPath id="clip0_108_47918">
<rect width="50" height="50" fill="white" transform="translate(0.179688 0.895752)"/>
</clipPath>
</defs>
</svg>
