<svg width="51" height="51" viewBox="0 0 51 51" fill="none" xmlns="http://www.w3.org/2000/svg">
<g clip-path="url(#clip0_108_47913)">
<path d="M0.609741 31.3554H50.6096V41.4128C50.6096 41.8889 50.2236 42.2749 49.7475 42.2749H1.47185C0.995776 42.2749 0.609741 41.8889 0.609741 41.4128V31.3554Z" fill="#73AF00"/>
<path d="M1.47185 9.51633H49.7476C50.2237 9.51633 50.6097 9.90236 50.6097 10.3784V20.4358H0.609741V10.3783C0.609741 9.90226 0.995776 9.51633 1.47185 9.51633Z" fill="#FF9B55"/>
<path d="M50.6096 20.4357H0.609741V31.3546H50.6096V20.4357Z" fill="#F5F5F5"/>
<path d="M25.6099 30.2062C27.9905 30.2062 29.9204 28.2763 29.9204 25.8956C29.9204 23.515 27.9905 21.5851 25.6099 21.5851C23.2292 21.5851 21.2993 23.515 21.2993 25.8956C21.2993 28.2763 23.2292 30.2062 25.6099 30.2062Z" fill="#FF9B55"/>
</g>
<defs>
<clipPath id="clip0_108_47913">
<rect width="50" height="50" fill="white" transform="translate(0.609375 0.895752)"/>
</clipPath>
</defs>
</svg>
