<svg width="51" height="51" viewBox="0 0 51 51" fill="none" xmlns="http://www.w3.org/2000/svg">
<g clip-path="url(#clip0_108_47892)">
<path d="M49.6072 41.5444H1.33147C0.855395 41.5444 0.46936 41.1584 0.46936 40.6823V9.64797C0.46936 9.17189 0.855395 8.78586 1.33147 8.78586H49.6073C50.0833 8.78586 50.4694 9.17189 50.4694 9.64797V40.6823C50.4693 41.1585 50.0832 41.5444 49.6072 41.5444Z" fill="#FFE15A"/>
<path d="M24.6072 25.1651H1.33147C0.855395 25.1651 0.46936 24.7791 0.46936 24.303V9.64797C0.46936 9.17189 0.855395 8.78586 1.33147 8.78586H24.6072C25.0833 8.78586 25.4693 9.17189 25.4693 9.64797V24.3031C25.4692 24.7793 25.0834 25.1651 24.6072 25.1651Z" fill="#41479B"/>
<path d="M24.6072 8.78586H23.1098L15.1245 14.0176V8.78586H10.8142V14.0176L2.82883 8.78586H1.33147C0.855395 8.78586 0.46936 9.17189 0.46936 9.64797V10.3318L7.32042 14.8203H0.46936V19.1307H7.32042L0.46936 23.6193V24.303C0.46936 24.7791 0.855395 25.1651 1.33147 25.1651H2.82883L10.8142 19.9334V25.1651H15.1245V19.9334L23.1097 25.1651H24.6071C25.0832 25.1651 25.4692 24.7791 25.4692 24.303V23.6192L18.6183 19.1307H25.4692V14.8203H18.6182L25.4692 10.3318V9.64797C25.4692 9.17189 25.0834 8.78586 24.6072 8.78586Z" fill="#F5F5F5"/>
<path d="M25.4698 15.6825H14.263V8.78589H11.6768V15.6825H0.469971V18.2686H11.6768V25.1652H14.263V18.2686H25.4698V15.6825Z" fill="#FF4B55"/>
<path d="M9.95267 14.8202L0.88081 8.93143C0.639404 9.08426 0.469971 9.3409 0.469971 9.64783V9.69256L8.36927 14.8202H9.95267Z" fill="#FF4B55"/>
<path d="M16.7083 14.8202L25.3385 9.21809C25.1885 8.96428 24.9239 8.78577 24.6076 8.78577H24.4212L15.1249 14.8202H16.7083Z" fill="#FF4B55"/>
<path d="M9.20775 19.1306L0.593994 24.7219C0.742529 24.9819 1.01128 25.165 1.33218 25.165H1.49477L10.7911 19.1306H9.20775Z" fill="#FF4B55"/>
<path d="M25.4564 24.3708L17.3836 19.1307H15.8003L24.9676 25.0813C25.2423 24.9538 25.4305 24.6867 25.4564 24.3708Z" fill="#FF4B55"/>
<path d="M12.9693 19.5619C14.3976 19.5619 15.5555 18.4041 15.5555 16.9757C15.5555 15.5474 14.3976 14.3895 12.9693 14.3895C11.5409 14.3895 10.3831 15.5474 10.3831 16.9757C10.3831 18.4041 11.5409 19.5619 12.9693 19.5619Z" fill="#41479B"/>
<path d="M13.1438 14.8789L13.576 16.1744L14.9416 16.185C15.1184 16.1864 15.1917 16.412 15.0495 16.517L13.9509 17.3283L14.3628 18.6303C14.4161 18.7989 14.2242 18.9383 14.0804 18.8355L12.9693 18.0414L11.8583 18.8355C11.7145 18.9383 11.5226 18.7989 11.5759 18.6303L11.9878 17.3283L10.8892 16.517C10.7469 16.4119 10.8202 16.1864 10.9971 16.185L12.3627 16.1744L12.7948 14.8789C12.8507 14.7112 13.088 14.7112 13.1438 14.8789Z" fill="#FFE15A"/>
<path d="M5.98713 15.9342L6.21946 16.6308L6.95373 16.6365C7.04875 16.6372 7.08821 16.7585 7.01174 16.815L6.42112 17.2512L6.6426 17.9512C6.67131 18.0418 6.56799 18.1168 6.49075 18.0615L5.89348 17.6346L5.29622 18.0615C5.21887 18.1168 5.11575 18.0418 5.14436 17.9512L5.36585 17.2512L4.77522 16.815C4.69876 16.7585 4.73811 16.6371 4.83323 16.6365L5.56751 16.6308L5.79983 15.9342C5.82961 15.8441 5.95706 15.8441 5.98713 15.9342Z" fill="#FFE15A"/>
<path d="M20.2043 15.9342L20.4366 16.6308L21.1709 16.6365C21.2659 16.6372 21.3054 16.7585 21.2289 16.815L20.6383 17.2512L20.8598 17.9512C20.8885 18.0418 20.7852 18.1168 20.7079 18.0615L20.1106 17.6346L19.5134 18.0615C19.436 18.1168 19.3329 18.0418 19.3615 17.9512L19.583 17.2512L18.9924 16.815C18.9159 16.7585 18.9553 16.6371 19.0504 16.6365L19.7847 16.6308L20.017 15.9342C20.0468 15.8441 20.1742 15.8441 20.2043 15.9342Z" fill="#FFE15A"/>
<path d="M13.0743 10.7018L13.3066 11.3984L14.0409 11.404C14.1359 11.4048 14.1753 11.5261 14.0989 11.5825L13.5082 12.0187L13.7296 12.7187C13.7583 12.8093 13.655 12.8843 13.5778 12.829L12.9805 12.4021L12.3833 12.829C12.3059 12.8843 12.2028 12.8093 12.2314 12.7187L12.4529 12.0187L11.8623 11.5824C11.7858 11.526 11.8251 11.4046 11.9203 11.4039L12.6545 11.3983L12.8869 10.7017C12.9167 10.6116 13.0443 10.6116 13.0743 10.7018Z" fill="#FFE15A"/>
<path d="M13.0743 21.2898L13.3066 21.9864L14.0409 21.9921C14.1359 21.9928 14.1753 22.1141 14.0989 22.1706L13.5082 22.6067L13.7296 23.3067C13.7583 23.3973 13.655 23.4723 13.5778 23.4171L12.9805 22.9901L12.3833 23.4171C12.3059 23.4723 12.2028 23.3973 12.2314 23.3067L12.4529 22.6067L11.8623 22.1705C11.7858 22.114 11.8251 21.9926 11.9203 21.992L12.6545 21.9863L12.8869 21.2897C12.9167 21.1997 13.0443 21.1997 13.0743 21.2898Z" fill="#FFE15A"/>
</g>
<defs>
<clipPath id="clip0_108_47892">
<rect width="50" height="50" fill="white" transform="translate(0.46875 0.165283)"/>
</clipPath>
</defs>
</svg>
