<svg width="51" height="51" viewBox="0 0 51 51" fill="none" xmlns="http://www.w3.org/2000/svg">
<g clip-path="url(#clip0_108_47886)">
<path d="M17.5649 42.2747H1.7603C1.28423 42.2747 0.898193 41.8886 0.898193 41.4126V10.3782C0.898193 9.90212 1.28423 9.51608 1.7603 9.51608H17.5649V42.2747Z" fill="#73AF00"/>
<path d="M34.2322 9.51645H17.5652V42.2752H34.2322V9.51645Z" fill="#F5F5F5"/>
<path d="M50.0351 42.2748H34.2305V9.51617H50.0351C50.5111 9.51617 50.8972 9.90221 50.8972 10.3783V41.4127C50.8972 41.8888 50.5111 42.2748 50.0351 42.2748Z" fill="#73AF00"/>
<path d="M31.655 34.3523L28.9796 18.7456C28.8774 18.1497 28.6654 17.578 28.3544 17.0595L25.8973 12.9644L23.4401 17.0596C23.129 17.5781 22.9171 18.1498 22.815 18.7457L20.1395 34.3525C20.0884 34.6505 20.3179 34.9229 20.6204 34.9229H24.9213V38.8265H26.8732V34.9228H31.174C31.4765 34.9228 31.7062 34.6505 31.655 34.3523Z" fill="#73AF00"/>
</g>
<defs>
<clipPath id="clip0_108_47886">
<rect width="50" height="50" fill="white" transform="translate(0.898438 0.895752)"/>
</clipPath>
</defs>
</svg>
