<svg width="51" height="51" viewBox="0 0 51 51" fill="none" xmlns="http://www.w3.org/2000/svg">
<g clip-path="url(#clip0_108_47879)">
<path d="M49.3299 41.5445H1.05425C0.578173 41.5445 0.192139 41.1585 0.192139 40.6824V9.64797C0.192139 9.17189 0.578173 8.78586 1.05425 8.78586H49.33C49.8061 8.78586 50.1921 9.17189 50.1921 9.64797V40.6824C50.192 41.1586 49.806 41.5445 49.3299 41.5445Z" fill="#F5F5F5"/>
<path d="M50.192 12.2346H0.192139V15.6828H50.192V12.2346Z" fill="#FF4B55"/>
<path d="M50.1928 34.6475H0.192871V38.0958H50.1928V34.6475Z" fill="#FF4B55"/>
<path d="M24.4609 22.5121L25.6745 24.0996L27.5693 23.4653C27.6753 23.4299 27.7654 23.5497 27.7019 23.6416L26.5671 25.2863L27.7559 26.8925C27.8224 26.9822 27.7363 27.105 27.6292 27.073L25.7143 26.502L24.5542 28.129C24.4893 28.2199 24.346 28.176 24.3433 28.0643L24.2947 26.0667L22.3888 25.466C22.2823 25.4324 22.2798 25.2825 22.3851 25.2454L24.2699 24.5818L24.2522 22.5837C24.2512 22.4721 24.393 22.4233 24.4609 22.5121Z" fill="#FF4B55"/>
<path d="M18.2096 31.3756C14.7823 31.3756 12.0022 28.5955 12.0022 25.1651C12.0022 21.7411 14.7823 18.9546 18.2096 18.9546C19.4847 18.9546 20.6607 19.3467 21.6406 20.0106C21.7907 20.1123 21.9619 19.915 21.8363 19.7844C20.3718 18.2617 18.2988 17.3328 16.0006 17.4113C12.052 17.546 8.78323 20.7119 8.53089 24.6546C8.24193 29.1706 11.8178 32.9238 16.2701 32.9238C18.4632 32.9238 20.4343 32.0069 21.8418 30.5409C21.9661 30.4114 21.7945 30.2171 21.6459 30.3179C20.6648 30.9829 19.4869 31.3756 18.2096 31.3756Z" fill="#FF4B55"/>
</g>
<defs>
<clipPath id="clip0_108_47879">
<rect width="50" height="50" fill="white" transform="translate(0.191406 0.165283)"/>
</clipPath>
</defs>
</svg>
