<svg width="51" height="51" viewBox="0 0 51 51" fill="none" xmlns="http://www.w3.org/2000/svg">
<g clip-path="url(#clip0_108_47853)">
<path d="M49.7588 41.6834H1.48308C1.00701 41.6834 0.620972 41.2974 0.620972 40.8213V9.78697C0.620972 9.3109 1.00701 8.92487 1.48308 8.92487H49.7589C50.2349 8.92487 50.621 9.3109 50.621 9.78697V40.8213C50.6209 41.2975 50.2348 41.6834 49.7588 41.6834Z" fill="#4173CD"/>
<path d="M25.6209 37.8041C18.7287 37.8041 13.121 32.1965 13.121 25.3041C13.121 18.4118 18.7286 12.8042 25.6209 12.8042C32.5133 12.8042 38.1209 18.4118 38.1209 25.3041C38.1209 32.1965 32.5133 37.8041 25.6209 37.8041ZM25.6209 15.3904C20.1543 15.3904 15.7072 19.8375 15.7072 25.3041C15.7072 30.7707 20.1544 35.2179 25.6209 35.2179C31.0875 35.2179 35.5347 30.7707 35.5347 25.3041C35.5347 19.8375 31.0876 15.3904 25.6209 15.3904Z" fill="#F5F5F5"/>
<path d="M25.6215 36.942C19.2044 36.942 13.9836 31.7212 13.9836 25.3041C13.9836 18.887 19.2044 13.6662 25.6215 13.6662C32.0386 13.6662 37.2595 18.887 37.2595 25.3041C37.2595 31.7212 32.0387 36.942 25.6215 36.942ZM25.6215 14.5282C19.6796 14.5282 14.8457 19.3621 14.8457 25.3041C14.8457 31.2461 19.6795 36.0799 25.6215 36.0799C31.5635 36.0799 36.3974 31.246 36.3974 25.3041C36.3974 19.3622 31.5635 14.5282 25.6215 14.5282Z" fill="#FFDC00"/>
<path d="M14.4145 26.1662C14.8906 26.1662 15.2766 25.7802 15.2766 25.3041C15.2766 24.828 14.8906 24.442 14.4145 24.442C13.9383 24.442 13.5524 24.828 13.5524 25.3041C13.5524 25.7802 13.9383 26.1662 14.4145 26.1662Z" fill="#FFDC00"/>
<path d="M36.8287 26.1662C37.3048 26.1662 37.6908 25.7802 37.6908 25.3041C37.6908 24.828 37.3048 24.442 36.8287 24.442C36.3525 24.442 35.9666 24.828 35.9666 25.3041C35.9666 25.7802 36.3525 26.1662 36.8287 26.1662Z" fill="#FFDC00"/>
<path d="M25.6213 14.9592C26.0974 14.9592 26.4834 14.5732 26.4834 14.0971C26.4834 13.6209 26.0974 13.235 25.6213 13.235C25.1451 13.235 24.7592 13.6209 24.7592 14.0971C24.7592 14.5732 25.1451 14.9592 25.6213 14.9592Z" fill="#FFDC00"/>
<path d="M17.6965 18.2414C18.1726 18.2414 18.5586 17.8554 18.5586 17.3793C18.5586 16.9032 18.1726 16.5172 17.6965 16.5172C17.2203 16.5172 16.8344 16.9032 16.8344 17.3793C16.8344 17.8554 17.2203 18.2414 17.6965 18.2414Z" fill="#FFDC00"/>
<path d="M33.5461 18.2414C34.0222 18.2414 34.4082 17.8554 34.4082 17.3793C34.4082 16.9032 34.0222 16.5172 33.5461 16.5172C33.0699 16.5172 32.684 16.9032 32.684 17.3793C32.684 17.8554 33.0699 18.2414 33.5461 18.2414Z" fill="#FFDC00"/>
<path d="M35.9748 21.8771C36.4509 21.8771 36.8369 21.4912 36.8369 21.015C36.8369 20.5389 36.4509 20.1529 35.9748 20.1529C35.4987 20.1529 35.1127 20.5389 35.1127 21.015C35.1127 21.4912 35.4987 21.8771 35.9748 21.8771Z" fill="#FFDC00"/>
<path d="M21.3324 15.8127C21.8086 15.8127 22.1946 15.4267 22.1946 14.9506C22.1946 14.4745 21.8086 14.0885 21.3324 14.0885C20.8563 14.0885 20.4703 14.4745 20.4703 14.9506C20.4703 15.4267 20.8563 15.8127 21.3324 15.8127Z" fill="#FFDC00"/>
<path d="M15.2681 21.8771C15.7442 21.8771 16.1302 21.4912 16.1302 21.015C16.1302 20.5389 15.7442 20.1529 15.2681 20.1529C14.792 20.1529 14.406 20.5389 14.406 21.015C14.406 21.4912 14.792 21.8771 15.2681 21.8771Z" fill="#FFDC00"/>
<path d="M29.9106 15.8127C30.3867 15.8127 30.7727 15.4267 30.7727 14.9506C30.7727 14.4745 30.3867 14.0885 29.9106 14.0885C29.4344 14.0885 29.0485 14.4745 29.0485 14.9506C29.0485 15.4267 29.4344 15.8127 29.9106 15.8127Z" fill="#FFDC00"/>
<path d="M36.6127 23.9797C37.0889 23.9797 37.4748 23.5937 37.4748 23.1176C37.4748 22.6414 37.0889 22.2555 36.6127 22.2555C36.1366 22.2555 35.7506 22.6414 35.7506 23.1176C35.7506 23.5937 36.1366 23.9797 36.6127 23.9797Z" fill="#FFDC00"/>
<path d="M23.4351 15.175C23.9112 15.175 24.2972 14.789 24.2972 14.3129C24.2972 13.8368 23.9112 13.4508 23.4351 13.4508C22.959 13.4508 22.573 13.8368 22.573 14.3129C22.573 14.789 22.959 15.175 23.4351 15.175Z" fill="#FFDC00"/>
<path d="M16.3031 19.9397C16.7793 19.9397 17.1653 19.5537 17.1653 19.0775C17.1653 18.6014 16.7793 18.2154 16.3031 18.2154C15.827 18.2154 15.441 18.6014 15.441 19.0775C15.441 19.5537 15.827 19.9397 16.3031 19.9397Z" fill="#FFDC00"/>
<path d="M31.8481 16.8488C32.3242 16.8488 32.7102 16.4629 32.7102 15.9867C32.7102 15.5106 32.3242 15.1246 31.8481 15.1246C31.3719 15.1246 30.986 15.5106 30.986 15.9867C30.986 16.4629 31.3719 16.8488 31.8481 16.8488Z" fill="#FFDC00"/>
<path d="M34.9389 19.9397C35.415 19.9397 35.801 19.5537 35.801 19.0775C35.801 18.6014 35.415 18.2154 34.9389 18.2154C34.4628 18.2154 34.0768 18.6014 34.0768 19.0775C34.0768 19.5537 34.4628 19.9397 34.9389 19.9397Z" fill="#FFDC00"/>
<path d="M19.3951 16.8488C19.8712 16.8488 20.2572 16.4629 20.2572 15.9867C20.2572 15.5106 19.8712 15.1246 19.3951 15.1246C18.9189 15.1246 18.533 15.5106 18.533 15.9867C18.533 16.4629 18.9189 16.8488 19.3951 16.8488Z" fill="#FFDC00"/>
<path d="M14.6304 23.9797C15.1065 23.9797 15.4925 23.5937 15.4925 23.1176C15.4925 22.6414 15.1065 22.2555 14.6304 22.2555C14.1543 22.2555 13.7683 22.6414 13.7683 23.1176C13.7683 23.5937 14.1543 23.9797 14.6304 23.9797Z" fill="#FFDC00"/>
<path d="M27.808 15.175C28.2842 15.175 28.6701 14.789 28.6701 14.3129C28.6701 13.8368 28.2842 13.4508 27.808 13.4508C27.3319 13.4508 26.9459 13.8368 26.9459 14.3129C26.9459 14.789 27.3319 15.175 27.808 15.175Z" fill="#FFDC00"/>
<path d="M36.8277 25.7352C36.5894 25.7352 36.3966 25.5424 36.3966 25.3041C36.3966 19.3623 31.5628 14.5283 25.6208 14.5283C19.6788 14.5283 14.845 19.3624 14.845 25.3041C14.845 25.5424 14.6522 25.7352 14.414 25.7352C14.1757 25.7352 13.9829 25.5424 13.9829 25.3041C13.9829 18.8871 19.2037 13.6663 25.6208 13.6663C32.0379 13.6663 37.2588 18.8871 37.2588 25.3041C37.2588 25.5424 37.066 25.7352 36.8277 25.7352Z" fill="#FFA000"/>
<path d="M28.0161 38.2352H23.2257C22.202 38.2352 21.4038 37.3486 21.511 36.3306L23.0346 21.856H28.207L29.7306 36.3306C29.8378 37.3486 29.0396 38.2352 28.0161 38.2352Z" fill="#B4B4B4"/>
<path d="M28.1823 21.8559H23.0387C22.812 21.8559 22.6218 21.6852 22.5973 21.4599L22.276 18.5007C22.2206 17.9909 22.6201 17.5456 23.133 17.5456H28.1081C28.621 17.5456 29.0205 17.9907 28.9652 18.5007L28.646 21.44C28.6203 21.6766 28.4204 21.8559 28.1823 21.8559Z" fill="#AAAAAA"/>
<path d="M25.8203 18.5497L27.4183 23.1472L32.2846 23.2463C32.4849 23.2504 32.5677 23.5049 32.408 23.6261L28.5294 26.5666L29.9388 31.2253C29.9969 31.4171 29.7804 31.5744 29.6158 31.46L25.6207 28.6799L21.6255 31.46C21.461 31.5744 21.2444 31.4171 21.3024 31.2253L22.7119 26.5666L18.8333 23.6261C18.6736 23.5051 18.7563 23.2504 18.9566 23.2463L23.8229 23.1472L25.421 18.5497C25.4868 18.3603 25.7545 18.3603 25.8203 18.5497Z" fill="#F5F5F5"/>
</g>
<defs>
<clipPath id="clip0_108_47853">
<rect width="50" height="50" fill="white" transform="translate(0.621094 0.304199)"/>
</clipPath>
</defs>
</svg>
