<svg width="51" height="51" viewBox="0 0 51 51" fill="none" xmlns="http://www.w3.org/2000/svg">
<g clip-path="url(#clip0_108_47796)">
<path d="M49.4983 41.6835H13.2915V8.92497H49.4984C49.9744 8.92497 50.3605 9.31101 50.3605 9.78708V40.8215C50.3604 41.2976 49.9743 41.6835 49.4983 41.6835Z" fill="#73AF00"/>
<path d="M13.2929 41.6834H1.22399C0.747912 41.6834 0.361877 41.2974 0.361877 40.8213V9.78691C0.361877 9.31084 0.747912 8.9248 1.22399 8.9248H13.2929V41.6834Z" fill="#F5F5F5"/>
<path d="M40.6013 29.8147C36.6333 33.3495 30.559 32.9863 27.0314 29.0113C23.5105 25.0436 23.8668 18.9517 27.8347 15.4172C27.8405 15.412 27.8462 15.4069 27.8521 15.4018C27.9458 15.3194 27.8552 15.1697 27.7388 15.215C23.8257 16.7388 21.0514 20.545 21.0514 25.0015C21.0514 30.8066 25.7458 35.508 31.537 35.508C35.5432 35.508 39.0149 33.2538 40.7785 29.9447C40.8373 29.8342 40.6994 29.7268 40.606 29.8102C40.6046 29.8117 40.6028 29.8132 40.6013 29.8147Z" fill="#F5F5F5"/>
<path d="M35.4971 17.1586L36.876 18.7055L38.7861 17.9016C39.0334 17.7975 39.2709 18.0681 39.1355 18.2998L38.0903 20.0893L39.4451 21.6575C39.6205 21.8605 39.4365 22.17 39.1744 22.1129L37.1495 21.6718L36.0766 23.4449C35.9378 23.6744 35.5866 23.5951 35.5598 23.3281L35.3536 21.266L33.3358 20.7935C33.0746 20.7323 33.0415 20.3739 33.2872 20.266L35.1847 19.4327L35.0104 17.3678C34.9879 17.1005 35.3186 16.9584 35.4971 17.1586Z" fill="#F5F5F5"/>
</g>
<defs>
<clipPath id="clip0_108_47796">
<rect width="50" height="50" fill="white" transform="translate(0.359375 0.304199)"/>
</clipPath>
</defs>
</svg>
