<svg width="51" height="51" viewBox="0 0 51 51" fill="none" xmlns="http://www.w3.org/2000/svg">
<g clip-path="url(#clip0_108_47793)">
<path d="M49.9273 41.6834H1.6516C1.17552 41.6834 0.78949 41.2974 0.78949 40.8213V9.78697C0.78949 9.3109 1.17552 8.92487 1.6516 8.92487H49.9274C50.4035 8.92487 50.7895 9.3109 50.7895 9.78697V40.8213C50.7894 41.2975 50.4034 41.6834 49.9273 41.6834Z" fill="#3CC8FF"/>
<path d="M25.7897 35.6489C31.5029 35.6489 36.1344 31.0174 36.1344 25.3041C36.1344 19.5909 31.5029 14.9594 25.7897 14.9594C20.0764 14.9594 15.4449 19.5909 15.4449 25.3041C15.4449 31.0174 20.0764 35.6489 25.7897 35.6489Z" fill="#FFE15A"/>
</g>
<defs>
<clipPath id="clip0_108_47793">
<rect width="50" height="50" fill="white" transform="translate(0.789062 0.304199)"/>
</clipPath>
</defs>
</svg>
