<svg width="51" height="51" viewBox="0 0 51 51" fill="none" xmlns="http://www.w3.org/2000/svg">
<g clip-path="url(#clip0_108_47788)">
<path d="M50.0835 19.8445H0.0835571V9.78697C0.0835571 9.3109 0.469592 8.92487 0.945665 8.92487H49.2215C49.6975 8.92487 50.0836 9.3109 50.0836 9.78697L50.0835 19.8445Z" fill="#464655"/>
<path d="M49.2214 41.6835H0.945665C0.469592 41.6835 0.0835571 41.2975 0.0835571 40.8214V30.764H50.0835V40.8214C50.0835 41.2976 49.6974 41.6835 49.2214 41.6835Z" fill="#73AF00"/>
<path d="M50.0835 19.8443H0.0835571V30.7632H50.0835V19.8443Z" fill="#F5F5F5"/>
<path d="M0.401525 41.4751L20.2102 25.751C20.4979 25.5227 20.4979 25.0858 20.2102 24.8574L0.401525 9.13336C0.211584 9.29147 0.0835571 9.52057 0.0835571 9.78697V40.8214C0.0835571 41.0879 0.211584 41.317 0.401525 41.4751Z" fill="#FF4B55"/>
</g>
<defs>
<clipPath id="clip0_108_47788">
<rect width="50" height="50" fill="white" transform="translate(0.0820312 0.304199)"/>
</clipPath>
</defs>
</svg>
