<svg width="51" height="51" viewBox="0 0 51 51" fill="none" xmlns="http://www.w3.org/2000/svg">
<g clip-path="url(#clip0_108_47763)">
<path d="M50.6209 20.1378H0.620972V10.0803C0.620972 9.6042 1.00701 9.21817 1.48308 9.21817H49.7589C50.2349 9.21817 50.621 9.6042 50.621 10.0803L50.6209 20.1378Z" fill="#FF4B55"/>
<path d="M49.7588 41.9768H1.48308C1.00701 41.9768 0.620972 41.5908 0.620972 41.1147V31.0573H50.6209V41.1147C50.6209 41.5909 50.2348 41.9768 49.7588 41.9768Z" fill="#41479B"/>
<path d="M50.6209 20.1376H0.620972V31.0565H50.6209V20.1376Z" fill="#F5F5F5"/>
<path d="M25.6209 21.2872C23.2404 21.2872 21.3105 23.217 21.3105 25.5975C21.3105 27.9781 23.2404 29.9079 25.6209 29.9079C28.0014 29.9079 29.9312 27.9781 29.9312 25.5975C29.9312 23.217 28.0014 21.2872 25.6209 21.2872ZM25.6209 28.8483C23.8257 28.8483 22.3701 27.3929 22.3701 25.5975C22.3701 23.8021 23.8256 22.3468 25.6209 22.3468C27.4162 22.3468 28.8717 23.8022 28.8717 25.5975C28.8717 27.3928 27.4161 28.8483 25.6209 28.8483Z" fill="#FF4B55"/>
<path d="M25.6211 27.0926C26.4468 27.0926 27.1162 26.4233 27.1162 25.5975C27.1162 24.7718 26.4468 24.1024 25.6211 24.1024C24.7954 24.1024 24.126 24.7718 24.126 25.5975C24.126 26.4233 24.7954 27.0926 25.6211 27.0926Z" fill="#41479B"/>
<path d="M25.7183 24.465L25.9592 25.1877L26.7208 25.1936C26.8195 25.1944 26.8604 25.3203 26.781 25.3789L26.1683 25.8313L26.3981 26.5575C26.4279 26.6515 26.3208 26.7293 26.2406 26.6719L25.6208 26.2291L25.0011 26.6719C24.9208 26.7293 24.8138 26.6514 24.8436 26.5575L25.0734 25.8313L24.4607 25.3789C24.3814 25.3203 24.4222 25.1944 24.5208 25.1936L25.2825 25.1877L25.5234 24.465C25.5546 24.3715 25.687 24.3715 25.7183 24.465Z" fill="#FFE15A"/>
<path d="M28.4491 25.6323C28.4491 25.6323 28.5345 25.2372 28.1141 25.7113C28.1141 25.7113 28.1203 25.5763 28.1083 25.4651C28.2008 25.365 28.3155 25.1461 28.2885 24.6788C28.2885 24.6788 28.2226 24.28 28.0062 24.8754C28.0062 24.8754 27.9471 24.6997 27.8843 24.6024C27.9365 24.4942 27.9768 24.2972 27.8517 23.924C27.8517 23.924 27.7055 23.6047 27.66 24.1533C27.66 24.1533 27.54 23.9738 27.462 23.9297C27.477 23.8412 27.4652 23.6892 27.2886 23.4432C27.2886 23.4432 27.1124 23.246 27.2014 23.6509C27.2014 23.6509 27.0402 23.5203 26.9886 23.5356C26.9619 23.4583 26.8844 23.3275 26.6244 23.1555C26.6244 23.1555 26.3991 23.0321 26.6576 23.3541C26.6576 23.3541 26.429 23.2635 26.4318 23.3154C26.4345 23.3674 26.545 23.4632 26.6357 23.5059C26.6357 23.5059 26.3005 23.5407 26.4381 23.6154C26.4381 23.6154 26.7781 23.7327 26.9823 23.6198C26.9987 23.6793 27.032 23.746 27.0814 23.7939C27.0814 23.7939 26.6826 23.7165 26.7906 23.8362C26.7906 23.8362 27.0897 24.056 27.3853 24.0223C27.3839 24.1038 27.4085 24.209 27.4518 24.2878C27.4518 24.2878 26.9762 24.0336 27.0663 24.2276C27.0663 24.2276 27.3507 24.608 27.729 24.6905C27.7135 24.7751 27.7138 24.8773 27.7343 24.962C27.7343 24.962 27.2829 24.5357 27.3243 24.7786C27.3243 24.7786 27.5129 25.2788 27.8953 25.4913C27.8642 25.5548 27.8387 25.6258 27.8293 25.6921C27.8293 25.6921 27.5664 25.1295 27.5156 25.3706C27.5156 25.3706 27.5069 25.9325 27.8069 26.2685C27.743 26.3217 27.6804 26.396 27.642 26.4689C27.642 26.4689 27.5845 25.8509 27.4552 26.0605C27.4552 26.0605 27.2765 26.5289 27.3975 26.9325C27.3175 26.9561 27.2304 26.9998 27.166 27.052C27.166 27.052 27.3567 26.4611 27.1552 26.6029C27.1552 26.6029 26.7964 26.9911 26.769 27.4278C26.6739 27.4259 26.5451 27.4601 26.4517 27.5159C26.4517 27.5159 26.7246 26.9584 26.5049 27.0699C26.5049 27.0699 26.1135 27.3896 26.0124 27.8046C25.9199 27.8574 25.7626 27.9471 25.6055 28.0362C25.5141 27.9832 25.4253 27.9316 25.3495 27.8873L25.352 27.8832L24.4623 27.1373L24.4799 27.3812L24.0332 26.5822L23.978 26.8541L23.8317 25.9708L23.7019 26.1011L23.7521 25.2771L23.583 25.3683L23.8902 24.7554L23.7458 24.7962L24.1254 24.4323L23.9248 24.4494L24.4046 24.2315L24.2292 24.2046L24.6977 23.9674L24.4958 23.9576L25.1032 23.7474L24.9919 23.6502L25.5176 23.4951L24.8877 23.4471L25.0671 23.2263L24.5866 23.4721L24.6555 23.1397L24.2351 23.5726L24.3082 23.2695L23.9147 23.661L23.9401 23.3655L23.5511 24.0243L23.5009 23.7295L23.1777 24.4691L23.0887 24.1469L22.9444 25.0641L22.824 24.9276L22.9823 25.8124L22.7815 25.6618L23.1496 26.4565C23.1496 26.4565 22.8819 26.3394 22.8484 26.3394C22.8149 26.3394 23.4883 27.0234 23.4883 27.0234L23.137 26.9858L23.8159 27.4632L23.5636 27.5255L24.1284 27.745L23.9903 27.8518L25.1594 27.9354C25.1594 27.9354 25.2721 28.0293 25.4254 28.138C25.3445 28.1837 25.2733 28.2234 25.2292 28.2475C25.1848 28.2717 25.1327 28.2742 25.0859 28.2547C24.9748 28.2081 24.8143 28.1425 24.7369 28.1115C24.7369 28.1115 24.7444 28.4438 25.0904 28.4521C25.2325 28.4553 25.4262 28.3649 25.6064 28.258C25.7909 28.373 25.9945 28.4745 26.1415 28.471C26.48 28.4627 26.4874 28.1303 26.4874 28.1303C26.4117 28.1614 26.2544 28.227 26.1459 28.2735C26.1001 28.293 26.0492 28.2906 26.0057 28.2664C25.9578 28.2395 25.8788 28.1945 25.7884 28.1423C25.8808 28.0797 25.9582 28.0228 26.0126 27.9809C26.0978 28.0478 26.3415 28.1654 26.8863 27.9609C26.8863 27.9609 27.2476 27.7795 26.6147 27.7497C26.6147 27.7497 26.7322 27.6634 26.8115 27.5816C26.9153 27.635 27.1718 27.6983 27.6595 27.4305C27.6595 27.4305 27.9913 27.1994 27.3607 27.2601C27.3607 27.2601 27.4449 27.1781 27.5111 27.0947C27.6199 27.1069 27.8885 27.0778 28.2448 26.6221C28.2448 26.6221 28.4586 26.2791 27.903 26.5834C27.903 26.5834 27.9748 26.4121 27.9917 26.2975C28.115 26.2382 28.3022 26.0768 28.4491 25.6323Z" fill="#64C86E"/>
</g>
<defs>
<clipPath id="clip0_108_47763">
<rect width="50" height="50" fill="white" transform="translate(0.621094 0.597412)"/>
</clipPath>
</defs>
</svg>
