<svg width="51" height="51" viewBox="0 0 51 51" fill="none" xmlns="http://www.w3.org/2000/svg">
<g clip-path="url(#clip0_108_47641)">
<path d="M50.7894 15.77H0.78949V10.0803C0.78949 9.6042 1.17552 9.21817 1.6516 9.21817H49.9274C50.4035 9.21817 50.7895 9.6042 50.7895 10.0803L50.7894 15.77Z" fill="#FF4B55"/>
<path d="M50.7894 15.7704H0.78949V22.3221H50.7894V15.7704Z" fill="#F5F5F5"/>
<path d="M50.7894 22.3222H0.78949V28.8739H50.7894V22.3222Z" fill="#FF4B55"/>
<path d="M49.9277 41.9767H1.65202C1.17595 41.9767 0.789917 41.5907 0.789917 41.1146V35.425H50.7898V41.1146C50.7898 41.5908 50.4038 41.9767 49.9277 41.9767Z" fill="#FF4B55"/>
<path d="M50.7894 28.8739H0.78949V35.4256H50.7894V28.8739Z" fill="#F5F5F5"/>
<path d="M1.10746 41.7684L24.9688 26.135C25.3561 25.8812 25.3561 25.3135 24.9688 25.0599L1.10746 9.42666C0.917517 9.58476 0.78949 9.81386 0.78949 10.0803V41.1147C0.78949 41.3812 0.917517 41.6103 1.10746 41.7684Z" fill="#41479B"/>
<path d="M9.59627 21.5962L10.496 24.2937L13.3395 24.3158C13.7076 24.3186 13.8603 24.7884 13.5642 25.0072L11.2767 26.6965L12.1344 29.4077C12.2456 29.7587 11.8459 30.0491 11.5463 29.8349L9.23279 28.1814L6.91932 29.8349C6.61991 30.0491 6.2202 29.7587 6.33114 29.4077L7.18885 26.6965L4.90136 25.0072C4.60527 24.7884 4.7578 24.3187 5.12607 24.3158L7.96961 24.2937L8.86932 21.5962C8.98582 21.2469 9.47977 21.2469 9.59627 21.5962Z" fill="#F5F5F5"/>
</g>
<defs>
<clipPath id="clip0_108_47641">
<rect width="50" height="50" fill="white" transform="translate(0.789062 0.597412)"/>
</clipPath>
</defs>
</svg>
