<svg width="51" height="51" viewBox="0 0 51 51" fill="none" xmlns="http://www.w3.org/2000/svg">
<g clip-path="url(#clip0_108_47619)">
<path d="M49.7586 8.64603H35.9655L0.884644 41.1599C1.03982 41.3102 1.24958 41.4046 1.48269 41.4046H15.2758L50.3567 8.89075C50.2015 8.74036 49.9917 8.64603 49.7586 8.64603Z" fill="#FFE15A"/>
<path d="M35.9658 8.64603H1.48308C1.00701 8.64603 0.620972 9.03196 0.620972 9.50804V40.5425C0.620972 40.7855 0.723218 41.0032 0.884937 41.1599L35.9658 8.64603Z" fill="#73AF00"/>
<path d="M50.3567 8.89074L15.2759 41.4046H49.7586C50.2347 41.4046 50.6207 41.0186 50.6207 40.5425V9.50802C50.6207 9.26496 50.5185 9.04738 50.3567 8.89074Z" fill="#FF4B55"/>
</g>
<defs>
<clipPath id="clip0_108_47619">
<rect width="50" height="50" fill="white" transform="translate(0.621094 0.0253906)"/>
</clipPath>
</defs>
</svg>
