<svg width="51" height="51" viewBox="0 0 51 51" fill="none" xmlns="http://www.w3.org/2000/svg">
<g clip-path="url(#clip0_108_47623)">
<path d="M49.9442 41.9767H1.66847C1.1924 41.9767 0.806366 41.5907 0.806366 41.1146V10.0803C0.806366 9.6042 1.1924 9.21817 1.66847 9.21817H49.9443C50.4203 9.21817 50.8064 9.6042 50.8064 10.0803V41.1147C50.8063 41.5909 50.4202 41.9767 49.9442 41.9767Z" fill="#FF4B55"/>
<path d="M22.8514 22.4741C22.8508 22.4745 22.8503 22.475 22.8497 22.4753L10.2904 9.21834H1.6698C1.46023 9.21834 1.27518 9.30232 1.12576 9.42674L22.2062 23.238C22.3904 22.9574 22.6086 22.704 22.8514 22.4741Z" fill="#FFE15A"/>
<path d="M21.542 26.0392C21.5268 25.8919 21.4975 25.7489 21.4975 25.5976C21.4975 25.4463 21.5268 25.3033 21.542 25.156V25.1562L0.807892 23.0114V28.1838L21.542 26.0389V26.0392Z" fill="#FFE15A"/>
<path d="M25.1378 21.3546C25.3576 21.3201 25.5783 21.2872 25.8078 21.2872C26.0373 21.2872 26.258 21.3202 26.4778 21.3546H26.4777L28.394 9.21824H23.2216L25.1378 21.3546Z" fill="#FFE15A"/>
<path d="M29.4095 23.238L50.49 9.42674C50.3405 9.30232 50.1555 9.21834 49.946 9.21834H41.3253L28.7659 22.4754C28.7653 22.475 28.7648 22.4746 28.7643 22.4742C29.007 22.704 29.2253 22.9574 29.4095 23.238Z" fill="#FFE15A"/>
<path d="M28.7643 28.721C28.7647 28.7206 28.7653 28.7202 28.7659 28.7198L41.3253 41.9769H49.946C50.1555 41.9769 50.3406 41.8929 50.49 41.7685L29.4095 27.9571C29.2253 28.2377 29.007 28.4913 28.7643 28.721Z" fill="#FFE15A"/>
<path d="M30.0736 25.1563V25.1561C30.0888 25.3033 30.1181 25.4464 30.1181 25.5977C30.1181 25.749 30.0888 25.892 30.0736 26.0393V26.0391L50.8077 28.1838V23.0114L30.0736 25.1563Z" fill="#FFE15A"/>
<path d="M26.4778 29.8405C26.258 29.8749 26.0373 29.908 25.8078 29.908C25.5783 29.908 25.3576 29.8749 25.1378 29.8405H25.1379L23.2216 41.9769H28.394L26.4778 29.8405Z" fill="#FFE15A"/>
<path d="M22.2063 27.9571L1.12576 41.7685C1.27518 41.8929 1.46023 41.9769 1.6698 41.9769H10.2905L22.8498 28.7198C22.8504 28.7202 22.8509 28.7206 22.8515 28.721C22.6087 28.4913 22.3905 28.2377 22.2063 27.9571Z" fill="#FFE15A"/>
<path d="M25.8078 29.0457C27.7122 29.0457 29.256 27.5019 29.256 25.5975C29.256 23.6931 27.7122 22.1493 25.8078 22.1493C23.9034 22.1493 22.3596 23.6931 22.3596 25.5975C22.3596 27.5019 23.9034 29.0457 25.8078 29.0457Z" fill="#FFE15A"/>
</g>
<defs>
<clipPath id="clip0_108_47623">
<rect width="50" height="50" fill="white" transform="translate(0.804688 0.597412)"/>
</clipPath>
</defs>
</svg>
