<svg width="51" height="51" viewBox="0 0 51 51" fill="none" xmlns="http://www.w3.org/2000/svg">
<g clip-path="url(#clip0_108_47589)">
<path d="M50.3606 19.5656H0.360718V9.50811C0.360718 9.03204 0.746752 8.64601 1.22283 8.64601H49.4986C49.9747 8.64601 50.3607 9.03204 50.3607 9.50811L50.3606 19.5656Z" fill="#464655"/>
<path d="M49.4985 41.4046H1.22283C0.746752 41.4046 0.360718 41.0186 0.360718 40.5425V30.4851H50.3606V40.5425C50.3606 41.0187 49.9746 41.4046 49.4985 41.4046Z" fill="#73AF00"/>
<path d="M50.3606 19.5654H0.360718V30.4843H50.3606V19.5654Z" fill="#F5F5F5"/>
<path d="M0.679846 41.1962L20.4885 25.4721C20.7762 25.2437 20.7762 24.8068 20.4885 24.5784L0.679846 8.85442C0.489905 9.01252 0.361877 9.24162 0.361877 9.50803V40.5424C0.361877 40.8089 0.489905 41.038 0.679846 41.1962Z" fill="#FF4B55"/>
<path d="M26.2364 25.0253C26.2364 23.0589 27.5207 21.3931 29.2959 20.8194C29.398 20.7864 29.3846 20.6371 29.278 20.6267C28.9372 20.5932 28.585 20.5984 28.2254 20.6488C26.1401 20.9415 24.5313 22.705 24.4307 24.8083C24.3094 27.3478 26.3325 29.445 28.8454 29.445C28.9908 29.445 29.1343 29.4378 29.276 29.424C29.3832 29.4136 29.3971 29.2638 29.2947 29.2306C27.5201 28.6566 26.2364 26.9911 26.2364 25.0253Z" fill="#FF4B55"/>
<path d="M29.9891 22.1214L29.4084 23.8626L27.573 23.8768C27.3354 23.8787 27.2367 24.1819 27.428 24.323L28.9044 25.4134L28.3507 27.1634C28.279 27.39 28.537 27.5773 28.7303 27.4391L30.2235 26.3718L31.7166 27.4391C31.91 27.5773 32.1679 27.3899 32.0962 27.1634L31.5425 25.4134L33.019 24.323C33.2102 24.1818 33.1116 23.8786 32.8739 23.8768L31.0385 23.8626L30.4578 22.1214C30.3832 21.896 30.0644 21.896 29.9891 22.1214Z" fill="#FF4B55"/>
</g>
<defs>
<clipPath id="clip0_108_47589">
<rect width="50" height="50" fill="white" transform="translate(0.359375 0.0253906)"/>
</clipPath>
</defs>
</svg>
