<svg width="51" height="51" viewBox="0 0 51 51" fill="none" xmlns="http://www.w3.org/2000/svg">
<g clip-path="url(#clip0_108_47579)">
<path d="M49.9273 41.4045H1.6516C1.17552 41.4045 0.78949 41.0185 0.78949 40.5424V9.50811C0.78949 9.03204 1.17552 8.64601 1.6516 8.64601H49.9274C50.4035 8.64601 50.7895 9.03204 50.7895 9.50811V40.5424C50.7894 41.0186 50.4034 41.4045 49.9273 41.4045Z" fill="#73AF00"/>
<path d="M37.4189 8.64601L0.78949 32.6445V35.2212L41.3514 8.64601H37.4189Z" fill="#FFE15A"/>
<path d="M50.7899 17.4062V14.8295L10.2278 41.4047H14.1604L50.7899 17.4062Z" fill="#FFE15A"/>
<path d="M50.7894 14.8294V9.50811C50.7894 9.03204 50.4034 8.64601 49.9273 8.64601H41.3514L0.78949 35.2211V40.5424C0.78949 41.0185 1.17552 41.4045 1.6516 41.4045H10.2275L50.7894 14.8294Z" fill="#464655"/>
<path d="M16.0255 26.9686L17.7949 28.3934L19.7158 27.1805C19.9645 27.0235 20.27 27.2734 20.1652 27.5483L19.3569 29.6714L21.104 31.1234C21.3301 31.3115 21.1869 31.6791 20.8931 31.6646L18.6242 31.5519L17.7831 33.6623C17.6741 33.9354 17.2801 33.9129 17.2032 33.629L16.6092 31.4362L14.3423 31.2883C14.0488 31.2692 13.9486 30.8875 14.1948 30.7266L16.0966 29.4841L15.5367 27.2823C15.4644 26.9973 15.7964 26.7841 16.0255 26.9686Z" fill="#F5F5F5"/>
<path d="M32.3331 16.2645L34.1025 17.6893L36.0234 16.4765C36.2721 16.3194 36.5776 16.5693 36.4728 16.8442L35.6645 18.9673L37.4116 20.4193C37.6377 20.6074 37.4945 20.975 37.2007 20.9605L34.9318 20.8478L34.0907 22.9582C33.9817 23.2313 33.5878 23.2088 33.5108 22.9249L32.9169 20.7321L30.65 20.5843C30.3564 20.5651 30.2562 20.1834 30.5024 20.0225L32.4043 18.78L31.8443 16.5782C31.7719 16.2934 32.104 16.0801 32.3331 16.2645Z" fill="#F5F5F5"/>
<path d="M50.7894 40.5424V17.4061L14.1599 41.4046H49.9272C50.4033 41.4046 50.7894 41.0186 50.7894 40.5424Z" fill="#FF4B55"/>
</g>
<defs>
<clipPath id="clip0_108_47579">
<rect width="50" height="50" fill="white" transform="translate(0.789062 0.0253906)"/>
</clipPath>
</defs>
</svg>
