<svg width="51" height="51" viewBox="0 0 51 51" fill="none" xmlns="http://www.w3.org/2000/svg">
<g clip-path="url(#clip0_108_47570)">
<path d="M49.2214 41.4046H0.945665C0.469592 41.4046 0.0835571 41.0186 0.0835571 40.5425V9.50811C0.0835571 9.03204 0.469592 8.64601 0.945665 8.64601H49.2215C49.6975 8.64601 50.0836 9.03204 50.0836 9.50811V40.5425C50.0835 41.0187 49.6974 41.4046 49.2214 41.4046Z" fill="#FF4B55"/>
<path d="M0.945665 8.64609H24.2215C24.6976 8.64609 25.0836 9.03213 25.0836 9.5082V24.1633C25.0836 24.6394 24.6976 25.0255 24.2215 25.0255H0.945665C0.469592 25.0254 0.0835571 24.6393 0.0835571 24.1632V9.5081C0.0835571 9.03203 0.469592 8.64609 0.945665 8.64609Z" fill="#41479B"/>
<path d="M12.367 19.322L11.9712 20.5086L10.7203 20.5182C10.5584 20.5195 10.4912 20.7263 10.6215 20.8224L11.6278 21.5654L11.2505 22.758C11.2017 22.9124 11.3775 23.0401 11.5092 22.9459L12.5269 22.2185L13.5446 22.9459C13.6764 23.04 13.8521 22.9124 13.8033 22.758L13.426 21.5654L14.4323 20.8224C14.5625 20.7262 14.4954 20.5194 14.3334 20.5182L13.0826 20.5086L12.6868 19.322C12.6355 19.1683 12.4183 19.1683 12.367 19.322Z" fill="#F5F5F5"/>
<path d="M12.3979 10.0696L12.0778 11.0296L11.066 11.0375C10.9349 11.0385 10.8806 11.2057 10.986 11.2835L11.8 11.8846L11.4948 12.8493C11.4553 12.9742 11.5975 13.0775 11.7041 13.0014L12.5272 12.413L13.3504 13.0014C13.4569 13.0775 13.5992 12.9742 13.5596 12.8493L13.2545 11.8846L14.0684 11.2835C14.1738 11.2057 14.1195 11.0385 13.9885 11.0375L12.9766 11.0296L12.6565 10.0696C12.6151 9.94532 12.4394 9.94532 12.3979 10.0696Z" fill="#F5F5F5"/>
<path d="M17.5162 12.9253L17.1961 13.8853L16.1843 13.8932C16.0532 13.8942 15.9989 14.0613 16.1043 14.1392L16.9183 14.7402L16.6131 15.705C16.5735 15.8299 16.7158 15.9332 16.8224 15.857L17.6455 15.2687L18.4687 15.857C18.5752 15.9332 18.7175 15.8299 18.6779 15.705L18.3728 14.7402L19.1867 14.1392C19.2921 14.0613 19.2378 13.8942 19.1067 13.8932L18.0949 13.8853L17.7748 12.9253C17.7334 12.8009 17.5577 12.8009 17.5162 12.9253Z" fill="#F5F5F5"/>
<path d="M7.38706 14.0567L7.06695 15.0167L6.05513 15.0246C5.92408 15.0256 5.86978 15.1928 5.97515 15.2706L6.78912 15.8717L6.48394 16.8364C6.44439 16.9613 6.58668 17.0646 6.69322 16.9885L7.51636 16.4001L8.3395 16.9885C8.44605 17.0646 8.58833 16.9613 8.54878 16.8364L8.24361 15.8717L9.05757 15.2706C9.16294 15.1928 9.10864 15.0256 8.97759 15.0246L7.96577 15.0167L7.64566 14.0567C7.60425 13.9324 7.42847 13.9324 7.38706 14.0567Z" fill="#F5F5F5"/>
<path d="M15.3099 17.1903L15.1301 17.7292L14.5621 17.7336C14.4886 17.7342 14.4581 17.828 14.5173 17.8718L14.9743 18.2092L14.803 18.7508C14.7808 18.8209 14.8606 18.8789 14.9204 18.8361L15.3826 18.5059L15.8447 18.8361C15.9044 18.8789 15.9843 18.8209 15.9621 18.7508L15.7909 18.2092L16.2478 17.8718C16.307 17.8281 16.2765 17.7343 16.203 17.7336L15.635 17.7292L15.4552 17.1903C15.4319 17.1205 15.3331 17.1205 15.3099 17.1903Z" fill="#F5F5F5"/>
</g>
<defs>
<clipPath id="clip0_108_47570">
<rect width="50" height="50" fill="white" transform="translate(0.0820312 0.0253906)"/>
</clipPath>
</defs>
</svg>
