<svg width="51" height="51" viewBox="0 0 51 51" fill="none" xmlns="http://www.w3.org/2000/svg">
<g clip-path="url(#clip0_108_47498)">
<path d="M50.5123 25.0253H0.51236V9.50801C0.51236 9.03194 0.898394 8.64591 1.37447 8.64591H49.6503C50.1263 8.64591 50.5124 9.03194 50.5124 9.50801L50.5123 25.0253Z" fill="#F5F5F5"/>
<path d="M0.51236 25.0253H50.5123V40.5425C50.5123 41.0186 50.1262 41.4046 49.6502 41.4046H1.37447C0.898394 41.4046 0.51236 41.0186 0.51236 40.5425V25.0253Z" fill="#82AFFF"/>
<path d="M25.5924 32.0546C25.4464 32.0482 21.9995 31.8719 20.2696 29.5018C19.2614 28.1208 19.0602 26.2839 19.6717 24.0422L19.9186 24.1096C19.329 26.272 19.5163 28.0348 20.4757 29.35C22.1317 31.6204 25.5688 31.7972 25.6036 31.7987L25.5924 32.0546Z" fill="#B46446"/>
<path d="M19.6681 23.0483C19.4982 23.4909 19.537 23.9545 19.7337 24.3059C20.1152 24.1765 20.4541 23.8579 20.6242 23.4153C20.7941 22.9726 20.7553 22.509 20.5585 22.1576C20.177 22.287 19.838 22.6055 19.6681 23.0483Z" fill="#41AA5A"/>
<path d="M21.8277 29.1682C21.639 29.4794 21.5895 29.8967 21.7293 30.3018C21.8598 30.6803 22.1291 30.9595 22.4413 31.1004C22.138 30.9414 21.7524 30.9017 21.3739 31.0323C20.9688 31.1719 20.6707 31.4681 20.5418 31.8084C20.8531 31.997 21.2703 32.0466 21.6754 31.9068C22.0805 31.7671 22.3786 31.4709 22.5075 31.1306L22.5071 31.1304C22.6942 30.8196 22.7432 30.4039 22.6039 30.0002C22.4642 29.5952 22.1681 29.297 21.8277 29.1682Z" fill="#41AA5A"/>
<path d="M21.0892 28.0385C20.7982 28.257 20.5967 28.6257 20.5753 29.0536C20.5553 29.4535 20.7011 29.813 20.9381 30.0601C20.7159 29.7995 20.3728 29.6188 19.9732 29.5988C19.5453 29.5773 19.1583 29.741 18.9118 30.0088C19.1303 30.2998 19.499 30.5014 19.9268 30.5228C20.3548 30.5443 20.7418 30.3805 20.9883 30.1127C20.9882 30.1126 20.9881 30.1125 20.9881 30.1125C21.2774 29.8937 21.4778 29.5263 21.4993 29.0998C21.5207 28.6719 21.357 28.2848 21.0892 28.0385Z" fill="#41AA5A"/>
<path d="M20.7699 26.7649C20.4179 26.8573 20.092 27.1228 19.9108 27.5109C19.7413 27.8736 19.7407 28.2615 19.867 28.5798C19.7595 28.2547 19.5101 27.9578 19.1474 27.7884C18.7591 27.607 18.339 27.6125 18.0098 27.7675C18.1023 28.1194 18.3677 28.4453 18.7558 28.6266C19.1441 28.8079 19.5642 28.8025 19.8934 28.6475C19.8934 28.6475 19.8933 28.6472 19.8932 28.6471C20.2439 28.5537 20.5681 28.2892 20.7488 27.9024C20.9303 27.5145 20.925 27.0941 20.7699 26.7649Z" fill="#41AA5A"/>
<path d="M20.9511 25.501C20.5889 25.465 20.191 25.6003 19.8859 25.901C19.6006 26.182 19.4648 26.5454 19.4723 26.8877C19.4849 26.5456 19.3545 26.1804 19.0736 25.8952C18.7728 25.59 18.3771 25.4487 18.0145 25.4793C17.9784 25.8415 18.1137 26.2392 18.4145 26.5445C18.7153 26.8499 19.111 26.991 19.4736 26.9605C19.4736 26.9605 19.4736 26.9602 19.4736 26.9599C19.8348 26.9945 20.2309 26.8597 20.5351 26.56C20.8405 26.2594 20.9817 25.8636 20.9511 25.501Z" fill="#41AA5A"/>
<path d="M21.2069 24.2981C20.8558 24.2026 20.441 24.2702 20.0902 24.5162C19.7624 24.7462 19.5684 25.0821 19.5192 25.421C19.5882 25.0857 19.52 24.704 19.2902 24.3763C19.0442 24.0255 18.6774 23.8207 18.3146 23.7908C18.2191 24.142 18.2867 24.5568 18.5327 24.9075C18.7787 25.2583 19.1456 25.4631 19.5084 25.493C19.5084 25.4928 19.5084 25.4927 19.5084 25.4927C19.8588 25.5865 20.2719 25.519 20.6215 25.2738C20.9723 25.0277 21.1771 24.6608 21.2069 24.2981Z" fill="#41AA5A"/>
<path d="M21.3088 31.2013C21.456 31.2013 21.5755 31.0818 21.5755 30.9346C21.5755 30.7873 21.456 30.6679 21.3088 30.6679C21.1615 30.6679 21.0421 30.7873 21.0421 30.9346C21.0421 31.0818 21.1615 31.2013 21.3088 31.2013Z" fill="#FFE15A"/>
<path d="M22.534 31.3507C22.6813 31.3507 22.8007 31.2313 22.8007 31.084C22.8007 30.9367 22.6813 30.8173 22.534 30.8173C22.3867 30.8173 22.2673 30.9367 22.2673 31.084C22.2673 31.2313 22.3867 31.3507 22.534 31.3507Z" fill="#FFE15A"/>
<path d="M20.6046 29.1856C20.7519 29.1856 20.8713 29.0662 20.8713 28.9189C20.8713 28.7716 20.7519 28.6522 20.6046 28.6522C20.4573 28.6522 20.3379 28.7716 20.3379 28.9189C20.3379 29.0662 20.4573 29.1856 20.6046 29.1856Z" fill="#FFE15A"/>
<path d="M18.9081 27.1798C19.0554 27.1798 19.1748 27.0604 19.1748 26.9131C19.1748 26.7658 19.0554 26.6464 18.9081 26.6464C18.7609 26.6464 18.6414 26.7658 18.6414 26.9131C18.6414 27.0604 18.7609 27.1798 18.9081 27.1798Z" fill="#FFE15A"/>
<path d="M20.0926 25.8223C20.2399 25.8223 20.3593 25.7029 20.3593 25.5556C20.3593 25.4084 20.2399 25.2889 20.0926 25.2889C19.9453 25.2889 19.8259 25.4084 19.8259 25.5556C19.8259 25.7029 19.9453 25.8223 20.0926 25.8223Z" fill="#FFE15A"/>
<path d="M19.6436 24.4298C19.7909 24.4298 19.9103 24.3104 19.9103 24.1631C19.9103 24.0158 19.7909 23.8964 19.6436 23.8964C19.4963 23.8964 19.3769 24.0158 19.3769 24.1631C19.3769 24.3104 19.4963 24.4298 19.6436 24.4298Z" fill="#FFE15A"/>
<path d="M25.6031 32.0545L25.5919 31.7985C25.6265 31.7972 29.0637 31.6202 30.7198 29.3498C31.6792 28.0348 31.8665 26.2717 31.2768 24.1093L31.5238 24.042C32.1351 26.2837 31.9339 28.1207 30.9258 29.5016C29.1961 31.8719 25.7492 32.0483 25.6031 32.0545Z" fill="#B46446"/>
<path d="M31.5244 23.0483C31.6943 23.4909 31.6555 23.9545 31.4588 24.3059C31.0773 24.1765 30.7384 23.8579 30.5683 23.4153C30.3984 22.9726 30.4372 22.509 30.634 22.1576C31.0154 22.287 31.3544 22.6055 31.5244 23.0483Z" fill="#41AA5A"/>
<path d="M29.3654 29.1682C29.5541 29.4794 29.6036 29.8967 29.4638 30.3018C29.3333 30.6803 29.064 30.9595 28.7519 31.1004C29.0551 30.9414 29.4407 30.9017 29.8193 31.0323C30.2243 31.1719 30.5224 31.4681 30.6513 31.8084C30.3401 31.997 29.9229 32.0466 29.5177 31.9068C29.1126 31.7671 28.8146 31.4709 28.6857 31.1306C28.6858 31.1305 28.686 31.1305 28.686 31.1305C28.4991 30.8195 28.4501 30.4038 28.5893 30.0002C28.7289 29.5952 29.0251 29.297 29.3654 29.1682Z" fill="#41AA5A"/>
<path d="M30.1037 28.0385C30.3948 28.257 30.5963 28.6257 30.6177 29.0536C30.6377 29.4535 30.4919 29.813 30.2549 30.0601C30.4771 29.7995 30.8201 29.6188 31.2198 29.5988C31.6477 29.5773 32.0347 29.741 32.2812 30.0088C32.0627 30.2998 31.694 30.5014 31.266 30.5228C30.8381 30.5443 30.4511 30.3805 30.2046 30.1127C30.2047 30.1126 30.2048 30.1125 30.2048 30.1125C29.9155 29.8937 29.715 29.5263 29.6936 29.0998C29.6722 28.6719 29.836 28.2848 30.1037 28.0385Z" fill="#41AA5A"/>
<path d="M30.4228 26.7649C30.7747 26.8573 31.1006 27.1228 31.2819 27.5109C31.4514 27.8736 31.452 28.2615 31.3257 28.5798C31.4331 28.2547 31.6825 27.9578 32.0452 27.7884C32.4335 27.607 32.8536 27.6125 33.1828 27.7675C33.0903 28.1194 32.8249 28.4453 32.4368 28.6266C32.0485 28.8079 31.6284 28.8025 31.2992 28.6475C31.2992 28.6475 31.2993 28.6472 31.2994 28.6471C30.9487 28.5537 30.6245 28.2892 30.4439 27.9024C30.2622 27.5145 30.2677 27.0941 30.4228 26.7649Z" fill="#41AA5A"/>
<path d="M30.242 25.501C30.6042 25.465 31.0021 25.6003 31.3072 25.901C31.5925 26.182 31.7283 26.5454 31.7208 26.8877C31.7082 26.5456 31.8386 26.1804 32.1195 25.8952C32.4203 25.59 32.816 25.4487 33.1786 25.4793C33.2146 25.8415 33.0794 26.2392 32.7786 26.5445C32.4778 26.8499 32.0821 26.991 31.7195 26.9605C31.7195 26.9605 31.7195 26.9602 31.7195 26.9599C31.3583 26.9945 30.9622 26.8597 30.658 26.56C30.3526 26.2594 30.2114 25.8636 30.242 25.501Z" fill="#41AA5A"/>
<path d="M29.9858 24.2981C30.337 24.2026 30.7517 24.2702 31.1025 24.5162C31.4303 24.7462 31.6244 25.0821 31.6736 25.421C31.6046 25.0857 31.6727 24.704 31.9025 24.3763C32.1485 24.0255 32.5154 23.8207 32.8782 23.7908C32.9737 24.142 32.906 24.5568 32.66 24.9075C32.414 25.2583 32.0471 25.4631 31.6843 25.493C31.6843 25.4928 31.6843 25.4927 31.6843 25.4927C31.334 25.5865 30.9209 25.519 30.5713 25.2738C30.2205 25.0277 30.0157 24.6608 29.9858 24.2981Z" fill="#41AA5A"/>
<path d="M29.8857 31.2013C30.033 31.2013 30.1524 31.0818 30.1524 30.9346C30.1524 30.7873 30.033 30.6679 29.8857 30.6679C29.7384 30.6679 29.619 30.7873 29.619 30.9346C29.619 31.0818 29.7384 31.2013 29.8857 31.2013Z" fill="#FFE15A"/>
<path d="M28.658 31.3507C28.8053 31.3507 28.9247 31.2313 28.9247 31.084C28.9247 30.9367 28.8053 30.8173 28.658 30.8173C28.5107 30.8173 28.3913 30.9367 28.3913 31.084C28.3913 31.2313 28.5107 31.3507 28.658 31.3507Z" fill="#FFE15A"/>
<path d="M30.5885 29.1856C30.7358 29.1856 30.8552 29.0662 30.8552 28.9189C30.8552 28.7716 30.7358 28.6522 30.5885 28.6522C30.4412 28.6522 30.3218 28.7716 30.3218 28.9189C30.3218 29.0662 30.4412 29.1856 30.5885 29.1856Z" fill="#FFE15A"/>
<path d="M32.2849 27.1798C32.4322 27.1798 32.5516 27.0604 32.5516 26.9131C32.5516 26.7658 32.4322 26.6464 32.2849 26.6464C32.1376 26.6464 32.0182 26.7658 32.0182 26.9131C32.0182 27.0604 32.1376 27.1798 32.2849 27.1798Z" fill="#FFE15A"/>
<path d="M31.1015 25.8223C31.2488 25.8223 31.3682 25.7029 31.3682 25.5556C31.3682 25.4084 31.2488 25.2889 31.1015 25.2889C30.9542 25.2889 30.8348 25.4084 30.8348 25.5556C30.8348 25.7029 30.9542 25.8223 31.1015 25.8223Z" fill="#FFE15A"/>
<path d="M31.5505 24.4298C31.6978 24.4298 31.8172 24.3104 31.8172 24.1631C31.8172 24.0158 31.6978 23.8964 31.5505 23.8964C31.4032 23.8964 31.2838 24.0158 31.2838 24.1631C31.2838 24.3104 31.4032 24.4298 31.5505 24.4298Z" fill="#FFE15A"/>
<path d="M27.099 23.096H24.0399C23.0877 23.096 22.3158 23.8679 22.3158 24.8201V27.5149C22.3158 28.4673 23.0877 29.239 24.0399 29.239H27.099C28.0512 29.239 28.8231 28.4673 28.8231 27.5149V24.8201C28.8231 23.8679 28.0513 23.096 27.099 23.096Z" fill="#8CD7FF"/>
<path d="M26.0742 25.4411V25.7825H25.733V25.4411H25.4701V25.7825H25.1288V25.4411H24.9153V26.1238L25.086 26.34V28.8545H26.11V26.34L26.2806 26.1238V25.4411H26.0742Z" fill="#F5F5F5"/>
<path d="M25.6477 24.3602C25.8165 24.2784 25.8611 24.6234 25.8611 24.6234C26.2166 24.4456 26.1238 24.157 26.0389 24.019C25.9251 23.8341 25.47 23.763 25.278 24.1471C25.0861 24.5311 25.6052 25.292 25.6052 25.292C25.6334 25.0572 25.4272 24.467 25.6477 24.3602Z" fill="#F5F5F5"/>
<path d="M27.8287 26.0775V26.4189H27.4873V26.0775H27.2245V26.4189H26.8831V26.0775H26.6696V26.7603L26.8403 26.9764V29.4909H27.8643V26.9764L28.0349 26.7603V26.0775H27.8287Z" fill="#F5F5F5"/>
<path d="M27.4026 24.9967C27.5715 24.9148 27.616 25.2599 27.616 25.2599C27.9716 25.082 27.8788 24.7935 27.7938 24.6555C27.6801 24.4705 27.225 24.3994 27.033 24.7835C26.841 25.1676 27.3601 25.9284 27.3601 25.9284C27.3885 25.6936 27.1823 25.1034 27.4026 24.9967Z" fill="#F5F5F5"/>
<path d="M24.3197 26.0775V26.4189H23.9783V26.0775H23.7155V26.4189H23.3742V26.0775H23.1606V26.7603L23.3313 26.9764V29.4909H24.3553V26.9764L24.526 26.7603V26.0775H24.3197Z" fill="#F5F5F5"/>
<path d="M23.8929 24.9967C24.0618 24.9148 24.1063 25.2599 24.1063 25.2599C24.4619 25.082 24.3691 24.7935 24.2841 24.6555C24.1704 24.4705 23.7153 24.3994 23.5233 24.7835C23.3313 25.1676 23.8504 25.9284 23.8504 25.9284C23.8789 25.6936 23.6726 25.1034 23.8929 24.9967Z" fill="#F5F5F5"/>
<path d="M28.3982 29.0366C28.1703 28.9239 27.9171 28.8546 27.6457 28.8546C27.3547 28.8546 27.085 28.9342 26.8453 29.0626C26.5336 28.7267 26.092 28.5133 25.5976 28.5133C25.1032 28.5133 24.6618 28.7267 24.35 29.0626C24.1102 28.9342 23.8405 28.8546 23.5496 28.8546C23.278 28.8546 23.0249 28.9239 22.797 29.0366C23.2843 29.9303 24.2175 31.3746 25.5976 31.9265C26.9777 31.3746 27.9109 29.9303 28.3982 29.0366Z" fill="#6EC86E"/>
<path d="M25.5845 17.5987L25.6007 17.5907C25.6007 17.5907 25.5953 17.592 25.5845 17.5987Z" fill="#FFE15A"/>
<path d="M25.5996 17.5907L25.6158 17.5987C25.605 17.592 25.5996 17.5907 25.5996 17.5907Z" fill="#FFE15A"/>
<path d="M28.8744 19.052C28.7784 18.4974 28.0638 18.4013 27.2424 18.348C26.4211 18.2947 26.0691 17.8254 26.0691 17.8254H25.1304C25.1304 17.8254 24.7784 18.2947 23.9571 18.348C23.1358 18.4013 22.421 18.4973 22.325 19.052C22.229 19.6066 22.933 20.4813 22.933 20.4813L23.5517 19.9801C23.5517 19.9801 22.7944 19.2548 23.1676 18.9881C23.5363 18.7247 24.6112 18.9071 25.0899 18.2749C25.0697 18.407 25.0767 18.5701 25.1586 18.7711C25.3151 19.1552 25.2582 19.6386 25.2582 19.6386H25.5996H25.941C25.941 19.6386 25.8841 19.1551 26.0407 18.7711C26.1226 18.5701 26.1298 18.4068 26.1094 18.2749C26.5882 18.9071 27.6631 18.7247 28.0317 18.9881C28.405 19.2548 27.6476 19.9801 27.6476 19.9801L28.2662 20.4813C28.2664 20.4813 28.9704 19.6066 28.8744 19.052Z" fill="#FFE15A"/>
<path d="M25.948 15.9053H25.7702V15.7134C25.7702 15.619 25.6938 15.5427 25.5995 15.5427C25.5051 15.5427 25.4288 15.619 25.4288 15.7134V15.9053H25.2438C25.1495 15.9053 25.0731 15.9817 25.0731 16.0761C25.0731 16.1704 25.1495 16.2468 25.2438 16.2468H25.4288V16.7374C25.4288 16.8317 25.5051 16.9081 25.5995 16.9081C25.6938 16.9081 25.7702 16.8317 25.7702 16.7374V16.2468H25.948C26.0423 16.2468 26.1187 16.1704 26.1187 16.0761C26.1187 15.9817 26.0422 15.9053 25.948 15.9053Z" fill="#FFE15A"/>
<path d="M25.597 17.2495C25.7855 17.2495 25.9384 17.0966 25.9384 16.9081C25.9384 16.7195 25.7855 16.5667 25.597 16.5667C25.4084 16.5667 25.2556 16.7195 25.2556 16.9081C25.2556 17.0966 25.4084 17.2495 25.597 17.2495Z" fill="#FFF0E1"/>
<path d="M23.1516 23.7772C23.2891 23.8459 23.4496 23.9053 23.6138 23.9053C24.1793 23.9053 24.4564 23.5854 24.4564 23.0199C24.4564 22.4544 24.1152 22.0279 23.5498 22.0279C23.5498 22.0279 23.486 22.029 23.3839 22.0446C23.3619 22.0481 23.3401 22.0515 23.3187 22.0563C22.775 22.1601 21.4315 22.6609 21.1605 25.0999C20.7817 28.5093 23.5498 31.5852 25.5979 32.2678V31.9264C25.5978 31.9265 20.7622 28.2288 23.1516 23.7772Z" fill="#FFC75A"/>
<path d="M23.5501 22.3692L25.5982 23.0519L23.5501 23.7345V22.3692Z" fill="#FFC75A"/>
<path d="M27.6462 23.7345L25.5983 23.0519L27.6462 22.3692V23.7345Z" fill="#FFE15A"/>
<path d="M21.4997 25.1377C21.7442 22.9367 22.8979 22.4842 23.3948 22.3891C23.4057 22.3867 23.4168 22.385 23.4356 22.382C23.4981 22.3724 23.5411 22.3698 23.5546 22.3692C23.9288 22.3717 24.1756 22.6537 24.1756 22.995C24.1756 23.3714 23.9551 23.514 23.7348 23.5212C23.7348 23.5212 23.9126 23.1513 23.5498 23.0518C23.3051 22.9845 22.9952 23.1799 23.0236 23.5353C23.0437 23.7852 23.2809 24.0259 23.5498 24.0259C24.1153 24.0259 24.5738 23.6173 24.5738 23.0517C24.5738 22.4862 24.1153 22.0277 23.5498 22.0277C23.5498 22.0277 23.486 22.0288 23.3839 22.0444C23.3619 22.0479 23.3401 22.0512 23.3187 22.0561C22.775 22.1598 21.4315 22.6607 21.1605 25.0997C20.7817 28.509 23.5498 31.585 25.5979 32.2676V31.9262C25.5979 31.9262 24.8726 31.5635 24.3767 31.2113C22.8445 30.1231 21.2232 27.6269 21.4997 25.1377Z" fill="#FFE15A"/>
<path d="M28.0427 23.7772C27.9052 23.8458 27.7447 23.9052 27.5805 23.9052C27.015 23.9052 26.7379 23.5854 26.7379 23.0199C26.7379 22.4543 27.0791 22.0279 27.6445 22.0279C27.6445 22.0279 27.7083 22.0289 27.8104 22.0446C27.8324 22.0481 27.8542 22.0514 27.8757 22.0563C28.4193 22.16 29.7629 22.6609 30.0339 25.0998C30.4127 28.5092 27.6445 31.5852 25.5965 32.2678V31.9264C25.5965 31.9265 30.432 28.2287 28.0427 23.7772Z" fill="#FFC75A"/>
<path d="M27.6444 22.3692L25.5965 23.0519L27.6444 23.7345V22.3692Z" fill="#FFC75A"/>
<path d="M29.6953 25.1376C29.4507 22.9367 28.2971 22.4841 27.8002 22.3891C27.7893 22.3867 27.7782 22.385 27.7594 22.382C27.6969 22.3724 27.6539 22.3698 27.6404 22.3692C27.2662 22.3717 27.0194 22.6536 27.0194 22.995C27.0194 23.3713 27.2399 23.514 27.4602 23.5211C27.4602 23.5211 27.2824 23.1513 27.6452 23.0518C27.8899 22.9845 28.1998 23.1798 28.1713 23.5353C28.1513 23.7852 27.9141 24.0259 27.6452 24.0259C27.0797 24.0259 26.6212 23.6172 26.6212 23.0517C26.6212 22.4862 27.0797 22.0277 27.6452 22.0277C27.6452 22.0277 27.7089 22.0287 27.8111 22.0444C27.8331 22.0479 27.8548 22.0512 27.8763 22.0561C28.42 22.1598 29.7635 22.6607 30.0345 25.0996C30.4133 28.509 27.6452 31.585 25.5971 32.2676V31.9262C25.5971 31.9262 26.3224 31.5635 26.8183 31.2112C28.3505 30.1231 29.9719 27.6269 29.6953 25.1376Z" fill="#FFE15A"/>
<path d="M25.5968 23.394C25.7854 23.394 25.9382 23.2411 25.9382 23.0526C25.9382 22.864 25.7854 22.7112 25.5968 22.7112C25.4083 22.7112 25.2554 22.864 25.2554 23.0526C25.2554 23.2411 25.4083 23.394 25.5968 23.394Z" fill="#FFE15A"/>
<path d="M28.0349 20.3105C28.1255 20.0759 28.0029 19.7612 28.0029 19.7612C27.6882 19.7506 27.4696 19.9799 27.4696 19.9799C27.4962 19.6972 27.3736 19.4412 27.3736 19.4412C26.9682 19.4891 26.8349 19.7293 26.8349 19.7293C26.8136 19.2866 26.5468 19.1053 26.5468 19.1053C26.1948 19.2119 26.0882 19.5959 26.0882 19.5959C26.0349 19.1586 25.5976 18.9559 25.5976 18.9559C25.5976 18.9559 25.1603 19.1587 25.107 19.5959C25.107 19.5959 25.0003 19.2118 24.6484 19.1053C24.6484 19.1053 24.3817 19.2866 24.3603 19.7293C24.3603 19.7293 24.227 19.4893 23.8216 19.4412C23.8216 19.4412 23.699 19.6972 23.7256 19.9799C23.7256 19.9799 23.507 19.7506 23.1923 19.7612C23.1923 19.7612 23.0697 20.0759 23.1603 20.3105C23.1603 20.3105 22.803 20.1986 22.5096 20.3691C22.5096 20.3691 23.0473 20.5771 23.2265 20.8331H27.9688C28.1479 20.577 28.6857 20.3691 28.6857 20.3691C28.3923 20.1985 28.0349 20.3105 28.0349 20.3105Z" fill="#FFC75A"/>
<path d="M27.9687 20.8333C27.9687 20.9868 27.6099 21.4616 27.6099 21.4616C27.6099 21.4616 26.4464 21.6235 25.5976 21.6235C24.7433 21.6235 23.5772 21.4571 23.5772 21.4571C23.5772 21.4571 23.2264 20.9849 23.2264 20.8331C23.2264 20.3966 24.288 20.0426 25.5975 20.0426C26.9071 20.0427 27.9687 20.3967 27.9687 20.8333Z" fill="#FFE15A"/>
<path d="M25.5969 22.0282C26.7282 22.0282 27.6454 21.7226 27.6454 21.3456C27.6454 20.9686 26.7282 20.663 25.5969 20.663C24.4655 20.663 23.5483 20.9686 23.5483 21.3456C23.5483 21.7226 24.4655 22.0282 25.5969 22.0282Z" fill="#FFC75A"/>
<path d="M26.099 17.5586C26.099 17.3346 25.9319 17.0501 25.5977 17.2492C25.2635 17.0501 25.0965 17.3346 25.0965 17.5586C25.0965 17.7826 24.8404 17.8147 24.8084 17.7933C24.8084 17.7933 25.0218 18.0706 25.267 17.8893C25.267 17.8893 25.3985 18.0813 25.5976 18.0813C25.7968 18.0813 25.9284 17.8893 25.9284 17.8893C26.1738 18.0706 26.387 17.7933 26.387 17.7933C26.3551 17.8146 26.099 17.7825 26.099 17.5586Z" fill="#FFC75A"/>
<path d="M24.9166 34.1028C24.8975 34.1028 24.878 34.0985 24.8596 34.0891C24.7962 34.0577 24.7706 33.9808 24.8023 33.9174L25.4849 32.5521C25.5165 32.4894 25.5934 32.4631 25.6566 32.4951C25.72 32.5264 25.7456 32.6034 25.7139 32.6667L25.0313 34.0321C25.0087 34.0768 24.9636 34.1028 24.9166 34.1028Z" fill="#B46446"/>
<path d="M26.2821 34.1027C26.2351 34.1027 26.19 34.0767 26.1675 34.032L25.4848 32.6666C25.4532 32.6033 25.4788 32.5263 25.5422 32.495C25.6053 32.4626 25.6821 32.4889 25.7138 32.552L26.3965 33.9173C26.4281 33.9807 26.4025 34.0577 26.3391 34.089C26.3207 34.0984 26.3012 34.1027 26.2821 34.1027Z" fill="#B46446"/>
<path d="M28.6709 32.908C26.6478 33.3602 24.5499 33.3602 22.5268 32.908C22.5268 32.5666 22.5268 31.9277 22.5268 31.5864C24.5499 32.0386 26.6478 32.0386 28.6709 31.5864C28.6709 31.9278 28.6709 32.5668 28.6709 32.908Z" fill="#F5F5F5"/>
<path d="M24.2192 32.4105C22.9129 32.6626 21.5741 32.7317 20.242 32.6073C20.2645 32.7833 21.3179 33.3063 21.3179 33.3063C21.3179 33.3063 20.3884 33.7555 20.4091 33.9182C21.6843 34.0374 22.966 33.9805 24.2192 33.7545V32.4105Z" fill="#F5F5F5"/>
<path d="M26.9833 32.4105C28.2897 32.6626 29.6284 32.7317 30.9605 32.6073C30.9381 32.7833 29.8847 33.3063 29.8847 33.3063C29.8847 33.3063 30.8142 33.7555 30.7935 33.9182C29.5183 34.0374 28.2365 33.9805 26.9833 33.7545V32.4105Z" fill="#F5F5F5"/>
</g>
<defs>
<clipPath id="clip0_108_47498">
<rect width="50" height="50" fill="white" transform="translate(0.511719 0.0253906)"/>
</clipPath>
</defs>
</svg>
