<svg width="51" height="51" viewBox="0 0 51 51" fill="none" xmlns="http://www.w3.org/2000/svg">
<g clip-path="url(#clip0_108_47491)">
<path d="M49.9442 41.4045H1.66847C1.1924 41.4045 0.806366 41.0185 0.806366 40.5424V9.50811C0.806366 9.03204 1.1924 8.64601 1.66847 8.64601H49.9443C50.4203 8.64601 50.8064 9.03204 50.8064 9.50811V40.5424C50.8063 41.0186 50.4202 41.4045 49.9442 41.4045Z" fill="#73AF00"/>
<path d="M50.8063 16.4042H0.806366V33.6454H50.8063V16.4042Z" fill="#FFE15A"/>
<path d="M1.06672 41.1573L18.0476 25.0253L1.06672 8.89338C0.906659 9.04983 0.806366 9.26662 0.806366 9.50813V40.5424C0.806366 40.784 0.906659 41.0007 1.06672 41.1573Z" fill="#FF4B55"/>
<path d="M27.984 21.0963L28.8675 23.7453L31.6598 23.767C32.0214 23.7698 32.1713 24.2311 31.8805 24.446L29.6342 26.1048L30.4766 28.7672C30.5856 29.1119 30.1932 29.3971 29.899 29.1868L27.6272 27.563L25.3555 29.1868C25.0614 29.3971 24.6688 29.1119 24.7779 28.7672L25.6203 26.1048L23.374 24.446C23.0832 24.2312 23.2331 23.7698 23.5946 23.767L26.387 23.7453L27.2705 21.0963C27.3845 20.7533 27.8696 20.7533 27.984 21.0963Z" fill="#464655"/>
<path d="M40.8751 21.0963L41.7586 23.7453L44.551 23.767C44.9125 23.7698 45.0624 24.2311 44.7716 24.446L42.5253 26.1047L43.3677 28.7671C43.4768 29.1119 43.0843 29.397 42.7902 29.1868L40.5184 27.5629L38.2466 29.1868C37.9526 29.397 37.56 29.1119 37.6691 28.7671L38.5115 26.1047L36.2652 24.446C35.9743 24.2312 36.1243 23.7698 36.4858 23.767L39.2782 23.7453L40.1616 21.0963C40.2755 20.7533 40.7607 20.7533 40.8751 21.0963Z" fill="#464655"/>
</g>
<defs>
<clipPath id="clip0_108_47491">
<rect width="50" height="50" fill="white" transform="translate(0.804688 0.0253906)"/>
</clipPath>
</defs>
</svg>
