<svg width="51" height="51" viewBox="0 0 51 51" fill="none" xmlns="http://www.w3.org/2000/svg">
<g clip-path="url(#clip0_108_47452)">
<path d="M49.4816 8.93929H1.20592C0.729845 8.93929 0.343811 9.32523 0.343811 9.8013V40.8357C0.343811 41.3118 0.729845 41.6978 1.20592 41.6978H49.4817C49.9578 41.6978 50.3438 41.3118 50.3438 40.8357V9.8013C50.3437 9.32523 49.9577 8.93929 49.4816 8.93929Z" fill="#4173CD"/>
<path d="M50.3437 9.8013C50.3437 9.32522 49.9577 8.93919 49.4816 8.93919H45.6241L25.3438 22.2265L5.06343 8.93929H1.20592C0.729845 8.93929 0.343811 9.32522 0.343811 9.8013V12.0314L20.6241 25.3186L0.343811 38.6057V40.8358C0.343811 41.3119 0.729845 41.6979 1.20592 41.6979H5.06343L25.3438 28.4106L45.6241 41.6978H49.4816C49.9577 41.6978 50.3437 41.3118 50.3437 40.8357V38.6056L30.0634 25.3186L50.3437 12.0314V9.8013Z" fill="#F5F5F5"/>
</g>
<defs>
<clipPath id="clip0_108_47452">
<rect width="50" height="50" fill="white" transform="translate(0.34375 0.318604)"/>
</clipPath>
</defs>
</svg>
