<svg width="51" height="51" viewBox="0 0 51 51" fill="none" xmlns="http://www.w3.org/2000/svg">
<g clip-path="url(#clip0_108_47342)">
<path d="M49.9273 41.6979H1.6516C1.17552 41.6979 0.78949 41.3119 0.78949 40.8358V9.8014C0.78949 9.32532 1.17552 8.93929 1.6516 8.93929H49.9274C50.4035 8.93929 50.7895 9.32532 50.7895 9.8014V40.8358C50.7894 41.312 50.4034 41.6979 49.9273 41.6979Z" fill="#FFE15A"/>
<path d="M49.9266 8.93939H1.65091C1.44134 8.93939 1.25629 9.02337 1.10687 9.14779L50.4707 41.4896C50.6607 41.3315 50.7887 41.1024 50.7887 40.8359V9.8014C50.7887 9.32532 50.4027 8.93939 49.9266 8.93939Z" fill="#FF4B55"/>
<path d="M27.4324 23.0093C27.5288 22.9318 27.6086 22.8358 27.5784 22.755C27.5532 22.688 27.4286 22.6258 27.2968 22.56C27.0521 22.4377 26.7252 22.27 26.6167 21.8682C26.6038 21.8669 26.5918 21.8681 26.5785 21.8657C26.471 21.8457 26.404 21.8827 26.3263 22.1351C26.312 22.1811 26.2818 22.255 26.2416 22.3396C26.3221 22.3929 26.5231 22.5168 26.7189 22.5614C27.1068 22.6493 27.3456 22.7992 27.4324 23.0093Z" fill="#FFBE55"/>
<path d="M25.9271 22.8384C26.0429 22.9441 26.1493 23.064 26.2539 23.1979C26.2599 23.2056 26.2664 23.2133 26.2725 23.221C26.5324 23.0217 26.8626 23.0206 27.0925 23.0582C27.0258 22.989 26.896 22.9213 26.6499 22.8652C26.4217 22.8134 26.2006 22.6842 26.0913 22.614C26.0406 22.695 25.9854 22.7718 25.9271 22.8384Z" fill="#FFBE55"/>
<path d="M27.2439 23.982C27.3656 24.0524 27.6102 24.2108 27.822 24.4393C27.8533 24.2636 27.844 24.0302 27.6789 23.8248C27.5377 23.9028 27.3868 23.9522 27.2439 23.982Z" fill="#FFBE55"/>
<path d="M25.2185 21.9282L25.1777 21.9778C24.9744 22.2263 24.7439 22.4972 24.5236 22.7181C24.6576 22.6549 24.8157 22.6086 24.9795 22.5839C25.0381 22.49 25.2166 22.2411 25.436 21.9412C25.383 21.9075 25.2781 21.856 25.2185 21.9282Z" fill="#FFBE55"/>
<path d="M24.4221 23.1877C24.423 23.1893 24.4369 23.2063 24.4758 23.221C24.5432 23.2469 24.6683 23.2559 24.7988 23.1958C25.1787 23.019 25.5623 23.1157 25.9393 23.4805C25.9404 23.4816 25.94 23.4834 25.9411 23.4844C25.9422 23.4855 25.9439 23.4852 25.9449 23.4863C25.9472 23.4884 26.074 23.6158 26.3028 23.7324C26.1929 23.6169 26.0941 23.4991 26.0088 23.3899C25.8721 23.2152 25.7538 23.0645 25.6131 22.9747C25.2559 22.7479 24.6339 22.9466 24.458 23.1323C24.4289 23.1629 24.4221 23.1829 24.4221 23.1877Z" fill="#FFBE55"/>
<path d="M27.3755 23.4132C27.3755 23.4132 27.3746 23.4133 27.3743 23.4135C27.3547 23.4227 27.3334 23.4272 27.3114 23.4277C27.3105 23.4277 27.3095 23.4284 27.3085 23.4284C27.3063 23.4284 27.3043 23.4263 27.302 23.4262C27.2861 23.4255 27.2698 23.4245 27.254 23.4187C27.2488 23.4168 26.7663 23.2468 26.4718 23.4601C26.5542 23.5528 26.6476 23.6383 26.7518 23.7164C26.8965 23.7197 27.3977 23.7111 27.6831 23.4444C27.8273 23.3098 27.8395 23.1628 27.8153 23.0471C27.7087 23.2138 27.5201 23.3444 27.3755 23.4132Z" fill="#FFBE55"/>
<path d="M22.9757 23.2546C22.9514 23.2193 22.9248 23.1887 22.904 23.147C22.8697 23.0784 22.8517 23.0055 22.8335 22.9329C22.7229 23.1102 22.6065 23.3862 22.6773 23.6917C22.7606 23.4941 22.8864 23.3439 22.9757 23.2546Z" fill="#FFBE55"/>
<path d="M25.6703 22.6599C25.8107 22.5133 25.9836 22.1877 26.028 22.0432C26.0707 21.9039 26.2007 21.4801 26.6341 21.5586C26.7306 21.5764 26.802 21.5151 26.8457 21.461C26.7403 21.3408 26.6025 21.2628 26.4829 21.2599C26.3935 21.2514 26.2909 21.3083 26.2114 21.4151C25.8216 21.9404 25.5249 22.3463 25.3643 22.5725C25.4723 22.585 25.5741 22.6166 25.6703 22.6599Z" fill="#FFBE55"/>
<path d="M24.6638 21.7144C24.4221 22.0371 24.1681 22.219 23.9829 22.3519C23.7387 22.527 23.6784 22.5864 23.693 22.722C23.6961 22.7496 23.7079 22.77 23.7325 22.7895C23.7649 22.8153 23.8117 22.8336 23.8648 22.8472C23.868 22.8456 23.8701 22.8428 23.8735 22.8414C24.165 22.7227 24.7456 22.0133 24.9366 21.7801L24.9779 21.7297C25.1801 21.485 25.465 21.583 25.6208 21.6892C25.6746 21.6163 25.7288 21.5427 25.783 21.4695C25.5013 21.1299 25.0359 21.2186 24.6638 21.7144Z" fill="#FFBE55"/>
<path d="M27.122 21.6102C27.076 21.6766 27.0101 21.7457 26.9258 21.7974C27.0033 22.0548 27.2198 22.173 27.4362 22.2808C27.5646 22.3448 27.6855 22.4088 27.7728 22.4992C27.8458 22.2377 27.8363 22.0296 27.7353 21.885C27.5869 21.673 27.2716 21.6215 27.122 21.6102Z" fill="#FFBE55"/>
<path d="M25.9825 30.9615L26.0165 31C26.4456 31.4884 26.8508 31.9602 27.1208 32.3575C27.1127 32.1429 27.098 31.9207 27.0721 31.7663C27.0713 31.7615 27.0708 31.7562 27.0705 31.7512C26.9328 31.5733 26.7844 31.4075 26.628 31.2672C26.1707 30.8585 25.9129 30.4485 25.7686 30.1325C25.7441 30.4043 25.7751 30.7258 25.9825 30.9615Z" fill="#FFBE55"/>
<path d="M25.763 29.385C25.7265 29.3208 25.6933 29.2516 25.6663 29.1746C25.6661 29.1739 25.6663 29.1733 25.666 29.1726C25.6637 29.1717 25.6615 29.1709 25.6591 29.1702C25.5657 29.3321 25.3945 29.4437 25.2115 29.4441C25.2115 29.4441 25.2108 29.4441 25.2106 29.4441C25.1964 29.4441 25.1838 29.4386 25.1701 29.4375C25.1462 29.5427 25.1385 29.6617 25.2051 29.7253C25.2801 29.7975 25.4325 29.7965 25.5122 29.7762C25.5508 29.6114 25.5936 29.4946 25.5991 29.4811C25.6255 29.4153 25.6919 29.3769 25.763 29.385Z" fill="#FFBE55"/>
<path d="M25.4572 30.0975C25.4408 30.0986 25.4257 30.1013 25.4084 30.1013C25.362 30.1013 25.3136 30.095 25.2651 30.0855C25.2365 30.1931 25.2266 30.3146 25.298 30.3877C25.3426 30.4334 25.4078 30.4511 25.4613 30.4544C25.4496 30.3313 25.4468 30.2101 25.4572 30.0975Z" fill="#FFBE55"/>
<path d="M19.6571 23.1511L19.6563 23.1515C19.343 23.2564 18.971 23.2307 18.6456 23.167C18.8354 23.4595 18.9079 23.8122 18.9164 24.14C19.3251 23.6069 19.7776 23.3628 20.1015 23.247C19.9349 23.2322 19.7846 23.2013 19.6571 23.1511Z" fill="#FFBE55"/>
<path d="M27.0428 30.9061C26.9721 30.9006 26.8126 30.8804 26.6232 30.8229C26.6899 30.8934 26.7566 30.9639 26.836 31.035C27.3577 31.5014 27.7819 32.2116 28.059 32.7593C28.1577 32.4059 28.3899 32.1028 28.6395 31.8728C27.9425 31.8267 27.3972 31.3412 27.0428 30.9061Z" fill="#FFBE55"/>
<path d="M23.5148 25.198C23.4006 25.1728 23.2722 25.1254 23.1472 25.0487C23.0637 25.3144 23.0053 25.5605 22.9731 25.7852C23.146 25.7693 23.2767 25.7707 23.3656 25.778C23.4082 25.5396 23.4671 25.3355 23.5148 25.198Z" fill="#FFBE55"/>
<path d="M18.5919 24.4379C18.6293 24.0692 18.6093 23.4806 18.2003 23.127C18.1991 23.1268 18.1979 23.1273 18.1964 23.1271C18.1838 23.1255 17.0145 22.9569 16.234 23.7541C15.9405 24.054 15.7496 24.2888 15.5963 24.4772C15.3884 24.7332 15.2392 24.9169 14.9971 25.0591C15.7296 25.3201 17.5051 25.7599 18.5919 24.4379Z" fill="#FFBE55"/>
<path d="M29.4559 19.7128C29.7826 19.8881 30.3342 20.0947 30.8167 19.8524C30.8174 19.8512 30.8174 19.85 30.8179 19.8487C30.8241 19.8385 31.4267 18.8219 30.9889 17.7957C30.8242 17.4096 30.6802 17.1435 30.5643 16.9299C30.4076 16.6402 30.2947 16.4317 30.2557 16.1535C29.7351 16.7312 28.6495 18.2031 29.4559 19.7128Z" fill="#FFBE55"/>
<path d="M29.0094 31.9716C28.7154 32.1972 28.3004 32.6145 28.323 33.1543C28.3239 33.1557 28.3255 33.1564 28.3265 33.1578C28.3331 33.1676 29.0123 34.1346 30.1278 34.157C30.5485 34.1655 30.8495 34.1436 31.0921 34.1257C31.421 34.1014 31.6568 34.0847 31.9261 34.1626C31.6134 33.451 30.7166 31.8584 29.0094 31.9716Z" fill="#FFBE55"/>
<path d="M26.5801 30.2074C26.5771 30.2012 26.5797 30.1946 26.5776 30.1883L26.3644 30.3702C26.504 30.4571 26.6514 30.5102 26.7773 30.5434C26.6517 30.3507 26.5826 30.2126 26.5801 30.2074Z" fill="#FFBE55"/>
<path d="M25.7008 28.127C25.6416 28.1229 25.5829 28.1166 25.525 28.1064C25.4803 28.1787 25.3822 28.3844 25.5271 28.6439C25.581 28.7406 25.6717 28.8617 25.7981 28.8914C25.8734 28.9084 25.96 28.8832 26.0518 28.8341C25.8648 28.5317 25.7522 28.2652 25.7008 28.127Z" fill="#FFBE55"/>
<path d="M28.8905 22.6388C29.0526 22.5175 29.3482 22.2896 29.6988 21.9899C29.8039 21.3228 30.1931 20.7015 30.5414 20.2594C30.1871 20.3085 29.8239 20.2216 29.5177 20.0908C29.9274 21.1875 29.0404 22.4025 28.874 22.6167C28.8792 22.6244 28.8853 22.631 28.8905 22.6388Z" fill="#FFBE55"/>
<path d="M26.1339 30.1568L26.4163 29.9156C26.2327 29.8523 26.0567 29.7489 25.9129 29.5916C25.9344 29.691 25.9939 29.8953 26.1339 30.1568Z" fill="#FFBE55"/>
<path d="M22.6498 25.8305C22.6854 25.5293 22.7646 25.1937 22.8878 24.8275C22.8088 24.7377 22.7396 24.6282 22.6845 24.4974C22.5387 24.8347 22.3281 25.3867 22.2468 25.9213C22.3949 25.8823 22.5292 25.8523 22.6498 25.8305Z" fill="#FFBE55"/>
<path d="M28.1125 22.0293C28.1479 22.2318 28.1249 22.4649 28.0276 22.7346C28.0861 22.8388 28.1355 22.9839 28.1356 23.1415C28.2588 23.1152 28.2678 23.0404 28.306 22.6323L28.3223 22.4636C28.3377 22.3088 28.3099 22.1906 28.2396 22.113C28.2033 22.0727 28.1581 22.0481 28.1125 22.0293Z" fill="#FFBE55"/>
<path d="M28.079 24.6956C28.1803 24.6746 28.3089 24.6306 28.4115 24.5359C28.5669 24.3924 28.7389 24.0886 28.7107 23.9521C28.7073 23.9351 28.703 23.9241 28.6733 23.9135C28.5606 23.8733 28.5266 23.8878 28.5268 23.8883C28.5199 23.8936 28.5071 23.922 28.4996 23.9387C28.4801 23.9818 28.4537 24.0404 28.3947 24.0789C28.3048 24.1375 28.2198 24.1532 28.1415 24.1536C28.1643 24.371 28.1214 24.5689 28.079 24.6956Z" fill="#FFBE55"/>
<path d="M22.362 23.328C22.3835 23.1849 22.4253 23.0513 22.4817 22.9315C22.1979 22.8254 21.5565 22.6182 21.0326 22.6903C20.2925 22.7899 19.7297 22.707 19.3726 22.6111C19.5436 22.7874 19.8374 22.9707 20.2972 22.9516C21.4378 22.9289 22.0917 23.1868 22.362 23.328Z" fill="#FFBE55"/>
<path d="M20.93 23.2833C20.6601 23.4947 20.461 23.7488 20.325 23.9657C20.7443 23.7483 21.2826 23.5314 21.6387 23.3952C21.4469 23.3466 21.2109 23.3065 20.93 23.2833Z" fill="#FFBE55"/>
<path d="M28.6096 23.5802C28.6577 23.5859 28.71 23.5964 28.7705 23.6174C28.7681 23.6053 28.7661 23.5947 28.763 23.5801C28.744 23.4922 28.7195 23.3708 28.7257 23.1941C28.7256 23.1929 28.7249 23.192 28.7249 23.1909C28.7249 23.1898 28.7255 23.1888 28.7255 23.1876C28.7256 23.1839 28.7249 23.182 28.7252 23.1783C28.7327 23.0144 28.6776 22.8817 28.6054 22.7834C28.5841 22.9943 28.5566 23.1536 28.4818 23.2656C28.5261 23.3361 28.5784 23.4454 28.6096 23.5802Z" fill="#FFBE55"/>
<path d="M29.0128 22.9368C29.0179 22.9596 29.0227 22.9827 29.0262 23.0064C29.9402 22.8824 30.5893 21.963 30.9636 21.2268C30.1681 22.0689 29.2744 22.7449 29.0128 22.9368Z" fill="#FFBE55"/>
<path d="M25.2105 29.1319H25.2107C25.2887 29.1315 25.3683 29.0728 25.4023 28.9952C25.3485 28.9381 25.2978 28.8742 25.2542 28.7959C25.225 28.7437 25.2059 28.6935 25.1884 28.6439C25.1268 28.6813 25.0586 28.7346 25.028 28.8032C25.005 28.8539 25.006 28.9072 25.0308 28.9705C25.0597 29.0441 25.1142 29.1319 25.2105 29.1319Z" fill="#FFBE55"/>
<path d="M21.922 26.0165C21.9842 25.4548 22.1889 24.8735 22.3507 24.485C22.2495 24.5621 22.1233 24.6411 21.9672 24.7159C21.9497 24.7547 21.6347 25.4605 21.515 26.1595C21.6589 26.1047 21.7947 26.0572 21.922 26.0165Z" fill="#FFBE55"/>
<path d="M27.4484 30.9013C27.6304 30.9203 27.7991 30.9118 27.9457 30.8911C27.6679 30.7964 27.3911 30.6709 27.1643 30.5579C27.2445 30.6677 27.3395 30.786 27.4484 30.9013Z" fill="#FFBE55"/>
<path d="M25.2184 28.021C24.4678 27.736 23.8757 26.9283 23.6635 25.901C23.6011 26.2998 23.5971 26.7935 23.8094 27.2365C24.0395 27.7168 24.4951 28.0543 25.1488 28.2531C25.1629 28.1603 25.1894 28.0821 25.2184 28.021Z" fill="#FFBE55"/>
<path d="M29.2116 23.3008C29.195 23.3044 29.177 23.3042 29.1603 23.3073C29.3688 23.5354 30.2069 24.5499 30.4339 26.3202C30.5898 26.3798 30.7351 26.4411 30.8583 26.5032C30.7768 25.7829 30.4508 23.9608 29.2116 23.3008Z" fill="#FFBE55"/>
<path d="M21.1809 26.2935C21.2459 25.7547 21.4354 25.2008 21.5643 24.8725C21.4338 24.9132 21.2886 24.9493 21.1289 24.9796C20.8477 25.4509 20.6772 26.1578 20.5988 26.5568C20.8059 26.4561 20.998 26.3706 21.1809 26.2935Z" fill="#FFBE55"/>
<path d="M26.2307 29.0967C26.1525 29.1423 26.0797 29.1719 26.0127 29.1883C26.1867 29.5328 26.51 29.6503 26.7845 29.6808C26.5626 29.5051 26.3817 29.3008 26.2307 29.0967Z" fill="#FFBE55"/>
<path d="M23.9857 23.2604C24.0243 23.2426 24.0722 23.2289 24.1161 23.2131C24.1153 23.205 24.1133 23.1976 24.1132 23.1892C23.9305 23.1855 23.6916 23.1559 23.5381 23.0337C23.4485 22.9621 23.3949 22.8663 23.3829 22.7562C23.3466 22.4243 23.5674 22.2658 23.801 22.0985C23.8962 22.03 24.0043 21.9508 24.1166 21.8504C23.7747 21.827 23.468 21.9416 23.2777 22.189C23.0893 22.4337 23.0533 22.7473 23.1834 23.0074C23.3608 23.3632 23.7437 23.3274 23.9857 23.2604Z" fill="#FFBE55"/>
<path d="M23.5634 23.6074C23.4726 23.5969 23.3847 23.5686 23.2997 23.5304C23.2865 23.7087 23.2975 23.9508 23.4131 24.0929C23.416 24.0131 23.4258 23.9322 23.4492 23.8523C23.4715 23.776 23.5071 23.6915 23.5634 23.6074Z" fill="#FFBE55"/>
<path d="M24.7328 23.7146C25.1041 23.7438 25.3891 23.6494 25.5588 23.5695C25.2739 23.3663 25.0668 23.4147 24.9297 23.4787C24.7095 23.5811 24.463 23.5747 24.2964 23.4787C24.2349 23.5066 24.1683 23.5343 24.0905 23.5567C23.9163 23.6441 23.8032 23.7683 23.7531 23.9276C23.7372 23.9777 23.7346 24.0272 23.7309 24.0763C23.7341 24.0736 23.7342 24.0686 23.7377 24.0661C24.095 23.8101 24.4295 23.6951 24.7328 23.7146Z" fill="#FFBE55"/>
<path d="M26.4285 28.0138C26.3011 28.064 26.1695 28.1011 26.0338 28.1194C26.1237 28.3337 26.3012 28.6985 26.5821 29.0409C26.7287 28.7941 26.5562 28.2634 26.4285 28.0138Z" fill="#FFBE55"/>
<path d="M23.4653 24.4863C23.134 24.3886 23.0059 24.0846 22.9824 23.7707C22.9111 23.9198 22.8729 24.1062 22.9443 24.3134C23.0881 24.7291 23.402 24.8503 23.5866 24.8887C23.5886 24.8404 23.5908 24.7922 23.5945 24.7441C23.5935 24.743 23.5921 24.7427 23.5911 24.7417C23.548 24.6941 23.5008 24.602 23.4653 24.4863Z" fill="#FFBE55"/>
<path d="M22.356 23.6769C22.3447 23.672 22.3321 23.6731 22.3218 23.6655C22.32 23.6643 22.2485 23.6166 22.1152 23.5561C21.6461 23.8092 21.3827 24.3256 21.2623 24.6332C22.1122 24.4273 22.3817 24.0407 22.4343 23.9503C22.3956 23.8584 22.3695 23.7669 22.356 23.6769Z" fill="#FFBE55"/>
<path d="M27.8475 27.1064C28.0051 26.7649 28.0391 26.3738 27.9557 25.9407C27.7671 26.8087 27.3061 27.5161 26.7088 27.876C26.736 27.9308 26.7662 27.9986 26.7977 28.079C27.0321 27.9763 27.5799 27.6856 27.8475 27.1064Z" fill="#FFBE55"/>
<path d="M28.2232 23.8178C28.2421 23.7669 28.2703 23.7143 28.3115 23.6703C28.2932 23.5731 28.2546 23.4915 28.2222 23.439C28.1758 23.4513 28.1238 23.4603 28.0646 23.4663C28.0605 23.4665 28.0565 23.4668 28.0524 23.4669C28.0212 23.5251 27.9798 23.5824 27.9265 23.6378C27.9739 23.6979 28.0148 23.7581 28.0448 23.8201C28.053 23.8246 28.0629 23.8218 28.0704 23.8278C28.0831 23.8369 28.1412 23.8715 28.2232 23.8178Z" fill="#FFBE55"/>
<path d="M28.6675 24.7196C28.8288 25.1428 28.9293 25.5282 28.9692 25.8682C29.0962 25.9013 29.2315 25.9377 29.372 25.9773C29.2915 25.3781 29.0395 24.7479 28.8905 24.4141C28.8243 24.5329 28.744 24.6397 28.6675 24.7196Z" fill="#FFBE55"/>
<path d="M28.642 25.7853C28.6005 25.5225 28.5214 25.2304 28.4053 24.9127C28.2732 24.9773 28.1434 25.0048 28.0478 25.0171C28.048 25.0336 28.0495 25.0497 28.0495 25.0663C28.0495 25.106 28.0463 25.1446 28.0452 25.1839C28.049 25.1903 28.0544 25.1951 28.0573 25.2021C28.1252 25.3674 28.1769 25.5279 28.2179 25.6851C28.267 25.696 28.4224 25.7313 28.642 25.7853Z" fill="#FFBE55"/>
<path d="M29.6978 26.0718C29.831 26.112 29.9645 26.1542 30.0945 26.198C29.8975 24.9351 29.3804 24.0957 29.0918 23.7174C29.0891 23.7783 29.0763 23.8441 29.0397 23.9203C29.0354 23.9293 29.0265 23.9335 29.0208 23.9413C29.0222 23.9584 29.025 23.9753 29.0246 23.993C29.0361 24.0043 29.0474 24.0161 29.0551 24.0313C29.0775 24.0749 29.6083 25.1175 29.6978 26.0718Z" fill="#FFBE55"/>
<path d="M25.8131 27.8227C26.8742 27.8227 27.7373 26.5862 27.7373 25.0663C27.7373 24.983 27.7346 24.9009 27.7296 24.8193C27.5234 24.5093 27.1628 24.2932 27.056 24.2339C26.4198 24.2225 25.9953 23.9393 25.8143 23.7894C25.6343 23.8938 25.2438 24.0645 24.7093 24.0258C24.4927 24.012 24.2446 24.0969 23.9678 24.2854C23.9155 24.5385 23.8888 24.8006 23.8888 25.0663C23.8888 26.5862 24.7521 27.8227 25.8131 27.8227Z" fill="#FFD7AA"/>
<path d="M18.2822 29.77C18.3106 29.7623 18.5969 29.6847 19.0159 29.6502C20.9566 29.2128 23.2354 27.8207 23.6462 27.5631C23.6058 27.4989 23.5596 27.4388 23.5266 27.3696C23.3224 26.9425 23.2898 26.4864 23.3239 26.0888C23.0315 26.0701 22.1398 26.1118 20.4625 26.9734C20.4399 26.9849 20.4156 26.9904 20.3912 26.9904C20.3593 26.9904 20.3276 26.9808 20.3008 26.9615C20.2532 26.9278 20.2285 26.8701 20.2368 26.8124C20.2417 26.7778 20.3211 26.2352 20.5023 25.6582C19.5386 25.8603 17.5038 27.9138 16.3837 29.0454C16.1721 29.2596 15.9814 29.452 15.8201 29.611C15.7978 29.633 15.7742 29.6537 15.7504 29.6748C15.6088 29.7999 15.4626 29.9291 15.5661 30.6742C15.6616 31.362 16.5563 31.4324 17.2221 31.4368H17.2708C17.4803 31.4368 17.9846 31.6111 18.8584 31.9194C19.7067 32.2188 20.6683 32.5581 21.2909 32.6747C21.5887 32.73 21.8682 32.78 22.126 32.8259C22.913 32.9665 23.4816 33.0676 23.7793 33.1907C24.1405 33.3403 24.5388 34.0784 24.8841 34.7586L24.9504 34.8882C25.1537 35.2806 25.192 35.7719 25.0497 36.1696C24.9806 36.3635 25.0299 36.465 25.0546 36.4999C25.0787 36.5341 25.1069 36.5462 25.1239 36.5462C25.2042 36.5462 25.2621 36.5462 25.3262 36.343C25.4073 36.0867 25.4276 36.0619 25.7685 35.6495L25.8617 35.537C26.2131 35.1108 25.861 34.2364 25.6919 33.8159L25.668 33.7569C25.5478 33.4562 25.6543 33.1405 25.7573 32.8354C25.8273 32.6278 25.8998 32.4133 25.8998 32.2081C25.8998 32.1634 25.8879 32.1333 25.8595 32.1064C25.6958 31.9513 25.1406 31.9808 24.7348 32.0016C24.5852 32.0097 24.4435 32.017 24.322 32.017C23.6939 32.017 22.686 31.3892 21.2203 30.4312C20.4935 29.9571 19.632 29.916 19.0473 29.9628C18.8053 30.0156 18.5675 30.0542 18.3382 30.075C18.2592 30.0819 18.1851 30.0274 18.1706 29.9478C18.1561 29.8692 18.2044 29.7915 18.2822 29.77Z" fill="#FFD7AA"/>
<path d="M36.2101 19.5235C35.9464 19.5792 35.9147 19.5732 35.3842 19.4765L35.2445 19.4513C34.6995 19.351 34.1109 20.0888 33.8274 20.4418L33.7875 20.4914C33.5841 20.7434 33.2571 20.8047 32.9409 20.8644C32.7253 20.905 32.5025 20.9468 32.3235 21.0476C32.2847 21.0692 32.2642 21.0946 32.2546 21.1325C32.1994 21.3507 32.4967 21.8208 32.714 22.1641C32.7941 22.2904 32.8699 22.4108 32.9294 22.5163C33.2367 23.0636 33.1825 24.25 33.0647 25.9975C33.0034 26.9097 33.4351 27.7165 33.7714 28.1976C33.9071 28.3507 34.0381 28.5124 34.1619 28.6818C34.21 28.7477 34.1993 28.8394 34.1373 28.8923C34.0753 28.9459 33.9829 28.9414 33.9254 28.8838C33.9062 28.8643 33.7276 28.6823 33.5151 28.38C32.6621 27.4299 31.6147 26.8018 31.1791 26.5635C31.1904 26.6875 31.1948 26.7719 31.1955 26.7896C31.1979 26.8507 31.1644 26.9071 31.1101 26.9347C31.0878 26.9457 31.0635 26.9514 31.0396 26.9514C31.0051 26.9514 30.9708 26.9399 30.9425 26.9177C30.529 26.5884 29.0091 26.1881 28.2878 26.0208C28.3513 26.466 28.2989 26.8742 28.1291 27.2402C27.9548 27.6158 27.6865 27.8801 27.4341 28.066C28.7574 29.701 31.891 30.3995 33.7777 30.8182C34.2634 30.9258 34.6832 31.0189 34.9917 31.1082C35.0219 31.1172 35.0516 31.1272 35.0814 31.1378C35.2599 31.2 35.4438 31.2645 36.0436 30.8091C36.5968 30.389 36.2254 29.5707 35.8977 28.9917L35.8739 28.9494C35.7715 28.767 35.6766 28.2417 35.5179 27.329C35.3637 26.4425 35.189 25.4376 34.9857 24.8375C34.8879 24.5494 34.7943 24.2801 34.7078 24.0318C34.4457 23.2786 34.2561 22.7341 34.218 22.4151C34.1717 22.0271 34.6199 21.319 35.0437 20.6856L35.1251 20.5628C35.3683 20.1931 35.7779 19.9196 36.1941 19.8489C36.3966 19.8145 36.4612 19.7214 36.4795 19.6832C36.4974 19.6454 36.4944 19.6151 36.4862 19.6003C36.4469 19.5309 36.4187 19.4792 36.2101 19.5235Z" fill="#FFD7AA"/>
<path d="M15.889 19.4178C16.0708 19.6165 16.082 19.6466 16.2693 20.1488L16.3201 20.2844C16.5139 20.8024 17.448 20.9341 17.8967 20.997L17.9589 21.006C18.2793 21.0519 18.4994 21.3014 18.7121 21.5432C18.8572 21.7077 19.0071 21.8776 19.1849 21.9799C19.2239 22.0022 19.2562 22.0071 19.2932 21.9957C19.5094 21.932 19.7613 21.4363 19.9451 21.0742C20.0132 20.9406 20.0776 20.8138 20.1383 20.7086C20.4514 20.1655 21.4988 19.6055 23.0611 18.8136C23.9221 18.3769 24.4015 17.5276 24.6298 16.9947C24.6823 16.82 24.7413 16.6538 24.8077 16.4986C24.8401 16.4234 24.9239 16.388 25.0014 16.412C25.0785 16.4384 25.1226 16.5197 25.1024 16.5989C25.0962 16.6228 25.0418 16.8277 24.919 17.1173C24.501 18.5394 24.5197 20.5538 24.5477 21.365C24.8627 21.02 25.1622 20.9419 25.3686 20.9419C25.5964 20.9419 25.8049 21.0417 25.9715 21.2167C26.1461 20.9904 26.3451 20.9465 26.4902 20.9477C26.7534 20.9541 26.9716 21.1231 27.1106 21.2987C27.2628 21.3064 27.6065 21.3469 27.8569 21.5613C28.2019 19.8678 27.4088 17.4616 26.8734 15.8409C26.7058 15.3334 26.5609 14.895 26.4699 14.5456C26.4619 14.5152 26.4555 14.4843 26.4492 14.453C26.4114 14.268 26.3724 14.0768 25.6754 13.7944C25.031 13.5315 24.5181 14.2705 24.1875 14.8475L24.1632 14.8902C24.0586 15.0717 23.6551 15.4221 22.951 16.0254C22.2685 16.6105 21.4947 17.2741 21.083 17.755C20.8862 17.985 20.7033 18.202 20.535 18.4022C20.0204 19.014 19.6485 19.4562 19.3931 19.6524C19.0826 19.8912 18.2437 19.8677 17.4808 19.8267L17.3373 19.8194C17.0969 19.8088 16.8584 19.737 16.6444 19.6255L16.6266 19.6211L16.6162 19.6084C16.4489 19.517 16.2955 19.4042 16.1778 19.2657C16.1005 19.1747 16.0319 19.1365 15.978 19.119L15.8065 19.1571C15.7718 19.2192 15.7562 19.273 15.889 19.4178Z" fill="#FFD7AA"/>
<path d="M36.7585 19.4481C36.6344 19.2266 36.4452 19.156 36.1467 19.2181C35.9425 19.2611 35.9425 19.2608 35.4405 19.1697L35.3003 19.1441C34.5722 19.0116 33.9053 19.8461 33.5843 20.2463L33.5446 20.2954C33.4136 20.4579 33.1678 20.5038 32.8832 20.5575C32.6432 20.603 32.3946 20.6498 32.1709 20.7753C32.0584 20.8387 31.9825 20.9355 31.9522 21.0557C31.8643 21.4043 32.1622 21.8752 32.4504 22.3307C32.5273 22.4522 32.6001 22.5675 32.6572 22.6691C32.942 23.1766 32.8461 24.5998 32.7535 25.9765C32.7172 26.5164 32.8327 27.017 33.0038 27.4452C32.1191 26.6838 31.2706 26.254 31.1331 26.1867C31.011 25.3601 30.6488 23.9018 29.5944 23.173C30.9655 22.5653 31.6172 20.4984 31.6483 20.3967C31.6705 20.3239 31.6372 20.2459 31.5693 20.2117C31.5018 20.1773 31.4187 20.1971 31.3736 20.2585C31.0154 20.7447 30.5549 21.2167 30.1201 21.6164C30.3862 20.8645 30.9774 20.2079 31.2337 19.9494C31.2788 19.9109 31.323 19.8678 31.3657 19.8211C31.4218 19.7598 31.4199 19.6651 31.3613 19.6058C31.3404 19.5847 31.3123 19.5795 31.2853 19.5729C31.4446 19.1326 31.5926 18.4156 31.2758 17.673C31.1056 17.2739 30.9577 17.0005 30.8389 16.7812C30.6257 16.3874 30.5284 16.2079 30.5577 15.7923C30.5621 15.7289 30.5278 15.6693 30.471 15.6415C30.4141 15.6131 30.3461 15.6225 30.2985 15.6647C30.2768 15.6838 28.2654 17.506 29.0293 19.5233C29.0063 19.5314 28.9816 19.536 28.9638 19.5551C28.9096 19.6136 28.9081 19.7038 28.9608 19.7639C29.8178 20.7417 28.8681 22.1088 28.6505 22.3954C28.6456 22.3922 28.641 22.388 28.6361 22.3849C28.6361 22.1898 28.5832 22.0268 28.4717 21.9034C28.3736 21.7951 28.2518 21.7379 28.144 21.7073C28.551 19.9309 27.7578 17.5212 27.1704 15.7431C27.0045 15.2405 26.8611 14.807 26.7725 14.4669C26.766 14.4417 26.761 14.4165 26.7557 14.3909C26.6953 14.0951 26.5814 13.8245 25.7934 13.5052C24.8236 13.1127 24.1413 14.302 23.9175 14.6928L23.8937 14.7343C23.8106 14.8786 23.2706 15.3413 22.7486 15.7886C22.0574 16.381 21.2739 17.0526 20.8464 17.552C20.6492 17.7828 20.4659 18.0009 20.2968 18.2017C19.8135 18.7761 19.4321 19.2296 19.2035 19.4056C18.9586 19.5941 17.8972 19.5368 17.4982 19.5152L17.352 19.5075C16.994 19.4917 16.6355 19.3219 16.4162 19.0635C16.2559 18.8746 16.0539 18.7782 15.862 18.7941C15.7256 18.8067 15.607 18.8781 15.5449 18.9859C15.4181 19.2057 15.4537 19.4044 15.6601 19.629C15.8008 19.783 15.8008 19.783 15.978 20.258L16.0289 20.3945C16.2877 21.086 17.3457 21.2348 17.8542 21.3067L17.9156 21.3152C18.1221 21.3448 18.2875 21.5326 18.4791 21.7499C18.6147 21.9034 18.7612 22.054 18.9335 22.1766C18.923 22.1818 18.9107 22.1822 18.9013 22.19C18.8524 22.2307 18.8327 22.2965 18.8515 22.357C18.8533 22.3623 18.9611 22.6539 19.2501 22.9056C18.7943 22.9278 18.2733 22.7534 18.0644 22.6732C18.0313 22.6585 17.9969 22.6447 17.9616 22.6316C17.8824 22.6024 17.795 22.6427 17.7635 22.7202C17.7528 22.747 17.7525 22.7745 17.7566 22.8012C17.2888 22.8231 16.5737 22.9619 16.0114 23.5357C15.7077 23.8461 15.5116 24.087 15.3543 24.2808C15.072 24.6282 14.9429 24.7866 14.5479 24.9187C14.4877 24.9386 14.4457 24.993 14.4416 25.0564C14.4373 25.1197 14.4719 25.1791 14.529 25.2066C14.5451 25.2144 15.4731 25.6553 16.551 25.6553C17.2321 25.6553 17.9727 25.4782 18.5813 24.906C18.5975 24.9234 18.6107 24.944 18.6344 24.9528C18.6523 24.9593 18.6706 24.9625 18.6886 24.9625C18.7465 24.9625 18.8015 24.93 18.8285 24.8756C19.2789 23.964 19.8998 23.6361 20.2613 23.5187C19.9391 23.9288 19.7974 24.3163 19.7895 24.3393C19.7663 24.4056 19.7905 24.4795 19.8487 24.5192C19.9069 24.559 19.9845 24.555 20.038 24.5091C20.2733 24.3088 20.8461 24.0508 21.3319 23.8525C21.0381 24.2549 20.9107 24.6817 20.8838 24.7801C20.7816 24.9442 20.6934 25.1335 20.6176 25.3298C19.6687 25.3641 17.898 27.0732 16.1626 28.8265C15.952 29.0394 15.7622 29.2308 15.6018 29.3888C15.5832 29.4071 15.564 29.4241 15.5443 29.4416C15.3184 29.6415 15.1406 29.8751 15.2577 30.7178C15.402 31.7546 16.7736 31.7522 17.2237 31.7493H17.2714C17.4376 31.7493 18.1075 31.9857 18.755 32.2141C19.6142 32.5176 20.5879 32.8609 21.2342 32.9815C21.5328 33.0376 21.8134 33.0876 22.072 33.1335C22.8107 33.2651 23.3941 33.3696 23.6605 33.4796C23.9455 33.5974 24.4255 34.5437 24.6064 34.9001L24.6739 35.0325C24.8388 35.3503 24.8705 35.7464 24.7565 36.0654C24.6732 36.2986 24.689 36.5225 24.7999 36.6802C24.8789 36.7919 25.0002 36.859 25.1243 36.859C25.3781 36.859 25.5323 36.7289 25.6241 36.4381C25.6869 36.2393 25.6869 36.2393 26.0093 35.8494L26.1028 35.736C26.5725 35.1669 26.1737 34.1763 25.9819 33.7L25.9582 33.6415C25.8809 33.4476 25.9607 33.2104 26.0532 32.9361C26.1315 32.7046 26.212 32.4652 26.212 32.2089C26.212 32.0797 26.1645 31.9663 26.0745 31.8806C25.8137 31.6331 25.2567 31.6632 24.7187 31.6908C24.575 31.6985 24.4389 31.7059 24.3224 31.7059C23.7402 31.7059 22.546 30.9259 21.3913 30.1714C20.958 29.8882 20.4883 29.7439 20.0484 29.6789C21.7972 29.0803 23.5037 28.0239 23.8319 27.8155C24.0879 28.1071 24.4297 28.3387 24.8692 28.4975C24.8202 28.5462 24.7757 28.6047 24.7444 28.6737C24.6867 28.8013 24.6854 28.9432 24.7406 29.0845C24.7749 29.1721 24.8254 29.2409 24.8829 29.2986C24.7829 29.6485 24.881 29.8417 24.9839 29.9437C24.8716 30.2921 24.9689 30.497 25.0751 30.6061C25.1866 30.7204 25.3415 30.769 25.478 30.769C25.4959 30.769 25.5106 30.7635 25.5278 30.7618C25.5742 30.9043 25.6391 31.0438 25.7482 31.168L25.7821 31.2061C26.2532 31.742 27.0415 32.6388 27.1345 33.0572C27.152 33.1352 27.2253 33.1855 27.3031 33.1787C27.3819 33.1706 27.4421 33.1044 27.4429 33.0252C27.4431 33.002 27.4463 32.6417 27.4298 32.2743C27.7759 32.8358 28.0149 33.3929 28.0948 33.5888C28.1045 33.6151 28.1153 33.642 28.127 33.6688C28.1524 33.7278 28.2099 33.7632 28.2701 33.7632C28.2897 33.7632 28.3096 33.7595 28.3288 33.7517C28.3549 33.7411 28.3746 33.7228 28.3907 33.702C28.7275 34.0277 29.3188 34.4531 30.122 34.4691C30.5557 34.4761 30.8661 34.4549 31.1152 34.437C31.5615 34.4041 31.7651 34.3894 32.1318 34.5866C32.155 34.5992 32.1805 34.6053 32.2058 34.6053C32.2413 34.6053 32.2765 34.5931 32.3051 34.5695C32.354 34.5293 32.3735 34.4631 32.3547 34.4029C32.3459 34.3753 31.51 31.7963 29.3581 31.6613C29.3603 31.6367 29.366 31.6122 29.3558 31.5881C29.3247 31.5142 29.2433 31.4752 29.1666 31.4995C28.6342 31.6624 28.1711 31.4922 27.8032 31.2195C28.2792 31.1899 28.6096 31.0261 28.6269 31.0176C28.6886 30.9863 28.7226 30.918 28.71 30.8502C28.6976 30.782 28.6418 30.7304 28.5728 30.723C27.8753 30.6495 26.8116 30.0124 26.8011 30.006C26.7969 30.0035 26.7918 30.005 26.7874 30.0029C26.7895 30.0006 26.7914 29.9979 26.7933 29.9955C26.8529 30.0011 26.9117 30.0039 26.9682 30.0039C27.1004 30.0039 27.2213 29.9901 27.3191 29.9694C27.3843 29.9557 27.4334 29.9019 27.4416 29.8361C27.4499 29.7698 27.4154 29.706 27.3558 29.6765C27.1431 29.5719 26.9589 29.4305 26.7985 29.2745C26.9905 29.0413 26.9726 28.6893 26.8928 28.3782C26.9627 28.3493 27.0576 28.3041 27.1721 28.2391C28.5517 29.9753 31.6501 30.6657 33.7106 31.1233C34.1912 31.2298 34.6064 31.3221 34.9058 31.4086C34.9306 31.4159 34.9547 31.4244 34.9795 31.4329C35.0776 31.4671 35.1764 31.4942 35.2913 31.4942C35.5103 31.4942 35.7884 31.3955 36.2329 31.0582C37.0671 30.4244 36.392 29.2307 36.17 28.8386L36.1469 28.7971C36.0656 28.6524 35.9439 27.9527 35.8263 27.2763C35.67 26.3783 35.4931 25.3609 35.2818 24.7381C35.1839 24.4487 35.0898 24.1786 35.0033 23.93C34.7571 23.2227 34.5627 22.6644 34.5287 22.3783C34.492 22.0729 35.0817 21.1911 35.3037 20.8596L35.3866 20.7348C35.5837 20.4349 35.9133 20.2139 36.247 20.1574C36.4911 20.1156 36.6789 19.992 36.7617 19.8178C36.8202 19.6943 36.8192 19.5561 36.7585 19.4481ZM36.4799 19.6836C36.4615 19.7218 36.397 19.8149 36.1944 19.8493C35.7781 19.92 35.3687 20.1935 35.1255 20.5632L35.044 20.6859C34.6202 21.3193 34.1722 22.0275 34.2184 22.4155C34.2565 22.7345 34.4461 23.2789 34.7081 24.0322C34.7946 24.2805 34.8883 24.5499 34.986 24.8379C35.1894 25.438 35.3641 26.4428 35.5183 27.3294C35.6769 28.242 35.7718 28.7673 35.8742 28.9498L35.8981 28.9921C36.2258 29.5711 36.5971 30.3893 36.0439 30.8095C35.4442 31.2649 35.2605 31.2003 35.0817 31.1382C35.0519 31.1276 35.0223 31.1175 34.992 31.1086C34.6834 31.0192 34.2637 30.9262 33.778 30.8185C31.8914 30.3999 28.7578 29.7013 27.4345 28.0664C27.6868 27.8806 27.955 27.6162 28.1294 27.2406C28.2992 26.8747 28.3516 26.4665 28.2881 26.0212C29.0094 26.1885 30.5292 26.5887 30.9429 26.9181C30.9711 26.9403 31.0055 26.9518 31.04 26.9518C31.0639 26.9518 31.0881 26.9461 31.1105 26.9351C31.1647 26.9075 31.1982 26.851 31.1958 26.79C31.1951 26.7723 31.1907 26.6879 31.1794 26.5639C31.615 26.8021 32.6624 27.4303 33.5154 28.3804C33.7279 28.6826 33.9065 28.8646 33.9258 28.8842C33.9833 28.9418 34.0757 28.9464 34.1376 28.8927C34.1995 28.8398 34.2104 28.748 34.1622 28.6822C34.0385 28.5128 33.9074 28.3511 33.7718 28.1979C33.4354 27.7169 33.0037 26.9101 33.065 25.9979C33.1828 24.2503 33.2371 23.0639 32.9297 22.5167C32.8702 22.4111 32.7943 22.2908 32.7144 22.1645C32.4973 21.8211 32.1998 21.351 32.255 21.1329C32.2646 21.0951 32.2851 21.0695 32.3238 21.048C32.5028 20.9472 32.7257 20.9054 32.9412 20.8648C33.2572 20.8051 33.5844 20.7437 33.7878 20.4918L33.8277 20.4422C34.1113 20.0891 34.6998 19.3513 35.2448 19.4517L35.3846 19.4769C35.9149 19.5735 35.9467 19.5797 36.2105 19.5239C36.419 19.4796 36.4473 19.5313 36.4865 19.6011C36.4946 19.6154 36.4978 19.6459 36.4799 19.6836ZM31.0925 34.1257C30.8499 34.1435 30.5488 34.1655 30.1281 34.1569C29.0126 34.1347 28.3335 33.1676 28.3269 33.1578C28.3259 33.1564 28.3243 33.1557 28.3234 33.1543C28.3008 32.6144 28.7158 32.1971 29.0098 31.9716C30.717 31.8584 31.6138 33.4509 31.9266 34.1626C31.6572 34.0846 31.4213 34.1013 31.0925 34.1257ZM28.0591 32.7593C27.782 32.2115 27.3578 31.5014 26.8362 31.035C26.7568 30.964 26.6901 30.8934 26.6234 30.8228C26.8127 30.8804 26.9722 30.9006 27.0429 30.906C27.3973 31.3412 27.9426 31.8267 28.6398 31.8727C28.39 32.1027 28.1577 32.4058 28.0591 32.7593ZM25.2654 30.0854C25.3139 30.095 25.3624 30.1013 25.409 30.1013C25.4263 30.1013 25.4413 30.0985 25.4579 30.0975C25.4475 30.2101 25.4503 30.3313 25.4621 30.4545C25.4086 30.4512 25.3431 30.4334 25.2984 30.3878C25.2266 30.3144 25.2366 30.1931 25.2654 30.0854ZM25.5122 29.7761C25.4326 29.7965 25.2802 29.7973 25.2052 29.7251C25.1387 29.6615 25.1464 29.5425 25.1701 29.4373C25.1839 29.4386 25.1965 29.4439 25.2107 29.4439C25.2109 29.4439 25.2111 29.4439 25.2111 29.4439C25.3944 29.4436 25.5656 29.3321 25.6591 29.17C25.6613 29.1709 25.6636 29.1718 25.6659 29.1725C25.6661 29.1731 25.6659 29.1737 25.6662 29.1744C25.6933 29.2515 25.7265 29.3206 25.763 29.3849C25.692 29.3768 25.6255 29.4151 25.5992 29.4808C25.5937 29.4944 25.5509 29.6112 25.5122 29.7761ZM18.3385 30.0757C18.5678 30.055 18.8055 30.0164 19.0477 29.9635C19.6324 29.9167 20.4939 29.9577 21.2206 30.4319C22.6864 31.39 23.6943 32.0177 24.3224 32.0177C24.4439 32.0177 24.5857 32.0103 24.7352 32.0022C25.1408 31.9815 25.696 31.9518 25.8599 32.1071C25.8881 32.134 25.9001 32.1641 25.9001 32.2088C25.9001 32.414 25.8279 32.6285 25.7576 32.8361C25.6546 33.1413 25.5482 33.4569 25.6684 33.7576L25.6922 33.8166C25.8613 34.2371 26.2135 35.1115 25.862 35.5377L25.7689 35.6502C25.428 36.0626 25.4076 36.0874 25.3266 36.3437C25.2623 36.5469 25.2045 36.5469 25.1242 36.5469C25.1074 36.5469 25.0791 36.5346 25.0549 36.5006C25.0303 36.4656 24.981 36.364 25.05 36.1703C25.1923 35.7725 25.154 35.2813 24.9507 34.8889L24.8844 34.7593C24.5393 34.0791 24.1408 33.3408 23.7796 33.1914C23.482 33.0683 22.9133 32.9672 22.1264 32.8265C21.8687 32.7807 21.5891 32.7307 21.2912 32.6754C20.6686 32.5588 19.7071 32.2195 18.8587 31.9201C17.985 31.6117 17.4806 31.4375 17.2711 31.4375H17.2224C16.5567 31.4331 15.662 31.3627 15.5664 30.6749C15.4629 29.9298 15.6091 29.8006 15.7507 29.6755C15.7746 29.6544 15.798 29.6337 15.8204 29.6117C15.9818 29.4529 16.1723 29.2603 16.384 29.0461C17.5041 27.9145 19.5389 25.8609 20.5027 25.6589C20.3214 26.2358 20.242 26.7784 20.2371 26.8131C20.2288 26.8707 20.2536 26.9285 20.3011 26.9622C20.328 26.9812 20.3596 26.9911 20.3915 26.9911C20.4159 26.9911 20.4403 26.9854 20.4628 26.9741C22.1402 26.1125 23.0319 26.0708 23.3242 26.0895C23.2901 26.4872 23.3228 26.9433 23.527 27.3703C23.5601 27.4395 23.6062 27.4996 23.6465 27.5638C23.2358 27.8213 20.957 29.2135 19.0162 29.6509C18.5972 29.6853 18.3109 29.7631 18.2826 29.7707C18.2047 29.7923 18.1564 29.8698 18.171 29.949C18.1855 30.0281 18.2594 30.0825 18.3385 30.0757ZM18.9166 24.1399C18.9081 23.812 18.8356 23.4594 18.6458 23.1669C18.9712 23.2307 19.3433 23.2564 19.6565 23.1515L19.6573 23.1511C19.7848 23.2013 19.9351 23.2321 20.1017 23.247C19.7778 23.3627 19.3253 23.6069 18.9166 24.1399ZM15.5963 24.4773C15.7495 24.2888 15.9405 24.0539 16.234 23.7541C17.0145 22.9569 18.1839 23.1256 18.1964 23.1272C18.1977 23.1274 18.1989 23.1269 18.2003 23.1271C18.6094 23.4808 18.6293 24.0693 18.5919 24.4379C17.5051 25.7599 15.7295 25.3201 14.997 25.0591C15.2391 24.9168 15.3885 24.7332 15.5963 24.4773ZM30.9889 17.7956C31.4267 18.8219 30.8239 19.8385 30.8179 19.8486C30.8171 19.8498 30.8172 19.8511 30.8166 19.8524C30.3341 20.0946 29.7824 19.8882 29.4559 19.7127C28.6494 18.203 29.7351 16.7312 30.2558 16.1533C30.2947 16.4317 30.4075 16.6401 30.5644 16.9297C30.6801 17.1435 30.8241 17.4096 30.9889 17.7956ZM29.5175 20.0907C29.8236 20.2216 30.1869 20.3085 30.5412 20.2594C30.1929 20.7017 29.8037 21.3229 29.6985 21.9899C29.348 22.2896 29.0524 22.5173 28.8902 22.6388C28.8852 22.6309 28.879 22.6243 28.8737 22.6167C29.0401 22.4026 29.9272 21.1874 29.5175 20.0907ZM26.1338 30.1567C25.9938 29.8954 25.9342 29.691 25.9128 29.5917C26.0567 29.7489 26.2326 29.8523 26.4162 29.9156L26.1338 30.1567ZM26.5776 30.1882C26.5797 30.1944 26.5772 30.2013 26.58 30.2072C26.5825 30.2125 26.6517 30.3507 26.7773 30.5431C26.6513 30.5099 26.5039 30.4567 26.3644 30.3699L26.5776 30.1882ZM26.628 31.2674C26.7845 31.4076 26.9328 31.5733 27.0705 31.7514C27.0707 31.7562 27.0714 31.7615 27.0722 31.7664C27.098 31.9208 27.1126 32.1431 27.1208 32.3576C26.8509 31.9601 26.4455 31.4886 26.0165 31.0002L25.9825 30.9616C25.7751 30.726 25.7443 30.4046 25.7689 30.1327C25.9129 30.4486 26.1707 30.8586 26.628 31.2674ZM25.798 28.8913C25.6716 28.8617 25.5809 28.7405 25.527 28.6438C25.3821 28.3844 25.4802 28.1786 25.5249 28.1063C25.5828 28.1166 25.6415 28.1229 25.7007 28.127C25.7521 28.2651 25.8647 28.5317 26.0516 28.8341C25.9599 28.8831 25.8734 28.9084 25.798 28.8913ZM26.483 21.2597C26.6027 21.2625 26.7404 21.3405 26.8458 21.4608C26.8022 21.5148 26.7306 21.5762 26.6342 21.5583C26.2009 21.4799 26.0708 21.9037 26.0281 22.043C25.9836 22.1874 25.8108 22.513 25.6704 22.6597C25.5742 22.6163 25.4724 22.5848 25.3644 22.5723C25.525 22.3459 25.8216 21.9401 26.2115 21.4149C26.2909 21.3081 26.3936 21.2512 26.483 21.2597ZM25.6125 22.9747C25.7532 23.0645 25.8716 23.2152 26.0082 23.3899C26.0936 23.4991 26.1924 23.6169 26.3023 23.7324C26.0735 23.6157 25.9467 23.4885 25.9444 23.4863C25.9433 23.4853 25.9416 23.4856 25.9405 23.4845C25.9395 23.4834 25.94 23.4816 25.9388 23.4806C25.5617 23.1157 25.1782 23.0191 24.7983 23.1958C24.6679 23.256 24.5427 23.247 24.4752 23.221C24.4364 23.2064 24.4227 23.1894 24.4215 23.1877C24.4215 23.1828 24.4284 23.1629 24.4571 23.1324C24.6333 22.9467 25.2553 22.748 25.6125 22.9747ZM24.5237 22.7179C24.7441 22.4971 24.9745 22.2261 25.1778 21.9775L25.2186 21.9279C25.2781 21.8558 25.3831 21.9073 25.436 21.9407C25.2165 22.2407 25.0381 22.4896 24.9795 22.5834C24.8156 22.6083 24.6576 22.6547 24.5237 22.7179ZM26.6498 22.8649C26.8959 22.921 27.0258 22.9888 27.0925 23.0579C26.8625 23.0203 26.5322 23.0215 26.2725 23.2207C26.2664 23.213 26.26 23.2053 26.2538 23.1977C26.1493 23.0637 26.043 22.9439 25.9271 22.8382C25.9854 22.7716 26.0405 22.6948 26.091 22.6138C26.2003 22.6842 26.4215 22.8133 26.6498 22.8649ZM26.2416 22.3394C26.2819 22.2548 26.3122 22.181 26.3263 22.1349C26.4038 21.8826 26.4709 21.8455 26.5784 21.8654C26.5918 21.8678 26.6037 21.8666 26.6167 21.868C26.7252 22.2697 27.0521 22.4375 27.2968 22.5598C27.4287 22.6256 27.5531 22.6878 27.5783 22.7548C27.6086 22.8357 27.5287 22.9316 27.4323 23.0091C27.3456 22.799 27.107 22.649 26.7189 22.5609C26.5231 22.5166 26.3221 22.3928 26.2416 22.3394ZM23.968 24.2855C24.2447 24.0969 24.4929 24.0119 24.7095 24.0259C25.244 24.0645 25.6344 23.8939 25.8145 23.7895C25.9955 23.9394 26.42 24.2226 27.0562 24.234C27.1631 24.2933 27.5237 24.5094 27.7298 24.8194C27.7349 24.9011 27.7375 24.9832 27.7375 25.0664C27.7375 26.5863 26.8743 27.8228 25.8133 27.8228C24.7523 27.8228 23.8891 26.5863 23.8891 25.0664C23.8889 24.8007 23.9156 24.5386 23.968 24.2855ZM27.822 24.4393C27.6102 24.2107 27.3655 24.0522 27.2439 23.9819C27.3866 23.9522 27.5377 23.9027 27.6788 23.8248C27.844 24.0302 27.8533 24.2636 27.822 24.4393ZM27.683 23.444C27.3976 23.7107 26.8964 23.7192 26.7517 23.7159C26.6475 23.638 26.5542 23.5524 26.4717 23.4597C26.7662 23.2464 27.2487 23.4163 27.2539 23.4183C27.2697 23.4242 27.2859 23.4252 27.3019 23.4258C27.3041 23.4259 27.3061 23.4279 27.3084 23.4279C27.3094 23.4279 27.3104 23.4273 27.3113 23.4273C27.3333 23.4269 27.3547 23.4223 27.3742 23.4131C27.3746 23.4129 27.3751 23.413 27.3751 23.413C27.5201 23.344 27.7087 23.2134 27.8153 23.0464C27.8394 23.1623 27.8272 23.3094 27.683 23.444ZM27.7728 22.499C27.6856 22.4086 27.5647 22.3447 27.4362 22.2807C27.2197 22.1727 27.0033 22.0547 26.9258 21.7973C27.01 21.7455 27.0759 21.6765 27.122 21.6101C27.2716 21.6213 27.5869 21.673 27.7354 21.885C27.8362 22.0295 27.8458 22.2375 27.7728 22.499ZM25.6205 21.6893C25.4647 21.583 25.18 21.4851 24.9777 21.7298L24.9363 21.7802C24.7454 22.0134 24.1648 22.7229 23.8733 22.8414C23.8699 22.8428 23.8678 22.8456 23.8646 22.8473C23.8115 22.8336 23.7647 22.8152 23.7323 22.7896C23.7076 22.77 23.6959 22.7497 23.6928 22.7221C23.6781 22.5864 23.7385 22.5271 23.9826 22.352C24.1679 22.2191 24.4219 22.0371 24.6636 21.7145C25.0357 21.2186 25.5011 21.13 25.7824 21.4696C25.7284 21.5428 25.6742 21.6163 25.6205 21.6893ZM24.2425 21.5439C23.7549 21.4772 23.3067 21.6399 23.0304 21.9984C22.9157 22.1474 22.8498 22.3165 22.8187 22.4893C22.7999 22.497 22.7787 22.4974 22.7635 22.5126C22.7243 22.5524 22.683 22.6028 22.6418 22.6585C22.3681 22.5511 21.6273 22.2941 20.9904 22.3806C20.2539 22.4803 19.7101 22.3829 19.3931 22.2907C19.7324 22.1816 19.9826 21.6911 20.2242 21.2157C20.2895 21.0874 20.3512 20.9658 20.4093 20.8647C20.6996 20.3612 21.9721 19.716 23.2029 19.0919C23.7206 18.8294 24.1101 18.4398 24.3972 18.0465C24.1734 19.4573 24.217 20.9975 24.2425 21.5439ZM22.8335 22.9329C22.8519 23.0055 22.8699 23.0784 22.9042 23.1471C22.9251 23.1888 22.9519 23.2193 22.9761 23.2546C22.8866 23.344 22.7606 23.494 22.677 23.6918C22.606 23.3863 22.7227 23.1103 22.8335 22.9329ZM22.6845 24.4975C22.7396 24.628 22.8088 24.7377 22.8878 24.8275C22.7647 25.1938 22.6855 25.5294 22.6497 25.8306C22.5291 25.8523 22.3949 25.8822 22.2467 25.9214C22.3281 25.3866 22.5387 24.8347 22.6845 24.4975ZM22.9733 25.7852C23.0054 25.5606 23.0637 25.3145 23.1473 25.0486C23.2723 25.1255 23.4007 25.1728 23.515 25.198C23.4673 25.3354 23.4083 25.5396 23.3658 25.7779C23.2769 25.7708 23.1461 25.7692 22.9733 25.7852ZM22.3504 24.485C22.1887 24.8734 21.9839 25.4548 21.9217 26.0164C21.7945 26.0571 21.6587 26.1047 21.5146 26.1593C21.6344 25.4604 21.9493 24.7544 21.9668 24.7156C22.123 24.6411 22.2492 24.5621 22.3504 24.485ZM21.2624 24.6332C21.3828 24.3256 21.6461 23.8092 22.1153 23.5561C22.2485 23.6166 22.3202 23.6643 22.3219 23.6654C22.3322 23.6732 22.3448 23.672 22.3561 23.6769C22.3696 23.7669 22.3958 23.8583 22.4344 23.9504C22.3817 24.0406 22.1123 24.4272 21.2624 24.6332ZM23.5865 24.8889C23.4021 24.8503 23.088 24.7292 22.9443 24.3136C22.8727 24.1064 22.911 23.9198 22.9824 23.7708C23.006 24.0848 23.134 24.3887 23.4653 24.4864C23.5008 24.6021 23.548 24.6943 23.591 24.7419C23.592 24.743 23.5934 24.7433 23.5945 24.7443C23.5907 24.7923 23.5886 24.8405 23.5865 24.8889ZM23.2998 23.5304C23.385 23.5686 23.4731 23.5968 23.5642 23.6073C23.5077 23.6914 23.4719 23.776 23.4496 23.8523C23.4264 23.9322 23.4164 24.0134 23.4135 24.093C23.2974 23.9508 23.2865 23.7089 23.2998 23.5304ZM23.1834 23.0072C23.0532 22.7472 23.0894 22.4335 23.2778 22.1889C23.4682 21.9412 23.7747 21.8268 24.1166 21.8502C24.0043 21.9506 23.8962 22.0298 23.801 22.0983C23.5674 22.2657 23.3466 22.4242 23.3829 22.7561C23.3948 22.8662 23.4486 22.9621 23.5381 23.0335C23.6915 23.1558 23.9305 23.1855 24.1132 23.1891C24.1133 23.1974 24.1154 23.2049 24.1161 23.213C24.0723 23.2286 24.0243 23.2425 23.9858 23.2603C23.7437 23.3274 23.3608 23.3632 23.1834 23.0072ZM23.7531 23.9274C23.8032 23.7682 23.9164 23.6439 24.0905 23.5565C24.1683 23.5343 24.2349 23.5065 24.2964 23.4785C24.4629 23.5745 24.7093 23.581 24.9297 23.4785C25.0668 23.4147 25.274 23.3661 25.5588 23.5693C25.3891 23.6493 25.104 23.7437 24.7328 23.7145C24.4295 23.6949 24.0949 23.81 23.7376 24.0658C23.7342 24.0683 23.7341 24.0733 23.7308 24.0761C23.7346 24.0271 23.7372 23.9776 23.7531 23.9274ZM26.034 28.1194C26.1697 28.1011 26.3013 28.0641 26.4287 28.0139C26.5563 28.2635 26.7288 28.7941 26.5825 29.0408C26.3013 28.6985 26.1238 28.3337 26.034 28.1194ZM27.9557 25.9406C28.0391 26.3738 28.0051 26.7648 27.8475 27.1063C27.5799 27.6855 27.0321 27.9763 26.7976 28.0789C26.7661 27.9985 26.7361 27.9307 26.7087 27.876C27.3062 27.5161 27.7672 26.8087 27.9557 25.9406ZM28.0451 25.184C28.0462 25.1446 28.0494 25.1061 28.0494 25.0664C28.0494 25.0498 28.0478 25.0338 28.0477 25.0172C28.1433 25.0049 28.2731 24.9773 28.4052 24.9128C28.5214 25.2305 28.6004 25.5225 28.6419 25.7854C28.4223 25.7313 28.2669 25.6962 28.2177 25.6853C28.1767 25.528 28.125 25.3676 28.0571 25.2022C28.0543 25.195 28.0488 25.1902 28.0451 25.184ZM28.045 23.8201C28.015 23.7582 27.9739 23.698 27.9264 23.6379C27.9799 23.5823 28.0214 23.5251 28.0527 23.467C28.0568 23.4669 28.0608 23.4667 28.0649 23.4663C28.1242 23.4604 28.1764 23.4513 28.2229 23.4391C28.2554 23.4915 28.294 23.5732 28.3124 23.6703C28.2711 23.7143 28.2429 23.767 28.2239 23.8179C28.1416 23.8716 28.0833 23.8369 28.0708 23.828C28.0634 23.8219 28.0532 23.8247 28.045 23.8201ZM29.372 25.9771C29.2314 25.9376 29.096 25.9012 28.9692 25.8681C28.9293 25.5281 28.8288 25.1428 28.6675 24.7194C28.7442 24.6396 28.8242 24.5327 28.8903 24.414C29.0395 24.7478 29.2914 25.3779 29.372 25.9771ZM29.0205 23.9413C29.0262 23.9336 29.0351 23.9292 29.0394 23.9202C29.076 23.844 29.0889 23.7783 29.0915 23.7174C29.3801 24.0957 29.8971 24.9351 30.0943 26.198C29.9642 26.1542 29.8308 26.1119 29.6975 26.0718C29.608 25.1174 29.0773 24.0749 29.0547 24.0311C29.047 24.0158 29.0358 24.0041 29.0242 23.9928C29.0247 23.9751 29.022 23.9584 29.0205 23.9413ZM30.4338 26.32C30.2068 24.5496 29.3689 23.5353 29.1603 23.3071C29.177 23.304 29.195 23.3042 29.2115 23.3007C30.4507 23.9607 30.7768 25.7826 30.8581 26.5029C30.7351 26.4409 30.5898 26.3799 30.4338 26.32ZM29.0263 23.0065C29.0228 22.9827 29.018 22.9597 29.0128 22.9368C29.2744 22.7448 30.1682 22.069 30.9637 21.2268C30.5894 21.9632 29.9403 22.8823 29.0263 23.0065ZM28.7258 23.1782C28.7256 23.1819 28.7262 23.1839 28.7261 23.1876C28.7261 23.1887 28.7255 23.1897 28.7255 23.1908C28.7255 23.192 28.7262 23.193 28.7263 23.194C28.7201 23.3707 28.7447 23.4921 28.7637 23.5801C28.7668 23.5946 28.7689 23.6053 28.7712 23.6174C28.7106 23.5964 28.6581 23.5859 28.6099 23.5802C28.5785 23.4451 28.5263 23.336 28.4816 23.2655C28.5566 23.1536 28.5841 22.9942 28.6055 22.7834C28.678 22.8817 28.7333 23.0145 28.7258 23.1782ZM28.4999 23.9385C28.5074 23.9218 28.5203 23.8934 28.5272 23.8881C28.527 23.8877 28.5609 23.8731 28.6736 23.9133C28.7032 23.9238 28.7076 23.9349 28.7111 23.9519C28.7393 24.0884 28.5672 24.3923 28.4118 24.5356C28.3091 24.6304 28.1807 24.6744 28.0793 24.6954C28.1216 24.5687 28.1646 24.3708 28.142 24.153C28.2203 24.1527 28.3053 24.1372 28.3952 24.0784C28.454 24.0399 28.4804 23.9815 28.4999 23.9385ZM28.307 22.6322C28.2688 23.0403 28.2598 23.1151 28.1362 23.1414C28.136 22.9839 28.0864 22.8389 28.0279 22.7347C28.1255 22.4649 28.1486 22.2318 28.113 22.0293C28.1587 22.0483 28.2039 22.0728 28.2404 22.113C28.311 22.1905 28.3387 22.3088 28.3234 22.4637L28.307 22.6322ZM21.0323 22.6903C21.5563 22.6183 22.1976 22.8254 22.4814 22.9316C22.4249 23.0514 22.3831 23.1849 22.3616 23.328C22.0912 23.1868 21.4374 22.929 20.2968 22.9518C19.8371 22.9708 19.5434 22.7876 19.3722 22.6112C19.7294 22.707 20.2921 22.7899 21.0323 22.6903ZM20.9299 23.2832C21.211 23.3064 21.4468 23.3466 21.6386 23.3951C21.2825 23.5314 20.7442 23.7482 20.3249 23.9656C20.4609 23.7487 20.6599 23.4946 20.9299 23.2832ZM21.5643 24.8725C21.4354 25.2008 21.2459 25.7547 21.1809 26.2935C20.998 26.3705 20.8059 26.4561 20.5988 26.5567C20.6773 26.1577 20.8477 25.4509 21.1289 24.9796C21.2886 24.9491 21.4337 24.9132 21.5643 24.8725ZM23.8091 27.2364C23.5967 26.7935 23.6007 26.2997 23.6632 25.901C23.8754 26.9282 24.4675 27.736 25.2181 28.021C25.1891 28.082 25.1626 28.1603 25.1486 28.2529C24.4948 28.0543 24.0391 27.7167 23.8091 27.2364ZM25.0282 28.8031C25.0588 28.7345 25.1271 28.6812 25.1887 28.6438C25.2061 28.6935 25.2252 28.7436 25.2544 28.7959C25.2981 28.8741 25.3488 28.9382 25.4026 28.9951C25.3686 29.0728 25.289 29.1314 25.211 29.1318H25.2108C25.1145 29.1318 25.06 29.0441 25.0312 28.9705C25.0063 28.9071 25.0053 28.8539 25.0282 28.8031ZM27.4484 30.9013C27.3396 30.7858 27.2444 30.6677 27.1643 30.5579C27.391 30.6708 27.668 30.7964 27.9456 30.8911C27.799 30.9118 27.6304 30.9204 27.4484 30.9013ZM26.0125 29.1883C26.0795 29.1719 26.1524 29.1423 26.2305 29.0967C26.3816 29.3008 26.5624 29.5051 26.7843 29.6808C26.5098 29.6503 26.1865 29.5328 26.0125 29.1883ZM15.8901 19.1047C15.9075 19.1032 15.9397 19.1064 15.9787 19.119C16.0326 19.1365 16.1011 19.1746 16.1785 19.2656C16.2962 19.4042 16.4495 19.517 16.6168 19.6084C16.6265 19.6137 16.6353 19.6203 16.6451 19.6255C16.859 19.737 17.0975 19.8088 17.338 19.8193L17.4815 19.8267C18.2443 19.8677 19.0833 19.8913 19.3938 19.6524C19.6492 19.4562 20.0211 19.0141 20.5357 18.4022C20.7041 18.2019 20.8869 17.9849 21.0837 17.755C21.4953 17.2739 22.2691 16.6105 22.9517 16.0254C23.6558 15.4221 24.0592 15.0719 24.1639 14.8902L24.1882 14.8475C24.5187 14.2705 25.0318 13.5315 25.6761 13.7944C26.3731 14.0767 26.4121 14.2681 26.4499 14.453C26.4562 14.4842 26.4627 14.5152 26.4706 14.5456C26.5616 14.895 26.7065 15.3334 26.874 15.8408C27.4095 17.4615 28.2026 19.8678 27.8575 21.5613C27.6071 21.347 27.2635 21.3064 27.1112 21.2986C26.9725 21.1231 26.7541 20.9541 26.4908 20.9477C26.3458 20.9465 26.1468 20.9903 25.9722 21.2167C25.8055 21.0417 25.597 20.9419 25.3693 20.9419C25.1629 20.9419 24.8634 21.02 24.5484 21.365C24.5204 20.5537 24.5016 18.5394 24.9197 17.1173C25.0426 16.8277 25.097 16.6228 25.103 16.5988C25.1235 16.5196 25.0792 16.4384 25.0021 16.412C24.9247 16.3881 24.8407 16.4235 24.8084 16.4986C24.742 16.6537 24.6831 16.8198 24.6305 16.9946C24.4022 17.5278 23.9228 18.3769 23.0617 18.8136C21.4994 19.6055 20.4521 20.1653 20.139 20.7086C20.0783 20.8139 20.0139 20.9406 19.9458 21.0742C19.762 21.4361 19.5101 21.9318 19.2939 21.9957C19.257 22.0071 19.2245 22.0022 19.1856 21.9799C19.0077 21.8775 18.8578 21.7077 18.7128 21.5432C18.4999 21.3015 18.2799 21.0519 17.9596 21.006L17.8974 20.997C17.4486 20.9341 16.5145 20.8024 16.3207 20.2844L16.27 20.1487C16.0827 19.6466 16.0714 19.6165 15.8897 19.4178C15.7568 19.273 15.7724 19.219 15.807 19.1569C15.8098 19.1518 15.8118 19.1468 15.8147 19.1415C15.8234 19.1271 15.8482 19.1087 15.8901 19.1047Z" fill="#464655"/>
</g>
<defs>
<clipPath id="clip0_108_47342">
<rect width="50" height="50" fill="white" transform="translate(0.789062 0.318604)"/>
</clipPath>
</defs>
</svg>
