<svg width="51" height="51" viewBox="0 0 51 51" fill="none" xmlns="http://www.w3.org/2000/svg">
<g clip-path="url(#clip0_108_47328)">
<path d="M50.5123 25.3186H0.51236V9.8013C0.51236 9.32522 0.898394 8.93919 1.37447 8.93919H49.6503C50.1263 8.93919 50.5124 9.32522 50.5124 9.8013L50.5123 25.3186Z" fill="#FF4B55"/>
<path d="M0.51297 25.3186H50.5129V40.8359C50.5129 41.312 50.1268 41.698 49.6508 41.698H1.37508C0.899004 41.698 0.51297 41.312 0.51297 40.8359V25.3186Z" fill="#F5F5F5"/>
<path d="M7.59982 17.1412C7.59982 14.3064 9.6799 11.9565 12.396 11.5219C12.5435 11.4982 12.5501 11.2954 12.4046 11.2618C11.7321 11.1072 11.018 11.0632 10.2764 11.1642C7.34689 11.5632 5.08245 14.0983 5.04104 17.0546C4.99387 20.4302 7.71516 23.1788 11.0747 23.1788C11.532 23.1788 11.9761 23.1254 12.4034 23.027C12.5488 22.9936 12.5415 22.7903 12.3942 22.7667C9.67922 22.3323 7.59982 19.987 7.59982 17.1412Z" fill="#F5F5F5"/>
<path d="M12.4406 18.658L12.1854 19.4232L11.3788 19.4295C11.2745 19.4303 11.2311 19.5635 11.3152 19.6256L11.964 20.1048L11.7206 20.8738C11.6892 20.9734 11.8026 21.0557 11.8874 20.995L12.5437 20.5259L13.1999 20.995C13.2849 21.0557 13.3982 20.9733 13.3667 20.8738L13.1234 20.1048L13.7722 19.6256C13.8563 19.5635 13.8129 19.4303 13.7085 19.4295L12.902 19.4232L12.6468 18.658C12.6137 18.559 12.4736 18.559 12.4406 18.658Z" fill="#F5F5F5"/>
<path d="M16.4278 18.658L16.1726 19.4232L15.3661 19.4295C15.2617 19.4303 15.2183 19.5635 15.3024 19.6256L15.9512 20.1048L15.7079 20.8738C15.6764 20.9734 15.7898 21.0557 15.8747 20.995L16.5309 20.5259L17.1872 20.995C17.2721 21.0557 17.3854 20.9733 17.354 20.8738L17.1106 20.1048L17.7594 19.6256C17.8435 19.5635 17.8001 19.4303 17.6957 19.4295L16.8892 19.4232L16.634 18.658C16.6009 18.559 16.4609 18.559 16.4278 18.658Z" fill="#F5F5F5"/>
<path d="M14.452 12.5052L14.1968 13.2704L13.3903 13.2766C13.2859 13.2775 13.2425 13.4107 13.3266 13.4727L13.9754 13.9519L13.7321 14.721C13.7006 14.8206 13.814 14.9029 13.8989 14.8422L14.5551 14.3731L15.2114 14.8422C15.2963 14.9029 15.4096 14.8205 15.3782 14.721L15.1348 13.9519L15.7836 13.4727C15.8677 13.4106 15.8244 13.2775 15.72 13.2766L14.9134 13.2704L14.6583 12.5052C14.6252 12.4061 14.485 12.4061 14.452 12.5052Z" fill="#F5F5F5"/>
<path d="M11.2731 14.8624L11.0179 15.6276L10.2114 15.6339C10.107 15.6348 10.0636 15.768 10.1477 15.83L10.7966 16.3092L10.5532 17.0782C10.5217 17.1778 10.6351 17.2602 10.72 17.1994L11.3762 16.7304L12.0325 17.1994C12.1174 17.2602 12.2307 17.1777 12.1993 17.0782L11.9559 16.3092L12.6048 15.83C12.6888 15.7679 12.6455 15.6348 12.5411 15.6339L11.7345 15.6276L11.4794 14.8624C11.4463 14.7634 11.3062 14.7634 11.2731 14.8624Z" fill="#F5F5F5"/>
<path d="M17.6042 14.8624L17.349 15.6276L16.5425 15.6339C16.4381 15.6348 16.3947 15.768 16.4788 15.83L17.1276 16.3092L16.8842 17.0782C16.8528 17.1778 16.9662 17.2602 17.051 17.1994L17.7073 16.7304L18.3635 17.1994C18.4485 17.2602 18.5618 17.1777 18.5303 17.0782L18.287 16.3092L18.9358 15.83C19.0199 15.7679 18.9765 15.6348 18.8721 15.6339L18.0656 15.6276L17.8104 14.8624C17.7773 14.7634 17.6372 14.7634 17.6042 14.8624Z" fill="#F5F5F5"/>
</g>
<defs>
<clipPath id="clip0_108_47328">
<rect width="50" height="50" fill="white" transform="translate(0.511719 0.318604)"/>
</clipPath>
</defs>
</svg>
