<svg width="51" height="51" viewBox="0 0 51 51" fill="none" xmlns="http://www.w3.org/2000/svg">
<g clip-path="url(#clip0_108_47295)">
<path d="M1.48308 9.36737H49.7589C50.2349 9.36737 50.621 9.7534 50.621 10.2295V25.7466H0.620972V10.2294C0.620972 9.75331 1.00701 9.36737 1.48308 9.36737Z" fill="#FF4B55"/>
<path d="M49.7588 42.1259H1.48308C1.00701 42.1259 0.620972 41.7398 0.620972 41.2638V25.7466H50.6209V41.2639C50.6209 41.7399 50.2348 42.1259 49.7588 42.1259Z" fill="#41479B"/>
<path d="M0.93894 41.9175L24.8003 26.2841C25.1876 26.0303 25.1876 25.4626 24.8003 25.209L0.93894 9.57576C0.748999 9.73387 0.620972 9.96297 0.620972 10.2294V41.2638C0.620972 41.5303 0.748999 41.7594 0.93894 41.9175Z" fill="#F5F5F5"/>
<path d="M9.45864 25.1264C10.9536 25.1264 12.1656 23.9145 12.1656 22.4195C12.1656 20.9245 10.9536 19.7126 9.45864 19.7126C7.96364 19.7126 6.75171 20.9245 6.75171 22.4195C6.75171 23.9145 7.96364 25.1264 9.45864 25.1264Z" fill="#FFE15A"/>
<path d="M12.7684 24.9269C12.7791 25.2554 12.8149 25.5942 12.8493 25.9218C12.9846 27.2072 13.1015 28.3176 11.8669 28.7482C11.5751 28.85 11.1775 28.907 10.7931 28.9621C10.2412 29.0412 9.74709 29.1119 9.45969 29.3122C9.17228 29.112 8.67824 29.0412 8.12629 28.9621C7.74192 28.907 7.34416 28.8499 7.05246 28.7482C5.8179 28.3176 5.93479 27.2072 6.07004 25.9218C6.10452 25.5942 6.14016 25.2554 6.151 24.9269C6.18938 23.7631 5.94397 22.6226 5.77161 21.978C6.05881 22.0959 6.45696 22.2022 6.94514 22.1936C7.15549 22.1894 7.39172 22.1595 7.64172 22.1278C8.21242 22.0551 8.8592 21.9732 9.37687 22.1778L9.45988 22.2147L9.54289 22.1778C10.0605 21.9732 10.7073 22.0551 11.278 22.1278C11.528 22.1595 11.7643 22.1894 11.9746 22.1936C12.4628 22.2022 12.861 22.0958 13.1482 21.978C12.9753 22.6225 12.73 23.7631 12.7684 24.9269Z" fill="#8CD7FF"/>
<path d="M13.2192 24.912C13.1649 23.2622 13.7277 21.607 13.7335 21.5905L13.3787 21.3414C13.3741 21.3452 12.8405 21.7591 11.9831 21.7426C11.7968 21.739 11.5723 21.7104 11.3345 21.6802C10.7375 21.6046 10.0641 21.5189 9.45959 21.7276C8.85509 21.519 8.18176 21.6047 7.58469 21.6802C7.34699 21.7103 7.12238 21.7389 6.93606 21.7426C6.07864 21.7591 5.54514 21.3451 5.54045 21.3414L5.18567 21.5905C5.19124 21.607 5.75432 23.2622 5.69993 24.912C5.68967 25.2244 5.65491 25.5549 5.62112 25.8745C5.48547 27.1641 5.33166 28.6259 6.90363 29.1744C7.23674 29.2904 7.65764 29.3418 8.06203 29.4087C9.27619 29.6099 9.45949 29.9201 9.45949 29.9201C9.45949 29.9201 9.64279 29.6098 10.8569 29.4087C11.2613 29.3418 11.6822 29.2904 12.0153 29.1744C13.5874 28.626 13.4337 27.1641 13.2979 25.8745C13.2644 25.5548 13.2295 25.2244 13.2192 24.912ZM12.7684 24.9269C12.7791 25.2553 12.8149 25.5942 12.8493 25.9217C12.9846 27.2072 13.1015 28.3175 11.8669 28.7482C11.5751 28.85 11.1775 28.907 10.7931 28.9621C10.2412 29.0412 9.74709 29.1119 9.45968 29.3122C9.17228 29.112 8.67824 29.0412 8.12629 28.9621C7.74191 28.907 7.34416 28.8499 7.05246 28.7482C5.81789 28.3175 5.93479 27.2072 6.07004 25.9217C6.10451 25.5942 6.14016 25.2553 6.151 24.9269C6.18938 23.7631 5.94397 22.6226 5.77161 21.978C6.05881 22.0959 6.45696 22.2022 6.94514 22.1936C7.15549 22.1894 7.39172 22.1594 7.64172 22.1278C8.21242 22.0551 8.8592 21.9732 9.37687 22.1778L9.45988 22.2147L9.54289 22.1778C10.0605 21.9732 10.7073 22.0551 11.278 22.1278C11.528 22.1594 11.7643 22.1894 11.9746 22.1936C12.4628 22.2022 12.861 22.0958 13.1482 21.978C12.9753 22.6225 12.73 23.7631 12.7684 24.9269Z" fill="#FF4B55"/>
<path d="M11.7862 27.7002V26.7058H11.9566V26.4125H11.5398V25.3913H11.9566L10.0505 24.041V23.5331H10.3157L9.45981 22.9268L8.60415 23.5331H8.86909V24.041L6.96304 25.3913H7.37993V26.4125H6.96304V26.7058H7.13354V27.7002H6.88452V28.1294H12.0353V27.7002H11.7862Z" fill="#F5F5F5"/>
<path d="M6.98664 23.6305C6.9259 23.7744 6.93625 23.927 7.0008 24.0392C7.12639 24.0071 7.24279 23.9082 7.30363 23.7644C7.36438 23.6204 7.35402 23.4679 7.28947 23.3557C7.16399 23.3877 7.04748 23.4866 6.98664 23.6305Z" fill="#41AA5A"/>
<path d="M7.28158 23.6758C7.32122 23.8269 7.42243 23.9413 7.54175 23.9907C7.62142 23.8888 7.65308 23.7393 7.61344 23.5882C7.57379 23.4371 7.47259 23.3227 7.35327 23.2733C7.27369 23.3751 7.24193 23.5247 7.28158 23.6758Z" fill="#41AA5A"/>
<path d="M7.74043 23.4246C7.88691 23.479 8.03877 23.4621 8.14814 23.3926C8.11074 23.2686 8.00674 23.1565 7.86035 23.1021C7.71387 23.0477 7.56201 23.0646 7.45264 23.1341C7.49004 23.258 7.59394 23.37 7.74043 23.4246Z" fill="#41AA5A"/>
<path d="M7.87766 23.1668C8.02063 23.1039 8.11799 22.9859 8.14807 22.86C8.03479 22.7971 7.88225 22.789 7.73928 22.8518C7.59631 22.9147 7.49905 23.0326 7.46887 23.1586C7.58196 23.2216 7.73459 23.2297 7.87766 23.1668Z" fill="#41AA5A"/>
<path d="M6.91631 23.2971C7.04375 23.2066 7.11533 23.0717 7.11953 22.9421C6.99599 22.9032 6.84482 22.926 6.71738 23.0163C6.58994 23.1066 6.51836 23.2417 6.51416 23.3713C6.63769 23.4103 6.78896 23.3875 6.91631 23.2971Z" fill="#41AA5A"/>
<path d="M6.81025 23.1083C7.00635 23.2206 7.21641 23.2511 7.37266 23.206C7.33242 23.0483 7.1999 22.8826 7.00381 22.7703C6.80771 22.658 6.59766 22.6276 6.44141 22.6727C6.48164 22.8303 6.61426 22.996 6.81025 23.1083Z" fill="#41AA5A"/>
<path d="M7.63857 23.3386C7.63857 23.2624 7.57793 23.2011 7.50234 23.1982C7.49951 23.1226 7.43838 23.062 7.36201 23.062C7.28564 23.062 7.22451 23.1226 7.22168 23.1982C7.14609 23.2011 7.08545 23.2622 7.08545 23.3386C7.08545 23.4147 7.14609 23.476 7.22168 23.4789C7.22451 23.5545 7.28564 23.6151 7.36201 23.6151C7.43838 23.6151 7.49951 23.5545 7.50234 23.4789C7.57793 23.476 7.63857 23.4147 7.63857 23.3386Z" fill="#FFE15A"/>
<path d="M7.36197 23.4215C7.4077 23.4215 7.44476 23.3843 7.44476 23.3385C7.44476 23.2926 7.4077 23.2554 7.36197 23.2554C7.31624 23.2554 7.27917 23.2926 7.27917 23.3385C7.27917 23.3843 7.31624 23.4215 7.36197 23.4215Z" fill="#F5F5F5"/>
<path d="M7.19717 23.1987C7.19717 23.136 7.14726 23.0856 7.08525 23.0834C7.08291 23.0213 7.03252 22.9715 6.96992 22.9715C6.90723 22.9715 6.85684 23.0214 6.85459 23.0834C6.79248 23.0857 6.74268 23.1361 6.74268 23.1987C6.74268 23.2614 6.79258 23.3118 6.85459 23.314C6.85693 23.3761 6.90732 23.4259 6.96992 23.4259C7.03262 23.4259 7.08301 23.376 7.08525 23.314C7.14726 23.3117 7.19717 23.2614 7.19717 23.1987Z" fill="#FFE15A"/>
<path d="M6.96923 23.266C7.00678 23.266 7.03722 23.2354 7.03722 23.1978C7.03722 23.1602 7.00678 23.1296 6.96923 23.1296C6.93169 23.1296 6.90125 23.1602 6.90125 23.1978C6.90125 23.2354 6.93169 23.266 6.96923 23.266Z" fill="#F5F5F5"/>
<path d="M7.62015 23.0031C7.62015 22.958 7.58421 22.9216 7.5397 22.92C7.53794 22.8752 7.5019 22.8393 7.45681 22.8393C7.41171 22.8393 7.37557 22.8753 7.37391 22.92C7.3293 22.9217 7.29346 22.9579 7.29346 23.0031C7.29346 23.0482 7.3294 23.0845 7.37391 23.0862C7.37567 23.1309 7.41171 23.1668 7.45681 23.1668C7.5019 23.1668 7.53804 23.1308 7.5397 23.0862C7.58431 23.0845 7.62015 23.0483 7.62015 23.0031Z" fill="#FFE15A"/>
<path d="M7.45659 23.0526C7.48365 23.0526 7.50558 23.0306 7.50558 23.0035C7.50558 22.9763 7.48365 22.9543 7.45659 22.9543C7.42953 22.9543 7.40759 22.9763 7.40759 23.0035C7.40759 23.0306 7.42953 23.0526 7.45659 23.0526Z" fill="#F5F5F5"/>
<path d="M7.309 22.8619C7.309 22.8167 7.27305 22.7804 7.22854 22.7788C7.22679 22.734 7.19075 22.6981 7.14565 22.6981C7.10065 22.6981 7.06441 22.7341 7.06276 22.7788C7.01815 22.7805 6.9823 22.8166 6.9823 22.8619C6.9823 22.9071 7.01824 22.9433 7.06276 22.945C7.06451 22.9897 7.10055 23.0256 7.14565 23.0256C7.19065 23.0256 7.22688 22.9896 7.22854 22.945C7.27315 22.9433 7.309 22.907 7.309 22.8619Z" fill="#FFE15A"/>
<path d="M7.14458 22.9109C7.17164 22.9109 7.19357 22.8889 7.19357 22.8618C7.19357 22.8346 7.17164 22.8127 7.14458 22.8127C7.11752 22.8127 7.09558 22.8346 7.09558 22.8618C7.09558 22.8889 7.11752 22.9109 7.14458 22.9109Z" fill="#F5F5F5"/>
<path d="M10.9132 24.1016H12.4778C12.3776 23.8722 12.181 23.6947 11.9372 23.6224C11.955 23.5085 11.9659 23.3821 11.9659 23.2464C11.9659 22.7739 11.8449 22.3909 11.6955 22.3909C11.5461 22.3909 11.4251 22.774 11.4251 23.2464C11.4251 23.382 11.436 23.5085 11.4538 23.6224C11.21 23.6947 11.0133 23.8722 10.9132 24.1016Z" fill="#F5F5F5"/>
<path d="M9.4598 31.7811C6.16352 31.7811 3.48169 29.0995 3.48169 25.803H4.60962C4.60962 28.4774 6.78539 30.6531 9.45971 30.6531C12.134 30.6531 14.3098 28.4774 14.3098 25.803H15.4379C15.4379 29.0995 12.7563 31.7811 9.4598 31.7811Z" fill="#FFE15A"/>
<path d="M11.6752 20.4614H10.7003C10.7982 20.4614 10.8776 20.3821 10.8776 20.2841C10.8776 20.1862 10.7983 20.1069 10.7003 20.1069H9.45961C9.36176 20.1069 9.28237 20.1862 9.28237 20.2841C9.28237 20.3821 9.36166 20.4614 9.45961 20.4614H7.24409C7.09722 20.4614 6.97827 20.5804 6.97827 20.7272C6.97827 20.874 7.09731 20.993 7.24409 20.993H8.04165C7.9438 20.993 7.8645 21.0723 7.8645 21.1703C7.8645 21.2681 7.9438 21.3475 8.04175 21.3475H9.63696C9.73481 21.3475 9.8142 21.2682 9.8142 21.1703C9.8142 21.0724 9.73491 20.993 9.63705 20.993H11.6753C11.8222 20.993 11.9412 20.874 11.9412 20.7272C11.9412 20.5804 11.8221 20.4614 11.6752 20.4614Z" fill="#C87878"/>
</g>
<defs>
<clipPath id="clip0_108_47295">
<rect width="50" height="50" fill="white" transform="translate(0.621094 0.746582)"/>
</clipPath>
</defs>
</svg>
