<svg width="51" height="51" viewBox="0 0 51 51" fill="none" xmlns="http://www.w3.org/2000/svg">
<g clip-path="url(#clip0_108_47322)">
<path d="M49.9442 41.6978H1.66847C1.1924 41.6978 0.806366 41.3118 0.806366 40.8357V9.8014C0.806366 9.32532 1.1924 8.93929 1.66847 8.93929H49.9443C50.4203 8.93929 50.8064 9.32532 50.8064 9.8014V40.8357C50.8063 41.3119 50.4202 41.6978 49.9442 41.6978Z" fill="#41479B"/>
<path d="M49.9442 8.93929H1.66847C1.1924 8.93929 0.806366 9.32532 0.806366 9.8014V40.8357C0.806366 41.3118 1.1924 41.6978 1.66847 41.6978H49.9443C50.4203 41.6978 50.8064 41.3118 50.8064 40.8357V9.8014C50.8063 9.32532 50.4202 8.93929 49.9442 8.93929ZM49.0821 24.4564H40.6754L26.6684 17.041V10.6634H49.0822V24.4564H49.0821ZM25.8062 32.1019L12.9936 25.3186L25.8063 18.5353L38.619 25.3186L25.8062 32.1019ZM24.9442 10.6634V17.041L10.9371 24.4564H2.53048V10.6634H24.9442ZM2.53048 26.1807H10.9371L24.9442 33.5962V39.9737H2.53048V26.1807ZM26.6683 39.9737V33.5961L40.6755 26.1807H49.0821V39.9737H26.6683Z" fill="#FF4B55"/>
<path d="M25.806 18.5353L12.9935 25.3186L25.806 32.1019L38.6188 25.3186L25.806 18.5353Z" fill="#F5F5F5"/>
<path d="M21.496 29.8198H30.1168L36.1188 26.6423L33.4188 23.9423H32.4762L31.7804 24.6381L31.284 24.1417H30.2913L26.4833 27.9496H21.7031L20.6175 26.3423H19.2399L18.6971 27.1028H18.087L17.7206 27.8211L21.496 29.8198Z" fill="#73AF00"/>
<path d="M25.922 21.1885L26.2646 22.2158L27.3476 22.2242C27.4879 22.2253 27.546 22.4043 27.4332 22.4876L26.562 23.131L26.8888 24.1635C26.931 24.2972 26.7788 24.4078 26.6647 24.3262L25.7837 23.6964L24.9026 24.3262C24.7885 24.4077 24.6363 24.2971 24.6786 24.1635L25.0054 23.131L24.1342 22.4876C24.0214 22.4043 24.0796 22.2254 24.2197 22.2242L25.3027 22.2158L25.6454 21.1885C25.6894 21.0556 25.8776 21.0556 25.922 21.1885Z" fill="#FFE15A"/>
</g>
<defs>
<clipPath id="clip0_108_47322">
<rect width="50" height="50" fill="white" transform="translate(0.804688 0.318604)"/>
</clipPath>
</defs>
</svg>
