<svg width="51" height="51" viewBox="0 0 51 51" fill="none" xmlns="http://www.w3.org/2000/svg">
<g clip-path="url(#clip0_108_47229)">
<path d="M50.3606 20.287H0.360718V10.2295C0.360718 9.7534 0.746752 9.36737 1.22283 9.36737H49.4986C49.9747 9.36737 50.3607 9.7534 50.3607 10.2295L50.3606 20.287Z" fill="#73AF00"/>
<path d="M49.4985 42.1259H1.22283C0.746752 42.1259 0.360718 41.7399 0.360718 41.2638V31.2064H50.3606V41.2638C50.3606 41.74 49.9746 42.1259 49.4985 42.1259Z" fill="#FF4B55"/>
<path d="M50.3606 20.2867H0.360718V31.2056H50.3606V20.2867Z" fill="#F5F5F5"/>
<path d="M25.5778 23.255L26.1156 24.8676L27.8155 24.8807C28.0355 24.8825 28.1268 25.1633 27.9497 25.294L26.5823 26.3038L27.0949 27.9246C27.1614 28.1343 26.9224 28.308 26.7433 28.1799L25.3603 27.1916L23.9773 28.18C23.7982 28.3081 23.5593 28.1344 23.6256 27.9247L24.1383 26.3039L22.7708 25.2941C22.5938 25.1634 22.6851 24.8825 22.9051 24.8808L24.605 24.8676L25.1428 23.2551C25.2128 23.0463 25.5081 23.0463 25.5778 23.255Z" fill="#464655"/>
<path d="M13.6885 13.8191C13.7562 14.2528 14.0184 14.389 14.2465 14.3713C14.5152 14.3504 14.7509 14.1046 14.7509 13.8451V12.3565C14.7509 12.2819 14.8116 12.2212 14.8863 12.2212C14.961 12.2212 15.0216 12.2819 15.0216 12.3565V13.8515C15.0216 14.0312 15.1104 14.1987 15.2593 14.2994C15.3503 14.3609 15.4561 14.3928 15.5628 14.3928C15.6306 14.3928 15.6989 14.3799 15.7639 14.3539L15.8992 14.2998C15.9117 15.5492 15.8356 16.6475 15.8342 16.6676C15.8237 16.8166 15.9359 16.9461 16.0849 16.9567C16.0915 16.9573 16.098 16.9575 16.1046 16.9575C16.2453 16.9575 16.3641 16.8485 16.3743 16.7061C16.3805 16.6181 16.4639 15.4155 16.4389 14.084L16.5208 14.0514C16.5925 14.0229 16.673 14.0263 16.742 14.0606C17.0401 14.2092 17.3987 14.1513 17.6344 13.9158L17.6833 13.8672C17.902 13.6481 17.9771 13.3299 17.8793 13.0362L17.6488 12.3448C17.7734 12.3823 17.9103 12.3272 17.9705 12.2071C18.0374 12.0734 17.9832 11.9108 17.8495 11.8439L17.3082 11.5732C17.2102 11.5241 17.0927 11.5392 17.0098 11.6107C16.9271 11.6826 16.8959 11.7971 16.9304 11.901L17.3659 13.2074C17.3985 13.3053 17.3734 13.4115 17.3005 13.4844L17.2519 13.533C17.1813 13.6036 17.0739 13.6207 16.984 13.5764C16.8087 13.4888 16.6089 13.4723 16.4215 13.5201C16.3835 12.6515 16.29 11.7864 16.0906 11.1885C16.0434 11.0468 15.8904 10.9699 15.7481 11.0175C15.6063 11.0646 15.5297 11.2178 15.577 11.3598C15.7719 11.9445 15.857 12.8358 15.8872 13.7221L15.5632 13.8517V12.3567C15.5632 11.9836 15.2597 11.6801 14.8866 11.6801C14.5135 11.6801 14.2099 11.9835 14.2099 12.3567V13.6669L13.9339 12.3031C13.9045 12.1564 13.7618 12.0607 13.615 12.0914C13.4684 12.1213 13.3737 12.2641 13.4035 12.4104L13.6885 13.8191Z" fill="#F5F5F5"/>
<path d="M14.2093 11.5445C14.3587 11.5445 14.48 11.4235 14.48 11.2738V11.0032C14.48 10.8536 14.3588 10.7325 14.2093 10.7325C14.0599 10.7325 13.9386 10.8535 13.9386 11.0032V11.2739C13.9388 11.4235 14.0599 11.5445 14.2093 11.5445Z" fill="#F5F5F5"/>
<path d="M16.9157 11.2738H17.1864C17.3358 11.2738 17.4571 11.1528 17.4571 11.0031C17.4571 10.8534 17.3359 10.7324 17.1864 10.7324H16.9157C16.7662 10.7324 16.645 10.8534 16.645 11.0031C16.645 11.1528 16.7661 11.2738 16.9157 11.2738Z" fill="#F5F5F5"/>
<path d="M15.1527 14.8309L13.7995 15.6428C13.6712 15.7198 13.6297 15.886 13.7067 16.0141C13.7575 16.0987 13.847 16.1454 13.939 16.1454C13.9865 16.1454 14.0344 16.133 14.078 16.1069L15.4312 15.295C15.5594 15.218 15.6009 15.0518 15.524 14.9237C15.447 14.7955 15.281 14.754 15.1527 14.8309Z" fill="#F5F5F5"/>
<path d="M18.8016 15.3097L18.8079 15.3054C18.8307 15.3969 18.8696 15.4854 18.9328 15.5597C19.0428 15.6892 19.2077 15.7542 19.394 15.7389C19.6584 15.7195 19.8381 15.5988 19.9569 15.4429C19.975 15.4553 19.9941 15.4667 20.0141 15.4767C20.1603 15.5504 20.3295 15.5448 20.4905 15.4613C20.8996 15.2507 20.9877 14.7633 20.9752 14.5085C20.968 14.36 20.8416 14.2551 20.6933 14.2522C20.5446 14.2585 20.429 14.3846 20.4343 14.5331C20.4344 14.5365 20.4405 14.8577 20.244 14.9769C20.212 14.9321 20.174 14.8318 20.1598 14.7487C20.1369 14.6094 20.009 14.5124 19.8713 14.5236C19.7309 14.5347 19.6225 14.6526 19.6221 14.7934C19.622 14.8327 19.6133 15.18 19.3451 15.2091C19.314 15.1665 19.3135 14.9873 19.344 14.8549C19.3699 14.7463 19.3264 14.6329 19.2345 14.5694C19.1424 14.5058 19.0209 14.5058 18.9285 14.5684L18.7774 14.6712C18.7057 13.1017 18.5405 11.2728 18.5385 11.2493C18.525 11.1008 18.3941 10.9901 18.2444 11.0043C18.0955 11.0178 17.9858 11.1494 17.9993 11.2985C18.0017 11.3235 18.1929 13.4395 18.2517 15.0556C18.238 15.0688 18.2236 15.0831 18.2101 15.0956C18.103 14.8258 17.8909 14.6559 17.6176 14.6299C17.2319 14.5958 16.8142 14.8582 16.6644 15.233C16.5353 15.5555 16.6165 15.8724 16.8713 16.0402C17.0545 16.161 17.3309 16.199 17.6785 16.0772C17.5937 16.3753 17.4392 16.6776 17.2383 16.9115C17.0584 17.1211 16.758 17.3629 16.3736 17.3522C16.1499 17.3435 15.9779 17.2702 15.848 17.128C15.5347 16.7858 15.5616 16.1662 15.5619 16.1596C15.5696 16.0106 15.4556 15.8834 15.3066 15.8752C15.1566 15.8594 15.0297 15.9813 15.0214 16.1305C15.0195 16.1649 14.9804 16.9788 15.4464 17.4908C15.6758 17.7432 15.9807 17.8783 16.3524 17.8929C16.3705 17.8937 16.3887 17.894 16.4068 17.894C16.8597 17.894 17.2988 17.672 17.6487 17.2641C17.9779 16.8808 18.2015 16.3602 18.2684 15.8769C18.2676 16.8027 17.7098 17.847 16.9698 18.307C16.6557 18.5021 16.1659 18.6781 15.6143 18.4062C14.9342 18.0705 15.0152 17.2933 15.0187 17.2614C15.0374 17.1132 14.9321 16.9778 14.7838 16.9594C14.6361 16.9414 14.5001 17.0458 14.4817 17.1943C14.4757 17.2427 14.3456 18.3837 15.3748 18.8914C15.6392 19.022 15.9155 19.0868 16.1942 19.0868C16.5521 19.0868 16.9133 18.9798 17.2557 18.7668C18.1563 18.207 18.8101 16.9907 18.8101 15.8748C18.8104 15.7007 18.8071 15.5101 18.8016 15.3097ZM17.1696 15.5886C17.1213 15.5566 17.1591 15.4543 17.1673 15.434C17.2243 15.2913 17.4025 15.1678 17.545 15.1678C17.5522 15.1678 17.5597 15.168 17.5668 15.1689C17.6014 15.172 17.6933 15.1807 17.7327 15.3851C17.7369 15.4068 17.7404 15.4289 17.7433 15.4517C17.4416 15.6288 17.2394 15.6344 17.1696 15.5886Z" fill="#F5F5F5"/>
<path d="M14.346 18.0778C14.2178 18.0025 14.0522 18.0456 13.976 18.1737C13.9636 18.1946 13.947 18.2174 13.9303 18.238C13.9273 18.2311 13.9244 18.2237 13.9216 18.2158C13.8088 17.9148 13.8891 17.451 13.9297 17.2977C13.9679 17.1533 13.8819 17.0053 13.7377 16.9667C13.5937 16.9298 13.4454 17.0138 13.4067 17.1581C13.387 17.2313 13.2206 17.8884 13.4148 18.4059C13.539 18.7368 13.7296 18.8203 13.8679 18.8316C13.8802 18.8327 13.8923 18.8333 13.9043 18.8333C14.1957 18.8333 14.3896 18.5397 14.4436 18.4467C14.5182 18.3176 14.4744 18.1535 14.346 18.0778Z" fill="#F5F5F5"/>
<path d="M19.3404 13.1685C19.3989 13.1685 19.4579 13.1497 19.5074 13.1105L20.8719 12.0394C20.8907 12.0246 20.9027 12.0052 20.9165 11.987C21.113 11.8685 21.246 11.6551 21.246 11.4093C21.246 11.0361 20.9425 10.7326 20.5693 10.7326C20.1963 10.7326 19.8927 11.036 19.8927 11.4093C19.8927 11.6181 19.9896 11.8027 20.1387 11.9269L19.1729 12.6851C19.0555 12.7773 19.0351 12.9476 19.1272 13.0649C19.1808 13.133 19.2601 13.1685 19.3404 13.1685ZM20.5694 11.2738C20.6441 11.2738 20.7048 11.3346 20.7048 11.4092C20.7048 11.4838 20.6441 11.5445 20.5694 11.5445C20.4947 11.5445 20.4341 11.4838 20.4341 11.4092C20.4341 11.3347 20.4947 11.2738 20.5694 11.2738Z" fill="#F5F5F5"/>
<path d="M20.249 12.9118C20.1065 12.8643 19.9538 12.9411 19.9066 13.0828C19.8776 13.1695 19.7468 13.6159 20.012 13.881C20.115 13.9841 20.2503 14.0356 20.4164 14.0353C20.5275 14.0353 20.6522 14.0125 20.7903 13.9663C20.932 13.9193 21.0087 13.766 20.9613 13.624C20.9141 13.4823 20.7611 13.4052 20.6189 13.453C20.4677 13.5032 20.4036 13.495 20.398 13.5003C20.382 13.4601 20.3926 13.3393 20.4202 13.2528C20.4671 13.1115 20.3904 12.9589 20.249 12.9118Z" fill="#F5F5F5"/>
<path d="M23.3468 11.7931C23.3721 11.8005 23.3977 11.8039 23.4228 11.8039C23.5401 11.8039 23.648 11.7273 23.6824 11.6091L23.8405 11.0678C23.8823 10.9242 23.7999 10.7739 23.6565 10.7321C23.5125 10.6906 23.3627 10.7726 23.3208 10.9161L23.1629 11.4574C23.1209 11.6008 23.2035 11.7513 23.3468 11.7931Z" fill="#F5F5F5"/>
<path d="M21.7691 11.7612C21.8121 11.7863 21.859 11.7982 21.9055 11.7982C21.9985 11.7982 22.089 11.7503 22.1395 11.6641C22.2149 11.5351 22.1715 11.3692 22.0425 11.2939C21.9881 11.2622 21.9955 11.1726 21.9975 11.1549C22.0056 11.0838 22.0479 10.9972 22.1217 10.974C22.2644 10.9296 22.3442 10.7779 22.2998 10.6353C22.255 10.4923 22.1037 10.4133 21.9608 10.4571C21.691 10.5412 21.4943 10.7909 21.4597 11.0934C21.4274 11.3748 21.546 11.6308 21.7691 11.7612Z" fill="#F5F5F5"/>
<path d="M19.6223 16.1455C19.4729 16.1455 19.3516 16.2665 19.3516 16.4162C19.3516 16.5484 19.4463 16.6583 19.5715 16.682C19.5858 16.7029 19.6223 16.7745 19.6223 16.9574C19.6223 17.107 19.7435 17.2281 19.893 17.2281C20.0425 17.2281 20.1637 17.1071 20.1637 16.9574C20.1636 16.1548 19.6444 16.1455 19.6223 16.1455Z" fill="#F5F5F5"/>
<path d="M24.2142 15.0249C24.2482 15.0305 24.2819 15.0331 24.3159 15.0331C24.5285 15.0331 24.7434 14.9258 24.9563 14.7131C25.0619 14.6074 25.0619 14.4362 24.9563 14.3304C24.8506 14.2247 24.6793 14.2247 24.5735 14.3304C24.4117 14.4925 24.3246 14.4958 24.3023 14.4908C24.2505 14.4834 24.2037 14.416 24.1933 14.3975C24.1254 14.2659 23.9644 14.2132 23.8318 14.2796C23.6982 14.3465 23.644 14.509 23.7109 14.6428C23.7276 14.6764 23.8839 14.9713 24.2142 15.0249Z" fill="#F5F5F5"/>
<path d="M28.8142 13.123C28.8125 13.1188 28.8109 13.1148 28.8096 13.1111C28.7617 12.9705 28.6084 12.8942 28.468 12.942C28.3261 12.9891 28.2495 13.1423 28.2968 13.2843C28.3179 13.3478 28.4385 13.6659 28.7372 13.7062C28.7571 13.7089 28.7769 13.7102 28.7966 13.7102C28.9841 13.7102 29.16 13.5889 29.3202 13.3488C29.4031 13.2246 29.3694 13.0565 29.2451 12.9735C29.1207 12.8908 28.9525 12.9241 28.8698 13.0486C28.8482 13.0805 28.8298 13.1048 28.8142 13.123Z" fill="#F5F5F5"/>
<path d="M28.2831 18.0402C28.2831 16.886 28.2323 15.8033 28.162 14.8546C28.5464 15.5211 28.8921 16.1946 29.1123 16.7821C29.1531 16.8907 29.2562 16.9576 29.3657 16.9576C29.3973 16.9576 29.4294 16.9521 29.4607 16.9406C29.6007 16.888 29.6716 16.7321 29.6191 16.5919C29.2766 15.6786 28.6608 14.5911 28.0539 13.6255C27.906 12.1675 27.7403 11.2422 27.7373 11.2257C27.7105 11.0786 27.5699 10.9791 27.4227 11.008C27.2756 11.0347 27.178 11.1755 27.2048 11.3225C27.2069 11.3342 27.2923 11.811 27.3941 12.6132C27.1862 12.3047 26.9931 12.0263 26.8309 11.7972L26.8441 11.8014C26.9867 11.849 27.1392 11.7721 27.1866 11.6304C27.2339 11.4885 27.1573 11.3352 27.0155 11.2881L26.2036 11.0174C26.091 10.9793 25.9674 11.0196 25.8984 11.1157C25.88 11.1413 25.8673 11.1695 25.8589 11.1987C25.6968 11.0788 25.4891 10.9816 25.294 11.0631C25.1761 11.1121 25.0355 11.2352 25.0355 11.5447C25.0355 11.7823 25.1261 12.0392 25.2222 12.3114C25.3815 12.7627 25.4814 13.0948 25.3126 13.2531C25.2192 13.3406 25.1262 13.3736 25.0353 13.3506C24.8684 13.3083 24.7031 13.0861 24.5932 12.7559C24.5884 12.7415 24.5784 12.7312 24.5716 12.7183C24.6285 12.299 24.6037 11.794 24.4891 11.2209C24.4599 11.0743 24.3176 10.9788 24.1705 11.0086C24.0239 11.0379 23.9289 11.1804 23.9582 11.3272C24.135 12.211 24.0819 12.9321 23.8164 13.2558C23.7137 13.3811 23.5852 13.4392 23.4116 13.4392C23.3567 13.4392 23.3193 13.4217 23.2821 13.3789C23.0686 13.1328 23.0695 12.3389 23.1384 11.8535C23.1494 11.776 23.1261 11.6972 23.0747 11.638C23.0233 11.5788 22.9487 11.5447 22.8704 11.5447C22.4047 11.5447 22.2281 12.0743 22.0724 12.5416C22.004 12.747 21.8767 13.1289 21.7879 13.1686C21.624 13.1686 21.5182 12.6875 21.5172 12.3564C21.5168 12.2071 21.3957 12.0863 21.2465 12.0863H21.2461C21.0968 12.0863 20.9759 12.2073 20.9759 12.3567C20.9759 12.9809 21.1885 13.7099 21.7878 13.7099C22.234 13.7099 22.4149 13.2236 22.5661 12.7716C22.5924 13.1311 22.6735 13.5036 22.8732 13.7334C23.0134 13.8952 23.1995 13.9805 23.4116 13.9805C23.7457 13.9805 24.0304 13.8486 24.2349 13.5992C24.272 13.554 24.3038 13.5022 24.3355 13.4498C24.4927 13.6732 24.6854 13.8205 24.9025 13.8754C24.9662 13.8916 25.0304 13.8997 25.0939 13.8997C25.3028 13.8997 25.507 13.8135 25.6833 13.6479C25.7199 13.6134 25.7458 13.5758 25.7737 13.5387C25.8399 13.5577 25.907 13.5689 25.9736 13.5689C26.193 13.5689 26.4039 13.4806 26.5349 13.3966C26.6602 13.3162 26.6964 13.1503 26.6168 13.0245C26.537 12.899 26.3703 12.8615 26.2441 12.9403C26.2419 12.9413 26.061 13.0453 25.9378 13.0208C25.9381 12.7242 25.8308 12.409 25.7327 12.1314C25.6769 11.9733 25.6196 11.8114 25.5928 11.6789C25.615 11.6977 25.6369 11.7173 25.6564 11.7363C25.7618 11.8419 25.9332 11.8419 26.0389 11.7363C26.0563 11.7188 26.0664 11.6976 26.0782 11.6771C26.3588 12.0636 26.9357 12.8757 27.5293 13.8119C27.6426 14.9625 27.7421 16.4305 27.7421 18.0404C27.7421 18.19 27.8633 18.3111 28.0128 18.3111C28.1619 18.3108 28.2831 18.1897 28.2831 18.0402Z" fill="#F5F5F5"/>
<path d="M28.5535 12.0859C28.5535 12.2355 28.6747 12.3566 28.8242 12.3566C28.9736 12.3566 29.0949 12.2356 29.0949 12.0859C29.0949 11.7673 28.8457 11.2528 28.7957 11.1529C28.7288 11.0194 28.5664 10.9655 28.4325 11.0319C28.2988 11.0988 28.2446 11.2613 28.3115 11.395C28.4091 11.5903 28.5535 11.9447 28.5535 12.0859Z" fill="#F5F5F5"/>
<path d="M27.3222 18.0696C27.1896 18.002 27.0264 18.0557 26.9589 18.1888C26.9298 18.2456 26.8848 18.3088 26.8467 18.3494C26.8346 18.2419 26.8634 18.027 26.9179 17.8488C26.9542 17.7299 26.905 17.6014 26.7984 17.5375C26.6922 17.4732 26.5555 17.4899 26.4678 17.5779L25.9265 18.1192C25.8208 18.2249 25.8208 18.3962 25.9265 18.502C26.0321 18.6078 26.2034 18.6076 26.3092 18.502L26.323 18.4882C26.3463 18.5968 26.3911 18.6959 26.4678 18.7726C26.5692 18.874 26.6919 18.9277 26.8194 18.9277C26.8442 18.9277 26.8691 18.9256 26.8938 18.9217C27.2003 18.872 27.3912 18.534 27.4425 18.4317C27.5092 18.2983 27.4553 18.1368 27.3222 18.0696Z" fill="#F5F5F5"/>
<path d="M27.2172 15.8918H25.3098C25.3267 15.8244 25.3442 15.7603 25.3618 15.6992C26.1225 15.541 26.5745 15.2956 26.7075 14.9678C26.7535 14.8541 26.8015 14.6244 26.6058 14.3605C26.4294 14.1227 26.1802 14.0159 25.9216 14.0687C25.537 14.1467 25.1944 14.5611 24.9485 15.2245C24.1845 15.3554 23.6953 15.6296 23.3858 15.9003C23.276 14.7912 22.8453 14.1325 22.8245 14.1011C22.7415 13.9767 22.5735 13.943 22.4492 14.026C22.3249 14.109 22.2913 14.2769 22.3741 14.4013C22.379 14.4087 22.8699 15.1596 22.8699 16.4163C22.8699 17.6517 21.8849 18.5816 21.246 18.5816C20.9421 18.5816 20.8092 18.2203 20.7506 17.915C21.376 17.4766 21.928 16.9694 22.0498 16.482C22.2148 15.8225 22.0072 15.3365 21.8698 15.0149C21.8634 15.0001 21.8566 14.9842 21.8498 14.9678C21.8557 14.9731 21.8612 14.9786 21.8667 14.984C21.9722 15.0897 22.1436 15.0897 22.2492 14.984C22.3549 14.8784 22.3549 14.7071 22.2492 14.6013C22.091 14.443 21.7838 14.1943 21.5045 14.3111C21.3865 14.36 21.2459 14.4831 21.2459 14.7926C21.2459 14.9325 21.3043 15.0691 21.372 15.2277C21.4939 15.5129 21.6453 15.8679 21.5245 16.3509C21.4531 16.6367 21.1019 16.9836 20.6387 17.328C20.589 17.2686 20.5172 17.2286 20.4339 17.2286H20.4335C20.2842 17.2288 20.1633 17.3496 20.1633 17.4991C20.1633 17.5478 20.1655 17.5998 20.1686 17.6532C19.5894 18.0283 18.934 18.3755 18.4273 18.6061C18.2912 18.6679 18.2312 18.8283 18.293 18.9645C18.3384 19.0642 18.4367 19.1231 18.5395 19.1231C18.577 19.1231 18.6151 19.1155 18.6513 19.0988C18.8034 19.0296 19.5257 18.6931 20.2678 18.2332C20.4044 18.6972 20.694 19.1231 21.2459 19.1231C21.8951 19.1231 22.6318 18.5921 23.0568 17.7994C23.108 17.8901 23.1671 17.9768 23.2373 18.0578C23.9186 18.8434 25.2491 18.8524 25.3055 18.8524C25.4513 18.8524 25.5707 18.7371 25.576 18.5915C25.5812 18.4459 25.4701 18.3222 25.3249 18.3119C25.3228 18.3117 25.1071 18.2879 24.9871 18.1478C24.9147 18.0632 24.8858 17.9469 24.8986 17.7923C24.9264 17.4588 26.0021 17.2096 26.9504 17.1947C27.0635 17.1928 27.1635 17.1211 27.2014 17.0147L27.4721 16.2534C27.5015 16.1707 27.4889 16.0784 27.4381 16.0069C27.3877 15.9347 27.3051 15.8918 27.2172 15.8918ZM26.0291 14.5994C26.0343 14.5984 26.0412 14.5967 26.0497 14.5967C26.0756 14.5967 26.1164 14.6094 26.1709 14.6829C26.1813 14.6967 26.2142 14.7437 26.2059 14.7643C26.1748 14.841 25.988 14.9675 25.5987 15.0823C25.7698 14.7483 25.9373 14.6178 26.0291 14.5994ZM24.3947 18.1572C24.1197 18.0678 23.8396 17.9261 23.6456 17.7018C23.4324 17.4552 23.3537 17.1433 23.4053 16.7487C23.413 16.728 23.4307 16.687 23.4617 16.6339C23.8429 16.599 24.861 16.7492 24.9316 17.0408C24.6176 17.2012 24.3862 17.4265 24.3595 17.747C24.3461 17.9077 24.3624 18.0438 24.3947 18.1572Z" fill="#F5F5F5"/>
<path d="M30.1637 12.0003L29.893 11.1884C29.8493 11.0578 29.7139 10.9799 29.5796 11.0095C29.4446 11.0383 29.3531 11.1638 29.3669 11.301C29.5536 13.1686 29.9068 16.8106 29.9068 17.2282C29.9068 17.6032 29.2398 18.3417 28.1619 18.8807C28.0282 18.9475 27.974 19.11 28.0409 19.2438C28.0884 19.3388 28.1839 19.3934 28.2833 19.3934C28.3238 19.3934 28.3652 19.3842 28.4041 19.3649C29.3886 18.8725 30.4482 17.994 30.4482 17.2283C30.4482 16.8284 30.1715 13.9512 30.0131 12.3351C30.1417 12.2801 30.2086 12.135 30.1637 12.0003Z" fill="#F5F5F5"/>
<path d="M32.4221 14.4424C32.4741 14.4944 32.5434 14.5217 32.6136 14.5217C32.6593 14.5217 32.7054 14.5101 32.7473 14.4862C32.8531 14.426 32.9057 14.3023 32.8757 14.1842C32.8272 13.9939 32.811 13.7561 32.8367 13.6588C32.9723 13.663 33.0982 13.5665 33.1181 13.4267C33.1392 13.2786 33.0364 13.1414 32.8886 13.1203C32.7096 13.096 32.5525 13.1486 32.4427 13.2707C32.3716 13.35 32.3293 13.4518 32.3063 13.5612L31.9928 13.2478C31.8871 13.1421 31.7158 13.1421 31.6101 13.2478C31.5044 13.3534 31.5044 13.5247 31.6101 13.6305L32.4221 14.4424Z" fill="#F5F5F5"/>
<path d="M33.0308 14.7246L32.0159 15.452C31.8944 15.5389 31.8664 15.7081 31.9535 15.8297C32.0064 15.9034 32.0895 15.9425 32.1737 15.9425C32.2283 15.9425 32.2833 15.9261 32.3311 15.8917L33.346 15.1644C33.4675 15.0774 33.4955 14.9082 33.4084 14.7866C33.3212 14.6652 33.1518 14.6369 33.0308 14.7246Z" fill="#F5F5F5"/>
<path d="M32.941 15.7425C32.8559 15.8521 32.8681 16.0064 32.9648 16.1015C32.9764 16.1211 33.0291 16.2246 33.0196 16.491C33.0144 16.6406 33.1312 16.7659 33.2805 16.7712C33.2838 16.7714 33.287 16.7714 33.2902 16.7714C33.4354 16.7714 33.5553 16.6564 33.5606 16.5105C33.5804 15.9582 33.3995 15.7562 33.3209 15.6951C33.2031 15.6029 33.0328 15.6246 32.941 15.7425Z" fill="#F5F5F5"/>
<path d="M35.3031 17.7355C35.4525 17.7355 35.5738 17.6145 35.5738 17.4648C35.5738 17.0655 35.5533 16.6197 35.5197 16.1559C35.788 16.5956 36.011 17.001 36.1539 17.3345C36.1978 17.4373 36.2977 17.4986 36.4028 17.4986C36.4383 17.4986 36.4745 17.4917 36.5092 17.4767C36.6465 17.4177 36.7102 17.2587 36.6512 17.1215C36.4034 16.5433 35.9404 15.7773 35.4129 14.9864C35.3068 13.993 35.1681 13.0197 35.0604 12.3215C35.1177 12.3273 35.1772 12.3133 35.2294 12.2795C35.3149 12.2247 35.355 12.1296 35.3492 12.035C35.3562 12.0616 35.3637 12.0883 35.3792 12.1128C35.3811 12.1155 35.555 12.4027 35.4779 12.7754C35.4476 12.9215 35.5416 13.0648 35.6881 13.0952C35.7067 13.0989 35.725 13.1008 35.7432 13.1008C35.8689 13.1008 35.9815 13.0127 36.008 12.8849C36.1302 12.2936 35.848 11.8411 35.836 11.8222C35.7556 11.6963 35.5883 11.6594 35.4622 11.7392C35.3764 11.7939 35.3359 11.8891 35.3414 11.9839C35.3344 11.9571 35.3267 11.9302 35.311 11.9057L34.8543 11.1952C34.7845 11.0868 34.6481 11.043 34.5282 11.0896C34.408 11.1366 34.3377 11.2616 34.3601 11.3885C34.3639 11.4097 34.5706 12.5975 34.754 14.0289C34.5465 13.7359 34.3391 13.4494 34.1378 13.176C34.1051 12.7665 34.0723 12.3879 34.044 12.0749C34.0589 12.0704 34.0736 12.0646 34.0879 12.0574C34.2216 11.9905 34.2758 11.828 34.2089 11.6942L33.9382 11.1529C33.8798 11.0361 33.7465 10.9779 33.6209 11.014C33.4955 11.0504 33.4138 11.171 33.4268 11.3011C33.4591 11.624 33.4926 11.9816 33.5257 12.3572C33.3545 12.1315 33.1961 11.925 33.0607 11.7501C33.087 11.7273 33.1097 11.6991 33.1263 11.6658C33.1932 11.5321 33.139 11.3695 33.0053 11.3026L32.464 11.0319C32.3505 10.9754 32.2126 11.005 32.1325 11.1038C32.0526 11.2026 32.0523 11.3438 32.1317 11.4432C32.1463 11.4613 32.8126 12.2967 33.6098 13.3749C33.7481 15.1632 33.8401 17.0232 33.7101 17.4133C33.6863 17.4846 33.6448 17.5686 33.6058 17.5716C33.4422 17.5943 33.0518 17.2285 32.8557 16.8365C32.7426 16.6107 32.5801 16.5873 32.4932 16.5913C32.2024 16.6093 32.0888 16.9294 31.8826 17.5102C31.7347 17.9266 31.551 18.444 31.3448 18.6557C31.233 18.5192 31.0885 18.061 31.0082 17.5901C31.0459 17.6942 31.1434 17.7695 31.2605 17.7695C31.4099 17.7695 31.5312 17.6485 31.5312 17.4988C31.5312 17.0953 31.2489 14.0214 31.0912 12.3368C31.2228 12.2839 31.2921 12.1367 31.2466 12.0004L30.9759 11.1885C30.9324 11.0579 30.7989 10.9811 30.6631 11.0093C30.5285 11.0378 30.4367 11.1628 30.4496 11.2998C30.6336 13.2305 30.9786 16.9598 30.9892 17.4746C30.9885 17.47 30.9875 17.4653 30.9869 17.4608C30.966 17.3128 30.8278 17.2114 30.6808 17.2312C30.5328 17.2527 30.4301 17.3895 30.4513 17.5376C30.5303 18.0908 30.7323 19.042 31.1974 19.1969C31.2341 19.2093 31.2836 19.2204 31.3415 19.2204C31.4482 19.2204 31.5838 19.1826 31.7224 19.0439C32.0172 18.7492 32.2166 18.1874 32.3926 17.6918C32.4324 17.5797 32.4794 17.4471 32.5239 17.3334C32.7721 17.696 33.2053 18.1474 33.6443 18.112C33.7986 18.1009 34.0793 18.018 34.2236 17.585C34.3675 17.1531 34.3107 15.6475 34.2136 14.206C34.4416 14.5256 34.6699 14.8527 34.8876 15.176C34.972 15.9864 35.0325 16.7985 35.0325 17.4654C35.0324 17.6145 35.1535 17.7355 35.3031 17.7355Z" fill="#F5F5F5"/>
<path d="M37.3569 16.3121C37.1652 14.8838 36.8981 13.2293 36.7289 12.2139C36.8052 12.2326 36.8884 12.2173 36.9556 12.1659C37.0746 12.0752 37.0973 11.9053 37.0066 11.7866L36.5161 11.1438C36.4403 11.045 36.3069 11.0101 36.1925 11.06C36.0782 11.11 36.0129 11.2316 36.0342 11.3544C36.0391 11.3823 36.5217 14.1606 36.8203 16.3841C36.9342 17.2339 36.7678 17.9932 36.3747 18.4151C36.1219 18.686 35.7872 18.8086 35.382 18.7851C35.2332 18.7771 35.1042 18.8892 35.0948 19.0383C35.0854 19.1874 35.1987 19.3157 35.3479 19.3254C35.3936 19.3283 35.4386 19.3296 35.4834 19.3296C35.9937 19.3296 36.4367 19.1424 36.7707 18.7841C37.2805 18.2366 37.4942 17.3358 37.3569 16.3121Z" fill="#F5F5F5"/>
<path d="M34.3793 18.0962C34.2799 18.2043 34.2875 18.3745 34.3927 18.4765C34.4073 18.4907 34.4249 18.5187 34.425 18.5325C34.4251 18.5401 34.4141 18.5629 34.3841 18.5931C34.2784 18.6987 34.2784 18.87 34.3841 18.9758C34.437 19.0287 34.5061 19.0551 34.5755 19.0551C34.6448 19.0551 34.7139 19.0287 34.7669 18.9758C34.9386 18.8042 34.97 18.6301 34.9661 18.5141C34.9578 18.2643 34.7877 18.103 34.7537 18.0732C34.6432 17.9769 34.4787 17.9885 34.3793 18.0962Z" fill="#F5F5F5"/>
</g>
<defs>
<clipPath id="clip0_108_47229">
<rect width="50" height="50" fill="white" transform="translate(0.359375 0.746582)"/>
</clipPath>
</defs>
</svg>
