<svg width="51" height="51" viewBox="0 0 51 51" fill="none" xmlns="http://www.w3.org/2000/svg">
<g clip-path="url(#clip0_108_47221)">
<path d="M0.78949 15.4019V36.0915L14.5826 25.7467L0.78949 15.4019Z" fill="#464655"/>
<path d="M7.68573 9.36739L23.203 21.4363H50.7891V10.2294C50.7891 9.75333 50.4031 9.36729 49.927 9.36729H7.68573V9.36739Z" fill="#FF4B55"/>
<path d="M7.68573 42.126L23.203 30.0571H50.7891V41.264C50.7891 41.7401 50.4031 42.1261 49.927 42.1261H7.68573V42.126Z" fill="#41479B"/>
<path d="M6.34506 9.36739H1.6516C1.17552 9.36739 0.78949 9.75332 0.78949 10.2294V13.7655L15.9237 25.7467L0.78949 37.7281V41.2639C0.78949 41.7399 1.17552 42.126 1.6516 42.126H6.34457L22.6788 29.1949H50.7895V22.2984H22.6789L6.34506 9.36739Z" fill="#73AF00"/>
<path d="M9.12246 9.36739H6.34473L22.6786 22.2984H50.7892V20.5742H23.2785L9.12246 9.36739Z" fill="#F5F5F5"/>
<path d="M0.78949 13.7655V15.9646L13.1459 25.7467L0.78949 35.5292V37.7281L15.9237 25.7467L0.78949 13.7655Z" fill="#FFE15A"/>
<path d="M22.679 29.1949L6.34473 42.126H9.12256L23.2788 30.9192H50.7896V29.1949H22.679Z" fill="#F5F5F5"/>
</g>
<defs>
<clipPath id="clip0_108_47221">
<rect width="50" height="50" fill="white" transform="translate(0.789062 0.746582)"/>
</clipPath>
</defs>
</svg>
