<svg width="51" height="51" viewBox="0 0 51 51" fill="none" xmlns="http://www.w3.org/2000/svg">
<g clip-path="url(#clip0_108_47188)">
<path d="M50.5123 20.287H0.51236V10.2295C0.51236 9.7534 0.898394 9.36737 1.37447 9.36737H49.6503C50.1263 9.36737 50.5124 9.7534 50.5124 10.2295L50.5123 20.287Z" fill="#464655"/>
<path d="M49.6502 42.1259H1.37447C0.898394 42.1259 0.51236 41.7399 0.51236 41.2638V31.2064H50.5123V41.2638C50.5123 41.74 50.1262 42.1259 49.6502 42.1259Z" fill="#73AF00"/>
<path d="M50.5123 20.2867H0.51236V31.2056H50.5123V20.2867Z" fill="#FF4B55"/>
<path d="M9.82891 23.5164L10.3413 24.6279L11.5297 24.3355C11.6039 24.3173 11.6653 24.3943 11.6311 24.4626L11.0816 25.5562L12.0512 26.3031C12.1117 26.3497 12.0897 26.4458 12.0149 26.4616L10.8174 26.7138L10.838 27.9375C10.8393 28.0139 10.7504 28.0567 10.6915 28.0081L9.74766 27.2291L8.80382 28.0081C8.74483 28.0568 8.65606 28.014 8.65733 27.9375L8.67794 26.7138L7.48038 26.4616C7.40558 26.4458 7.3837 26.3497 7.44415 26.3031L8.41368 25.5562L7.86427 24.4626C7.82999 24.3943 7.89142 24.3172 7.96563 24.3355L9.15401 24.6279L9.66641 23.5164C9.69835 23.4471 9.79708 23.4471 9.82891 23.5164Z" fill="#F5F5F5"/>
<path d="M50.5123 19.7124H0.51236V21.1783H50.5123V19.7124Z" fill="#F5F5F5"/>
<path d="M50.5129 30.3158H0.513V31.7817H50.5129V30.3158Z" fill="#F5F5F5"/>
<path d="M0.793316 41.8926L23.2858 26.0995C23.5303 25.9278 23.5303 25.5657 23.2858 25.394L0.793316 9.60077C0.622809 9.75839 0.51236 9.97899 0.51236 10.2295V41.2638C0.51236 41.5143 0.622809 41.7351 0.793316 41.8926Z" fill="#41479B"/>
<path d="M7.69614 21.7278L9.63276 23.7099L12.1351 22.5193C12.459 22.3651 12.7928 22.7121 12.6263 23.0299L11.3397 25.4842L13.2453 27.4961C13.492 27.7565 13.2652 28.1812 12.9115 28.121L10.1797 27.6556L8.85512 30.0897C8.68364 30.4048 8.20962 30.3203 8.15767 29.9654L7.75591 27.2235L5.03169 26.716C4.67896 26.6503 4.61295 26.1734 4.93453 26.0142L7.41812 24.7849L7.05894 22.0371C7.01236 21.6813 7.44536 21.4713 7.69614 21.7278Z" fill="#FFE15A"/>
</g>
<defs>
<clipPath id="clip0_108_47188">
<rect width="50" height="50" fill="white" transform="translate(0.511719 0.746582)"/>
</clipPath>
</defs>
</svg>
