<svg width="51" height="51" viewBox="0 0 51 51" fill="none" xmlns="http://www.w3.org/2000/svg">
<g clip-path="url(#clip0_108_47140)">
<path d="M1.66847 42.126H49.9443C50.4203 42.126 50.8064 41.74 50.8064 41.2639V10.2295C50.8064 9.7534 50.4203 9.36737 49.9443 9.36737H1.66847C1.1924 9.36747 0.806366 9.7534 0.806366 10.2295V41.2639C0.806366 41.7401 1.1924 42.126 1.66847 42.126Z" fill="#C8414B"/>
<path d="M50.8063 16.2643H0.806366V35.2301H50.8063V16.2643Z" fill="#FFD250"/>
<path d="M21.9268 25.7467L22.6578 22.4576C22.7251 22.1547 22.4946 21.8674 22.1842 21.8674H21.6694C21.3591 21.8674 21.1287 22.1547 21.1959 22.4576L21.9268 25.7467Z" fill="#C8414B"/>
<path d="M22.7891 24.0221H21.065V31.3493H22.7891V24.0221Z" fill="#F5F5F5"/>
<path d="M23.2194 23.1608H20.6332V24.0229H23.2194V23.1608Z" fill="#FAB446"/>
<path d="M23.2219 25.7467H18.9113V26.6088H23.2219V25.7467Z" fill="#C8414B"/>
<path d="M23.2217 29.1949L20.6354 28.3329V27.4708L23.2217 28.3329V29.1949Z" fill="#C8414B"/>
<path d="M8.99755 25.7467L9.7285 22.4575C9.79588 22.1546 9.56532 21.8673 9.25497 21.8673H8.74013C8.42987 21.8673 8.1994 22.1546 8.26659 22.4575L8.99755 25.7467Z" fill="#C8414B"/>
<path d="M12.0135 23.1605C11.5374 23.1605 11.1514 23.5466 11.1514 24.0226V29.626C11.1514 30.6734 12.1289 32.6433 15.4617 32.6433C18.7945 32.6433 19.7721 30.6735 19.7721 29.626V24.0226C19.7721 23.5466 19.3861 23.1605 18.91 23.1605H12.0135Z" fill="#F5F5F5"/>
<path d="M15.463 27.4708H11.1526V24.0226C11.1526 23.5465 11.5387 23.1604 12.0148 23.1604H15.463V27.4708Z" fill="#C8414B"/>
<path d="M15.4631 27.4708H19.7734V29.626C19.7734 30.8163 18.8086 31.7811 17.6182 31.7811C16.4279 31.7811 15.4631 30.8163 15.4631 29.626V27.4708Z" fill="#C8414B"/>
<path d="M11.1514 27.4709H15.4617V29.626C15.4617 30.8164 14.4969 31.7812 13.3066 31.7812C12.1162 31.7812 11.1514 30.8164 11.1514 29.626V27.4709Z" fill="#FAB446"/>
<path d="M14.5979 31.3405V27.4709H13.7358V31.7378C14.0565 31.6727 14.3462 31.5307 14.5979 31.3405Z" fill="#C8414B"/>
<path d="M12.8737 31.7378V27.4709H12.0116V31.3405C12.2634 31.5307 12.5531 31.6727 12.8737 31.7378Z" fill="#C8414B"/>
<path d="M14.5996 25.7467H12.0134V26.6089H14.5996V25.7467Z" fill="#FFB441"/>
<path d="M14.5996 24.0221H12.0134V24.8842H14.5996V24.0221Z" fill="#FAB446"/>
<path d="M14.1675 24.5349H12.4434V26.0966H14.1675V24.5349Z" fill="#FAB446"/>
<path d="M9.85745 24.0221H8.13333V31.3493H9.85745V24.0221Z" fill="#F5F5F5"/>
<path d="M10.2872 30.9195H7.70099V31.7816H10.2872V30.9195Z" fill="#FAB446"/>
<path d="M10.2872 23.1608H7.70099V24.0229H10.2872V23.1608Z" fill="#FAB446"/>
<path d="M10.7205 31.7809H7.27222V32.643H10.7205V31.7809Z" fill="#5064AA"/>
<path d="M23.6512 30.9196H21.065V31.7817H23.6512V30.9196Z" fill="#FAB446"/>
<path d="M23.6507 31.7809H20.2025V32.643H23.6507V31.7809Z" fill="#5064AA"/>
<path d="M18.048 22.2985H12.8755V23.1606H18.048V22.2985Z" fill="#FAB446"/>
<path d="M15.8931 19.7126H15.0309V22.2988H15.8931V19.7126Z" fill="#FFB441"/>
<path d="M14.5993 21.0054C13.8863 21.0054 13.3063 20.4253 13.3063 19.7123C13.3063 18.9992 13.8864 18.4193 14.5993 18.4193C15.3124 18.4193 15.8924 18.9993 15.8924 19.7123C15.8925 20.4253 15.3124 21.0054 14.5993 21.0054ZM14.5993 19.2813C14.3615 19.2813 14.1683 19.4744 14.1683 19.7123C14.1683 19.9501 14.3614 20.1434 14.5993 20.1434C14.8372 20.1434 15.0304 19.9502 15.0304 19.7123C15.0304 19.4745 14.8372 19.2813 14.5993 19.2813Z" fill="#F5F5F5"/>
<path d="M16.3235 21.0054C15.6104 21.0054 15.0304 20.4253 15.0304 19.7123C15.0304 18.9992 15.6105 18.4193 16.3235 18.4193C17.0366 18.4193 17.6166 18.9993 17.6166 19.7123C17.6166 20.4253 17.0365 21.0054 16.3235 21.0054ZM16.3235 19.2813C16.0857 19.2813 15.8924 19.4744 15.8924 19.7123C15.8924 19.9501 16.0856 20.1434 16.3235 20.1434C16.5613 20.1434 16.7545 19.9502 16.7545 19.7123C16.7544 19.4745 16.5613 19.2813 16.3235 19.2813Z" fill="#F5F5F5"/>
<path d="M18.0478 21.8675C17.3347 21.8675 16.7547 21.2874 16.7547 20.5744C16.7547 19.8613 17.3348 19.2814 18.0478 19.2814C18.7609 19.2814 19.3409 19.8614 19.3409 20.5744C19.3409 21.2874 18.7608 21.8675 18.0478 21.8675ZM18.0478 20.1434C17.81 20.1434 17.6167 20.3365 17.6167 20.5744C17.6167 20.8122 17.8099 21.0055 18.0478 21.0055C18.2856 21.0055 18.4788 20.8123 18.4788 20.5744C18.4788 20.3365 18.2856 20.1434 18.0478 20.1434Z" fill="#F5F5F5"/>
<path d="M12.8752 21.8675C12.1621 21.8675 11.5821 21.2874 11.5821 20.5744C11.5821 19.8613 12.1622 19.2814 12.8752 19.2814C13.5883 19.2814 14.1683 19.8614 14.1683 20.5744C14.1683 21.2874 13.5883 21.8675 12.8752 21.8675ZM12.8752 20.1434C12.6374 20.1434 12.4441 20.3365 12.4441 20.5744C12.4441 20.8122 12.6373 21.0055 12.8752 21.0055C13.1131 21.0055 13.3062 20.8122 13.3062 20.5743C13.3062 20.3365 13.1131 20.1434 12.8752 20.1434Z" fill="#F5F5F5"/>
<path d="M18.0475 29.195V29.626C18.0475 29.8637 17.8542 30.0571 17.6165 30.0571C17.3788 30.0571 17.1854 29.8637 17.1854 29.626V29.195H18.0475ZM18.9095 28.333H16.3233V29.626C16.3233 30.3391 16.9034 30.9191 17.6164 30.9191C18.3295 30.9191 18.9094 30.339 18.9094 29.626V28.333H18.9095Z" fill="#FAB446"/>
<path d="M17.6168 26.6088C17.1408 26.6088 16.7547 26.2228 16.7547 25.7467V24.8846C16.7547 24.4085 17.1408 24.0225 17.6168 24.0225C18.0929 24.0225 18.4789 24.4085 18.4789 24.8846V25.7467C18.4789 26.2228 18.0929 26.6088 17.6168 26.6088Z" fill="#FFA0D2"/>
<path d="M15.4615 28.7634C16.1756 28.7634 16.7546 28.1845 16.7546 27.4704C16.7546 26.7562 16.1756 26.1773 15.4615 26.1773C14.7474 26.1773 14.1684 26.7562 14.1684 27.4704C14.1684 28.1845 14.7474 28.7634 15.4615 28.7634Z" fill="#5064AA"/>
<path d="M15.8931 17.988H15.0309V20.5742H15.8931V17.988Z" fill="#FAB446"/>
<path d="M12.875 22.2985L12.0128 21.4364L12.5178 20.9314C13.2984 20.1508 14.3572 19.7123 15.4612 19.7123C16.5652 19.7123 17.6239 20.1508 18.4045 20.9314L18.9095 21.4364L18.0474 22.2985H12.875Z" fill="#C8414B"/>
<path d="M15.4604 21.8672C15.6985 21.8672 15.8915 21.6742 15.8915 21.4361C15.8915 21.198 15.6985 21.0051 15.4604 21.0051C15.2224 21.0051 15.0294 21.198 15.0294 21.4361C15.0294 21.6742 15.2224 21.8672 15.4604 21.8672Z" fill="#FFD250"/>
<path d="M13.7358 21.8672C13.9738 21.8672 14.1668 21.6742 14.1668 21.4361C14.1668 21.198 13.9738 21.0051 13.7358 21.0051C13.4977 21.0051 13.3047 21.198 13.3047 21.4361C13.3047 21.6742 13.4977 21.8672 13.7358 21.8672Z" fill="#FFD250"/>
<path d="M17.184 21.8672C17.4221 21.8672 17.6151 21.6742 17.6151 21.4361C17.6151 21.198 17.4221 21.0051 17.184 21.0051C16.946 21.0051 16.753 21.198 16.753 21.4361C16.753 21.6742 16.946 21.8672 17.184 21.8672Z" fill="#FFD250"/>
<path d="M12.0115 25.7468H7.70099V26.6089H12.0115V25.7468Z" fill="#C8414B"/>
<path d="M7.70099 29.195L10.2871 28.333V27.4709L7.70099 28.333V29.195Z" fill="#C8414B"/>
</g>
<defs>
<clipPath id="clip0_108_47140">
<rect width="50" height="50" fill="white" transform="translate(0.804688 0.746582)"/>
</clipPath>
</defs>
</svg>
