<svg width="51" height="51" viewBox="0 0 51 51" fill="none" xmlns="http://www.w3.org/2000/svg">
<g clip-path="url(#clip0_108_47115)">
<path d="M49.7588 8.79518H1.48308C1.00701 8.79518 0.620972 9.18112 0.620972 9.65719V40.6916C0.620972 41.1677 1.00701 41.5537 1.48308 41.5537H49.7589C50.2349 41.5537 50.621 41.1677 50.621 40.6916V9.65719C50.6209 9.18112 50.2348 8.79518 49.7588 8.79518Z" fill="#FFD250"/>
<path d="M18.7241 12.2434V38.1055C18.7241 38.5816 19.1102 38.9676 19.5862 38.9676H47.1724C47.6485 38.9676 48.0345 38.5816 48.0345 38.1055V12.2434C48.0345 11.7674 47.6485 11.3813 47.1724 11.3813H19.5862C19.1102 11.3814 18.7241 11.7674 18.7241 12.2434Z" fill="#963C3C"/>
<path d="M9.67301 11.3814H4.06951C3.59343 11.3814 3.2074 11.7675 3.2074 12.2435V38.1056C3.2074 38.5817 3.59343 38.9677 4.06951 38.9677H9.67301V11.3814Z" fill="#5AA587"/>
<path d="M15.2761 11.3814H9.67273V38.9676H15.2761C15.7522 38.9676 16.1382 38.5816 16.1382 38.1055V12.2434C16.1382 11.7674 15.7522 11.3814 15.2761 11.3814Z" fill="#FF7350"/>
<path d="M39.0523 32.0821C39.0234 31.8895 39.193 31.6406 39.4551 31.2831C39.5499 31.1539 39.687 30.9667 39.7239 30.8771C39.6995 30.8753 39.6659 30.8773 39.6409 30.8785C39.4958 30.8856 39.2764 30.8955 39.0847 30.6827C39.0097 30.5993 38.9736 30.495 38.9806 30.3811C38.995 30.1495 39.184 29.9219 39.3013 29.8015C38.9989 29.5891 38.7099 29.3685 38.4434 29.1021C37.9342 28.5928 37.3535 28.3476 36.7123 28.361C36.6529 28.9988 36.9816 29.4183 37.3324 29.8598C37.4358 29.9898 37.5388 30.1195 37.6325 30.2552C38.0939 30.9232 37.9974 32.2131 37.9389 32.3497C37.8726 32.5046 37.5078 32.848 37.0073 32.7811C36.7771 32.7508 36.5122 32.8282 36.3452 32.9741C36.2734 33.0369 36.1877 33.1414 36.1877 33.2814C36.1877 33.2885 36.1883 33.3239 36.1993 33.3305C36.2666 33.3711 36.5178 33.2918 36.6975 33.1946C36.7471 33.1676 36.8088 33.1756 36.8506 33.2145C37.2044 33.5457 37.5596 33.2595 37.5988 33.2258C37.6473 33.1843 37.7189 33.1829 37.7683 33.2227C38.1304 33.5145 38.5079 33.1955 38.5238 33.1817C38.5682 33.1434 38.6333 33.1388 38.6828 33.1711C38.8399 33.2741 38.9835 33.3035 39.1118 33.2596C39.2237 33.2207 39.283 33.1365 39.29 33.1162C39.2932 33.0627 39.2213 32.7866 39.1737 32.6038C39.1237 32.4119 39.0721 32.2137 39.0523 32.0821Z" fill="#FFD250"/>
<path d="M42.9733 19.8683C42.8642 19.86 42.7852 19.8836 42.7312 19.9372C42.6321 20.0351 42.6402 20.2116 42.6404 20.2133C42.6424 20.2526 42.6269 20.2909 42.5983 20.3176C42.5694 20.3443 42.5306 20.358 42.4914 20.3522C42.2953 20.3265 42.0052 20.1196 41.4672 19.7251C40.6122 19.0985 39.32 18.1514 38.0872 17.9957C36.6542 17.8136 35.3789 18.2707 35.055 19.0809C34.6942 19.9829 35.4609 20.8046 35.4686 20.8129C35.5076 20.8542 35.5162 20.9159 35.4894 20.966C35.2873 21.3468 35.4404 21.6279 35.5784 21.7819C35.6217 21.6547 35.6863 21.5679 35.7754 21.5145C35.9904 21.386 36.2713 21.4923 36.6596 21.6394C36.8891 21.7261 37.1492 21.8246 37.4525 21.8989C38.2302 22.0895 39.1788 21.9196 40.0158 21.7697C40.3116 21.7166 40.5968 21.6658 40.8621 21.6319C41.5296 21.5468 42.1987 21.8426 42.3826 22.3063C42.4717 22.5309 42.5193 22.9816 41.8376 23.4775C40.6114 24.3694 35.0197 23.9577 34.6903 23.9327C34.683 23.9333 34.6758 23.9339 34.6603 23.935C34.7826 24.0723 34.9261 24.2062 34.9886 24.2229C35.0522 24.2399 35.0937 24.3012 35.0856 24.3667C35.0775 24.4322 35.0224 24.4817 34.9565 24.4827L34.3837 24.4913L34.4364 25.0426C34.4402 25.0832 34.4251 25.1235 34.3952 25.1513C34.3654 25.1793 34.3242 25.191 34.2842 25.1857C34.2617 25.182 33.7673 25.103 33.4255 24.9129L32.7785 25.321C32.7572 25.3345 32.7326 25.3412 32.7079 25.3412C32.6935 25.3412 32.6791 25.339 32.6654 25.3342C32.6276 25.3213 32.5976 25.2922 32.5839 25.2547L32.337 24.5835L32.0443 25.1691C32.0229 25.2119 31.9801 25.2398 31.9325 25.242C31.8849 25.247 31.8396 25.2209 31.8141 25.1803L31.5632 24.7804C31.4484 24.9238 31.2644 25.1325 31.0763 25.2627C31.0419 25.2868 30.9983 25.2927 30.9584 25.2792C30.9186 25.2657 30.8877 25.234 30.8751 25.1941L30.7436 24.7791C30.6273 24.9262 30.4591 25.1211 30.2809 25.2673C30.2429 25.299 30.1901 25.3063 30.1445 25.2864C30.099 25.2665 30.0684 25.223 30.0654 25.1737L30.023 24.5066C29.8725 24.5833 29.6675 24.6833 29.5539 24.7188C29.5022 24.735 29.4453 24.7177 29.4114 24.6752C29.3773 24.6327 29.3728 24.574 29.4001 24.5267C29.6039 24.1728 29.7909 23.7309 29.8052 23.5112C29.67 23.673 29.4809 23.8279 29.2694 23.9998C28.8196 24.3661 28.26 24.8214 27.8479 25.6186C27.5603 26.1757 27.3536 27.1476 27.718 28.0536C28.029 28.8266 28.6983 29.4033 29.7012 29.7739C29.6677 29.6276 29.6419 29.4838 29.6393 29.3488C29.6262 28.6624 29.7686 28.036 29.7748 28.0096C29.7912 27.9384 29.8619 27.8934 29.9331 27.9107C30.0043 27.9271 30.0485 27.998 30.0322 28.069C30.0309 28.0751 29.8912 28.6911 29.9035 29.3437C29.9097 29.6631 30.0471 30.0573 30.1798 30.4383C30.3561 30.9449 30.5388 31.4688 30.4594 31.9096C30.3513 32.5088 29.6053 32.6608 28.9127 32.5451C28.7158 32.512 28.5367 32.5607 28.4081 32.6807C28.2775 32.8025 28.2105 32.9892 28.229 33.1802C28.2377 33.2701 28.2714 33.2883 28.2823 33.2944C28.3656 33.3394 28.5616 33.2781 28.6676 33.2228C28.7209 33.1947 28.7868 33.2063 28.8276 33.2519C29.1054 33.563 29.4794 33.2526 29.4951 33.239C29.5487 33.1938 29.6288 33.1979 29.677 33.2493C29.7816 33.3609 29.8925 33.4163 30.0158 33.4192C30.2413 33.4329 30.4555 33.232 30.4576 33.2304C30.4966 33.1924 30.5552 33.1825 30.6046 33.205C31.0404 33.4045 31.2691 33.2886 31.2785 33.2831C31.6567 32.9607 31.4382 32.1955 31.4359 32.1877C31.4256 32.1528 31.4302 32.1151 31.4486 32.0838C31.4671 32.0524 31.4976 32.0299 31.5331 32.0217C32.0629 31.9002 32.359 31.5603 32.5021 31.3349C32.2404 31.3323 32.0324 31.2406 31.9099 31.0491C31.7126 30.7401 31.8073 30.2747 32.1515 29.8635C32.7402 29.16 33.1002 27.7362 33.0462 27.1563C33.0395 27.0836 33.093 27.0194 33.1656 27.0124C33.2363 27.0052 33.3025 27.0592 33.3095 27.1319C33.3566 27.6398 33.1276 28.6932 32.7097 29.4875C33.2391 29.341 33.7224 29.1267 34.2266 28.8966C34.7278 28.6679 35.2463 28.4316 35.8692 28.2364C36.922 27.9068 37.8507 28.1352 38.6303 28.9152C39.0081 29.2929 39.4204 29.5695 39.8979 29.8901C40.1076 30.0308 40.3259 30.1773 40.5522 30.3404C41.166 30.7821 41.1551 31.1511 41.1436 31.5416C41.1402 31.6607 41.1364 31.7837 41.1498 31.917C41.2132 32.5513 40.7089 32.6516 40.4664 32.6997C40.4332 32.7063 40.402 32.7124 40.3749 32.7192C40.3406 32.7278 40.2997 32.7362 40.2544 32.7453C40.0082 32.7952 39.6362 32.8707 39.5448 33.1859C39.5283 33.2423 39.5346 33.262 39.5346 33.262C39.5735 33.2797 39.7751 33.234 39.9355 33.1611C39.9696 33.1454 40.0083 33.1452 40.0426 33.1599C40.0768 33.1745 40.1033 33.2031 40.1155 33.2383C40.1623 33.3755 40.2352 33.3988 40.2592 33.4067C40.4256 33.4586 40.6977 33.3055 40.7799 33.2472C40.8309 33.2112 40.8998 33.215 40.9459 33.2572C41.0823 33.3819 41.2085 33.4366 41.3218 33.4214C41.4736 33.4003 41.5657 33.2574 41.5667 33.2559C41.5885 33.2206 41.6257 33.1976 41.6671 33.1938C41.709 33.1915 41.7493 33.2064 41.7772 33.2369C41.7775 33.2375 41.8931 33.3595 42.1298 33.4342C42.2849 33.4827 42.3241 33.4268 42.3369 33.4082C42.4024 33.3125 42.3789 33.0684 42.251 32.9087C42.0835 32.6991 42.0056 32.3805 42.0529 32.097C42.0963 31.836 42.2371 31.6232 42.4596 31.4814C42.8676 31.2217 42.9608 30.9419 42.9347 30.8886C42.9272 30.8849 42.8829 30.8791 42.8474 30.8744C42.6654 30.8503 42.3607 30.8101 42.0473 30.2315C41.7706 29.7208 42.0383 28.9123 42.3483 27.9759C42.5055 27.5016 42.668 27.0109 42.7681 26.5296C43.0455 25.1984 42.1738 24.1413 42.165 24.1309C42.12 24.0772 42.1246 23.9976 42.1758 23.9495C42.7877 23.3755 43.0507 22.8434 42.9573 22.368C42.8601 21.8723 42.38 21.5257 41.9986 21.3796C41.5232 21.1974 40.6558 21.3009 39.8167 21.4007C39.1155 21.484 38.4528 21.563 38.025 21.4737C37.8046 21.4274 37.6431 21.3229 37.5452 21.1632C37.4645 21.0316 37.4448 20.8873 37.4455 20.7748C37.233 20.8547 37.0894 21.0516 37.0878 21.0539C37.0636 21.0879 37.0244 21.1084 36.9828 21.1092C36.9306 21.1072 36.9012 21.0911 36.8758 21.0581C36.7677 20.9184 36.7241 20.7643 36.7469 20.5997C36.776 20.3871 36.9133 20.2041 37.0258 20.0862C36.5339 19.9134 36.1568 20.3257 36.1394 20.3454C36.0965 20.393 36.0258 20.4031 35.9714 20.3704C35.7341 20.2245 35.587 19.9381 35.5963 19.641C35.6053 19.3604 35.75 19.1251 35.9932 18.9959C36.1599 18.9075 36.3199 18.8912 36.4681 18.9471C36.6092 19.0002 36.7081 19.11 36.7704 19.2032C36.9504 18.9979 36.9655 18.6436 36.9655 18.6395C36.9666 18.604 36.9814 18.5706 37.0075 18.5464C37.0334 18.5223 37.0692 18.5072 37.1032 18.511C37.4161 18.5239 37.6592 18.637 37.8252 18.8468C38.0521 19.134 38.0734 19.5329 38.0601 19.7798C38.56 19.5247 38.4967 18.9357 38.4934 18.9081C38.4882 18.8626 38.5065 18.8178 38.5422 18.7893C38.5778 18.761 38.6253 18.7521 38.6688 18.768C39.1993 18.9552 39.3924 19.4283 39.4378 19.7803C39.588 19.637 39.5902 19.4531 39.5902 19.4507C39.5902 19.3904 39.6311 19.3376 39.6896 19.3227C39.7487 19.308 39.8093 19.3344 39.8384 19.3873C40.0429 19.7614 40.355 19.9943 40.5834 20.1245L40.4261 19.7433C40.4049 19.6916 40.4182 19.6322 40.4596 19.5948C40.5012 19.5573 40.562 19.55 40.6109 19.5766C40.8726 19.7175 41.08 19.877 41.2994 20.046C41.564 20.2498 41.8378 20.4604 42.2233 20.6415C42.5998 20.8186 42.8537 20.7849 42.9998 20.7257C43.1511 20.6646 43.2377 20.5568 43.2658 20.483C43.3189 20.3434 43.3344 20.143 43.2491 20.0101C43.1942 19.9243 43.1014 19.8768 42.9733 19.8683Z" fill="#FFD250"/>
<path d="M27.3722 21.7684C27.3724 21.7685 27.3725 21.7687 27.3725 21.7687C27.3732 21.7689 27.3736 21.7688 27.3739 21.7689C27.3837 21.7721 28.3718 22.0839 29.2688 22.1373C29.318 22.1403 29.3617 22.1705 29.3816 22.2156C29.4015 22.2609 29.3949 22.3136 29.3639 22.3521L29.3326 22.391C29.5105 22.3644 29.7344 22.3397 29.9539 22.3388C29.8639 22.2318 29.752 22.0956 29.6372 21.953C29.3972 21.9486 28.5194 21.9104 27.805 21.5661C27.6314 21.482 27.3314 21.3366 27.1888 21.4102C27.1641 21.4229 27.1235 21.4824 27.1303 21.5556C27.1391 21.6484 27.2248 21.724 27.3722 21.7684Z" fill="#FFD250"/>
<path d="M30.3496 19.8584C30.3358 19.8584 30.3233 19.8599 30.3123 19.8633C30.2547 19.8806 30.2255 19.9457 30.2177 19.9965C30.2081 20.0616 30.2246 20.149 30.3001 20.1994C30.3987 20.265 30.5042 20.2201 30.5643 20.1609C30.5832 20.1424 30.6738 20.0454 30.6069 19.9394L30.6067 19.9391C30.5035 19.8915 30.413 19.8584 30.3496 19.8584Z" fill="#FFD250"/>
<path d="M29.0525 23.0442C29.1164 23.1967 29.2157 23.315 29.2979 23.3943C29.329 23.3268 29.3766 23.2568 29.4487 23.2042C29.5192 23.1529 29.6414 23.1028 29.8205 23.1401C29.8234 23.1403 29.8258 23.1409 29.8286 23.1411C29.8338 23.1423 29.8378 23.1418 29.8431 23.1431C29.8477 23.1442 29.8506 23.1479 29.8552 23.1492C29.8615 23.1514 29.8683 23.1516 29.8743 23.155C29.8789 23.1575 29.8818 23.1617 29.8859 23.1646C29.9532 23.1933 30.0095 23.2394 30.0393 23.3091C30.1394 23.5427 29.9632 23.9962 29.8077 24.3189C29.9176 24.2645 30.0228 24.2094 30.0796 24.179C30.1192 24.1577 30.167 24.158 30.2063 24.1801C30.2457 24.202 30.2711 24.2424 30.2739 24.2871L30.3112 24.8766C30.5179 24.6588 30.6807 24.4222 30.6827 24.4191C30.7113 24.3773 30.7607 24.3563 30.8111 24.3629C30.8612 24.3703 30.9025 24.4056 30.9177 24.4537L31.0685 24.9298C31.2795 24.7358 31.4634 24.4759 31.4655 24.4726C31.4912 24.4365 31.533 24.4172 31.5771 24.4164C31.6212 24.4176 31.6621 24.4409 31.6857 24.4784L31.9129 24.8408L32.2372 24.1922C32.2609 24.145 32.3053 24.1152 32.3629 24.1193C32.4156 24.1222 32.4612 24.1561 32.4796 24.2057L32.7755 25.0105L33.353 24.646C33.3968 24.6181 33.4523 24.6189 33.496 24.6474C33.6844 24.7707 33.9738 24.8503 34.1563 24.8912L34.1069 24.374C34.1035 24.3371 34.1155 24.3007 34.1402 24.2733C34.1648 24.2458 34.1996 24.2297 34.2365 24.2292L34.567 24.2243C34.4875 24.1438 34.4218 24.0659 34.3897 24.0265C34.3681 24.0003 34.3596 23.9682 34.361 23.9368C34.1175 23.9264 33.7782 23.8829 33.439 23.7366L33.2371 24.0479C33.2178 24.0777 33.1875 24.0983 33.1528 24.1053C33.1442 24.1073 33.1352 24.1081 33.1264 24.1081C33.1004 24.1081 33.0747 24.1004 33.0528 24.0857L32.2895 23.5736L32.1492 23.9554C32.1331 23.9993 32.095 24.0313 32.0491 24.0397C32.0032 24.0487 31.9564 24.0318 31.9256 23.9967C31.7945 23.8463 31.5885 23.6158 31.466 23.4893C31.3557 23.5956 31.1621 23.7672 30.9552 23.8821C30.9215 23.9008 30.8812 23.9037 30.8452 23.8905C30.8091 23.8772 30.7806 23.8489 30.7671 23.8126L30.5578 23.251C30.5324 23.1827 30.5671 23.1065 30.6357 23.081C30.7037 23.0556 30.7802 23.0906 30.8057 23.1588L30.9582 23.5685C31.1797 23.4147 31.3645 23.2166 31.3667 23.2142C31.4139 23.1634 31.4924 23.1574 31.5461 23.2007C31.6231 23.2623 31.8319 23.4923 31.9777 23.6558L32.0993 23.3244C32.1132 23.2864 32.1441 23.2568 32.1826 23.2445C32.2208 23.2312 32.2633 23.2374 32.2971 23.2603L33.0886 23.7913L33.28 23.4964C33.3168 23.4396 33.3904 23.4198 33.4498 23.4501C33.8012 23.6258 34.1805 23.6683 34.4227 23.6747C34.2749 23.3987 34.2619 23.0487 34.2611 22.9664C34.0632 22.8791 33.8201 22.7473 33.5755 22.5462L33.4804 22.7813C33.4651 22.8188 33.4334 22.8473 33.3942 22.8585C33.3552 22.8694 33.3129 22.8623 33.2803 22.8386L32.8985 22.5616L32.8612 22.8477C32.8554 22.8921 32.8278 22.9304 32.7872 22.9497C32.7472 22.9691 32.6998 22.9671 32.6614 22.9436C32.6482 22.9357 32.334 22.7437 32.1468 22.533C32.0983 22.4785 32.1032 22.395 32.1578 22.3465C32.2117 22.298 32.2954 22.3027 32.3444 22.3576C32.4235 22.4465 32.5343 22.5349 32.6267 22.6019L32.6651 22.3072C32.6711 22.2609 32.7011 22.2213 32.7439 22.2029C32.7868 22.1843 32.8362 22.19 32.8738 22.2172L33.2988 22.5255L33.4006 22.2744C33.417 22.2341 33.4523 22.2044 33.4949 22.1952C33.5373 22.186 33.582 22.1981 33.6137 22.2281C33.9432 22.5381 34.2997 22.7055 34.5214 22.7876C34.4456 22.4349 34.4168 21.9925 34.4153 21.9693C34.4152 21.966 34.4166 21.9631 34.4166 21.9599C34.2107 21.8463 33.9195 21.6506 33.6679 21.3431C33.6667 21.506 33.6534 21.6718 33.6135 21.7765C33.5997 21.8126 33.571 21.8409 33.5347 21.8539C33.4982 21.8665 33.4579 21.8632 33.4248 21.8445C33.4089 21.8353 33.1213 21.6703 32.9072 21.429C32.8703 21.562 32.8259 21.7019 32.7885 21.7644C32.7528 21.8236 32.678 21.8454 32.616 21.8146C32.6034 21.8084 32.4009 21.7059 32.2204 21.5491C32.2028 21.725 32.1757 21.9239 32.137 22.0207C32.1232 22.0559 32.0946 22.0832 32.0591 22.096C32.0235 22.1082 31.9842 22.1055 31.951 22.0876C31.9389 22.0811 31.7096 21.9553 31.4954 21.7958L31.4374 22.0162C31.4274 22.0539 31.4014 22.0854 31.3662 22.1021C31.3308 22.1185 31.2904 22.1189 31.2549 22.103C31.239 22.0957 30.8611 21.9219 30.6458 21.6589C30.5995 21.6025 30.6077 21.5192 30.6644 21.4732C30.7206 21.4269 30.8041 21.4351 30.8501 21.4917C30.953 21.6174 31.1105 21.7225 31.224 21.7884L31.2918 21.5309C31.3036 21.4862 31.3377 21.4509 31.382 21.4378C31.4261 21.4241 31.474 21.4356 31.5083 21.4666C31.6346 21.5809 31.8055 21.6933 31.927 21.7677C31.9529 21.6045 31.9729 21.3687 31.9815 21.2158C31.9849 21.1567 32.027 21.1071 32.0845 21.0943C32.1427 21.0812 32.2015 21.1084 32.2295 21.1602C32.3022 21.294 32.4768 21.4244 32.6084 21.5068C32.6445 21.3937 32.6891 21.227 32.7226 21.0831C32.7355 21.0279 32.7819 20.9871 32.8384 20.9817C32.8948 20.9746 32.9486 21.007 32.9717 21.0587C33.0542 21.2416 33.2542 21.4088 33.397 21.5112C33.4125 21.3185 33.3982 21.0447 33.3805 20.8734C33.3739 20.8097 33.4139 20.7505 33.4753 20.7328C33.5381 20.7158 33.6023 20.7441 33.6305 20.8013C33.8963 21.3405 34.3663 21.6391 34.6109 21.7647C34.7442 20.3063 34.3167 19.7483 34.3121 19.7426C34.2882 19.7125 34.2781 19.6731 34.2853 19.6353C34.2925 19.5976 34.3153 19.5644 34.3486 19.5451C34.5861 19.4077 34.7301 19.1567 34.8185 18.9131C34.2812 19.434 33.4299 19.6341 33.0152 19.7034L33.2177 19.9501C33.2485 19.9878 33.2563 20.0395 33.2376 20.0845C33.2189 20.1295 33.1771 20.1606 33.1285 20.1654C32.6204 20.2162 32.2496 20.1489 32 20.0647L32.0864 20.2242C32.1092 20.266 32.1075 20.3169 32.0823 20.3572C32.0572 20.3976 32.0111 20.4248 31.9647 20.4191C31.5507 20.4014 31.1885 20.2308 30.8908 20.0801C30.8767 20.1773 30.8287 20.2719 30.7489 20.3499C30.6512 20.4454 30.5269 20.4947 30.4035 20.4947C30.3162 20.4947 30.2296 20.4699 30.1535 20.4191C30.0042 20.3194 29.9286 20.1423 29.9564 19.9572C29.9821 19.7871 30.0894 19.654 30.2366 19.61C30.4336 19.5515 30.6585 19.6654 30.943 19.8103C31.1688 19.9253 31.438 20.0623 31.7316 20.1238L31.568 19.8216C31.5375 19.7654 31.5516 19.6955 31.6015 19.6554C31.6516 19.616 31.7226 19.617 31.771 19.6591C31.7739 19.6617 32.1028 19.9319 32.8493 19.9179L32.6611 19.6884C32.6301 19.6507 32.6225 19.5988 32.6412 19.5538C32.6602 19.5087 32.7024 19.4777 32.751 19.4731C32.7653 19.4718 33.8497 19.3618 34.5169 18.8242C34.2996 18.8877 34.1315 18.8777 34.1186 18.8775C34.0819 18.8746 34.0482 18.8567 34.0254 18.8279C33.7197 18.4438 33.4069 18.325 33.2492 18.2883C33.1607 18.5674 32.9462 18.7933 32.9358 18.8041C32.9074 18.8335 32.8669 18.848 32.8267 18.844C32.7861 18.8397 32.7497 18.8169 32.728 18.7823C32.4923 18.4023 32.1525 18.3024 31.955 18.2777C31.9792 18.5585 31.7829 18.7892 31.6523 18.8852C31.6015 18.922 31.5321 18.9187 31.4859 18.8773C30.9188 18.3704 30.4808 18.5204 30.3036 18.6216C30.3596 18.7606 30.3332 18.8742 30.2953 18.9509C30.0245 19.4996 28.3493 19.61 28.0162 19.6265C27.9749 19.6294 27.9335 19.6106 27.907 19.5777C27.8803 19.5448 27.8712 19.5013 27.882 19.4606C27.9064 19.3692 27.8901 19.2706 27.8362 19.1826C27.7811 19.0926 27.6928 19.0271 27.6003 19.0073C27.5132 18.9888 27.3471 19.0007 27.2478 19.1096C27.1342 19.2345 27.1265 19.4655 27.2253 19.7777C27.4027 20.3381 27.949 20.8903 28.2892 21.1929C28.2861 21.1232 28.2881 21.0719 28.2889 21.0591C28.2918 21.0027 28.3302 20.9543 28.3846 20.9389C28.4391 20.923 28.497 20.9439 28.5293 20.9903C28.642 21.1522 28.7764 21.2616 28.8774 21.3286L28.9437 20.9058C28.953 20.8473 28.9999 20.802 29.0587 20.7951C29.1172 20.7901 29.1738 20.8212 29.1963 20.8761C29.316 21.1669 30.074 22.0774 30.356 22.4036C30.3921 22.4452 30.3985 22.5049 30.3719 22.5534C30.3454 22.6015 30.2919 22.6275 30.2372 22.6208C29.7542 22.552 29.0447 22.7127 29.0376 22.7143C28.9828 22.727 28.926 22.7035 28.896 22.6558C28.8662 22.6081 28.8697 22.5468 28.905 22.5028L29.0028 22.3811C28.3322 22.3114 27.6792 22.1351 27.4153 22.0579L27.1935 22.6605L27.7911 22.6008C27.8362 22.5952 27.8825 22.6161 27.91 22.6533C27.9379 22.6905 27.9441 22.7393 27.9265 22.7824L27.8138 23.0577L28.3061 22.9275C28.3713 22.9094 28.4382 22.9443 28.4629 23.0066C28.5281 23.1718 28.6081 23.2803 28.672 23.3476L28.8107 23.041C28.8325 22.9932 28.8802 22.9598 28.9329 22.9635C28.985 22.9638 29.0321 22.9955 29.0525 23.0442Z" fill="#FFD250"/>
<path d="M27.3412 29.8017C27.8624 30.1497 28.2837 29.7526 28.5088 29.4469C28.0286 29.0966 27.679 28.6656 27.4727 28.1525C27.4052 27.9848 27.3613 27.8152 27.3271 27.646C27.278 27.6075 26.553 27.0332 25.9456 26.3618C25.9146 26.4428 25.8739 26.507 25.8408 26.5505C25.8835 26.724 25.842 26.8657 25.7886 26.9566C25.8254 27.0803 25.7958 27.203 25.753 27.2926C25.8448 27.4313 25.8615 27.567 25.8027 27.6975C25.7892 27.7274 25.771 27.7549 25.7521 27.7819C25.8277 27.8732 25.9465 28.0819 25.9465 28.5021C25.9465 28.7846 26.0511 28.9541 26.1292 29.0412C26.1748 29.0018 26.2247 28.9796 26.2796 28.9737C26.4463 28.9552 26.5832 29.0978 26.7704 29.2944C26.917 29.4486 27.0993 29.6404 27.3412 29.8017Z" fill="#FFD250"/>
<path d="M24.7489 26.2192C24.7391 26.2192 24.7292 26.219 24.7195 26.219C24.5294 26.2172 24.3557 26.1983 24.1956 26.1675C24.1802 26.2116 24.213 26.34 24.2473 26.3663C24.281 26.3922 24.3035 26.435 24.3024 26.4775C24.3012 26.5198 24.2829 26.5614 24.2479 26.5854C24.2253 26.6012 24.1582 26.6611 24.1574 26.7195C24.1565 26.7766 24.2238 26.8355 24.264 26.8657C24.2934 26.8877 24.3123 26.9211 24.3161 26.9576C24.32 26.9942 24.3084 27.0308 24.2841 27.0585C24.2671 27.0786 24.2186 27.1522 24.227 27.2139C24.2287 27.227 24.2342 27.2669 24.3031 27.3137C24.3328 27.3339 24.3532 27.3656 24.3592 27.4013C24.3651 27.4369 24.3561 27.4734 24.3344 27.5023C24.3346 27.5023 24.2975 27.5565 24.3117 27.6104C24.3275 27.67 24.4019 27.7159 24.4613 27.7439C24.5725 27.7962 24.7326 27.8299 24.8994 27.8364C24.9045 27.8356 24.9097 27.8363 24.9149 27.8361C25.0555 27.8402 25.1999 27.8266 25.3233 27.7811C25.4443 27.7364 25.5245 27.6718 25.5619 27.5888C25.5737 27.5629 25.598 27.5092 25.494 27.3878C25.4534 27.3402 25.4515 27.2711 25.4894 27.2214C25.4896 27.2211 25.5777 27.0999 25.5234 27.0032C25.4943 26.9514 25.5032 26.8867 25.5451 26.8449C25.5528 26.8363 25.6348 26.7398 25.5699 26.5664C25.5511 26.5165 25.5642 26.4603 25.6031 26.4237C25.6078 26.419 25.7274 26.2945 25.7247 26.1054C25.7085 26.0857 25.6923 26.0658 25.6766 26.046C25.4207 26.1545 25.1071 26.2192 24.7489 26.2192Z" fill="#FFD250"/>
<path d="M25.9574 17.0079C25.423 17.2954 24.2834 18.1964 24.2505 20.6632L24.2799 24.8202C24.2834 24.8261 24.2885 24.8321 24.2914 24.8377C24.3604 24.9678 24.3277 25.1365 24.2891 25.2533C24.6192 25.3712 25.031 25.3228 25.2074 25.2791C25.1722 25.1761 25.1443 25.0096 25.2638 24.8211C25.2452 19.8637 25.718 17.7547 25.9574 17.0079Z" fill="#FFD250"/>
<path d="M26.0125 25.338C26.0125 25.1267 25.8531 24.9622 25.6956 24.9089C25.663 24.8977 25.5517 24.8668 25.5008 24.9337C25.4053 25.0586 25.4391 25.1469 25.4717 25.2324C25.4898 25.28 25.5086 25.329 25.4945 25.3851C25.4766 25.4567 25.4114 25.4861 25.3899 25.4958C25.2106 25.5772 24.5289 25.6839 24.0578 25.4407C23.994 25.4076 23.9681 25.3296 23.9998 25.2649C24.0495 25.163 24.0856 25.0135 24.058 24.9615C24.0557 24.9572 24.0496 24.9454 24.0124 24.9404C23.9772 24.9356 23.9423 24.9332 23.9076 24.9332C23.7468 24.9332 23.5975 24.9838 23.5169 25.0701C23.452 25.1397 23.4317 25.2281 23.455 25.3403C23.5333 25.7186 24.0068 25.9481 24.7217 25.9546C25.2273 25.9528 25.6623 25.8335 25.8794 25.6182C25.9678 25.5308 26.0125 25.4365 26.0125 25.338Z" fill="#FFD250"/>
<path d="M24.874 28.4734C24.9045 28.433 24.955 28.4137 25.0048 28.424C25.0967 28.4433 25.325 28.4917 25.4561 28.3901C25.5019 28.3549 25.5122 28.2591 25.4771 28.1966C25.465 28.175 25.4283 28.1102 25.2907 28.1629C25.1605 28.2131 24.9735 28.2675 24.856 28.1618C24.8324 28.1407 24.8176 28.116 24.8063 28.0907C24.7709 28.0877 24.7358 28.0858 24.7011 28.0805C24.6899 28.1096 24.6743 28.1379 24.6478 28.1618C24.5308 28.2673 24.3436 28.2131 24.2132 28.1629C24.076 28.1108 24.0388 28.1751 24.0269 28.1966C23.9917 28.2591 24.0019 28.3549 24.0476 28.3898C24.1788 28.4909 24.4073 28.4431 24.4823 28.4273C24.5311 28.4175 24.5907 28.4343 24.6219 28.4742C24.6529 28.5146 24.6659 28.5671 24.6432 28.6124C24.6134 28.6719 24.484 28.9249 24.3575 29.0829C24.5228 29.3245 24.6658 29.7551 24.3307 30.1382C24.3033 30.1692 24.2609 30.1847 24.2214 30.1829C24.1801 30.1798 24.1424 30.1575 24.1201 30.1226C24.1011 30.0937 24.0339 30.0135 23.9598 29.999C23.9373 29.9947 23.9021 29.993 23.8508 30.0279C23.8162 30.0519 23.7968 30.131 23.826 30.2176C23.8781 30.3725 24.0403 30.4584 24.2689 30.4478C24.3208 30.4426 24.3771 30.4783 24.3981 30.5309C24.4189 30.5833 24.4041 30.6433 24.3613 30.68L24.1458 30.8648L24.4976 30.9504C24.5443 30.9617 24.581 30.9976 24.5938 31.0439C24.5944 31.0461 24.6469 31.2335 24.7521 31.3916C24.8571 31.2335 24.9097 31.0461 24.9102 31.0439C24.9229 30.9976 24.9598 30.9617 25.0064 30.9504L25.3581 30.8648L25.1425 30.68C25.0996 30.6434 25.0849 30.5833 25.1057 30.5309C25.1265 30.4784 25.1789 30.4432 25.2349 30.4478C25.4609 30.4578 25.6256 30.3725 25.678 30.2174C25.7072 30.131 25.6877 30.0519 25.6531 30.0279C25.6012 29.9927 25.5655 29.9945 25.5434 29.9991C25.4667 30.0147 25.398 30.1004 25.3837 30.1225C25.3613 30.1574 25.3237 30.1798 25.2824 30.1828C25.2396 30.1851 25.2003 30.1694 25.1732 30.1381C24.8381 29.7551 24.9814 29.3244 25.1465 29.0828C25.02 28.9248 24.8906 28.672 24.8609 28.6123C24.8382 28.5675 24.8434 28.5134 24.874 28.4734Z" fill="#FFD250"/>
<path d="M43.4729 19.8669C43.4023 19.7569 43.2616 19.6223 42.992 19.6048C42.8045 19.5913 42.6544 19.6417 42.5451 19.7509C42.4572 19.8385 42.4148 19.947 42.3947 20.0387C42.2144 19.9439 41.9259 19.7326 41.6248 19.5119C40.7477 18.8691 39.4224 17.8977 38.1216 17.7332C37.0665 17.5991 35.8664 17.8095 35.2065 18.4218C35.2165 18.3409 35.2194 18.2867 35.2198 18.2774C35.2199 18.2757 35.2184 18.2744 35.2184 18.2725C35.2186 18.2478 35.2118 18.2248 35.1993 18.2042C35.1966 18.1998 35.1937 18.1965 35.1905 18.1924C35.1759 18.1733 35.1575 18.1569 35.1333 18.1479C35.1329 18.1477 35.1326 18.1471 35.1321 18.147H35.1317C35.1068 18.1383 35.0817 18.1397 35.0578 18.1454C35.0532 18.1465 35.0492 18.1472 35.0447 18.1487C35.0217 18.1568 35.0013 18.1704 34.9857 18.1899C34.9846 18.1912 34.9828 18.1913 34.9818 18.1926C34.7077 18.5606 34.3316 18.609 34.1929 18.6136C33.6981 18.026 33.1752 18.0078 33.1526 18.0073C33.0768 18.0123 33.0287 18.0543 33.0189 18.12C32.9982 18.2595 32.9171 18.3977 32.8484 18.4936C32.4124 17.9515 31.7985 18.0058 31.7712 18.0081C31.7287 18.0122 31.691 18.0366 31.6697 18.0736C31.6486 18.1104 31.6464 18.1552 31.6639 18.1942C31.7427 18.3673 31.6472 18.518 31.5712 18.6018C30.7128 17.9139 30.0522 18.4744 30.0453 18.4805C29.9949 18.5247 29.9854 18.5999 30.0236 18.6549C30.0876 18.7477 30.0763 18.7989 30.0593 18.8335C29.9204 19.1149 28.9128 19.2985 28.1582 19.3524C28.1542 19.2463 28.1219 19.1406 28.0627 19.0437C27.969 18.8909 27.8211 18.7833 27.6567 18.7479C27.474 18.7082 27.217 18.7502 27.0532 18.931C26.8701 19.1323 26.8438 19.4437 26.9745 19.8567C27.1788 20.5019 27.7921 21.1089 28.1498 21.4213C28.0627 21.3891 27.9763 21.354 27.8926 21.3137C27.682 21.2112 27.3294 21.0396 27.0688 21.1751C26.9374 21.243 26.8532 21.4132 26.8685 21.5796C26.8763 21.6629 26.9228 21.8501 27.1667 21.9696L26.8733 22.7665C26.8577 22.8091 26.865 22.857 26.893 22.8929C26.9207 22.929 26.965 22.9485 27.0105 22.9435L27.5997 22.8847L27.4697 23.2025C27.4508 23.249 27.4597 23.3022 27.4928 23.3398C27.5259 23.3773 27.5762 23.394 27.626 23.3802L28.2655 23.2109C28.4307 23.5503 28.6511 23.669 28.6614 23.6743C28.6939 23.6916 28.7314 23.6941 28.7657 23.6822C28.8001 23.6704 28.8282 23.6449 28.8431 23.6118L28.945 23.3862C29.0507 23.534 29.1648 23.6321 29.2354 23.6862C29.1925 23.7217 29.1501 23.7567 29.1035 23.7946C28.6595 24.1559 28.0514 24.6509 27.6142 25.4971C27.3947 25.922 27.2237 26.5703 27.2748 27.2597C26.9564 26.9921 26.3562 26.4614 25.9143 25.9181C25.9676 25.8818 26.0241 25.8475 26.0669 25.8053C26.2051 25.6686 26.278 25.5066 26.278 25.3375C26.278 24.9861 26.0206 24.7388 25.7815 24.658C25.6926 24.628 25.6069 24.6235 25.529 24.6368C25.5213 18.8771 26.1772 17.1138 26.3104 16.8169C26.3314 16.7699 26.3233 16.7148 26.2894 16.6759C26.2558 16.6373 26.202 16.6216 26.1527 16.6361C26.0662 16.6615 24.0323 17.2968 23.9875 20.6621L24.0158 24.6769C23.7397 24.6478 23.4776 24.7263 23.325 24.8893C23.2383 24.9821 23.1459 25.1448 23.1973 25.3938C23.2657 25.7242 23.5322 25.968 23.9412 26.102C23.93 26.1454 23.9262 26.1944 23.9316 26.2493C23.938 26.3138 23.9581 26.3937 23.9954 26.4629C23.9455 26.5224 23.8965 26.6075 23.8939 26.7123C23.8916 26.8132 23.9317 26.9081 24.0137 26.9949C23.9813 27.0601 23.9531 27.1483 23.9655 27.246C23.973 27.3043 23.9976 27.3815 24.0665 27.4562C24.0471 27.5138 24.0351 27.5892 24.0559 27.6721C24.077 27.7578 24.1303 27.8314 24.2093 27.8943C24.0069 27.8568 23.8647 27.9481 23.7982 28.0668C23.6982 28.2451 23.7388 28.4839 23.8885 28.5991C24.0104 28.6928 24.1555 28.7228 24.2876 28.7159C24.2203 28.8297 24.1492 28.935 24.1045 28.97C24.0754 28.9925 24.0569 29.0261 24.0539 29.0627C24.0507 29.0994 24.0629 29.1357 24.0876 29.163C24.1014 29.1783 24.3895 29.503 24.218 29.8404C24.1649 29.7968 24.0963 29.7561 24.0146 29.7395C23.9085 29.7179 23.8011 29.7424 23.7033 29.8095C23.5638 29.9052 23.5119 30.1074 23.5773 30.3012C23.6274 30.4497 23.7523 30.602 23.9655 30.6722L23.7801 30.8312C23.7424 30.8634 23.7261 30.9142 23.7376 30.9623C23.7491 31.0105 23.7866 31.0482 23.8348 31.0599L24.3649 31.1891C24.4056 31.3056 24.4984 31.5305 24.6536 31.6857C24.6784 31.7105 24.7255 31.7244 24.7606 31.7244C24.7958 31.7244 24.8293 31.7105 24.8541 31.6857C25.0093 31.5305 25.1022 31.3056 25.1428 31.1891L25.6729 31.0599C25.7211 31.0482 25.7586 31.0106 25.7701 30.9623C25.7816 30.914 25.7651 30.8634 25.7276 30.8312L25.5422 30.6722C25.7553 30.6018 25.8804 30.4497 25.9304 30.3012C25.9958 30.1073 25.9439 29.905 25.8044 29.8095C25.7064 29.7422 25.5984 29.7181 25.493 29.7395C25.4114 29.756 25.343 29.7966 25.2897 29.8402C25.121 29.5046 25.4067 29.1779 25.4206 29.1626C25.445 29.1353 25.4571 29.099 25.4538 29.0625C25.4506 29.026 25.4322 28.9924 25.4034 28.97C25.3588 28.9352 25.288 28.8301 25.2207 28.7163C25.3527 28.7174 25.497 28.6934 25.6194 28.5989C25.6463 28.5783 25.6653 28.5499 25.685 28.5225C25.6943 29.1025 26.0619 29.332 26.0778 29.3416C26.1404 29.379 26.2208 29.3592 26.2585 29.297C26.2896 29.2462 26.3082 29.2365 26.3078 29.2359C26.3543 29.2384 26.4847 29.3757 26.58 29.4758C26.7354 29.6394 26.9292 29.8432 27.1956 30.0207C27.3908 30.151 27.5754 30.2023 27.7449 30.2023C28.2207 30.2023 28.577 29.8008 28.7291 29.5946C29.0254 29.7804 29.3613 29.9417 29.7443 30.0726C29.7574 30.0771 29.7707 30.0789 29.7839 30.0791C29.8296 30.2275 29.8795 30.3768 29.931 30.5248C30.0964 30.9992 30.2673 31.4898 30.2001 31.8622C30.1133 32.345 29.3495 32.3498 28.957 32.2838C28.6777 32.2383 28.4186 32.3098 28.2285 32.4871C28.0384 32.6647 27.9404 32.933 27.967 33.2052C27.9854 33.3953 28.0806 33.4848 28.1575 33.5263C28.3339 33.6211 28.5723 33.5502 28.7019 33.4972C28.9995 33.7564 29.3554 33.6476 29.5707 33.5107C29.7031 33.6213 29.8508 33.6793 30.0106 33.6829C30.0159 33.683 30.0211 33.683 30.0264 33.683C30.268 33.683 30.4713 33.5559 30.5729 33.4781C31.0847 33.6852 31.3774 33.5308 31.4287 33.4991C31.8442 33.1485 31.7759 32.5185 31.7217 32.2446C32.5757 31.986 32.8509 31.2438 32.8628 31.2109C32.8793 31.1646 32.8688 31.1129 32.8356 31.0767C32.8021 31.0407 32.751 31.0261 32.704 31.0387C32.4407 31.1094 32.2328 31.0613 32.1338 30.9063C31.9997 30.6966 32.0866 30.3535 32.3553 30.0326C32.4116 29.9652 32.4649 29.8907 32.5171 29.813C33.177 29.6655 33.7407 29.4088 34.3375 29.1367C34.8314 28.9115 35.3424 28.6785 35.9496 28.4881C36.1198 28.4347 36.2852 28.4034 36.4483 28.3822C36.399 29.0981 36.7662 29.5698 37.1268 30.0236C37.2264 30.1488 37.326 30.2739 37.4163 30.4045C37.803 30.9646 37.7288 32.1388 37.6974 32.2448C37.67 32.305 37.4108 32.5689 37.0434 32.5185C36.7382 32.4779 36.3965 32.5785 36.1724 32.7746C36.0127 32.9144 35.9247 33.0943 35.9247 33.2808C35.9247 33.4398 36.001 33.5187 36.0653 33.557C36.2567 33.6706 36.5734 33.5491 36.7431 33.4678C36.9017 33.5904 37.0646 33.6356 37.2151 33.6356C37.4023 33.6356 37.5706 33.5659 37.6886 33.4885C38.0429 33.7123 38.414 33.5813 38.6209 33.4402C38.88 33.5808 39.0883 33.553 39.2226 33.5001C39.2663 33.483 39.3061 33.4614 39.3424 33.437C39.3477 33.4425 39.3526 33.45 39.3581 33.4546C39.4987 33.5756 39.7589 33.5112 39.9254 33.4508C40.0011 33.5762 40.1013 33.6328 40.1805 33.6579C40.4253 33.7359 40.7062 33.6018 40.8476 33.5181C41.0192 33.6507 41.1896 33.7065 41.3599 33.6826C41.5101 33.6618 41.6234 33.5811 41.6963 33.5104C41.7742 33.5663 41.8923 33.6353 42.0519 33.6857C42.1223 33.7081 42.1842 33.7171 42.2385 33.7171C42.4227 33.7171 42.5188 33.6121 42.5565 33.5574C42.7093 33.3342 42.6296 32.9564 42.459 32.7431C42.3584 32.6173 42.2748 32.3819 42.3151 32.1399C42.3367 32.0108 42.4039 31.8305 42.6029 31.7038C42.9619 31.4755 43.1974 31.1664 43.2029 30.9164C43.2052 30.8132 43.1661 30.7281 43.0922 30.6765C43.0271 30.6309 42.9542 30.6212 42.8836 30.612C42.7263 30.5912 42.5304 30.5653 42.2812 30.105C42.0591 29.6948 42.3221 28.9 42.6009 28.0584C42.7603 27.5769 42.9253 27.079 43.0285 26.5831C43.2841 25.3556 42.6678 24.3667 42.4447 24.0587C43.0653 23.4483 43.3255 22.8625 43.2183 22.3164C43.1004 21.7146 42.5393 21.3024 42.095 21.1322C41.5578 20.9263 40.6576 21.0334 39.7871 21.1377C39.1083 21.2189 38.4665 21.296 38.081 21.2143C37.9353 21.1838 37.8317 21.1206 37.7731 21.026C37.6713 20.8617 37.7258 20.6457 37.7263 20.6434C37.737 20.603 37.7277 20.5594 37.7015 20.5269C37.6753 20.4944 37.6318 20.4736 37.5933 20.4776C37.3401 20.4878 37.1383 20.6289 37.0137 20.7454C37.0065 20.7099 37.0053 20.6735 37.0105 20.6358C37.0448 20.3818 37.3373 20.1598 37.3401 20.1577C37.3751 20.1314 37.395 20.0893 37.3928 20.0455C37.3908 20.0017 37.3672 19.9619 37.3297 19.939C36.7914 19.6112 36.2888 19.854 36.0316 20.082C35.9229 19.9756 35.8574 19.8127 35.8625 19.6487C35.8657 19.541 35.9038 19.3431 36.119 19.2287C36.2164 19.1768 36.3001 19.1655 36.3759 19.1934C36.5029 19.2407 36.5873 19.3967 36.6092 19.4531C36.623 19.4891 36.6524 19.5174 36.6887 19.5301C36.7253 19.5434 36.7658 19.5394 36.7991 19.5198C37.0937 19.3479 37.188 18.9869 37.2178 18.7866C37.3911 18.8148 37.5232 18.8883 37.6192 19.0094C37.8885 19.3491 37.7784 19.9473 37.7773 19.9534C37.7687 19.9981 37.7839 20.044 37.8171 20.0751C37.8503 20.106 37.8972 20.1175 37.9413 20.106C38.5393 19.9458 38.7307 19.4601 38.7602 19.1011C39.2175 19.3859 39.1864 19.9749 39.1846 20.0025C39.1817 20.048 39.2023 20.0919 39.2391 20.1183C39.276 20.145 39.3239 20.1506 39.3661 20.1339C39.5849 20.0451 39.706 19.9006 39.7732 19.7673C40.1895 20.3132 40.7682 20.5027 40.796 20.5118C40.845 20.5267 40.8983 20.5131 40.9333 20.4753C40.968 20.4375 40.9779 20.3829 40.9583 20.3354L40.8291 20.0222C40.9342 20.0964 41.0355 20.1744 41.1396 20.2546C41.4156 20.4669 41.7007 20.6865 42.1123 20.8798C42.575 21.0972 42.9046 21.0485 43.1004 20.9701C43.2957 20.8911 43.4504 20.7438 43.5144 20.576C43.589 20.3806 43.6171 20.0914 43.4729 19.8669ZM43.2673 20.4825C43.2393 20.5563 43.1528 20.6641 43.0013 20.7253C42.8552 20.7844 42.6013 20.8181 42.2249 20.6411C41.8393 20.4599 41.5655 20.2493 41.3009 20.0456C41.0815 19.8766 40.8742 19.7172 40.6125 19.5761C40.5636 19.5497 40.5029 19.5568 40.4612 19.5943C40.4197 19.6316 40.4063 19.6912 40.4277 19.7428L40.5849 20.124C40.3566 19.9937 40.0445 19.7609 39.8399 19.3869C39.811 19.3339 39.7503 19.3074 39.6912 19.3222C39.6327 19.3372 39.5918 19.3899 39.5918 19.4503C39.5918 19.4526 39.5895 19.6366 39.4393 19.7798C39.3938 19.4278 39.2008 18.9549 38.6704 18.7675C38.6268 18.7517 38.5794 18.7605 38.5437 18.7888C38.5081 18.8173 38.4897 18.8624 38.495 18.9077C38.4982 18.9351 38.5616 19.5242 38.0617 19.7794C38.0752 19.5325 38.0538 19.1336 37.8267 18.8464C37.6607 18.6364 37.4177 18.5234 37.1048 18.5105C37.0708 18.5067 37.0349 18.5218 37.0091 18.546C36.9831 18.5701 36.9681 18.6036 36.9671 18.639C36.9671 18.6431 36.9518 18.9974 36.7719 19.2027C36.7096 19.1096 36.6107 18.9998 36.4697 18.9466C36.3215 18.8907 36.1615 18.9071 35.9948 18.9955C35.7514 19.1247 35.6067 19.3599 35.5978 19.6405C35.5885 19.9377 35.7356 20.224 35.9729 20.3699C36.0273 20.4028 36.098 20.3926 36.141 20.3449C36.1584 20.3253 36.5354 19.913 37.0273 20.0857C36.9148 20.2037 36.7775 20.3867 36.7484 20.5993C36.7257 20.7637 36.7692 20.9179 36.8773 21.0577C36.9026 21.0906 36.9322 21.1067 36.9843 21.1088C37.0259 21.1081 37.065 21.0875 37.0893 21.0535C37.0911 21.0511 37.2345 20.8543 37.447 20.7744C37.4462 20.8869 37.466 21.031 37.5467 21.1628C37.6447 21.3224 37.806 21.4269 38.0265 21.4732C38.4544 21.5626 39.1171 21.4836 39.8182 21.4003C40.6574 21.3005 41.5248 21.1969 42.0002 21.3792C42.3816 21.5253 42.8617 21.8717 42.9588 22.3675C43.0523 22.8429 42.7892 23.3752 42.1774 23.9491C42.1261 23.997 42.1214 24.0768 42.1666 24.1304C42.1753 24.1409 43.047 25.1979 42.7697 26.5292C42.6696 27.0104 42.5071 27.5011 42.3499 27.9754C42.0399 28.9118 41.7723 29.7204 42.0489 30.231C42.3623 30.8097 42.667 30.8498 42.849 30.874C42.8844 30.8786 42.9286 30.8844 42.9363 30.8881C42.9625 30.9414 42.8692 31.2212 42.4612 31.4809C42.2385 31.6227 42.0978 31.8355 42.0545 32.0965C42.0073 32.38 42.085 32.6988 42.2526 32.9082C42.3804 33.0679 42.404 33.3121 42.3384 33.4077C42.3255 33.4262 42.2865 33.4822 42.1313 33.4336C41.8947 33.3587 41.7791 33.2368 41.7788 33.2364C41.7508 33.2058 41.7107 33.1909 41.6686 33.1931C41.6271 33.1969 41.5899 33.22 41.5682 33.2552C41.5672 33.2567 41.4752 33.3996 41.3234 33.4207C41.21 33.4361 41.0839 33.3812 40.9474 33.2566C40.9013 33.2145 40.8325 33.2107 40.7814 33.2465C40.6993 33.3048 40.4271 33.4579 40.2607 33.406C40.2368 33.3983 40.1638 33.3748 40.1171 33.2376C40.1048 33.2024 40.0784 33.1739 40.0441 33.1592C40.0098 33.1446 39.9712 33.1448 39.9371 33.1604C39.7765 33.2333 39.575 33.2791 39.5362 33.2616C39.5362 33.2616 39.5298 33.2416 39.5464 33.1852C39.6378 32.8701 40.0097 32.7946 40.2559 32.7447C40.3011 32.7355 40.3422 32.7271 40.3764 32.7185C40.4036 32.7119 40.4347 32.7056 40.4679 32.6991C40.7104 32.6509 41.2147 32.5505 41.1513 31.9163C41.1379 31.783 41.1418 31.66 41.1452 31.541C41.1567 31.1503 41.1676 30.7815 40.5538 30.3397C40.3274 30.1765 40.1091 30.0301 39.8995 29.8894C39.422 29.5688 39.0096 29.2922 38.6319 28.9145C37.8523 28.1345 36.9237 27.906 35.8708 28.2357C35.2479 28.4308 34.7295 28.6672 34.2282 28.8959C33.724 29.126 33.2407 29.3404 32.7112 29.4869C33.1292 28.6924 33.3581 27.639 33.311 27.1312C33.3041 27.0585 33.2379 27.0045 33.1672 27.0118C33.0945 27.0187 33.0411 27.083 33.0477 27.1556C33.1017 27.7355 32.7418 29.1593 32.153 29.8628C31.809 30.2741 31.7141 30.7395 31.9114 31.0485C32.034 31.24 32.2419 31.3317 32.5037 31.3342C32.3606 31.5596 32.0643 31.8997 31.5346 32.021C31.4992 32.0293 31.4686 32.0516 31.4502 32.0831C31.4317 32.1145 31.4271 32.1521 31.4375 32.1871C31.4397 32.1948 31.6583 32.96 31.2801 33.2825C31.2706 33.2879 31.0419 33.4038 30.6061 33.2043C30.5568 33.1819 30.4982 33.1917 30.4592 33.2297C30.4569 33.2315 30.2429 33.4322 30.0174 33.4185C29.894 33.4157 29.7832 33.3602 29.6786 33.2487C29.6305 33.1973 29.5504 33.1931 29.4967 33.2383C29.481 33.2519 29.1069 33.5623 28.8292 33.2512C28.7885 33.2056 28.7225 33.1941 28.6691 33.2221C28.5631 33.2775 28.3672 33.3388 28.2839 33.2937C28.2728 33.2876 28.2392 33.2696 28.2306 33.1795C28.2121 32.9886 28.2791 32.8018 28.4097 32.68C28.5384 32.5599 28.7176 32.5114 28.9142 32.5445C29.6068 32.6601 30.3528 32.5081 30.4609 31.9089C30.5402 31.4681 30.3577 30.9444 30.1813 30.4376C30.0484 30.0565 29.9112 29.6624 29.9051 29.343C29.8927 28.6906 30.0324 28.0746 30.0338 28.0683C30.0502 27.9973 30.0058 27.9264 29.9346 27.91C29.8635 27.8927 29.7928 27.9377 29.7763 28.0089C29.7702 28.0352 29.6276 28.6618 29.6408 29.3481C29.6435 29.4832 29.6691 29.6269 29.7027 29.7732C28.6999 29.4027 28.0306 28.826 27.7195 28.053C27.3551 27.1469 27.5618 26.1751 27.8495 25.6179C28.2614 24.8208 28.8212 24.3654 29.271 23.9992C29.4824 23.8272 29.6717 23.6723 29.8067 23.5105C29.7925 23.7302 29.6056 24.1721 29.4016 24.526C29.3745 24.5732 29.3789 24.6321 29.413 24.6746C29.447 24.717 29.5038 24.7342 29.5555 24.7181C29.669 24.6827 29.8741 24.5827 30.0246 24.5059L30.067 25.173C30.0701 25.2223 30.1007 25.2659 30.1461 25.2857C30.1917 25.3056 30.2444 25.2983 30.2825 25.2667C30.4606 25.1206 30.6288 24.9256 30.7452 24.7785L30.8766 25.1934C30.8892 25.2333 30.9202 25.265 30.9599 25.2786C30.9998 25.292 31.0433 25.2861 31.0778 25.2621C31.2661 25.1318 31.45 24.9231 31.5648 24.7797L31.8157 25.1796C31.8411 25.2203 31.8866 25.2464 31.9342 25.2414C31.9818 25.2391 32.0247 25.2113 32.046 25.1684L32.3386 24.5829L32.5855 25.2541C32.5993 25.2916 32.6293 25.3207 32.6671 25.3335C32.6808 25.3384 32.6953 25.3406 32.7095 25.3406C32.7342 25.3406 32.7588 25.3336 32.7802 25.3204L33.4271 24.9123C33.769 25.1022 34.2635 25.1813 34.2858 25.185C34.3257 25.1903 34.3671 25.1787 34.3969 25.1506C34.4266 25.1227 34.4418 25.0826 34.4381 25.0419L34.3853 24.4907L34.9582 24.482C35.0241 24.4809 35.0792 24.4314 35.0873 24.3661C35.0954 24.3005 35.0539 24.2392 34.9902 24.2222C34.9277 24.2055 34.7843 24.0715 34.662 23.9343C34.6775 23.9333 34.6846 23.9326 34.692 23.932C35.0214 23.9571 40.6131 24.3687 41.8392 23.4768C42.5212 22.9809 42.4735 22.5301 42.3842 22.3056C42.2003 21.842 41.5311 21.5462 40.8637 21.6312C40.5984 21.6652 40.3131 21.716 40.0174 21.769C39.1805 21.9189 38.232 22.0888 37.4542 21.8982C37.1508 21.8239 36.8908 21.7255 36.6613 21.6387C36.2729 21.4917 35.9922 21.3853 35.777 21.5138C35.6879 21.5672 35.6232 21.6541 35.5801 21.7812C35.442 21.6272 35.2888 21.3461 35.4911 20.9653C35.5177 20.9152 35.5092 20.8537 35.4703 20.8123C35.4626 20.804 34.6958 19.9822 35.0566 19.0802C35.3806 18.2702 36.6559 17.813 38.0888 17.995C39.3217 18.1509 40.6138 19.0979 41.4688 19.7245C42.0071 20.1189 42.2969 20.3258 42.493 20.3515C42.5323 20.3572 42.571 20.3436 42.6 20.317C42.6288 20.2903 42.6441 20.2519 42.6421 20.2127C42.6419 20.2109 42.6337 20.0344 42.7329 19.9365C42.7869 19.883 42.8659 19.8594 42.975 19.8676C43.1032 19.876 43.1959 19.9236 43.2508 20.0089C43.336 20.1424 43.3206 20.3429 43.2673 20.4825ZM39.1131 33.2594C38.9848 33.3035 38.8412 33.2741 38.6841 33.1709C38.6347 33.1386 38.5695 33.1432 38.5251 33.1816C38.5091 33.1954 38.1315 33.5143 37.7696 33.2225C37.7203 33.1828 37.6487 33.1841 37.6001 33.2256C37.5608 33.2593 37.2056 33.5454 36.8519 33.2143C36.8101 33.1754 36.7484 33.1675 36.6988 33.1945C36.5189 33.2916 36.2677 33.3709 36.2006 33.3303C36.1895 33.3238 36.189 33.2883 36.189 33.2813C36.189 33.1413 36.2747 33.0368 36.3465 32.974C36.5134 32.8281 36.7784 32.7506 37.0086 32.7809C37.5091 32.8478 37.8741 32.5044 37.9402 32.3496C37.9987 32.2129 38.0953 30.9232 37.6338 30.255C37.5401 30.1195 37.4371 29.9895 37.3337 29.8596C36.9828 29.4182 36.6542 28.9988 36.7135 28.3609C37.3548 28.3474 37.9355 28.5927 38.4447 29.1019C38.7112 29.3684 39.0001 29.5891 39.3026 29.8013C39.1853 29.9218 38.9963 30.1494 38.9819 30.3809C38.9749 30.4948 39.011 30.5991 39.086 30.6826C39.2777 30.8954 39.4971 30.8855 39.6422 30.8784C39.6672 30.877 39.7006 30.8751 39.7252 30.8769C39.6882 30.9665 39.5512 31.1538 39.4564 31.283C39.1943 31.6405 39.0248 31.8893 39.0536 32.082C39.0734 32.2134 39.1251 32.4116 39.1751 32.6034C39.2227 32.7861 39.2947 33.0623 39.2914 33.1158C39.2844 33.1363 39.2251 33.2204 39.1131 33.2594ZM39.6695 31.4392C39.9235 31.0926 40.0525 30.9049 39.9778 30.7556C39.9011 30.6022 39.7445 30.6088 39.6298 30.6147C39.5068 30.6206 39.3902 30.6257 39.2824 30.506C39.2544 30.4748 39.2429 30.4415 39.2456 30.3978C39.2548 30.2468 39.4251 30.0509 39.5231 29.9548C39.599 30.0063 39.6744 30.0578 39.7518 30.1097C39.9593 30.249 40.1751 30.3938 40.3989 30.5549C40.8988 30.9149 40.8915 31.1613 40.8807 31.5341C40.877 31.6556 40.873 31.7933 40.8881 31.9436C40.9248 32.3106 40.7155 32.3812 40.4162 32.4407C40.3784 32.4482 40.343 32.4553 40.3119 32.4631C40.2809 32.4708 40.2439 32.4784 40.2029 32.4868C40.012 32.5254 39.7068 32.5908 39.4946 32.7886C39.4771 32.717 39.4558 32.6341 39.4304 32.5372C39.3823 32.3521 39.3324 32.1608 39.3146 32.0433C39.3001 31.9435 39.5405 31.6156 39.6695 31.4392ZM26.281 28.9738C26.2262 28.9796 26.1763 29.0018 26.1307 29.0413C26.0525 28.9542 25.9479 28.7847 25.9479 28.5021C25.9479 28.082 25.8291 27.8731 25.7535 27.782C25.7724 27.7549 25.7906 27.7275 25.8041 27.6975C25.8629 27.5671 25.8462 27.4313 25.7544 27.2926C25.7973 27.203 25.8268 27.0803 25.79 26.9566C25.8435 26.8658 25.885 26.724 25.8423 26.5505C25.8754 26.5071 25.9161 26.4428 25.9471 26.3619C26.5544 27.0331 27.2795 27.6075 27.3285 27.646C27.3628 27.8152 27.4066 27.9847 27.4741 28.1525C27.6805 28.6657 28.0301 29.0965 28.5102 29.4469C28.2851 29.7526 27.864 30.1498 27.3427 29.8017C27.1008 29.6405 26.9183 29.4486 26.772 29.2945C26.5847 29.0978 26.4477 28.9551 26.281 28.9738ZM25.1755 30.1382C25.2026 30.1696 25.2419 30.1852 25.2848 30.183C25.3261 30.1798 25.3638 30.1576 25.386 30.1226C25.4004 30.1006 25.4691 30.0147 25.5457 29.9993C25.5677 29.9944 25.6034 29.9927 25.6555 30.0281C25.69 30.052 25.7095 30.1311 25.6803 30.2175C25.628 30.3726 25.4632 30.458 25.2372 30.4479C25.1812 30.4433 25.1288 30.4785 25.108 30.531C25.0872 30.5834 25.1019 30.6435 25.1448 30.6801L25.3604 30.8649L25.0087 30.9505C24.962 30.9619 24.9253 30.9977 24.9125 31.044C24.9119 31.0462 24.8594 31.2336 24.7544 31.3917C24.6492 31.2336 24.5967 31.0462 24.5961 31.044C24.5834 30.9977 24.5465 30.9619 24.4999 30.9505L24.1481 30.8649L24.3636 30.6801C24.4064 30.6433 24.4212 30.5834 24.4004 30.531C24.3794 30.4786 24.3231 30.4427 24.2712 30.4479C24.0425 30.4585 23.8805 30.3726 23.8283 30.2177C23.7991 30.1312 23.8185 30.052 23.8531 30.0281C23.9042 29.9931 23.9396 29.9949 23.9621 29.9992C24.0362 30.0136 24.1034 30.0938 24.1225 30.1227C24.1449 30.1577 24.1825 30.18 24.2237 30.1831C24.2632 30.1848 24.3057 30.1693 24.333 30.1383C24.6682 29.7553 24.525 29.3247 24.3599 29.0831C24.4863 28.925 24.6157 28.6722 24.6455 28.6125C24.6683 28.5673 24.6551 28.5146 24.6242 28.4744C24.5931 28.4345 24.5334 28.4175 24.4847 28.4274C24.4097 28.4432 24.1811 28.4911 24.0499 28.3899C24.0043 28.3549 23.9942 28.259 24.0292 28.1967C24.041 28.1751 24.0784 28.1109 24.2155 28.163C24.3459 28.2132 24.5332 28.2674 24.6501 28.162C24.6768 28.138 24.6922 28.1097 24.7034 28.0806C24.7381 28.0859 24.7732 28.0877 24.8086 28.0909C24.8199 28.1163 24.8348 28.1409 24.8583 28.162C24.9759 28.2675 25.1628 28.2132 25.2931 28.163C25.4307 28.1103 25.4674 28.1752 25.4794 28.1967C25.5145 28.2592 25.5042 28.355 25.4584 28.3902C25.3272 28.4916 25.0989 28.4433 25.0071 28.4242C24.9574 28.4138 24.907 28.4334 24.8763 28.4735C24.8457 28.5135 24.8405 28.5675 24.863 28.6127C24.8928 28.6722 25.0222 28.9252 25.1486 29.0833C24.9836 29.3246 24.8405 29.7553 25.1755 30.1382ZM25.6041 26.4238C25.5652 26.4603 25.5521 26.5166 25.5709 26.5665C25.6359 26.74 25.5539 26.8364 25.5461 26.845C25.5041 26.8868 25.4953 26.9514 25.5244 27.0033C25.5788 27.1 25.4907 27.221 25.4904 27.2214C25.4526 27.2711 25.4544 27.3403 25.495 27.3878C25.5989 27.5091 25.5746 27.5629 25.563 27.5888C25.5257 27.6718 25.4453 27.7365 25.3243 27.7811C25.2008 27.8267 25.0564 27.8403 24.9159 27.8362C24.9107 27.8364 24.9056 27.8356 24.9005 27.8365C24.7337 27.8298 24.5735 27.7962 24.4623 27.7439C24.4029 27.716 24.3286 27.6701 24.3127 27.6104C24.2983 27.5565 24.3355 27.5023 24.3354 27.5023C24.3571 27.4734 24.366 27.4369 24.3602 27.4013C24.3542 27.3657 24.334 27.334 24.3041 27.3137C24.2352 27.2669 24.2298 27.227 24.228 27.2139C24.2196 27.1522 24.2681 27.0787 24.2851 27.0585C24.3094 27.0308 24.3209 26.9943 24.3172 26.9577C24.3134 26.9211 24.2944 26.8878 24.265 26.8658C24.2247 26.8355 24.1575 26.7764 24.1584 26.7196C24.1593 26.6611 24.2264 26.6011 24.2489 26.5854C24.2841 26.5615 24.3022 26.5199 24.3034 26.4775C24.3046 26.435 24.2821 26.3921 24.2483 26.3664C24.214 26.34 24.1813 26.2118 24.1967 26.1675C24.3567 26.1984 24.5304 26.2173 24.7205 26.219C24.7303 26.219 24.7401 26.2192 24.7499 26.2192C25.1081 26.2192 25.4217 26.1545 25.6772 26.046C25.6931 26.0659 25.7093 26.0857 25.7254 26.1054C25.7284 26.2946 25.6089 26.4191 25.6041 26.4238ZM24.7231 25.9547C24.0083 25.9482 23.5347 25.7186 23.4564 25.3405C23.4332 25.2281 23.4535 25.1397 23.5184 25.0703C23.599 24.9838 23.7482 24.9334 23.9091 24.9334C23.9436 24.9334 23.9788 24.9357 24.0139 24.9406C24.0511 24.9456 24.0572 24.9574 24.0595 24.9617C24.0872 25.0136 24.0511 25.1631 24.0013 25.265C23.9696 25.3296 23.9954 25.4078 24.0593 25.4409C24.5304 25.6839 25.2121 25.5773 25.3914 25.496C25.413 25.4862 25.4781 25.4567 25.496 25.3852C25.5101 25.3291 25.4914 25.28 25.4731 25.2327C25.4406 25.1471 25.4067 25.0588 25.5022 24.9339C25.5532 24.867 25.6643 24.8979 25.6971 24.9091C25.8547 24.9625 26.014 25.1269 26.014 25.3382C26.014 25.4366 25.9692 25.5309 25.8809 25.6185C25.6638 25.8336 25.2288 25.953 24.7231 25.9547ZM25.2089 25.2792C25.0325 25.3229 24.6207 25.3714 24.2905 25.2533C24.3292 25.1365 24.362 24.9678 24.2929 24.8378C24.2898 24.8322 24.2849 24.8261 24.2813 24.8203L24.2519 20.6632C24.2849 18.1964 25.4244 17.2953 25.9589 17.008C25.7194 17.7548 25.2467 19.8636 25.2652 24.8211C25.1458 25.0096 25.1737 25.1761 25.2089 25.2792ZM28.8116 23.0408L28.6729 23.3473C28.6092 23.28 28.5291 23.1714 28.4639 23.0063C28.4392 22.944 28.3723 22.9091 28.3071 22.9272L27.8148 23.0575L27.9275 22.7821C27.9451 22.7391 27.9389 22.6902 27.911 22.653C27.8836 22.6157 27.8372 22.5948 27.7922 22.6005L27.1945 22.6602L27.4163 22.0577C27.6802 22.1347 28.3332 22.3111 29.0038 22.3808L28.906 22.5025C28.8708 22.5465 28.8674 22.6078 28.8971 22.6555C28.927 22.7032 28.9839 22.7267 29.0387 22.714C29.0457 22.7126 29.7553 22.5517 30.2383 22.6206C30.293 22.6272 30.3465 22.6012 30.3729 22.5531C30.3994 22.5047 30.393 22.445 30.357 22.4034C30.075 22.0772 29.3171 21.1667 29.1973 20.8758C29.1748 20.821 29.1181 20.7898 29.0598 20.7948C29.001 20.8018 28.9539 20.847 28.9447 20.9055L28.8784 21.3283C28.7774 21.2614 28.6431 21.1519 28.5304 20.99C28.498 20.9435 28.4401 20.9225 28.3856 20.9386C28.3312 20.9542 28.2929 21.0024 28.2899 21.0589C28.2892 21.0717 28.2871 21.1231 28.2902 21.1926C27.95 20.8899 27.4038 20.3378 27.2264 19.7774C27.1274 19.4651 27.1351 19.2342 27.2487 19.1093C27.3479 19.0004 27.5142 18.9885 27.6014 19.007C27.6939 19.0268 27.7822 19.0923 27.8372 19.1823C27.8911 19.2705 27.9073 19.3689 27.883 19.4603C27.8722 19.501 27.8812 19.5446 27.908 19.5774C27.9345 19.6103 27.976 19.6293 28.0173 19.6262C28.3504 19.6097 30.0256 19.4994 30.2964 18.9507C30.3342 18.8739 30.3606 18.7603 30.3047 18.6214C30.4819 18.5202 30.9197 18.3702 31.4869 18.877C31.5332 18.9185 31.6025 18.9217 31.6533 18.8849C31.7839 18.7889 31.9803 18.5582 31.956 18.2774C32.1536 18.3022 32.4934 18.4022 32.7291 18.782C32.7508 18.8168 32.7871 18.8394 32.8277 18.8437C32.868 18.8477 32.9084 18.8333 32.9368 18.8039C32.9472 18.793 33.1617 18.5672 33.2503 18.2881C33.408 18.3249 33.7208 18.4435 34.0264 18.8276C34.0493 18.8564 34.083 18.8743 34.1196 18.8772C34.1325 18.8774 34.3008 18.8875 34.5179 18.8239C33.8507 19.3615 32.7662 19.4715 32.752 19.4728C32.7033 19.4774 32.6612 19.5085 32.6423 19.5535C32.6235 19.5985 32.631 19.6506 32.6621 19.6882L32.8504 19.9176C32.1038 19.9315 31.775 19.6614 31.772 19.6589C31.7237 19.6169 31.6526 19.6159 31.6025 19.6551C31.5526 19.6952 31.5386 19.7651 31.569 19.8214L31.7326 20.1235C31.439 20.0621 31.1698 19.9252 30.944 19.81C30.6596 19.6652 30.4347 19.5512 30.2377 19.6097C30.0904 19.6538 29.9831 19.7868 29.9574 19.9569C29.9297 20.1423 30.0053 20.3193 30.1546 20.4188C30.2306 20.4696 30.3174 20.4944 30.4046 20.4944C30.5277 20.4944 30.6522 20.4451 30.75 20.3497C30.8299 20.2717 30.8778 20.177 30.8919 20.0798C31.1895 20.2306 31.5518 20.401 31.9657 20.4188C32.0122 20.4245 32.0583 20.3972 32.0834 20.3569C32.1087 20.3166 32.1102 20.2657 32.0875 20.2239L32.0011 20.0644C32.2508 20.1486 32.6216 20.2158 33.1296 20.1651C33.1781 20.1602 33.2199 20.1294 33.2386 20.0842C33.2572 20.0392 33.2495 19.9876 33.2187 19.9499L33.0163 19.7031C33.431 19.634 34.2823 19.4338 34.8195 18.9129C34.7311 19.1564 34.5871 19.4074 34.3497 19.5448C34.3165 19.5641 34.2935 19.5972 34.2863 19.635C34.2793 19.6728 34.2892 19.7123 34.3132 19.7423C34.3176 19.748 34.7452 20.306 34.6119 21.7644C34.3674 21.6387 33.8973 21.3401 33.6315 20.801C33.6033 20.7439 33.5391 20.7155 33.4763 20.7325C33.4149 20.7502 33.3751 20.8094 33.3815 20.8731C33.3992 21.0444 33.4136 21.3182 33.398 21.5109C33.2553 21.4086 33.0553 21.2413 32.9727 21.0585C32.9495 21.0066 32.8958 20.9743 32.8394 20.9814C32.783 20.9869 32.7365 21.0277 32.7236 21.0829C32.6902 21.2267 32.6457 21.3934 32.6095 21.5065C32.4779 21.4241 32.3032 21.2938 32.2305 21.1599C32.2025 21.1081 32.1437 21.0809 32.0855 21.094C32.0279 21.1067 31.9859 21.1565 31.9825 21.2155C31.9739 21.3684 31.9537 21.6044 31.928 21.7674C31.8065 21.693 31.6356 21.5806 31.5094 21.4664C31.4751 21.4354 31.4271 21.4239 31.3831 21.4376C31.3389 21.4506 31.3048 21.4859 31.2929 21.5306L31.2251 21.7881C31.1115 21.7222 30.9541 21.6171 30.8512 21.4915C30.8051 21.4349 30.7217 21.4266 30.6654 21.4729C30.6089 21.519 30.6006 21.6023 30.6469 21.6587C30.8622 21.9217 31.2399 22.0955 31.2559 22.1027C31.2916 22.1186 31.3318 22.1182 31.3673 22.1018C31.4025 22.0851 31.4285 22.0537 31.4385 22.016L31.4965 21.7956C31.7107 21.955 31.94 22.0808 31.952 22.0874C31.9852 22.1052 32.0245 22.1081 32.0601 22.0958C32.0958 22.0829 32.1241 22.0554 32.1381 22.0205C32.1767 21.9236 32.204 21.7249 32.2215 21.5488C32.4019 21.7056 32.6045 21.8081 32.6171 21.8143C32.679 21.8452 32.7537 21.8233 32.7895 21.7641C32.8268 21.7016 32.8712 21.5617 32.9083 21.4288C33.1222 21.6698 33.4099 21.835 33.4259 21.8442C33.4591 21.8629 33.4994 21.8662 33.5358 21.8537C33.5721 21.8406 33.6009 21.8124 33.6146 21.7762C33.6545 21.6714 33.6678 21.5057 33.669 21.3428C33.9207 21.6503 34.2119 21.8461 34.4177 21.9596C34.4177 21.9629 34.4163 21.9657 34.4165 21.969C34.4178 21.9922 34.4468 22.4346 34.5225 22.7874C34.3008 22.7052 33.9442 22.5379 33.6148 22.2278C33.5832 22.1978 33.5385 22.1858 33.4961 22.1949C33.4534 22.2042 33.4181 22.2338 33.4017 22.2742L33.3 22.5253L32.875 22.217C32.8375 22.1898 32.7882 22.184 32.745 22.2026C32.7021 22.2211 32.6722 22.2606 32.6662 22.3069L32.6278 22.6016C32.5354 22.5347 32.4246 22.4462 32.3455 22.3573C32.2967 22.3024 32.2129 22.2978 32.159 22.3463C32.1045 22.3948 32.0995 22.4783 32.1479 22.5328C32.3351 22.7433 32.6493 22.9353 32.6626 22.9433C32.701 22.967 32.7482 22.9687 32.7884 22.9495C32.8288 22.9301 32.8564 22.8919 32.8624 22.8474L32.8996 22.5613L33.2814 22.8383C33.314 22.8621 33.3563 22.8692 33.3953 22.8583C33.4345 22.847 33.4662 22.8185 33.4815 22.781L33.5766 22.546C33.8213 22.747 34.0643 22.879 34.2622 22.9662C34.2632 23.0484 34.2761 23.3984 34.4238 23.6745C34.1817 23.6681 33.8023 23.6256 33.451 23.4499C33.3916 23.4196 33.3179 23.4394 33.2811 23.4962L33.0897 23.7911L32.2982 23.26C32.2645 23.2372 32.222 23.2309 32.1838 23.2442C32.1452 23.2566 32.1144 23.2862 32.1005 23.3242L31.9788 23.6555C31.8331 23.492 31.6242 23.262 31.5472 23.2004C31.4933 23.1571 31.4149 23.1631 31.3679 23.2139C31.3656 23.2163 31.1807 23.4143 30.9594 23.5682L30.8068 23.1586C30.7814 23.0905 30.705 23.0553 30.6368 23.0807C30.5683 23.1061 30.5336 23.1825 30.559 23.2507L30.7682 23.8124C30.7817 23.8485 30.8102 23.8769 30.8464 23.8902C30.8824 23.9035 30.9225 23.9005 30.9563 23.8818C31.1634 23.7669 31.3569 23.5953 31.4672 23.489C31.5897 23.6155 31.7956 23.8461 31.9267 23.9964C31.9576 24.0316 32.0043 24.0484 32.0503 24.0394C32.0962 24.031 32.1343 23.999 32.1504 23.9551L32.2906 23.5733L33.0539 24.0854C33.0759 24.1001 33.1015 24.1079 33.1275 24.1079C33.1362 24.1079 33.1452 24.107 33.154 24.105C33.1887 24.098 33.2191 24.0773 33.2383 24.0476L33.4401 23.7363C33.7794 23.8828 34.1186 23.9261 34.3621 23.9365C34.3607 23.9679 34.3692 24 34.3908 24.0262C34.423 24.0657 34.4887 24.1433 34.5681 24.224L34.2377 24.229C34.2009 24.2295 34.1659 24.2455 34.1414 24.273C34.1168 24.3003 34.1048 24.3368 34.1082 24.3737L34.1575 24.891C33.9751 24.8501 33.6857 24.7705 33.4972 24.6471C33.4535 24.6186 33.398 24.6179 33.3543 24.6458L32.7767 25.0102L32.4808 24.2054C32.4627 24.1558 32.4169 24.122 32.3641 24.119C32.3067 24.1149 32.2621 24.1447 32.2385 24.1919L31.9141 24.8405L31.6869 24.4781C31.6633 24.4406 31.6225 24.4173 31.5783 24.4162C31.5343 24.4169 31.4925 24.4361 31.4668 24.4723C31.4645 24.4755 31.2805 24.7353 31.0697 24.9295L30.9189 24.4535C30.9036 24.4053 30.8624 24.3701 30.8123 24.3627C30.7619 24.356 30.7125 24.377 30.684 24.4188C30.6819 24.4219 30.5191 24.6585 30.3125 24.8763L30.2752 24.2869C30.2723 24.2421 30.247 24.2017 30.2075 24.1798C30.1682 24.1579 30.1204 24.1574 30.0808 24.1788C30.024 24.2092 29.9189 24.2643 29.809 24.3186C29.9644 23.9959 30.1408 23.5424 30.0405 23.3088C30.0106 23.2391 29.9544 23.1929 29.8871 23.1643C29.8829 23.1614 29.8801 23.1572 29.8756 23.1547C29.8694 23.1514 29.8628 23.1512 29.8564 23.1489C29.8519 23.1476 29.849 23.1439 29.8443 23.1428C29.839 23.1416 29.835 23.142 29.8299 23.1409C29.8271 23.1406 29.8246 23.14 29.8218 23.1398C29.6426 23.1025 29.5204 23.1525 29.4499 23.204C29.3778 23.2567 29.3303 23.3266 29.2991 23.394C29.217 23.3147 29.1178 23.1964 29.0537 23.0439C29.0335 22.9954 28.9862 22.9635 28.9338 22.9629C28.8811 22.9595 28.8335 22.9929 28.8116 23.0408ZM27.8067 21.5662C28.5211 21.9105 29.399 21.9486 29.6389 21.953C29.7538 22.0957 29.8658 22.2319 29.9556 22.3388C29.7361 22.3397 29.5122 22.3645 29.3344 22.3911L29.3657 22.3521C29.3967 22.3135 29.4034 22.2609 29.3834 22.2157C29.3635 22.1707 29.3197 22.1404 29.2706 22.1374C28.3735 22.084 27.3854 21.7723 27.3757 21.7689C27.3753 21.7688 27.3749 21.7689 27.3745 21.7688C27.3745 21.7688 27.3741 21.7685 27.3737 21.7684C27.2265 21.724 27.1407 21.6483 27.1321 21.5556C27.1255 21.4825 27.1661 21.423 27.1906 21.4102C27.3332 21.3366 27.6332 21.482 27.8067 21.5662ZM29.0552 21.6407C29.0837 21.6202 29.1048 21.5908 29.1103 21.5556L29.149 21.3079C29.2282 21.4231 29.3242 21.5506 29.4232 21.6792C29.321 21.6721 29.1953 21.66 29.0552 21.6407ZM28.8225 21.6033C28.7581 21.5914 28.6918 21.5774 28.6247 21.562C28.6306 21.5337 28.6271 21.5034 28.6136 21.4761C28.6098 21.4686 28.6063 21.4606 28.6029 21.4524C28.6865 21.521 28.7638 21.5701 28.8225 21.6033ZM30.5653 20.1607C30.5053 20.2199 30.3998 20.2648 30.3012 20.1993C30.2256 20.1489 30.2092 20.0615 30.2187 19.9964C30.2264 19.9456 30.2556 19.8804 30.3134 19.8631C30.3244 19.8599 30.337 19.8583 30.3507 19.8583C30.414 19.8583 30.5045 19.8915 30.6078 19.9387L30.608 19.939C30.675 20.0453 30.5843 20.1423 30.5653 20.1607ZM35.5897 22.1388C35.6275 22.1629 35.6754 22.1659 35.7166 22.1469C35.7573 22.1279 35.7855 22.089 35.7915 22.0444C35.8134 21.8782 35.8541 21.7762 35.9124 21.7413C36.0176 21.6781 36.2727 21.7748 36.5675 21.8865C36.7923 21.9716 37.072 22.0774 37.3908 22.1555C38.2227 22.3593 39.2007 22.1843 40.0634 22.0297C40.3549 21.9776 40.6357 21.9274 40.8967 21.894C41.4425 21.8245 41.999 22.053 42.1382 22.4038C42.2434 22.6685 42.0818 22.974 41.6833 23.2638C40.5785 24.0671 35.2885 23.7104 34.7492 23.6718C34.6057 23.5352 34.5496 23.2555 34.5329 23.0712C34.6201 23.0991 34.6786 23.1129 34.6861 23.1146C34.6951 23.1166 34.7042 23.1174 34.7133 23.1174C34.751 23.1174 34.7877 23.101 34.8133 23.0718C34.8446 23.0353 34.8539 22.985 34.8374 22.9398C34.755 22.7149 34.7096 22.2994 34.6908 22.0867C34.7258 22.0963 34.7627 22.0928 34.7937 22.0736C34.8281 22.0525 34.8509 22.0166 34.8556 21.9765C35.0119 20.649 34.7393 19.9568 34.5965 19.6975C34.6311 19.6711 34.6635 19.6424 34.6945 19.6126C34.7041 20.24 35.068 20.7446 35.2169 20.9248C34.9511 21.5265 35.337 21.9786 35.5897 22.1388Z" fill="#464655"/>
<path d="M22.3351 15.3347C22.2838 14.2701 22.0311 12.5484 21.2233 12.509C20.768 12.488 20.5437 12.7683 20.5344 12.7803C20.5077 12.8148 20.464 12.8343 20.4216 12.8321L20.1129 12.8136L20.1682 13.0182C20.1815 13.0675 20.1648 13.1205 20.1257 13.1536C20.107 13.1694 19.6704 13.5485 19.9361 14.0313C20.1384 14.3992 20.7924 14.5733 21.2699 14.7003C21.483 14.7571 21.6673 14.8061 21.7868 14.8646C21.9999 14.9688 22.1866 15.1446 22.3351 15.3347Z" fill="#FFD250"/>
<path d="M21.2362 12.245C20.7716 12.2222 20.4825 12.4538 20.3738 12.5644L19.9456 12.5388C19.9049 12.5355 19.8622 12.5544 19.8352 12.5873C19.8083 12.6202 19.7989 12.664 19.8099 12.7052L19.8921 13.0102C19.6822 13.2245 19.4353 13.6694 19.7044 14.1586C19.9611 14.6256 20.6784 14.8163 21.2019 14.9557C21.4018 15.0089 21.5745 15.0549 21.6709 15.1019C21.9805 15.2533 22.2291 15.5976 22.3585 15.8695C22.3807 15.9163 22.4277 15.9448 22.4779 15.9448C22.4873 15.9448 22.4968 15.9437 22.5064 15.9417C22.5664 15.9284 22.6093 15.8754 22.6099 15.8139C22.6113 15.6712 22.6282 12.3129 21.2362 12.245ZM21.2699 14.7002C20.7924 14.5732 20.1384 14.3991 19.9361 14.0312C19.6705 13.5485 20.107 13.1694 20.1257 13.1535C20.1647 13.1204 20.1814 13.0675 20.1682 13.018L20.1129 12.8135L20.4216 12.832C20.4641 12.8343 20.5079 12.8147 20.5344 12.7802C20.5437 12.768 20.768 12.4878 21.2233 12.5089C22.0312 12.5483 22.2838 14.27 22.3351 15.3345C22.1866 15.1446 21.9999 14.9687 21.7868 14.8645C21.6674 14.8059 21.4831 14.7569 21.2699 14.7002Z" fill="#464655"/>
<path d="M44.4238 15.3347C44.4751 14.2701 44.7278 12.5484 45.5356 12.509C45.9909 12.488 46.2152 12.7683 46.2245 12.7803C46.2512 12.8148 46.2949 12.8343 46.3373 12.8321L46.646 12.8136L46.5907 13.0182C46.5774 13.0675 46.5941 13.1205 46.6332 13.1536C46.652 13.1694 47.0885 13.5485 46.8229 14.0313C46.6205 14.3992 45.9665 14.5733 45.4891 14.7003C45.2759 14.7571 45.0916 14.8061 44.9721 14.8646C44.759 14.9688 44.5723 15.1446 44.4238 15.3347Z" fill="#FFD250"/>
<path d="M44.1492 15.8141C44.1499 15.8756 44.1927 15.9286 44.2527 15.9419C44.2623 15.9439 44.2717 15.945 44.2812 15.945C44.3313 15.945 44.3783 15.9165 44.4005 15.8697C44.5298 15.5978 44.7785 15.2535 45.088 15.1021C45.1846 15.0549 45.3571 15.009 45.5571 14.9559C46.0807 14.8166 46.7978 14.6258 47.0546 14.1588C47.3236 13.6695 47.0767 13.2246 46.8669 13.0104L46.9491 12.7053C46.9601 12.6641 46.9505 12.6203 46.9238 12.5875C46.8969 12.5546 46.8541 12.5356 46.8134 12.5389L46.3852 12.5646C46.2765 12.4542 45.9874 12.2226 45.5228 12.2452C44.131 12.3129 44.1479 15.6712 44.1492 15.8141ZM44.9722 14.8644C44.759 14.9687 44.5723 15.1446 44.4239 15.3344C44.4752 14.2699 44.7279 12.5482 45.5357 12.5088C45.991 12.4878 46.2153 12.768 46.2246 12.7801C46.2512 12.8146 46.295 12.8341 46.3374 12.8319L46.6461 12.8134L46.5908 13.0179C46.5775 13.0673 46.5942 13.1203 46.6333 13.1534C46.652 13.1692 47.0885 13.5483 46.8229 14.0311C46.6206 14.399 45.9666 14.5731 45.4891 14.7001C45.2761 14.7569 45.0918 14.8059 44.9722 14.8644Z" fill="#464655"/>
<path d="M44.4238 35.0143C44.4751 36.0788 44.7278 37.8005 45.5356 37.84C45.9909 37.861 46.2152 37.5807 46.2245 37.5686C46.2512 37.534 46.2949 37.5146 46.3373 37.5167L46.646 37.5353L46.5907 37.3307C46.5774 37.2814 46.5941 37.2284 46.6332 37.1953C46.652 37.1794 47.0885 36.8003 46.8229 36.3175C46.6205 35.9496 45.9665 35.7755 45.4891 35.6486C45.2759 35.5917 45.0916 35.5427 44.9721 35.4842C44.759 35.3802 44.5723 35.2043 44.4238 35.0143Z" fill="#FFD250"/>
<path d="M45.5228 38.1039C45.9874 38.1267 46.2764 37.8951 46.3852 37.7845L46.8135 37.8102C46.8541 37.8134 46.8969 37.7945 46.9238 37.7616C46.9507 37.7287 46.9601 37.6849 46.9491 37.6438L46.8669 37.3387C47.0768 37.1244 47.3237 36.6795 47.0546 36.1903C46.7979 35.7234 46.0807 35.5326 45.5571 35.3932C45.3572 35.3401 45.1846 35.2941 45.0881 35.247C44.7785 35.0956 44.5299 34.7513 44.4005 34.4794C44.3783 34.4326 44.3313 34.4041 44.2812 34.4041C44.2718 34.4041 44.2623 34.4052 44.2527 34.4072C44.1927 34.4205 44.1498 34.4735 44.1492 34.535C44.1477 34.6777 44.1309 38.036 45.5228 38.1039ZM45.4891 35.6487C45.9666 35.7757 46.6206 35.9498 46.8229 36.3177C47.0886 36.8004 46.652 37.1795 46.6333 37.1954C46.5943 37.2285 46.5776 37.2815 46.5908 37.3309L46.6461 37.5355L46.3374 37.5169C46.2949 37.5147 46.2512 37.5342 46.2246 37.5688C46.2153 37.5809 45.991 37.8611 45.5357 37.84C44.7278 37.8006 44.4752 36.0789 44.4239 35.0144C44.5725 35.2043 44.7591 35.3802 44.9723 35.4844C45.0916 35.543 45.276 35.592 45.4891 35.6487Z" fill="#464655"/>
<path d="M22.3351 35.0143C22.2838 36.0788 22.0311 37.8005 21.2233 37.84C20.768 37.861 20.5437 37.5807 20.5344 37.5686C20.5077 37.534 20.464 37.5146 20.4216 37.5167L20.1129 37.5353L20.1682 37.3307C20.1815 37.2814 20.1648 37.2284 20.1257 37.1953C20.107 37.1794 19.6704 36.8003 19.9361 36.3175C20.1384 35.9496 20.7924 35.7755 21.2699 35.6486C21.483 35.5917 21.6673 35.5427 21.7868 35.4842C21.9999 35.3802 22.1866 35.2043 22.3351 35.0143Z" fill="#FFD250"/>
<path d="M22.6098 34.5348C22.6092 34.4734 22.5663 34.4203 22.5063 34.4071C22.4968 34.405 22.4873 34.4039 22.4778 34.4039C22.4277 34.4039 22.3807 34.4324 22.3585 34.4792C22.2291 34.7511 21.9805 35.0954 21.6709 35.2468C21.5743 35.294 21.4018 35.3399 21.2018 35.393C20.6782 35.5323 19.9611 35.7232 19.7044 36.1902C19.4353 36.6794 19.6822 37.1243 19.8921 37.3385L19.8098 37.6436C19.7988 37.6848 19.8084 37.7286 19.8351 37.7615C19.862 37.7944 19.9049 37.8133 19.9455 37.81L20.3737 37.7843C20.4824 37.8948 20.7716 38.1263 21.2361 38.1037C22.6281 38.0361 22.6112 34.6778 22.6098 34.5348ZM21.7868 35.4846C22 35.3803 22.1867 35.2044 22.3351 35.0146C22.2839 36.0791 22.0311 37.8008 21.2233 37.8403C20.7681 37.8613 20.5437 37.581 20.5345 37.569C20.5078 37.5344 20.464 37.515 20.4217 37.5171L20.113 37.5357L20.1682 37.3311C20.1815 37.2818 20.1648 37.2287 20.1258 37.1956C20.107 37.1798 19.6705 36.8007 19.9361 36.3179C20.1385 35.95 20.7925 35.7759 21.2699 35.649C21.483 35.592 21.6674 35.543 21.7868 35.4846Z" fill="#464655"/>
</g>
<defs>
<clipPath id="clip0_108_47115">
<rect width="50" height="50" fill="white" transform="translate(0.621094 0.174561)"/>
</clipPath>
</defs>
</svg>
