<svg width="51" height="51" viewBox="0 0 51 51" fill="none" xmlns="http://www.w3.org/2000/svg">
<g clip-path="url(#clip0_108_47068)">
<path d="M39.4307 8.79529H11.8448V41.554H39.4307V8.79529Z" fill="#FFE15A"/>
<path d="M49.7753 41.5534H39.4306V8.79491H49.7754C50.2515 8.79491 50.6375 9.18094 50.6375 9.65701V40.6913C50.6374 41.1675 50.2514 41.5534 49.7753 41.5534Z" fill="#73AF00"/>
<path d="M1.49999 8.79491H11.8448V41.5534H1.49999C1.02391 41.5534 0.637878 41.1674 0.637878 40.6913V9.65701C0.637878 9.18094 1.02391 8.79491 1.49999 8.79491Z" fill="#4173CD"/>
<path d="M19.3783 24.7327L22.1747 30.3256L24.9712 24.7327L22.1747 19.1398L19.3783 24.7327Z" fill="#73AF00"/>
<path d="M26.3076 24.7327L29.1041 30.3256L31.9005 24.7327L29.1041 19.1398L26.3076 24.7327Z" fill="#73AF00"/>
<path d="M22.8432 31.4565L25.6396 37.0493L28.4361 31.4565L25.6396 25.8636L22.8432 31.4565Z" fill="#73AF00"/>
</g>
<defs>
<clipPath id="clip0_108_47068">
<rect width="50" height="50" fill="white" transform="translate(0.636719 0.174561)"/>
</clipPath>
</defs>
</svg>
