<svg width="51" height="51" viewBox="0 0 51 51" fill="none" xmlns="http://www.w3.org/2000/svg">
<g clip-path="url(#clip0_108_47056)">
<path d="M49.4985 41.5538H1.22283C0.746752 41.5538 0.360718 41.1678 0.360718 40.6917V9.65729C0.360718 9.18122 0.746752 8.79518 1.22283 8.79518H49.4986C49.9747 8.79518 50.3607 9.18122 50.3607 9.65729V40.6917C50.3606 41.1679 49.9746 41.5538 49.4985 41.5538Z" fill="#73AF00"/>
<path d="M50.3617 14.8299H0.361816V18.2781H50.3617V14.8299Z" fill="#F5F5F5"/>
<path d="M50.3617 32.0711H0.361816V35.5193H50.3617V32.0711Z" fill="#F5F5F5"/>
<path d="M50.3606 18.2781H0.360718V32.071H50.3606V18.2781Z" fill="#C8414B"/>
<path d="M25.1459 19.8634L23.8906 23.6272L19.9231 23.6579C19.7056 23.6596 19.6155 23.9372 19.7904 24.0664L22.9821 26.4233L21.7853 30.2062C21.7197 30.4136 21.9559 30.5852 22.1329 30.4586L25.3606 28.1515L28.5885 30.4586C28.7654 30.5851 29.0015 30.4136 28.936 30.2062L27.7392 26.4233L30.9309 24.0664C31.1059 23.9372 31.0157 23.6595 30.7982 23.6579L26.8307 23.6272L25.5755 19.8634C25.5065 19.6571 25.2147 19.6571 25.1459 19.8634Z" fill="#FFE15A"/>
</g>
<defs>
<clipPath id="clip0_108_47056">
<rect width="50" height="50" fill="white" transform="translate(0.359375 0.174561)"/>
</clipPath>
</defs>
</svg>
