<svg width="51" height="51" viewBox="0 0 51 51" fill="none" xmlns="http://www.w3.org/2000/svg">
<g clip-path="url(#clip0_108_47001)">
<path d="M0.789917 35.5192H50.7898V40.6917C50.7898 41.1677 50.4038 41.5538 49.9277 41.5538H1.65202C1.17595 41.5538 0.789917 41.1677 0.789917 40.6917V35.5192Z" fill="#4173CD"/>
<path d="M1.6516 8.79518H49.9274C50.4035 8.79518 50.7895 9.18122 50.7895 9.65729V14.8297H0.78949V9.65719C0.78949 9.18112 1.17552 8.79518 1.6516 8.79518Z" fill="#4173CD"/>
<path d="M50.7894 14.8298H0.78949V35.5192H50.7894V14.8298Z" fill="#FF4B55"/>
<path d="M50.7894 13.9675H0.78949V15.6916H50.7894V13.9675Z" fill="#FFE15A"/>
<path d="M50.7898 34.6569H0.789917V36.381H50.7898V34.6569Z" fill="#FFE15A"/>
<path d="M44.6276 26.0064H6.91644C6.66049 26.0064 6.45306 25.799 6.45306 25.5431V25.3965C6.45306 25.1405 6.66049 24.9331 6.91644 24.9331H44.6276C44.8836 24.9331 45.091 25.1405 45.091 25.3965V25.5431C45.091 25.7989 44.8836 26.0064 44.6276 26.0064Z" fill="#FFE15A"/>
<path d="M37.3094 23.8598L39.1876 23.0548L41.0658 23.8598L39.1876 24.6648L37.3094 23.8598Z" fill="#F5F5F5"/>
<path d="M37.7713 23.5169H10.2089C10.0195 23.5169 9.86603 23.6704 9.86603 23.8598C9.86603 24.0492 10.0194 24.2027 10.2089 24.2027H37.7712C37.9605 24.2027 38.114 24.0492 38.114 23.8598C38.114 23.6705 37.9605 23.5169 37.7713 23.5169Z" fill="#FFE15A"/>
<path d="M39.262 21.9816L41.1402 21.1766L43.0184 21.9816L41.1402 22.7866L39.262 21.9816Z" fill="#F5F5F5"/>
<path d="M39.7237 21.6387H12.1615C11.9721 21.6387 11.8186 21.7921 11.8186 21.9816C11.8186 22.171 11.972 22.3245 12.1615 22.3245H39.7237C39.9131 22.3245 40.0666 22.171 40.0666 21.9816C40.0666 21.7922 39.9132 21.6387 39.7237 21.6387Z" fill="#FFE15A"/>
<path d="M25.7714 18.4934C21.005 18.4934 16.8466 21.1926 14.6194 25.2014C16.8465 29.2102 21.005 31.9094 25.7714 31.9094C30.5378 31.9094 34.6962 29.2103 36.9234 25.2014C34.6963 21.1926 30.5377 18.4934 25.7714 18.4934Z" fill="#F5F5F5"/>
<path d="M14.6194 25.2014C16.8465 29.2102 21.005 31.9094 25.7714 31.9094C26.5673 31.9094 27.3443 31.8278 28.1001 31.6836C27.5231 30.4169 25.4936 30.4191 25.369 29.9417C25.2348 29.4275 27.0236 29.5393 27.3366 29.1144C27.6497 28.6896 25.6373 28.5107 25.5479 28.0859C25.4584 27.661 26.3529 27.3704 26.5094 26.6996C26.6659 26.0288 27.0237 25.8276 27.2919 25.4252C27.5603 25.0227 26.8448 24.8885 26.6659 23.5469C26.4869 22.2053 25.436 22.0264 24.9218 20.9309C24.4075 19.8353 25.2349 19.0303 25.7715 18.4937C21.005 18.4934 16.8465 21.1926 14.6194 25.2014Z" fill="#464655"/>
<path d="M19.3303 22.7868H18.7936V24.9334H19.3303V22.7868Z" fill="#F5F5F5"/>
<path d="M20.4044 22.7868H19.8678V24.9334H20.4044V22.7868Z" fill="#F5F5F5"/>
<path d="M21.4777 22.7868H20.941V24.9334H21.4777V22.7868Z" fill="#F5F5F5"/>
<path d="M22.551 22.7868H22.0143V24.9334H22.551V22.7868Z" fill="#F5F5F5"/>
<path d="M23.624 22.7868H23.0874V24.9334H23.624V22.7868Z" fill="#F5F5F5"/>
<path d="M24.6973 22.7868H24.1607V24.9334H24.6973V22.7868Z" fill="#F5F5F5"/>
<path d="M19.3303 26.0065H18.7936V28.1531H19.3303V26.0065Z" fill="#F5F5F5"/>
<path d="M20.4044 26.0065H19.8678V28.1531H20.4044V26.0065Z" fill="#F5F5F5"/>
<path d="M21.4777 26.0065H20.941V28.1531H21.4777V26.0065Z" fill="#F5F5F5"/>
<path d="M22.551 26.0065H22.0143V28.1531H22.551V26.0065Z" fill="#F5F5F5"/>
<path d="M23.624 26.0065H23.0874V28.1531H23.624V26.0065Z" fill="#F5F5F5"/>
<path d="M24.6973 26.0065H24.1607V28.1531H24.6973V26.0065Z" fill="#F5F5F5"/>
<path d="M27.3807 22.7868H26.8441V24.9334H27.3807V22.7868Z" fill="#464655"/>
<path d="M28.454 22.7868H27.9174V24.9334H28.454V22.7868Z" fill="#464655"/>
<path d="M29.527 22.7868H28.9904V24.9334H29.527V22.7868Z" fill="#464655"/>
<path d="M30.6003 22.7868H30.0637V24.9334H30.6003V22.7868Z" fill="#464655"/>
<path d="M31.6736 22.7868H31.137V24.9334H31.6736V22.7868Z" fill="#464655"/>
<path d="M32.7467 22.7868H32.2101V24.9334H32.7467V22.7868Z" fill="#464655"/>
<path d="M27.3807 26.0065H26.8441V28.1531H27.3807V26.0065Z" fill="#464655"/>
<path d="M28.454 26.0065H27.9174V28.1531H28.454V26.0065Z" fill="#464655"/>
<path d="M29.527 26.0065H28.9904V28.1531H29.527V26.0065Z" fill="#464655"/>
<path d="M30.6003 26.0065H30.0637V28.1531H30.6003V26.0065Z" fill="#464655"/>
<path d="M31.6736 26.0065H31.137V28.1531H31.6736V26.0065Z" fill="#464655"/>
<path d="M32.7467 26.0065H32.2101V28.1531H32.7467V26.0065Z" fill="#464655"/>
<path d="M42.3308 24.8493C41.901 25.8476 40.6779 25.9651 41.3557 28.51L41.7027 28.1577C41.7027 28.1577 42.0663 29.1169 42.9423 29.7629C42.9423 29.7629 44.0165 28.8624 44.0992 27.4334L44.5454 27.6292C44.5454 27.629 44.3306 25.0254 42.3308 24.8493Z" fill="#245DBD"/>
<path d="M43.9171 26.895C43.8827 26.895 43.8486 26.8791 43.8228 26.8479C43.4019 26.3402 42.8657 26.1774 42.8606 26.1757C42.7898 26.1549 42.7464 26.0698 42.764 25.986C42.7816 25.9028 42.8533 25.8508 42.9237 25.8716C42.9485 25.8789 43.536 26.0558 44.0112 26.6289C44.0624 26.6901 44.0615 26.7897 44.0098 26.8504C43.984 26.8804 43.9507 26.895 43.9171 26.895Z" fill="#FF4B55"/>
<path d="M43.6139 28.0794C43.5743 28.0794 43.535 28.0586 43.509 28.0181C43.1968 27.5373 42.8427 27.2755 42.839 27.273C42.7767 27.2278 42.7577 27.1311 42.796 27.0571C42.8345 26.9838 42.9158 26.9611 42.9781 27.0063C42.9944 27.018 43.3773 27.3018 43.7187 27.8273C43.7632 27.8959 43.7523 27.9943 43.6945 28.047C43.6705 28.0689 43.642 28.0794 43.6139 28.0794Z" fill="#FF4B55"/>
<path d="M42.9195 29.3976C42.9121 29.3976 42.9046 29.3969 42.8968 29.3952C42.8252 29.3805 42.7767 29.2997 42.7891 29.2147C42.8411 28.8562 42.7975 28.2683 42.7261 27.9649C42.7066 27.8817 42.7476 27.7954 42.8176 27.7716C42.8884 27.7489 42.9606 27.7972 42.9801 27.8805C43.0607 28.2231 43.1079 28.8625 43.049 29.2674C43.0381 29.3438 42.9823 29.3976 42.9195 29.3976Z" fill="#FF4B55"/>
<path d="M41.9894 27.9514C41.9517 27.9514 41.9143 27.9325 41.8882 27.8958C41.8412 27.8298 41.8483 27.7305 41.9039 27.675C41.9073 27.672 42.2448 27.3293 42.3329 26.8553C42.3487 26.7709 42.4187 26.7177 42.4905 26.736C42.5616 26.7544 42.607 26.8382 42.5912 26.9226C42.4832 27.5026 42.091 27.8984 42.0742 27.9149C42.0493 27.9392 42.0194 27.9514 41.9894 27.9514Z" fill="#FF4B55"/>
<path d="M41.623 26.9494C41.5785 26.9494 41.5352 26.9231 41.5102 26.8747C41.4719 26.8013 41.4913 26.7047 41.5536 26.6594C41.5586 26.6556 42.0381 26.3027 42.1868 25.9174C42.217 25.8379 42.2961 25.8029 42.3621 25.8396C42.4285 25.8758 42.4577 25.9687 42.4274 26.047C42.2449 26.5199 41.7144 26.9096 41.692 26.9261C41.6701 26.9421 41.6464 26.9494 41.623 26.9494Z" fill="#FF4B55"/>
<path d="M8.82545 25.1852C8.46617 26.02 7.44342 26.1183 8.01002 28.2462L8.30025 27.9516C8.30025 27.9516 8.60426 28.7537 9.33678 29.2939C9.33678 29.2939 10.235 28.5409 10.3042 27.3459L10.6773 27.5096C10.6773 27.5097 10.4977 25.3327 8.82545 25.1852Z" fill="#245DBD"/>
<path d="M10.1501 26.8959C10.1213 26.8959 10.0929 26.8826 10.0713 26.8564C9.71936 26.4318 9.27112 26.2958 9.26672 26.2942C9.20754 26.2768 9.17122 26.2058 9.18606 26.1356C9.20071 26.066 9.26077 26.0226 9.31965 26.0399C9.34036 26.0461 9.83157 26.1939 10.2289 26.6732C10.2717 26.7244 10.271 26.8077 10.2277 26.8584C10.2061 26.8836 10.1781 26.8959 10.1501 26.8959Z" fill="#FF4B55"/>
<path d="M9.89659 27.8861C9.86348 27.8861 9.83077 27.8687 9.80889 27.835C9.54776 27.4329 9.25176 27.214 9.24874 27.2119C9.19669 27.1741 9.18077 27.0933 9.21261 27.0313C9.24483 26.9699 9.3128 26.9511 9.36485 26.9889C9.37843 26.9985 9.69864 27.2359 9.98419 27.6754C10.0214 27.7327 10.0123 27.815 9.96397 27.859C9.94386 27.8774 9.92003 27.8861 9.89659 27.8861Z" fill="#FF4B55"/>
<path d="M9.31608 28.9886C9.30984 28.9886 9.30361 28.988 9.29718 28.9865C9.23728 28.9742 9.19676 28.9066 9.20708 28.8356C9.25062 28.5358 9.21419 28.0442 9.15448 27.7906C9.13812 27.721 9.17231 27.6489 9.23094 27.629C9.29017 27.61 9.35046 27.6505 9.36682 27.72C9.43423 28.0064 9.47368 28.541 9.42459 28.8797C9.41533 28.9434 9.36858 28.9886 9.31608 28.9886Z" fill="#FF4B55"/>
<path d="M8.5381 27.7793C8.50656 27.7793 8.47531 27.7635 8.45343 27.7327C8.41408 27.6774 8.41994 27.5945 8.46662 27.5481C8.46945 27.5455 8.75167 27.2591 8.82521 26.8626C8.83839 26.792 8.89689 26.7476 8.95685 26.7628C9.01642 26.7781 9.05431 26.8483 9.04113 26.9189C8.9508 27.4038 8.62277 27.7348 8.6088 27.7486C8.5882 27.769 8.5632 27.7793 8.5381 27.7793Z" fill="#FF4B55"/>
<path d="M8.23188 26.9413C8.19467 26.9413 8.15854 26.9193 8.13744 26.8789C8.10541 26.8175 8.12172 26.7366 8.17377 26.6988C8.17787 26.6958 8.57885 26.4006 8.70326 26.0783C8.72846 26.0118 8.79467 25.9826 8.84994 26.0134C8.90541 26.0435 8.92982 26.1214 8.90453 26.1867C8.7518 26.5821 8.30834 26.9079 8.28959 26.9218C8.27143 26.9351 8.2515 26.9413 8.23188 26.9413Z" fill="#FF4B55"/>
</g>
<defs>
<clipPath id="clip0_108_47001">
<rect width="50" height="50" fill="white" transform="translate(0.789062 0.174561)"/>
</clipPath>
</defs>
</svg>
