<svg width="51" height="51" viewBox="0 0 51 51" fill="none" xmlns="http://www.w3.org/2000/svg">
<g clip-path="url(#clip0_108_46995)">
<path d="M49.6502 41.5538H1.37447C0.898394 41.5538 0.51236 41.1678 0.51236 40.6917V9.65729C0.51236 9.18122 0.898394 8.79518 1.37447 8.79518H49.6503C50.1263 8.79518 50.5124 9.18122 50.5124 9.65729V40.6917C50.5123 41.1679 50.1262 41.5538 49.6502 41.5538Z" fill="#FF4B55"/>
<path d="M34.995 21.7263H28.9605V15.6919C28.9605 15.2158 28.5745 14.8298 28.0984 14.8298H22.926C22.4499 14.8298 22.0639 15.2158 22.0639 15.6919V21.7263H16.0294C15.5533 21.7263 15.1673 22.1124 15.1673 22.5884V27.7609C15.1673 28.237 15.5533 28.623 16.0294 28.623H22.0639V34.6575C22.0639 35.1335 22.4499 35.5196 22.926 35.5196H28.0984C28.5745 35.5196 28.9605 35.1335 28.9605 34.6575V28.6228H34.995C35.4711 28.6228 35.8571 28.2368 35.8571 27.7607V22.5882C35.8571 22.1123 35.4711 21.7263 34.995 21.7263Z" fill="#F5F5F5"/>
</g>
<defs>
<clipPath id="clip0_108_46995">
<rect width="50" height="50" fill="white" transform="translate(0.511719 0.174561)"/>
</clipPath>
</defs>
</svg>
