<svg width="51" height="51" viewBox="0 0 51 51" fill="none" xmlns="http://www.w3.org/2000/svg">
<g clip-path="url(#clip0_108_46988)">
<path d="M50.8063 19.7148H0.806366V9.65729C0.806366 9.18122 1.1924 8.79518 1.66847 8.79518H49.9443C50.4203 8.79518 50.8064 9.18122 50.8064 9.65729L50.8063 19.7148Z" fill="#FF4B55"/>
<path d="M49.9442 41.5538H1.66847C1.1924 41.5538 0.806366 41.1678 0.806366 40.6917V30.6343H50.8063V40.6917C50.8063 41.1679 50.4202 41.5538 49.9442 41.5538Z" fill="#464655"/>
<path d="M50.8063 19.7146H0.806366V30.6335H50.8063V19.7146Z" fill="#F5F5F5"/>
<path d="M15.4575 21.9826L16.1762 24.1377L18.4479 24.1552C18.7419 24.1575 18.8639 24.5328 18.6273 24.7076L16.7998 26.0572L17.4851 28.2231C17.5738 28.5035 17.2545 28.7355 17.0153 28.5645L15.1671 27.2435L13.319 28.5645C13.0796 28.7355 12.7605 28.5035 12.8492 28.2231L13.5344 26.0572L11.707 24.7076C11.4704 24.5329 11.5923 24.1575 11.8864 24.1552L14.158 24.1377L14.8768 21.9826C14.9698 21.7036 15.3644 21.7036 15.4575 21.9826Z" fill="#73AF00"/>
<path d="M36.7354 21.9825L37.4542 24.1376L39.7259 24.1551C40.0199 24.1574 40.1419 24.5327 39.9053 24.7075L38.0778 26.0571L38.7631 28.223C38.8517 28.5034 38.5325 28.7354 38.2932 28.5644L36.4451 27.2434L34.597 28.5644C34.3576 28.7354 34.0384 28.5034 34.1271 28.223L34.8124 26.0571L32.985 24.7075C32.7483 24.5328 32.8703 24.1574 33.1644 24.1551L35.436 24.1376L36.1548 21.9825C36.2477 21.7035 36.6424 21.7035 36.7354 21.9825Z" fill="#73AF00"/>
</g>
<defs>
<clipPath id="clip0_108_46988">
<rect width="50" height="50" fill="white" transform="translate(0.804688 0.174561)"/>
</clipPath>
</defs>
</svg>
