<svg width="51" height="51" viewBox="0 0 51 51" fill="none" xmlns="http://www.w3.org/2000/svg">
<g clip-path="url(#clip0_108_46979)">
<path d="M49.7588 41.9819H1.48308C1.00701 41.9819 0.620972 41.5959 0.620972 41.1198V10.0854C0.620972 9.6093 1.00701 9.22327 1.48308 9.22327H49.7589C50.2349 9.22327 50.621 9.6093 50.621 10.0854V41.1198C50.6209 41.596 50.2348 41.9819 49.7588 41.9819Z" fill="#FF4B55"/>
<path d="M1.48308 9.22339H24.7589C25.235 9.22339 25.621 9.60942 25.621 10.0855V24.7406C25.621 25.2167 25.235 25.6028 24.7589 25.6028H1.48308C1.00701 25.6027 0.620972 25.2166 0.620972 24.7405V10.0854C0.620972 9.60933 1.00701 9.22339 1.48308 9.22339Z" fill="#41479B"/>
<path d="M10.0349 17.4131C10.0349 16.5613 10.38 15.7903 10.9381 15.232L8.35271 14.4924C8.20261 14.4495 8.09509 14.6359 8.2072 14.7444L10.1419 16.615L7.53113 17.2677C7.37976 17.3055 7.37976 17.5207 7.53113 17.5586L10.1419 18.2113L8.2072 20.0819C8.09499 20.1904 8.20261 20.3768 8.35271 20.3339L10.9381 19.5943C10.38 19.036 10.0349 18.2649 10.0349 17.4131Z" fill="#F5F5F5"/>
<path d="M10.9392 15.2306C11.4975 14.6726 12.2686 14.3274 13.1203 14.3274C13.9721 14.3274 14.7432 14.6726 15.3015 15.2306L16.041 12.6452C16.0839 12.4951 15.8976 12.3876 15.7891 12.4997L13.9185 14.4343L13.2657 11.8235C13.2279 11.6722 13.0127 11.6722 12.9748 11.8235L12.3221 14.4343L10.4515 12.4997C10.343 12.3875 10.1567 12.4951 10.1995 12.6452L10.9392 15.2306Z" fill="#F5F5F5"/>
<path d="M15.302 19.5956C14.7437 20.1536 13.9726 20.4987 13.1208 20.4987C12.2691 20.4987 11.498 20.1536 10.9397 19.5956L10.2001 22.181C10.1573 22.3311 10.3436 22.4386 10.4521 22.3265L12.3227 20.3919L12.9754 23.0026C13.0132 23.154 13.2285 23.154 13.2663 23.0026L13.9191 20.3919L15.7897 22.3265C15.8982 22.4387 16.0845 22.3311 16.0416 22.181L15.302 19.5956Z" fill="#F5F5F5"/>
<path d="M18.7101 17.2676L16.0994 16.6148L18.034 14.7442C18.1462 14.6357 18.0385 14.4494 17.8884 14.4923L15.3031 15.2318C15.8611 15.7901 16.2062 16.5612 16.2062 17.413C16.2062 18.2647 15.8611 19.0358 15.3031 19.5941L17.8884 20.3337C18.0385 20.3766 18.1461 20.1902 18.034 20.0817L16.0994 18.2111L18.7101 17.5584C18.8616 17.5207 18.8616 17.3056 18.7101 17.2676Z" fill="#F5F5F5"/>
<path d="M13.1205 19.8703C14.4775 19.8703 15.5775 18.7702 15.5775 17.4133C15.5775 16.0563 14.4775 14.9562 13.1205 14.9562C11.7635 14.9562 10.6635 16.0563 10.6635 17.4133C10.6635 18.7702 11.7635 19.8703 13.1205 19.8703Z" fill="#F5F5F5"/>
</g>
<defs>
<clipPath id="clip0_108_46979">
<rect width="50" height="50" fill="white" transform="translate(0.621094 0.602539)"/>
</clipPath>
</defs>
</svg>
