<svg width="51" height="51" viewBox="0 0 51 51" fill="none" xmlns="http://www.w3.org/2000/svg">
<g clip-path="url(#clip0_108_46957)">
<path d="M0.343811 34.2233V10.0853C0.343811 9.60924 0.729846 9.22321 1.20592 9.22321H38.2749L0.343811 34.2233Z" fill="#73AF00"/>
<path d="M50.3441 16.9819V41.1198C50.3441 41.5958 49.958 41.9819 49.482 41.9819H12.413L50.3441 16.9819Z" fill="#4173CD"/>
<path d="M50.3438 17.468V10.0853C50.3438 9.60924 49.9578 9.22321 49.4817 9.22321H37.7597L0.343811 33.7372V41.1198C0.343811 41.5959 0.729846 41.9819 1.20592 41.9819H12.9279L50.3438 17.468Z" fill="#FFE15A"/>
<path d="M50.3438 14.3767V10.0853C50.3438 9.60924 49.9578 9.22321 49.4817 9.22321H42.478L0.343811 36.8285V41.1199C0.343811 41.596 0.729846 41.982 1.20592 41.982H8.20963L50.3438 14.3767Z" fill="#464655"/>
</g>
<defs>
<clipPath id="clip0_108_46957">
<rect width="50" height="50" fill="white" transform="translate(0.34375 0.602539)"/>
</clipPath>
</defs>
</svg>
