<svg width="51" height="51" viewBox="0 0 51 51" fill="none" xmlns="http://www.w3.org/2000/svg">
<g clip-path="url(#clip0_108_46777)">
<path d="M49.9273 41.9818H1.6516C1.17552 41.9818 0.78949 41.5958 0.78949 41.1197V10.0854C0.78949 9.6093 1.17552 9.22327 1.6516 9.22327H49.9274C50.4035 9.22327 50.7895 9.6093 50.7895 10.0854V41.1197C50.7894 41.5959 50.4034 41.9818 49.9273 41.9818Z" fill="#41479B"/>
<path d="M47.3397 36.8094H12.8571C12.381 36.8094 11.995 36.4234 11.995 35.9473C11.995 35.4712 12.381 35.0852 12.8571 35.0852H47.3397L48.2019 35.9473L47.3397 36.8094Z" fill="#FFE15A"/>
<path d="M47.7708 34.2232H12.8572C12.8572 34.2232 26.6503 18.7061 39.5813 15.2578C39.5813 15.2578 35.271 26.4647 45.6158 33.3612H47.7709C48.009 33.3612 48.202 33.5542 48.202 33.7923C48.2019 34.0302 48.009 34.2232 47.7708 34.2232Z" fill="#FFE15A"/>
<path d="M11.3514 29.2327L11.6859 30.2357L12.7431 30.2439C12.8799 30.245 12.9368 30.4197 12.8266 30.5009L11.9761 31.129L12.2951 32.1371C12.3364 32.2675 12.1877 32.3755 12.0764 32.2958L11.2162 31.6811L10.3561 32.2958C10.2448 32.3754 10.0961 32.2675 10.1374 32.1371L10.4564 31.129L9.6059 30.5009C9.49574 30.4196 9.55258 30.2449 9.6894 30.2439L10.7466 30.2357L11.0811 29.2327C11.1244 29.1028 11.308 29.1028 11.3514 29.2327Z" fill="#F5F5F5"/>
<path d="M11.3257 15.4434L11.597 16.257L12.4547 16.2637C12.5658 16.2646 12.6118 16.4063 12.5225 16.4722L11.8325 16.9817L12.0912 17.7995C12.1247 17.9055 12.0041 17.993 11.9139 17.9284L11.216 17.4296L10.5182 17.9284C10.4278 17.993 10.3073 17.9054 10.3408 17.7995L10.5995 16.9817L9.90959 16.4722C9.82023 16.4063 9.86623 16.2646 9.97736 16.2637L10.8351 16.257L11.1064 15.4434C11.1416 15.3381 11.2906 15.3381 11.3257 15.4434Z" fill="#F5F5F5"/>
<path d="M4.82759 20.4785L5.09888 21.2922L5.95659 21.2988C6.06773 21.2997 6.11372 21.4414 6.02437 21.5073L5.33443 22.0169L5.59312 22.8347C5.62661 22.9406 5.50601 23.0281 5.41577 22.9636L4.71792 22.4647L4.02007 22.9636C3.92974 23.0281 3.80923 22.9405 3.84273 22.8347L4.10142 22.0169L3.41148 21.5073C3.32213 21.4414 3.36812 21.2997 3.47925 21.2988L4.33697 21.2922L4.60826 20.4785C4.64351 20.3731 4.79253 20.3731 4.82759 20.4785Z" fill="#F5F5F5"/>
<path d="M15.9731 20.1353L16.1818 20.7615L16.8419 20.7666C16.9274 20.7673 16.9628 20.8762 16.8941 20.927L16.363 21.3191L16.5621 21.9484C16.5879 22.0299 16.4951 22.0973 16.4256 22.0475L15.8887 21.6637L15.3518 22.0475C15.2822 22.0972 15.1895 22.0299 15.2152 21.9484L15.4144 21.3191L14.8833 20.927C14.8146 20.8762 14.85 20.7673 14.9355 20.7666L15.5955 20.7615L15.8043 20.1353C15.8314 20.0542 15.946 20.0542 15.9731 20.1353Z" fill="#F5F5F5"/>
</g>
<defs>
<clipPath id="clip0_108_46777">
<rect width="50" height="50" fill="white" transform="translate(0.789062 0.602539)"/>
</clipPath>
</defs>
</svg>
