<svg width="51" height="51" viewBox="0 0 51 51" fill="none" xmlns="http://www.w3.org/2000/svg">
<g clip-path="url(#clip0_108_46773)">
<path d="M49.2214 41.9818H0.945665C0.469592 41.9818 0.0835571 41.5958 0.0835571 41.1197V10.0854C0.0835571 9.6093 0.469592 9.22327 0.945665 9.22327H49.2215C49.6975 9.22327 50.0836 9.6093 50.0836 10.0854V41.1197C50.0835 41.5959 49.6974 41.9818 49.2214 41.9818Z" fill="#FF4B55"/>
<path d="M19.049 25.6025H0.945665C0.469592 25.6025 0.0835571 25.2165 0.0835571 24.7404V10.0854C0.0835571 9.6093 0.469592 9.22327 0.945665 9.22327H19.049C19.5251 9.22327 19.9112 9.6093 19.9112 10.0854V24.7405C19.9111 25.2167 19.525 25.6025 19.049 25.6025Z" fill="#F5F5F5"/>
<path d="M16.4628 15.2577H12.1525V10.9474H7.84214V15.2577H3.5318V19.568H7.84214V23.8784H12.1525V19.568H16.4628V15.2577Z" fill="#FF4B55"/>
</g>
<defs>
<clipPath id="clip0_108_46773">
<rect width="50" height="50" fill="white" transform="translate(0.0820312 0.602539)"/>
</clipPath>
</defs>
</svg>
