<svg width="51" height="51" viewBox="0 0 51 51" fill="none" xmlns="http://www.w3.org/2000/svg">
<g clip-path="url(#clip0_108_46764)">
<path d="M49.9442 41.9819H1.66847C1.1924 41.9819 0.806366 41.5959 0.806366 41.1198V10.0854C0.806366 9.6093 1.1924 9.22327 1.66847 9.22327H49.9443C50.4203 9.22327 50.8064 9.6093 50.8064 10.0854V41.1198C50.8063 41.596 50.4202 41.9819 49.9442 41.9819Z" fill="#FF4B55"/>
<path d="M1.66961 9.22333C1.4365 9.22333 1.22674 9.31776 1.07156 9.46805L36.1524 41.9819H38.7386L3.39373 9.22333H1.66961Z" fill="#F5F5F5"/>
<path d="M15.4624 9.22333H12.8761L48.2209 41.9819H49.945C50.1781 41.9819 50.3879 41.8874 50.543 41.7371L15.4624 9.22333Z" fill="#F5F5F5"/>
<path d="M3.39249 9.22339L38.7372 41.9819H48.2199L12.8752 9.22339H3.39249Z" fill="#464655"/>
</g>
<defs>
<clipPath id="clip0_108_46764">
<rect width="50" height="50" fill="white" transform="translate(0.804688 0.602539)"/>
</clipPath>
</defs>
</svg>
