<svg width="51" height="51" viewBox="0 0 51 51" fill="none" xmlns="http://www.w3.org/2000/svg">
<g clip-path="url(#clip0_108_46703)">
<path d="M49.4816 41.4093H1.20592C0.729845 41.4093 0.343811 41.0233 0.343811 40.5472V9.51289C0.343811 9.03682 0.729845 8.65079 1.20592 8.65079H49.4817C49.9578 8.65079 50.3438 9.03682 50.3438 9.51289V40.5472C50.3437 41.0235 49.9577 41.4093 49.4816 41.4093Z" fill="#73AF00"/>
<path d="M15.8613 8.65125H7.24023V41.41H15.8613V8.65125Z" fill="#FF4B55"/>
<path d="M14.9991 12.3864L13.275 13.8233H9.82666L8.10254 12.3864V10.9496L9.82666 9.51291H13.275L14.9991 10.9496V12.3864Z" fill="#F5F5F5"/>
<path d="M15.0001 24.4554L13.276 25.8923H9.82769L8.10358 24.4554V23.0187L9.82769 21.5819H13.276L15.0001 23.0187V24.4554Z" fill="#73AF00"/>
<path d="M14.9997 18.4209L13.2756 19.8577H9.82727L8.10315 18.4209V16.9842L9.82727 15.5474H13.2756L14.9997 16.9842V18.4209Z" fill="#73AF00"/>
<path d="M15.0001 30.4899L13.276 31.9267H9.82769L8.10358 30.4899V29.0532L9.82769 27.6163H13.276L15.0001 29.0532V30.4899Z" fill="#73AF00"/>
<path d="M7.24188 12.9611L8.966 14.6852L7.24188 16.4094V12.9611Z" fill="#FFB400"/>
<path d="M15.8624 16.4094L14.1383 14.6852L15.8624 12.9611V16.4094Z" fill="#FFB400"/>
<path d="M7.24188 18.9956L8.966 20.7197L7.24188 22.4438V18.9956Z" fill="#FFB400"/>
<path d="M15.8624 22.4438L14.1383 20.7197L15.8624 18.9956V22.4438Z" fill="#FFB400"/>
<path d="M7.24188 25.0301L8.966 26.7542L7.24188 28.4783V25.0301Z" fill="#FFB400"/>
<path d="M15.8624 28.4783L14.1383 26.7542L15.8624 25.0301V28.4783Z" fill="#FFB400"/>
<path d="M7.24188 31.0645L8.966 32.7887L7.24188 34.5128V31.0645Z" fill="#FFB400"/>
<path d="M15.8624 34.5128L14.1383 32.7887L15.8624 31.0645V34.5128Z" fill="#FFB400"/>
<path d="M7.24188 8.65079H8.966L7.24188 10.3749V8.65079Z" fill="#FFB400"/>
<path d="M15.8624 10.3749L14.1383 8.65079H15.8624V10.3749Z" fill="#FFB400"/>
<path d="M11.9827 15.5476H11.1205V19.8582H11.9827V15.5476Z" fill="#FFB400"/>
<path d="M13.2742 17.2713H9.82599V18.1334H13.2742V17.2713Z" fill="#FF4B55"/>
<path d="M14.1379 16.2658L13.2759 15.5474V19.8578L14.1379 19.1393V16.2658Z" fill="#FFB400"/>
<path d="M8.96588 19.1393L9.82789 19.8577V15.5475L8.96588 16.2657V19.1393Z" fill="#FFB400"/>
<path d="M11.5519 9.51294H9.82785L8.10364 10.9497V11.6681H11.5519V9.51294Z" fill="#FFB400"/>
<path d="M11.5518 13.8233H13.276L15.0002 12.3865V11.6681H11.5518V13.8233Z" fill="#FFB400"/>
<path d="M11.5507 12.9612L9.82654 11.6732L11.5507 10.3749L13.2749 11.6732L11.5507 12.9612Z" fill="#FF4B55"/>
<path d="M11.5499 12.9612L13.2741 11.6732L13.2673 11.6681H11.5499V12.9612Z" fill="#73AF00"/>
<path d="M11.5508 11.6681V10.3749L9.83356 11.6681H11.5508Z" fill="#73AF00"/>
<path d="M13.2742 22.4442H9.82599V25.0304H13.2742V22.4442Z" fill="#FF4B55"/>
<path d="M14.1363 23.3055H13.2742V24.1676H14.1363V23.3055Z" fill="#FFB400"/>
<path d="M11.9814 23.3055H11.1193V24.1676H11.9814V23.3055Z" fill="#F5F5F5"/>
<path d="M11.9814 28.4783H11.1193V29.3404H11.9814V28.4783Z" fill="#FF4B55"/>
<path d="M13.2743 29.3406H12.4122V30.2027H13.2743V29.3406Z" fill="#FFB400"/>
<path d="M10.6881 29.3407H9.82599V30.2028H10.6881V29.3407Z" fill="#FFB400"/>
<path d="M11.9814 30.2019H11.1193V31.064H11.9814V30.2019Z" fill="#FF4B55"/>
<path d="M9.82689 23.3055H8.96478V24.1676H9.82689V23.3055Z" fill="#FFB400"/>
<path d="M14.9991 36.5243L13.275 37.9611H9.82666L8.10254 36.5243V35.0877L9.82666 33.6508H13.275L14.9991 35.0877V36.5243Z" fill="#F5F5F5"/>
<path d="M11.5519 33.6507H9.82785L8.10364 35.0875V35.8059H11.5519V33.6507Z" fill="#FFB400"/>
<path d="M11.5518 37.9611H13.276L15.0002 36.5242V35.8059H11.5518V37.9611Z" fill="#FFB400"/>
<path d="M13.2749 36.2369L11.5507 37.099L9.82654 36.2369V35.3749L11.5507 34.5128L13.2749 35.3749V36.2369Z" fill="#FF4B55"/>
<path d="M27.6878 13.345C27.596 13.2999 27.5129 13.4193 27.5874 13.4895C28.563 14.4101 29.1795 15.703 29.1795 17.1451C29.1795 19.9778 26.9025 22.2504 24.1027 22.2504C23.5859 22.2504 23.0882 22.1699 22.6186 22.0231C22.5214 21.9927 22.4584 22.1232 22.5422 22.1814C23.3607 22.7504 24.3473 23.0906 25.4244 23.0906C28.2612 23.0906 30.5794 20.8176 30.5794 17.9438C30.5793 15.9241 29.3938 14.1837 27.6878 13.345Z" fill="#F5F5F5"/>
<path d="M20.6723 16.6711L20.4615 17.2677L20.9576 17.6604C21.0218 17.7112 20.9844 17.8146 20.9025 17.8124L20.27 17.7961L20.0499 18.3893C20.0214 18.4661 19.9115 18.4624 19.8883 18.3839L19.7083 17.7773L19.076 17.7513C18.9941 17.7479 18.9637 17.6423 19.0312 17.5959L19.5525 17.2373L19.3819 16.6279C19.3598 16.549 19.4508 16.4874 19.5159 16.5373L20.018 16.9223L20.5449 16.5717C20.6129 16.5263 20.6996 16.5938 20.6723 16.6711Z" fill="#F5F5F5"/>
<path d="M23.234 17.965L23.0232 18.5616L23.5193 18.9543C23.5835 19.0052 23.5461 19.1085 23.4642 19.1063L22.8317 19.09L22.6116 19.6832C22.5831 19.7601 22.4732 19.7563 22.45 19.6778L22.27 19.0713L21.6377 19.0452C21.5558 19.0419 21.5254 18.9362 21.5929 18.8898L22.1142 18.5312L21.9436 17.9219C21.9215 17.843 22.0126 17.7813 22.0776 17.8313L22.5797 18.2162L23.1066 17.8656C23.1747 17.8203 23.2613 17.8879 23.234 17.965Z" fill="#F5F5F5"/>
<path d="M23.2084 15.2995L22.9976 15.8961L23.4937 16.2888C23.5579 16.3396 23.5205 16.443 23.4386 16.4408L22.8061 16.4245L22.5859 17.0177C22.5574 17.0945 22.4476 17.0908 22.4243 17.0123L22.2443 16.4058L21.6121 16.3797C21.5302 16.3764 21.4998 16.2707 21.5673 16.2243L22.0886 15.8657L21.918 15.2563C21.8959 15.1774 21.9869 15.1158 22.052 15.1657L22.5541 15.5507L23.081 15.2001C23.149 15.1548 23.2357 15.2224 23.2084 15.2995Z" fill="#F5F5F5"/>
<path d="M23.2955 12.7268L23.0847 13.3234L23.5807 13.716C23.645 13.7669 23.6076 13.8702 23.5257 13.8681L22.8932 13.8518L22.673 14.4449C22.6445 14.5218 22.5347 14.5181 22.5114 14.4396L22.3314 13.833L21.6992 13.807C21.6173 13.8036 21.5869 13.698 21.6544 13.6516L22.1757 13.293L22.0051 12.6836C21.983 12.6047 22.074 12.5431 22.1391 12.593L22.6412 12.978L23.1681 12.6274C23.236 12.582 23.3227 12.6495 23.2955 12.7268Z" fill="#F5F5F5"/>
<path d="M25.8059 14.0207L25.5951 14.6173L26.0912 15.01C26.1554 15.0609 26.118 15.1642 26.0361 15.162L25.4036 15.1457L25.1835 15.7389C25.155 15.8158 25.0451 15.812 25.0219 15.7335L24.8419 15.127L24.2096 15.1009C24.1277 15.0976 24.0973 14.9919 24.1648 14.9455L24.6861 14.5869L24.5155 13.9776C24.4934 13.8987 24.5845 13.837 24.6495 13.8869L25.1516 14.2719L25.6785 13.9213C25.7465 13.8759 25.8332 13.9435 25.8059 14.0207Z" fill="#F5F5F5"/>
</g>
<defs>
<clipPath id="clip0_108_46703">
<rect width="50" height="50" fill="white" transform="translate(0.34375 0.0305176)"/>
</clipPath>
</defs>
</svg>
