<svg width="51" height="51" viewBox="0 0 51 51" fill="none" xmlns="http://www.w3.org/2000/svg">
<g clip-path="url(#clip0_108_46665)">
<path d="M49.2044 41.4098H0.928758C0.452685 41.4098 0.0666504 41.0237 0.0666504 40.5477V9.51323C0.0666504 9.03716 0.452685 8.65112 0.928758 8.65112H49.2045C49.6806 8.65112 50.0667 9.03716 50.0667 9.51323V40.5477C50.0666 41.0238 49.6805 41.4098 49.2044 41.4098Z" fill="#82AFFF"/>
<path d="M24.2045 25.0305H0.928758C0.452685 25.0305 0.0666504 24.6445 0.0666504 24.1684V9.51323C0.0666504 9.03716 0.452685 8.65112 0.928758 8.65112H24.2046C24.6807 8.65112 25.0667 9.03716 25.0667 9.51323V24.1684C25.0666 24.6445 24.6806 25.0305 24.2045 25.0305Z" fill="#41479B"/>
<path d="M24.2045 8.65125H22.707L14.7217 13.8831V8.65125H10.4114V13.8831L2.42602 8.65125H0.928758C0.452685 8.65125 0.0666504 9.03718 0.0666504 9.51325V10.197L6.91771 14.6856H0.0666504V18.996H6.91771L0.0666504 23.4846V24.1684C0.0666504 24.6445 0.452685 25.0305 0.928758 25.0305H2.42622L10.4116 19.7987V25.0305H14.7219V19.7987L22.7071 25.0305H24.2046C24.6807 25.0305 25.0667 24.6445 25.0667 24.1684V23.4846L18.2156 18.996H25.0666V14.6857H18.2155L25.0666 10.1971V9.51335C25.0666 9.03718 24.6806 8.65125 24.2045 8.65125Z" fill="#F5F5F5"/>
<path d="M25.0672 15.5478H13.8602V8.65125H11.2741V15.5478H0.0671997V18.1339H11.2741V25.0305H13.8602V18.1339H25.0672V15.5478Z" fill="#FF4B55"/>
<path d="M9.54965 14.6856L0.477795 8.79688C0.236389 8.94961 0.0669556 9.20635 0.0669556 9.51318V9.55791L7.96626 14.6856H9.54965Z" fill="#FF4B55"/>
<path d="M16.3053 14.6857L24.9356 9.08354C24.7856 8.82973 24.5209 8.65121 24.2046 8.65121H24.0182L14.7219 14.6857H16.3053Z" fill="#FF4B55"/>
<path d="M8.80455 18.996L0.190796 24.5874C0.339331 24.8473 0.60808 25.0304 0.928978 25.0304H1.09158L10.388 18.996H8.80455Z" fill="#FF4B55"/>
<path d="M25.0533 24.236L16.9804 18.996H15.397L24.5644 24.9466C24.839 24.8192 25.0274 24.5521 25.0533 24.236Z" fill="#FF4B55"/>
<path d="M21.419 34.5385L20.9575 35.9222L19.4989 35.9335C19.359 35.9346 19.301 36.1131 19.4135 36.1962L20.5869 37.0627L20.1469 38.4534C20.1047 38.5868 20.2566 38.6971 20.3705 38.6158L21.5572 37.7677L22.7439 38.6158C22.8577 38.6972 23.0095 38.5868 22.9674 38.4534L22.5275 37.0627L23.7008 36.1962C23.8133 36.1131 23.7553 35.9346 23.6155 35.9335L22.1569 35.9222L21.6954 34.5385C21.651 34.4057 21.4632 34.4057 21.419 34.5385Z" fill="#FFE15A"/>
<path d="M43.8866 23.7626L43.4251 25.1463L41.9665 25.1576C41.8266 25.1587 41.7686 25.3372 41.8811 25.4203L43.0545 26.2868L42.6145 27.6776C42.5722 27.811 42.7242 27.9212 42.8381 27.84L44.0248 26.9918L45.2115 27.84C45.3253 27.9213 45.4771 27.811 45.435 27.6776L44.9951 26.2868L46.1684 25.4203C46.2809 25.3372 46.2229 25.1587 46.0831 25.1576L44.6245 25.1463L44.163 23.7626C44.1186 23.6298 43.9308 23.6298 43.8866 23.7626Z" fill="#FFE15A"/>
<path d="M43.8866 12.1247L43.4251 13.5084L41.9665 13.5197C41.8266 13.5208 41.7686 13.6993 41.8811 13.7824L43.0545 14.6489L42.6145 16.0397C42.5722 16.1731 42.7242 16.2833 42.8381 16.2021L44.0248 15.3539L45.2115 16.2021C45.3253 16.2834 45.4771 16.1731 45.435 16.0397L44.9951 14.6489L46.1684 13.7824C46.2809 13.6993 46.2229 13.5208 46.0831 13.5197L44.6245 13.5084L44.163 12.1247C44.1186 11.9919 43.9308 11.9919 43.8866 12.1247Z" fill="#FFE15A"/>
<path d="M27.1948 27.2585L27.6504 28.6441L26.4868 29.5237C26.3753 29.6081 26.4352 29.7859 26.5751 29.7854L28.0337 29.7803L28.5108 31.1588C28.5566 31.291 28.7442 31.2888 28.7869 31.1556L29.2328 29.7668L30.6912 29.739C30.8311 29.7363 30.887 29.5572 30.7737 29.4755L29.5905 28.6221L30.0149 27.2265C30.0556 27.0927 29.9025 26.9841 29.7897 27.0668L28.6126 27.9283L27.4165 27.0935C27.3017 27.0136 27.1511 27.1256 27.1948 27.2585Z" fill="#FFE15A"/>
<path d="M27.0871 33.239L27.5427 34.6247L26.3791 35.5043C26.2676 35.5886 26.3275 35.7665 26.4674 35.766L27.926 35.7609L28.403 37.1393C28.4488 37.2715 28.6364 37.2694 28.6792 37.1362L29.1251 35.7473L30.5835 35.7196C30.7233 35.7169 30.7793 35.5378 30.6659 35.456L29.4828 34.6027L29.9071 33.2071C29.9479 33.0733 29.7947 32.9646 29.6819 33.0473L28.5049 33.9089L27.3088 33.0741C27.1941 32.9941 27.0434 33.1062 27.0871 33.239Z" fill="#FFE15A"/>
<path d="M33.391 31.7304L33.8465 33.1161L32.6829 33.9957C32.5714 34.08 32.6313 34.2579 32.7712 34.2574L34.2298 34.2523L34.7069 35.6307C34.7527 35.7629 34.9403 35.7608 34.983 35.6276L35.4289 34.2387L36.8873 34.211C37.0272 34.2083 37.0831 34.0292 36.9698 33.9474L35.7867 33.0942L36.211 31.6986C36.2517 31.5647 36.0986 31.4561 35.9858 31.5388L34.8087 32.4004L33.6126 31.5656C33.4979 31.4855 33.3472 31.5976 33.391 31.7304Z" fill="#FFE15A"/>
<path d="M33.2833 18.6917L33.7389 20.0773L32.5753 20.9569C32.4638 21.0413 32.5236 21.2191 32.6636 21.2186L34.1222 21.2136L34.5992 22.592C34.645 22.7242 34.8326 22.7221 34.8754 22.5889L35.3213 21.2L36.7797 21.1723C36.9195 21.1695 36.9755 20.9904 36.8621 20.9087L35.679 20.0555L36.1033 18.6599C36.144 18.5261 35.9909 18.4174 35.8781 18.5001L34.7011 19.3616L33.505 18.5269C33.3901 18.4468 33.2395 18.5588 33.2833 18.6917Z" fill="#FFE15A"/>
<path d="M38.6172 16.9137L39.0727 18.2993L37.9091 19.1789C37.7976 19.2633 37.8575 19.4411 37.9974 19.4406L39.456 19.4355L39.9331 20.8139C39.9789 20.9462 40.1665 20.944 40.2092 20.8108L40.6551 19.4219L42.1135 19.3942C42.2534 19.3915 42.3093 19.2124 42.196 19.1306L41.0128 18.2773L41.4372 16.8817C41.4779 16.7479 41.3248 16.6392 41.212 16.722L40.0349 17.5835L38.8388 16.7487C38.7241 16.6687 38.5734 16.7807 38.6172 16.9137Z" fill="#FFE15A"/>
</g>
<defs>
<clipPath id="clip0_108_46665">
<rect width="50" height="50" fill="white" transform="translate(0.0664062 0.0305176)"/>
</clipPath>
</defs>
</svg>
