<svg width="51" height="51" viewBox="0 0 51 51" fill="none" xmlns="http://www.w3.org/2000/svg">
<g clip-path="url(#clip0_108_46632)">
<path d="M49.6501 41.4097H1.37447C0.898393 41.4097 0.51236 41.0237 0.51236 40.5476V9.51323C0.51236 9.03716 0.898393 8.65112 1.37447 8.65112H49.6502C50.1262 8.65112 50.5123 9.03716 50.5123 9.51323V40.5476C50.5122 41.0237 50.1261 41.4097 49.6501 41.4097Z" fill="#41479B"/>
<path d="M50.5122 9.51323C50.5122 9.03716 50.1261 8.65112 49.6501 8.65112H45.7931L29.8225 19.1147V8.65112H21.2018V19.1147L5.23129 8.65112H1.37447C0.898393 8.65112 0.51236 9.03716 0.51236 9.51323V11.7428L14.2144 20.72H0.51236V29.3407H14.2144L0.51236 38.318V40.5476C0.51236 41.0237 0.898393 41.4097 1.37447 41.4097H5.23138L21.202 30.9462V41.4097H29.8227V30.9462L45.7933 41.4097H49.6503C50.1263 41.4097 50.5124 41.0237 50.5124 40.5476V38.318L36.8104 29.3408H50.5122V20.7201H36.8102L50.5122 11.7428V9.51323Z" fill="#F5F5F5"/>
<path d="M50.5122 22.4442H28.0985V8.65112H22.926V22.4442H0.51236V27.6166H22.926V41.4097H28.0985V27.6166H50.5122V22.4442Z" fill="#FF4B55"/>
<path d="M17.988 29.3408L0.537048 40.6686C0.598083 41.0849 0.941344 41.4098 1.37464 41.4098H2.56204L21.1547 29.3409H17.988V29.3408Z" fill="#FF4B55"/>
<path d="M34.3398 29.3408H31.173L49.7387 41.3919C50.1714 41.3458 50.5129 40.9925 50.5129 40.5476V39.8388L34.3398 29.3408Z" fill="#FF4B55"/>
<path d="M0.513 10.4649L16.3117 20.7202H19.4785L1.01524 8.73526C0.720324 8.87227 0.513 9.1667 0.513 9.51328V10.4649Z" fill="#FF4B55"/>
<path d="M32.9902 20.7202L50.483 9.3651C50.4103 8.96257 50.0744 8.65134 49.6509 8.65134H48.4158L29.8234 20.7202H32.9902Z" fill="#FF4B55"/>
</g>
<defs>
<clipPath id="clip0_108_46632">
<rect width="50" height="50" fill="white" transform="translate(0.511719 0.0305176)"/>
</clipPath>
</defs>
</svg>
