<svg width="51" height="51" viewBox="0 0 51 51" fill="none" xmlns="http://www.w3.org/2000/svg">
<g clip-path="url(#clip0_108_46608)">
<path d="M49.9442 8.65112H1.66847C1.1924 8.65112 0.806366 9.03706 0.806366 9.51313V40.5475C0.806366 41.0236 1.1924 41.4097 1.66847 41.4097H49.9443C50.4203 41.4097 50.8064 41.0236 50.8064 40.5475V9.51313C50.8063 9.03706 50.4202 8.65112 49.9442 8.65112Z" fill="#82AFFF"/>
<path d="M25.7338 31.4419C30.1188 31.4419 33.6861 27.8743 33.6861 23.4896C33.6861 19.105 30.1187 15.5374 25.7338 15.5374C21.349 15.5374 17.7816 19.105 17.7816 23.4896C17.7816 27.8743 21.3489 31.4419 25.7338 31.4419ZM26.6411 16.3692L27.3246 16.1173C28.2891 16.3253 29.186 16.7162 29.9754 17.2551C29.9076 17.2483 29.7282 17.2299 29.6972 17.2195C29.6589 17.2068 29.5998 17.4631 29.5998 17.4631L29.9134 17.5879L29.999 17.2729C30.3248 17.497 30.629 17.749 30.9152 18.0203L30.4541 18.4815H30.3726L30.3063 18.2212L30.0541 17.7678L29.163 17.4466L28.5467 17.7448L28.8964 18.502C28.0347 17.9536 27.0237 17.6242 25.9378 17.587V16.5317L26.5657 16.73L26.3046 16.2698L25.9378 16.4269V15.9557C26.2103 15.963 26.4786 15.9853 26.7431 16.021L26.4347 16.1238L26.6411 16.3692ZM30.7676 22.1897L30.9177 22.1262L30.9555 21.7567C31.1164 22.2403 31.2092 22.7534 31.2288 23.2856H29.8458L29.8967 23.0647L30.2876 23.0308L30.6111 22.4799L30.6019 22.3766L30.2706 22.8014L30.0682 22.8511L29.9392 22.6994L30.091 22.4415L29.7608 22.198L29.4642 22.4581C29.3843 22.1698 29.2755 21.8937 29.1348 21.6364L29.2957 21.5779L29.4247 21.501L29.4236 21.3492L29.5063 21.2464L29.4585 21.217C29.4231 21.2338 29.2386 21.2874 29.2386 21.2874L29.1747 21.495L29.0829 21.5509C28.9475 21.318 28.7884 21.1013 28.6092 20.9023L29.3718 20.1397L29.3784 20.1505L29.5641 20.0389L29.5353 19.9761L29.762 19.7494C30.273 20.2994 30.672 20.9524 30.9253 21.6751L30.7355 21.393L30.6376 21.4295L30.7676 22.1897ZM29.7623 27.2297L29.3498 26.8172L29.1941 26.4045L29.114 26.5814L28.9544 26.4219L29.118 25.9204L29.0121 25.5565L29.0045 25.5575C29.1167 25.3809 29.2177 25.1967 29.3003 25.0022L29.3023 25.002C29.3279 25.002 29.4212 24.8831 29.4212 24.8831L29.6506 24.9087L30.2436 24.6743L30.0159 24.4584L29.8818 24.3387L29.7779 24.1271L29.592 23.8036C29.595 23.7673 29.5958 23.7305 29.5976 23.6938H31.2289C31.1786 25.0573 30.6321 26.2934 29.7623 27.2297ZM21.8468 26.9687L22.051 26.6119L21.6115 25.0757L21.2649 24.2203L21.5793 24.0843L21.6642 23.8294L21.8765 23.8232C21.9507 24.6865 22.3098 25.4677 22.8584 26.0767L21.9578 26.9772L21.8468 26.9687ZM22.3375 23.2029L22.3331 23.2858H22.2777C22.2796 23.2545 22.2799 23.2227 22.2825 23.1915L22.3375 23.2029ZM27.5726 26.4228L27.5029 26.385L26.6133 26.7289L26.1523 26.5515L25.9378 26.6107V26.3176L26.1597 26.2506L26.2943 26.283L26.5776 26.3938L26.4068 26.0815L26.7728 26.3884L26.9484 26.4284L26.895 26.1943L27.014 25.8075L27.4288 25.5545L27.4648 25.7874L26.9588 26.0624L27.0559 26.256L27.5821 26.1498L27.5904 26.4123C27.5845 26.4157 27.5784 26.419 27.5726 26.4228ZM25.4761 24.8909L25.4603 24.8569L25.3648 24.8624C25.242 24.8292 25.1264 24.7805 25.019 24.7177L25.374 24.6746L25.5299 24.256V24.8963C25.5122 24.8938 25.4936 24.8941 25.4761 24.8909ZM23.9854 24.0178L23.6386 23.9644L23.8155 23.6936H23.9193C23.9318 23.8053 23.9537 23.913 23.9854 24.0178ZM25.9377 22.6068L26.0333 22.6358L26.1535 22.7816L25.9377 22.9975V22.6068ZM26.5808 25.1987L26.4153 25.3925L26.1394 25.5297L26.0469 25.3676L25.9913 25.6898L25.9379 25.7107V25.3042C25.9764 25.2999 26.0161 25.2991 26.0541 25.2925L26.1861 25.458L26.2957 25.3216L26.2872 25.2304C26.348 25.2109 26.4101 25.1948 26.4681 25.1693L26.5808 25.1987ZM26.4567 23.0552L26.4523 23.2758L26.4443 23.2858H26.2259L26.4567 23.0552ZM26.5877 23.8146L26.8516 23.8062L26.9956 23.9262L26.9476 24.0126L26.7462 23.8974L26.6358 23.9837L26.6912 24.1491L26.6889 24.1563L26.2261 23.6936H26.5344L26.5877 23.8146ZM26.413 24.4572L26.1609 24.4301L25.9828 24.8918C25.9681 24.8943 25.9526 24.8942 25.9379 24.8963V23.9818L26.413 24.4572ZM25.1039 23.2857L25.0862 23.2114L24.9091 23.2857H24.8308L24.8567 23.1782L24.9711 23.0675L24.8803 23.0469L24.786 23.181L24.688 23.2259L24.6995 23.2859H24.5965L24.6585 23.045L24.8397 22.8843L25.2415 23.286H25.1039V23.2857ZM24.3473 23.6936L24.3891 23.7429L24.4173 23.6936H24.5631L24.3735 23.8988C24.3534 23.832 24.3374 23.7642 24.3272 23.6936H24.3473ZM24.573 24.3144L24.8366 23.8591L24.7676 23.7975L24.8839 23.7375L24.8984 23.6936H25.0839L25.0414 23.7164L25.0237 23.7775L25.1673 23.7678L25.0604 23.8747L24.9517 23.8977L24.9292 24.0061L24.5946 24.3405C24.5878 24.3313 24.5797 24.3235 24.573 24.3144ZM25.5299 22.1255L25.4538 22.1138L25.5128 22.3584L25.53 22.3719V22.9975L25.1874 22.6548L25.4279 22.5248L25.2106 22.1648C25.3118 22.1248 25.4191 22.099 25.53 22.0829L25.5299 22.1255ZM22.3114 23.6936L22.3073 23.7712L22.2902 23.8747C22.2837 23.815 22.2814 23.7541 22.2778 23.6936L22.3114 23.6936ZM22.5109 24.1778L22.7646 24.4328L22.9727 24.2879L23.463 24.6992L23.9903 24.792L24.1378 24.3771C24.1875 24.466 24.2433 24.5498 24.3066 24.6289L23.8536 25.0819L23.9264 24.8963L23.6567 24.8524L23.7431 25.1691L23.7559 25.1798L23.1468 25.7888C22.75 25.3426 22.4636 24.7961 22.3388 24.1897L22.5109 24.1778ZM24.5947 24.9171C24.858 25.1276 25.1777 25.2646 25.5299 25.3042V25.7758L25.5254 25.7869L25.5299 25.7854V26.1382L25.4112 26.162L25.3423 26.6047L25.5299 26.5829V26.7233L25.2329 26.8054L25.1339 26.9008C24.4884 26.7874 23.9052 26.4956 23.4349 26.0771L24.5947 24.9171ZM28.0343 26.5995L28.3336 26.663L28.6279 26.6721L28.7897 26.8339L28.2953 26.8159L27.9767 26.6427C27.9963 26.6286 28.0151 26.6139 28.0343 26.5995ZM28.3211 25.7886L28.2318 25.6993L28.4134 25.6854C28.3842 25.7211 28.3517 25.754 28.3211 25.7886ZM28.7887 21.8545C28.65 21.8564 28.5155 21.8584 28.5035 21.8584C28.4779 21.8584 28.2781 22.0292 28.2781 22.0292L28.1253 22.227L28.0794 21.9856L28.1876 21.7392L28.1042 21.6628L27.7303 21.9007L27.651 21.8606L27.943 21.5687L28.0073 21.5898L28.1934 21.5461L28.0988 21.413L28.321 21.1907C28.5009 21.3931 28.6596 21.6144 28.7887 21.8545ZM27.6952 21.24L27.6773 21.1829L27.5562 21.202L27.481 21.3476L27.1485 21.3803C27.1728 21.429 27.2763 21.6312 27.2857 21.6493L26.8731 22.0619C26.7854 21.9918 26.6918 21.9305 26.592 21.8771L26.643 21.8497L26.5824 21.6448L26.5411 21.5692L26.3571 21.7705C26.2238 21.722 26.0835 21.6912 25.9379 21.6748V20.0334C26.74 20.0804 27.4682 20.3998 28.033 20.9022L27.6952 21.24ZM25.5299 21.6751C25.3983 21.6899 25.2715 21.7174 25.1498 21.7586L25.2108 21.6169L24.8927 21.8669L24.8933 21.8679C24.787 21.9232 24.6877 21.9879 24.5947 22.0623L23.4349 20.9025C23.9997 20.4001 24.7279 20.0807 25.5299 20.0337V21.6751ZM24.2409 22.2852L23.6926 22.3811L23.7118 22.1728L23.2574 22.0159L22.5306 22.1679C22.6802 21.8068 22.8907 21.4784 23.1465 21.1907L24.2409 22.2852ZM22.481 22.3034L22.7092 22.3512L22.4357 22.4269C22.4492 22.3849 22.4659 22.3446 22.481 22.3034ZM21.8699 23.2857H21.8345L21.8716 23.2515C21.871 23.2629 21.8706 23.2743 21.8699 23.2857ZM22.3048 27.207L23.1466 26.3652C23.6061 26.779 24.1635 27.0836 24.781 27.2405L24.4911 27.5199L25.1152 28.3446L25.5299 28.3676V28.9849C24.4408 28.9449 23.4318 28.5906 22.5924 28.0049L22.7272 27.9174L22.3048 27.207ZM25.9377 28.3898L26.4635 28.4188L26.4769 28.5394L26.7968 28.89C26.5177 28.9449 26.23 28.9741 25.9377 28.9848V28.3898ZM29.2782 27.3222L29.474 27.518C29.3803 27.6049 29.2862 27.6911 29.1867 27.7717L29.2782 27.3222ZM29.4739 19.4613L29.3544 19.5808L29.2128 19.2714L28.9554 19.1345C28.9554 19.1345 28.7157 18.923 28.5909 18.7927C28.9079 18.9862 29.2033 19.2099 29.4739 19.4613ZM28.5354 18.7588L28.7156 19.3892L29.1365 19.7556L29.1529 19.7824L28.321 20.6143C27.6817 20.0384 26.852 19.6737 25.9377 19.6259V17.9946C26.8842 18.0295 27.7687 18.3031 28.5354 18.7588ZM25.5299 19.6259C24.6156 19.6738 23.786 20.0385 23.1466 20.6143L21.9937 19.4613C22.93 18.5914 24.1663 18.0449 25.5299 17.9946V19.6259ZM22.8583 20.9025C22.4214 21.3877 22.1045 21.9815 21.9563 22.6402L21.5979 23.2857H20.2386C20.2889 21.9221 20.8354 20.6858 21.7052 19.7496L22.8583 20.9025ZM21.4014 23.6936L21.0141 24.5261L20.4663 24.3223L20.3634 24.6869C20.2918 24.3654 20.2512 24.0332 20.2387 23.6935H21.4013L21.4014 23.6936ZM20.9931 27.8226L21.0564 27.8787L20.2643 28.6708C19.7175 28.0937 19.263 27.4309 18.9188 26.7043L19.1295 26.8273L20.5344 28.0774L20.9931 27.8226ZM21.362 28.1496L21.5538 28.3196L22.1758 28.2015C23.1162 28.9133 24.2726 29.3494 25.5299 29.3927V31.0239C23.6042 30.9721 21.859 30.1976 20.5525 28.9593L21.362 28.1496ZM25.9377 29.3926C26.2833 29.3807 26.6226 29.3447 26.9507 29.2757L26.9887 29.5269L27.9606 30.2436L29.0549 29.6365L29.3691 28.9742L29.3485 28.5644L29.5551 28.0797L29.5047 28.0402C29.5941 27.9661 29.6774 27.8853 29.7621 27.8062L29.9501 27.9941L30.0074 28.3493L30.2209 28.2647L30.9153 28.9592C29.6087 30.1975 27.8635 30.972 25.9379 31.0238V29.3926H25.9377ZM30.3182 27.7856L30.2793 27.3214L30.227 27.3237C31.0687 26.3388 31.5893 25.0762 31.6368 23.6936H33.268C33.2162 25.6192 32.4417 27.3642 31.2036 28.6708L30.3182 27.7856ZM31.6367 23.2857C31.6013 22.2567 31.303 21.2957 30.8051 20.4643L31.4985 21.1128L32.0548 20.635L31.2009 19.3478L30.6374 18.9145L30.6388 18.873L31.2034 18.3084C32.4416 19.6149 33.216 21.3601 33.2678 23.2856H31.6367V23.2857ZM25.5299 17.5868C24.0539 17.6375 22.716 18.2296 21.7055 19.1731L20.5525 18.0202C21.859 16.7818 23.6043 16.0074 25.5299 15.9556V17.5868ZM21.4172 19.4615C20.4737 20.472 19.8817 21.8098 19.8309 23.2857H18.1997C18.2515 21.3601 19.026 19.615 20.2641 18.3085L21.4172 19.4615ZM19.8309 23.6936C19.8517 24.2999 19.9633 24.8823 20.1541 25.4293L20.0925 25.6477L18.4988 25.6127C18.319 25.0014 18.2177 24.3581 18.1998 23.6937L19.8309 23.6936Z" fill="#F5F5F5"/>
<path d="M20.24 32.9372L21.7122 32.6988C21.8438 32.6775 21.8985 32.5185 21.8072 32.4213C21.4531 32.0429 20.7493 31.2593 20.3418 30.5924C19.7811 29.6748 18.7938 28.9183 18.7938 28.9183C18.7938 28.9183 18.9825 31.442 20.8856 32.3086C20.8856 32.3086 18.9994 31.8327 17.793 31.5099C16.5866 31.1871 16.2564 30.8318 16.2564 30.8318C16.2564 30.8318 17.1985 33.243 20.24 32.9372Z" fill="#F5F5F5"/>
<path d="M18.7787 30.1166C18.7277 29.4878 18.2682 27.8803 17.402 26.5516C17.402 26.5516 17.403 29.7809 18.5496 30.8748C18.5496 30.8748 16.9266 29.3178 15.958 28.6042C15.0512 27.9361 14.6496 27.1768 14.6496 27.1768C14.6496 27.1768 14.8933 29.2175 16.2129 30.2353C17.105 30.9235 19.0846 31.4078 19.0846 31.4078C19.0846 31.4078 18.8297 30.7452 18.7787 30.1166Z" fill="#F5F5F5"/>
<path d="M15.6692 27.7036L16.6608 28.5612C16.7642 28.6507 16.9253 28.5801 16.9275 28.4433C16.9329 28.0984 16.954 27.5749 17.0286 27.2448C17.1475 26.718 17.2946 25.0076 16.6943 23.7643C16.6943 23.7643 15.9686 25.9925 16.5358 27.848C16.5358 27.848 15.645 26.4315 14.7346 25.3587C14.2588 24.7979 14.0705 24.1368 14.0705 24.1368C14.0705 24.1368 14.0549 26.3613 15.6692 27.7036Z" fill="#F5F5F5"/>
<path d="M15.3969 25.5088C15.4746 25.6135 15.6358 25.5914 15.6803 25.4688C15.8106 25.1091 16.0636 24.4624 16.3996 23.8466C17.0113 22.7251 16.7291 21.4052 16.7291 21.4052C16.7291 21.4052 15.7471 23.0884 15.4624 24.9591C15.4438 24.8757 15.4235 24.7865 15.3992 24.6846C15.1297 23.5516 14.0813 20.7255 14.0813 20.7255C14.0813 20.7255 13.7126 22.2775 14.1734 23.5067C14.4103 24.1375 15.072 25.0703 15.3969 25.5088Z" fill="#F5F5F5"/>
<path d="M15.1948 23.0273C15.2244 23.1401 15.3823 23.1429 15.4159 23.0312C15.5097 22.7197 15.7049 22.2903 16.1109 21.8753C16.8756 21.0937 17.4553 20.0086 17.7516 19.0389C17.7516 19.0389 16.1202 20.3478 15.6057 21.2305C15.6057 21.2305 15.6566 20.0167 15.4821 19.1395C15.3334 18.3919 15.6494 17.6716 15.6494 17.6716C15.6494 17.6716 14.6156 18.6639 14.7684 20.4819C14.8647 21.626 15.0619 22.5209 15.1948 23.0273Z" fill="#F5F5F5"/>
<path d="M16.2281 19.9109C16.5376 19.6272 17.0795 19.1439 17.6021 18.8508C18.296 18.4615 18.8447 17.2058 18.9657 16.9265C18.9657 16.9265 17.0324 18.5086 16.5061 19.0164C16.5061 19.0164 16.8248 17.6018 17.0287 16.9901C17.2326 16.3784 17.2071 16.1745 17.3855 15.9196C17.3855 15.9196 16.4552 16.7352 16.2003 17.3851C15.9908 17.9193 16.0309 19.1335 16.0024 19.8038C15.9971 19.9253 16.1385 19.993 16.2281 19.9109Z" fill="#F5F5F5"/>
<path d="M18.1838 17.0667C18.7275 16.6249 19.5941 15.3335 19.5941 15.3335C19.3795 15.4562 18.5066 15.7583 17.7761 16.506C17.0454 17.2536 16.8925 18.273 16.8925 18.273C16.8925 18.273 17.64 17.5085 18.1838 17.0667Z" fill="#F5F5F5"/>
<path d="M30.531 33.3109C28.9337 32.9965 27.5659 32.7671 25.9625 33.1842C25.8836 33.2047 25.8098 33.2284 25.7338 33.2507C25.6577 33.2285 25.584 33.2048 25.5051 33.1842C23.9018 32.7672 22.5339 32.9965 20.9367 33.3109C19.497 33.5942 18.1186 33.3491 18.1186 33.3491C18.1186 33.3491 19.1186 34.3645 21.3955 34.3645C22.3889 34.3645 23.6372 33.5284 24.4249 33.4838C24.6189 33.4728 24.8105 33.4846 25.0002 33.5058C23.3088 34.1958 22.5281 35.2421 22.5127 35.2624C22.4449 35.352 22.4623 35.4798 22.552 35.5475C22.5888 35.5757 22.6321 35.5893 22.675 35.5893C22.7366 35.5893 22.7975 35.5614 22.8375 35.5088C22.8997 35.4271 24.1491 34.1345 25.7338 33.657C27.3185 34.1345 28.568 35.427 28.6301 35.5088C28.67 35.5615 28.7311 35.5893 28.7926 35.5893C28.8356 35.5893 28.8788 35.5757 28.9156 35.5475C29.0053 35.4798 29.0228 35.3519 28.9549 35.2624C28.9396 35.2421 28.1588 34.1958 26.4674 33.5058C26.6571 33.4847 26.8488 33.4729 27.0427 33.4838C27.8304 33.5284 29.0788 34.3645 30.0721 34.3645C32.349 34.3645 33.349 33.3491 33.349 33.3491C33.349 33.3491 31.9706 33.5942 30.531 33.3109Z" fill="#F5F5F5"/>
<path d="M30.5816 32.3086C32.4848 31.442 32.6734 28.9183 32.6734 28.9183C32.6734 28.9183 31.686 29.6748 31.1254 30.5924C30.7179 31.2592 30.014 32.0429 29.66 32.4213C29.5689 32.5185 29.6234 32.6775 29.755 32.6988L31.2272 32.9372C34.2688 33.243 35.2107 30.8317 35.2107 30.8317C35.2107 30.8317 34.8805 31.1871 33.6741 31.5098C32.4677 31.8327 30.5816 32.3086 30.5816 32.3086Z" fill="#F5F5F5"/>
<path d="M35.5095 28.6043C34.5409 29.318 32.9179 30.8749 32.9179 30.8749C34.0646 29.781 34.0655 26.5518 34.0655 26.5518C33.1993 27.8806 32.7398 29.488 32.6888 30.1167C32.6378 30.7454 32.3829 31.4081 32.3829 31.4081C32.3829 31.4081 34.3624 30.9238 35.2546 30.2356C36.5742 29.2177 36.8179 27.1771 36.8179 27.1771C36.8179 27.1771 36.4163 27.936 35.5095 28.6043Z" fill="#F5F5F5"/>
<path d="M34.9317 27.8482C35.4988 25.9926 34.7732 23.7645 34.7732 23.7645C34.1729 25.0078 34.32 26.7183 34.4389 27.2449C34.5135 27.575 34.5346 28.0984 34.54 28.4435C34.5421 28.5802 34.7033 28.6508 34.8067 28.5613L35.7983 27.7037C37.4126 26.3613 37.397 24.137 37.397 24.137C37.397 24.137 37.2086 24.7982 36.7329 25.3589C35.8225 26.4316 34.9317 27.8482 34.9317 27.8482Z" fill="#F5F5F5"/>
<path d="M36.0046 24.9591C35.7199 23.0885 34.7379 21.4052 34.7379 21.4052C34.7379 21.4052 34.4557 22.7251 35.0674 23.8466C35.4032 24.4624 35.6562 25.1092 35.7867 25.4689C35.8311 25.5915 35.9924 25.6136 36.0701 25.5088C36.3951 25.0703 37.0567 24.1376 37.2933 23.5066C37.7542 22.2775 37.3854 20.7254 37.3854 20.7254C37.3854 20.7254 36.3371 23.5516 36.0676 24.6846C36.0433 24.7865 36.0231 24.8756 36.0046 24.9591Z" fill="#F5F5F5"/>
<path d="M35.985 19.1397C35.8105 20.0168 35.8613 21.2306 35.8613 21.2306C35.3469 20.348 33.7154 19.039 33.7154 19.039C34.0117 20.0087 34.5915 21.0938 35.3561 21.8754C35.7622 22.2903 35.9573 22.7198 36.0512 23.0313C36.0848 23.143 36.2427 23.1401 36.2723 23.0274C36.4053 22.521 36.6023 21.626 36.6985 20.482C36.8515 18.6639 35.8176 17.6717 35.8176 17.6717C35.8176 17.6717 36.1337 18.3921 35.985 19.1397Z" fill="#F5F5F5"/>
<path d="M34.9615 19.0165C34.4352 18.5086 32.5019 16.9265 32.5019 16.9265C32.623 17.2059 33.1716 18.4617 33.8655 18.8508C34.3881 19.1439 34.93 19.6272 35.2395 19.911C35.329 19.993 35.4705 19.9254 35.4653 19.804C35.4368 19.1338 35.4769 17.9195 35.2674 17.3853C35.0126 16.7354 34.0822 15.9198 34.0822 15.9198C34.2606 16.1747 34.2351 16.3786 34.439 16.9903C34.6428 17.6019 34.9615 19.0165 34.9615 19.0165Z" fill="#F5F5F5"/>
<path d="M33.2836 17.0667C33.8273 17.5085 34.575 18.273 34.575 18.273C34.575 18.273 34.4221 17.2535 33.6914 16.506C32.9608 15.7583 32.088 15.4562 31.8734 15.3335C31.8734 15.3335 32.7399 16.6249 33.2836 17.0667Z" fill="#F5F5F5"/>
<path d="M29.9519 21.2697L29.6053 21.4979L29.975 21.5557L30.379 22.0025L30.6053 21.8568L30.3339 21.3018L29.9519 21.2697Z" fill="#F5F5F5"/>
<path d="M30.499 23.1729L30.6273 23.2221L30.9523 22.3491L30.863 22.228L30.7228 22.2981L30.4998 23.0883L30.499 23.1729Z" fill="#F5F5F5"/>
<path d="M27.2383 21.6927L27.1361 21.5844L26.9061 21.8775L26.9633 21.9662L27.2383 21.6927Z" fill="#F5F5F5"/>
<path d="M29.5864 21.011L29.6485 20.8116L29.4428 20.8532L29.3847 20.8696L29.3237 20.9511L29.546 21.2083L29.6361 21.1318L29.5864 21.011Z" fill="#F5F5F5"/>
<path d="M25.4664 25.6816L25.4696 25.5576L25.313 25.7836L25.3578 25.8599L25.4664 25.6816Z" fill="#F5F5F5"/>
</g>
<defs>
<clipPath id="clip0_108_46608">
<rect width="50" height="50" fill="white" transform="translate(0.804688 0.0305176)"/>
</clipPath>
</defs>
</svg>
