<svg width="51" height="51" viewBox="0 0 51 51" fill="none" xmlns="http://www.w3.org/2000/svg">
<g clip-path="url(#clip0_108_46513)">
<path d="M49.5646 8.9444H1.28887C0.812792 8.9444 0.426758 9.33033 0.426758 9.80641V40.8408C0.426758 41.3169 0.812792 41.7029 1.28887 41.7029H49.5647C50.0407 41.7029 50.4268 41.3169 50.4268 40.8408V9.80641C50.4267 9.33033 50.0406 8.9444 49.5646 8.9444Z" fill="#F5F5F5"/>
<path d="M50.4267 12.5844H18.5303V16.2241H50.4267V12.5844Z" fill="#4173CD"/>
<path d="M50.4267 16.2241H0.426758V19.8637H50.4267V16.2241Z" fill="#F5F5F5"/>
<path d="M50.4267 19.8637H18.5303V23.5033H50.4267V19.8637Z" fill="#4173CD"/>
<path d="M50.4267 23.5034H0.426758V27.143H50.4267V23.5034Z" fill="#F5F5F5"/>
<path d="M50.4267 27.1441H0.426758V30.7837H50.4267V27.1441Z" fill="#4173CD"/>
<path d="M50.4267 30.7836H0.426758V34.4232H50.4267V30.7836Z" fill="#F5F5F5"/>
<path d="M50.4267 34.4232H0.426758V38.0629H50.4267V34.4232Z" fill="#4173CD"/>
<path d="M6.67456 11.2263L8.11665 17.8994L10.3732 16.9646L6.67456 11.2263Z" fill="#FFE15A"/>
<path d="M6.67456 11.2263L9.24487 17.432L8.11665 17.8994L6.67456 11.2263Z" fill="#FFCD5A"/>
<path d="M12.2827 24.766L10.8405 18.0928L8.58398 19.0276L12.2827 24.766Z" fill="#FFE15A"/>
<path d="M12.2826 24.766L9.71216 18.5602L10.8404 18.0928L12.2826 24.766Z" fill="#FFCD5A"/>
<path d="M16.2485 15.1921L9.57544 16.6342L10.5101 18.8907L16.2485 15.1921Z" fill="#FFE15A"/>
<path d="M16.2485 15.1921L10.0427 17.7624L9.57544 16.6342L16.2485 15.1921Z" fill="#FFCD5A"/>
<path d="M2.70874 20.8002L9.38178 19.3581L8.44701 17.1015L2.70874 20.8002Z" fill="#FFE15A"/>
<path d="M2.70874 20.8002L8.91439 18.2299L9.38178 19.3581L2.70874 20.8002Z" fill="#FFCD5A"/>
<path d="M12.2827 11.2263L8.58398 16.9646L10.8405 17.8994L12.2827 11.2263Z" fill="#FFE15A"/>
<path d="M12.2827 11.2263L9.7123 17.432L8.58398 16.9646L12.2827 11.2263Z" fill="#FFCD5A"/>
<path d="M6.67456 24.766L10.3732 19.0276L8.11665 18.0928L6.67456 24.766Z" fill="#FFE15A"/>
<path d="M6.67456 24.766L9.24487 18.5602L10.3732 19.0276L6.67456 24.766Z" fill="#FFCD5A"/>
<path d="M16.2485 20.8002L10.5101 17.1015L9.57544 19.3581L16.2485 20.8002Z" fill="#FFE15A"/>
<path d="M16.2485 20.8002L10.0427 18.2298L10.5101 17.1015L16.2485 20.8002Z" fill="#FFCD5A"/>
<path d="M2.70874 15.1921L8.44701 18.8907L9.38178 16.6342L2.70874 15.1921Z" fill="#FFE15A"/>
<path d="M2.70874 15.1921L8.91439 17.7624L8.44701 18.8907L2.70874 15.1921Z" fill="#FFCD5A"/>
<path d="M9.47861 10.6685L8.25732 17.3854H10.6998L9.47861 10.6685Z" fill="#FFE15A"/>
<path d="M9.47861 10.6685V17.3854H8.25732L9.47861 10.6685Z" fill="#FFCD5A"/>
<path d="M9.47861 25.3237L10.6998 18.6068H8.25732L9.47861 25.3237Z" fill="#FFE15A"/>
<path d="M9.47876 25.3237V18.6068H10.6999L9.47876 25.3237Z" fill="#FFCD5A"/>
<path d="M16.8062 17.9961L10.0894 16.7748V19.2173L16.8062 17.9961Z" fill="#FFE15A"/>
<path d="M16.8062 17.9961H10.0894V16.7748L16.8062 17.9961Z" fill="#FFCD5A"/>
<path d="M2.15088 17.9961L8.86776 19.2173V16.7748L2.15088 17.9961Z" fill="#FFE15A"/>
<path d="M2.15088 17.9962H8.86776V19.2174L2.15088 17.9962Z" fill="#FFCD5A"/>
<path d="M14.66 12.8147L9.04688 16.7008L10.774 18.4279L14.66 12.8147Z" fill="#FFE15A"/>
<path d="M14.66 12.8147L9.91045 17.5643L9.04688 16.7008L14.66 12.8147Z" fill="#FFCD5A"/>
<path d="M4.29736 23.1775L9.91044 19.2915L8.18329 17.5643L4.29736 23.1775Z" fill="#FFE15A"/>
<path d="M4.29736 23.1775L9.04687 18.4279L9.91044 19.2915L4.29736 23.1775Z" fill="#FFCD5A"/>
<path d="M14.66 23.1775L10.774 17.5643L9.04688 19.2915L14.66 23.1775Z" fill="#FFE15A"/>
<path d="M14.66 23.1775L9.9104 18.4279L10.774 17.5643L14.66 23.1775Z" fill="#FFCD5A"/>
<path d="M4.29736 12.8147L8.18329 18.4279L9.91044 16.7008L4.29736 12.8147Z" fill="#FFE15A"/>
<path d="M4.29736 12.8147L9.04687 17.5643L8.18329 18.4279L4.29736 12.8147Z" fill="#FFCD5A"/>
<path d="M9.47876 20.439C10.8276 20.439 11.9211 19.3455 11.9211 17.9966C11.9211 16.6477 10.8276 15.5542 9.47876 15.5542C8.12987 15.5542 7.03638 16.6477 7.03638 17.9966C7.03638 19.3455 8.12987 20.439 9.47876 20.439Z" fill="#FFE15A"/>
</g>
<defs>
<clipPath id="clip0_108_46513">
<rect width="50" height="50" fill="white" transform="translate(0.427734 0.32373)"/>
</clipPath>
</defs>
</svg>
