<svg width="51" height="51" viewBox="0 0 51 51" fill="none" xmlns="http://www.w3.org/2000/svg">
<g clip-path="url(#clip0_108_46489)">
<path d="M50.7209 19.864H0.720947V9.8065C0.720947 9.33043 1.10698 8.9444 1.58306 8.9444H49.8588C50.3349 8.9444 50.7209 9.33043 50.7209 9.8065L50.7209 19.864Z" fill="#82AFFF"/>
<path d="M49.8587 41.703H1.58306C1.10698 41.703 0.720947 41.317 0.720947 40.8409V30.7835H50.7209V40.8409C50.7209 41.3171 50.3348 41.703 49.8587 41.703Z" fill="#73AF00"/>
<path d="M50.7209 19.8639H0.720947V30.7828H50.7209V19.8639Z" fill="#F5F5F5"/>
<path d="M50.7209 18.8941H0.720947V20.2556H50.7209V18.8941Z" fill="#FF4B55"/>
<path d="M50.7211 30.3911H0.721191V31.7526H50.7211V30.3911Z" fill="#FF4B55"/>
<path d="M11.8039 17.1276C10.039 17.1276 8.60846 15.7005 8.60846 13.942C8.60846 12.1771 10.0389 10.7435 11.8039 10.7435C11.8107 10.7435 11.8173 10.7435 11.824 10.7436C11.9279 10.7449 11.9643 10.6069 11.8727 10.5578C11.3293 10.2665 10.709 10.1017 10.0497 10.1065C7.93796 10.1215 6.22263 11.8714 6.24509 13.9831C6.26716 16.073 7.97575 17.7647 10.0773 17.7647C10.7276 17.7647 11.3391 17.6002 11.8758 17.3129C11.9671 17.264 11.9302 17.126 11.8267 17.1274C11.8189 17.1276 11.8114 17.1276 11.8039 17.1276Z" fill="#F5F5F5"/>
<path d="M14.3055 16.2468L14.1629 16.6747L13.7118 16.6781C13.6534 16.6785 13.6292 16.7531 13.6761 16.7878L14.039 17.0557L13.9029 17.4858C13.8853 17.5415 13.9487 17.5876 13.9963 17.5536L14.3633 17.2913L14.7302 17.5536C14.7778 17.5876 14.8411 17.5415 14.8236 17.4858L14.6875 17.0557L15.0503 16.7878C15.0972 16.7531 15.073 16.6785 15.0146 16.6781L14.5635 16.6747L14.4209 16.2468C14.4024 16.1914 14.3241 16.1914 14.3055 16.2468Z" fill="#F5F5F5"/>
<path d="M17.4835 16.2468L17.3408 16.6747L16.8898 16.6781C16.8314 16.6785 16.8072 16.7531 16.8541 16.7878L17.2169 17.0557L17.0808 17.4858C17.0632 17.5415 17.1266 17.5876 17.1741 17.5536L17.5411 17.2913L17.9081 17.5536C17.9557 17.5876 18.019 17.5415 18.0015 17.4858L17.8654 17.0557L18.2282 16.7878C18.2751 16.7531 18.2509 16.6785 18.1925 16.6781L17.7414 16.6747L17.5988 16.2468C17.5803 16.1914 17.5019 16.1914 17.4835 16.2468Z" fill="#F5F5F5"/>
<path d="M20.6615 16.2468L20.5188 16.6747L20.0677 16.6781C20.0094 16.6785 19.9851 16.7531 20.0321 16.7878L20.395 17.0557L20.2589 17.4858C20.2413 17.5415 20.3047 17.5876 20.3522 17.5536L20.7192 17.2913L21.0862 17.5536C21.1338 17.5876 21.197 17.5415 21.1796 17.4858L21.0434 17.0557L21.4062 16.7878C21.4532 16.7531 21.429 16.6785 21.3706 16.6781L20.9195 16.6747L20.7768 16.2468C20.7584 16.1914 20.68 16.1914 20.6615 16.2468Z" fill="#F5F5F5"/>
<path d="M23.8392 16.2468L23.6966 16.6747L23.2455 16.6781C23.1871 16.6785 23.1629 16.7531 23.2098 16.7878L23.5726 17.0557L23.4365 17.4858C23.4189 17.5415 23.4823 17.5876 23.5299 17.5536L23.8968 17.2913L24.2638 17.5536C24.3114 17.5876 24.3747 17.5415 24.3572 17.4858L24.2211 17.0557L24.5839 16.7878C24.6308 16.7531 24.6066 16.6785 24.5482 16.6781L24.0971 16.6747L23.9545 16.2468C23.9361 16.1914 23.8577 16.1914 23.8392 16.2468Z" fill="#F5F5F5"/>
<path d="M27.0175 16.2468L26.8748 16.6747L26.4237 16.6781C26.3653 16.6785 26.3411 16.7531 26.3881 16.7878L26.751 17.0557L26.6148 17.4858C26.5972 17.5415 26.6606 17.5876 26.7082 17.5536L27.0752 17.2913L27.4422 17.5536C27.4897 17.5876 27.553 17.5415 27.5355 17.4858L27.3994 17.0557L27.7623 16.7878C27.8093 16.7531 27.785 16.6785 27.7266 16.6781L27.2756 16.6747L27.1329 16.2468C27.1142 16.1914 27.0359 16.1914 27.0175 16.2468Z" fill="#F5F5F5"/>
<path d="M17.4835 13.2807L17.3408 13.7086L16.8898 13.7121C16.8314 13.7125 16.8072 13.7871 16.8541 13.8217L17.2169 14.0897L17.0808 14.5198C17.0632 14.5754 17.1266 14.6215 17.1741 14.5876L17.5411 14.3253L17.9081 14.5876C17.9557 14.6215 18.019 14.5754 18.0015 14.5198L17.8654 14.0897L18.2282 13.8217C18.2751 13.7871 18.2509 13.7125 18.1925 13.7121L17.7414 13.7086L17.5988 13.2807C17.5803 13.2252 17.5019 13.2252 17.4835 13.2807Z" fill="#F5F5F5"/>
<path d="M20.6615 13.2807L20.5188 13.7086L20.0677 13.7121C20.0094 13.7125 19.9851 13.7871 20.0321 13.8217L20.395 14.0897L20.2589 14.5198C20.2413 14.5754 20.3047 14.6215 20.3522 14.5876L20.7192 14.3253L21.0862 14.5876C21.1338 14.6215 21.197 14.5754 21.1796 14.5198L21.0434 14.0897L21.4062 13.8217C21.4532 13.7871 21.429 13.7125 21.3706 13.7121L20.9195 13.7086L20.7768 13.2807C20.7584 13.2252 20.68 13.2252 20.6615 13.2807Z" fill="#F5F5F5"/>
<path d="M23.8392 13.2807L23.6966 13.7086L23.2455 13.7121C23.1871 13.7125 23.1629 13.7871 23.2098 13.8217L23.5726 14.0897L23.4365 14.5198C23.4189 14.5754 23.4823 14.6215 23.5299 14.5876L23.8968 14.3253L24.2638 14.5876C24.3114 14.6215 24.3747 14.5754 24.3572 14.5198L24.2211 14.0897L24.5839 13.8217C24.6308 13.7871 24.6066 13.7125 24.5482 13.7121L24.0971 13.7086L23.9545 13.2807C23.9361 13.2252 23.8577 13.2252 23.8392 13.2807Z" fill="#F5F5F5"/>
<path d="M27.0175 13.2807L26.8748 13.7086L26.4237 13.7121C26.3653 13.7125 26.3411 13.7871 26.3881 13.8217L26.751 14.0897L26.6148 14.5198C26.5972 14.5754 26.6606 14.6215 26.7082 14.5876L27.0752 14.3253L27.4422 14.5876C27.4897 14.6215 27.553 14.5754 27.5355 14.5198L27.3994 14.0897L27.7623 13.8217C27.8093 13.7871 27.785 13.7125 27.7266 13.7121L27.2756 13.7086L27.1329 13.2807C27.1142 13.2252 27.0359 13.2252 27.0175 13.2807Z" fill="#F5F5F5"/>
<path d="M20.6615 16.2468L20.5188 16.6747L20.0677 16.6781C20.0094 16.6785 19.9851 16.7531 20.0321 16.7878L20.395 17.0557L20.2589 17.4858C20.2413 17.5415 20.3047 17.5876 20.3522 17.5536L20.7192 17.2913L21.0862 17.5536C21.1338 17.5876 21.197 17.5415 21.1796 17.4858L21.0434 17.0557L21.4062 16.7878C21.4532 16.7531 21.429 16.6785 21.3706 16.6781L20.9195 16.6747L20.7768 16.2468C20.7584 16.1914 20.68 16.1914 20.6615 16.2468Z" fill="#F5F5F5"/>
<path d="M20.6615 10.3146L20.5188 10.7425L20.0677 10.7459C20.0094 10.7463 19.9851 10.8209 20.0321 10.8556L20.395 11.1236L20.2589 11.5537C20.2413 11.6093 20.3047 11.6554 20.3522 11.6214L20.7192 11.3591L21.0862 11.6214C21.1338 11.6554 21.197 11.6093 21.1796 11.5537L21.0434 11.1236L21.4062 10.8556C21.4532 10.8209 21.429 10.7463 21.3706 10.7459L20.9195 10.7425L20.7768 10.3146C20.7584 10.2592 20.68 10.2592 20.6615 10.3146Z" fill="#F5F5F5"/>
<path d="M23.8392 16.2468L23.6966 16.6747L23.2455 16.6781C23.1871 16.6785 23.1629 16.7531 23.2098 16.7878L23.5726 17.0557L23.4365 17.4858C23.4189 17.5415 23.4823 17.5876 23.5299 17.5536L23.8968 17.2913L24.2638 17.5536C24.3114 17.5876 24.3747 17.5415 24.3572 17.4858L24.2211 17.0557L24.5839 16.7878C24.6308 16.7531 24.6066 16.6785 24.5482 16.6781L24.0971 16.6747L23.9545 16.2468C23.9361 16.1914 23.8577 16.1914 23.8392 16.2468Z" fill="#F5F5F5"/>
<path d="M27.0175 16.2468L26.8748 16.6747L26.4237 16.6781C26.3653 16.6785 26.3411 16.7531 26.3881 16.7878L26.751 17.0557L26.6148 17.4858C26.5972 17.5415 26.6606 17.5876 26.7082 17.5536L27.0752 17.2913L27.4422 17.5536C27.4897 17.5876 27.553 17.5415 27.5355 17.4858L27.3994 17.0557L27.7623 16.7878C27.8093 16.7531 27.785 16.6785 27.7266 16.6781L27.2756 16.6747L27.1329 16.2468C27.1142 16.1914 27.0359 16.1914 27.0175 16.2468Z" fill="#F5F5F5"/>
<path d="M23.8392 10.3146L23.6966 10.7425L23.2455 10.7459C23.1871 10.7463 23.1629 10.8209 23.2098 10.8556L23.5726 11.1236L23.4365 11.5537C23.4189 11.6093 23.4823 11.6554 23.5299 11.6214L23.8968 11.3591L24.2638 11.6214C24.3114 11.6554 24.3747 11.6093 24.3572 11.5537L24.2211 11.1236L24.5839 10.8556C24.6308 10.8209 24.6066 10.7463 24.5482 10.7459L24.0971 10.7425L23.9545 10.3146C23.9361 10.2592 23.8577 10.2592 23.8392 10.3146Z" fill="#F5F5F5"/>
<path d="M27.0175 10.3146L26.8748 10.7425L26.4237 10.7459C26.3653 10.7463 26.3411 10.8209 26.3881 10.8556L26.751 11.1236L26.6148 11.5537C26.5972 11.6093 26.6606 11.6554 26.7082 11.6214L27.0752 11.3591L27.4422 11.6214C27.4897 11.6554 27.553 11.6093 27.5355 11.5537L27.3994 11.1236L27.7623 10.8556C27.8093 10.8209 27.785 10.7463 27.7266 10.7459L27.2756 10.7425L27.1329 10.3146C27.1142 10.2592 27.0359 10.2592 27.0175 10.3146Z" fill="#F5F5F5"/>
</g>
<defs>
<clipPath id="clip0_108_46489">
<rect width="50" height="50" fill="white" transform="translate(0.720703 0.32373)"/>
</clipPath>
</defs>
</svg>
