<svg width="51" height="51" viewBox="0 0 51 51" fill="none" xmlns="http://www.w3.org/2000/svg">
<g clip-path="url(#clip0_108_46427)">
<path d="M49.5795 8.9444H25.4417V41.703H49.5795C50.0556 41.703 50.4416 41.317 50.4416 40.8409V9.80641C50.4416 9.33033 50.0556 8.9444 49.5795 8.9444Z" fill="#F5F5F5"/>
<path d="M1.304 41.703H25.4419V8.9444H1.304C0.82793 8.9444 0.441895 9.33033 0.441895 9.80641V40.8409C0.441895 41.3171 0.82793 41.703 1.304 41.703Z" fill="#FFE15A"/>
<path d="M40.3116 17.3894L40.2542 17.5039C40.4397 17.5987 40.5457 17.7065 40.5457 17.8213L40.5168 17.2519C40.4783 17.3284 40.4026 17.3832 40.3116 17.3894Z" fill="#EBEBEB"/>
<path d="M35.8368 17.5039L35.7794 17.3894C35.6885 17.3831 35.6129 17.3284 35.5739 17.2519L35.5452 17.8213C35.5452 17.7067 35.6513 17.5987 35.8368 17.5039Z" fill="#EBEBEB"/>
<path d="M35.7954 16.8927C35.9334 16.8927 36.0454 17.0046 36.0454 17.1427C36.0454 17.1927 36.0269 17.2366 36.0016 17.2757L36.0674 17.4073C36.2561 17.3409 36.4885 17.2846 36.7537 17.2409L36.7255 17.1284C36.6222 17.0978 36.5454 17.0058 36.5454 16.8926C36.5454 16.7545 36.6573 16.6426 36.7954 16.6426C36.9334 16.6426 37.0454 16.7545 37.0454 16.8926C37.0454 16.9631 37.0158 17.0261 36.9689 17.0716L37.0023 17.2051C37.1416 17.1876 37.2876 17.1739 37.4392 17.1635C37.4279 17.1165 37.4204 17.068 37.4204 17.0176C37.4204 16.6725 37.7002 16.3926 38.0454 16.3926C38.3905 16.3926 38.6704 16.6725 38.6704 17.0176C38.6704 17.0682 38.6628 17.1165 38.6515 17.1635C38.8033 17.1738 38.9493 17.1876 39.0884 17.2051L39.1218 17.0716C39.0749 17.0261 39.0454 16.9631 39.0454 16.8926C39.0454 16.7545 39.1573 16.6426 39.2954 16.6426C39.4334 16.6426 39.5454 16.7545 39.5454 16.8926C39.5454 17.0059 39.4685 17.0978 39.3652 17.1284L39.3371 17.2409C39.6021 17.2845 39.8346 17.3408 40.0233 17.4073L40.0891 17.2757C40.0638 17.2365 40.0454 17.1927 40.0454 17.1427C40.0454 17.0046 40.1573 16.8927 40.2954 16.8927C40.3853 16.8927 40.4607 16.9428 40.5046 17.0142L40.4855 16.6329C40.2386 16.3527 39.2408 16.1427 38.0454 16.1427C36.8499 16.1427 35.8522 16.3525 35.6053 16.6329L35.5862 17.0142C35.6301 16.9428 35.7054 16.8927 35.7954 16.8927Z" fill="#EBEBEB"/>
<path d="M38.4355 13.9518C38.5032 13.8664 38.5452 13.76 38.5452 13.6427C38.5452 13.41 38.3855 13.2162 38.1702 13.1604V12.8543C38.2435 12.8108 38.2952 12.7342 38.2952 12.6427C38.2952 12.5046 38.1832 12.3927 38.0452 12.3927C37.9071 12.3927 37.7952 12.5046 37.7952 12.6427C37.7952 12.7342 37.8468 12.8108 37.9202 12.8543V13.1604C37.7048 13.216 37.5452 13.41 37.5452 13.6427C37.5452 13.7601 37.5873 13.8665 37.6548 13.9518C37.782 13.917 37.9115 13.8927 38.0452 13.8927C38.1789 13.8927 38.3083 13.9169 38.4355 13.9518Z" fill="#E6B432"/>
<path d="M36.9977 15.2174L36.9755 15.1286C36.8722 15.098 36.7953 15.006 36.7953 14.8928C36.7953 14.7547 36.9072 14.6428 37.0453 14.6428C37.1834 14.6428 37.2953 14.7547 37.2953 14.8928C37.2953 14.9633 37.2657 15.0263 37.2188 15.0718L37.2471 15.1845C37.4917 15.1577 37.7614 15.1428 38.0453 15.1428C37.8382 15.1428 37.6703 14.9749 37.6703 14.7678C37.6703 14.5607 37.8382 14.3928 38.0453 14.3928C38.2524 14.3928 38.4203 14.5607 38.4203 14.7678C38.4203 14.9749 38.2524 15.1428 38.0453 15.1428C38.3293 15.1428 38.599 15.1577 38.8436 15.1845L38.8718 15.0718C38.8249 15.0263 38.7953 14.9633 38.7953 14.8928C38.7953 14.7547 38.9072 14.6428 39.0453 14.6428C39.1834 14.6428 39.2953 14.7547 39.2953 14.8928C39.2953 15.0061 39.2185 15.098 39.1151 15.1286L39.093 15.2174C39.22 15.237 39.3382 15.2598 39.4442 15.2858L39.6285 14.9172C39.3097 14.4232 38.8977 14.0784 38.4355 13.9519C38.3084 13.9171 38.1789 13.8928 38.0452 13.8928C37.9116 13.8928 37.7821 13.917 37.6549 13.9519C37.1927 14.0783 36.7808 14.4231 36.4619 14.9172L36.6462 15.2858C36.7523 15.2598 36.8706 15.237 36.9977 15.2174Z" fill="#EBEBEB"/>
<path d="M37.7957 35.6886V35.1427C37.7957 35.0842 37.8039 35.0279 37.8166 34.9733C37.8099 34.969 37.8026 34.966 37.7957 34.962C37.7218 34.9191 37.6372 34.8927 37.5457 34.8927C37.4542 34.8927 37.3695 34.919 37.2957 34.962C37.1468 35.0486 37.0457 35.208 37.0457 35.3927C37.0457 35.5271 37.0995 35.6487 37.1857 35.7385C37.2929 35.6793 37.4145 35.6427 37.5456 35.6427C37.6338 35.6427 37.7171 35.6606 37.7957 35.6886Z" fill="#E6B432"/>
<path d="M38.2957 33.712C38.1468 33.7986 38.0457 33.958 38.0457 34.1426C38.0457 34.2771 38.0995 34.3987 38.1857 34.4884C38.2929 34.4293 38.4145 34.3926 38.5457 34.3926C38.6768 34.3926 38.7982 34.4293 38.9056 34.4884C38.9919 34.3986 39.0457 34.2771 39.0457 34.1426C39.0457 33.9581 38.9445 33.7986 38.7957 33.712C38.7218 33.6691 38.6372 33.6426 38.5457 33.6426C38.4541 33.6426 38.3695 33.6691 38.2957 33.712Z" fill="#E6B432"/>
<path d="M38.1852 34.4885C38.0016 34.5898 37.8646 34.7636 37.8161 34.9735C37.8035 35.028 37.7952 35.0843 37.7952 35.1428V35.6887C37.7167 35.6608 37.6333 35.6428 37.5452 35.6428C37.414 35.6428 37.2924 35.6794 37.1852 35.7386C36.9538 35.8663 36.7952 36.1097 36.7952 36.3928V37.3928H38.2952V36.3928C38.2952 36.3046 38.2772 36.2213 38.2493 36.1428H39.2952V35.1428C39.2952 34.8598 39.1366 34.6163 38.9051 34.4886C38.7979 34.4294 38.6763 34.3928 38.5452 34.3928C38.414 34.3928 38.2924 34.4293 38.1852 34.4885Z" fill="#FF4B57"/>
<path d="M38.2957 24.4347L38.7229 24.8619L38.8689 24.7158C38.9036 24.6811 38.9468 24.6633 38.9914 24.6532L41.1058 22.5384L42.4601 23.8927L43.3439 23.0089L42.9903 22.6554L42.8135 22.8321L42.46 22.4786L42.6367 22.3018L42.46 22.125L42.8135 21.7715L42.9903 21.9482L43.1671 21.7715L43.5206 22.125L43.3439 22.3018L43.6974 22.6554L44.5812 21.7716L43.2266 20.417L44.1535 19.4897C44.1088 19.4714 44.0668 19.4443 44.0305 19.4081L43.5305 18.9081C43.4932 18.8708 43.4659 18.8275 43.4476 18.7814L38.2393 23.9911C38.2726 24.0336 38.2956 24.0847 38.2956 24.1429L38.2957 24.4347Z" fill="#E6B432"/>
<path d="M37.7223 25.9227L37.0152 25.2155L34.8172 27.4142C34.6221 27.6096 34.6221 27.9261 34.8173 28.1212C34.915 28.2189 35.0429 28.2677 35.1708 28.2677C35.2988 28.2677 35.4269 28.2189 35.5245 28.1212L37.2425 26.4028L37.7223 25.9227Z" fill="#E6B432"/>
<path d="M30.8975 28.5177C30.9113 28.4784 30.9204 28.4368 30.9204 28.3928C30.9204 28.1856 30.7525 28.0178 30.5454 28.0178C30.3383 28.0178 30.1704 28.1856 30.1704 28.3928C30.1704 28.5999 30.3383 28.7678 30.5454 28.7678C30.5895 28.7678 30.6311 28.7588 30.6703 28.7448C30.7412 28.6643 30.817 28.5886 30.8975 28.5177Z" fill="#D2D2D2"/>
<path d="M30.6706 32.0407C30.6313 32.0268 30.5897 32.0177 30.5457 32.0177C30.3385 32.0177 30.1707 32.1856 30.1707 32.3927C30.1707 32.5999 30.3385 32.7677 30.5457 32.7677C30.7528 32.7677 30.9207 32.5999 30.9207 32.3927C30.9207 32.3488 30.9117 32.3071 30.8977 32.2678C30.8172 32.197 30.7415 32.1211 30.6706 32.0407Z" fill="#D2D2D2"/>
<path d="M34.4208 28.7448C34.46 28.7587 34.5016 28.7677 34.5457 28.7677C34.7528 28.7677 34.9207 28.5999 34.9207 28.3927C34.9207 28.1856 34.7528 28.0177 34.5457 28.0177C34.3385 28.0177 34.1707 28.1856 34.1707 28.3927C34.1707 28.4368 34.1796 28.4784 34.1936 28.5176C34.2742 28.5885 34.3499 28.6643 34.4208 28.7448Z" fill="#D2D2D2"/>
<path d="M34.1707 32.3927C34.1707 32.5998 34.3385 32.7677 34.5457 32.7677C34.6612 32.7677 34.7631 32.7144 34.832 32.6323C34.5969 32.5472 34.3774 32.4525 34.1751 32.3488C34.1734 32.3634 34.1707 32.3777 34.1707 32.3927Z" fill="#D2D2D2"/>
<path d="M33.6482 32.0307C33.5956 31.9925 33.564 31.9372 33.5518 31.8782C33.5093 31.8874 33.4655 31.8928 33.4203 31.8928C33.1234 31.8928 32.8752 31.6843 32.8119 31.4062C32.7439 31.475 32.6496 31.5178 32.5453 31.5178C32.4409 31.5178 32.3465 31.475 32.2787 31.4062C32.2154 31.6843 31.9672 31.8928 31.6703 31.8928C31.3256 31.8928 31.0453 31.6125 31.0453 31.2678C31.0453 30.9708 31.2539 30.7228 31.5319 30.6594C31.463 30.5914 31.4203 30.4971 31.4203 30.3928C31.4203 30.2884 31.463 30.1941 31.5319 30.1262C31.2539 30.0629 31.0453 29.8149 31.0453 29.5178C31.0453 29.1731 31.3256 28.8928 31.6703 28.8928C31.9671 28.8928 32.2153 29.1013 32.2787 29.3794C32.3466 29.3106 32.441 29.2678 32.5453 29.2678C32.6497 29.2678 32.744 29.3106 32.8119 29.3794C32.8751 29.1013 33.1233 28.8928 33.4203 28.8928C33.7649 28.8928 34.0453 29.1731 34.0453 29.5178C34.0453 29.8148 33.8367 30.0628 33.5586 30.1262C33.6275 30.1942 33.6703 30.2885 33.6703 30.3928C33.6703 30.4972 33.6275 30.5915 33.5586 30.6594C33.8367 30.7227 34.0453 30.9708 34.0453 31.2678C34.0453 31.3996 34.0038 31.5216 33.9338 31.6226C33.9362 31.6242 33.939 31.6243 33.9414 31.626C34.1031 31.7431 34.2895 31.852 34.4965 31.9515C34.5588 31.8736 34.6155 31.7914 34.6682 31.7065C34.833 31.4411 34.9494 31.1437 35.0052 30.8249C35.0299 30.6843 35.0452 30.5405 35.0452 30.3929C35.0452 29.7614 34.8079 29.1855 34.4203 28.7449C34.3494 28.6645 34.2736 28.5886 34.1931 28.5178C33.7526 28.1302 33.1767 27.8929 32.5452 27.8929C31.9136 27.8929 31.3377 28.1302 30.8972 28.5178C30.8167 28.5887 30.7409 28.6645 30.6701 28.7449C30.2825 29.1855 30.0452 29.7613 30.0452 30.3929C30.0452 31.0244 30.2825 31.6003 30.6701 32.0408C30.741 32.1213 30.8167 32.1972 30.8972 32.268C31.3377 32.6556 31.9136 32.8929 32.5452 32.8929C33.1459 32.8929 33.6975 32.6796 34.1291 32.3252C33.9552 32.2333 33.793 32.1356 33.6482 32.0307ZM34.478 29.887C34.5205 30.0488 34.5454 30.2178 34.5454 30.3927C34.5454 30.5676 34.5205 30.7365 34.478 30.8984C34.4074 30.697 34.2822 30.5234 34.1187 30.3927C34.2822 30.2619 34.4074 30.0884 34.478 29.887ZM33.051 28.4601C32.8497 28.5307 32.6761 28.6559 32.5454 28.8193C32.4145 28.6559 32.2411 28.5307 32.0397 28.4601C32.2015 28.4176 32.3704 28.3927 32.5454 28.3927C32.7204 28.3927 32.8891 28.4176 33.051 28.4601ZM30.6126 29.887C30.6833 30.0884 30.8084 30.262 30.9719 30.3927C30.8084 30.5235 30.6833 30.697 30.6126 30.8984C30.5702 30.7365 30.5453 30.5677 30.5453 30.3927C30.5453 30.2177 30.5702 30.0488 30.6126 29.887ZM32.0396 32.3254C32.241 32.2548 32.4145 32.1296 32.5453 31.9661C32.6761 32.1296 32.8496 32.2549 33.0509 32.3254C32.8891 32.3679 32.7203 32.3928 32.5453 32.3928C32.3703 32.3928 32.2014 32.3678 32.0396 32.3254Z" fill="#E6B432"/>
<path d="M32.1707 30.3926C32.1707 30.1854 32.0028 30.0176 31.7957 30.0176C31.6929 30.0176 31.6 30.0591 31.5323 30.126C31.4634 30.1939 31.4207 30.2883 31.4207 30.3926C31.4207 30.497 31.4634 30.5913 31.5323 30.6592C31.6 30.7261 31.6929 30.7676 31.7957 30.7676C32.0028 30.7676 32.1707 30.5997 32.1707 30.3926Z" fill="#F0C814"/>
<path d="M32.9207 30.3926C32.9207 30.5997 33.0885 30.7676 33.2957 30.7676C33.3984 30.7676 33.4914 30.7261 33.559 30.6592C33.6279 30.5912 33.6707 30.4969 33.6707 30.3926C33.6707 30.2882 33.6279 30.1938 33.559 30.126C33.4913 30.0591 33.3984 30.0176 33.2957 30.0176C33.0885 30.0176 32.9207 30.1854 32.9207 30.3926Z" fill="#F0C814"/>
<path d="M32.5457 30.0176C32.7528 30.0176 32.9207 29.8497 32.9207 29.6426C32.9207 29.5399 32.8792 29.4469 32.8123 29.3792C32.7443 29.3104 32.65 29.2676 32.5457 29.2676C32.4413 29.2676 32.3469 29.3104 32.2791 29.3792C32.2122 29.447 32.1707 29.5399 32.1707 29.6426C32.1707 29.8497 32.3385 30.0176 32.5457 30.0176Z" fill="#F0C814"/>
<path d="M32.5457 30.7676C32.3385 30.7676 32.1707 30.9355 32.1707 31.1426C32.1707 31.2454 32.2122 31.3383 32.2791 31.406C32.347 31.4749 32.4414 31.5176 32.5457 31.5176C32.6501 31.5176 32.7444 31.4749 32.8123 31.406C32.8792 31.3383 32.9207 31.2454 32.9207 31.1426C32.9207 30.9355 32.7528 30.7676 32.5457 30.7676Z" fill="#F0C814"/>
<path d="M44.0312 19.4078C44.0676 19.4441 44.1096 19.4713 44.1543 19.4894C44.1998 19.5081 44.248 19.5176 44.2964 19.5176C44.3923 19.5176 44.4883 19.4809 44.5614 19.4076C44.6914 19.2776 44.6992 19.0794 44.5986 18.9333L44.7369 18.3805C44.7565 18.3854 44.7753 18.3924 44.7964 18.3924C44.9345 18.3924 45.0464 18.2805 45.0464 18.1424C45.0464 18.0043 44.9345 17.8924 44.7964 17.8924C44.6583 17.8924 44.5464 18.0043 44.5464 18.1424C44.5464 18.1635 44.5535 18.1822 44.5583 18.2018L44.0055 18.3401C43.8594 18.2394 43.661 18.2473 43.5311 18.3773C43.422 18.4865 43.3946 18.6461 43.4482 18.781C43.4666 18.827 43.4938 18.8704 43.5311 18.9077L44.0312 19.4078Z" fill="#D2D2D2"/>
<path d="M37.796 25.2891V25.1426V24.1426C37.796 24.0844 37.8191 24.0334 37.8524 23.9909L32.6441 18.7812C32.6257 18.8272 32.5985 18.8706 32.5612 18.9079L32.0612 19.4079C32.0249 19.4442 31.9829 19.4714 31.9381 19.4895L32.8651 20.4168L31.5105 21.7714L32.3943 22.6551L32.7478 22.3016L32.571 22.1248L32.9246 21.7713L33.1013 21.948L33.2782 21.7713L33.6317 22.1248L33.4549 22.3016L33.6317 22.4784L33.2782 22.8319L33.1013 22.6551L32.7478 23.0087L33.6316 23.8925L34.9859 22.5382L37.1002 24.653C37.1449 24.6631 37.1879 24.6809 37.2227 24.7156L37.796 25.2891Z" fill="#D2D2D2"/>
<path d="M38.3696 25.9227L38.8495 26.4027L40.5675 28.1212C40.6651 28.2188 40.793 28.2677 40.9212 28.2677C41.0491 28.2677 41.177 28.2188 41.2747 28.1212C41.4701 27.9262 41.4701 27.6095 41.2748 27.4141L39.0769 25.2155L38.3696 25.9227Z" fill="#D2D2D2"/>
<path d="M38.2959 25.1427V25.2891L38.723 24.862L38.2959 24.4348V25.1427Z" fill="#D2D2D2"/>
<path d="M45.4212 28.7447C45.4605 28.7586 45.5021 28.7677 45.5461 28.7677C45.7533 28.7677 45.9211 28.5998 45.9211 28.3927C45.9211 28.1855 45.7533 28.0177 45.5461 28.0177C45.339 28.0177 45.1711 28.1855 45.1711 28.3927C45.1711 28.4367 45.1801 28.4783 45.1941 28.5176C45.2747 28.5885 45.3503 28.6643 45.4212 28.7447Z" fill="#D2D2D2"/>
<path d="M45.5461 32.0177C45.5021 32.0177 45.4605 32.0267 45.4212 32.0406C45.3503 32.1211 45.2746 32.197 45.1941 32.2678C45.1802 32.307 45.1711 32.3486 45.1711 32.3927C45.1711 32.5998 45.339 32.7677 45.5461 32.7677C45.7533 32.7677 45.9211 32.5998 45.9211 32.3927C45.9211 32.1855 45.7533 32.0177 45.5461 32.0177Z" fill="#D2D2D2"/>
<path d="M41.8979 28.5176C41.9118 28.4783 41.9209 28.4367 41.9209 28.3927C41.9209 28.1855 41.753 28.0177 41.5459 28.0177C41.3388 28.0177 41.1709 28.1855 41.1709 28.3927C41.1709 28.5998 41.3388 28.7677 41.5459 28.7677C41.5899 28.7677 41.6315 28.7587 41.6708 28.7447C41.7417 28.6643 41.8175 28.5885 41.8979 28.5176Z" fill="#D2D2D2"/>
<path d="M41.546 32.7676C41.7531 32.7676 41.921 32.5998 41.921 32.3926C41.921 32.3776 41.9183 32.3633 41.9166 32.3487C41.7145 32.4525 41.4947 32.5472 41.2598 32.6323C41.3286 32.7144 41.4305 32.7676 41.546 32.7676Z" fill="#D2D2D2"/>
<path d="M45.4203 32.0406C45.8079 31.6001 46.0452 31.0242 46.0452 30.3927C46.0452 29.7611 45.8079 29.1852 45.4203 28.7447C45.3494 28.6643 45.2736 28.5884 45.1931 28.5176C44.7526 28.13 44.1767 27.8927 43.5452 27.8927C42.9136 27.8927 42.3377 28.13 41.8972 28.5176C41.8167 28.5885 41.7409 28.6643 41.6701 28.7447C41.2825 29.1852 41.0452 29.7611 41.0452 30.3927C41.0452 30.541 41.0606 30.6856 41.0855 30.827C41.1416 31.145 41.2578 31.4417 41.4221 31.7063C41.475 31.7914 41.5315 31.8734 41.5938 31.9514C41.8006 31.8519 41.9869 31.7432 42.1486 31.6262C42.151 31.6243 42.1541 31.6242 42.1566 31.6225C42.0867 31.5216 42.0452 31.3995 42.0452 31.2677C42.0452 30.9707 42.2538 30.7227 42.5318 30.6593C42.4629 30.5913 42.4202 30.497 42.4202 30.3927C42.4202 30.2883 42.4629 30.1939 42.5318 30.1261C42.2538 30.0628 42.0452 29.8147 42.0452 29.5177C42.0452 29.1729 42.3255 28.8927 42.6702 28.8927C42.967 28.8927 43.2152 29.1012 43.2786 29.3793C43.3465 29.3104 43.4409 29.2677 43.5452 29.2677C43.6495 29.2677 43.7439 29.3104 43.8118 29.3793C43.8751 29.1012 44.1232 28.8927 44.4202 28.8927C44.7648 28.8927 45.0452 29.1729 45.0452 29.5177C45.0452 29.8146 44.8366 30.0627 44.5585 30.1261C44.6274 30.194 44.6702 30.2884 44.6702 30.3927C44.6702 30.4971 44.6274 30.5914 44.5585 30.6593C44.8366 30.7226 45.0452 30.9707 45.0452 31.2677C45.0452 31.6124 44.7648 31.8927 44.4202 31.8927C44.1233 31.8927 43.8751 31.6842 43.8118 31.406C43.7438 31.4749 43.6495 31.5177 43.5452 31.5177C43.4409 31.5177 43.3464 31.4749 43.2786 31.406C43.2152 31.6842 42.9671 31.8927 42.6702 31.8927C42.625 31.8927 42.5809 31.8873 42.5382 31.8781C42.5261 31.9373 42.4945 31.9928 42.4417 32.031C42.2969 32.1358 42.135 32.2334 41.9611 32.3251C42.3926 32.6795 42.9444 32.8928 43.5451 32.8928C44.1766 32.8928 44.7525 32.6555 45.193 32.2679C45.2737 32.197 45.3494 32.1211 45.4203 32.0406ZM41.6125 30.8984C41.5701 30.7366 41.5452 30.5678 41.5452 30.3928C41.5452 30.2178 41.5701 30.0489 41.6125 29.8871C41.6832 30.0885 41.8084 30.2621 41.9718 30.3928C41.8084 30.5235 41.6832 30.697 41.6125 30.8984ZM43.5452 28.8193C43.4143 28.6559 43.2409 28.5307 43.0395 28.4601C43.2013 28.4176 43.3702 28.3927 43.5452 28.3927C43.7202 28.3927 43.889 28.4176 44.0508 28.4601C43.8495 28.5307 43.676 28.6559 43.5452 28.8193ZM45.4779 29.887C45.5204 30.0488 45.5453 30.2178 45.5453 30.3927C45.5453 30.5676 45.5204 30.7365 45.4779 30.8983C45.4073 30.697 45.2821 30.5234 45.1186 30.3927C45.2821 30.2619 45.4073 30.0884 45.4779 29.887ZM43.0395 32.3254C43.2409 32.2548 43.4144 32.1296 43.5452 31.9661C43.676 32.1296 43.8495 32.2549 44.0508 32.3254C43.889 32.3679 43.7202 32.3928 43.5452 32.3928C43.3702 32.3928 43.2013 32.3678 43.0395 32.3254Z" fill="#E6B432"/>
<path d="M43.9197 30.3926C43.9197 30.5997 44.0875 30.7676 44.2947 30.7676C44.3974 30.7676 44.4904 30.7261 44.5581 30.6592C44.6269 30.5912 44.6697 30.4969 44.6697 30.3926C44.6697 30.2882 44.6269 30.1938 44.5581 30.126C44.4903 30.0591 44.3974 30.0176 44.2947 30.0176C44.0875 30.0176 43.9197 30.1854 43.9197 30.3926Z" fill="#F0C814"/>
<path d="M43.1697 30.3926C43.1697 30.1854 43.0018 30.0176 42.7947 30.0176C42.6919 30.0176 42.599 30.0591 42.5313 30.126C42.4625 30.1939 42.4197 30.2883 42.4197 30.3926C42.4197 30.497 42.4625 30.5913 42.5313 30.6592C42.5991 30.7261 42.6919 30.7676 42.7947 30.7676C43.0018 30.7676 43.1697 30.5997 43.1697 30.3926Z" fill="#F0C814"/>
<path d="M43.5447 30.0176C43.7518 30.0176 43.9197 29.8497 43.9197 29.6426C43.9197 29.5399 43.8782 29.4469 43.8113 29.3792C43.7433 29.3104 43.649 29.2676 43.5447 29.2676C43.4404 29.2676 43.3459 29.3104 43.2781 29.3792C43.2112 29.447 43.1697 29.5399 43.1697 29.6426C43.1697 29.8497 43.3376 30.0176 43.5447 30.0176Z" fill="#F0C814"/>
<path d="M43.5447 30.7676C43.3376 30.7676 43.1697 30.9355 43.1697 31.1426C43.1697 31.2454 43.2112 31.3383 43.2781 31.406C43.346 31.4749 43.4404 31.5176 43.5447 31.5176C43.649 31.5176 43.7434 31.4749 43.8113 31.406C43.8782 31.3383 43.9197 31.2454 43.9197 31.1426C43.9197 30.9355 43.7518 30.7676 43.5447 30.7676Z" fill="#F0C814"/>
<path d="M32.5604 18.9078C32.5977 18.8705 32.625 18.8273 32.6433 18.7812C32.6968 18.6462 32.6696 18.4867 32.5604 18.3774C32.4304 18.2475 32.2322 18.2397 32.0861 18.3402L31.5333 18.202C31.5382 18.1823 31.5452 18.1636 31.5452 18.1425C31.5452 18.0044 31.4333 17.8925 31.2952 17.8925C31.1571 17.8925 31.0452 18.0044 31.0452 18.1425C31.0452 18.2806 31.1571 18.3925 31.2952 18.3925C31.3163 18.3925 31.335 18.3854 31.3546 18.3806L31.4929 18.9334C31.3922 19.0795 31.4001 19.2778 31.5301 19.4077C31.6034 19.481 31.6993 19.5177 31.7952 19.5177C31.8435 19.5177 31.8918 19.5081 31.9373 19.4896C31.982 19.4712 32.024 19.4441 32.0603 19.4079L32.5604 18.9078Z" fill="#F7B518"/>
<path d="M42.4418 32.0308C42.4946 31.9926 42.5261 31.9372 42.5384 31.878C42.5519 31.8117 42.5405 31.7407 42.4977 31.6817C42.4185 31.5726 42.2679 31.5474 42.1567 31.6223C42.1542 31.6241 42.1512 31.6242 42.1487 31.626C41.9871 31.743 41.8008 31.8518 41.5939 31.9512C40.8609 32.3039 39.8686 32.539 38.7953 32.6151V29.1036C39.8863 30.5935 40.949 31.3943 41.4222 31.7063C41.2579 31.4417 41.1417 31.145 41.0856 30.827C40.4805 30.3264 39.625 29.4856 38.7953 28.2178V26.5191C38.813 26.4801 38.831 26.4421 38.8486 26.4027L38.3687 25.9227L39.0759 25.2156L39.2219 25.0695C39.3196 24.9718 39.3196 24.8136 39.2219 24.716C39.1591 24.6531 39.0717 24.6351 38.9908 24.6534C38.9462 24.6634 38.9032 24.6813 38.8683 24.716L38.7222 24.8621L38.2951 25.2892V25.1427V24.4347V24.1427C38.2951 24.0845 38.272 24.0335 38.2387 23.991C38.1929 23.9326 38.125 23.8927 38.0451 23.8927C37.9651 23.8927 37.8972 23.9326 37.8514 23.991C37.8181 24.0335 37.7951 24.0845 37.7951 24.1427V25.1427V25.2892L37.2218 24.716C37.1872 24.6813 37.144 24.6634 37.0994 24.6534C37.0185 24.6352 36.9312 24.6531 36.8682 24.716C36.7706 24.8136 36.7706 24.9718 36.8682 25.0695L37.0143 25.2156L37.7215 25.9227L37.2416 26.4027C37.2592 26.4422 37.2772 26.48 37.2949 26.5191V28.2158C36.4661 29.481 35.6103 30.3228 35.005 30.8246C34.949 31.1434 34.8328 31.441 34.6679 31.7061C35.1412 31.3942 36.2038 30.5934 37.2949 29.1034V32.6149C36.2216 32.5389 35.2293 32.3037 34.4962 31.9511C34.2891 31.8515 34.1027 31.7427 33.941 31.6256C33.9386 31.6239 33.9358 31.6238 33.9335 31.6222C33.8222 31.547 33.6714 31.5723 33.5919 31.6813C33.549 31.7405 33.5377 31.8116 33.5514 31.878C33.5636 31.937 33.5952 31.9923 33.6477 32.0304C33.7926 32.1354 33.9548 32.2332 34.1288 32.3249C34.1439 32.3329 34.159 32.3407 34.1743 32.3486C34.3764 32.4524 34.5962 32.5471 34.8312 32.6321C35.5412 32.889 36.3871 33.057 37.2949 33.117V34.9619C37.3687 34.919 37.4534 34.8925 37.5449 34.8925C37.6364 34.8925 37.7211 34.9189 37.7949 34.9619V33.1389C37.878 33.1407 37.9611 33.1424 38.0449 33.1424C38.1287 33.1424 38.2118 33.1406 38.2949 33.1389V33.7119C38.3687 33.669 38.4534 33.6425 38.5449 33.6425C38.6364 33.6425 38.7211 33.6689 38.7949 33.7119V33.117C39.7028 33.057 40.5488 32.889 41.2587 32.6321C41.4937 32.547 41.7133 32.4523 41.9155 32.3485C41.9308 32.3406 41.9459 32.3328 41.961 32.3248C42.1351 32.2334 42.297 32.1356 42.4418 32.0308ZM38.0452 32.6426C37.9616 32.6426 37.8783 32.6409 37.7952 32.6389V28.3722C37.879 28.2407 37.9623 28.1038 38.0452 27.9635C38.1281 28.1039 38.2114 28.2407 38.2952 28.3722V32.6389C38.2122 32.641 38.1289 32.6426 38.0452 32.6426Z" fill="#FF4B55"/>
<path d="M38.0452 18.3371C39.4259 18.3371 40.5452 18.5734 40.5452 18.8649C40.5452 18.3745 40.5452 17.896 40.5452 17.8213C40.5452 17.7066 40.4394 17.5986 40.2544 17.5039L40.3117 17.3894C40.4023 17.3831 40.4777 17.3283 40.5166 17.2519C40.5334 17.2187 40.5454 17.1827 40.5454 17.1427C40.5454 17.0946 40.5283 17.0522 40.5047 17.0142C40.4606 16.9429 40.3854 16.8927 40.2954 16.8927C40.1573 16.8927 40.0454 17.0046 40.0454 17.1427C40.0454 17.1927 40.0639 17.2366 40.0892 17.2757L40.0233 17.4072C39.8347 17.3409 39.6022 17.2846 39.3371 17.2409L39.3652 17.1284C39.4686 17.0978 39.5454 17.0058 39.5454 16.8926C39.5454 16.7545 39.4335 16.6426 39.2954 16.6426C39.1573 16.6426 39.0454 16.7545 39.0454 16.8926C39.0454 16.9631 39.075 17.0261 39.1219 17.0716L39.0885 17.2051C38.9491 17.1876 38.8031 17.1738 38.6516 17.1635C38.6629 17.1165 38.6704 17.068 38.6704 17.0176C38.6704 16.6725 38.3905 16.3926 38.0454 16.3926C37.7003 16.3926 37.4204 16.6725 37.4204 17.0176C37.4204 17.0682 37.4279 17.1165 37.4393 17.1635C37.2875 17.1737 37.1415 17.1876 37.0023 17.2051L36.9689 17.0716C37.0158 17.0261 37.0454 16.9631 37.0454 16.8926C37.0454 16.7545 36.9335 16.6426 36.7954 16.6426C36.6573 16.6426 36.5454 16.7545 36.5454 16.8926C36.5454 17.0059 36.6223 17.0978 36.7256 17.1284L36.7537 17.2409C36.4887 17.2845 36.2562 17.3408 36.0675 17.4072L36.0017 17.2757C36.027 17.2365 36.0454 17.1927 36.0454 17.1427C36.0454 17.0046 35.9335 16.8927 35.7954 16.8927C35.7055 16.8927 35.6301 16.9428 35.5861 17.0142C35.5626 17.0523 35.5454 17.0946 35.5454 17.1427C35.5454 17.1826 35.5572 17.2187 35.5741 17.2519C35.6129 17.3283 35.6884 17.3831 35.779 17.3894L35.8363 17.5039C35.6513 17.5986 35.5455 17.7064 35.5455 17.8213C35.5455 17.8961 35.5455 18.3745 35.5455 18.8649C35.5452 18.5734 36.6645 18.3371 38.0452 18.3371Z" fill="#E6B432"/>
<path d="M35.5452 18.8927L35.5483 18.8914C35.5475 18.883 35.5452 18.8716 35.5452 18.8649C35.5452 18.8743 35.5452 18.8834 35.5452 18.8927Z" fill="#E6B432"/>
<path d="M40.5449 18.8927C40.5449 18.8833 40.5449 18.8741 40.5449 18.8647C40.5449 18.8716 40.5425 18.883 40.5417 18.8913L40.5449 18.8927Z" fill="#E6B432"/>
<path d="M36.0452 19.3927C36.0452 19.4427 36.0267 19.4866 36.0014 19.5257L36.0961 19.7153C36.2616 19.6332 36.4875 19.5628 36.7578 19.5088L36.7252 19.3786C36.6219 19.348 36.5451 19.256 36.5451 19.1428C36.5451 19.0047 36.657 18.8928 36.7951 18.8928C36.9332 18.8928 37.0451 19.0047 37.0451 19.1428C37.0451 19.2133 37.0155 19.2763 36.9686 19.3218L37.0047 19.4659C37.2459 19.4299 37.5124 19.4059 37.7952 19.397V19.1705C37.719 19.1019 37.6702 19.0035 37.6702 18.8928C37.6702 18.6857 37.838 18.5178 38.0452 18.5178C38.2523 18.5178 38.4202 18.6857 38.4202 18.8928C38.4202 19.0034 38.3713 19.1019 38.2952 19.1705V19.397C38.5779 19.406 38.8444 19.43 39.0856 19.4659L39.1217 19.3218C39.0749 19.2763 39.0453 19.2133 39.0453 19.1428C39.0453 19.0047 39.1572 18.8928 39.2953 18.8928C39.4333 18.8928 39.5453 19.0047 39.5453 19.1428C39.5453 19.2561 39.4684 19.348 39.3651 19.3786L39.3326 19.5088C39.6028 19.5628 39.8289 19.6334 39.9942 19.7153L40.0889 19.5257C40.0636 19.4865 40.0452 19.4427 40.0452 19.3927C40.0452 19.2546 40.1571 19.1427 40.2952 19.1427C40.3549 19.1427 40.4077 19.1666 40.4506 19.2017C40.5063 19.0651 40.5359 18.9566 40.542 18.8915C40.5428 18.8831 40.5452 18.8718 40.5452 18.8651C40.5452 18.5735 39.4258 18.3372 38.0452 18.3372C36.6645 18.3372 35.5452 18.5735 35.5452 18.8651C35.5452 18.8719 35.5475 18.8832 35.5483 18.8915C35.5543 18.9566 35.5839 19.0651 35.6396 19.2017C35.6826 19.1666 35.7353 19.1427 35.7951 19.1427C35.9333 19.1427 36.0452 19.2547 36.0452 19.3927Z" fill="#EBEBEB"/>
<path d="M35.5452 19.3926C35.5452 19.5249 35.6487 19.6304 35.7787 19.6393L35.8866 19.855C35.8281 19.9124 35.7951 19.9727 35.7951 20.0354C35.7951 20.1075 35.8385 20.1767 35.9152 20.2415L36.2951 20.8926C36.2951 20.6165 37.0786 20.3926 38.0451 20.3926C39.0116 20.3926 39.7951 20.6165 39.7951 20.8926L40.175 20.2415C40.2517 20.1767 40.2951 20.1077 40.2951 20.0354C40.2951 19.9727 40.2622 19.9124 40.2036 19.855L40.3115 19.6393C40.4415 19.6303 40.5451 19.5249 40.5451 19.3926C40.5451 19.3144 40.5069 19.2474 40.4505 19.2016C40.4076 19.1666 40.3548 19.1426 40.2951 19.1426C40.157 19.1426 40.0451 19.2545 40.0451 19.3926C40.0451 19.4426 40.0635 19.4866 40.0888 19.5256L39.9941 19.7152C39.8287 19.6332 39.6027 19.5627 39.3325 19.5087L39.365 19.3786C39.4683 19.3479 39.5452 19.2559 39.5452 19.1427C39.5452 19.0046 39.4333 18.8927 39.2952 18.8927C39.1571 18.8927 39.0452 19.0046 39.0452 19.1427C39.0452 19.2132 39.0748 19.2762 39.1216 19.3217L39.0855 19.4659C38.8443 19.4298 38.5779 19.4058 38.2951 19.3969V19.1705C38.3712 19.1018 38.4201 19.0035 38.4201 18.8927C38.4201 18.6856 38.2522 18.5177 38.0451 18.5177C37.8379 18.5177 37.6701 18.6856 37.6701 18.8927C37.6701 19.0034 37.7189 19.1018 37.7951 19.1705V19.3969C37.5124 19.4059 37.2458 19.4299 37.0046 19.4659L36.9685 19.3217C37.0154 19.2762 37.045 19.2132 37.045 19.1427C37.045 19.0046 36.9331 18.8927 36.795 18.8927C36.6569 18.8927 36.545 19.0046 36.545 19.1427C36.545 19.256 36.6218 19.3479 36.7251 19.3786L36.7577 19.5087C36.4874 19.5627 36.2614 19.6334 36.096 19.7152L36.0013 19.5256C36.0266 19.4865 36.0451 19.4426 36.0451 19.3926C36.0451 19.2545 35.9332 19.1426 35.7951 19.1426C35.7353 19.1426 35.6826 19.1666 35.6396 19.2016C35.5833 19.2474 35.5452 19.3144 35.5452 19.3926Z" fill="#E6B432"/>
<path d="M38.0452 21.3931C39.0117 21.3931 39.7952 21.1692 39.7952 20.8931C39.7952 20.617 39.0117 20.3931 38.0452 20.3931C37.0787 20.3931 36.2952 20.617 36.2952 20.8931C36.2952 21.1692 37.0787 21.3931 38.0452 21.3931Z" fill="#EBEBEB"/>
<path d="M40.4853 16.6329L40.0452 15.6427C40.0452 15.5802 39.9973 15.5206 39.9134 15.4654L40.2687 14.7546C40.3305 14.631 40.2805 14.4808 40.1569 14.4191C40.0331 14.3578 39.8832 14.4077 39.8215 14.5309L39.6284 14.9172L39.4441 15.2857C39.3381 15.2598 39.2198 15.237 39.0929 15.2174L39.115 15.1286C39.2184 15.0979 39.2952 15.0059 39.2952 14.8928C39.2952 14.7547 39.1833 14.6428 39.0452 14.6428C38.9071 14.6428 38.7952 14.7547 38.7952 14.8928C38.7952 14.9633 38.8248 15.0263 38.8717 15.0718L38.8435 15.1845C38.5988 15.1577 38.3291 15.1428 38.0452 15.1428C37.7612 15.1428 37.4915 15.1577 37.247 15.1845L37.2187 15.0718C37.2656 15.0263 37.2952 14.9633 37.2952 14.8928C37.2952 14.7547 37.1833 14.6428 37.0452 14.6428C36.9071 14.6428 36.7952 14.7547 36.7952 14.8928C36.7952 15.006 36.8721 15.0979 36.9754 15.1286L36.9976 15.2174C36.8705 15.237 36.7523 15.2598 36.6462 15.2857L36.4619 14.9172L36.2688 14.5309C36.207 14.4077 36.0573 14.3579 35.9334 14.4191C35.8099 14.4808 35.7598 14.631 35.8216 14.7546L36.177 15.4654C36.0932 15.5206 36.0451 15.5802 36.0451 15.6427L35.605 16.6329C35.8519 16.3526 36.8497 16.1427 38.0451 16.1427C39.2406 16.1427 40.2385 16.3525 40.4853 16.6329Z" fill="#E6B432"/>
<path d="M38.0454 15.1431C38.2525 15.1431 38.4204 14.9752 38.4204 14.7681C38.4204 14.561 38.2525 14.3931 38.0454 14.3931C37.8383 14.3931 37.6704 14.561 37.6704 14.7681C37.6704 14.9752 37.8383 15.1431 38.0454 15.1431Z" fill="#E6B432"/>
</g>
<defs>
<clipPath id="clip0_108_46427">
<rect width="50" height="50" fill="white" transform="translate(0.441406 0.32373)"/>
</clipPath>
</defs>
</svg>
