<svg width="51" height="51" viewBox="0 0 51 51" fill="none" xmlns="http://www.w3.org/2000/svg">
<g clip-path="url(#clip0_108_46409)">
<path d="M49.3004 41.703H1.02471C0.548632 41.703 0.162598 41.317 0.162598 40.8409V9.8065C0.162598 9.33043 0.548632 8.9444 1.02471 8.9444H49.3005C49.7766 8.9444 50.1626 9.33043 50.1626 9.8065V40.8409C50.1625 41.3171 49.7765 41.703 49.3004 41.703Z" fill="#FF4B55"/>
<path d="M25.5648 15.5552L27.8703 22.4682L35.1575 22.5247C35.565 22.5278 35.7339 23.0478 35.4062 23.2899L29.544 27.6189L31.7421 34.5668C31.8651 34.9553 31.4227 35.2768 31.0911 35.0398L25.1625 30.8022L19.2338 35.0398C18.9024 35.2767 18.46 34.9553 18.5829 34.5668L20.781 27.6189L14.9188 23.2899C14.591 23.0479 14.76 22.5278 15.1674 22.5247L22.4546 22.4682L24.7602 15.5552C24.8892 15.1686 25.4359 15.1686 25.5648 15.5552Z" fill="#FFE15A"/>
</g>
<defs>
<clipPath id="clip0_108_46409">
<rect width="50" height="50" fill="white" transform="translate(0.162109 0.32373)"/>
</clipPath>
</defs>
</svg>
