<svg width="51" height="51" viewBox="0 0 51 51" fill="none" xmlns="http://www.w3.org/2000/svg">
<g clip-path="url(#clip0_108_46384)">
<path d="M49.7274 41.7029H1.45171C0.975634 41.7029 0.5896 41.3169 0.5896 40.8408V9.8065C0.5896 9.33043 0.975634 8.9444 1.45171 8.9444H49.7275C50.2036 8.9444 50.5896 9.33043 50.5896 9.8065V40.8408C50.5895 41.317 50.2035 41.7029 49.7274 41.7029Z" fill="#F5F5F5"/>
<path d="M39.5598 28.6446L39.8744 29.7484L40.9679 26.4987L37.935 28.0979L39.0749 28.232L35.4349 32.509L35.4034 32.4184L38.3106 26.3986L38.8936 27.3873L39.1315 23.9669L36.6004 26.2797L37.7372 26.1217L34.83 32.1415L34.7393 32.1731L35.8262 26.6629L36.6399 27.4724L36.0066 24.1028L34.1414 26.9796L35.2015 26.5397L34.0296 32.4811L33.6471 33.2733L33.2349 33.5497L33.0653 34.4093L31.6238 36.1031L32.7492 36.0125L32.545 37.0477L32.943 36.7809L32.9815 37.2584L33.6653 36.455L34.294 37.3926L34.7244 35.2105L35.2922 34.5433L35.2524 34.0485L35.635 33.2564L39.5598 28.6446Z" fill="#4173CD"/>
<path d="M13.3745 25.4144C13.4981 24.8585 13.4215 24.3378 13.2098 24.0171C12.8819 24.2179 12.5919 24.6571 12.4683 25.2129C12.411 25.4704 12.4008 25.718 12.423 25.944L11.7425 24.9293C12.0196 24.7033 12.2582 24.3164 12.3665 23.8295C12.4901 23.2737 12.4135 22.7529 12.2018 22.4323C11.8739 22.6331 11.5839 23.0722 11.4603 23.6281C11.3944 23.9241 11.3888 24.2074 11.4268 24.4586L10.9666 23.7726C10.9896 23.4243 10.8826 23.0005 10.6259 22.5967C10.3203 22.1163 9.89785 21.8022 9.52139 21.7252C9.43164 22.0989 9.53701 22.6146 9.84258 23.095C10.1022 23.5033 10.4453 23.7812 10.7739 23.9058L11.1956 24.6058C10.9841 24.4649 10.7251 24.3499 10.429 24.284C9.87314 24.1604 9.35234 24.2371 9.03174 24.4488C9.23252 24.7765 9.67168 25.0667 10.2275 25.1903C10.7144 25.2986 11.166 25.2465 11.4882 25.0913L12.1187 26.1379C11.9233 26.022 11.6948 25.9263 11.4373 25.869C10.8814 25.7454 10.3606 25.822 10.04 26.0337C10.2408 26.3615 10.68 26.6516 11.2358 26.7752C11.7018 26.879 12.1356 26.8356 12.4551 26.696L13.0356 27.6597C12.8561 27.5628 12.6563 27.4797 12.43 27.4294C11.8741 27.3058 11.3533 27.3825 11.0327 27.5942C11.2335 27.9219 11.6727 28.2121 12.2285 28.3357C12.674 28.4347 13.0916 28.4008 13.407 28.2761L13.967 29.2055C13.8061 29.1268 13.6329 29.0578 13.4382 29.0145C12.8823 28.8909 12.3615 28.9675 12.0409 29.1792C12.2417 29.507 12.6809 29.7971 13.2367 29.9207C13.6613 30.0152 14.0638 29.9914 14.3739 29.881L14.884 30.7275C14.7436 30.6656 14.5945 30.6115 14.4309 30.575C13.8751 30.4514 13.3543 30.5281 13.0337 30.7398C13.2345 31.0675 13.6736 31.3577 14.2295 31.4813C14.6345 31.5713 15.0187 31.5529 15.3225 31.4554L16.9425 34.1442L17.6305 33.7065L15.8817 31.0996C16.0987 30.8655 16.2784 30.5254 16.3684 30.1205C16.4921 29.5646 16.4154 29.0438 16.2037 28.7232C15.8759 28.924 15.5858 29.3631 15.4622 29.9189C15.4258 30.0825 15.4116 30.2405 15.4082 30.3937L14.8578 29.5731C15.0891 29.3389 15.2814 28.9845 15.3758 28.5599C15.4994 28.0041 15.4227 27.4833 15.211 27.1626C14.8832 27.3634 14.5932 27.8026 14.4695 28.3584C14.4262 28.5532 14.4154 28.7393 14.4184 28.9182L13.8142 28.0172C14.0608 27.7842 14.2685 27.4205 14.3677 26.9751C14.4913 26.4193 14.4146 25.8985 14.2029 25.5779C13.8751 25.7787 13.5851 26.2178 13.4614 26.7737C13.4111 27 13.4017 27.2162 13.4133 27.4197L12.7865 26.4854C13.0478 26.2548 13.2709 25.8802 13.3745 25.4144Z" fill="#73AF00"/>
<path d="M20.417 25.3237L19.5549 20.1514H19.4215C18.6389 20.1514 18.0862 19.3847 18.3338 18.6422L18.3366 18.6339C18.5344 18.0405 18.2202 17.3982 17.6304 17.1901L5.79384 13.0126C5.12295 12.7758 4.49101 13.4505 4.77129 14.1045L6.05488 17.0995C6.42421 17.9611 7.06425 18.6789 7.87812 19.144L11.1616 21.0203C12.1425 21.5807 13.2525 21.8756 14.3822 21.8756H14.3824L14.6769 22.4645C15.5532 24.2168 17.3442 25.3237 19.3034 25.3237H20.417Z" fill="#FFE15A"/>
<path d="M30.761 25.3237L31.6231 20.1514H31.7565C32.539 20.1514 33.0917 19.3847 32.8442 18.6422L32.8414 18.6339C32.6436 18.0405 32.9578 17.3982 33.5475 17.1901L45.3793 13.0142C46.0521 12.7767 46.6857 13.4533 46.4046 14.1091L45.1231 17.0994C44.7537 17.961 44.1137 18.6788 43.2998 19.1439L40.0163 21.0202C39.0355 21.5807 37.9254 21.8755 36.7957 21.8755H36.7954L36.5009 22.4644C35.6247 24.2168 33.8338 25.3237 31.8747 25.3237H30.761Z" fill="#FFE15A"/>
<path d="M29.0371 19.2892L26.8987 14.2997C26.627 13.6657 26.0037 13.2547 25.314 13.2547H24.7267L23.8646 14.1168H23.0025L22.1404 14.9789H23.3434C23.6484 14.9789 23.8541 15.2908 23.7339 15.5712L22.1404 19.2893H29.0371V19.2892Z" fill="#FFE15A"/>
<path d="M23.0024 27.9099L21.2783 25.3237L19.6994 26.9026C19.037 27.565 18.5379 28.3726 18.2417 29.2613L17.8301 30.4961L16.9679 31.3582H15.8474C15.4775 31.3582 15.1392 31.5672 14.9738 31.898L14.7307 32.3842C14.5704 32.7049 14.8036 33.0822 15.1621 33.0822H16.9679L17.5427 31.9328L20.2911 30.5586C20.374 30.5171 20.4496 30.4626 20.5151 30.397L23.0024 27.9099Z" fill="#FFE15A"/>
<path d="M28.1748 27.9099L29.8989 25.3237L31.4778 26.9026C32.1402 27.565 32.6393 28.3726 32.9355 29.2613L33.3472 30.4961L34.2093 31.3582H35.3298C35.6997 31.3582 36.038 31.5672 36.2034 31.898L36.4465 32.3842C36.6068 32.7049 36.3736 33.0822 36.0151 33.0822H34.2093L33.6346 31.9328L30.8862 30.5586C30.8033 30.5171 30.7277 30.4626 30.6622 30.397L28.1748 27.9099Z" fill="#FFE15A"/>
<path d="M23.0025 28.7719L20.9074 32.2637C20.6248 32.7348 20.7275 33.3416 21.1495 33.6932L24.331 36.3444C25.0595 36.9516 26.1177 36.9516 26.8461 36.3444L30.0276 33.6932C30.4497 33.3414 30.5524 32.7347 30.2697 32.2637L28.1748 28.7719H23.0025Z" fill="#FFE15A"/>
<path d="M25.5894 18.4271C25.5894 18.4271 23.0032 19.2892 19.5549 18.4271C19.5549 18.4271 19.5549 20.1512 19.5549 21.8754C19.5549 23.5995 20.417 28.7719 25.5894 30.496C30.7617 28.7719 31.6238 23.5995 31.6238 21.8754C31.6238 20.1512 31.6238 18.4271 31.6238 18.4271C28.1756 19.2892 25.5894 18.4271 25.5894 18.4271Z" fill="#F5F5F5"/>
<path d="M25.5894 18.4271C25.5894 18.4271 23.0032 19.2892 19.5549 18.4271C19.5549 18.4271 19.5549 20.1512 19.5549 21.8754H31.6238C31.6238 20.1512 31.6238 18.4271 31.6238 18.4271C28.1756 19.2892 25.5894 18.4271 25.5894 18.4271Z" fill="#41479B"/>
<path d="M21.3574 27.3905V21.8755H20.417V25.7128C20.6613 26.2742 20.9683 26.8425 21.3574 27.3905Z" fill="#FF4B55"/>
<path d="M23.2385 21.8755H22.2981V28.4925C22.5829 28.7747 22.8942 29.0432 23.2385 29.2932V21.8755Z" fill="#FF4B55"/>
<path d="M29.8215 27.3905C30.2107 26.8424 30.5176 26.2741 30.762 25.7128V21.8755H29.8215V27.3905Z" fill="#FF4B55"/>
<path d="M25.1194 21.8755H24.179V29.8767C24.4735 30.0355 24.7874 30.1799 25.1194 30.3112V21.8755Z" fill="#FF4B55"/>
<path d="M28.8811 21.8755H27.9407V29.2933C28.285 29.0433 28.5962 28.7748 28.8811 28.4926V21.8755Z" fill="#FF4B55"/>
<path d="M27.0002 29.8767V21.8755H26.0598V30.3112C26.3918 30.1799 26.7057 30.0355 27.0002 29.8767Z" fill="#FF4B55"/>
<path d="M16.5254 32.06L15.9133 32.4367L16.9418 34.144L17.6298 33.7064L16.5254 32.06Z" fill="#73AF00"/>
<path d="M35.6132 33.302L35.0724 32.2204H34.0813L34.03 32.4812L33.6474 33.2735L33.2352 33.5499L33.0655 34.4095L31.624 36.1033L32.7494 36.0127L32.5452 37.0478L32.9433 36.781L32.9817 37.2586L33.6655 36.4552L34.2942 37.3927L34.7246 35.2106L35.2925 34.5434L35.2526 34.0487L35.6132 33.302Z" fill="#4173CD"/>
<path d="M8.84071 21.8755H6.62392L6.82284 22.4724L5.51552 27.0479L4.2082 22.4724L4.40722 21.8755H2.19043L2.7873 22.6713L4.60615 29.0374L4.40722 29.6341H6.62392L6.42499 29.0374L8.24384 22.6713L8.84071 21.8755Z" fill="#4173CD"/>
<path d="M46.4024 22.4297L46.772 21.8755H46.4024H44.9247H44.5552L44.9247 22.4297V29.08L44.5552 29.6341H44.9247H46.4024H46.772L46.4024 29.08V22.4297Z" fill="#4173CD"/>
</g>
<defs>
<clipPath id="clip0_108_46384">
<rect width="50" height="50" fill="white" transform="translate(0.589844 0.32373)"/>
</clipPath>
</defs>
</svg>
