<svg width="51" height="51" viewBox="0 0 51 51" fill="none" xmlns="http://www.w3.org/2000/svg">
<g clip-path="url(#clip0_108_46374)">
<path d="M50.8834 25.3237H0.883545V9.80644C0.883545 9.33037 1.26958 8.94434 1.74565 8.94434H50.0214C50.4975 8.94434 50.8835 9.33037 50.8835 9.80644L50.8834 25.3237Z" fill="#F5F5F5"/>
<path d="M0.883545 25.3237H50.8834V40.8409C50.8834 41.317 50.4974 41.703 50.0213 41.703H1.74565C1.26958 41.703 0.883545 41.317 0.883545 40.8409V25.3237Z" fill="#73AF00"/>
<path d="M38.9208 18.5304C38.9208 18.5304 39.5167 20.1648 39.5677 20.25L39.6358 20.1138L40.0444 17.9856L41.1 16.0106L40.7935 16.0446L38.3928 17.2024C38.3928 17.2024 36.9627 18.7688 36.9457 18.8198C36.9287 18.8709 38.9208 18.5304 38.9208 18.5304Z" fill="#FF4B55"/>
<path d="M39.7654 34.1602C39.686 34.1488 38.5054 34.2056 38.5054 34.2056L38.1196 32.9116L37.8983 30.4657L38.3154 30.355L38.8347 30.6019L39.022 29.6229C39.022 29.6229 38.5709 29.1291 38.4857 29.0951C38.4006 29.061 37.3791 28.8312 37.3791 28.8312L36.0085 27.018L37.6429 26.1072L38.9199 24.3535L39.2263 22.7701L38.971 21.459L38.3902 20.4868C38.3816 20.459 38.375 20.4375 38.375 20.4375C38.3709 20.4324 38.3565 20.4226 38.3474 20.415L38.2388 20.2332L38.2371 20.3392C37.9852 20.1819 37.4697 19.9083 37.3364 19.8416C37.1662 19.7564 36.2638 19.6032 36.0764 19.7394C35.8891 19.8756 35.0209 20.2842 34.8677 20.5737C34.7144 20.8631 34.6123 21.9017 34.6123 21.9017C34.6123 21.9017 34.8677 22.4806 35.1912 22.6167C35.5147 22.753 36.1446 22.9062 36.2468 22.8721C36.3349 22.8427 37.3344 22.5474 37.607 22.4232L37.728 22.6678L37.6769 23.3659L37.1151 23.7575L36.0765 24.1661C36.0765 24.1661 34.4931 23.7234 34.4251 23.7404C34.357 23.7574 32.399 23.1615 32.399 23.1615L30.5602 22.7358L31.1731 22.4293L32.8417 22.3102C32.8417 22.3102 33.1652 20.4204 33.2163 20.3863C33.2674 20.3522 34.357 19.4839 34.357 19.4839L35.2594 19.2626L34.7145 16.9527L35.5318 14.4329L33.3978 15.0458L30.0154 15.8857L27.8589 15.7495L25.952 16.3624L24.7261 17.4748L24.0223 18.4282L23.7726 19.9492L23.6136 21.9697L23.0233 23.0821L22.3546 23.6063C22.2796 23.4083 21.9281 22.6508 21.9281 22.6508L22.7794 22.4465L22.5581 21.8847L21.9622 21.442L22.1495 20.761L22.8306 21.1356L23.0179 21.2718L23.137 20.5738L22.3879 19.5182L22.507 18.9904L23.4094 19.4671L23.3072 18.2413L22.507 17.7475L22.5581 17.0665L23.4321 17.3275L23.3413 16.6805L22.3879 15.988L23.3186 14.4898L22.1835 14.5466L22.0927 14.0585L21.7977 13.9449C21.7977 13.9449 20.2198 14.6146 20.1064 14.5919C19.9929 14.5692 18.733 14.399 18.5854 14.4331C18.4378 14.4671 17.9156 14.6033 17.9156 14.6033L17.768 15.1822L16.8032 15.0234L15.3731 14.9043L14.9417 15.4321L15.6228 15.7045C15.6228 15.7045 15.464 16.9077 15.5093 16.9985C15.5547 17.0892 15.9633 17.6795 15.9633 17.6795L15.0326 18.9507L15.9861 19.087L17.3027 18.8827L17.2572 19.2005L19.0053 19.0189L18.6192 19.2232L18.1199 20.7214L16.667 23.6726L16.1563 26.2946L15.339 25.4433L14.7942 23.1958L13.9769 20.9825C13.9769 20.9825 13.8067 20.3014 13.7044 20.2844C13.6023 20.2674 13.1596 20.1823 13.1596 20.1823L12.5978 20.6419L11.8827 20.5398L11.4741 21.1016L11.9338 21.8166C11.9338 21.8166 11.1676 22.1231 11.1676 22.2083C11.1676 22.2934 11.2187 22.7872 11.2698 22.8041C11.3208 22.8211 12.4785 22.7872 12.4785 22.7872L13.1766 24.03L12.6318 25.4602L12.9042 26.005L13.381 26.0731L13.8237 25.5623L15.356 30.1423C15.356 30.1423 15.2368 30.7382 15.1517 30.7893C15.0665 30.8404 14.6579 31.3 14.7601 31.3C14.8622 31.3 15.4922 31.3852 15.5603 31.3511C15.6283 31.317 16.5137 30.6361 16.5137 30.6361C16.5137 30.6361 17.9098 29.5634 17.9949 29.6486C18.0801 29.7337 19.4081 30.5509 19.4081 30.5509L18.7952 32.6621L17.3481 34.7734L16.4457 34.2285L15.7987 33.3091L15.322 33.4623L15.1518 33.7518L15.2198 34.3647C15.2198 34.3647 14.7261 34.7563 14.7261 34.8414C14.7261 34.9266 14.7772 35.5395 14.7772 35.5395C14.7772 35.5395 15.1007 35.6927 15.1177 35.7779C15.1347 35.863 15.305 36.4759 15.305 36.4759L15.6455 36.595L16.2925 36.2034H17.3652L18.0291 36.3056L19.4423 35.8629L21.5024 35.9651L21.3151 35.5735C21.3151 35.5735 20.4809 35.1478 20.1914 35.0627C19.902 34.9776 19.6125 34.9095 19.6125 34.9095L19.4934 34.3136L21.5194 31.9129L22.2686 31.7597L22.5239 32.3897C22.5239 32.3897 23.3639 32.1854 23.3639 32.1172C23.3639 32.0492 23.3639 31.3226 23.3639 31.2545C23.3639 31.1865 23.1822 30.619 23.1822 30.619C23.1822 30.619 23.1798 30.5981 23.1762 30.5669L23.8179 30.46L26.0426 29.3931L26.8258 30.3352L27.8019 30.8005L26.5874 32.9798L25.5432 33.6836L24.794 33.3431L23.7497 32.5712L23.3411 32.821L23.4319 33.5929L22.819 33.5475L22.5466 34.0923L23.0006 34.7506L22.8416 35.2728C22.8416 35.2728 22.9552 35.7495 23.0687 35.7495C23.1821 35.7495 23.8632 35.4997 23.8632 35.4997L25.8609 35.3409L27.3139 34.8642L28.8349 34.9778C28.8349 34.9778 29.13 33.9562 29.0619 33.9562C28.9938 33.9562 28.9711 33.9334 28.7894 33.9334C28.6078 33.9334 27.9722 33.9562 27.9722 33.9562L27.9493 33.7288L28.4487 32.8207L30.3783 31.2089L30.9459 31.3225L31.1502 31.6175L31.7178 31.1863L31.695 30.4598L31.1957 29.9377L30.6962 29.3474L30.8552 28.462L31.7178 28.8706C31.7178 28.8706 33.0799 29.8241 33.1932 29.8696C33.3068 29.915 35.9401 30.5959 35.9401 30.5959L36.4849 31.8899L36.2125 33.9329L35.3725 33.6832L34.578 32.6616C34.578 32.6616 34.351 32.5481 34.2375 32.5708C34.124 32.5936 33.8516 33.0476 33.8516 33.0476L34.1241 33.6832L33.7608 33.7967L33.4203 34.0238L33.3522 34.5005L33.67 34.7955C33.67 34.7955 33.67 35.3404 33.67 35.4084C33.67 35.4765 33.8516 35.7263 33.9198 35.7489C33.9879 35.7716 34.51 35.8397 34.6348 35.8284C34.7597 35.817 35.6904 35.4312 35.6904 35.4312C35.6904 35.4312 37.4384 35.4653 37.4839 35.4539C37.5294 35.4425 39.0389 35.1134 39.0389 35.1134L39.8902 35.2496C39.8902 35.2496 40.4578 34.8183 40.435 34.7614C40.4124 34.705 39.8448 34.1715 39.7654 34.1602ZM36.502 21.8674C36.0424 21.9185 35.804 22.0547 35.7699 21.7994C35.7358 21.544 35.7358 21.0332 35.7869 21.0162C35.838 20.9992 36.3658 20.6926 36.3828 20.7437C36.3998 20.7948 36.9276 21.0501 36.9276 21.0501L37.2491 21.6999C37.0795 21.79 36.8179 21.8323 36.502 21.8674Z" fill="#FF4B55"/>
<path d="M13.2967 17.6962C13.2967 17.6962 13.484 16.7257 13.5351 16.7257C13.5861 16.7257 14.2842 16.4703 14.2842 16.4703L12.207 15.1253C12.207 15.1253 12.5646 16.7767 12.5986 16.913C12.6326 17.0491 13.2967 17.6962 13.2967 17.6962Z" fill="#FF4B55"/>
<path d="M18.5791 15.6988C18.5863 15.7005 18.6277 15.7097 18.691 15.7222L18.6754 15.7902C18.6498 15.8998 18.7184 16.0099 18.8286 16.0349C18.844 16.0388 18.8594 16.0402 18.8746 16.0402C18.9674 16.0402 19.0517 15.9764 19.0733 15.8817L19.0952 15.7866C19.2423 15.8048 19.4044 15.8189 19.5609 15.8189C19.6931 15.8189 19.8209 15.8094 19.9307 15.7838C20.0406 15.7582 20.1092 15.6486 20.0837 15.539C20.0582 15.4289 19.9494 15.3587 19.8387 15.3858C19.5155 15.4619 18.8853 15.3496 18.6703 15.3007C18.5626 15.2751 18.4511 15.3437 18.4255 15.4539C18.4005 15.5641 18.4692 15.6738 18.5791 15.6988Z" fill="#464655"/>
<path d="M38.8064 18.9972L39.3212 20.5693C39.3489 20.6534 39.4274 20.7098 39.5154 20.7098C39.5183 20.7098 39.5212 20.7098 39.5244 20.7098C39.6159 20.7055 39.6936 20.6412 39.7144 20.5518C40.0911 18.9376 40.8449 16.3842 41.3778 15.9671C41.4521 15.9091 41.4768 15.8086 41.4382 15.7224C41.3999 15.6372 41.3087 15.5883 41.2151 15.6054C41.106 15.6256 38.5215 16.129 36.7234 18.826C36.6774 18.8951 36.6776 18.985 36.724 19.0537C36.7705 19.1223 36.8534 19.1543 36.935 19.1393L38.4322 18.8298C38.2226 19.3352 38.0889 19.78 38.0426 19.9433C37.3608 19.5284 36.5918 19.4546 36.0585 19.5927C35.4498 19.7522 34.9383 20.1402 34.6546 20.6573C34.4372 21.0536 34.3798 21.4888 34.4969 21.8512C34.6329 22.2721 34.9957 22.7957 35.6069 23.0015C36.0117 23.139 36.6659 23.1695 37.5284 22.6357C37.5284 22.6398 37.5291 22.6436 37.529 22.6476C37.5232 22.9882 37.3485 23.2658 37.009 23.4739C36.3343 23.8873 35.1514 23.9149 34.3727 23.5341C33.3458 23.0328 31.802 22.7474 30.9395 22.618C31.4743 22.4475 32.1208 22.3995 32.8978 22.5775C32.9083 22.5802 32.9186 22.576 32.9291 22.5768C32.9343 22.5772 32.9383 22.5829 32.9436 22.5829C32.9493 22.5829 32.9536 22.5768 32.9593 22.5764C33.0063 22.5726 33.0518 22.5584 33.0863 22.525C33.0868 22.5244 33.0869 22.5237 33.0873 22.5231C33.0875 22.5229 33.0879 22.523 33.0879 22.523C33.0889 22.522 33.0886 22.5207 33.0893 22.5199C33.1223 22.4856 33.1368 22.4416 33.1409 22.3955C33.1419 22.3844 33.1432 22.376 33.1424 22.365C33.1417 22.3557 33.1456 22.3469 33.1437 22.3378C33.1413 22.326 32.9149 21.1662 33.5382 20.367C33.9128 19.8865 34.5255 19.6242 35.3592 19.5865C35.3724 19.5858 35.3832 19.5784 35.3957 19.5753C35.4138 19.571 35.4318 19.5683 35.4481 19.5594C35.4629 19.5511 35.4734 19.5382 35.4858 19.5263C35.4961 19.5167 35.5089 19.5108 35.5173 19.4986C35.5192 19.4962 35.5193 19.493 35.5208 19.4903C35.5222 19.4881 35.5249 19.4871 35.5263 19.4847C35.53 19.4784 35.5292 19.471 35.5322 19.4643C35.5413 19.4439 35.5478 19.4234 35.5499 19.4018C35.551 19.3915 35.551 19.382 35.5503 19.3717C35.5491 19.3486 35.5439 19.3269 35.5351 19.3056C35.5329 19.3003 35.534 19.2942 35.5313 19.289C35.5148 19.2566 33.9117 16.0509 36.5236 13.9103C36.6085 13.8406 36.623 13.7162 36.5569 13.6289C36.4904 13.5422 36.3672 13.522 36.2767 13.5852C33.6978 15.3958 30.1335 15.5911 28.7208 15.5911C26.2012 15.5911 24.6093 16.5398 23.8539 18.4909C23.7754 18.6937 23.7198 18.9341 23.6732 19.1915C23.6984 18.8304 23.6324 18.514 23.4695 18.2494C23.237 17.8721 22.8813 17.714 22.7214 17.6592C22.7215 17.5666 22.7208 17.4749 22.7181 17.3849C22.9941 17.3425 23.3216 17.5567 23.4296 17.6476C23.4674 17.6796 23.5146 17.6966 23.5621 17.6966C23.5934 17.6966 23.6251 17.6891 23.6541 17.6743C23.7274 17.637 23.7716 17.5598 23.7658 17.478C23.699 16.5279 23.0544 16.0662 22.6123 15.9099C23.0021 15.6002 23.4176 15.0932 23.6722 14.2665C23.6966 14.1866 23.6704 14.1 23.6054 14.0478C23.5406 13.9951 23.4501 13.9872 23.3777 14.0276C23.3708 14.0315 22.9548 14.2567 22.3296 14.4424L22.3868 13.6999C22.3923 13.6249 22.3565 13.5524 22.2926 13.5121C22.2291 13.4712 22.1477 13.4695 22.0825 13.5068C22.0719 13.5127 21.0258 14.0998 19.9589 14.4098C19.1537 14.2073 18.1056 14.0497 17.7083 14.4636C17.6125 14.563 17.5233 14.7248 17.5455 14.9754C16.8599 14.8323 15.2861 14.5981 14.3307 15.2159C14.2554 15.2642 14.2208 15.3563 14.2451 15.4426C14.2695 15.5288 14.3472 15.5894 14.4369 15.5916C14.7401 15.599 15.2089 15.6687 15.4045 15.798C15.3182 16.0306 15.1757 16.5232 15.3002 16.9983C14.8855 17.1184 14.4505 17.137 13.9214 16.8508L14.3826 16.7376C14.4653 16.7174 14.5267 16.6477 14.5369 16.563C14.5467 16.4784 14.5031 16.3965 14.4275 16.3576C14.4158 16.3513 13.2527 15.7463 12.2854 14.7295C12.2305 14.6725 12.1473 14.6517 12.071 14.6773C11.9954 14.7034 11.942 14.771 11.9343 14.8503C11.926 14.9322 11.7526 16.8651 13.2205 18.0113C13.2572 18.0395 13.3016 18.0544 13.3464 18.0544C13.3743 18.0544 13.4022 18.0485 13.4288 18.0368C13.4974 18.0065 13.5442 17.941 13.5501 17.866L13.607 17.1358C14.3393 17.5743 14.9457 17.5324 15.4658 17.3743C15.531 17.4737 15.6139 17.5684 15.7185 17.6553C15.7353 17.6692 15.7584 17.6844 15.7817 17.6997C15.4474 18.4822 14.7837 18.684 14.7552 18.6918C14.6725 18.7157 14.6133 18.7887 14.6073 18.8743C14.6011 18.9599 14.6491 19.0402 14.7275 19.0754C14.7769 19.0971 15.8462 19.5595 17.0446 19.1328L17.0257 19.2695C17.0177 19.3269 17.0348 19.3854 17.0728 19.4297C17.1106 19.4744 17.1657 19.5005 17.2239 19.5015C17.229 19.5015 17.2425 19.5021 17.2637 19.5021C17.4013 19.5021 17.8578 19.4917 18.3753 19.3728C18.297 20.1039 17.8516 20.9751 17.3778 21.8943C16.7364 23.1395 16.0216 24.5439 16.033 25.9621C15.7883 25.6453 15.4836 25.1513 15.3329 24.4956C15.2807 24.2678 15.2462 24.0635 15.2148 23.8768C15.1384 23.4251 15.0724 23.0345 14.8054 22.6675C14.5035 22.2525 14.0765 21.3261 14.0951 20.8202C14.1127 20.3525 13.8062 20.0774 13.4949 20.012C13.4724 20.0074 13.4512 20.0132 13.429 20.0105C13.3552 19.862 13.1556 19.5775 12.6969 19.5448C12.5864 19.53 12.4864 19.6215 12.4784 19.7343C12.4704 19.8466 12.5551 19.9444 12.6676 19.9523C12.8276 19.9636 12.9268 20.0248 12.9878 20.0857C12.8379 20.1628 12.7166 20.2913 12.6321 20.4558C12.3586 20.2982 12.0822 20.2588 11.8708 20.3071C11.816 20.3195 11.7747 20.3491 11.7273 20.3715C11.5889 20.2993 11.2204 20.1619 10.7762 20.4443C10.681 20.5045 10.6527 20.631 10.7135 20.7263C10.7522 20.7876 10.8185 20.8211 10.8861 20.8211C10.9234 20.8211 10.9614 20.8109 10.9955 20.7891C11.1541 20.6885 11.2895 20.6753 11.3889 20.688C11.3161 20.8229 11.2748 20.9716 11.2818 21.11C11.296 21.3851 11.455 21.5985 11.7008 21.6889C11.4076 21.7448 11.1592 21.8809 11.0264 22.0651C11.005 22.095 11.0006 22.129 10.9851 22.1605C10.7984 22.1799 10.5112 22.3054 10.3297 22.6893C10.2813 22.791 10.3249 22.9129 10.4267 22.9612C10.4552 22.9745 10.4847 22.9809 10.514 22.9809C10.5907 22.9809 10.664 22.9379 10.699 22.8639C10.78 22.693 10.8751 22.6254 10.9462 22.5944C11.1402 23.2344 11.7712 23.0887 12.1517 22.9996L12.3042 22.965C12.5176 22.9224 12.8937 23.5455 12.9948 23.9498C13.065 24.2307 12.9448 24.5745 12.5659 25.1757C12.3358 25.5417 12.402 25.8067 12.4983 25.9646C12.5003 25.9678 12.5034 25.9696 12.5053 25.9726C12.4442 25.991 12.3689 26.0042 12.2672 25.9907C12.1572 25.9684 12.0522 26.0535 12.0371 26.1653C12.0219 26.277 12.1002 26.3802 12.2119 26.3952C12.264 26.4026 12.3133 26.4058 12.3598 26.4058C12.5974 26.4058 12.7557 26.3247 12.8509 26.2583C12.9838 26.3151 13.1205 26.3365 13.2216 26.3287C13.5032 26.3053 13.6941 26.0585 13.823 25.7519C14.1989 27.8244 15.0627 29.7488 15.2128 30.0734C15.1825 30.8077 14.3899 30.98 14.3556 30.9876C14.2675 31.0056 14.2016 31.0791 14.1933 31.169C14.185 31.2584 14.2359 31.3425 14.3189 31.3765C14.6637 31.5174 14.9654 31.574 15.2274 31.574C16.0356 31.574 16.4629 31.0409 16.5974 30.8355C17.1943 30.6276 17.894 30.1409 18.1672 29.9418C18.6226 30.2831 19.0012 30.4722 19.1277 30.5314C18.9077 32.6978 17.6375 34.1612 17.2659 34.545C17.0142 34.4008 16.4585 34.0449 16.275 33.6208C16.1013 33.22 15.7794 33.1071 15.5168 33.1305C15.4286 33.0167 15.2306 32.8042 14.9531 32.7736C14.8167 32.7592 14.6096 32.7842 14.3992 32.9949C14.3193 33.0748 14.3193 33.204 14.3992 33.2837C14.4787 33.3636 14.608 33.3641 14.6881 33.2843C14.8035 33.1689 14.882 33.1758 14.9076 33.1794C14.9863 33.1878 15.0624 33.2448 15.1224 33.3034C14.9735 33.4303 14.8812 33.608 14.8962 33.8019C14.9067 33.9381 14.9578 34.0663 15.0298 34.1854C14.8809 34.2628 14.7016 34.3899 14.5836 34.5909C14.5794 34.5981 14.5745 34.6095 14.5701 34.6175C14.3261 34.6331 13.8871 34.8052 13.8187 35.3736C13.8054 35.4859 13.8852 35.5875 13.9972 35.6007C14.0057 35.6018 14.0137 35.6024 14.022 35.6024C14.124 35.6024 14.2123 35.5263 14.2248 35.4225C14.2492 35.219 14.3477 35.121 14.4402 35.0721C14.4379 35.1559 14.4448 35.2431 14.4749 35.3342C14.5455 35.5487 14.7121 35.7226 14.9609 35.8579C14.9346 35.9416 14.9175 36.0309 14.9152 36.1275C14.7839 36.1938 14.5901 36.3173 14.4909 36.5277C14.4167 36.6847 14.4121 36.8602 14.4773 37.0358C14.5079 37.1182 14.5858 37.1688 14.6689 37.1688C14.6926 37.1688 14.7168 37.1645 14.7402 37.1561C14.8462 37.1167 14.8998 36.9991 14.8604 36.8933C14.8248 36.7981 14.8431 36.739 14.8602 36.7028C14.8904 36.6384 14.9505 36.5843 15.0117 36.5423C15.0875 36.6784 15.2019 36.782 15.355 36.8326C15.425 36.8554 15.4976 36.8666 15.5706 36.8666C15.8136 36.8666 16.0601 36.7437 16.2181 36.5299C16.4073 36.2735 16.7773 36.4204 16.8013 36.4305C17.575 36.7115 18.6202 36.4997 19.2528 36.1443C19.6037 35.9468 20.84 36.0534 21.5372 36.1676C21.5917 36.175 21.6497 36.1618 21.6947 36.1283C21.7394 36.0937 21.7678 36.0426 21.7735 35.9863C21.844 35.2808 20.9312 35.0935 20.1978 34.9429C19.998 34.902 19.8079 34.863 19.6285 34.7865C19.5569 34.3726 20.6325 32.8658 21.6573 32.1124C21.9085 31.9278 22.1106 31.8538 22.2119 31.9081C22.3566 31.9874 22.4026 32.3566 22.3879 32.5811C22.3876 32.5871 22.391 32.5921 22.3911 32.598C22.3913 32.6203 22.3955 32.6418 22.4033 32.6633C22.4066 32.6725 22.4091 32.681 22.4136 32.6895C22.4165 32.695 22.4168 32.7009 22.4201 32.7061C22.4318 32.7241 22.4476 32.7373 22.4634 32.7502C22.4666 32.7527 22.4676 32.7569 22.471 32.7593C22.4717 32.7599 22.4727 32.7597 22.4727 32.7597C22.4992 32.7786 22.5283 32.7897 22.559 32.7948C22.5669 32.796 22.5744 32.7949 22.5823 32.7952C22.6051 32.7963 22.6272 32.794 22.6497 32.7872C22.6549 32.7857 22.6605 32.7873 22.6657 32.7853C22.6823 32.7789 22.7002 32.7697 22.7171 32.7627C22.8261 32.7069 23.0108 32.7692 23.14 32.8354C23.116 32.9099 23.1014 32.9876 23.1084 33.072C23.1168 33.1774 23.1497 33.2822 23.2007 33.3828C22.9983 33.3599 22.8089 33.3828 22.6718 33.4881C22.6229 33.5256 22.5843 33.5729 22.5454 33.6196C22.2578 33.648 21.8981 33.8292 21.8127 34.2575C21.7906 34.3681 21.8621 34.4755 21.9728 34.498C21.9864 34.5007 22 34.5018 22.0132 34.5018C22.1085 34.5018 22.1938 34.4348 22.2133 34.3374C22.2338 34.2351 22.2862 34.1732 22.3438 34.1266C22.342 34.2012 22.3501 34.2751 22.3721 34.3448C22.4121 34.4711 22.5201 34.6596 22.7947 34.765C22.77 34.807 22.7487 34.8517 22.7298 34.8974C22.5253 34.9631 22.2173 35.1752 22.2173 35.6253C22.2173 35.7381 22.3088 35.8296 22.4216 35.8296C22.5344 35.8296 22.6259 35.7381 22.6259 35.6253C22.6259 35.5458 22.6457 35.4881 22.6716 35.4404C22.6782 35.4699 22.683 35.5001 22.6935 35.5279C22.7429 35.6572 22.8917 35.8998 23.3083 35.8998C23.4456 35.8998 23.6115 35.8737 23.8126 35.8083C24.3002 35.6502 24.6459 35.6336 24.98 35.6172C25.3796 35.5981 25.7571 35.5794 26.2873 35.3336C27.0513 34.9788 27.9977 35.0991 28.4935 35.2027C28.7621 35.2581 29.025 35.126 29.1332 34.8797C29.1705 34.7958 29.1948 34.7222 29.2204 34.6475C29.4516 34.6752 29.4995 34.8999 29.5057 34.9494C29.5171 35.0537 29.6055 35.1314 29.7084 35.1314C29.7154 35.1314 29.7226 35.1308 29.7296 35.1303C29.8419 35.1186 29.9236 35.018 29.9119 34.9057C29.8898 34.6922 29.7316 34.3092 29.3082 34.2426C29.3136 34.0977 29.2854 33.9784 29.2144 33.8905C29.1367 33.7947 28.9822 33.6942 28.6793 33.7564C28.366 33.8212 28.2218 33.8341 28.1568 33.8283C28.1665 33.7884 28.1898 33.7176 28.2437 33.5968C28.4262 33.1861 29.638 32.1028 30.4315 31.4543C30.6228 31.4112 30.8655 31.4085 30.9214 31.4723C30.9412 31.4941 30.9412 31.5692 30.8964 31.6878C30.8645 31.7719 30.8913 31.8667 30.9621 31.9214C31.0327 31.9763 31.1311 31.9789 31.2045 31.9278C31.2362 31.9055 31.9774 31.3792 31.9625 30.7381C31.9548 30.4141 31.766 30.1327 31.4009 29.9017C31.0915 29.7065 30.9138 29.4802 30.8724 29.2302C30.829 28.9687 30.9406 28.7366 31.0151 28.613C31.3078 28.7533 31.6015 28.9346 31.894 29.1764C33.6193 30.6031 35.0875 30.8302 35.8806 30.8265C36.047 31.1941 36.5355 32.4481 36.1185 33.7362C35.8966 33.6968 35.4609 33.5552 35.1618 33.0568C34.8711 32.5726 34.5223 32.4513 34.2805 32.4353C33.9046 32.406 33.5058 32.6199 33.1924 33.0115C33.1254 33.0956 33.1347 33.2168 33.2134 33.2892C33.2924 33.3621 33.4145 33.3617 33.4919 33.2881C33.5441 33.2386 33.6411 33.1786 33.6829 33.211L33.7253 33.3291C33.748 33.3945 33.7711 33.4605 33.7987 33.5243C33.6362 33.5482 33.4797 33.6147 33.3576 33.7531C33.2772 33.8443 33.2265 33.9496 33.1899 34.058C32.8157 34.1249 32.6118 34.4087 32.6032 34.4218C32.5409 34.5149 32.5662 34.6399 32.6587 34.7028C32.6935 34.7267 32.7335 34.7384 32.7729 34.7384C32.8381 34.7384 32.9022 34.7076 32.942 34.6501C32.9459 34.6448 33.0214 34.5424 33.1565 34.4851C33.1734 34.5621 33.201 34.6365 33.2429 34.7042C33.3134 34.8179 33.4135 34.894 33.5271 34.9345C33.5118 34.9936 33.4987 35.0581 33.4902 35.1274C33.4859 35.1289 33.4814 35.1282 33.477 35.1298C32.9877 35.3358 33.0875 35.9438 33.2085 36.2365C33.2412 36.3153 33.317 36.3625 33.3971 36.3625C33.4232 36.3625 33.4494 36.3573 33.4748 36.3471C33.5791 36.3041 33.6288 36.1848 33.5863 36.0805C33.5848 36.0766 33.47 35.7763 33.5438 35.6053C33.5457 35.6099 33.5462 35.6148 33.5482 35.6193C33.6327 35.8103 33.7958 35.9465 34.0197 36.0136C34.1298 36.0466 34.2352 36.0605 34.336 36.0605C34.6703 36.0605 34.9541 35.9056 35.1931 35.7749C35.3791 35.6732 35.5549 35.5801 35.6935 35.5897C35.7944 35.5993 35.9098 35.6174 36.0364 35.637C36.5142 35.7115 37.1691 35.8125 37.819 35.6035C37.94 35.5647 38.0495 35.5268 38.1499 35.4922C38.678 35.3113 38.8753 35.2437 39.1981 35.4274C39.5889 35.6509 40.0927 35.5007 40.3524 35.2269C40.4337 35.1411 40.4806 35.0454 40.5058 34.9484C40.6391 35.0015 40.7471 35.0588 40.7644 35.0908C40.7263 35.1972 40.7817 35.3137 40.8881 35.352C40.9108 35.36 40.9339 35.3637 40.9568 35.3637C41.0406 35.3637 41.1193 35.3116 41.1491 35.2281C41.1875 35.1211 41.1781 35.011 41.1229 34.9099C40.9878 34.664 40.5925 34.532 40.3946 34.4795C40.0676 34.0353 39.5692 33.8969 38.7456 34.0272C38.7129 34.032 38.6873 34.0261 38.6592 34.0028C38.3585 33.7597 38.2924 32.4965 38.253 31.7425C38.2213 31.1392 38.1997 30.7891 38.1072 30.621C38.1544 30.5822 38.4131 30.5773 38.5742 30.6949C38.652 30.7523 38.6596 30.804 38.641 30.8625C38.6378 30.871 38.6349 30.879 38.632 30.8869C38.5921 30.9912 38.6437 31.1087 38.7477 31.1497C38.8517 31.1895 38.9696 31.1406 39.0118 31.0369C39.018 31.0225 39.0233 31.0076 39.0281 30.9932C39.101 30.7862 39.3994 29.8487 39.0479 29.2549C38.8899 28.9883 38.6325 28.8293 38.2828 28.782C37.3916 28.6619 36.7124 28.0924 36.2558 27.1001C36.9477 26.857 38.9847 25.9337 39.3655 23.3852C39.6186 21.6912 39.0114 20.7425 38.4573 20.245C38.4309 20.2212 38.4022 20.2031 38.3751 20.1806C38.3911 20.1598 38.4115 20.1428 38.4188 20.1158C38.4212 20.1067 38.5613 19.5914 38.8064 18.9972ZM37.3638 18.6331C38.5282 17.1178 39.9563 16.4431 40.7285 16.1707C40.222 17.0832 39.7394 18.79 39.4878 19.7647L39.0627 18.4665C39.0611 18.4614 39.0558 18.4593 39.0539 18.4544C39.1785 18.2085 39.3187 17.9704 39.4732 17.7694C39.5418 17.6801 39.525 17.5518 39.4357 17.4832C39.346 17.414 39.2181 17.431 39.1491 17.5205C38.9563 17.7713 38.7864 18.0686 38.6397 18.3691L37.3638 18.6331ZM13.1753 17.4179C12.5459 16.7512 12.3819 15.886 12.3444 15.3604C12.8829 15.8595 13.426 16.2331 13.7924 16.4607L13.4668 16.5407C13.4046 16.4908 13.3435 16.4447 13.2785 16.3863C13.1952 16.3113 13.0662 16.3187 12.9901 16.4017C12.9145 16.4858 12.9215 16.6151 13.0055 16.6906C13.0785 16.7561 13.1478 16.8065 13.2183 16.8627L13.1753 17.4179ZM28.5866 24.1575C28.2047 23.1385 27.0523 20.6991 24.2291 18.6581C24.2313 18.6521 24.2328 18.6443 24.235 18.6385C24.2712 18.5449 24.3185 18.4643 24.359 18.3759C28.6336 19.4682 31.2353 21.2453 32.2746 22.0726C30.1512 21.9161 29.028 23.3787 28.5866 24.1575ZM33.214 20.1176C32.7627 20.6976 32.6839 21.4042 32.6928 21.8812C31.7555 21.0966 29.1208 19.1866 24.5386 18.0016C24.5979 17.8988 24.6689 17.8094 24.7352 17.7145C24.75 17.718 24.7642 17.7232 24.7798 17.7242C30.4175 17.4819 33.5629 18.6926 34.7149 19.2631C34.0685 19.3941 33.5592 19.6737 33.214 20.1176ZM28.721 15.9994C29.9671 15.9994 32.844 15.85 35.3252 14.6203C34.2602 16.2245 34.643 18.0252 34.944 18.9148C33.8013 18.3296 30.7068 17.1139 25.0625 17.3086C25.8768 16.4365 27.0806 15.9994 28.721 15.9994ZM23.9291 20.3527C23.9799 19.8909 24.0307 19.4516 24.1109 19.0816C26.8242 21.0929 27.9169 23.5242 28.2402 24.4057C27.5738 24.2563 26.9702 24.3048 26.4499 24.573C26.0241 24.7928 25.727 25.1159 25.5234 25.4117C25.4327 24.3836 25.0932 22.549 23.8535 21.1045C23.8495 21.0999 23.8439 21.0978 23.8396 21.0936C23.8728 20.8452 23.9022 20.5962 23.9291 20.3527ZM23.6709 26.5901C22.7215 26.3688 22.3227 25.4121 22.3044 25.367C22.2794 25.3052 22.2259 25.259 22.1609 25.244C22.1455 25.2408 22.13 25.2387 22.1146 25.2387C22.0648 25.2387 22.0163 25.2574 21.9782 25.2915C21.2961 25.9049 20.4616 26.0667 20.0449 26.1092C20.3742 25.0749 21.3003 24.5376 22.5461 23.8144L22.6035 23.7809C22.914 23.6007 23.138 23.327 23.3132 23.0051C23.313 23.5193 23.3406 24.0921 23.435 24.5742C23.4542 24.6716 23.5395 24.7391 23.6353 24.7391C23.6484 24.7391 23.6616 24.7381 23.675 24.7353C23.7856 24.7135 23.8577 24.606 23.8362 24.4954C23.6318 23.4527 23.7612 21.8843 23.7799 21.6731C24.9682 23.2771 25.1255 25.3013 25.1433 25.9615C24.4463 25.8409 24.0579 25.2992 24.0538 25.2936C24.0157 25.2382 23.9532 25.2052 23.8864 25.2052H23.8856C23.8191 25.2052 23.7568 25.2372 23.7186 25.2915C23.4167 25.7191 23.5345 26.2464 23.6709 26.5901ZM22.9473 21.0002C22.789 20.8054 22.5761 20.5911 22.3652 20.497C22.4128 20.3066 22.4576 20.1041 22.4982 19.8913C22.7169 20.0709 23.0477 20.4407 22.9473 21.0002ZM22.027 21.7305C22.0882 21.7395 22.4605 21.8115 22.6152 22.2895C22.4419 22.2596 22.238 22.2754 22.0323 22.3862C21.9994 22.1946 21.9929 21.976 22.027 21.7305ZM22.7566 22.7783C22.8157 22.8238 22.8941 22.8294 22.9614 22.8003C22.8428 23.0203 22.6939 23.2022 22.5106 23.3389C22.4105 23.2379 22.2631 23.057 22.1521 22.7951C22.4548 22.5746 22.7263 22.7564 22.7566 22.7783ZM23.4608 19.7664C23.5321 19.748 23.5873 19.6915 23.6058 19.6201C23.576 19.8424 23.5488 20.0711 23.5227 20.308C23.4372 21.0848 23.3438 21.9261 23.0791 22.5648C23.004 21.7062 22.4436 21.3902 22.1155 21.3332C22.133 21.2739 22.1488 21.2155 22.171 21.1537C22.2001 21.073 22.2287 20.9862 22.2567 20.8946C22.4434 21.0124 22.7014 21.3312 22.846 21.5532C22.8841 21.6117 22.9484 21.6463 23.0173 21.6463C23.0221 21.6463 23.0269 21.6463 23.0317 21.6457C23.1059 21.6404 23.1713 21.5951 23.2025 21.5281C23.6915 20.4763 23.0332 19.7263 22.5751 19.4434C22.5866 19.3685 22.5981 19.2937 22.6086 19.2177C22.8742 19.3425 23.1576 19.5995 23.2597 19.7085C23.2989 19.7505 23.3532 19.7733 23.4089 19.7733C23.4262 19.7733 23.4435 19.7712 23.4608 19.7664ZM23.1216 18.4634C23.2381 18.6528 23.2872 18.8858 23.2685 19.1593C23.1026 19.0216 22.8835 18.8727 22.6591 18.7934C22.6833 18.5612 22.7014 18.3281 22.7119 18.098C22.8359 18.1599 23.0031 18.271 23.1216 18.4634ZM23.2692 17.0752C23.1014 17.0019 22.8997 16.9522 22.6925 16.9749C22.6717 16.7475 22.6385 16.5361 22.5922 16.3447C22.8071 16.4457 23.1157 16.6567 23.2692 17.0752ZM21.9508 14.0383L21.9115 14.5498C21.5945 14.6204 21.2459 14.6734 20.8763 14.682C20.821 14.6629 20.7438 14.637 20.6541 14.6081C21.18 14.4136 21.6524 14.19 21.9508 14.0383ZM15.9803 17.3407C15.9383 17.3055 15.9013 17.2682 15.8691 17.2295C15.9093 17.2136 15.9492 17.1975 15.9883 17.1822C16.2718 17.0683 16.5394 16.9609 16.7969 16.9466C17.3756 16.9109 17.5445 17.1396 17.5823 17.2099C17.6209 17.2818 17.6147 17.3451 17.5919 17.3764C17.4956 17.5074 17.3412 17.586 17.1329 17.6116C16.6571 17.6658 16.0907 17.4328 15.9803 17.3407ZM17.4158 18.6369C17.3541 18.5922 17.2727 18.5852 17.2053 18.6204C16.5044 18.9705 15.8068 18.9263 15.3638 18.838C15.6298 18.6567 15.9417 18.3527 16.1502 17.8727C16.389 17.9594 16.6858 18.0292 16.9794 18.0292C17.0474 18.0292 17.1154 18.025 17.1821 18.0169C17.5018 17.9781 17.7572 17.8402 17.9209 17.6189C18.044 17.4514 18.052 17.2199 17.9417 17.0156C17.856 16.8571 17.5711 16.4916 16.7747 16.5389C16.4499 16.5564 16.1381 16.6814 15.8364 16.8027C15.7881 16.8219 15.7395 16.8415 15.6915 16.8601C15.5819 16.3765 15.8266 15.8433 15.83 15.8364C15.8603 15.7716 15.8549 15.6955 15.8152 15.6358C15.7016 15.465 15.4755 15.3587 15.2377 15.2921C16.339 15.0617 17.753 15.4421 17.7703 15.447C17.8459 15.4667 17.9252 15.4448 17.9767 15.3863C18.0284 15.3289 18.043 15.2469 18.0145 15.1746C17.9323 14.9676 17.9287 14.8234 18.0033 14.7457C18.321 14.4147 19.8164 14.7419 20.7758 15.0793C20.7987 15.0873 20.8242 15.0851 20.8468 15.091C21.7923 15.0762 22.6186 14.8057 23.1079 14.6036C22.5556 15.8028 21.6163 15.9715 21.5721 15.979C21.4613 15.9966 21.3854 16.1003 21.4024 16.2115C21.4194 16.3232 21.524 16.4015 21.6355 16.3828C21.6571 16.3794 21.8567 16.3446 22.1286 16.2139C22.5332 17.3332 22.2163 19.8215 21.7866 21.0149C21.3057 22.351 21.8391 23.1994 22.1657 23.5635C20.8753 24.3143 19.8665 24.9522 19.584 26.2628C19.5837 26.2638 19.5827 26.2647 19.5823 26.2659C19.5755 26.2872 19.5064 26.5169 19.4267 26.9264C18.9266 26.5941 17.9947 25.2299 18.4964 23.631C18.6331 23.1947 18.7938 22.7679 18.9492 22.3552C19.4109 21.1294 19.8459 19.9706 19.522 18.8853C19.6484 18.7947 19.7668 18.693 19.8691 18.5738C20.2254 18.1589 20.3498 17.6283 20.2391 16.9968C20.22 16.885 20.1143 16.8095 20.0026 16.8308C19.8918 16.85 19.8171 16.9558 19.8369 17.0671C19.9265 17.5795 19.8358 17.9848 19.5594 18.3073C19.0253 18.9309 17.939 19.0596 17.4642 19.0857L17.4994 18.8304C17.5094 18.7555 17.4772 18.6809 17.4158 18.6369ZM19.2499 27.9527C18.898 28.3829 18.1839 28.9549 17.9065 29.1712C17.6505 28.927 17.394 28.6372 17.168 28.2976C18.2134 28.1204 18.8409 27.4714 19.0761 27.1707C19.1545 27.2373 19.2291 27.2908 19.2949 27.3259C19.3139 27.3362 19.3344 27.3373 19.3546 27.3408C19.3271 27.5158 19.301 27.7141 19.2763 27.9311C19.2676 27.9385 19.2574 27.9435 19.2499 27.9527ZM16.7633 24.2289C16.9279 24.2752 17.3547 24.3841 17.7484 24.3841C17.8205 24.3841 17.885 24.3709 17.9527 24.3625C17.9381 24.6139 17.9506 24.8561 17.9858 25.0865C17.66 25.2986 16.9008 25.3165 16.4909 25.2989C16.5457 24.9412 16.6397 24.5837 16.7633 24.2289ZM17.2748 23.0095C17.4254 23.0456 17.7206 23.1055 18.0187 23.1055C18.0961 23.1055 18.173 23.101 18.2479 23.0912C18.1999 23.2298 18.1507 23.3672 18.1062 23.5088C18.0593 23.6584 18.0269 23.805 18.0008 23.9503C17.9994 23.9505 17.9978 23.9501 17.9964 23.9504C17.6931 24.0253 17.1727 23.9171 16.907 23.8447C17.0198 23.5629 17.1428 23.2837 17.2748 23.0095ZM17.7417 22.0808C17.7945 21.9783 17.8465 21.8767 17.8983 21.7755C18.0761 21.8182 18.4267 21.8986 18.6722 21.9292C18.6372 22.0229 18.6026 22.116 18.5667 22.2118C18.5124 22.3558 18.4579 22.5042 18.4033 22.6516C18.378 22.6495 18.3518 22.6515 18.3261 22.6597C18.084 22.7345 17.7057 22.6835 17.4607 22.6325C17.5545 22.4458 17.6488 22.2612 17.7417 22.0808ZM18.3898 20.7476C18.5369 20.8033 18.7723 20.8774 19.01 20.8774C19.0174 20.8774 19.0243 20.8742 19.0318 20.8741C18.9703 21.0878 18.8963 21.3081 18.8164 21.5326C18.7026 21.5313 18.3689 21.465 18.0872 21.3997C18.1966 21.1786 18.2979 20.9613 18.3898 20.7476ZM18.6721 19.9668C18.7877 19.9749 18.8947 19.9803 18.985 19.9803C19.0742 19.9803 19.1452 19.9744 19.2097 19.9665C19.1955 20.1252 19.1728 20.2862 19.1379 20.4508C18.9828 20.4967 18.7294 20.4372 18.5417 20.3678C18.5917 20.2321 18.6353 20.0984 18.6721 19.9668ZM16.7531 25.7133C17.1444 25.7133 17.6918 25.6687 18.0698 25.4931C18.1228 25.6865 18.1896 25.8687 18.2659 26.0382C17.5639 26.5259 16.7798 26.6382 16.5023 26.6612C16.4718 26.4923 16.4498 26.3174 16.4392 26.1353C16.431 25.9927 16.4365 25.8495 16.4448 25.7061C16.5243 25.7097 16.6289 25.7133 16.7531 25.7133ZM18.4559 26.4025C18.5614 26.5817 18.6737 26.7421 18.7865 26.8763C18.6128 27.1066 18.0003 27.8106 16.945 27.925C16.8043 27.6627 16.6856 27.3754 16.5971 27.0636C16.9532 27.0288 17.7303 26.891 18.4559 26.4025ZM19.1528 19.1043C19.1893 19.2521 19.2103 19.4025 19.218 19.5552C19.1662 19.5718 18.9723 19.5733 18.763 19.5624C18.7798 19.4575 18.7894 19.3545 18.7937 19.2529C18.9148 19.2112 19.0353 19.1613 19.1528 19.1043ZM16.4014 30.4688C16.3485 30.4858 16.3044 30.5231 16.2796 30.5726C16.2628 30.6061 15.9168 31.2787 15.0037 31.1473C15.3266 30.9345 15.6224 30.5764 15.6224 30.0289C15.6224 29.9986 15.6158 29.9687 15.6027 29.9416C15.5894 29.9133 14.2603 27.0785 14.078 24.5427C14.0703 24.4363 13.982 24.3539 13.8753 24.3533H13.8742C13.768 24.3533 13.6795 24.4346 13.6707 24.5406C13.6177 25.1785 13.4065 25.9021 13.1876 25.9202C13.107 25.9287 12.9184 25.868 12.8476 25.7515C12.7949 25.6648 12.8168 25.544 12.912 25.3929C13.2837 24.8023 13.5074 24.3145 13.3914 23.85C13.2943 23.4611 12.8402 22.4385 12.2201 22.5639L12.0584 22.6007C11.5313 22.7257 11.3957 22.699 11.3303 22.4607C11.3139 22.4011 11.3228 22.3527 11.3585 22.3032C11.4479 22.1788 11.6766 22.0856 11.9281 22.0712C12.3998 22.0456 12.5879 22.2468 12.5928 22.2526C12.6552 22.3282 12.7613 22.3484 12.8469 22.3032C12.9326 22.2574 12.9744 22.1574 12.9464 22.0643C12.9384 22.0383 12.7453 21.4243 11.9241 21.3243C11.7397 21.302 11.6953 21.1834 11.6903 21.0886C11.6823 20.9316 11.7816 20.7455 11.9616 20.7045C12.2845 20.6326 12.8872 20.9066 13.1483 21.9511C13.1757 22.0613 13.289 22.1247 13.396 22.1002C13.5055 22.0724 13.572 21.9618 13.5447 21.8522C13.411 21.3177 13.1944 20.9511 12.9522 20.7042C12.9564 20.6967 12.9628 20.691 12.9661 20.6827C13.064 20.4337 13.2657 20.382 13.4115 20.4114C13.5507 20.4407 13.6965 20.5594 13.6874 20.8046C13.6621 21.4814 14.197 22.5247 14.4753 22.9073C14.6859 23.1967 14.7389 23.5101 14.812 23.9442C14.8447 24.1379 14.8806 24.3496 14.9349 24.5865C15.2058 25.7655 15.9178 26.4798 16.0853 26.6351C16.3064 28.0532 17.1052 29.0435 17.8377 29.6737C17.5222 29.8974 16.8952 30.3148 16.4014 30.4688ZM18.2168 29.4475C18.4526 29.2619 18.8682 28.9223 19.2166 28.5828C19.1873 28.9807 19.1658 29.4178 19.1638 29.9143C19.1636 29.9723 19.1588 30.0277 19.157 30.0848C18.9551 29.9765 18.6051 29.7683 18.2168 29.4475ZM30.8369 28.0858L31.1927 27.032C31.5407 27.1555 31.8686 27.2969 32.1768 27.4516L31.4972 28.4004C31.2812 28.2739 31.0611 28.1691 30.8369 28.0858ZM30.4461 27.9649C30.2553 27.9159 30.0621 27.8798 29.8665 27.8609L29.9988 26.7081C30.0463 26.7171 30.095 26.722 30.1421 26.7321C30.3703 26.7813 30.5894 26.8411 30.8037 26.9057L30.4461 27.9649ZM29.4573 27.8436C29.2556 27.8455 29.0519 27.8636 28.8462 27.8964L28.7339 26.6054C29.0227 26.6015 29.3109 26.6137 29.5946 26.6457L29.4573 27.8436ZM28.3253 26.6223L28.4432 27.9786C28.2324 28.0321 28.0195 28.1042 27.8054 28.1894L27.4449 26.7183C27.7339 26.6739 28.0282 26.6408 28.3253 26.6223ZM27.6966 30.5473C27.5328 30.4896 27.3791 30.4113 27.2339 30.3245L27.9643 28.9381C27.9814 28.9577 27.9999 28.9744 28.0142 28.9982C28.0869 29.1206 28.0977 29.2818 28.0466 29.4776C27.9788 29.7379 27.857 30.1213 27.6966 30.5473ZM26.7913 29.1886C27.0442 29.02 27.3222 28.8584 27.6188 28.7177L26.8935 30.0944C26.6144 29.8784 26.3981 29.6529 26.2757 29.5122C26.446 29.4106 26.6181 29.304 26.7913 29.1886ZM27.0411 26.7871L27.4257 28.3565C27.2287 28.4514 27.0303 28.5597 26.8311 28.6812L26.2394 26.9647C26.495 26.8994 26.7645 26.8397 27.0411 26.7871ZM25.8441 27.0716L26.4677 28.8806C26.4706 28.8887 26.4785 28.8923 26.4822 28.8998C26.2331 29.0628 25.9867 29.2086 25.7445 29.3427L25.1404 27.292C25.3556 27.2192 25.5904 27.1445 25.8441 27.0716ZM24.7542 27.4278L25.3751 29.5361C25.3755 29.5376 25.3772 29.5382 25.3776 29.5396C25.1063 29.6785 24.8462 29.8012 24.607 29.9049L23.9314 27.7963C23.94 27.7816 23.9495 27.7627 23.9579 27.749C24.07 27.6985 24.3529 27.5756 24.7542 27.4278ZM23.6714 28.3227L24.2287 30.062C23.8034 30.2307 23.4711 30.3382 23.3058 30.3877C23.1996 29.7114 23.4216 28.9113 23.6714 28.3227ZM23.551 32.0602C23.6894 31.7277 23.6485 31.3179 23.426 30.8093C23.422 30.8003 23.418 30.7913 23.4143 30.7816C23.7572 30.6814 24.7601 30.3542 25.9139 29.7171C26.1201 29.9668 26.7299 30.6337 27.5475 30.9264C27.0832 32.062 26.3902 33.3348 25.6919 33.4477C25.1067 33.5403 24.7898 33.1913 24.4838 32.8512C24.217 32.5554 23.914 32.2202 23.484 32.4468C23.4505 32.4645 23.4253 32.4872 23.3961 32.5074C23.3628 32.4879 23.3169 32.464 23.2627 32.4392C23.38 32.3368 23.4856 32.2177 23.551 32.0602ZM30.4686 29.2914C30.5284 29.6632 30.7687 29.9847 31.1829 30.2469C31.4247 30.3997 31.5495 30.5677 31.554 30.7465C31.5588 30.9376 31.4341 31.1365 31.2928 31.2977C31.2734 31.2579 31.2497 31.2249 31.2254 31.1983C30.9648 30.9088 30.3979 31.0392 30.2867 31.0684C30.2584 31.0753 30.2322 31.0892 30.2095 31.1072C30.0001 31.2774 28.1544 32.7912 27.8703 33.4301C27.7638 33.6696 27.6721 33.918 27.8158 34.0963C27.9656 34.2826 28.2521 34.2619 28.7628 34.1559C28.8067 34.1468 28.8383 34.1442 28.8597 34.1442C28.8841 34.1442 28.8961 34.1442 28.8961 34.1469C28.9134 34.1762 28.9249 34.3406 28.7594 34.714C28.7293 34.7816 28.6533 34.8172 28.5769 34.8018C28.0318 34.689 26.9863 34.5591 26.1153 34.9625C25.6574 35.1748 25.3342 35.1902 24.9602 35.2083C24.6159 35.2248 24.2259 35.2439 23.6865 35.4189C23.5623 35.4587 23.1501 35.5764 23.0749 35.3806C23.012 35.2161 23.1345 34.9282 23.2646 34.8437C24.0687 34.8749 24.3964 34.8752 24.3964 34.8752C24.5092 34.8752 24.6007 34.7837 24.6007 34.6709C24.6007 34.5582 24.5092 34.4667 24.3964 34.4667C24.393 34.4667 24.0541 34.4667 23.2128 34.4326C23.0676 34.4267 22.8157 34.3917 22.7615 34.2203C22.721 34.0931 22.7923 33.9095 22.9206 33.8117C23.0318 33.7254 23.4066 33.8202 23.7729 33.9782C23.8892 34.0515 24.0102 34.1106 24.1275 34.1495C24.2269 34.1851 24.3369 34.1346 24.3792 34.0377C24.4217 33.9409 24.3834 33.8282 24.2908 33.7771C24.2181 33.7367 24.0995 33.6744 23.9564 33.6106C23.7186 33.4494 23.5302 33.2185 23.5156 33.038C23.5103 32.9732 23.5233 32.888 23.6744 32.8087C23.8055 32.7401 23.8995 32.8146 24.18 33.1253C24.5059 33.4867 24.9509 33.9772 25.7571 33.8511C27.3267 33.5968 28.4315 29.6208 28.4418 29.5807C28.5213 29.2758 28.4958 29.0098 28.3655 28.7901C28.2902 28.663 28.1933 28.5805 28.1008 28.5174C28.8715 28.2401 29.7404 28.1453 30.6324 28.4543C30.5305 28.6416 30.4128 28.9455 30.4686 29.2914ZM31.8415 28.6214L32.5401 27.6463C32.7946 27.7891 33.0335 27.9391 33.258 28.0942L32.3619 29.0202C32.2923 28.966 32.2247 28.9193 32.1542 28.8609C32.0511 28.7756 31.9469 28.6958 31.8415 28.6214ZM33.5928 29.8166L34.4903 29.1016C34.6631 29.2686 34.8207 29.4318 34.96 29.5858L34.2343 30.1015C34.0305 30.0253 33.8165 29.9309 33.5928 29.8166ZM33.2028 29.6051C33.0355 29.5057 32.8639 29.3945 32.6884 29.2705L33.5932 28.3355C33.8058 28.4964 34.0052 28.6591 34.1871 28.8208L33.2028 29.6051ZM34.7205 30.2573L35.228 29.8965C35.3944 30.097 35.5289 30.2751 35.626 30.412C35.3737 30.397 35.0658 30.3498 34.7205 30.2573ZM38.9613 23.3243C38.6003 25.7414 36.6634 26.5426 36.0866 26.7296C35.6019 25.6389 34.7981 24.7215 34.2631 24.4442C34.1637 24.3931 34.04 24.4319 33.9878 24.5315C33.936 24.6321 33.9751 24.755 34.0753 24.8072C34.4828 25.0184 35.308 25.8777 35.7846 27.0519C36.2989 28.3187 37.1211 29.0371 38.2281 29.1871C38.4508 29.217 38.6038 29.3073 38.6963 29.4628C38.832 29.6916 38.8251 30.0353 38.7753 30.3375C38.5147 30.1719 38.0903 30.1188 37.8591 30.296C37.715 30.4061 37.6737 30.5812 37.7485 30.7641C37.799 30.888 37.8224 31.3329 37.845 31.7633C37.9103 33.0089 37.993 33.9884 38.4022 34.3199C38.5202 34.4157 38.6626 34.455 38.8097 34.43C39.6173 34.3023 39.9121 34.4737 40.1044 34.771C40.1161 34.7891 40.1517 34.8439 40.0561 34.9457C39.9109 35.0989 39.6062 35.1887 39.4011 35.0728C38.9177 34.796 38.5785 34.9126 38.0175 35.1058C37.9194 35.1393 37.8119 35.176 37.6935 35.2149C37.1364 35.3948 36.5618 35.3053 36.0994 35.233C35.9638 35.2122 35.8403 35.1931 35.7326 35.183C35.4693 35.158 35.2293 35.2889 34.9971 35.4161C34.7159 35.5699 34.4504 35.7172 34.1375 35.622C33.9923 35.5784 33.9451 35.5055 33.922 35.454C33.8534 35.3003 33.9041 35.0776 33.9531 34.9359C34.1283 34.905 34.2858 34.9108 34.4592 34.9289C34.7093 34.9539 34.9939 34.9837 35.3526 34.8517C35.4585 34.8129 35.5125 34.6953 35.4736 34.5894C35.4344 34.4834 35.3176 34.4309 35.211 34.4686C34.9414 34.5669 34.7367 34.5474 34.5012 34.5224C34.2866 34.5006 34.0444 34.4761 33.7534 34.5533C33.7089 34.565 33.6419 34.5719 33.5906 34.4889C33.523 34.3804 33.5259 34.1797 33.6643 34.0234C33.7707 33.9026 33.9769 33.9064 34.1673 33.9467C34.274 34.0063 34.4097 34.0552 34.585 34.0887C34.685 34.1099 34.7842 34.05 34.817 33.9536C34.8497 33.8567 34.8062 33.7508 34.7149 33.705C34.6994 33.6976 34.5388 33.6188 34.3245 33.5646C34.2117 33.4827 34.1715 33.3671 34.1112 33.1942L34.0657 33.067C34.0385 32.9946 34.0037 32.9399 33.9657 32.8984C34.0638 32.8558 34.1598 32.8367 34.2533 32.8425C34.4634 32.8569 34.6512 32.9996 34.8114 33.2671C35.3415 34.1503 36.2208 34.1605 36.258 34.1605C36.343 34.1605 36.4191 34.1078 36.449 34.0285C37.1098 32.2823 36.2264 30.594 36.1884 30.5228C36.1877 30.5217 36.1866 30.5211 36.1861 30.5199C36.1855 30.5189 36.1858 30.5178 36.1852 30.5169C36.1068 30.3812 34.221 27.1936 30.2286 26.3333C27.3525 25.7113 23.8771 27.3341 23.7305 27.4038C23.6959 27.4197 23.6669 27.4453 23.6461 27.4771C23.2328 28.1161 22.5434 29.8118 23.0515 30.9733C23.2247 31.3692 23.266 31.682 23.174 31.9039C23.1123 32.0524 22.9919 32.1715 22.7875 32.2817C22.7601 32.0263 22.672 31.6938 22.4091 31.5491C22.1521 31.4086 21.8179 31.4868 21.4153 31.7827C20.4621 32.4835 19.1021 34.1386 19.2261 34.8553C19.2564 35.0314 19.3669 35.1565 19.5366 35.2076C19.7007 35.2565 19.9029 35.2985 20.1157 35.3421C20.5366 35.4289 21.033 35.5305 21.2532 35.7129C20.6588 35.6369 19.5075 35.5315 19.0523 35.7869C18.5155 36.0891 17.5926 36.2817 16.9502 36.0492C16.7166 35.9518 16.1936 35.8746 15.8895 36.2865C15.7761 36.4403 15.5982 36.4823 15.4833 36.4435C15.3498 36.3999 15.3217 36.261 15.3217 36.1525C15.3217 35.6785 15.778 35.6417 15.9176 35.6417C16.0304 35.6417 16.1219 35.5502 16.1219 35.4375C16.1219 35.3247 16.0304 35.2332 15.9176 35.2332C15.6048 35.2332 15.3472 35.3351 15.1706 35.5085C15.0072 35.4232 14.9017 35.3223 14.8634 35.2059C14.8111 35.0468 14.8863 34.8819 14.9361 34.7978C15.0307 34.6371 15.1982 34.5517 15.3008 34.5103C15.5327 34.7282 15.8026 34.8841 15.9381 34.9435C16.0402 34.9876 16.1612 34.9414 16.2072 34.8381C16.2524 34.7349 16.205 34.6141 16.1018 34.569C15.8283 34.4493 15.3279 34.08 15.3043 33.7704C15.2956 33.657 15.4001 33.5708 15.5081 33.5437C15.586 33.524 15.7823 33.5085 15.9005 33.7815C16.1992 34.4727 17.1707 34.9589 17.212 34.9792C17.2408 34.9935 17.2715 35.0005 17.3024 35.0005C17.3522 35.0005 17.4011 34.9825 17.4397 34.9478C17.5261 34.869 19.561 32.9898 19.5728 29.9156C19.5798 28.0572 19.8382 26.8979 19.9342 26.5292C20.2954 26.5118 21.2185 26.4007 22.0475 25.7649C22.2875 26.19 22.8964 27.0152 24.0172 27.0434C24.0189 27.0434 24.0207 27.0434 24.0223 27.0434C24.0957 27.0434 24.1636 27.0036 24.2001 26.9396C24.2374 26.8737 24.2352 26.7927 24.1948 26.7295C24.1908 26.7231 23.8769 26.2209 23.9485 25.7878C24.206 26.0363 24.675 26.3724 25.3433 26.3965H25.3434H25.3435C25.3458 26.3965 25.3483 26.3965 25.3507 26.3965C25.3861 26.3965 25.4178 26.3849 25.447 26.3687C25.4603 26.3613 25.472 26.3556 25.4832 26.3452C25.5093 26.3225 25.5284 26.2935 25.5405 26.26C25.5416 26.2569 25.5448 26.2554 25.5458 26.2521C25.5485 26.243 25.8312 25.353 26.6381 24.9363C27.1535 24.6697 27.7748 24.6532 28.4875 24.888C28.5051 24.8936 28.5228 24.8934 28.5404 24.8943C28.5444 24.8945 28.5474 24.8981 28.5514 24.8981C28.5545 24.8981 28.5578 24.897 28.5609 24.8968C28.5662 24.8966 28.5711 24.8955 28.5764 24.8948C28.5855 24.8937 28.5945 24.8937 28.6036 24.8913C28.6098 24.8896 28.6143 24.8852 28.6204 24.883C28.6338 24.878 28.646 24.8719 28.6581 24.8643C28.6688 24.8577 28.6787 24.8507 28.6877 24.8424C28.6974 24.8337 28.7054 24.8238 28.7133 24.8132C28.7212 24.8026 28.7281 24.792 28.7338 24.78C28.7366 24.7745 28.7411 24.7705 28.7432 24.7645C28.7704 24.6902 29.193 23.5868 30.2467 22.9356C30.2505 22.9363 30.2535 22.9386 30.2574 22.9389C30.2827 22.9417 32.8003 23.2204 34.1938 23.9008C34.6187 24.1084 35.1371 24.2111 35.6503 24.2111C36.2297 24.2111 36.802 24.0801 37.2231 23.8222C37.6827 23.5408 37.93 23.1365 37.9381 22.6544C37.9549 21.6658 37.3464 20.905 36.7655 20.6916C36.401 20.5581 36.05 20.6384 35.8282 20.9092C35.5521 21.2455 35.5684 21.6811 35.867 21.9456C36.177 22.2202 36.7494 22.2637 37.3222 21.7572C37.3892 21.8873 37.4428 22.0309 37.4789 22.1843C36.8328 22.6309 36.2301 22.7798 35.738 22.6138C35.2705 22.4563 34.9918 22.0514 34.8866 21.7253C34.8038 21.4693 34.8503 21.1511 35.0137 20.8532C35.2436 20.4339 35.6623 20.1184 36.1624 19.9882C36.6839 19.8514 37.5392 19.969 38.1851 20.5489C38.6639 20.9796 39.1877 21.81 38.9613 23.3243ZM37.0907 21.4152C36.6893 21.793 36.3198 21.8015 36.1374 21.6398C36.0033 21.5212 36.0058 21.336 36.1436 21.1689C36.2252 21.0695 36.3263 21.0359 36.4245 21.0359C36.4953 21.0359 36.5648 21.0535 36.6243 21.0753C36.7861 21.1348 36.9486 21.253 37.0907 21.4152Z" fill="#464655"/>
</g>
<defs>
<clipPath id="clip0_108_46374">
<rect width="50" height="50" fill="white" transform="translate(0.882812 0.32373)"/>
</clipPath>
</defs>
</svg>
