<svg width="51" height="51" viewBox="0 0 51 51" fill="none" xmlns="http://www.w3.org/2000/svg">
<g clip-path="url(#clip0_108_46362)">
<path d="M49.7421 8.94449H1.4666C0.990525 8.94449 0.604492 9.33042 0.604492 9.80649V40.8408C0.604492 41.3169 0.990525 41.7029 1.4666 41.7029H49.7422C50.2183 41.7029 50.6043 41.3169 50.6043 40.8408V9.80649C50.6042 9.33042 50.2182 8.94449 49.7421 8.94449Z" fill="#73AF00"/>
<path d="M38.5353 20.1508H32.5009V41.7025H38.5353V20.1508Z" fill="#FF4B55"/>
<path d="M44.5693 20.1508H38.5349V41.7025H44.5693V20.1508Z" fill="#464655"/>
<path d="M50.6033 20.1508H44.5688V41.7025H50.6033V20.1508Z" fill="#FF9B55"/>
<path d="M49.1344 12.9075C49.1532 12.8697 49.1442 12.824 49.1125 12.7961C49.0807 12.7681 49.0342 12.7652 48.9992 12.7884C48.8248 12.9041 48.6491 13.0093 48.4747 13.1047C49.0359 12.6409 49.1145 12.2382 49.1196 12.2089C49.1259 12.1721 49.1095 12.135 49.0782 12.1148C49.0466 12.0944 49.0062 12.0949 48.9752 12.1159C48.3691 12.5271 47.7624 12.8205 47.2394 13.0271C47.9418 12.5832 48.2203 12.1304 48.2372 12.1018C48.2592 12.0651 48.2533 12.0181 48.223 11.9879C48.1927 11.9576 48.1457 11.9521 48.109 11.974C47.5482 12.3121 46.8839 12.5786 46.2491 12.784C46.3334 12.6539 46.3934 12.5078 46.3395 12.4257C46.2894 12.3496 46.198 12.3496 46.0674 12.426C45.8032 12.5809 43.8008 13.0913 43.0248 13.2815C42.234 13.1386 41.5787 13.3412 41.3745 13.4161C41.3201 13.3514 41.2953 13.2887 41.2848 13.2397C41.2679 13.1599 41.2803 13.0788 41.318 13.0227C41.3795 12.9312 41.5066 12.9224 41.6188 12.9147C41.6677 12.9113 41.7112 12.9083 41.7493 12.8987C41.7737 12.906 41.8036 12.92 41.8031 12.931C41.8009 12.9735 41.8277 13.012 41.8683 13.0248C41.9091 13.0375 41.9529 13.0213 41.9755 12.9851C41.9811 12.9759 42.1131 12.76 42.0109 12.5761C41.9366 12.4424 41.766 12.3721 41.5037 12.367C41.3961 12.2919 40.9893 12.0474 40.4882 12.2363C39.9806 12.4278 39.7553 12.9491 39.6808 13.1694C39.2857 13.1146 37.4721 12.8378 36.4861 12.259C36.4381 12.2372 36.2745 12.173 36.1831 12.2601C36.127 12.3133 36.1204 12.3959 36.1634 12.5058C36.1862 12.564 36.2213 12.6208 36.2678 12.6767C35.74 12.4344 35.0284 12.096 34.4907 11.7951C34.4065 11.7562 34.2538 11.7032 34.175 11.7858C34.1257 11.8377 34.1264 11.9131 34.1773 12.0102C34.188 12.0307 34.1987 12.0535 34.2102 12.0786C34.2625 12.1914 34.3339 12.3452 34.5083 12.5228C34.378 12.4516 34.2605 12.3783 34.1663 12.3051C33.6943 11.9378 33.6303 11.9019 33.5457 11.9589C33.4729 12.0079 33.4964 12.0908 33.5213 12.1786L33.5279 12.2018C33.5484 12.2747 33.5819 12.3923 33.6736 12.5341C33.6004 12.4843 33.5375 12.4741 33.488 12.5087C33.4585 12.5291 33.4141 12.5799 33.4483 12.6918C33.5304 12.9595 34.0977 13.6643 35.177 13.8718C35.0685 13.8876 34.9543 13.8993 34.8443 13.9016C34.8025 13.9024 34.7662 13.9311 34.7558 13.9716C34.7454 14.0121 34.7633 14.0548 34.7996 14.0756C34.8194 14.0869 35.2008 14.3004 35.9002 14.2824C35.7956 14.3088 35.677 14.3291 35.5457 14.3369C35.5049 14.3394 35.4704 14.3681 35.4607 14.4077C35.4509 14.4474 35.4681 14.4888 35.503 14.5099C35.5238 14.5225 35.9297 14.7611 36.5581 14.7259L36.5033 14.7596C36.4718 14.779 36.4547 14.815 36.4598 14.8517C36.4649 14.8883 36.491 14.9186 36.5266 14.9287C36.5462 14.9343 36.9004 15.0329 37.3416 14.9862L37.2641 15.0414C37.2329 15.0636 37.2184 15.1025 37.2275 15.1396C37.2367 15.1767 37.2674 15.2045 37.3053 15.2098C37.3133 15.2109 37.3703 15.2183 37.4617 15.2183C37.522 15.2183 37.5972 15.2149 37.6829 15.2045C37.681 15.2268 37.6836 15.2489 37.6909 15.271C37.7351 15.4039 37.9308 15.436 37.9959 15.4369C37.9999 15.437 38.0038 15.437 38.0077 15.437C38.0865 15.437 38.1698 15.4259 38.2547 15.409C38.3907 15.536 38.6391 15.5244 38.88 15.4684C38.8657 15.49 38.8549 15.5117 38.848 15.5331C38.8342 15.5771 38.8447 15.6221 38.8763 15.6535C38.9069 15.6839 38.9809 15.7574 39.6543 15.568C39.6515 15.5701 39.6487 15.5723 39.6459 15.5744C39.5563 15.6437 39.562 15.7153 39.5734 15.7519C39.6147 15.8843 39.9118 15.9691 40.4509 16.0053C40.4628 16.3051 40.3796 16.6307 40.3786 16.6343C40.3692 16.6701 40.382 16.7082 40.4112 16.7311C40.4403 16.7539 40.4803 16.7574 40.5131 16.7399C40.5442 16.7231 40.5753 16.7015 40.6046 16.6781L40.602 16.7772C40.6011 16.8133 40.6209 16.8466 40.6529 16.8628C40.6664 16.8696 40.6808 16.8729 40.6953 16.8729C40.699 16.8729 40.7024 16.8717 40.706 16.8712C40.696 16.9557 40.6617 17.0565 40.5535 17.0803C40.5044 17.091 40.4522 17.0963 40.4018 17.1015C40.1724 17.125 39.9123 17.1516 39.8712 17.6775C39.8681 17.717 39.8902 17.7542 39.9265 17.7702C39.9626 17.786 40.0049 17.7776 40.0321 17.7489L40.132 17.6427C40.1908 17.6571 40.2845 17.672 40.3848 17.6557C40.3596 17.7774 40.367 17.9272 40.4888 18.0543C40.5151 18.0817 40.5556 18.0904 40.5909 18.0763C40.6263 18.062 40.6494 18.0277 40.6494 17.9897V17.9223C40.7073 17.9089 40.7842 17.8807 40.8568 17.8229C40.8994 17.9148 40.9807 18.0226 41.1353 18.1137C41.15 18.1223 41.1664 18.1264 41.1826 18.1264C41.204 18.1264 41.2252 18.1191 41.2422 18.1049C41.2724 18.0798 41.2837 18.0383 41.2702 18.0012L41.2215 17.8672C41.2555 17.8337 41.2996 17.7857 41.3382 17.7346C41.3572 17.7623 41.3892 17.7782 41.4234 17.7749C41.4589 17.7715 41.4893 17.7481 41.5018 17.7147L41.5361 17.6234C41.5563 17.6179 41.5757 17.6111 41.5941 17.6036C41.6171 17.8057 41.7724 17.9738 41.7818 17.9838C41.7997 18.0027 41.8244 18.0132 41.8498 18.0132C41.8573 18.0132 41.865 18.0123 41.8725 18.0103C41.9055 18.002 41.9311 17.9767 41.94 17.944L41.992 17.7501C42.1297 17.6803 42.1431 17.554 42.1515 17.4753C42.1532 17.4599 42.1555 17.4385 42.1559 17.4276C42.2097 17.4541 42.3238 17.5822 42.4098 17.7151C42.4269 17.7415 42.4563 17.7577 42.4878 17.7578C42.5198 17.7556 42.5486 17.7423 42.5661 17.716C42.5661 17.716 42.6389 17.6057 42.6744 17.5413C42.8248 17.2683 42.5969 17.1049 42.4875 17.0264C42.4606 17.007 42.4238 16.9807 42.4179 16.9733C42.3972 16.9233 42.4045 16.8767 42.418 16.8406C42.5094 16.9035 42.6131 16.9565 42.7281 16.9836C42.7352 16.9853 42.7424 16.986 42.7494 16.986C42.7794 16.986 42.8081 16.9715 42.8258 16.9462C42.8476 16.9149 42.8483 16.8734 42.8274 16.8416C42.8254 16.8384 42.6538 16.5745 42.5432 16.25C42.7218 16.3548 42.9635 16.4812 43.0888 16.4812C43.1749 16.4812 43.2077 16.4277 43.2179 16.4048C43.2239 16.3913 43.2346 16.3669 43.2261 16.3212C43.3921 16.4108 43.5793 16.4804 43.7216 16.4436C43.7635 16.4329 43.8621 16.4074 43.877 16.319C43.8845 16.2743 43.8695 16.2381 43.8365 16.2024C43.9906 16.2398 44.1567 16.2585 44.3197 16.2369C44.4555 16.219 44.4957 16.1531 44.5052 16.1009C44.5114 16.0675 44.5223 16.0033 44.4011 15.882C44.6352 15.8692 44.8442 15.8181 44.8614 15.6769C44.8629 15.6642 44.8605 15.6526 44.8594 15.6407C45.6118 15.5587 46.1842 15.0882 46.2095 15.067C46.2169 15.0608 46.2218 15.0532 46.2268 15.0455C46.6823 14.9886 47.1997 14.8857 47.6185 14.6975C48.4089 14.3421 48.8092 13.8623 48.7375 13.6882C48.7167 13.6375 48.657 13.6009 48.5832 13.6284C48.5625 13.6361 48.5206 13.6531 48.4658 13.6754C48.9338 13.2952 49.1169 12.9427 49.1344 12.9075Z" fill="#FF9B55"/>
<path d="M49.1345 12.9075C49.1533 12.8697 49.1443 12.824 49.1126 12.7961C49.0808 12.7681 49.0343 12.7651 48.9993 12.7884C48.8249 12.9042 48.6491 13.0093 48.4748 13.1047C49.036 12.6409 49.1147 12.2382 49.1197 12.2089C49.126 12.1721 49.1096 12.1349 49.0783 12.1148C49.0467 12.0943 49.0063 12.0948 48.9753 12.1159C48.3692 12.5271 47.7625 12.8205 47.2395 13.0271C47.942 12.5832 48.2204 12.1305 48.2374 12.1019C48.2593 12.0652 48.2534 12.0182 48.2231 11.9879C48.1928 11.9576 48.1458 11.9521 48.1091 11.9741C47.5483 12.3122 46.884 12.5787 46.2492 12.7842C46.3335 12.6541 46.3935 12.508 46.3396 12.4259C46.2895 12.3497 46.1981 12.3497 46.0675 12.4262C45.8033 12.5811 43.8009 13.0915 43.025 13.2816C42.2342 13.1388 41.5789 13.3414 41.3747 13.4163C41.3204 13.3516 41.2955 13.2889 41.285 13.2399C41.268 13.1602 41.2804 13.0791 41.3181 13.023C41.3796 12.9315 41.5067 12.9228 41.6189 12.915C41.6677 12.9116 41.7112 12.9086 41.7494 12.8991C41.7738 12.9063 41.8037 12.9204 41.8033 12.9313C41.8011 12.9738 41.8279 13.0123 41.8685 13.0251C41.9093 13.0378 41.9531 13.0216 41.9758 12.9854C41.9815 12.9763 42.1133 12.7603 42.0112 12.5764C41.9369 12.4427 41.7664 12.3724 41.5039 12.3673C41.3962 12.2922 40.9895 12.0477 40.4884 12.2366C39.9809 12.428 39.7555 12.9494 39.681 13.1697C39.2859 13.1149 37.4723 12.8381 36.4863 12.2593C36.4384 12.2375 36.2748 12.1735 36.1833 12.2604C36.1272 12.3136 36.1206 12.3962 36.1636 12.5061C36.1865 12.5643 36.2215 12.6211 36.268 12.677C35.7402 12.4347 35.0287 12.0963 34.4908 11.7954C34.4067 11.7565 34.2539 11.7034 34.1752 11.7861C34.1259 11.838 34.1265 11.9135 34.1775 12.0105C34.1882 12.031 34.1988 12.0538 34.2104 12.0789C34.2627 12.1917 34.334 12.3455 34.5085 12.5233C34.3783 12.4521 34.2607 12.3788 34.1665 12.3056C33.6945 11.9383 33.6304 11.9024 33.5459 11.9594C33.4731 12.0085 33.4966 12.0913 33.5215 12.1791L33.5281 12.2023C33.5486 12.2752 33.582 12.3928 33.6738 12.5346C33.6006 12.4848 33.5377 12.4746 33.4882 12.5092C33.4587 12.5294 33.4143 12.5804 33.4486 12.6923C33.5306 12.96 34.098 13.6646 35.1773 13.8723C35.0688 13.8881 34.9547 13.8998 34.8446 13.9021C34.8027 13.9029 34.7664 13.9315 34.7561 13.9721C34.7457 14.0126 34.7636 14.0552 34.7999 14.0761C34.8197 14.0874 35.2011 14.3009 35.9005 14.2827C35.7959 14.3091 35.6773 14.3295 35.5459 14.3372C35.5052 14.3396 35.4706 14.3684 35.4609 14.408C35.4511 14.4477 35.4683 14.4891 35.5034 14.5102C35.5242 14.5228 35.93 14.7615 36.5584 14.7262L36.5036 14.7599C36.4722 14.7793 36.455 14.8153 36.4601 14.852C36.4652 14.8886 36.4914 14.9188 36.5269 14.929C36.5465 14.9346 36.9007 15.0331 37.3419 14.9865L37.2644 15.0417C37.2332 15.0639 37.2187 15.1028 37.2279 15.1399C37.2369 15.177 37.2677 15.2049 37.3056 15.2101C37.3136 15.2112 37.3707 15.2186 37.4621 15.2186C37.5224 15.2186 37.5976 15.2153 37.6833 15.2049C37.6814 15.2271 37.684 15.2494 37.6913 15.2714C37.7355 15.4043 37.9312 15.4364 37.9963 15.4373C38.0003 15.4373 38.0042 15.4373 38.0081 15.4373C38.0869 15.4373 38.17 15.4262 38.2551 15.4093C38.3911 15.5363 38.6395 15.5247 38.8804 15.4686C38.8661 15.4903 38.8553 15.512 38.8483 15.5335C38.8345 15.5775 38.845 15.6225 38.8766 15.6539C38.9073 15.6843 38.9812 15.7577 39.6547 15.5684C39.6519 15.5706 39.6491 15.5727 39.6463 15.5749C39.5567 15.6442 39.5624 15.7158 39.5738 15.7523C39.6151 15.8848 39.9122 15.9696 40.4513 16.0058C40.4632 16.3056 40.3798 16.6311 40.379 16.6348C40.3696 16.6706 40.3824 16.7087 40.4116 16.7316C40.4407 16.7544 40.4807 16.7579 40.5135 16.7404C40.5447 16.7236 40.5757 16.7019 40.605 16.6786L40.6024 16.7776C40.6015 16.8137 40.6213 16.847 40.6534 16.8632C40.6669 16.87 40.6812 16.8733 40.6958 16.8733C40.6995 16.8733 40.7029 16.872 40.7065 16.8715C40.6965 16.9559 40.6622 17.0568 40.5538 17.0806C40.5047 17.0913 40.4526 17.0966 40.4021 17.1017C40.1727 17.1253 39.9126 17.1519 39.8715 17.6779C39.8685 17.7174 39.8905 17.7544 39.9268 17.7705C39.9628 17.7862 40.0052 17.7779 40.0323 17.7492L40.1322 17.643C40.1909 17.6574 40.2848 17.6722 40.385 17.656C40.3598 17.7777 40.3672 17.9275 40.489 18.0546C40.5153 18.082 40.5558 18.0907 40.5911 18.0765C40.6265 18.0623 40.6495 18.028 40.6495 17.99V17.9226C40.7074 17.9092 40.7843 17.881 40.8569 17.8232C40.8995 17.9151 40.9808 18.023 41.1354 18.1139C41.1501 18.1225 41.1665 18.1268 41.1827 18.1268C41.204 18.1268 41.2253 18.1195 41.2424 18.1053C41.2726 18.0802 41.2839 18.0387 41.2704 18.0017L41.2217 17.8677C41.2557 17.8342 41.2999 17.7863 41.3384 17.7351C41.3574 17.7629 41.3894 17.7788 41.4236 17.7755C41.4592 17.7721 41.4895 17.7487 41.5021 17.7153L41.5364 17.624C41.5566 17.6184 41.576 17.6117 41.5944 17.6042C41.6174 17.8062 41.7727 17.9744 41.7821 17.9844C41.8 18.0034 41.8247 18.0138 41.85 18.0138C41.8576 18.0138 41.8652 18.0129 41.8727 18.0109C41.9057 18.0026 41.9313 17.9773 41.9401 17.9446L41.9921 17.7507C42.1298 17.6809 42.1432 17.5546 42.1516 17.4759C42.1533 17.4604 42.1557 17.439 42.156 17.4282C42.2099 17.4547 42.3239 17.5828 42.4099 17.7157C42.427 17.7421 42.4564 17.7583 42.4879 17.7584C42.5199 17.7561 42.5487 17.7428 42.5662 17.7165C42.5662 17.7165 42.639 17.6062 42.6745 17.5418C42.8249 17.2688 42.5971 17.1054 42.4876 17.0268C42.4607 17.0075 42.4239 16.9811 42.418 16.9738C42.3974 16.9238 42.4046 16.8772 42.4181 16.8411C42.5094 16.904 42.6132 16.957 42.7281 16.9841C42.7352 16.9858 42.7424 16.9865 42.7494 16.9865C42.7794 16.9865 42.8081 16.972 42.8258 16.9467C42.8477 16.9154 42.8483 16.8739 42.8274 16.8421C42.8254 16.8389 42.6538 16.575 42.5432 16.2505C42.722 16.3551 42.9635 16.4817 43.0888 16.4817C43.1749 16.4817 43.2077 16.4282 43.2179 16.4053C43.2239 16.3918 43.2346 16.3674 43.2261 16.3217C43.3921 16.4114 43.5792 16.4808 43.7215 16.4441C43.7635 16.4333 43.862 16.4078 43.8769 16.3195C43.8844 16.2747 43.8694 16.2387 43.8364 16.2029C43.9905 16.2403 44.1566 16.259 44.3195 16.2374C44.4553 16.2194 44.4955 16.1536 44.5051 16.1014C44.5113 16.068 44.5222 16.0038 44.401 15.8825C44.6351 15.8697 44.8441 15.8185 44.8613 15.6773C44.863 15.6646 44.8605 15.6531 44.8593 15.6412C45.6117 15.5592 46.1841 15.0887 46.2094 15.0675C46.2168 15.0613 46.2217 15.0537 46.2267 15.046C46.6822 14.9892 47.1996 14.8863 47.6184 14.698C48.4088 14.3427 48.8091 13.8629 48.7374 13.6888C48.7166 13.6381 48.6569 13.6014 48.5831 13.629C48.5625 13.6367 48.5206 13.6537 48.4658 13.6761C48.9339 13.2952 49.117 12.9427 49.1345 12.9075ZM47.7606 12.3779C47.417 12.7141 46.7698 13.1975 45.7023 13.4779C45.693 13.4804 45.685 13.4852 45.6773 13.49C45.4529 13.4726 45.1691 13.4316 44.9203 13.3387C45.7091 13.1598 46.8174 12.8516 47.7606 12.3779ZM43.0106 13.4686C43.0238 13.4709 43.0371 13.4706 43.05 13.4675C43.161 13.4403 45.7305 12.8102 46.143 12.5974C46.0951 12.6919 46.003 12.8243 45.9276 12.8796C45.9255 12.8811 45.9245 12.8835 45.9225 12.8852C44.8161 13.2136 43.8771 13.3521 43.8617 13.3542C43.8107 13.3615 43.7753 13.4088 43.7826 13.4598C43.7899 13.5107 43.837 13.5461 43.8882 13.5389C43.8967 13.5376 44.1818 13.4957 44.6196 13.4043C44.8463 13.5343 45.1249 13.606 45.3786 13.6447C44.9996 13.6768 44.6488 13.6584 44.643 13.6581C44.5989 13.6565 44.5558 13.6872 44.5466 13.7324C44.5373 13.7776 44.5624 13.823 44.6058 13.8388L44.9587 13.9681C44.4626 14.0736 43.9843 13.9745 43.9786 13.9733C43.9403 13.9648 43.9013 13.9815 43.8804 14.0143C43.8595 14.047 43.861 14.0894 43.8844 14.1204C43.9517 14.2103 44.1418 14.3047 44.3076 14.3743C43.6256 14.5034 43.1562 14.0854 43.1341 14.0652C43.0962 14.0307 43.0374 14.0331 43.0027 14.0708C42.9679 14.1085 42.97 14.1671 43.0073 14.2022C43.5461 14.7063 44.5502 14.9211 45.0008 14.995C44.9341 15.0345 44.8537 15.0717 44.7694 15.0867C44.4235 15.1481 43.6249 14.7683 43.063 14.4609L42.613 14.2013C42.5689 14.1757 42.5123 14.1905 42.4862 14.2343C42.46 14.2781 42.474 14.3349 42.5175 14.3615C42.539 14.3748 42.7155 14.4828 42.9663 14.6206L44.0615 15.2527C43.7255 15.2942 43.371 15.219 43.3666 15.2181C43.3638 15.2175 43.3613 15.2183 43.3586 15.218C43.1022 15.0377 42.6886 14.7342 42.0675 14.2191C41.9675 13.8623 41.7802 13.7056 41.5457 13.5566C41.8108 13.4753 42.3698 13.3483 43.0106 13.4686ZM43.6876 15.4465C43.687 15.4467 43.6866 15.4472 43.6859 15.4474C43.6859 15.4474 43.685 15.4467 43.6846 15.4464C43.6857 15.4464 43.6867 15.4465 43.6876 15.4465ZM37.6113 15.0234L37.8247 14.8716C37.8626 14.8446 37.8749 14.7937 37.8534 14.7525C37.8319 14.7111 37.783 14.6923 37.7393 14.7077C37.3868 14.8336 37.0299 14.8208 36.8066 14.7921L37.0536 14.64C37.093 14.6158 37.1087 14.5664 37.0904 14.5238C37.0724 14.4813 37.0259 14.4586 36.981 14.4703C36.5313 14.5884 36.1568 14.5394 35.9116 14.4717C36.3013 14.3807 36.5276 14.2082 36.5396 14.199C36.5737 14.1727 36.5852 14.1263 36.5675 14.0869C36.5497 14.0477 36.5075 14.0261 36.4652 14.0336C35.9514 14.1304 35.5547 14.0984 35.2883 14.0434C35.5635 13.9972 35.7823 13.9314 35.7958 13.9273C35.7975 13.927 35.7986 13.9256 35.8 13.9251C35.8064 13.9229 35.8117 13.9192 35.8173 13.9158C35.8221 13.9128 35.8269 13.9104 35.831 13.9066C35.8355 13.9025 35.8386 13.8977 35.8423 13.8928C35.8458 13.888 35.8495 13.8837 35.8521 13.8784C35.8544 13.8733 35.8555 13.8678 35.8571 13.8624C35.8588 13.8561 35.8606 13.8501 35.8611 13.8435C35.8611 13.842 35.8619 13.8406 35.8619 13.8391C35.8619 13.8342 35.86 13.8299 35.8592 13.8252C35.8585 13.8206 35.8593 13.8159 35.8579 13.8112C35.8575 13.8098 35.8563 13.8088 35.8558 13.8073C35.8535 13.8011 35.85 13.7958 35.8466 13.7902C35.8436 13.7854 35.8411 13.7803 35.8373 13.7761C35.8333 13.7717 35.8285 13.7686 35.8238 13.7649C35.8189 13.7612 35.8145 13.7574 35.809 13.7548C35.804 13.7524 35.7985 13.7514 35.7931 13.7499C35.7867 13.7481 35.7807 13.7462 35.7741 13.7458C35.7724 13.7457 35.7712 13.7448 35.7697 13.7448C34.5713 13.7336 33.91 13.1032 33.6982 12.7816C34.0715 13.0417 34.562 13.2625 34.9193 13.3893H34.9196C35.3947 13.5728 35.9868 13.6897 36.0119 13.6945C36.0623 13.7043 36.1115 13.6716 36.1214 13.6209C36.1314 13.5703 36.0984 13.5213 36.0478 13.5114C36.0417 13.5103 35.4446 13.3925 34.9842 13.2143C33.9914 12.8301 33.7903 12.414 33.7232 12.2038C33.8305 12.2801 33.9746 12.3923 34.0519 12.4524C34.633 12.9043 35.9852 13.3317 36.0425 13.3498C36.0915 13.3653 36.1432 13.3384 36.1591 13.2898C36.1749 13.2411 36.1489 13.1889 36.1005 13.1724C34.7024 12.6961 34.4924 12.2433 34.3796 12.0001C34.3699 11.979 34.3607 11.9593 34.3516 11.9409C34.3704 11.9468 34.3901 11.954 34.406 11.9611C35.1811 12.3948 36.3202 12.9084 36.7508 13.099C36.6734 13.1363 36.5921 13.1675 36.5383 13.1705C36.5025 13.1726 36.4707 13.1949 36.4572 13.2284C36.4435 13.2617 36.4502 13.2999 36.4744 13.3265C36.4802 13.3327 36.5715 13.4307 36.749 13.469L36.6231 13.5512C36.5936 13.5705 36.5774 13.6049 36.5814 13.6399C36.5855 13.6751 36.6089 13.7049 36.6421 13.717C36.6507 13.7201 36.7947 13.7708 36.9849 13.7908L36.88 13.8673C36.8533 13.8867 36.8391 13.9188 36.8422 13.9516C36.8453 13.9844 36.8655 14.0131 36.8954 14.0272C36.9076 14.0328 37.051 14.098 37.2811 14.0871L37.2732 14.0926C37.2429 14.1139 37.228 14.1511 37.2353 14.1874C37.2425 14.2237 37.2708 14.2522 37.3071 14.2602C37.3213 14.2632 37.4975 14.2994 37.7502 14.2707L37.6928 14.309C37.6622 14.3292 37.6465 14.3658 37.6525 14.402C37.6585 14.4382 37.6852 14.4675 37.7208 14.4769C37.748 14.4839 38.1562 14.5854 38.6919 14.4155C38.5796 14.4895 38.4749 14.5431 38.3884 14.5625C38.3489 14.5715 38.3196 14.6048 38.316 14.6451C38.3123 14.6854 38.3352 14.7235 38.3724 14.7395C38.3748 14.7405 38.384 14.744 38.3962 14.7484C38.11 14.9379 37.8173 15.0037 37.6113 15.0234ZM37.16 13.3312C37.1419 13.2895 37.0966 13.2666 37.0523 13.2776C36.9443 13.304 36.8569 13.3014 36.7895 13.2871C36.9 13.2379 36.9945 13.1792 37.0113 13.1686C37.0181 13.1643 37.0238 13.1591 37.0291 13.1535C37.1951 13.2203 37.3835 13.2845 37.5948 13.3458L37.2367 13.6071C37.1168 13.6198 36.9979 13.6084 36.903 13.5914L37.1253 13.4465C37.1634 13.4214 37.178 13.3728 37.16 13.3312ZM37.9982 15.2506C37.9627 15.2502 37.8973 15.232 37.873 15.2147C37.8791 15.205 37.8946 15.1857 37.9291 15.1584C38.1493 15.102 38.4023 14.9949 38.6446 14.7972C38.8989 14.8156 39.2988 14.7552 39.7064 14.3457C39.7214 14.373 39.7372 14.4006 39.7555 14.4287C39.7113 14.462 38.6582 15.2564 37.9982 15.2506ZM38.7259 14.6136C39.0275 14.432 39.365 14.1163 39.5756 13.9053C39.5788 13.9824 39.5938 14.071 39.6272 14.1682C39.62 14.1725 39.6125 14.1764 39.6064 14.1828C39.272 14.5354 38.9467 14.6133 38.7259 14.6136ZM40.4782 15.8212C40.1711 15.8002 39.8852 15.7524 39.7807 15.7063C40.0348 15.508 40.1076 15.4205 40.1152 15.4108C40.1409 15.3787 40.1425 15.3335 40.1191 15.2996C40.0956 15.2656 40.0526 15.251 40.0137 15.2639C39.6789 15.3721 39.2878 15.4776 39.0946 15.5048C39.1833 15.4252 39.3411 15.3246 39.4835 15.2533C39.5292 15.2305 39.5481 15.1751 39.5258 15.1292C39.5035 15.0832 39.4484 15.0639 39.4022 15.0854C39.1482 15.2049 38.7848 15.3252 38.5573 15.3233C39.1765 15.1004 39.8077 14.6235 39.8678 14.5775C39.9154 14.6343 39.968 14.692 40.0313 14.7507C40.5884 15.2686 40.5273 15.6751 40.4782 15.8212ZM40.6319 16.39C40.6269 16.3962 40.62 16.4043 40.6115 16.4137C40.6317 16.2756 40.6462 16.1023 40.633 15.9376C40.6843 15.8248 40.7882 15.4904 40.5192 15.0469C40.6966 15.0727 41.1037 15.158 41.2799 15.4143C41.3032 15.4482 41.3265 15.4859 41.3494 15.525L41.3492 15.5253C41.3405 15.5459 41.1641 15.9731 41.2204 16.5072C41.1791 16.4586 41.1397 16.399 41.1133 16.3292C41.1008 16.2965 41.0712 16.2733 41.0362 16.2696C41.0018 16.2659 40.9674 16.2818 40.948 16.3111C40.9087 16.3708 40.8519 16.4526 40.7952 16.5271L40.7972 16.4517C40.7982 16.412 40.7739 16.376 40.7366 16.362C40.6995 16.348 40.6573 16.3592 40.6319 16.39ZM41.2334 17.5513C41.2148 17.6068 41.1153 17.7141 41.0507 17.7724C41.0484 17.7745 41.0462 17.7767 41.0441 17.779C40.9954 17.6984 40.9972 17.6347 40.9973 17.6311C41.0005 17.5875 40.9729 17.5475 40.931 17.5348C40.8891 17.5222 40.844 17.5405 40.8227 17.5786C40.7374 17.7309 40.5876 17.7466 40.5602 17.7483C40.5649 17.6359 40.6298 17.5338 40.634 17.5275C40.6598 17.4883 40.6523 17.4359 40.6166 17.4055C40.5811 17.375 40.5282 17.3756 40.4934 17.4071C40.3564 17.531 40.139 17.4509 40.137 17.4502C40.128 17.4468 40.1188 17.4447 40.1096 17.444C40.1698 17.313 40.2752 17.3022 40.4208 17.2874C40.4764 17.2817 40.5339 17.2758 40.5934 17.2627C40.8805 17.1999 40.9144 16.8825 40.8921 16.7234C40.8914 16.719 40.8891 16.7154 40.8878 16.7113C40.9327 16.656 40.9775 16.5955 41.0147 16.5433C41.0329 16.5711 41.0524 16.5962 41.0721 16.6199C41.0727 16.688 41.0765 16.8978 41.1001 17.0083C41.1188 17.096 41.183 17.1551 41.2445 17.193C41.2344 17.2128 41.2258 17.2337 41.2203 17.2563C41.1983 17.3467 41.217 17.446 41.2449 17.5311C41.2406 17.5379 41.2358 17.5437 41.2334 17.5513ZM41.2825 16.9694C41.2735 16.9278 41.268 16.8624 41.2643 16.7966C41.2904 16.8145 41.3088 16.8254 41.3114 16.8267C41.3438 16.8447 41.3841 16.842 41.4136 16.8192C41.443 16.7966 41.4562 16.7586 41.4473 16.7226C41.3487 16.3286 41.4147 15.96 41.4694 15.758C41.6301 16.111 41.7453 16.5467 41.7055 16.834C41.6993 16.8779 41.7251 16.9201 41.7669 16.9349C41.7756 16.9379 41.7846 16.9389 41.7934 16.9392C41.7924 16.949 41.7914 16.9594 41.7902 16.9684C41.6958 16.9655 41.5403 16.98 41.3896 17.0584C41.3465 17.0402 41.2906 17.0072 41.2825 16.9694ZM42.511 17.4516C42.5036 17.4651 42.4944 17.4806 42.4847 17.4967C42.3733 17.3492 42.2204 17.1975 42.0895 17.247C41.9841 17.2872 41.9732 17.3887 41.966 17.4559C41.9574 17.5371 41.9513 17.5709 41.8836 17.5941C41.8542 17.6042 41.8317 17.6282 41.8236 17.6581L41.8132 17.6969C41.7776 17.6185 41.7588 17.524 41.8118 17.4434C41.839 17.4021 41.8291 17.347 41.7893 17.3175C41.7496 17.2881 41.6936 17.2947 41.662 17.3327C41.6611 17.3337 41.5767 17.4331 41.4538 17.4506C41.4411 17.4524 41.4291 17.4568 41.4184 17.4633C41.4006 17.4062 41.3903 17.3466 41.4016 17.3004C41.4083 17.2728 41.422 17.2541 41.4456 17.2397C41.6324 17.1266 41.8505 17.1588 41.8523 17.1592C41.9016 17.1674 41.9469 17.1362 41.958 17.0885C41.9631 17.0672 42.003 16.8852 41.9738 16.7329L42.0945 16.5302C42.1379 16.5856 42.1966 16.6537 42.2684 16.7207C42.2288 16.7933 42.1901 16.9107 42.2453 17.0446C42.2675 17.0985 42.319 17.1354 42.3787 17.1781C42.5308 17.2874 42.5712 17.3423 42.511 17.4516ZM42.1676 16.3109C42.1505 16.2829 42.1165 16.2678 42.0874 16.2661C42.0547 16.2662 42.0245 16.2835 42.0076 16.3116L41.8864 16.5153C41.8352 16.1028 41.6409 15.6101 41.4336 15.3084C41.1641 14.9163 40.4976 14.842 40.3719 14.8425C40.3107 14.7683 40.2425 14.6924 40.1582 14.6141C39.605 14.0998 39.7869 13.6888 39.7957 13.6696C39.7965 13.668 39.7963 13.6663 39.797 13.6647C39.7994 13.6586 39.8005 13.6525 39.8016 13.6463C39.8026 13.6406 39.804 13.6351 39.804 13.6293C39.804 13.6233 39.8026 13.6179 39.8017 13.612C39.8005 13.6061 39.7996 13.6003 39.7975 13.5945C39.7953 13.5894 39.7922 13.585 39.7891 13.5801C39.7856 13.5745 39.7823 13.569 39.7775 13.5644C39.7763 13.5631 39.7758 13.5613 39.7744 13.5601C39.7711 13.557 39.767 13.5559 39.7633 13.5534C39.7595 13.5509 39.7568 13.5473 39.7526 13.5452C39.7509 13.5443 39.7491 13.5445 39.7474 13.5439C39.7413 13.5414 39.7353 13.5401 39.7289 13.539C39.7231 13.5379 39.7176 13.5365 39.7119 13.5365C39.706 13.5365 39.7005 13.5378 39.6946 13.5389C39.6886 13.5399 39.6828 13.5408 39.6772 13.5431C39.672 13.5451 39.6675 13.5483 39.6626 13.5514C39.657 13.5549 39.6516 13.5582 39.6469 13.5629C39.6456 13.5642 39.6439 13.5648 39.6427 13.566L39.6426 13.5661C39.0096 14.2576 38.3471 14.3398 38.0038 14.3254L38.402 14.0599C38.4802 14.0161 38.5592 13.9641 38.6377 13.9024C38.6772 13.8714 38.685 13.8149 38.6557 13.7744C38.6263 13.7337 38.57 13.7237 38.5284 13.7516L38.3098 13.8973C38.0401 14.0469 37.7796 14.0871 37.5976 14.0928L37.805 13.9474C37.9644 13.8703 38.1383 13.7546 38.3215 13.5841C38.3573 13.5507 38.3613 13.4952 38.3305 13.4571C38.2998 13.419 38.2448 13.4114 38.2044 13.4394L37.7099 13.786C37.4749 13.8967 37.2825 13.9103 37.1533 13.8984L37.8605 13.3822C37.8896 13.361 37.9038 13.325 37.8971 13.2897C37.8904 13.2543 37.8641 13.226 37.8294 13.2167C36.6767 12.9099 36.3996 12.5967 36.3371 12.4372C36.3317 12.4233 36.3281 12.412 36.3259 12.4032C36.3491 12.4068 36.3803 12.4155 36.4004 12.424C37.5298 13.0877 39.6456 13.3535 39.7351 13.3647C39.7812 13.3692 39.8239 13.3415 39.8362 13.297C39.8682 13.1821 40.0526 12.5997 40.5539 12.4106C41.0267 12.2325 41.3989 12.5205 41.4143 12.5325C41.4309 12.5458 41.4515 12.553 41.4726 12.553C41.6735 12.553 41.8067 12.5931 41.8475 12.6659C41.8606 12.6893 41.8644 12.716 41.8631 12.7428C41.8305 12.7262 41.7945 12.715 41.7591 12.7098C41.7431 12.7073 41.7267 12.7092 41.7116 12.715C41.6933 12.7222 41.6469 12.7254 41.606 12.7282C41.4745 12.7373 41.2757 12.751 41.1632 12.9183C41.0968 13.017 41.0747 13.1483 41.1025 13.2783C41.1199 13.3595 41.1634 13.4655 41.2625 13.569C41.2723 13.5884 41.2878 13.6024 41.3062 13.611C41.3402 13.6412 41.3781 13.671 41.4233 13.6993C41.6434 13.8369 41.805 13.964 41.8908 14.2754C41.8915 14.2864 41.8943 14.2969 41.8988 14.3069C41.934 14.4476 41.955 14.6234 41.9597 14.8523C41.9607 14.9032 42.0023 14.9437 42.0528 14.9437C42.0528 14.9437 42.0542 14.9437 42.0549 14.9437C42.1063 14.9427 42.1473 14.9 42.1463 14.8485C42.1435 14.7203 42.1351 14.6077 42.1225 14.5057C42.8174 15.0732 43.2276 15.3553 43.4334 15.4964C43.4624 15.5163 43.4899 15.5352 43.5139 15.552C43.3046 15.5711 42.973 15.38 42.7138 15.1823C42.6285 15.1054 42.5479 15.0418 42.5043 15.0084C42.4646 14.978 42.4081 14.9843 42.3761 15.0227C42.344 15.0609 42.3478 15.1177 42.3847 15.1514C42.4083 15.1729 42.4835 15.2402 42.5891 15.322C42.7113 15.433 42.8056 15.5378 42.8352 15.5981C42.69 15.5676 42.2917 15.3307 41.9678 15.0994C41.9278 15.0709 41.8728 15.0782 41.8416 15.1159C41.8104 15.1537 41.8138 15.2093 41.8492 15.243C42.0728 15.4553 42.2105 15.6492 42.2981 16.0648C42.348 16.3019 42.4447 16.5269 42.5272 16.69C42.3098 16.5416 42.1695 16.3141 42.1676 16.3109ZM44.2951 16.0522C43.8013 16.1171 43.2427 15.7407 43.2371 15.7369C43.1972 15.7098 43.1432 15.7173 43.1128 15.7545C43.0819 15.7916 43.0846 15.8459 43.1186 15.8799C43.2804 16.0416 43.4453 16.1515 43.5656 16.2315C43.5831 16.2432 43.6018 16.2557 43.6198 16.268C43.4403 16.259 43.1284 16.0566 42.9564 15.9158C42.9187 15.8849 42.8634 15.8884 42.8296 15.9239C42.796 15.9594 42.7955 16.0148 42.8284 16.0509C42.898 16.1271 42.964 16.2124 43.0041 16.2747C42.8678 16.2249 42.6378 16.094 42.4717 15.9878C42.4333 15.8176 42.386 15.6791 42.3278 15.5617C42.8697 15.8845 42.9609 15.7756 42.9952 15.7346C43.0151 15.7106 43.0375 15.6695 43.0306 15.609C43.0306 15.6087 43.0306 15.6083 43.0306 15.6083C43.2518 15.7202 43.4889 15.7862 43.6709 15.7012C43.6899 15.6922 43.7174 15.678 43.7393 15.6555C44.0751 15.8431 44.2508 15.9835 44.3042 16.0509C44.3012 16.0513 44.2982 16.0518 44.2951 16.0522ZM44.1683 15.6977C44.0653 15.6278 43.9334 15.5474 43.7599 15.4532C43.7564 15.4513 43.7524 15.4512 43.7487 15.4498C43.7793 15.451 43.8105 15.4519 43.8427 15.4519C43.9323 15.4519 44.0267 15.4457 44.1205 15.432C44.1276 15.4366 44.1344 15.4417 44.143 15.4444C44.432 15.5352 44.6059 15.6043 44.6616 15.6505C44.5873 15.6827 44.374 15.7037 44.1683 15.6977ZM44.718 15.4653C44.718 15.4653 44.717 15.4656 44.7164 15.4656C44.6414 15.422 44.5347 15.3791 44.399 15.3323C44.4039 15.3226 44.4076 15.3121 44.4087 15.3008C44.4109 15.2777 44.4045 15.2552 44.3916 15.2371C44.5501 15.275 44.6918 15.2899 44.8023 15.2703C44.9415 15.2455 45.0675 15.1769 45.1589 15.1153H45.159C45.2526 15.1153 45.5185 15.112 45.8592 15.084C45.6132 15.236 45.1937 15.4446 44.718 15.4653ZM48.4805 13.8714C48.3536 14.0311 48.0653 14.2924 47.5417 14.5277C46.8268 14.8492 45.771 14.9133 45.3309 14.9257C45.3302 14.9186 45.3295 14.9117 45.327 14.9049C45.3154 14.8706 45.2849 14.8462 45.2489 14.8421C45.2406 14.8412 44.7682 14.7862 44.2428 14.6278C44.5578 14.6576 44.855 14.6724 45.1332 14.6724C45.9186 14.6724 46.5602 14.5629 47.082 14.3988C47.0847 14.3984 47.0874 14.399 47.0901 14.3984C47.3776 14.3231 48.0627 14.0425 48.4307 13.8918C48.4482 13.8845 48.4647 13.8777 48.4805 13.8714ZM47.983 13.7822C47.376 14.1579 46.3176 14.5593 44.6434 14.4696C44.6759 14.4539 44.6973 14.4213 44.6966 14.3845C44.6958 14.3451 44.6705 14.3105 44.6332 14.298C44.5583 14.2727 44.4693 14.2392 44.3828 14.2029C44.639 14.2105 44.9726 14.1865 45.2897 14.0644C45.3259 14.0504 45.3498 14.0154 45.3494 13.9766C45.3491 13.9377 45.3247 13.903 45.2882 13.8898L45.1663 13.8451C45.4756 13.8322 45.8548 13.7917 46.1192 13.6804C46.1609 13.6628 46.1838 13.618 46.174 13.5739C46.1734 13.5717 46.172 13.5698 46.1714 13.5676C46.7301 13.4276 47.7588 13.1047 48.8207 12.4394C48.592 12.8194 47.9277 13.5262 46.047 13.9706C45.9983 13.9821 45.9672 14.03 45.9769 14.0791C45.9865 14.1283 46.0332 14.1605 46.0825 14.1535C46.0964 14.1514 47.375 13.9506 48.695 13.195C48.5385 13.369 48.3075 13.5814 47.983 13.7822Z" fill="#464655"/>
</g>
<defs>
<clipPath id="clip0_108_46362">
<rect width="50" height="50" fill="white" transform="translate(0.603516 0.32373)"/>
</clipPath>
</defs>
</svg>
