<svg width="51" height="51" viewBox="0 0 51 51" fill="none" xmlns="http://www.w3.org/2000/svg">
<g clip-path="url(#clip0_108_46346)">
<path d="M50.0312 13.6244H0.03125V9.8065C0.03125 9.33043 0.417284 8.9444 0.893358 8.9444H49.1691C49.6452 8.9444 50.0312 9.33043 50.0312 9.8065L50.0312 13.6244Z" fill="#73AF00"/>
<path d="M50.0312 13.6245H0.03125V18.3045H50.0312V13.6245Z" fill="#FFE15A"/>
<path d="M50.0312 18.3043H0.03125V22.9842H50.0312V18.3043Z" fill="#FF4B55"/>
<path d="M0.03125 37.0232H50.0312V40.8409C50.0312 41.317 49.6451 41.703 49.169 41.703H0.893358C0.417284 41.703 0.03125 41.317 0.03125 40.8409V37.0232Z" fill="#73AF00"/>
<path d="M50.0312 32.3433H0.03125V37.0233H50.0312V32.3433Z" fill="#FFE15A"/>
<path d="M50.0312 27.6636H0.03125V32.3436H50.0312V27.6636Z" fill="#FF4B55"/>
<path d="M50.0314 22.984H19.1543L1.42031 8.94455H0.893554C0.671093 8.94455 0.472754 9.03439 0.319824 9.17287V41.4749C0.472754 41.6132 0.671093 41.7031 0.893554 41.7031H1.42041L19.1543 27.6637H50.0314V22.984Z" fill="#464655"/>
<path d="M0.319628 41.4747L20.7209 25.3238L0.319628 9.17282C0.145215 9.33063 0.03125 9.5529 0.03125 9.80651V40.8409C0.03125 41.0946 0.145215 41.3169 0.319628 41.4747Z" fill="#F5F5F5"/>
<path d="M8.43605 19.0199L10.2527 22.7008L14.3148 23.2911L11.3754 26.1563L12.0693 30.202L8.43605 28.2918L4.80275 30.202L5.4967 26.1563L2.55725 23.2911L6.61945 22.7008L8.43605 19.0199Z" fill="#FF4B55"/>
<path d="M13.1493 25.7928L8.3216 22.0555C7.75676 20.7319 6.95393 19.8782 6.27239 19.8782C5.69338 19.8782 5.41028 20.4148 5.32923 20.7373C4.91223 20.9304 4.81438 21.3146 4.81028 21.3313C4.80344 21.3589 4.80999 21.3882 4.82737 21.4104C4.84495 21.4327 4.87171 21.4458 4.90012 21.4458L4.98655 21.4441C5.37444 21.4351 6.02073 21.4181 6.18596 22.6504C6.28909 23.4198 6.13596 24.798 5.64915 25.8368C5.30891 26.5626 5.42131 27.1495 5.4263 27.1741C5.43557 27.2204 5.47864 27.2508 5.52669 27.2479C5.53411 27.2471 5.55208 27.2465 5.57493 27.2457L5.96555 29.4541C5.97346 29.4982 6.01165 29.5304 6.05657 29.5304H11.885C11.9276 29.5304 11.9648 29.5012 11.9748 29.4598L12.6259 26.7856C12.6261 26.7848 12.627 26.7844 12.6272 26.7837C12.6276 26.7822 12.6271 26.7807 12.6274 26.7793L12.8342 25.9299C12.9872 25.9479 13.0782 25.9574 13.0833 25.958C13.1275 25.9637 13.1634 25.9385 13.1785 25.9004C13.1937 25.8622 13.182 25.8182 13.1493 25.7928Z" fill="#FFE15A"/>
<path d="M13.1493 25.7928L8.3216 22.0555C7.75676 20.7319 6.95393 19.8782 6.27239 19.8782C5.69338 19.8782 5.41028 20.4148 5.32923 20.7373C4.91223 20.9304 4.81438 21.3146 4.81028 21.3313C4.80344 21.3589 4.80999 21.3882 4.82737 21.4104C4.84495 21.4327 4.87171 21.4458 4.90012 21.4458L4.98655 21.4441C5.37444 21.4351 6.02073 21.4181 6.18596 22.6504C6.28909 23.4198 6.13596 24.798 5.64915 25.8368C5.30891 26.5626 5.42131 27.1495 5.4263 27.1741C5.43557 27.2204 5.47864 27.2508 5.52669 27.2479C5.53411 27.2471 5.55208 27.2465 5.57493 27.2457L5.96555 29.4541C5.97346 29.4982 6.01165 29.5304 6.05657 29.5304H11.885C11.9276 29.5304 11.9648 29.5012 11.9748 29.4598L12.6259 26.7856C12.6261 26.7848 12.627 26.7844 12.6272 26.7837C12.6276 26.7822 12.6271 26.7807 12.6274 26.7793L12.8342 25.9299C12.9872 25.9479 13.0782 25.9574 13.0833 25.958C13.1275 25.9637 13.1634 25.9385 13.1785 25.9004C13.1937 25.8622 13.182 25.8182 13.1493 25.7928ZM5.81643 25.9155C6.25706 24.9757 6.49465 23.5614 6.36926 22.626C6.19036 21.2918 5.44153 21.2499 5.03714 21.258C5.09446 21.1466 5.2136 20.9829 5.44378 20.889C5.47229 20.8775 5.49309 20.8522 5.49934 20.822C5.50579 20.791 5.66321 20.0634 6.27219 20.0634C6.87366 20.0634 7.63254 20.902 8.16067 22.1501C8.16682 22.1647 8.17668 22.1775 8.18918 22.1872L12.7741 25.7365C11.966 25.6384 9.85441 25.3475 8.60363 24.8547C7.94983 24.5971 7.8008 24.2052 7.66936 23.8594C7.65129 23.8116 7.59758 23.788 7.54992 23.8059C7.50217 23.8241 7.47815 23.8776 7.49641 23.9254C7.62707 24.2689 7.80608 24.7396 8.53586 25.0271C8.68459 25.0857 8.84514 25.1415 9.01398 25.1944C8.98459 25.2836 8.79748 25.738 7.96789 26.036C7.29563 26.2776 6.81721 26.6848 6.75188 27.0527C6.50618 27.0517 6.28694 27.0521 6.10276 27.0533V26.7862C6.10276 26.5833 6.29827 26.2894 6.5052 25.9782C6.79358 25.5446 7.12043 25.0531 7.12043 24.5504C7.12043 24.4993 7.07893 24.4578 7.02785 24.4578C6.97678 24.4578 6.93528 24.4993 6.93528 24.5504C6.93528 24.9971 6.62483 25.4639 6.351 25.8757C6.11838 26.2254 5.9176 26.5274 5.9176 26.7861V27.0548C5.77795 27.0562 5.66848 27.0581 5.5971 27.0601C5.58059 26.886 5.57112 26.4387 5.81643 25.9155ZM9.48547 25.3295C9.37844 25.6269 9.06164 25.7276 8.82678 25.7598C9.08137 25.5336 9.1673 25.3243 9.19142 25.2477C9.28732 25.276 9.38576 25.3031 9.48547 25.3295ZM9.66379 25.3755C9.76564 25.401 9.86838 25.4257 9.97218 25.4495C9.87775 25.6416 9.62541 25.7358 9.34963 25.7753C9.48635 25.6885 9.60217 25.5606 9.66379 25.3755ZM12.2793 27.4272C11.3414 27.1382 8.63478 27.0643 6.9385 27.0535C6.99592 26.8433 7.26213 26.5674 7.71291 26.3462C7.7175 26.3469 7.7217 26.349 7.72649 26.349C10.2587 26.358 12.0213 26.7336 12.4251 26.8282L12.2793 27.4272ZM12.1599 27.9175L11.79 27.5048C11.9663 27.5355 12.1166 27.5697 12.2355 27.6077L12.1599 27.9175ZM7.37434 27.9828L7.55422 28.1521C7.49885 28.1517 7.44426 28.1511 7.38762 28.1508C7.38274 28.0965 7.37864 28.039 7.37434 27.9828ZM12.0492 28.3719L11.5792 27.8569C11.5483 27.8229 11.4971 27.8167 11.4595 27.8424L10.9075 28.212L10.4922 27.7568C10.4601 27.7215 10.4056 27.7168 10.3676 27.7458L9.86867 28.1283L9.41594 27.6813C9.38195 27.6477 9.32765 27.6456 9.29133 27.6763L8.80393 28.0863L8.34729 27.6626C8.31272 27.6305 8.2591 27.6298 8.22336 27.6608L7.74699 28.0795L7.3553 27.7109C7.34846 27.6009 7.3424 27.4877 7.33713 27.3712L7.68781 27.7155C7.72199 27.7492 7.77639 27.7506 7.81291 27.7196L8.30344 27.2973L8.75158 27.7386C8.78537 27.7719 8.83918 27.7741 8.8758 27.7438L9.36789 27.3338L9.84006 27.7786C9.87336 27.8098 9.92414 27.8124 9.95978 27.7846L10.4536 27.4058L10.8668 27.8799C10.8981 27.9158 10.9515 27.9219 10.9903 27.8944L11.5397 27.503L12.0858 28.1122C12.0923 28.1194 12.1005 28.1239 12.1085 28.1286L12.0492 28.3719ZM11.7716 28.3422C11.6243 28.3235 11.4187 28.3015 11.1402 28.279L11.4964 28.0405L11.7716 28.3422ZM10.6889 28.2467C10.5031 28.235 10.2948 28.2237 10.0622 28.213L10.4128 27.9443L10.6889 28.2467ZM9.67482 28.1968C9.4631 28.1888 9.23293 28.1816 8.98566 28.1753L9.34601 27.8721L9.67482 28.1968ZM8.61887 28.1668C8.40559 28.1624 8.17893 28.1588 7.94055 28.1559L8.28303 27.8551L8.61887 28.1668ZM7.47229 27.2447C7.66428 27.2471 7.86428 27.2506 8.06887 27.2549L7.75656 27.5238L7.47229 27.2447ZM8.53566 27.2662C8.73449 27.2716 8.93537 27.2784 9.13586 27.2859L8.8216 27.5477L8.53566 27.2662ZM9.60871 27.3063C9.82101 27.3166 10.0306 27.328 10.2338 27.3411L9.90969 27.5897L9.60871 27.3063ZM10.6709 27.3732C10.8992 27.3918 11.1152 27.4128 11.3141 27.4365L10.9513 27.695L10.6709 27.3732ZM5.76194 27.2419C6.03997 27.2378 6.53831 27.2355 7.14621 27.241C7.18088 28.1203 7.25774 28.8266 7.37444 29.3455H6.13411L5.76194 27.2419ZM11.8123 29.3456H7.56379C7.49885 29.0673 7.44621 28.7294 7.40588 28.336C10.5006 28.3564 11.6763 28.51 11.9701 28.5581C11.9788 28.5666 11.9885 28.5735 11.9992 28.5778L11.8123 29.3456ZM12.4689 26.6485C12.0776 26.557 10.4628 26.2143 8.13342 26.1696C8.29758 26.1042 8.43752 26.0334 8.55539 25.9601C8.61047 25.9671 8.77268 25.9849 8.976 25.9849C9.39816 25.9849 9.99123 25.905 10.155 25.4904C11.1165 25.7008 12.1021 25.839 12.6493 25.9074L12.4689 26.6485Z" fill="#464655"/>
<path d="M6.53403 20.6954C6.53403 20.5253 6.39575 20.387 6.22563 20.387C6.05561 20.387 5.91724 20.5252 5.91724 20.6954C5.91724 20.8654 6.05552 21.0038 6.22563 21.0038C6.39565 21.0038 6.53403 20.8654 6.53403 20.6954ZM6.22563 20.8187C6.15757 20.8187 6.10229 20.7634 6.10229 20.6954C6.10229 20.6273 6.15757 20.572 6.22563 20.572C6.2937 20.572 6.34897 20.6273 6.34897 20.6954C6.34897 20.7634 6.2937 20.8187 6.22563 20.8187Z" fill="#464655"/>
<path d="M8.81091 26.4293C8.64363 26.4293 8.50769 26.5653 8.50769 26.7325C8.50769 26.8997 8.64373 27.0357 8.81091 27.0357C8.9781 27.0357 9.11423 26.8997 9.11423 26.7325C9.11423 26.5653 8.9781 26.4293 8.81091 26.4293ZM8.81091 26.8507C8.74568 26.8507 8.69275 26.7977 8.69275 26.7326C8.69275 26.6674 8.74578 26.6144 8.81091 26.6144C8.87615 26.6144 8.92927 26.6674 8.92927 26.7326C8.92927 26.7977 8.87605 26.8507 8.81091 26.8507Z" fill="#464655"/>
<path d="M9.71726 26.481C9.54998 26.481 9.41394 26.6172 9.41394 26.7844C9.41394 26.9516 9.55007 27.0876 9.71726 27.0876C9.88455 27.0876 10.0205 26.9516 10.0205 26.7844C10.0205 26.6172 9.88455 26.481 9.71726 26.481ZM9.71726 26.9025C9.65203 26.9025 9.5989 26.8495 9.5989 26.7844C9.5989 26.7191 9.65203 26.666 9.71726 26.666C9.78249 26.666 9.83542 26.7191 9.83542 26.7844C9.83552 26.8495 9.78249 26.9025 9.71726 26.9025Z" fill="#464655"/>
</g>
<defs>
<clipPath id="clip0_108_46346">
<rect width="50" height="50" fill="white" transform="translate(0.03125 0.32373)"/>
</clipPath>
</defs>
</svg>
