<svg width="48" height="48" viewBox="0 0 48 48" fill="none" xmlns="http://www.w3.org/2000/svg">
<g clip-path="url(#clip0_182_3571)">
<mask id="mask0_182_3571" style="mask-type:luminance" maskUnits="userSpaceOnUse" x="-1" y="0" width="49" height="49">
<path d="M23.9994 0C10.7442 0 -0.00111771 10.7453 -0.00111771 24.0006C-0.00111771 37.2558 10.7442 48.0011 23.9994 48.0011C37.2547 48.0011 48 37.2547 48 24.0006C48 10.7464 37.2547 0 23.9994 0Z" fill="white"/>
</mask>
<g mask="url(#mask0_182_3571)">
<path d="M0 0H48V48H0V0Z" fill="#FED519"/>
</g>
<path fill-rule="evenodd" clip-rule="evenodd" d="M24.31 15.0813C27.7779 15.0813 30.6227 17.9384 30.6227 21.3941V21.7535C30.6227 22.4744 30.0264 23.0797 29.2965 23.0797H18.7026C17.9716 23.0797 17.3764 22.4833 17.3764 21.7535V21.3941C17.3764 17.9262 20.2324 15.0813 23.6891 15.0813H24.3111H24.31ZM12.4343 19.8387H9.92097C9.43366 19.8387 9.03647 20.2392 9.03647 20.7232V28.6314C9.03647 29.1154 9.43699 29.5159 9.92097 29.5159H12.4343V19.8387ZM38.0803 19.8387H35.5659V29.5159H38.0803C38.5643 29.5159 38.9648 29.1187 38.9648 28.6314V20.7232C38.9648 20.2359 38.5677 19.8387 38.0803 19.8387ZM24.31 12.5469H23.688C18.8216 12.5469 14.8408 16.5355 14.8408 21.3941V30.2324C14.8408 32.6567 16.839 34.656 19.2644 34.656H28.7347C31.159 34.656 33.1583 32.6656 33.1583 30.2324V21.3941C33.1583 16.5277 29.1775 12.5469 24.3111 12.5469H24.31Z" fill="black"/>
</g>
<defs>
<clipPath id="clip0_182_3571">
<rect width="48" height="48" fill="white" transform="matrix(-1 0 0 1 48 0)"/>
</clipPath>
</defs>
</svg>
