<svg width="18" height="18" viewBox="0 0 18 18" fill="none" xmlns="http://www.w3.org/2000/svg">
<g clip-path="url(#clip0_402_2316)">
<path d="M5.62041 14.8437C7.03829 15.6643 8.70621 15.9412 10.3132 15.6229C11.9202 15.3046 13.3566 14.4127 14.3545 13.1135C15.3525 11.8144 15.844 10.1966 15.7372 8.56187C15.6305 6.92713 14.933 5.38699 13.7746 4.22859C12.6162 3.0702 11.076 2.37261 9.44128 2.2659C7.80654 2.15919 6.18878 2.65063 4.88962 3.6486C3.59046 4.64657 2.69857 6.08295 2.38024 7.68995C2.06191 9.29694 2.33887 10.9649 3.15948 12.3827L2.27987 15.0089C2.24681 15.108 2.24202 15.2144 2.26601 15.3161C2.29001 15.4177 2.34185 15.5107 2.41573 15.5846C2.48961 15.6585 2.5826 15.7103 2.68428 15.7343C2.78596 15.7583 2.89232 15.7535 2.99143 15.7205L5.62041 14.8437Z" stroke="black" stroke-width="1.5" stroke-linecap="round" stroke-linejoin="round"/>
</g>
<defs>
<clipPath id="clip0_402_2316">
<rect width="18" height="18" fill="white"/>
</clipPath>
</defs>
</svg>
