<svg width="22" height="23" viewBox="0 0 22 23" fill="none" xmlns="http://www.w3.org/2000/svg">
<path d="M12.6065 3.42216C12.6041 3.34594 12.521 3.29644 12.4557 3.33573C9.30672 5.22913 9.34963 9.9419 9.38745 10.8365C9.39045 10.9075 9.32303 10.9579 9.25897 10.9271C8.88311 10.7468 7.85674 10.0939 7.79432 8.31978C7.79164 8.24346 7.70928 8.19467 7.64367 8.23376C5.81119 9.3255 4.58301 11.3349 4.58301 13.5626C4.58301 16.9798 7.45584 19.7501 10.9997 19.7501C14.5435 19.7501 17.4163 16.9798 17.4163 13.5626C17.4163 8.60372 12.7341 7.5328 12.6065 3.42216Z" fill="#F56843"/>
<path d="M11.7786 11.836C11.7774 11.7991 11.7371 11.7751 11.7055 11.7941C10.1792 12.7119 10.2 14.9961 10.2183 15.4297C10.2198 15.4641 10.1871 15.4885 10.1561 15.4736C9.97387 15.3863 9.4764 15.0698 9.44615 14.2099C9.44484 14.1729 9.40493 14.1492 9.37313 14.1682C8.48494 14.6973 7.88965 15.6713 7.88965 16.751C7.88965 18.4073 9.28209 19.75 10.9998 19.75C12.7174 19.75 14.1099 18.4073 14.1099 16.751C14.1098 14.3475 11.8404 13.8284 11.7786 11.836Z" fill="white"/>
</svg>
